<?xml version="1.0" encoding="UTF-8" standalone="no"?>
<!-- Created with Inkscape (http://www.inkscape.org/) -->

<svg
   version="1.1"
   id="svg2346"
   xml:space="preserve"
   width="682.66669"
   height="682.66669"
   viewBox="0 0 682.66669 682.66669"
   xmlns="http://www.w3.org/2000/svg"
   xmlns:svg="http://www.w3.org/2000/svg"><defs
     id="defs2350"><clipPath
       clipPathUnits="userSpaceOnUse"
       id="clipPath2360"><path
         d="M 0,512 H 512 V 0 H 0 Z"
         id="path2358" /></clipPath></defs><g
     id="g2352"
     transform="matrix(1.3333333,0,0,-1.3333333,0,682.66667)"><g
       id="g2354"><g
         id="g2356"
         clip-path="url(#clipPath2360)"><g
           id="g2362"
           transform="translate(273.9659,502)"><path
             d="m 0,0 h -35.932 c -6.187,0 -10.711,-5.839 -9.166,-11.831 L -35.766,-48 h 35.6 l 9.332,36.169 C 10.711,-5.839 6.188,0 0,0 Z"
             style="fill:none;stroke:#000000;stroke-width:20;stroke-linecap:round;stroke-linejoin:round;stroke-miterlimit:10;stroke-dasharray:none;stroke-opacity:1"
             id="path2364" /></g><g
           id="g2366"
           transform="translate(210.9998,414)"><path
             d="m 0,0 h -104.667 c -11.045,0 -19.999,8.954 -19.999,20 v 0 c 0,11.046 8.954,20 19.999,20 h 299.334 c 11.046,0 20,-8.954 20,-20 v 0 c 0,-11.046 -8.954,-20 -20,-20 H 90"
             style="fill:none;stroke:#000000;stroke-width:20;stroke-linecap:round;stroke-linejoin:round;stroke-miterlimit:10;stroke-dasharray:none;stroke-opacity:1"
             id="path2368" /></g><g
           id="g2370"
           transform="translate(401.6458,414)"><path
             d="m 0,0 v -131 c 0,-28.9 -10.643,-56.788 -29.897,-78.34 v 0 c -19.254,-21.552 -29.897,-49.44 -29.897,-78.34 V -404 h -171.704 v 116.32 c 0,28.9 -10.643,56.788 -29.897,78.34 v 0 c -19.254,21.552 -29.897,49.44 -29.897,78.34 V 0"
             style="fill:none;stroke:#000000;stroke-width:20;stroke-linecap:round;stroke-linejoin:round;stroke-miterlimit:10;stroke-dasharray:none;stroke-opacity:1"
             id="path2372" /></g><g
           id="g2374"
           transform="translate(154.6667,10)"><path
             d="M 0,0 H 202.667"
             style="fill:none;stroke:#000000;stroke-width:20;stroke-linecap:round;stroke-linejoin:round;stroke-miterlimit:10;stroke-dasharray:none;stroke-opacity:1"
             id="path2376" /></g><g
           id="g2378"
           transform="translate(263.1696,319.1327)"><path
             d="m 0,0 6.15,-12.453 13.745,-1.993 c 6.562,-0.952 9.184,-9.015 4.437,-13.645 l -9.943,-9.697 2.352,-13.688 c 1.122,-6.535 -5.736,-11.52 -11.606,-8.436 l -12.295,6.46 -12.291,-6.467 c -5.868,-3.087 -12.729,1.895 -11.61,8.431 l 2.344,13.689 -9.948,9.692 c -4.749,4.627 -2.131,12.691 4.43,13.646 l 13.744,2.001 6.143,12.456 C -11.415,5.943 -2.936,5.945 0,0 Z"
             style="fill:none;stroke:#000000;stroke-width:20;stroke-linecap:round;stroke-linejoin:round;stroke-miterlimit:10;stroke-dasharray:none;stroke-opacity:1"
             id="path2380" /></g><g
           id="g2382"
           transform="translate(341.5,288.3333)"><path
             d="M 0,0 C 0,47.22 -38.28,85.5 -85.5,85.5 -132.72,85.5 -171,47.22 -171,0 c 0,-47.22 38.28,-85.5 85.5,-85.5 C -38.28,-85.5 0,-47.22 0,0 Z"
             style="fill:none;stroke:#000000;stroke-width:20;stroke-linecap:round;stroke-linejoin:round;stroke-miterlimit:10;stroke-dasharray:none;stroke-opacity:1"
             id="path2384" /></g><g
           id="g2386"
           transform="translate(256,414)"><path
             d="M 0,0 V 0"
             style="fill:none;stroke:#000000;stroke-width:20;stroke-linecap:round;stroke-linejoin:round;stroke-miterlimit:10;stroke-dasharray:none;stroke-opacity:1"
             id="path2388" /></g></g></g></g></svg>
