<svg id="Capa_1" enable-background="new 0 0 512 512" height="512" viewBox="0 0 512 512" width="512" xmlns="http://www.w3.org/2000/svg"><g><path d="m196 406h120c8.284 0 15-6.716 15-15v-15c33.084 0 60-26.916 60-60s-26.916-60-60-60v-45c0-8.284-6.716-15-15-15h-120c-8.284 0-15 6.716-15 15v180c0 8.284 6.716 15 15 15zm105-30h-90v-90h90zm60-60c0 16.542-13.458 30-30 30v-60c16.542 0 30 13.458 30 30zm-60-90v30h-90v-30z"/><path d="m76 421c-8.284 0-15 6.716-15 15s6.716 15 15 15h15v46c0 8.284 6.716 15 15 15h330c8.284 0 15-6.716 15-15v-391c0-8.284-6.716-15-15-15h-45v-76c0-4.831-2.326-9.365-6.25-12.183s-8.964-3.574-13.542-2.031l-270 91c-6.132 2.07-10.208 7.924-10.208 14.214v75h-15c-8.284 0-15 6.716-15 15s6.716 15 15 15h15v90h-15c-8.284 0-15 6.716-15 15s6.716 15 15 15h15v90zm285-330h-163.529l163.529-55.115zm-240 240h15c8.284 0 15-6.716 15-15s-6.716-15-15-15h-15v-90h15c8.284 0 15-6.716 15-15s-6.716-15-15-15h-15v-60h300v361h-300v-31h15c8.284 0 15-6.716 15-15s-6.716-15-15-15h-15z"/></g></svg>