<?xml version="1.0" encoding="iso-8859-1"?>
<!-- Generator: Adobe Illustrator 19.0.0, SVG Export Plug-In . SVG Version: 6.00 Build 0)  -->
<svg version="1.1" id="Capa_1" xmlns="http://www.w3.org/2000/svg" xmlns:xlink="http://www.w3.org/1999/xlink" x="0px" y="0px"
	 viewBox="0 0 512 512" style="enable-background:new 0 0 512 512;" xml:space="preserve">
<g>
	<g>
		<path d="M286.243,260c-5.52,0-10,4.48-10,10c0,5.52,4.48,10,10,10c5.52,0,10-4.48,10-10C296.243,264.48,291.764,260,286.243,260z"
			/>
	</g>
</g>
<g>
	<g>
		<path d="M226.243,260c-5.52,0-10,4.48-10,10c0,5.52,4.48,10,10,10s10-4.48,10-10C236.243,264.48,231.764,260,226.243,260z"/>
	</g>
</g>
<g>
	<g>
		<path d="M166.243,260c-5.52,0-10,4.48-10,10c0,5.52,4.48,10,10,10s10-4.48,10-10C176.243,264.48,171.764,260,166.243,260z"/>
	</g>
</g>
<g>
	<g>
		<path d="M166.243,300c-5.523,0-10,4.477-10,10v92c0,5.523,4.477,10,10,10s10-4.477,10-10v-92
			C176.243,304.477,171.765,300,166.243,300z"/>
	</g>
</g>
<g>
	<g>
		<path d="M226.243,300c-5.523,0-10,4.477-10,10v92c0,5.523,4.477,10,10,10s10-4.477,10-10v-92
			C236.243,304.477,231.765,300,226.243,300z"/>
	</g>
</g>
<g>
	<g>
		<path d="M286.243,300c-5.523,0-10,4.477-10,10v92c0,5.523,4.477,10,10,10s10-4.477,10-10v-92
			C296.243,304.477,291.765,300,286.243,300z"/>
	</g>
</g>
<g>
	<g>
		<path d="M406.243,180h-50v-24.323c23.304-8.502,39.5-31.038,39.5-56.387c0-33.084-26.916-60-60-60
			c-4.666,0-9.31,0.561-13.881,1.674c-11.349-13.678-28.157-21.674-46.119-21.674c-10.321,0-20.314,2.685-29.313,7.824
			C235.437,10.42,216.525,0,196.243,0c-25.918,0-48.57,16.883-56.671,40.761c-37.581-8.011-76.315,18.715-82.764,56.173
			c-5.485,31.868,10.895,62.636,39.435,75.846V482c0,16.542,13.458,30,30,30h200c16.542,0,30-13.458,30-30v-50h50
			c27.57,0,50-22.43,50-50V230C456.243,202.43,433.814,180,406.243,180z M336.243,482c0,5.514-4.486,10-10,10h-200
			c-5.514,0-10-4.486-10-10v-10h220V482z M336.243,452h-220V178.638c3.134,0.426,6.305,0.652,9.5,0.652
			c22.89,0,44.365-11.333,57.445-30.318c1.713-2.487,4.653-3.972,7.865-3.972h35.19c5.514,0,10,4.486,10,10v45.12
			c0,21.99,17.89,39.88,39.88,39.88c22.425,0,40.291-18.307,40.12-40.137l-0.072-43.934c6.21,2.235,12.817,3.36,19.572,3.36
			c0.167,0,0.333-0.012,0.5-0.013V452z M335.743,139.29c-8.422,0-16.331-2.724-23.508-8.096c-3.034-2.271-7.089-2.631-10.476-0.933
			c-3.387,1.699-5.522,5.166-5.516,8.955l0.101,60.741c0.086,10.96-9.067,20.042-20.221,20.042c-10.962,0-19.88-8.918-19.88-19.88
			V155c0-16.542-13.458-30-30-30h-35.19c-9.792,0-18.89,4.721-24.334,12.626c-9.347,13.565-24.665,21.664-40.976,21.664
			c-30.929,0-54.602-27.726-49.226-58.963c4.649-27.005,35.537-49.458,66.805-37.66c6.013,2.268,12.583-1.652,13.44-8.022
			C159.423,34.894,176.395,20,196.243,20c15.379,0,29.578,8.987,36.175,22.895c2.688,5.669,8.384,5.602,10.463,6.465
			c3.009,0.816,6.222,0.186,8.697-1.707c7.153-5.471,15.51-8.363,24.165-8.363c12.472,0,24.116,5.797,31.682,15.642
			c1.249,6.107,7.732,9.601,13.518,7.28c4.839-1.939,9.819-2.922,14.8-2.922c22.056,0,40,17.944,40,40
			C375.743,121.005,358.064,139.29,335.743,139.29z M356.243,240h40v132h-40V240z M436.243,382c0,16.542-13.458,30-30,30h-50v-20h50
			c5.523,0,10-4.477,10-10V230c0-5.523-4.477-10-10-10h-50v-20h50c16.542,0,30,13.458,30,30V382z"/>
	</g>
</g>
<g>
</g>
<g>
</g>
<g>
</g>
<g>
</g>
<g>
</g>
<g>
</g>
<g>
</g>
<g>
</g>
<g>
</g>
<g>
</g>
<g>
</g>
<g>
</g>
<g>
</g>
<g>
</g>
<g>
</g>
</svg>
