<?xml version="1.0" encoding="UTF-8" standalone="no"?>
<!-- Created with Inkscape (http://www.inkscape.org/) -->

<svg
   version="1.1"
   id="svg5376"
   xml:space="preserve"
   width="682.66669"
   height="682.66669"
   viewBox="0 0 682.66669 682.66669"
   xmlns="http://www.w3.org/2000/svg"
   xmlns:svg="http://www.w3.org/2000/svg"><defs
     id="defs5380"><clipPath
       clipPathUnits="userSpaceOnUse"
       id="clipPath5390"><path
         d="M 0,512 H 512 V 0 H 0 Z"
         id="path5388" /></clipPath></defs><g
     id="g5382"
     transform="matrix(1.3333333,0,0,-1.3333333,0,682.66667)"><g
       id="g5384"><g
         id="g5386"
         clip-path="url(#clipPath5390)"><g
           id="g5392"
           transform="translate(472.3633,347.8453)"><path
             d="m 0,0 c 0,22.091 -17.909,40 -40,40 -22.091,0 -40,-17.909 -40,-40 0,-22.091 17.909,-40 40,-40 22.091,0 40,17.909 40,40 z"
             style="fill:none;stroke:#000000;stroke-width:20;stroke-linecap:round;stroke-linejoin:round;stroke-miterlimit:10;stroke-dasharray:none;stroke-opacity:1"
             id="path5394" /></g><g
           id="g5396"
           transform="translate(293.0353,334.7537)"><path
             d="m 0,0 c 0,20.384 -16.524,36.908 -36.908,36.908 -20.384,0 -36.909,-16.524 -36.909,-36.908 0,-20.384 16.525,-36.908 36.909,-36.908 C -16.524,-36.908 0,-20.384 0,0 Z"
             style="fill:none;stroke:#000000;stroke-width:20;stroke-linecap:round;stroke-linejoin:round;stroke-miterlimit:10;stroke-dasharray:none;stroke-opacity:1"
             id="path5398" /></g><g
           id="g5400"
           transform="translate(409.7176,381.9955)"><path
             d="M 0,0 -9.367,84.23 C -11.489,103.311 3.447,120 22.646,120 v 0 C 41.844,120 56.78,103.311 54.658,84.23 L 45.291,0"
             style="fill:none;stroke:#000000;stroke-width:20;stroke-linecap:round;stroke-linejoin:round;stroke-miterlimit:10;stroke-dasharray:none;stroke-opacity:1"
             id="path5402" /></g><g
           id="g5404"
           transform="translate(229.8933,414.2601)"><path
             d="M 0,0 -5.779,51.966 C -7.901,71.047 7.035,87.735 26.234,87.735 v 0 c 19.198,0 34.134,-16.688 32.012,-35.769 L 52.47,0.021"
             style="fill:none;stroke:#000000;stroke-width:20;stroke-linecap:round;stroke-linejoin:round;stroke-miterlimit:10;stroke-dasharray:none;stroke-opacity:1"
             id="path5406" /></g><g
           id="g5408"
           transform="translate(452.3633,307.8453)"><path
             d="M 0,0 V -40.084 H -40 V 0"
             style="fill:none;stroke:#000000;stroke-width:20;stroke-linecap:round;stroke-linejoin:round;stroke-miterlimit:10;stroke-dasharray:none;stroke-opacity:1"
             id="path5410" /></g><g
           id="g5412"
           transform="translate(39.8905,347.8453)"><path
             d="M 0,0 C 0,22.091 17.909,40 40,40 62.091,40 80,22.091 80,0 80,-22.091 62.091,-40 40,-40 17.909,-40 0,-22.091 0,0 Z"
             style="fill:none;stroke:#000000;stroke-width:20;stroke-linecap:round;stroke-linejoin:round;stroke-miterlimit:10;stroke-dasharray:none;stroke-opacity:1"
             id="path5414" /></g><g
           id="g5416"
           transform="translate(102.5362,381.9955)"><path
             d="M 0,0 9.367,84.23 C 11.489,103.311 -3.447,120 -22.646,120 v 0 C -41.844,120 -56.78,103.311 -54.658,84.23 L -45.291,0"
             style="fill:none;stroke:#000000;stroke-width:20;stroke-linecap:round;stroke-linejoin:round;stroke-miterlimit:10;stroke-dasharray:none;stroke-opacity:1"
             id="path5418" /></g><g
           id="g5420"
           transform="translate(59.8905,307.8453)"><path
             d="M 0,0 V -40.084 H 40 V 0"
             style="fill:none;stroke:#000000;stroke-width:20;stroke-linecap:round;stroke-linejoin:round;stroke-miterlimit:10;stroke-dasharray:none;stroke-opacity:1"
             id="path5422" /></g><g
           id="g5424"
           transform="translate(295,66.6621)"><path
             d="m 0,0 h -78 l -28,-56.667 H 28 Z"
             style="fill:none;stroke:#000000;stroke-width:20;stroke-linecap:round;stroke-linejoin:round;stroke-miterlimit:10;stroke-dasharray:none;stroke-opacity:1"
             id="path5426" /></g><g
           id="g5428"
           transform="translate(101.3333,307.8453)"><path
             d="m 0,0 h 36.188 c 38.895,0 70.425,-31.53 70.425,-70.425 V -189.15 c 0,-18.555 5.574,-36.683 16,-52.033 v 0"
             style="fill:none;stroke:#000000;stroke-width:20;stroke-linecap:round;stroke-linejoin:round;stroke-miterlimit:10;stroke-dasharray:none;stroke-opacity:1"
             id="path5430" /></g><g
           id="g5432"
           transform="translate(407.1953,307.8453)"><path
             d="m 0,0 h -32.717 c -38.894,0 -70.425,-31.53 -70.425,-70.425 V -189.15 c 0,-18.555 -5.574,-36.683 -16,-52.033 v 0"
             style="fill:none;stroke:#000000;stroke-width:20;stroke-linecap:round;stroke-linejoin:round;stroke-miterlimit:10;stroke-dasharray:none;stroke-opacity:1"
             id="path5434" /></g><g
           id="g5436"
           transform="translate(412.3633,387.8451)"><path
             d="m 0,0 h -54.738 c -19.484,0 -38.382,6.022 -54.695,16.676 -13.493,8.812 -29.611,13.936 -46.93,13.936 -17.32,0 -33.438,-5.124 -46.931,-13.936 C -219.607,6.022 -238.505,0 -257.989,0 h -48.708"
             style="fill:none;stroke:#000000;stroke-width:20;stroke-linecap:round;stroke-linejoin:round;stroke-miterlimit:10;stroke-dasharray:none;stroke-opacity:1"
             id="path5438" /></g><g
           id="g5440"
           transform="translate(364.6767,172.7555)"><path
             d="M 0,0 H 135.373"
             style="fill:none;stroke:#000000;stroke-width:20;stroke-linecap:round;stroke-linejoin:round;stroke-miterlimit:10;stroke-dasharray:none;stroke-opacity:1"
             id="path5442" /></g><g
           id="g5444"
           transform="translate(432.3633,217.9955)"><path
             d="m 0,0 h -69.637 v -26.3 c 0,-19.797 4.256,-39.363 12.48,-57.371 v 0 c 8.224,-18.008 12.48,-37.574 12.48,-57.371 V -208 H 0"
             style="fill:none;stroke:#000000;stroke-width:20;stroke-linecap:round;stroke-linejoin:round;stroke-miterlimit:10;stroke-dasharray:none;stroke-opacity:1"
             id="path5446" /></g><g
           id="g5448"
           transform="translate(432.3633,217.9955)"><path
             d="m 0,0 h 69.637 v -26.3 c 0,-19.797 -4.257,-39.363 -12.48,-57.371 v 0 c -8.224,-18.008 -12.48,-37.574 -12.48,-57.371 l 0,-66.958 H 0"
             style="fill:none;stroke:#000000;stroke-width:20;stroke-linecap:round;stroke-linejoin:round;stroke-miterlimit:10;stroke-dasharray:none;stroke-opacity:1"
             id="path5450" /></g><g
           id="g5452"
           transform="translate(387.6867,70.9955)"><path
             d="m 0,0 v -5 c 0,-8.837 7.163,-16 16,-16 h 57.353 c 8.837,0 16,7.163 16,16 v 5"
             style="fill:none;stroke:#000000;stroke-width:20;stroke-linecap:round;stroke-linejoin:round;stroke-miterlimit:10;stroke-dasharray:none;stroke-opacity:1"
             id="path5454" /></g><g
           id="g5456"
           transform="translate(147.3233,172.7555)"><path
             d="M 0,0 H -135.373"
             style="fill:none;stroke:#000000;stroke-width:20;stroke-linecap:round;stroke-linejoin:round;stroke-miterlimit:10;stroke-dasharray:none;stroke-opacity:1"
             id="path5458" /></g><g
           id="g5460"
           transform="translate(124.8905,217.9955)"><path
             d="m 0,0 h 24.383 v -26.3 c 0,-19.797 -4.256,-39.363 -12.48,-57.371 v 0 c -8.224,-18.008 -12.48,-37.574 -12.48,-57.371 V -208 h -44.677"
             style="fill:none;stroke:#000000;stroke-width:20;stroke-linecap:round;stroke-linejoin:round;stroke-miterlimit:10;stroke-dasharray:none;stroke-opacity:1"
             id="path5462" /></g><g
           id="g5464"
           transform="translate(34.9243,217.9955)"><path
             d="m 0,0 h -24.924 v -26.3 c 0,-19.797 4.256,-39.363 12.48,-57.371 v 0 c 8.224,-18.008 12.48,-37.574 12.48,-57.371 V -208 h 44.676"
             style="fill:none;stroke:#000000;stroke-width:20;stroke-linecap:round;stroke-linejoin:round;stroke-miterlimit:10;stroke-dasharray:none;stroke-opacity:1"
             id="path5466" /></g><g
           id="g5468"
           transform="translate(124.3133,70.9955)"><path
             d="m 0,0 v -5 c 0,-8.837 -7.163,-16 -16,-16 h -57.353 c -8.837,0 -16,7.163 -16,16 v 5"
             style="fill:none;stroke:#000000;stroke-width:20;stroke-linecap:round;stroke-linejoin:round;stroke-miterlimit:10;stroke-dasharray:none;stroke-opacity:1"
             id="path5470" /></g><g
           id="g5472"
           transform="translate(79.8905,217.9955)"><path
             d="M 0,0 V 0"
             style="fill:none;stroke:#000000;stroke-width:20;stroke-linecap:round;stroke-linejoin:round;stroke-miterlimit:10;stroke-dasharray:none;stroke-opacity:1"
             id="path5474" /></g></g></g></g></svg>
