<?xml version="1.0" encoding="UTF-8"?>
<svg id="Layer_1" xmlns="http://www.w3.org/2000/svg" xmlns:xlink="http://www.w3.org/1999/xlink" version="1.1" viewBox="0 0 594.58 116.48">
  <!-- Generator: Adobe Illustrator 30.2.1, SVG Export Plug-In . SVG Version: 2.1.1 Build 1)  -->
  <defs>
    <style>
      .st0, .st1, .st2, .st3, .st4, .st5, .st6, .st7, .st8, .st9, .st10 {
        fill: none;
      }

      .st1 {
        stroke-width: .11px;
      }

      .st1, .st2, .st3, .st4, .st5, .st6, .st7, .st8, .st9, .st10 {
        stroke: #31251c;
        stroke-miterlimit: 10;
      }

      .st2 {
        stroke-width: .12px;
      }

      .st11 {
        fill: #31251c;
      }

      .st12 {
        isolation: isolate;
      }

      .st13 {
        fill: #fcc978;
      }

      .st14 {
        clip-path: url(#clippath-1);
      }

      .st15 {
        clip-path: url(#clippath-2);
      }

      .st16 {
        fill: #fff;
      }

      .st3 {
        stroke-width: .22px;
      }

      .st4 {
        stroke-width: .21px;
      }

      .st5 {
        stroke-width: .2px;
      }

      .st6 {
        stroke-width: .15px;
      }

      .st7 {
        stroke-width: .14px;
      }

      .st8 {
        stroke-width: .19px;
      }

      .st9 {
        stroke-width: .18px;
      }

      .st10 {
        stroke-width: .17px;
      }

      .st17 {
        clip-path: url(#clippath);
      }
    </style>
    <clipPath id="clippath">
      <path class="st0" d="M94.56,16.12c-3.48-10.19-8.21-15.87-8.21-15.87-7,6.61-23.1,12.85-51.11,2.93C7.23-6.74,0,9.11,0,14.85c0,3.06,1,10.36,10.65,10.36,6.13,0,9.64-5.64,9.64-8.91s-2.62-7.44-2.62-7.44c4.39,0,6.39,0,13.48,2.93l-5.82,13.33.66,1.52,6.29-14.32c.91.39,1.91.82,3,1.3l-7.51,17.11.66,1.52,8-18.13,3,1.35-9.16,20.87.66,1.52,9.6-21.88,3,1.37-10.91,24.53.66,1.52,11.23-25.58,3,1.35-12.42,28.3.66,1.51,12.87-29.32c1,.42,2,.85,3,1.28l-14.08,32.09.67,1.5,14.54-33.14c1,.39,2,.78,3.06,1.14l-15.8,36,.67,1.49,16.29-37.11c1,.34,2.07.66,3.14,1l-17.61,40.13.68,1.46,18.11-41.28c1.07.27,2.15.51,3.25.71l-19.5,44.43.68,1.47,20-45.68c1.12.18,2.25.31,3.39.4l-21.52,49.07c.23.45.48.9.73,1.35l22.11-50.39c1.19.06,2.39.06,3.58,0l-23.62,53.83c.23.35.47.68.72,1l.13.06,24.15-55c7.28-.78,14.06-4.09,19.16-9.35ZM10.66,19.8c-1.94,0-3.52-1.58-3.52-3.52s1.58-3.52,3.52-3.52,3.52,1.58,3.52,3.52c.02,1.94-1.55,3.53-3.49,3.55h-.04v-.03h0Z"/>
    </clipPath>
    <clipPath id="clippath-1">
      <path class="st0" d="M87.24,21.67c5.5,42-12.67,64.6-21.2,76-6.78,8.82-7.26,12.73-4.85,16.52-8.87,3.82-16.73,1.76-19.73,1.11-1.19-1.71-2.11-3.59-2.73-5.58,4.73-3.5,12.86-10.63,21.19-24.31,18.5-26.69,15.64-57.4,15.59-60.06,4.11-.48,8.09-1.73,11.73-3.68Z"/>
    </clipPath>
    <clipPath id="clippath-2">
      <path class="st0" d="M94.56,16.12c-3.48-10.19-8.21-15.87-8.21-15.87-7,6.61-23.1,12.85-51.11,2.93C7.23-6.74,0,9.11,0,14.85,0,17.71.85,24.28,8.88,25.12h.16c.74.08,1.79.42,2.57,3.42,8.44,32.79,14.54,65,22.68,83.67.05.19.24.31.44.26.06-.01.11-.04.15-.08,2.07-1.49,13.36-7.8,25-27-6.45-3.06-13.12-18.65-13.12-18.65-4.23-8.73-22.73-50.3-22.73-50.3-2.9-6.26-5.06-7-6.39-7.64,6.35,0,7.69,0,26.66,8.86,12.02,5.52,32.91,15.46,50.26-1.54ZM7.14,16.29c0-1.94,1.58-3.52,3.52-3.52s3.52,1.58,3.52,3.52-1.58,3.52-3.52,3.52-3.51-1.56-3.52-3.5v-.02Z"/>
    </clipPath>
  </defs>
  <g>
    <g>
      <path class="st13" d="M86.34.27c-7,6.61-23.1,12.85-51.11,2.93S0,9.13,0,14.87c0,3.06,1,10.36,10.65,10.36,6.13,0,9.64-5.64,9.64-8.91s-2.62-7.44-2.62-7.44c6.35,0,7.69,0,26.66,8.86,12,5.45,32.87,15.4,50.22-1.59-3.48-10.2-8.21-15.88-8.21-15.88h0ZM10.65,19.83c-1.94,0-3.52-1.58-3.52-3.52s1.58-3.52,3.52-3.52,3.52,1.58,3.52,3.52h0c0,1.94-1.58,3.52-3.52,3.52Z"/>
      <path class="st13" d="M87.24,21.67c5.5,42-12.67,64.6-21.2,76-6.78,8.82-7.26,12.73-4.85,16.52-8.87,3.82-16.73,1.76-19.73,1.11-1.19-1.71-2.11-3.59-2.73-5.58,4.73-3.5,12.86-10.63,21.19-24.31,18.5-26.69,15.64-57.4,15.59-60.06,4.11-.48,8.09-1.73,11.73-3.68h0Z"/>
      <path class="st13" d="M74.27,24.98l-23.87,54.4c.23.35.47.68.72,1l.13.06,24.41-55.63c-.46.08-.92.14-1.39.17Z"/>
      <path class="st13" d="M47.6,74.62c.23.45.48.9.73,1.35l22.35-50.94-1.3-.07-21.78,49.66Z"/>
      <path class="st13" d="M45.03,69.33l.68,1.47,20.28-46.21-1.24-.21-19.72,44.95Z"/>
      <path class="st13" d="M42.48,64.01l.68,1.46,18.34-41.79-1.19-.31s-17.83,40.64-17.83,40.64Z"/>
      <path class="st13" d="M39.99,58.54l.67,1.49,16.51-37.62-1.15-.39s-16.03,36.52-16.03,36.52Z"/>
      <path class="st13" d="M37.52,53.01l.67,1.5,14.77-33.65-1.13-.44s-14.31,32.59-14.31,32.59Z"/>
      <path class="st13" d="M35.07,47.46l.66,1.51,13.1-29.85-1.11-.49-12.65,28.83Z"/>
      <path class="st13" d="M43.64,16.79l-11,25.09.66,1.52,11.45-26.09-.17-.08s-.94-.44-.94-.44Z"/>
      <path class="st13" d="M30.2,36.29l.66,1.52,9.83-22.39-1.1-.51s-9.39,21.38-9.39,21.38Z"/>
      <path class="st13" d="M27.77,30.68l.66,1.52,8.18-18.65-1.11-.5-7.73,17.63Z"/>
      <path class="st13" d="M25.34,25.12l.66,1.52,6.51-14.84-1.12-.47-6.05,13.79Z"/>
      <path class="st13" d="M17.68,8.87c1.32.66,3.48,1.38,6.39,7.64,0,0,18.5,41.57,22.73,50.3,0,0,6.67,15.59,13.12,18.65-11.67,19.16-23,25.47-25,27-.15.13-.38.12-.51-.03-.04-.04-.07-.1-.08-.15-8.13-18.66-14.24-50.88-22.68-83.67-.84-3.25-2-3.37-2.75-3.43-.07-.06,15.42-.75,8.78-16.31h0Z"/>
    </g>
    <g class="st12">
      <g class="st12">
        <path class="st16" d="M147.54,46.94c-2.76-1.41-5.14-2.41-7.13-2.99-1.99-.58-4.24-.87-6.75-.87-3.41,0-6.07.63-8,1.88s-2.89,2.97-2.89,5.16c0,3.15,2.38,5.66,7.13,7.52,4.69,1.93,8.69,3.77,12,5.54,3.31,1.77,5.83,3.42,7.57,4.96.64.58,1.27,1.35,1.88,2.31.61.96,1.12,1.99,1.54,3.08.42,1.09.75,2.23,1.01,3.42.26,1.19.39,2.36.39,3.52,0,2.96-.64,5.67-1.93,8.15-1.29,2.47-3.08,4.59-5.4,6.36-2.31,1.77-5.06,3.15-8.24,4.15-3.18,1-6.67,1.49-10.46,1.49-3.53,0-6.68-.27-9.45-.82-2.76-.54-5.59-1.46-8.48-2.75v-10.22c1.93,1.22,3.65,2.22,5.16,2.99,1.51.77,2.96,1.38,4.34,1.83,1.38.45,2.78.76,4.19.92,1.41.16,3.02.24,4.82.24,3.53,0,6.43-.82,8.68-2.46,2.25-1.64,3.37-3.74,3.37-6.31,0-2.06-.67-3.82-2.02-5.3-.52-.58-.98-1.04-1.4-1.4-.42-.35-1.04-.75-1.88-1.21-.84-.45-2.02-1.03-3.57-1.74-1.54-.71-3.73-1.7-6.55-2.99-5.33-2.44-9.21-4.96-11.61-7.57-2.41-2.6-3.61-5.64-3.61-9.11,0-2.76.67-5.35,2.02-7.76,1.35-2.41,3.21-4.51,5.59-6.31,2.38-1.8,5.16-3.21,8.34-4.24,3.18-1.03,6.57-1.54,10.17-1.54,1.93,0,3.69.14,5.3.43,1.61.29,3.57.79,5.88,1.49v10.12Z"/>
        <path class="st16" d="M173.18,35.18l14.07-.19c7.65,0,13.59,1.58,17.83,4.72,4.24,3.15,6.36,7.55,6.36,13.21,0,3.99-1.14,7.44-3.42,10.36-2.28,2.92-5.45,5.03-9.49,6.31-.9.32-1.85.56-2.84.72-1,.16-2.22.31-3.66.43-1.45.13-3.23.23-5.35.29-2.12.06-4.76.13-7.9.19v15.62c0,1.48.05,2.75.14,3.81.1,1.06.27,2.06.53,2.99.26.93.63,1.85,1.11,2.75.48.9,1.11,1.93,1.88,3.08h-18.31c.13-1.03.24-1.86.34-2.51.1-.64.16-1.3.19-1.98.03-.67.05-1.46.05-2.36v-42.51c0-1.93-.03-3.55-.1-4.87-.06-1.32-.23-2.51-.48-3.57-.26-1.06-.59-2.09-1.01-3.08-.42-1-.95-2.14-1.59-3.42h11.66ZM178.77,63.61c.9.07,1.7.1,2.41.1h1.54c2.38,0,4.26-.13,5.64-.39,1.38-.26,2.65-.74,3.81-1.45,1.41-.9,2.55-2.15,3.42-3.76.87-1.61,1.3-3.34,1.3-5.21,0-3.28-1.09-5.83-3.28-7.66-2.19-1.83-5.21-2.75-9.06-2.75-.58,0-1.35.02-2.31.05-.96.03-2.12.08-3.47.14v20.92Z"/>
        <path class="st16" d="M234.77,35.18c-.19,1.93-.35,3.6-.48,5.01-.13,1.42-.23,2.72-.29,3.9-.06,1.19-.11,2.28-.14,3.28-.03,1-.05,2.01-.05,3.04v40.68h12.53c1.35,0,2.55-.02,3.61-.05,1.06-.03,2.1-.1,3.13-.19,1.03-.1,2.04-.21,3.04-.34,1-.13,2.14-.32,3.42-.58v9.54h-40.1c.06-1.54.11-2.78.15-3.71.03-.93.06-1.7.1-2.31.03-.61.05-1.16.05-1.64v-47.09c0-1.8-.19-3.34-.58-4.63-.39-1.29-1.19-2.92-2.41-4.92h18.02Z"/>
        <path class="st16" d="M282.97,35.18c-.13,1.61-.23,2.99-.29,4.14-.06,1.16-.13,2.19-.19,3.08-.06.9-.1,1.72-.1,2.46v44.97c0,1.67.22,3.18.67,4.53.45,1.35,1.32,3.05,2.6,5.11h-17.74l.58-10.8v-40.48c0-1.61-.05-3-.14-4.19-.1-1.19-.29-2.25-.58-3.18-.29-.93-.67-1.83-1.16-2.7-.48-.87-1.11-1.85-1.88-2.94h18.22Z"/>
        <path class="st16" d="M290.48,35.47h46.56v8.58l-4.53-.29c-1.48-.13-2.75-.22-3.81-.29-1.06-.06-1.75-.1-2.07-.1h-6.36v45.11c0,2.25.21,4.14.63,5.69.42,1.54,1.27,3.31,2.55,5.3h-17.45l.29-8.39c.13-3.28.21-6.06.24-8.34.03-2.28.05-3.9.05-4.87v-34.51h-8.67c-1.09,0-2.14.05-3.13.14-1,.1-2.43.27-4.29.53v-8.58Z"/>
        <path class="st16" d="M355.83,35.47h46.56v8.58l-4.53-.29c-1.48-.13-2.75-.22-3.81-.29-1.06-.06-1.75-.1-2.07-.1h-6.36v45.11c0,2.25.21,4.14.63,5.69.42,1.54,1.27,3.31,2.55,5.3h-17.45l.29-8.39c.13-3.28.21-6.06.24-8.34.03-2.28.05-3.9.05-4.87v-34.51h-8.67c-1.09,0-2.14.05-3.13.14-1,.1-2.43.27-4.29.53v-8.58Z"/>
        <path class="st16" d="M424.85,35.18c-.26,2.38-.42,4.23-.48,5.54-.07,1.32-.1,2.62-.1,3.9v16.87h18.7v-14.55c0-1.35-.05-2.55-.14-3.62-.1-1.06-.24-2.04-.43-2.94-.19-.9-.47-1.75-.82-2.55-.35-.8-.79-1.69-1.3-2.65h17.25c-.19,2.89-.32,5.19-.39,6.89-.07,1.7-.1,3.49-.1,5.35v41.83c0,1.09.05,2.07.14,2.94s.29,1.69.58,2.46c.29.77.67,1.54,1.16,2.31.48.77,1.08,1.61,1.78,2.51h-17.74c-.06-.96-.1-1.74-.1-2.31v-1.45l.1-6.46v-19.66h-18.7v16.29c0,1.73.03,3.18.1,4.34.06,1.16.19,2.22.38,3.18.19.96.48,1.91.87,2.84.39.93.87,2.01,1.45,3.23h-17.35l.29-5.59c.19-3.86.29-6.52.29-8v-41.93c0-1.35-.23-2.65-.67-3.9-.45-1.25-1.32-2.88-2.6-4.87h17.83Z"/>
        <path class="st16" d="M512.08,35.18v9.06c-1.61-.06-3.05-.13-4.34-.19-1.29-.06-2.51-.11-3.66-.14-1.16-.03-2.31-.05-3.47-.05h-15.04v18.8h5.01c.39,0,1.33-.01,2.84-.05,1.51-.03,3.39-.11,5.64-.24l5.4-.19v8.19l-4.53-.19c-1.35-.06-2.46-.11-3.33-.14-.87-.03-1.43-.05-1.69-.05h-9.35v21.21h19.38c1.03,0,1.88-.02,2.55-.05.67-.03,1.3-.06,1.88-.1.58-.03,1.17-.11,1.78-.24.61-.13,1.36-.29,2.26-.48v9.16h-42.8c.19-3.15.32-5.62.39-7.42.06-1.8.13-3.24.19-4.34.06-1.09.1-1.94.1-2.55v-40.44c0-1.35-.21-2.68-.63-4-.42-1.32-1.17-3.16-2.26-5.54h43.67Z"/>
        <path class="st16" d="M582.25,47.03c-2.06-1.67-4.18-2.88-6.36-3.61-2.19-.74-4.56-1.11-7.13-1.11s-5.11.53-7.42,1.59c-2.31,1.06-4.27,2.52-5.88,4.39-1.74,2.06-3.12,4.93-4.15,8.63-1.03,3.7-1.54,7.63-1.54,11.81,0,3.41.32,6.62.96,9.64.64,3.02,1.57,5.56,2.8,7.62,2.7,4.88,7.04,7.33,13.01,7.33,1.22,0,2.3-.13,3.23-.39.93-.26,1.56-.58,1.88-.96.39-.39.58-2.09.58-5.11v-8.29c0-.83-.05-1.62-.14-2.36-.1-.74-.24-1.49-.43-2.26-.19-.77-.45-1.59-.77-2.46-.32-.87-.71-1.85-1.16-2.94h16.77l-.29,5.59c-.06,1.48-.11,2.73-.14,3.76-.03,1.03-.05,1.77-.05,2.22v15.23c-1.93,1.03-3.66,1.9-5.21,2.6-1.54.71-3.07,1.27-4.58,1.69-1.51.42-3.02.71-4.53.87-1.51.16-3.17.24-4.96.24-4.76,0-9.11-.74-13.06-2.22s-7.34-3.55-10.17-6.22c-2.83-2.67-5.01-5.86-6.55-9.59-1.54-3.73-2.31-7.87-2.31-12.43,0-5.08.93-9.77,2.79-14.07,1.86-4.3,4.43-8.05,7.71-11.23,3.28-3.18,7.17-5.67,11.66-7.47,4.5-1.8,9.35-2.7,14.55-2.7,1.03,0,1.96.03,2.79.1.83.06,1.67.16,2.51.29.83.13,1.7.29,2.6.48.9.19,1.9.45,2.99.77v10.6Z"/>
      </g>
    </g>
  </g>
  <g class="st17">
    <path class="st11" d="M75.19,17.46c.96.32,1.9.69,2.81,1.12.92.41,1.83.81,2.77,1.13.92.33,1.89.51,2.87.53.98-.03,1.96-.2,2.89-.51.95-.29,1.88-.66,2.81-1s1.73-.69,2.63-1c.84-.85,1.32-1.4,1.32-1.4v-.1l-.93.27c-.94.31-1.87.68-2.81,1s-1.88.73-2.85,1c-.97.31-1.98.48-3,.51-1.02-.03-2.04-.22-3-.57-1-.33-1.88-.75-2.8-1.16l-1.15-.51.49-.23.83.36c.92.41,1.83.81,2.77,1.13.92.33,1.89.51,2.87.53.98-.03,1.96-.2,2.89-.51.95-.29,1.88-.66,2.81-1s1.86-.75,2.83-1.07l.92-.27-.36-1-.4.12c-.94.31-1.87.68-2.81,1-.94.32-1.88.73-2.85,1-.97.31-1.98.49-3,.51-1.02-.03-2.04-.22-3-.57-.77-.26-1.51-.58-2.24-.91l.44-.26c.64.28,1.28.54,1.93.76.92.33,1.89.51,2.87.53.98-.03,1.96-.2,2.89-.51.95-.29,1.88-.66,2.81-1s1.86-.75,2.83-1.07l.39-.12-.38-1c-.89.3-1.77.64-2.66,1s-1.88.73-2.85,1c-.97.31-1.98.49-3,.51-1.02-.03-2.04-.22-3-.57l-.71-.26.41-.3.44.16c.92.33,1.89.51,2.87.53.98-.03,1.96-.2,2.89-.51.95-.29,1.88-.66,2.81-1s1.75-.7,2.66-1l-.39-1c-.7.25-1.39.52-2.09.79-.93.37-1.88.73-2.85,1-.97.31-1.98.48-3,.51-.78-.01-1.55-.13-2.29-.35l.38-.35c.62.16,1.27.25,1.91.25.98-.03,1.96-.2,2.89-.51.95-.29,1.88-.66,2.81-1,.69-.27,1.38-.54,2.08-.8l-.41-1-1.49.57c-.93.36-1.88.73-2.85,1-.97.31-1.98.49-3,.51-.31,0-.62-.03-.93-.07l.36-.41h.57c.98-.03,1.96-.2,2.89-.51.95-.29,1.88-.66,2.81-1l1.47-.58-.43-.94-.87.34c-.93.36-1.88.73-2.85,1-.87.28-1.78.44-2.69.5l.33-.47c.76-.08,1.5-.24,2.23-.47.95-.29,1.88-.66,2.81-1l.84-.33-.45-.93-.21.08c-.93.37-1.88.73-2.85,1-.52.16-1.05.28-1.58.38l.27-.52c.39-.08.78-.19,1.17-.31.95-.29,1.88-.66,2.81-1l.18-.07-.47-.92c-.78.3-1.57.59-2.37.84l-.7.19.22-.53.35-.1c.77-.24,1.53-.52,2.28-.82l-.51-.92c-.54.2-1.09.4-1.64.56.06-.19.11-.37.16-.54.43-.14.86-.29,1.29-.45-.19-.33-.38-.64-.55-.93l-.45.15v-.49l.16-.06c-.31-.49-.59-.89-.81-1.2-4.14,26.37-42.54,11.91-54.27,7.2C9.65.71,5.73,12.6,5.73,12.6c2.42-4.27,7.71-5.98,12.17-3.94,13.44,0,31.72,18.4,57.15,18.4,4.73,0,9.67-3.13,13.25-6l-.39.22-1,.34c-.97.31-1.98.48-3,.51-1.02-.02-2.04-.22-3-.57-1-.33-1.88-.75-2.8-1.16-.9-.42-1.83-.8-2.77-1.12-.93-.33-1.91-.46-2.89-.41-.98.09-1.96.3-2.89.62-.95.31-1.88.68-2.81,1s-1.88.73-2.84,1c-.97.31-1.98.49-3,.51-1.02-.02-2.04-.22-3-.57-1-.33-1.88-.75-2.79-1.16-.9-.43-1.83-.81-2.77-1.13-.94-.33-1.93-.47-2.92-.41-.53.03-1.05.11-1.57.23l-.31-.14c.61-.17,1.24-.28,1.87-.32,1.02-.06,2.04.07,3,.4.96.32,1.89.69,2.81,1.12.92.41,1.83.81,2.77,1.13.93.34,1.91.52,2.9.54.99-.03,1.97-.2,2.91-.51,1-.29,1.88-.66,2.81-1s1.86-.75,2.82-1.07c.97-.34,1.98-.56,3-.66,1.02-.06,2.04.08,3,.41.96.32,1.89.7,2.81,1.12.92.41,1.83.81,2.77,1.13.92.33,1.89.51,2.87.53.98-.03,1.96-.2,2.89-.51.84-.26,1.66-.57,2.48-.9.8-.69,1.51-1.34,2.11-1.92l-1.61.62c-.93.36-1.88.73-2.85,1-.97.31-1.98.49-3,.51-1.02-.03-2.04-.22-3-.57-1-.33-1.88-.75-2.8-1.16-.9-.42-1.83-.8-2.77-1.12l-.61-.18.66-.22-.2.27h0ZM74.87,25.46l-.81.05c-.62-.12-1.25-.16-1.87-.1-.37.03-.73.09-1.09.17h-1.23c.74-.24,1.51-.41,2.29-.49,1.01-.08,2.03.04,3,.35h.07l-.36.02ZM77.22,25.13c-.7-.32-1.42-.6-2.15-.85-.93-.33-1.91-.46-2.89-.41-.98.09-1.96.3-2.89.62-.74.24-1.47.52-2.2.8h-.34l-.35-.05c.91-.36,1.83-.73,2.77-1,.97-.34,1.98-.56,3-.66,1.02-.06,2.04.08,3,.41.89.28,1.77.62,2.62,1,0,0-.57.14-.57.14ZM79.35,24.45l-1.52-.63c-.9-.42-1.83-.8-2.77-1.12-.93-.33-1.91-.46-2.89-.41-.98.09-1.96.3-2.89.62-.95.31-1.88.68-2.81,1s-1.61.62-2.43.89l-.64-.13h.14c1-.29,1.88-.66,2.81-1s1.86-.75,2.82-1.07c.97-.34,1.98-.56,3-.66,1.02-.06,2.04.08,3,.41.96.32,1.89.7,2.81,1.12.65.29,1.3.58,2,.83,0,0-.63.15-.63.15ZM52.15,20.63c.96.32,1.89.69,2.81,1.12.92.41,1.83.81,2.77,1.13.93.34,1.91.52,2.9.54.99-.03,1.97-.2,2.91-.51,1-.29,1.88-.66,2.81-1s1.86-.75,2.82-1.07c.97-.34,1.98-.56,3-.66,1.02-.06,2.04.08,3,.41.96.32,1.89.7,2.81,1.12.92.41,1.83.81,2.77,1.13.58.2,1.18.35,1.79.45l-.82.28c-.37-.09-.74-.2-1.1-.33-1-.33-1.88-.75-2.8-1.16-.9-.42-1.83-.8-2.77-1.12-.93-.33-1.91-.46-2.89-.41-.98.09-1.96.3-2.89.62-.95.31-1.88.68-2.81,1s-1.88.73-2.84,1c-.97.31-1.98.49-3,.51-.33,0-.67-.03-1-.08-.68-.1-1.35-.26-2-.49-.52-.18-1-.38-1.53-.6l-1.26-.49c-.9-.43-1.83-.8-2.77-1.13-.44-.14-.89-.25-1.35-.33l-.78-.32c.75.05,1.5.2,2.22.43v-.04h0ZM57.73,18.12c.93.34,1.91.52,2.9.54.46,0,.91-.05,1.36-.13l1.13.06c-.81.23-1.64.35-2.48.36-1.02-.02-2.04-.22-3-.57-.37-.13-.74-.27-1.1-.42,0,0,1.19.16,1.19.16ZM37.62,14.02c-.56-.01-1.13-.07-1.68-.18l-.7-.31c.77.2,1.56.31,2.36.33.73-.01,1.45-.11,2.15-.3l.22.08h.09c-.79.22-1.6.34-2.42.35,0,0-.02.03-.02.03ZM39.46,15.43l-.24-.11c.46-.09.91-.21,1.36-.35.48-.15,1-.33,1.61-.56h.27c-.73.28-1.3.47-1.83.63s-.8.35-1.17.43v-.04ZM41.6,16.43h-.06l-.22-.1h.06c.67-.23,1.33-.49,2-.76l1-.41h.1l.2.06-1.12.43-.15.06c-.58.23-1.2.47-1.82.68v.04h.01ZM43.55,17.34l-.23-.11h.07l.24-.1c.84-.33,1.71-.68,2.58-1l.72-.22.36.1h-.05c-.33.09-.67.19-1,.31-.89.29-1.7.6-2.55.94,0,0-.14.08-.14.08ZM66.48,19.12c-.94.37-1.88.73-2.84,1-.97.31-1.98.49-3,.51-1.02-.03-2.04-.22-3-.57-1-.33-1.88-.75-2.79-1.16-.9-.43-1.83-.8-2.77-1.13s-1.93-.47-2.92-.41c-.99.09-1.97.3-2.91.62l-.89.31-.25-.12,1.08-.38c.97-.34,1.98-.56,3-.65,1.02-.07,2.04.07,3,.4.96.32,1.89.69,2.81,1.12.92.41,1.83.81,2.77,1.13.93.34,1.91.52,2.9.54.99-.03,1.97-.2,2.91-.51,1-.29,1.88-.66,2.81-1l.15-.06h.93s-.99.36-.99.36Z"/>
  </g>
  <g class="st14">
    <g>
      <path class="st11" d="M87.47,22.12c-.27.14-.4.19-.75.35.15,5.35-.74,5.41-5.1,6.78-5.5,1.86-5.14.3-6.55,13.59v-18.63l12.39-3.25v1.16h.01Z"/>
      <path class="st11" d="M40.58,112.22c1-.29,1.89-.66,2.82-1s1.86-.75,2.82-1.07c.97-.34,1.98-.56,3-.65.33-.03.67-.03,1,0,.23-.39.49-.82.81-1.29-.58-.12-1.17-.15-1.76-.11-.99.09-1.97.3-2.91.63-1,.31-1.88.68-2.82,1s-1.87.73-2.84,1l-.29.09.24-.2.08-.06c.93-.29,1.84-.65,2.75-1s1.86-.75,2.82-1.07c.97-.34,1.98-.56,3-.65.64-.05,1.29-.01,1.92.12.25-.36.53-.75.85-1.16-.89-.29-1.82-.41-2.75-.36-.99.09-1.97.3-2.91.63-.92.3-1.82.65-2.72,1l.43-.37c.73-.29,1.47-.58,2.23-.83.97-.34,1.98-.56,3-.65.99-.06,1.98.07,2.92.38.26-.33.54-.69.85-1.07-.28-.11-.55-.21-.84-.3-.94-.33-1.93-.47-2.92-.41-.81.07-1.61.23-2.39.47l.37-.32c.65-.19,1.32-.31,2-.37,1.02-.06,2.04.07,3,.4.31.1.62.21.93.33l.84-1c-.61-.26-1.22-.51-1.84-.72-.93-.32-1.92-.46-2.9-.41l.27-.24c.92-.01,1.83.13,2.7.42.66.21,1.31.46,1.95.74l.84-1h-.09c-.9-.43-1.83-.8-2.77-1.13-.38-.12-.77-.22-1.17-.3l.22-.19c.34.07.67.16,1,.27.96.32,1.89.7,2.81,1.12l.16.07.86-1-1.13-.5c-.83-.38-1.67-.75-2.53-1l.21-.18c.83.29,1.63.64,2.42,1l1.21.53.89-1c-.75-.29-1.48-.62-2.21-.94l-1.25-.55.07-.2,1.15.5c.76.34,1.53.68,2.31,1l.94-1-.56-.18c-1-.33-1.88-.75-2.79-1.16l.21-.19c.89.4,1.78.79,2.7,1.1l.69.21,1-1.1c-.62-.1-1.23-.26-1.83-.47-.55-.19-1.09-.41-1.62-.64l.22-.2c.49.21,1,.41,1.49.58.65.22,1.32.38,2,.47l1.22-1.27h-.3c-1.02-.02-2.04-.22-3-.57l-.4-.15.23-.21.27.09c.93.34,1.91.52,2.9.54h.62l1.55-1.65c-.7.17-1.41.26-2.13.27-.71,0-1.42-.11-2.1-.3l.24-.23c.61.15,1.23.23,1.86.23.86-.02,1.71-.15,2.53-.4.55-.59,1.13-1.2,1.72-1.85-.41.15-.83.29-1.25.42-.97.31-1.98.49-3,.51-.23.01-.47.01-.7,0l.27-.27h.43c.99-.03,1.97-.2,2.91-.51.61-.19,1.21-.41,1.81-.64.56-.62,1.12-1.26,1.7-1.93l-.58.22c-.93.37-1.87.73-2.84,1-.68.21-1.38.36-2.09.45l.34-.35c.56-.1,1.12-.23,1.66-.4,1-.29,1.88-.66,2.81-1l1.16-.46c.49-.58.99-1.18,1.49-1.8-.85.29-1.69.62-2.53.95s-1.87.73-2.84,1l-.21.06.41-.46c.85-.28,1.68-.6,2.52-.93s1.87-.75,2.82-1.07l.23-.07c.41-.52.83-1.05,1.24-1.6-.46.11-.91.24-1.36.38-.95.31-1.88.68-2.81,1l-1,.39.44-.52.46-.18c.93-.37,1.87-.75,2.82-1.07.59-.2,1.2-.36,1.81-.49.35-.46.68-.93,1-1.4-.93.1-1.85.31-2.73.61-.62.2-1.24.43-1.86.67l.42-.53c.44-.17.88-.33,1.33-.48.97-.34,1.98-.56,3-.66h.14l.86-1.24c-.33-.03-.67-.03-1,0-.98.09-1.96.3-2.89.62h-.1l.37-.49c.84-.28,1.72-.46,2.6-.54.42-.04.83-.04,1.25,0l.74-1.12c-.65-.15-1.33-.21-2-.16-.5.04-.99.12-1.48.23l.31-.44c.38-.08.76-.13,1.14-.16.74-.06,1.49,0,2.21.18l.66-1c-.91-.32-1.88-.45-2.85-.4h-.2l.27-.39c1-.05,1.99.09,2.94.41h.05l.6-1-.77-.28c-.65-.22-1.32-.35-2-.41l.23-.36c.64.07,1.26.2,1.87.4.29.09.58.2.86.3l.56-1c-.51-.21-1-.42-1.54-.59-.33-.11-.66-.2-1-.27l.22-.34c.32.07.63.15.93.25.55.17,1.09.39,1.62.61l.53-1c-.74-.34-1.5-.64-2.27-.9h-.16l.21-.34h.07c.8.26,1.58.57,2.35.92l.51-1-.21-.09c-.7-.31-1.41-.63-2.12-.9l.2-.35c.71.26,1.4.57,2.09.87l.23.1.49-1-.92-.18-1.36-.6.2-.35,1.33.58.9.4.47-1c-.52-.22-1-.45-1.54-.67l-.64-.28.19-.36.61.27,1.55.67.46-1c-.72-.28-1.42-.59-2.11-.9l.19-.36c.7.31,1.39.61,2.09.88l.44-1c-.7-.24-1.38-.53-2-.83l.19-.37c.66.29,1.33.57,2,.79l.43-1-.59-.18c-.47-.16-.94-.35-1.39-.54l.18-.38c.44.19.89.36,1.35.51l.61.19.42-1.07c-.39-.09-.78-.21-1.17-.34l-.75-.28.18-.38.71.25c.39.13.78.24,1.18.33l.4-1.1c-.58-.1-1.16-.25-1.72-.45h-.11l.17-.39h.08c.57.19,1.15.34,1.74.43l.39-1.13c-.6-.07-1.19-.19-1.76-.36l.17-.4c.56.17,1.14.28,1.73.33.13-.38.25-.77.37-1.16-.56-.02-1.12-.1-1.66-.24l.17-.41c.53.13,1.08.2,1.63.21.12-.39.24-.79.35-1.18h-.24c-.44,0-.88-.04-1.31-.12l.16-.42c.38.06.76.09,1.15.09h.38c.11-.39.22-.79.33-1.2h-.7c-.25,0-.49,0-.74,0l.15-.43h.58c.27,0,.55-.02.82-.05.1-.4.2-.8.3-1.21-.37.05-.75.08-1.12.08h-.17l.15-.44c.42,0,.83-.04,1.24-.11.09-.4.19-.8.28-1.21-.38.07-.76.12-1.14.14l.15-.46c.37-.03.74-.08,1.1-.16.09-.4.17-.8.25-1.21-.33.07-.66.12-1,.16l.14-.47c.31,0,.62-.11.93-.18.08-.4.15-.8.22-1.21l-.8.16.13-.48.75-.17c.07-.4.13-.8.2-1.2l-.63.15.12-.5.58-.15c.06-.4.12-.79.17-1.2l-.45.12.12-.5.39-.11c.05-.39.1-.79.15-1.18l-.27.08.11-.51h.22c.53-4.89.68-9.81.46-14.72-1.64,21-7.09,42.46-31.52,65.18,3.57-4.57,2.59-7,5.2-12,0,0-15.05,21.59-22.64,25.34l1,2.16c.19-.11.6-.44.71-.23s.28.53.61,1.08l.15-.14h0Z"/>
      <path class="st11" d="M49.19,109.69c-.99.09-1.97.3-2.91.63-1,.31-1.88.68-2.82,1s-1.87.73-2.84,1h-.1c.23.37.49.78.78,1.19.7-.24,1.39-.51,2.08-.79.93-.37,1.86-.75,2.82-1.06.97-.34,1.98-.56,3-.65h.13c.21-.45.44-.9.71-1.4-.28,0-.57.03-.85.08h0Z"/>
      <path class="st11" d="M46.22,113.37c.74-.25,1.5-.44,2.27-.57.27-.53.49-1,.71-1.48-.99.09-1.97.3-2.91.62-1,.31-1.88.68-2.82,1-.68.26-1.36.52-2,.76l.11.14c.75.24,1.53.37,2.31.38.73-.27,1.52-.58,2.33-.85h0Z"/>
      <path class="st11" d="M46.29,113.56c-.65.21-1.3.45-1.94.7,1.16-.03,2.31-.25,3.4-.65.27-.11.5-.31.62-.58-.71.12-1.4.3-2.08.53h0Z"/>
    </g>
  </g>
  <path class="st11" d="M40.12,106.9c-.96.85-1.99,1.63-3.07,2.32-1,.64-2.06,0-3.11-1.91-1.34-2.47-4.35-11.64-5.65-16.33,1,2,4.34,10.82,6.59,15.54.71,1.23,1.27,2.17,3.05,1.37,0,0,2.19-.99,2.19-.99Z"/>
  <path class="st11" d="M14.25,36.27c.2-4.25-2-6.93.91-8.47,1.85-1,2.06-1.85,2.06-1.85-.3-1.48-.83-2.9-1.58-4.21-.14-.19-.24,0-.24,0-1.24,1.9-3.27,3.12-5.53,3.33,2.96.92,3.23,9.32,4.38,11.2h0Z"/>
  <path class="st11" d="M8.05,13.95c.66-.74,1.61-1.16,2.6-1.16h.4c.21-.01.43-.01.64,0,1.14,0,2.26.31,3.24.9-1.43-2.36-4.51-3.11-6.87-1.68-1.56.95-2.48,2.67-2.4,4.49-.02.24-.02.47,0,.71.41-1.32,1.25-2.47,2.39-3.26h0Z"/>
  <path class="st11" d="M15.53,14.43c1.03,2.66-.28,5.66-2.93,6.72,1.05-.06,2.06-.41,2.93-1,.31-.15.68-.02.83.28.02.05.04.1.05.15,8.77,21.36,23.58,67.37,32.4,80l2.22-2.55c-11.2-14.15-19.84-45.56-35.5-83.6Z"/>
  <g class="st15">
    <path class="st11" d="M52.64,79.61l1.93-1.16-1.12-1.85-.68.41-1.53,3.48-.13-.06c-.25-.35-.49-.68-.72-1l.83-1.89c-.6-.94-.88-1.39-1.44-2.37l2.57-1.55-1.42-2.38-.69.42-1.91,4.36c-.25-.46-.5-.91-.73-1.35l.84-1.91c-.4-.75-.79-1.49-1.15-2.21-.15-.3,0,0-.25-.49l2.82-1.7-1.44-2.5-.7.42-2,4.57-.68-1.47.8-1.83v-.1c-.47-1-.71-1.52-1.3-2.8l2.83-1.71-1.41-2.47-.71.43-2,4.62-.68-1.46.84-1.92v-.09c-.5-1.08-.71-1.65-1.26-2.85l2.8-1.69-1.43-2.44-.72.44-2,4.57-.67-1.49.7-1.97c-.51-1.11-.77-1.77-1.3-2.94l2.74-1.66-1.44-2.39-.73.44-2,4.45-.67-1.5.82-1.87c-.51-1.13-.82-1.85-1.35-3l2.68-1.62-1.32-2.27-.74.45-1.88,4.28-.66-1.51.79-1.81c-.5-1.12-.83-1.92-1.34-3l2.62-1.58-1.3-2.18-.75.46-1.8,4.09-.66-1.52.76-1.73c-.5-1.11-.89-2-1.37-3.11l2.54-1.54-1.23-2-.77.46-1.64,3.79-.66-1.52.72-1.65-1.45-3.24,2.47-1.49-1.08-1.85-.78.47-1.61,3.68-.66-1.52.68-1.56-1.42-3.17,2.38-1.44-1.12-1.85-.79.48-1.52,3.46-.65-1.49.65-1.47-3.57-8c-3.56-8-9.07-7-11.11-6.48,2.81-.26,6.59.38,8.8,5.77,2.47,6,22.18,54.73,26.28,62,3.07,5.46,6.72,11.22,13.53,8.53-2.37-.06-4.92-2.56-7.28-5.86h0Z"/>
  </g>
  <path class="st11" d="M27.83,74.63c-.09-.27.04-.56.31-.65.27-.09.56.04.65.31s-.04.56-.31.65h0c-.27.09-.56-.05-.65-.31ZM38.65,96.63c.63-.28,1.37,0,1.65.64,0,0,0,.02,0,.02.17.61-.19,1.24-.79,1.4-.02,0-.04.01-.07.02-.59.26-1.29.02-1.59-.55-.25-.58.02-1.25.59-1.5.07-.03.15-.06.23-.07,0,0-.03.04-.03.04ZM38.09,95.4c-1.14.37-1.78,1.59-1.44,2.74.09.37.34.69.69.86l.09.06c-.41-.12-.81-.29-1.18-.5-.65-.31-1.19-.82-1.54-1.46v-.15c0-.06-.05-.11-.11-.13-.06-.01-.11,0-.15.05l-.45.38-.16.13s-.03.11,0,.16c.03.06.07.12.11.17.76,1.12,1.86,1.97,3.13,2.42.88.25,1.81.21,2.66-.11,1.26-.3,2.04-1.56,1.74-2.81-.02-.1-.05-.2-.09-.3-.45-1.32-1.89-2.02-3.22-1.57-.02,0-.04.01-.05.02,0,0-.03.04-.03.04ZM38.35,88.88l1.14,3.18s.03.11,0,.16c-.03.04-.09.06-.14.06h-.82c-.11.02-.23-.04-.27-.15l-.74-2.08h-.15l-1.31.33c.36.26.6.63.7,1.06.33,1.15-.32,2.36-1.46,2.72-.61.23-1.29.23-1.9,0-.62-.25-1.11-.75-1.33-1.38-.36-.74-.36-1.61,0-2.35.02-.1.12-.17.22-.15h.16l.85.31s.07.04.09.08c.02.06,0,.12-.06.16-.31.38-.37.91-.16,1.36.22.65.93.99,1.58.76.04-.02.09-.03.13-.05.57-.19.89-.79.73-1.37-.11-.37-.4-.66-.77-.77-.07,0-.12-.06-.14-.12l-.14-.44-.11-.34s-.02-.1,0-.14c.03-.04.07-.07.12-.08l3.64-1c.09.02.16.1.17.19l-.03.04h0ZM35.08,82.57l.71-.18c.11-.04.23.01.28.12l1.27,3.56c.05.09.02.2-.07.24h0l-1,.35s-1.65-.46-3-.68c-1.05-.19-2.13-.14-3.16.15-.08.05-.18.03-.23-.05,0,0-.01-.02-.02-.03l-.43-1.21s-.02-.1,0-.14c.03-.05.08-.08.14-.09,1.18-.21,2.39-.17,3.55.12.87.16,1.72.4,2.55.7l.16.06-.94-2.63c-.03-.06-.03-.12,0-.18.03-.05.08-.09.14-.1l.06-.02h0ZM34.31,78.35l.09.1.59.7v.05s0,.13-.14.19l-6.32,2.26c-.1.05-.22,0-.27-.09,0,0,0-.02-.01-.03l-.31-.87c-.04-.1.01-.21.11-.24h.02l6-2.12c.08-.06.2-.05.27.02l-.03.04h0ZM30.06,74.12l-.25-.7,2.18-.78.24.66c.04.51-.32.97-.83,1.06-.44.28-1.03.18-1.34-.24ZM32.24,71.73l-3.16,1.13c-.06.02-.09.09-.06.14h0l.52,1.46c.55.84,1.67,1.07,2.5.53.62-.41.93-1.15.79-1.88l-.45-1.26c0-.06-.05-.11-.12-.1h-.02v-.03h0ZM30.06,67.16h.52c.09-.02.18.03.2.12l.94,2.63c.03.07,0,.15-.07.19l-.09.06-.41.25s-.08.02-.11,0c-.04-.02-.06-.05-.07-.09l-.39-1.08-3.75,1.32s-.12,0-.15-.05c0-.01,0-.02-.01-.03l-.25-.71c-.02-.06,0-.12.06-.14h.02l3.77-1.34-.14-.39-.2-.56s-.01-.05,0-.08c.03-.03.08-.05.13-.05v-.04h0ZM29.9,64.16c.15.45.1.95-.13,1.37-.05.04-.12.04-.17,0l-.61-.19s-.09-.04-.11-.08c-.02-.03-.02-.08,0-.11.21-.17.28-.45.19-.7-.08-.35-.43-.56-.78-.48h0c-.28.17-.43.5-.35.82v.36c.06.68-.35,1.32-1,1.55-.88.31-1.85-.14-2.16-1.02,0-.02-.01-.04-.02-.06-.33-.55-.26-1.26.17-1.74.04-.07.13-.1.2-.06l.59.28s.02.08,0,.12c-.24.28-.31.66-.18,1,.1.37.49.59.86.49.03,0,.06-.02.09-.03.44-.16.48-.38.53-1.13-.12-.71.31-1.39,1-1.59.85-.19,1.69.35,1.88,1.21v.04-.05h0ZM22.96,59.68l4.46-1.59c.07-.03.15,0,.18.08l.82,2.29s.01.06,0,.08c-.03.03-.07.05-.11.05h-.08l-.49.06c-.09,0-.16-.05-.19-.13l-.48-1.34h-.07l-1,.37.48,1.34c.02.06-.01.12-.07.14h0l-.5.18c-.06.02-.12,0-.14-.06v-.02l-.47-1.32-1.35.48.54,1.51s.04.11,0,.15l-.44.26s-.08.02-.12,0c-.03,0-.05-.03-.06-.06l-1.02-2.26c-.02-.06,0-.13.07-.15h.06v-.05h-.02Z"/>
  <g>
    <g>
      <path class="st5" d="M43.95,86.81c8-3.89,10.5.62,14.54,1.17"/>
      <path class="st5" d="M44.54,88.18c6.86-3.33,10.06.5,13,1.24"/>
      <path class="st4" d="M45.29,89.56c5.87-3,9.8.87,11.45,1.1"/>
      <path class="st4" d="M46.06,90.83c5.15-2,8.46.84,9.76,1.1"/>
      <path class="st4" d="M46.83,92.24c1-.36,3.63-1.33,8.08.94"/>
      <path class="st4" d="M47.69,93.57c1-.2,2.88-.74,6.34.84"/>
      <path class="st3" d="M48.57,95.02c1.54-.21,3.11.01,4.52.66"/>
      <path class="st3" d="M49.61,96.61c.86-.07,1.72.05,2.53.33"/>
      <path class="st8" d="M43.28,85.42s5.36-2.58,8.34-1.62"/>
      <path class="st3" d="M56.83,85.86c.82.34,1.68.61,2.55.8"/>
      <path class="st8" d="M42.57,84.04c.94-.38,5.51-2.24,7.32-2.11"/>
      <path class="st9" d="M41.97,82.64c.81-.31,5.52-2.25,6.73-2.22"/>
      <path class="st9" d="M41.34,81.26c.84-.34,5.47-2.21,6.51-2.27"/>
      <path class="st9" d="M40.66,79.85c.85-.21,5.88-2.29,6.31-2.26"/>
      <g>
        <path class="st10" d="M40.05,78.38c1-.13,5.26-1.93,6.11-2.18"/>
        <path class="st10" d="M39.45,76.87c1.21-.11,5.35-1.87,6.05-2.08"/>
        <path class="st10" d="M38.83,75.36c1.71-.11,5.47-1.77,6.17-2"/>
        <path class="st10" d="M38.12,73.72c1.7.22,5.7-1.56,6.06-1.68"/>
        <path class="st10" d="M37.54,72.12c2,.26,5.53-1.33,6-1.5"/>
        <path class="st10" d="M36.94,70.55c2.46.25,5.43-1,6-1.24"/>
        <path class="st10" d="M36.22,68.82c2.42.59,5.59-.75,6.09-.91"/>
      </g>
      <g>
        <path class="st6" d="M35.55,67.02c2.05.51,4.22.32,6.15-.54"/>
        <path class="st6" d="M34.75,65.12c2.03.82,4.3.8,6.31-.07"/>
        <path class="st6" d="M34.13,63.31c2.01.85,4.25.96,6.33.31"/>
        <path class="st6" d="M33.43,61.4c1.41.53,3.86,1.59,6.41.74"/>
        <path class="st6" d="M32.69,59.47c1.1.43,3.9,1.79,6.49,1.22"/>
        <path class="st6" d="M31.94,57.49c1.17.49,4.17,2,6.62,1.67"/>
        <path class="st6" d="M31.19,55.54c1.46.62,4.48,2.22,6.72,2"/>
        <path class="st6" d="M30.44,53.61c1.35.56,5.64,2.57,6.75,2.23"/>
        <path class="st6" d="M29.7,51.69c1.22.46,5.7,2.58,6.74,2.48"/>
      </g>
      <path class="st7" d="M28.95,49.9c1.38.17,5.53,2.36,6.82,2.52"/>
      <path class="st7" d="M28.53,48.12c1.38.17,5.53,2.36,6.82,2.52"/>
      <path class="st7" d="M27.73,46.34c1.83,0,5.53,2.19,6.82,2.35"/>
      <path class="st7" d="M27.19,44.61c1.83,0,5.57,2.09,6.87,2.23"/>
      <path class="st7" d="M26.53,43.01c1.61-.41,5.06,1.46,6,1.71"/>
      <path class="st1" d="M28.55,35.12c-1.61-.3-3.28-.17-4.82.4"/>
      <path class="st1" d="M27.75,33.33c-1.57-.17-3.15.07-4.6.69"/>
      <path class="st2" d="M24.18,36.93c1.64-.61,3.44-.61,5.08,0"/>
      <path class="st2" d="M30.11,38.82c-1.68-.78-3.6-.91-5.37-.36"/>
      <path class="st7" d="M25.21,39.97c1.9-.45,3.91-.18,5.62.76"/>
      <path class="st7" d="M25.98,41.48s2-.6,5.73,1.25"/>
    </g>
    <path class="st1" d="M22.59,32.57c1.44-.6,2.99-.92,4.55-.94"/>
    <path class="st1" d="M22,31.12c1.44-.59,2.96-.96,4.51-1.12"/>
    <path class="st1" d="M21.49,29.73c1.39-.59,2.84-1.01,4.33-1.26"/>
    <path class="st1" d="M20.92,28.33c1.39-.59,2.83-1.04,4.3-1.36"/>
    <path class="st1" d="M20.36,26.93c1.37-.57,2.78-1.05,4.21-1.45"/>
    <path class="st1" d="M19.83,25.54c1.38-.6,2.79-1.11,4.23-1.53"/>
    <path class="st1" d="M19.27,24.12s2.87-1.14,4.23-1.57"/>
    <path class="st1" d="M18.73,22.7s2.92-1.15,4.08-1.56"/>
  </g>
</svg>