<svg xmlns="http://www.w3.org/2000/svg" version="1.1" xmlns:xlink="http://www.w3.org/1999/xlink" width="1000" height="1000"><g clip-path="url(#SvgjsClipPath1168)"><rect width="1000" height="1000" fill="#ffffff"></rect><g transform="matrix(29.166666666666668,0,0,29.166666666666668,150,150)"><svg xmlns="http://www.w3.org/2000/svg" viewBox="0 0 24 24" id="guinness" width="24" height="24"><path fill="#FFC107" d="M19.893 5.37a.452.452 0 0 0-.553-.335l-1.882.494a.449.449 0 0 0-.331.497c.838 5.967-1.41 11.115-6.666 15.32l-.95 1.286a.676.676 0 0 0 .63.432c.014 0 .028-.007.042-.008.009.001.016.008.026.008h3.461a.45.45 0 0 0 .291-.107c5.374-4.551 7.481-10.797 5.932-17.587z"></path><path fill="#FFC107" d="M21.717 3.608 20.556.571a.499.499 0 0 0-.776-.214c-2.177 1.719-5.312 1.986-8.598.735C9.698.533 8.325.25 7.101.25 3.768.25 2.25 2.259 2.25 4.125c0 1.672 1.139 2.885 2.71 2.885.181 0 .363-.021.54-.06l5.813 14.106a.5.5 0 1 0 .924-.381l-.089-.216 1.629-1.77c.115.02.233.029.359.023a.499.499 0 1 0 .152-.988c-.073-.011-.148-.011-.231-.012-.131-.002-.308.002-.698-.721-.054-.12-5.469-12.109-5.777-12.827a8.215 8.215 0 0 0-.488-.998c.301.023.629.093.941.22.292.119.701.342 1.174.601.605.331 1.359.742 2.202 1.118 1.653.736 2.854 1.063 4.147 1.128 2.148.099 4.629-.749 6.036-2.083a.5.5 0 0 0 .123-.542z"></path><path d="M13.421 24H9.576a.75.75 0 0 1-.698-.475l-.16-.406-.013-.032L3.152 8.918a.75.75 0 0 1 1.396-.548l5.194 13.252c5.374-4.312 7.866-9.523 7.41-15.504a.75.75 0 0 1 .589-.79c.648-.141 1.481-.452 1.937-.724a.751.751 0 0 1 1.122.512c1.287 7.207-1.162 13.85-6.894 18.704a.739.739 0 0 1-.485.18zm-2.379-1.5h2.103c4.903-4.256 7.128-9.948 6.33-16.143a9.617 9.617 0 0 1-.787.273c.274 6.109-2.294 11.439-7.646 15.87z"></path><path d="M11.776 21.616a.75.75 0 0 1-.694-.464L5.345 7.232a2.748 2.748 0 0 1-.385.028C3.272 7.26 2 5.913 2 4.125 2 2.138 3.596 0 7.101 0c1.255 0 2.657.289 4.169.858 3.204 1.219 6.248.965 8.355-.697a.748.748 0 0 1 1.165.322l1.161 3.037a.75.75 0 0 1-.185.812c-1.452 1.379-4.008 2.268-6.221 2.152-1.325-.066-2.553-.399-4.236-1.149a30.202 30.202 0 0 1-2.22-1.127c-.466-.256-.87-.477-1.149-.59a2.641 2.641 0 0 0-.387-.125c.089.182.173.374.259.572.307.716 5.722 12.703 5.776 12.824.265.491.424.581.425.581a1.46 1.46 0 0 1 .314.008.75.75 0 0 1-.213 1.485c-.704.018-1.239-.234-1.871-1.411-.245-.54-5.497-12.166-5.81-12.895-.223-.518-.482-1.083-.737-1.221a.75.75 0 0 1 .105-1.366c.741-.264 1.828-.2 2.707.159.356.146.794.384 1.3.661.617.336 1.315.718 2.112 1.073 1.521.678 2.559.964 3.701 1.021 1.802.094 3.661-.624 4.738-1.428l-.629-1.647c-2.455 1.477-5.671 1.616-8.991.352-1.322-.497-2.58-.761-3.638-.761C4.613 1.5 3.5 2.818 3.5 4.125c0 .963.6 1.635 1.459 1.635.173 0 .356-.04.512-.112a.752.752 0 0 1 1.007.396l5.991 14.537a.749.749 0 0 1-.693 1.035z"></path><path d="M8.647 8.503a.75.75 0 0 1-.671-1.085l1.822-3.656a.75.75 0 0 1 1.343.669L9.319 8.087a.75.75 0 0 1-.672.416zm1.758 3.919a.749.749 0 0 1-.67-1.085l3.145-6.291a.749.749 0 1 1 1.341.671l-3.145 6.291a.75.75 0 0 1-.671.414zm1.979 4.378a.748.748 0 0 1-.669-1.086l5.263-10.5a.749.749 0 1 1 1.34.672l-5.263 10.5a.75.75 0 0 1-.671.414z"></path></svg></g></g><defs><clipPath id="SvgjsClipPath1168"><rect width="1000" height="1000" x="0" y="0" rx="200" ry="200"></rect></clipPath></defs></svg>