<?xml version="1.0" encoding="UTF-8"?>
<!-- Generator: Adobe Illustrator 27.1.1, SVG Export Plug-In . SVG Version: 6.00 Build 0)  -->
<svg xmlns="http://www.w3.org/2000/svg" xmlns:xlink="http://www.w3.org/1999/xlink" version="1.1" id="Capa_1" x="0px" y="0px" viewBox="0 0 512.523 512.523" style="enable-background:new 0 0 512.523 512.523;" xml:space="preserve" width="512" height="512">
<g>
	<g>
		<g>
			<g>
				<path style="fill:#FF8806;" d="M63.048,488.5c0.363,0,0.691-0.091,0.982-0.273v-4.966c2.474-1.673,5.939-3.037,10.396-4.093      c4.456-1.055,8.794-1.582,13.015-1.582c1.928,1.964,3.538,4.903,4.83,8.813c1.291,3.911,1.973,7.449,2.046,10.614      c-0.728,1.456-1.956,3.02-3.684,4.693c-1.728,1.674-3.811,3.219-6.248,4.639c-6.039,3.566-12.97,5.348-20.791,5.348      c-11.206,0-20.028-3.255-26.467-9.768c-6.657-6.584-9.986-15.707-9.986-27.367c0-11.66,3.638-20.819,10.914-27.477      c3.201-2.982,6.931-5.229,11.187-6.739c4.256-1.509,8.732-2.265,13.424-2.265c9.168,0,16.68,2.22,22.538,6.658      c5.857,4.439,8.786,9.914,8.786,16.426c0,4.911-1.51,8.54-4.529,10.887c-3.02,2.346-7.113,3.52-12.279,3.52      c-2.838,0-5.694-0.7-8.568-2.101c-2.874-1.4-4.584-2.719-5.13-3.956c0-2.982,0.055-5.329,0.164-7.04      c-0.073-0.036-0.2-0.054-0.382-0.054h-0.382c-0.546,0-0.974,0.155-1.282,0.464c-0.309,0.31-0.582,0.955-0.819,1.937      c-0.237,0.982-0.355,3.656-0.355,8.022C60.429,483.28,61.302,488.5,63.048,488.5z"/>
				<path d="M63.594,512.468c-11.368,0-20.459-3.364-27.019-9.998c-6.773-6.699-10.21-16.093-10.21-27.914      c0-11.833,3.757-21.27,11.166-28.049c3.259-3.037,7.114-5.359,11.451-6.898c4.323-1.533,8.926-2.31,13.684-2.31      c9.297,0,17.038,2.293,23.006,6.815c6.034,4.573,9.093,10.308,9.093,17.045c0,5.14-1.625,9.009-4.829,11.5      c-3.145,2.444-7.437,3.683-12.754,3.683c-2.944,0-5.941-0.733-8.908-2.179c-3.072-1.497-4.872-2.917-5.5-4.341l-0.066-0.149      v-0.164c0-2.557,0.041-4.676,0.122-6.317c-0.456,0.012-0.623,0.18-0.68,0.236c-0.072,0.073-0.332,0.401-0.612,1.57      c-0.152,0.629-0.333,2.5-0.333,7.84c0,14.716,1.825,14.886,1.843,14.886c0.072,0,0.14-0.006,0.206-0.017v-4.858l0.341-0.231      c2.54-1.718,6.124-3.132,10.652-4.205c4.495-1.064,8.934-1.603,13.194-1.603h0.326l0.228,0.232      c2.002,2.04,3.689,5.106,5.013,9.113c1.309,3.966,2.011,7.613,2.085,10.839l0.004,0.193l-0.086,0.172      c-0.765,1.528-2.056,3.178-3.837,4.904c-1.765,1.708-3.917,3.307-6.398,4.751C78.649,510.633,71.52,512.468,63.594,512.468z       M62.666,438.852c-4.581,0-9.01,0.748-13.165,2.221c-4.136,1.468-7.809,3.68-10.917,6.576      c-7.08,6.478-10.667,15.529-10.667,26.909c0,11.391,3.283,20.413,9.756,26.816c6.264,6.335,14.982,9.544,25.921,9.544      c7.645,0,14.508-1.763,20.397-5.241c2.376-1.384,4.428-2.906,6.103-4.527c1.588-1.538,2.745-2.988,3.442-4.313      c-0.095-3.025-0.768-6.454-2.002-10.193c-1.198-3.625-2.685-6.409-4.424-8.279c-4.039,0.027-8.244,0.552-12.505,1.561      c-4.141,0.98-7.434,2.244-9.799,3.756v4.978l-0.365,0.228c-0.415,0.259-0.883,0.39-1.393,0.39      c-1.763,0-3.395-1.991-3.395-16.438c0-4.472,0.123-7.156,0.376-8.204c0.275-1.148,0.601-1.88,1.023-2.304      c0.459-0.459,1.075-0.691,1.832-0.691h0.382c0.313,0,0.537,0.042,0.726,0.135l0.464,0.229l-0.033,0.517      c-0.105,1.66-0.16,3.951-0.162,6.812c0.393,0.739,1.542,1.902,4.693,3.436c2.753,1.342,5.521,2.023,8.228,2.023      c4.965,0,8.936-1.129,11.802-3.357c2.806-2.181,4.229-5.638,4.229-10.274c0-6.225-2.853-11.543-8.479-15.808      C79.042,441.039,71.617,438.852,62.666,438.852z"/>
			</g>
			<g>
				<path style="fill:#FF8806;" d="M169.647,452.374v54.243c-4.075,3.056-9.296,4.584-15.662,4.584c-4.911,0-8.804-1-11.678-3.002      c-3.02-2.037-4.53-4.983-4.53-8.84v-10.805h3.874c1.491,0,2.428-0.191,2.81-0.573c0.382-0.382,0.573-1.01,0.573-1.883H127.9      c0,0.873,0.163,1.501,0.491,1.883c0.327,0.382,1.109,0.573,2.346,0.573h4.148v18.063c-2.802,1.82-5.457,3.038-7.967,3.656      c-2.511,0.618-5.075,0.928-7.695,0.928c-4.911,0-8.804-1-11.678-3.002c-3.02-2.037-4.53-4.983-4.53-8.84v-54.298      c1.891-2.001,4.23-3.538,7.012-4.611c2.783-1.072,5.684-1.61,8.704-1.61c4.401,0,8.131,1.091,11.187,3.274      c3.31,2.475,4.966,5.894,4.966,10.26v9.713h6.93c0-0.945-0.173-1.591-0.518-1.937c-0.346-0.345-0.9-0.518-1.664-0.518h-1.856      v-14.571c1.891-2.001,4.229-3.538,7.012-4.611c2.783-1.072,5.684-1.61,8.704-1.61c4.402,0,8.131,1.091,11.187,3.274      C167.991,444.589,169.647,448.008,169.647,452.374z"/>
				<path d="M153.985,511.977c-5.051,0-9.129-1.057-12.121-3.141c-3.223-2.173-4.862-5.365-4.862-9.478v-11.581h4.65      c1.895,0,2.248-0.332,2.262-0.346c0.121-0.121,0.212-0.31,0.27-0.559H128.74c0.065,0.344,0.169,0.518,0.241,0.603      c0.002,0.002,0.275,0.301,1.757,0.301h4.923v19.26l-0.353,0.229c-2.861,1.858-5.621,3.123-8.205,3.759      c-2.561,0.631-5.212,0.95-7.88,0.95c-5.051,0-9.129-1.057-12.121-3.141c-3.223-2.173-4.862-5.365-4.862-9.478v-54.607      l0.212-0.224c1.963-2.076,4.418-3.691,7.297-4.802c2.862-1.103,5.885-1.662,8.983-1.662c4.546,0,8.461,1.15,11.638,3.419      c3.515,2.627,5.29,6.288,5.29,10.891v8.938h5.322c-0.071-0.412-0.189-0.566-0.235-0.613c-0.19-0.189-0.576-0.29-1.115-0.29      h-2.632v-15.656l0.212-0.224c1.963-2.076,4.418-3.691,7.297-4.802c2.862-1.103,5.885-1.662,8.983-1.662      c4.546,0,8.461,1.15,11.638,3.419c3.515,2.627,5.29,6.288,5.29,10.891v54.632l-0.31,0.233      C165.919,510.383,160.493,511.977,153.985,511.977z M138.553,489.33v10.029c0,3.616,1.37,6.297,4.188,8.197      c2.736,1.906,6.516,2.869,11.244,2.869c6.003,0,11.009-1.413,14.886-4.201v-53.851c0-4.144-1.523-7.297-4.655-9.638      c-2.894-2.067-6.506-3.12-10.722-3.12c-2.907,0-5.742,0.524-8.425,1.558c-2.558,0.987-4.748,2.399-6.516,4.2v13.482h1.08      c0.972,0,1.717,0.25,2.212,0.744c0.503,0.504,0.747,1.317,0.747,2.487v0.776h-8.482v-10.489c0-4.144-1.522-7.297-4.655-9.638      c-2.894-2.067-6.506-3.12-10.722-3.12c-2.907,0-5.742,0.524-8.425,1.558c-2.558,0.987-4.748,2.399-6.516,4.2v53.985      c0,3.616,1.37,6.297,4.188,8.197c2.736,1.906,6.516,2.869,11.244,2.869c2.544,0,5.07-0.305,7.509-0.905      c2.31-0.569,4.79-1.688,7.377-3.327V489.33h-3.372c-1.509,0-2.442-0.267-2.936-0.843c-0.457-0.533-0.678-1.314-0.678-2.389      v-0.776h18.687v0.776c0,1.082-0.269,1.9-0.8,2.432c-0.554,0.554-1.59,0.8-3.36,0.8H138.553z"/>
			</g>
			<g>
				<path style="fill:#FF8806;" d="M203.83,439.823h31.487c1.055,1.746,1.836,3.648,2.346,5.703      c0.509,2.055,0.764,3.902,0.764,5.539c0,3.675-0.719,6.44-2.156,8.295c-1.437,1.856-3.447,2.783-6.03,2.783H208.25      c-1.346,0-2.019,0.528-2.019,1.582v0.437c0,0.218,0.036,0.364,0.109,0.437h26.085c0.655,1.128,1.218,2.547,1.692,4.256      c0.436,1.855,0.655,3.511,0.655,4.966c0,4.33-0.801,7.713-2.401,10.15h-11.842c-5.531,0-9.277,0.21-11.242,0.628      c-1.964,0.419-3.184,0.773-3.656,1.064c-0.473,0.328-0.709,0.746-0.709,1.255c0,0.51,0.254,0.91,0.764,1.201      c1.891-0.618,3.875-1.055,5.948-1.31c2.728-0.254,5.693-0.382,8.895-0.382h15.335c2.218,3.129,3.329,6.895,3.329,11.296      c0,2.475-0.31,4.839-0.928,7.094c-0.619,2.256-1.547,4.075-2.783,5.457h-40.874c-4.512,0-8.131-1.091-10.86-3.274      c-2.983-2.328-4.475-5.748-4.475-10.259v-51.897c0-1.746,2.001-3.019,6.003-3.82      C189.278,440.223,195.462,439.823,203.83,439.823z"/>
				<path d="M235.829,511.049h-41.221c-4.671,0-8.488-1.159-11.345-3.444c-3.16-2.465-4.766-6.122-4.766-10.865v-51.897      c0-2.19,2.168-3.689,6.626-4.581c4.037-0.807,10.331-1.215,18.706-1.215h31.926l0.227,0.375      c1.089,1.805,1.909,3.796,2.435,5.917c0.522,2.108,0.787,4.035,0.787,5.726c0,3.834-0.78,6.784-2.318,8.77      c-1.585,2.047-3.821,3.085-6.644,3.085H208.25c-1.243,0-1.243,0.466-1.243,0.807v0.097h25.866l0.224,0.386      c0.685,1.181,1.279,2.674,1.768,4.439c0.456,1.934,0.683,3.665,0.683,5.173c0,4.463-0.851,8.021-2.528,10.576l-0.23,0.35      h-12.261c-5.446,0-9.174,0.206-11.081,0.611c-2.449,0.521-3.188,0.829-3.411,0.966c-0.295,0.206-0.339,0.417-0.339,0.594      c0,0.103,0.013,0.217,0.128,0.341c1.818-0.568,3.738-0.978,5.714-1.221c2.77-0.258,5.786-0.387,8.989-0.387h15.736l0.232,0.327      c2.303,3.25,3.471,7.201,3.471,11.745c0,2.529-0.321,4.985-0.955,7.299c-0.648,2.362-1.642,4.303-2.953,5.77L235.829,511.049z       M203.83,440.598c-8.274,0-14.465,0.399-18.402,1.186c-2.453,0.491-5.378,1.42-5.378,3.059v51.897      c0,4.299,1.366,7.455,4.176,9.647c2.582,2.065,6.073,3.11,10.382,3.11h40.517c1.042-1.256,1.845-2.898,2.391-4.887      c0.597-2.181,0.9-4.499,0.9-6.889c0-4.062-0.996-7.6-2.96-10.52h-14.928c-3.155,0-6.124,0.128-8.823,0.379      c-1.992,0.245-3.944,0.675-5.779,1.275l-0.327,0.107l-0.298-0.171c-0.955-0.545-1.156-1.32-1.156-1.875      c0-0.766,0.36-1.421,1.043-1.894c0.389-0.24,1.178-0.597,3.936-1.185c2.041-0.434,5.771-0.644,11.403-0.644h11.413      c1.364-2.275,2.055-5.426,2.055-9.374c0-1.389-0.213-3-0.634-4.789c-0.394-1.42-0.863-2.655-1.394-3.658h-25.949l-0.227-0.227      c-0.336-0.336-0.336-0.825-0.336-0.986v-0.436c0-0.709,0.272-2.358,2.795-2.358h21.992c2.351,0,4.123-0.812,5.417-2.483      c1.323-1.708,1.994-4.338,1.994-7.819c0-1.566-0.25-3.367-0.742-5.352c-0.452-1.823-1.137-3.542-2.037-5.113H203.83z"/>
			</g>
			<g>
				<path style="fill:#FF8806;" d="M272.011,439.823h31.488c1.055,1.746,1.836,3.648,2.347,5.703      c0.509,2.055,0.764,3.902,0.764,5.539c0,3.675-0.72,6.44-2.156,8.295c-1.437,1.856-3.447,2.783-6.03,2.783h-21.992      c-1.346,0-2.018,0.528-2.018,1.582v0.437c0,0.218,0.036,0.364,0.109,0.437h26.085c0.655,1.128,1.219,2.547,1.692,4.256      c0.436,1.855,0.655,3.511,0.655,4.966c0,4.33-0.802,7.713-2.402,10.15H288.71c-5.53,0-9.277,0.21-11.241,0.628      c-1.965,0.419-3.184,0.773-3.656,1.064c-0.474,0.328-0.71,0.746-0.71,1.255c0,0.51,0.254,0.91,0.764,1.201      c1.891-0.618,3.875-1.055,5.948-1.31c2.728-0.254,5.694-0.382,8.895-0.382h15.334c2.219,3.129,3.329,6.895,3.329,11.296      c0,2.475-0.31,4.839-0.928,7.094c-0.619,2.256-1.547,4.075-2.783,5.457h-40.874c-4.512,0-8.131-1.091-10.86-3.274      c-2.983-2.328-4.475-5.748-4.475-10.259v-51.897c0-1.746,2.001-3.019,6.003-3.82      C257.459,440.223,263.643,439.823,272.011,439.823z"/>
				<path d="M304.009,511.049h-41.221c-4.671,0-8.488-1.159-11.344-3.444c-3.16-2.465-4.766-6.123-4.766-10.865v-51.897      c0-2.19,2.167-3.689,6.626-4.581c4.037-0.807,10.33-1.215,18.707-1.215h31.925l0.227,0.374c1.089,1.802,1.909,3.793,2.436,5.917      c0.522,2.111,0.788,4.038,0.788,5.726c0,3.833-0.78,6.783-2.319,8.77c-1.585,2.047-3.82,3.085-6.644,3.085h-21.992      c-1.242,0-1.242,0.466-1.242,0.807v0.097h25.865l0.224,0.386c0.687,1.182,1.281,2.676,1.769,4.439      c0.456,1.936,0.684,3.667,0.684,5.173c0,4.462-0.852,8.02-2.53,10.576l-0.229,0.35h-12.26c-5.446,0-9.175,0.206-11.081,0.611      c-2.449,0.522-3.189,0.829-3.411,0.966c-0.296,0.206-0.34,0.417-0.34,0.594c0,0.103,0.013,0.217,0.128,0.341      c1.817-0.568,3.738-0.978,5.714-1.221c2.77-0.258,5.786-0.387,8.99-0.387h15.735l0.231,0.327      c2.305,3.25,3.473,7.201,3.473,11.745c0,2.531-0.321,4.986-0.956,7.299c-0.647,2.362-1.642,4.303-2.953,5.77L304.009,511.049z       M272.011,440.598c-8.274,0-14.466,0.399-18.402,1.186c-2.454,0.491-5.379,1.42-5.379,3.059v51.897      c0,4.299,1.366,7.455,4.177,9.647c2.582,2.065,6.072,3.11,10.382,3.11h40.519c1.041-1.256,1.845-2.898,2.391-4.887      c0.597-2.179,0.899-4.497,0.899-6.889c0-4.063-0.995-7.6-2.96-10.52H288.71c-3.156,0-6.125,0.128-8.823,0.379      c-1.992,0.245-3.944,0.675-5.779,1.275l-0.327,0.107l-0.299-0.171c-0.955-0.545-1.156-1.32-1.156-1.875      c0-0.534,0.182-1.296,1.045-1.894c0.389-0.24,1.178-0.597,3.935-1.185c2.042-0.434,5.772-0.644,11.404-0.644h11.412      c1.363-2.276,2.055-5.427,2.055-9.374c0-1.388-0.213-2.999-0.635-4.789c-0.392-1.419-0.862-2.654-1.392-3.658h-25.948      l-0.227-0.225c-0.339-0.336-0.339-0.827-0.339-0.988v-0.436c0-0.709,0.272-2.358,2.795-2.358h21.992      c2.351,0,4.123-0.812,5.417-2.483c1.322-1.709,1.993-4.339,1.993-7.819c0-1.562-0.249-3.364-0.741-5.352      c-0.453-1.826-1.138-3.544-2.037-5.113H272.011z"/>
			</g>
			<g>
				<path style="fill:#FF8806;" d="M374.299,483.861l9.441,9.659c-0.655,5.676-2.447,10.041-5.375,13.097      c-2.93,3.056-6.977,4.584-12.142,4.584c-3.893,0-7.277-0.928-10.151-2.783c-3.675-2.328-6.421-6.039-8.24-11.133l-1.964-5.348      c-1.528-0.036-3.457-0.236-5.785-0.6c-0.292,0.291-0.436,0.691-0.436,1.2c0,0.982,1.473,1.565,4.42,1.746l3.111,7.858v4.639      c-4.184,2.947-9.551,4.42-16.099,4.42c-4.693,0-8.441-0.964-11.241-2.892c-2.802-1.928-4.201-4.729-4.201-8.404v-51.842      c0-1.6,1.473-3.156,4.42-4.665c2.946-1.509,6.802-2.729,11.569-3.656c4.765-0.928,9.531-1.392,14.297-1.392      c10.914,0,19.445,2.238,25.594,6.712c6.475,4.693,9.713,11.296,9.713,19.809c0,4.875-1.374,9.05-4.12,12.524      c-2.748,3.475-6.213,5.885-10.396,7.231c0,1.165,0.7,1.746,2.101,1.746C370.214,486.371,372.043,485.535,374.299,483.861z       M346.14,471.419c0.145,0.109,0.564,0.164,1.255,0.164c0.691,0,1.219-0.273,1.583-0.818c0.363-0.546,0.545-1.437,0.545-2.674      v-1.965c0-1.309-0.155-2.246-0.464-2.81c-0.31-0.564-0.819-0.846-1.528-0.846c-0.71,0-1.193,0.074-1.446,0.219      c0.036,0.182,0.054,0.491,0.054,0.927V471.419z"/>
				<path d="M366.223,511.977c-4.027,0-7.584-0.978-10.572-2.907c-3.802-2.409-6.68-6.287-8.55-11.523l-1.782-4.852      c-1.347-0.06-2.975-0.232-4.853-0.514c-0.025,0.091-0.043,0.208-0.043,0.357c0,0.193,0.678,0.786,3.692,0.972l0.492,0.03      l3.347,8.455v5.189l-0.329,0.231c-4.298,3.027-9.864,4.562-16.546,4.562c-4.831,0-8.762-1.019-11.682-3.029      c-3.011-2.072-4.538-5.114-4.538-9.043v-51.842c0-1.935,1.584-3.687,4.844-5.357c3.001-1.537,6.962-2.791,11.773-3.727      c4.792-0.933,9.652-1.406,14.446-1.406c11.03,0,19.795,2.308,26.051,6.86c6.656,4.824,10.032,11.7,10.032,20.437      c0,5.032-1.442,9.407-4.287,13.005c-2.694,3.407-6.104,5.853-10.14,7.276c0.131,0.246,0.45,0.443,1.236,0.443      c1.224,0,2.913-0.794,5.022-2.358l0.544-0.403l10.172,10.407l-0.042,0.367c-0.673,5.821-2.552,10.378-5.586,13.545      C375.857,510.354,371.583,511.977,366.223,511.977z M339.812,490.51l0.391,0.061c2.284,0.357,4.197,0.556,5.684,0.591      l0.528,0.012l2.146,5.844c1.753,4.909,4.42,8.522,7.927,10.744c2.739,1.768,6.013,2.663,9.736,2.663      c4.921,0,8.817-1.462,11.581-4.345c2.732-2.852,4.454-6.983,5.12-12.284l-8.712-8.914c-2.164,1.523-3.934,2.265-5.397,2.265      c-2.598,0-2.878-1.764-2.878-2.522v-0.566l0.539-0.173c4.014-1.29,7.387-3.637,10.025-6.973      c2.622-3.317,3.951-7.369,3.951-12.042c0-8.211-3.16-14.665-9.392-19.181c-5.986-4.356-14.443-6.564-25.139-6.564      c-4.694,0-9.455,0.464-14.149,1.377c-4.669,0.908-8.492,2.115-11.363,3.585c-2.615,1.34-3.998,2.714-3.998,3.975v51.842      c0,3.435,1.265,5.975,3.865,7.765c2.656,1.829,6.291,2.756,10.802,2.756c6.184,0,11.336-1.363,15.322-4.052v-4.082l-2.876-7.267      c-2.13-0.169-4.655-0.655-4.655-2.486c0-0.72,0.224-1.308,0.664-1.749L339.812,490.51z M347.395,472.358      c-0.945,0-1.411-0.086-1.722-0.319l-0.31-0.233v-8.191c0-0.519-0.027-0.719-0.039-0.781l-0.105-0.544l0.481-0.276      c0.382-0.219,0.964-0.321,1.831-0.321c0.996,0,1.76,0.431,2.209,1.248c0.377,0.689,0.56,1.73,0.56,3.184v1.965      c0,1.405-0.222,2.42-0.676,3.104C349.115,471.957,348.344,472.358,347.395,472.358z M346.916,470.794      c0.122,0.007,0.279,0.012,0.478,0.012c0.43,0,0.719-0.146,0.938-0.474c0.189-0.284,0.415-0.905,0.415-2.243v-1.965      c0-1.458-0.2-2.13-0.368-2.438c-0.12-0.218-0.314-0.442-0.848-0.442c-0.265,0-0.467,0.011-0.619,0.027      c0.002,0.105,0.004,0.219,0.004,0.343V470.794z M346.512,470.744L346.512,470.744L346.512,470.744z"/>
			</g>
			<g>
				<path style="fill:#FF8806;" d="M421.525,490.355c1.2-0.219,1.801-0.827,1.801-1.828c0-1-0.319-2.128-0.955-3.384      c-0.637-1.255-1.574-2.446-2.81-3.574c-3.239-2.91-7.622-4.366-13.152-4.366c-2.729,0-5.276,0.455-7.64,1.364      c-2.51-1.273-4.512-3.292-6.002-6.057c-1.492-2.765-2.238-5.748-2.238-8.95c0-8.367,3.493-14.824,10.478-19.373      c6.002-3.892,13.405-5.839,22.21-5.839c6.548,0,12.06,0.701,16.534,2.101c4.475,1.401,8.131,3.192,10.969,5.375      c0.837,2.401,1.255,4.893,1.255,7.476c0,2.583-0.346,4.93-1.037,7.039c-0.692,2.11-1.692,3.802-3.001,5.075      c-1.238-0.909-3.475-1.837-6.712-2.783c-3.239-0.946-6.185-1.419-8.84-1.419c-2.656,0-4.43,0.164-5.321,0.491      c-0.892,0.328-1.337,0.838-1.337,1.528c0,0.328,0.055,0.637,0.164,0.928c1.274-0.327,2.911-0.491,4.912-0.491      c7.095,0,12.879,1.673,17.353,5.021c5.275,4.003,7.913,10.005,7.913,18.008c0,7.058-2.857,12.915-8.567,17.572      c-6.186,4.985-14.499,7.476-24.939,7.476c-5.749,0-10.733-0.428-14.953-1.282c-4.221-0.855-8.331-2.355-12.333-4.502      c-2.728-3.965-4.093-7.995-4.093-12.088c0-4.093,1.4-7.484,4.202-10.177c2.802-2.692,6.249-4.038,10.341-4.038      s7.44,0.837,10.041,2.51C418.368,483.843,420.287,486.572,421.525,490.355z"/>
				<path d="M422.561,512.523c-5.77,0-10.853-0.437-15.106-1.298c-4.275-0.866-8.495-2.406-12.546-4.579l-0.166-0.089l-0.106-0.155      c-2.807-4.079-4.229-8.293-4.229-12.528c0-4.292,1.494-7.904,4.439-10.737c2.938-2.823,6.599-4.254,10.88-4.254      c4.225,0,7.744,0.886,10.461,2.633c2.574,1.656,4.533,4.306,5.829,7.882c0.533-0.26,0.533-0.642,0.533-0.872      c0-0.871-0.293-1.891-0.871-3.033c-0.59-1.163-1.478-2.29-2.642-3.352c-3.073-2.761-7.323-4.164-12.628-4.164      c-2.619,0-5.096,0.442-7.362,1.313l-0.321,0.124l-0.308-0.156c-2.643-1.34-4.774-3.487-6.335-6.381      c-1.547-2.866-2.331-6.001-2.331-9.318c0-8.607,3.645-15.344,10.831-20.023c6.104-3.958,13.718-5.964,22.634-5.964      c6.596,0,12.236,0.718,16.766,2.136c4.544,1.423,8.316,3.273,11.211,5.501l0.183,0.141l0.076,0.218      c0.862,2.47,1.3,5.072,1.3,7.732c0,2.654-0.362,5.104-1.076,7.281c-0.728,2.222-1.804,4.035-3.197,5.39l-0.471,0.457      l-0.529-0.389c-1.16-0.852-3.337-1.748-6.471-2.664c-3.152-0.921-6.054-1.388-8.623-1.388c-3.179,0-4.503,0.241-5.054,0.443      c-0.825,0.303-0.828,0.649-0.828,0.798c1.194-0.224,2.636-0.337,4.299-0.337c7.233,0,13.228,1.741,17.818,5.175      c5.459,4.142,8.225,10.409,8.225,18.63c0,7.27-2.979,13.384-8.854,18.173C441.69,509.95,433.135,512.523,422.561,512.523z       M395.809,505.367c3.865,2.054,7.886,3.513,11.954,4.336c4.152,0.841,9.131,1.268,14.798,1.268      c10.211,0,18.438-2.458,24.452-7.305c5.492-4.478,8.278-10.187,8.278-16.967c0-7.71-2.559-13.561-7.605-17.39      c-4.311-3.226-9.994-4.863-16.885-4.863c-1.926,0-3.514,0.157-4.718,0.466l-0.675,0.173l-0.245-0.651      c-0.142-0.377-0.214-0.781-0.214-1.201c0-0.72,0.32-1.696,1.846-2.256c0.987-0.362,2.815-0.538,5.589-0.538      c2.717,0,5.764,0.487,9.059,1.449c2.916,0.853,5.016,1.681,6.385,2.522c1.006-1.124,1.803-2.571,2.373-4.31      c0.662-2.022,0.998-4.309,0.998-6.798c0-2.407-0.383-4.761-1.137-7.001c-2.726-2.053-6.272-3.772-10.543-5.109      c-4.38-1.371-9.864-2.065-16.303-2.065c-8.611,0-15.941,1.923-21.788,5.714c-6.718,4.374-10.124,10.672-10.124,18.721      c0,3.057,0.722,5.944,2.145,8.581c1.348,2.499,3.153,4.374,5.372,5.577c2.354-0.857,4.904-1.292,7.588-1.292      c5.699,0,10.299,1.536,13.67,4.565c1.307,1.191,2.309,2.469,2.984,3.8c0.69,1.361,1.039,2.618,1.039,3.734      c0,0.802-0.317,2.206-2.438,2.592l-0.666,0.121l-0.21-0.644c-1.175-3.592-3.006-6.208-5.44-7.774      c-2.462-1.584-5.699-2.387-9.621-2.387c-3.866,0-7.165,1.286-9.804,3.822c-2.667,2.564-3.963,5.71-3.963,9.618      C391.959,497.735,393.254,501.602,395.809,505.367z"/>
			</g>
			<g>
				<path style="fill:#FF8806;" d="M486.758,478.295c-1.892-0.837-3.566-1.255-5.02-1.255c-1.456,0-2.183,0.674-2.183,2.019v0.218      c4.147,0.291,7.658,1.956,10.532,4.993c2.874,3.038,4.311,6.677,4.311,10.914c0,4.239-1.546,7.904-4.638,10.996      c-3.13,3.056-6.859,4.584-11.187,4.584c-4.33,0-8.031-1.537-11.105-4.612c-3.074-3.074-4.611-6.757-4.611-11.051      c0-2.91,0.737-5.593,2.21-8.049c1.473-2.456,3.429-4.393,5.866-5.812c-2.183-3.783-3.929-8.131-5.239-13.043      c-1.309-4.911-1.965-10.004-1.965-15.28v-17.79c1.528-1.092,3.511-1.982,5.948-2.674c2.438-0.69,4.912-1.037,7.422-1.037      c5.457,0,9.395,1.373,11.815,4.12c2.418,2.747,3.628,7.377,3.628,13.888v3.493C492.543,461.323,490.614,469.782,486.758,478.295      z"/>
				<path d="M478.573,511.541c-4.523,0-8.444-1.628-11.654-4.838c-3.21-3.21-4.838-7.113-4.838-11.6c0-3.04,0.781-5.882,2.321-8.448      c1.399-2.334,3.242-4.243,5.486-5.683c-2.034-3.671-3.696-7.896-4.944-12.572c-1.321-4.955-1.991-10.163-1.991-15.48v-18.19      l0.325-0.232c1.592-1.137,3.674-2.076,6.189-2.79c2.497-0.707,5.064-1.066,7.634-1.066c5.663,0,9.834,1.475,12.396,4.383      c2.536,2.881,3.822,7.727,3.822,14.401v3.493c0,8.474-1.97,17.12-5.853,25.696l-0.317,0.701l-0.704-0.311      c-1.783-0.789-3.366-1.189-4.706-1.189c-0.898,0-1.246,0.28-1.359,0.758c3.999,0.449,7.452,2.184,10.272,5.163      c3.002,3.173,4.525,7.025,4.525,11.448c0,4.432-1.638,8.316-4.866,11.545C487.038,509.924,483.091,511.541,478.573,511.541z       M464.505,435.537v17.382c0,5.182,0.652,10.256,1.938,15.08c1.288,4.827,3.024,9.151,5.161,12.855l0.387,0.669l-0.668,0.389      c-2.314,1.346-4.194,3.211-5.591,5.54c-1.394,2.322-2.1,4.896-2.1,7.65c0,4.06,1.475,7.594,4.383,10.502      c2.908,2.909,6.46,4.384,10.557,4.384c4.099,0,7.681-1.468,10.646-4.363c2.92-2.921,4.404-6.436,4.404-10.441      c0-4.013-1.379-7.506-4.099-10.381c-2.724-2.878-6.096-4.476-10.023-4.751l-0.722-0.051v-0.942c0-1.777,1.079-2.795,2.959-2.795      c1.368,0,2.92,0.343,4.621,1.022c3.589-8.147,5.407-16.34,5.407-24.366v-3.493c0-6.286-1.155-10.786-3.435-13.376      c-2.254-2.559-6.033-3.857-11.231-3.857c-2.426,0-4.852,0.339-7.21,1.007C467.719,433.818,465.91,434.603,464.505,435.537z"/>
			</g>
		</g>
		<g>
			<g>
				<path style="fill:#FFFFFF;" d="M85.46,448.359c-0.823-1.024-2.69-0.922-3.535,0c-0.998,1.087-0.878,2.443,0,3.535      c0.051,0.064,0.087,0.109,0.113,0.142c0.084,0.112,0.167,0.225,0.248,0.339c0.192,0.27,0.377,0.544,0.555,0.823      c0.356,0.558,0.684,1.133,0.982,1.724c0.149,0.296,0.289,0.595,0.426,0.897c0.12,0.274,0.133,0.303,0.038,0.089      c0.062,0.154,0.121,0.308,0.179,0.463c0.217,0.582,0.407,1.173,0.571,1.772c0.163,0.599,0.3,1.205,0.409,1.816      c0.029,0.163,0.056,0.326,0.081,0.49c-0.03-0.255-0.027-0.231,0.009,0.073c0.035,0.329,0.068,0.658,0.089,0.989      c0.086,1.323,0.033,2.647-0.142,3.961c-0.173,1.302,1.273,2.555,2.5,2.5c1.502-0.067,2.315-1.105,2.5-2.5      C91.298,459.331,89.308,453.143,85.46,448.359z"/>
			</g>
			<g>
				<path style="fill:#FFFFFF;" d="M159.232,443.441c-1.007-0.832-2.563-1.059-3.536,0c-0.844,0.92-1.077,2.646,0,3.536      c0.51,0.421,0.994,0.868,1.444,1.353c0.2,0.215,0.389,0.438,0.579,0.661c0.032,0.037,0.047,0.055,0.069,0.08      c0.006,0.009,0.006,0.009,0.013,0.02c0.083,0.12,0.173,0.237,0.257,0.357c0.377,0.542,0.719,1.107,1.024,1.693      c0.149,0.285,0.281,0.577,0.418,0.868c0.005,0.014,0.009,0.021,0.015,0.037c0.066,0.171,0.131,0.343,0.193,0.516      c0.208,0.588,0.382,1.188,0.52,1.797c0.073,0.322,0.12,0.649,0.187,0.972c0.002,0.009,0.003,0.01,0.004,0.017      c0.016,0.173,0.038,0.345,0.051,0.518c0.05,0.621,0.061,1.244,0.034,1.866c-0.014,0.31-0.043,0.617-0.073,0.926      c-0.006,0.047-0.014,0.102-0.023,0.157c-0.031,0.181-0.066,0.361-0.102,0.541c-0.258,1.278,0.367,2.761,1.746,3.075      c1.244,0.284,2.799-0.375,3.075-1.746C166.391,454.412,164.219,447.561,159.232,443.441z"/>
			</g>
			<g>
				<path style="fill:#FFFFFF;" d="M234.527,448.438c-0.337-2.26-1.623-4.348-3.572-5.559c-1.113-0.691-2.802-0.275-3.421,0.897      c-0.647,1.225-0.291,2.683,0.897,3.421c0.051,0.03,0.1,0.064,0.149,0.096c0.125,0.121,0.248,0.245,0.372,0.367      c0.002,0.002,0.002,0.003,0.004,0.005c0.018,0.027,0.038,0.053,0.056,0.081c0.082,0.125,0.159,0.255,0.23,0.386      c0.025,0.047,0.048,0.095,0.072,0.142c0.016,0.149,0.152,0.4,0.187,0.524c0.056,0.196,0.103,0.394,0.142,0.594      c0.004,0.02,0.007,0.04,0.01,0.06c0.023,0.431,0.042,0.857,0.016,1.29c-0.003,0.052-0.012,0.214-0.019,0.351      c-0.019,0.2-0.066,0.404-0.104,0.599c-0.189,0.98-0.47,1.939-0.751,2.896c-0.368,1.254,0.445,2.779,1.746,3.075      c1.34,0.305,2.681-0.403,3.075-1.746C234.338,453.463,234.91,451.003,234.527,448.438z"/>
			</g>
			<g>
				<path style="fill:#FFFFFF;" d="M299.77,448.438c-0.337-2.26-1.623-4.348-3.572-5.559c-1.112-0.691-2.802-0.275-3.421,0.897      c-0.647,1.225-0.29,2.683,0.897,3.421c0.051,0.03,0.099,0.064,0.149,0.096c0.125,0.121,0.248,0.245,0.372,0.367      c0.002,0.002,0.002,0.003,0.004,0.005c0.018,0.027,0.038,0.053,0.056,0.081c0.082,0.125,0.159,0.255,0.23,0.386      c0.025,0.047,0.048,0.095,0.072,0.142c0.016,0.149,0.152,0.4,0.187,0.524c0.056,0.196,0.103,0.394,0.142,0.594      c0.004,0.02,0.007,0.04,0.01,0.06c0.023,0.431,0.042,0.857,0.016,1.29c-0.003,0.052-0.012,0.214-0.018,0.351      c-0.019,0.2-0.066,0.404-0.104,0.599c-0.19,0.98-0.47,1.939-0.751,2.896c-0.368,1.254,0.445,2.779,1.746,3.075      c1.34,0.305,2.681-0.403,3.075-1.746C299.58,453.463,300.152,451.003,299.77,448.438z"/>
			</g>
			<g>
				<path style="fill:#FFFFFF;" d="M371.303,449.327c-0.743-1.126-2.21-1.605-3.421-0.897c-1.118,0.654-1.644,2.289-0.897,3.421      c1.434,2.173,2.224,4.608,2.342,6.986c0.13,2.602-0.37,5.046-1.507,7.212c-0.628,1.195-0.305,2.717,0.897,3.421      c1.127,0.659,2.791,0.303,3.421-0.897C375.289,462.572,375.059,455.019,371.303,449.327z"/>
			</g>
			<g>
				<g>
					<path style="fill:#FFFFFF;" d="M446.183,446.215c-0.699-1.104-2.257-1.647-3.42-0.897c-1.105,0.712-1.646,2.239-0.897,3.42       c0.2,0.315,0.386,0.638,0.553,0.972c0.082,0.165,0.146,0.347,0.236,0.507c-0.053-0.094-0.09-0.16-0.118-0.211       c0.044,0.084,0.098,0.193,0.124,0.264c0.213,0.594,0.359,1.206,0.469,1.826c0.082,0.769,0.086,1.539,0.01,2.308       c-0.05,0.291-0.097,0.583-0.17,0.87c-0.32,1.266,0.41,2.771,1.746,3.075c1.298,0.296,2.733-0.39,3.075-1.746       C448.674,453.105,448.122,449.274,446.183,446.215z"/>
				</g>
				<g>
					<path style="fill:#FFFFFF;" d="M442.537,450.007C442.474,449.887,442.436,449.825,442.537,450.007L442.537,450.007z"/>
				</g>
			</g>
			<g>
				<path style="fill:#FFFFFF;" d="M490.748,491.864c-0.101-1.301-1.077-2.564-2.5-2.5c-1.268,0.057-2.608,1.104-2.5,2.5      c0.034,0.435,0.048,0.87,0.034,1.306c-0.007,0.23-0.021,0.46-0.042,0.69c-0.004,0.044-0.008,0.088-0.014,0.132      c-0.159,0.866-0.395,1.685-0.692,2.513c-0.022,0.05-0.045,0.1-0.068,0.15c-0.099,0.208-0.203,0.414-0.314,0.617      c-0.209,0.382-0.438,0.754-0.687,1.111c-0.044,0.064-0.09,0.126-0.135,0.189c-0.125,0.151-0.248,0.303-0.379,0.448      c-0.309,0.343-0.64,0.664-0.986,0.97c-0.985,0.867-0.952,2.662,0,3.535c1.05,0.964,2.485,0.925,3.535,0      C489.239,500.672,491.083,496.17,490.748,491.864z"/>
			</g>
		</g>
	</g>
	<g>
		<g>
			<path style="fill:#FFB500;" d="M151.449,98.808c-23.986,5.157-26.603,8.388-28.542,35.24     c-4.946-26.463-7.909-29.379-32.323-31.807c23.986-5.157,26.603-8.388,28.542-35.24     C124.072,93.464,127.036,96.381,151.449,98.808z"/>
			<path d="M123.127,137.945l-0.711-3.806c-4.924-26.346-7.606-28.987-31.881-31.401l-3.175-0.316l3.12-0.67     c23.85-5.127,26.217-8.054,28.148-34.787l0.279-3.861l0.711,3.806c4.924,26.347,7.606,28.988,31.881,31.401l3.175,0.315     l-3.12,0.671c-23.85,5.128-26.218,8.054-28.148,34.787L123.127,137.945z M93.702,102.065     c20.814,2.316,24.567,5.915,28.994,28.231c1.889-22.672,5.213-26.67,25.636-31.313c-20.815-2.315-24.567-5.915-28.995-28.231     C117.448,93.425,114.124,97.424,93.702,102.065z"/>
		</g>
		<g>
			<path style="fill:#FFB500;" d="M74.729,32.962c-17.613,3.787-19.535,6.16-20.959,25.878     c-3.632-19.433-5.808-21.574-23.736-23.357c17.614-3.787,19.535-6.16,20.959-25.878C54.625,29.038,56.802,31.18,74.729,32.962z"/>
			<path d="M53.989,62.737l-0.711-3.806c-3.599-19.257-5.558-21.188-23.293-22.951l-3.176-0.316l3.12-0.67     C47.353,31.249,49.083,29.11,50.494,9.57l0.279-3.861l0.711,3.806c3.6,19.257,5.559,21.187,23.294,22.951l3.175,0.315     l-3.12,0.671C57.41,37.198,55.68,39.336,54.268,58.876L53.989,62.737z M33.109,35.31c14.414,1.683,17.316,4.447,20.453,19.837     c1.387-15.646,3.959-18.719,18.093-22.012c-14.415-1.683-17.316-4.447-20.453-19.837C49.814,28.944,47.243,32.018,33.109,35.31z"/>
		</g>
		<g>
			<path style="fill:#FFB500;" d="M400.764,100.573c-17.614,3.787-19.535,6.16-20.959,25.878     c-3.632-19.433-5.808-21.574-23.736-23.357c17.613-3.787,19.535-6.16,20.959-25.878     C380.66,96.649,382.836,98.791,400.764,100.573z"/>
			<path d="M380.024,130.348l-0.711-3.805c-3.6-19.257-5.559-21.187-23.294-22.951l-3.175-0.316l3.119-0.67     c17.425-3.746,19.154-5.885,20.565-25.425l0.279-3.862l0.711,3.806c3.6,19.257,5.559,21.188,23.295,22.951l3.175,0.316     l-3.119,0.671c-17.425,3.746-19.154,5.885-20.566,25.425L380.024,130.348z M359.144,102.921     c14.414,1.683,17.315,4.447,20.452,19.838c1.387-15.646,3.959-18.719,18.093-22.012c-14.414-1.683-17.316-4.446-20.453-19.837     C375.85,96.556,373.278,99.628,359.144,102.921z"/>
		</g>
		<g>
			<path style="fill:#FFB500;" d="M475.982,35.705c-23.986,5.157-26.603,8.388-28.542,35.24     c-4.946-26.463-7.909-29.379-32.323-31.807c23.986-5.157,26.603-8.388,28.542-35.24     C448.604,30.361,451.568,33.278,475.982,35.705z"/>
			<path d="M447.659,74.842l-0.711-3.806c-4.924-26.346-7.605-28.987-31.881-31.401l-3.175-0.316l3.119-0.67     c23.851-5.128,26.218-8.054,28.147-34.787L443.438,0l0.711,3.806c4.925,26.347,7.606,28.988,31.883,31.401l3.175,0.315     l-3.119,0.671c-23.852,5.128-26.219,8.054-28.15,34.787L447.659,74.842z M418.235,38.962c20.815,2.316,24.566,5.915,28.992,28.23     c1.891-22.672,5.214-26.67,25.637-31.312c-20.814-2.315-24.567-5.914-28.994-28.23C441.98,30.322,438.657,34.32,418.235,38.962z"/>
		</g>
	</g>
	<g>
		<g>
			<g>
				<path d="M312.569,270.218c-5.552-2.328-10.519,0.669-13.246,5.431c-19.26,33.64-51.977,58.342-88.963,69.26      c-5.245,1.548-7.572,8.374-5.691,13.135c2.162,5.472,7.878,7.243,13.135,5.691c42.545-12.558,78.255-41.947,100.196-80.271      C320.718,278.717,317.163,272.145,312.569,270.218z"/>
			</g>
			<g>
				<g>
					<path d="M409.051,224.588c11.572,7.761,23.172,15.536,35.456,22.141c5.991,3.221,12.151,6.323,18.576,8.592       c3.132,1.106,8.165,3.556,9.254-0.754c1.402-5.55,0.058-12.446-1.113-17.97c-1.483-6.998-3.587-13.856-5.553-20.728       c-4.235-14.804-8.47-29.608-12.705-44.412c-3.589-12.546,15.936-17.903,19.518-5.381c4.964,17.351,9.969,34.692,14.89,52.055       c4.122,14.545,10.435,35.595,1.22,49.466c-11.217,16.884-32.792,7.218-46.881,0.406c-15.069-7.285-29.007-16.636-42.878-25.939       C388.071,234.847,398.192,217.306,409.051,224.588z"/>
				</g>
				<g>
					<g>
						<path style="fill:#FFFFFF;" d="M450.689,141.462c0,0-22.159-30.789-32.448-22.289c-8.098,6.69,19.266,32.901,19.266,32.901        L450.689,141.462z"/>
						<path d="M437.477,152.747l-0.32-0.308c-0.869-0.831-21.268-20.485-20.916-30.057c0.056-1.515,0.62-2.727,1.678-3.6        c1.568-1.294,3.479-1.808,5.688-1.523c11.211,1.446,26.834,22.991,27.494,23.907l0.279,0.389L437.477,152.747z         M422.432,118.193c-1.485,0-2.759,0.452-3.869,1.37c-0.837,0.691-1.266,1.625-1.31,2.857        c-0.312,8.496,17.654,26.404,20.285,28.979l12.457-10.028c-2.19-2.955-16.537-21.821-26.519-23.108        C423.117,118.217,422.769,118.193,422.432,118.193z"/>
					</g>
					<g>
						<path style="fill:#FFFFFF;" d="M462.273,135.508c0,0-2.013-37.239-14.617-32.853c-12.604,4.386,1.267,38.352,1.267,38.352        L462.273,135.508z"/>
						<path d="M448.647,141.667l-0.192-0.47c-0.408-1.001-9.96-24.636-5.345-34.857c0.939-2.078,2.412-3.479,4.38-4.164        c1.964-0.683,3.811-0.462,5.485,0.662c8.246,5.533,9.743,31.537,9.803,32.642l0.02,0.358L448.647,141.667z M449.666,102.799        c-0.593,0-1.206,0.111-1.845,0.334c-1.694,0.59-2.97,1.809-3.789,3.624c-4.092,9.062,3.834,30.161,5.172,33.586l12.541-5.166        c-0.211-3.185-2.005-26.581-9.335-31.498C451.536,103.091,450.627,102.799,449.666,102.799z"/>
					</g>
					<g>
						<path style="fill:#FFFFFF;" d="M434.618,155.887c0,0-2.721,19.77,14.782,21.468c0,0-3.764,8.689,6.217,8.129        c9.981-0.56,28.164-9.116,19.643-16.818c0,0,13.812-16.943-4.199-31.543L434.618,155.887z"/>
						<path d="M454.727,186.017c-2.73,0-4.636-0.75-5.671-2.234c-1.406-2.018-0.758-4.767-0.354-5.995        c-4.615-0.58-8.227-2.483-10.739-5.665c-5.128-6.489-3.9-15.906-3.846-16.304l0.035-0.261l0.234-0.12l36.737-18.915        l0.256,0.208c5.603,4.542,8.746,9.777,9.343,15.561c0.839,8.129-3.58,14.702-4.783,16.321c2.35,2.324,2.246,4.551,1.722,6.037        c-2.112,5.98-14.616,10.925-22.016,11.341C455.33,186.008,455.023,186.017,454.727,186.017z M435.09,156.213        c-0.156,1.546-0.737,9.714,3.67,15.287c2.452,3.101,6.048,4.902,10.689,5.352l0.69,0.067l-0.274,0.637        c-0.016,0.035-1.479,3.499,0.023,5.65c0.935,1.336,2.858,1.936,5.7,1.773c7.803-0.438,19.31-5.548,21.117-10.667        c0.649-1.839,0.049-3.612-1.785-5.271l-0.356-0.322l0.303-0.373c0.058-0.071,5.758-7.193,4.848-15.962        c-0.561-5.415-3.494-10.346-8.717-14.66L435.09,156.213z"/>
					</g>
					<g>
						<path d="M450.135,177.871c-0.435,0-0.704-0.008-0.752-0.01l0.033-1.012c0.054,0.003,5.498,0.163,9.367-1.141l0.322,0.959        C455.896,177.75,451.803,177.871,450.135,177.871z"/>
					</g>
					<g>
						<path d="M467.694,173.104l-0.28-0.973c0.036-0.01,3.594-1.057,7.552-3.876l0.588,0.824        C471.445,172.004,467.845,173.06,467.694,173.104z"/>
					</g>
					<g>
						<path style="fill:#FFFFFF;" d="M468.751,127.773c-2.424,0.187-4.866,1.967-6.134,4.114c-1.883,3.19-1.689,7.362-0.979,10.877        c0.615,3.05,2.138,6.476,5.618,6.89c4.979,0.592,7.226-4.165,7.946-8.314c0.672-3.876,0.435-8.684-2.263-11.801        C471.738,128.15,470.248,127.658,468.751,127.773z"/>
						<path d="M468.059,150.208c-0.282,0-0.569-0.018-0.862-0.052c-3.027-0.36-5.178-2.949-6.055-7.292        c-0.944-4.685-0.595-8.464,1.04-11.234c1.427-2.417,4.051-4.17,6.53-4.361l0,0c1.795-0.139,3.392,0.532,4.61,1.939        c3.381,3.908,2.79,9.847,2.379,12.219C474.735,146.995,471.909,150.208,468.059,150.208z M468.79,128.277        c-2.131,0.165-4.49,1.755-5.737,3.867c-1.504,2.548-1.812,6.087-0.919,10.52c0.555,2.744,1.903,6.098,5.182,6.487        c5.354,0.639,6.939-5.313,7.388-7.898c0.387-2.23,0.951-7.803-2.146-11.384C471.543,128.699,470.288,128.166,468.79,128.277        L468.79,128.277z"/>
					</g>
					<g>
						<path style="fill:#FFFFFF;" d="M434.553,156.135c2.48-9.92,17.298-17.375,22.851-19.935c3.182-1.467,6.643-2.473,9.283-0.168        c8.678,7.577-10.953,22.244-10.953,22.244s5.607,5.733,0.718,10.805"/>
						<path d="M456.816,169.431l-0.728-0.702c4.497-4.665-0.5-9.88-0.715-10.1l-0.404-0.413l0.463-0.346        c0.127-0.095,12.68-9.56,12.959-16.912c0.068-1.803-0.598-3.29-2.036-4.545c-2.497-2.183-5.819-1.099-8.738,0.246        c-7.46,3.439-20.312,10.559-22.571,19.598l-0.982-0.245c2.362-9.449,15.506-16.757,23.13-20.272        c3.026-1.395,6.878-2.665,9.828-0.09c1.66,1.45,2.462,3.249,2.382,5.347c-0.271,7.113-10.631,15.561-12.933,17.352        C457.684,159.831,461.195,164.89,456.816,169.431z"/>
					</g>
				</g>
			</g>
		</g>
		<g>
			<g>
				<g>
					<path d="M343.685,336.931c-0.401-6.007-5.304-9.109-10.783-9.417c-38.702-2.177-75.431-20.387-101.74-48.583       c-3.731-3.999-10.877-3.026-14.293,0.786c-3.927,4.381-2.954,10.285,0.786,14.293c30.264,32.433,72.523,51.223,116.613,53.703       C339.73,348.021,344.017,341.901,343.685,336.931z"/>
				</g>
				<g>
					<g>
						<path d="M101.642,254.898c-11.572,7.761-23.172,15.536-35.456,22.141c-5.99,3.221-12.151,6.323-18.576,8.592        c-3.132,1.106-8.165,3.556-9.254-0.754c-1.402-5.55-0.058-12.446,1.113-17.97c1.483-6.997,3.588-13.856,5.553-20.727        c4.235-14.804,8.47-29.608,12.705-44.412c3.589-12.546-15.936-17.903-19.518-5.381c-4.964,17.352-9.969,34.692-14.89,52.055        c-4.122,14.545-10.435,35.595-1.22,49.466c11.217,16.884,32.792,7.218,46.881,0.406c15.069-7.285,29.007-16.636,42.878-25.939        C122.622,265.157,112.501,247.616,101.642,254.898z"/>
					</g>
					<g>
						<g>
							<path style="fill:#FFFFFF;" d="M60.54,210.744c0,0,7.009,14.964-13.337,9.529c-20.346-5.435-28.519-10.361-16.078-16.681         c0,0-17.622-6.981,3.987-51.871c1.114-2.315,2.958-4.89,5.527-4.933c3.598-0.06,6.415,6.617,3.212,25.959         c0,0,6.929-33.66,15.892-29.915c1.703,0.711,2.577,2.625,2.792,4.458c0.443,3.766-2.063,18.995-5.386,29.553         c0,0,7.079-19.776,11.893-25.288c4.814-5.512,11.31-5.11,8.532,8.068c-0.717,3.402-1.719,6.739-2.912,10.005l-5.631,15.42         c0,0,13.553-13.33,19.154-6.975C91.705,182.065,79.344,210.131,60.54,210.744z"/>
							<path d="M54.765,221.963c-2.125,0-4.692-0.4-7.692-1.202c-15.26-4.077-21.937-7.392-22.324-11.086         c-0.214-2.035,1.524-4.033,5.308-6.094c-1.171-0.759-3.253-2.542-4.688-6.211c-2.615-6.692-3.126-20.082,9.287-45.869         c1.133-2.354,3.089-5.171,5.975-5.219c0.986-0.032,1.964,0.438,2.721,1.315c2.114,2.452,2.834,8.162,2.132,16.417         c2.232-7.975,6.065-18.936,10.795-21.435c1.222-0.646,2.453-0.718,3.659-0.214c1.664,0.695,2.823,2.514,3.1,4.865         c0.338,2.867-0.96,11.909-2.966,20.634c2.479-6.049,5.862-13.52,8.589-16.642c2.568-2.94,5.548-4.181,7.597-3.16         c1.443,0.72,3.598,3.193,1.812,11.666c-0.687,3.257-1.646,6.552-2.932,10.074l-4.917,13.464         c2.899-2.549,9.252-7.58,14.259-7.412c1.661,0.059,3.036,0.693,4.086,1.885c1.614,1.831,0.285,6.889-1.498,11.012         c-4.623,10.697-14.337,21.654-25.786,22.462c0.63,1.646,1.903,5.866-0.34,8.545         C59.713,221.228,57.645,221.963,54.765,221.963z M40.686,147.293c-0.013,0-0.025,0-0.039,0         c-2.369,0.039-4.07,2.548-5.079,4.646c-12.255,25.458-11.798,38.557-9.256,45.062c1.892,4.841,4.968,6.107,4.999,6.12         l1.043,0.413l-1,0.508c-3.892,1.978-5.776,3.837-5.599,5.527c0.43,4.103,12.521,7.794,21.578,10.214         c6.561,1.752,10.997,1.519,12.833-0.675c2.366-2.827-0.06-8.097-0.084-8.149l-0.326-0.696l0.768-0.025         c12.935-0.421,22.188-13.957,25.616-21.889c2.357-5.456,2.517-8.978,1.667-9.942c-0.871-0.988-1.97-1.492-3.362-1.542         c-6.03-0.2-14.969,8.455-15.058,8.543l-1.6,1.572l6.4-17.526c1.27-3.477,2.215-6.727,2.892-9.936         c1.202-5.702,0.738-9.547-1.274-10.551c-1.594-0.794-4.161,0.377-6.382,2.921c-4.697,5.378-11.728,24.928-11.798,25.124         l-0.959-0.322c3.246-10.311,5.817-25.518,5.367-29.342c-0.233-1.983-1.163-3.497-2.485-4.05         c-0.926-0.386-1.842-0.331-2.796,0.175c-7.052,3.725-12.353,29.119-12.406,29.374l-0.995-0.185         c2.948-17.806,0.446-22.999-0.767-24.406C42.034,147.618,41.395,147.293,40.686,147.293z"/>
						</g>
						<g>
							
								<rect x="49.803" y="161.654" transform="matrix(0.2494 -0.9684 0.9684 0.2494 -132.0291 180.3331)" width="1.012" height="27.356"/>
						</g>
						<g>
							<path d="M47.72,196.863l-0.966-0.303c4.611-14.695,20.665-9.862,20.826-9.812l-0.302,0.966         c-0.038-0.012-3.894-1.192-8.22-0.63C53.339,187.824,49.524,191.115,47.72,196.863z"/>
						</g>
						<g>
							<path d="M58.976,211.359c-1.458,0-2.912-0.158-4.335-0.471c-2.042-0.449-3.996-1.21-5.806-2.262l0.508-0.875         c1.721,0.999,3.576,1.722,5.516,2.148c1.658,0.365,3.361,0.507,5.061,0.424l0.05,1.011         C59.639,211.351,59.308,211.359,58.976,211.359z"/>
						</g>
						<g>
							
								<rect x="34.113" y="201.002" transform="matrix(0.2911 -0.9567 0.9567 0.2911 -171.2504 178.2056)" width="1.012" height="7.304"/>
						</g>
					</g>
				</g>
			</g>
			<g>
				<g>
					<g>
						<path style="fill:#AD2328;" d="M232.44,363.365c-3.267,17.566-6.358,33.312-8.799,45.574        c-2.67,13.39-14.639,22.624-27.912,21.465c-30.082-2.588-80.262-10.334-107.207-16.646        c-9.965-2.354-16.324-12.409-14.449-22.716c0,0,4.185-23.747,9.885-55.424c5.403-29.889,12.147-66.865,18.008-97.549        c5.13-26.909,9.617-48.988,11.868-57.249c9.026-32.996,29.994-36.003,50.932-28.113l8.764-53.856l2.323-14.34l2.779-17.027        l4.924-30.23l2.79-17.162l1.954-12.049l0.027-0.227l51.283,8.253l-1.736,11.308l-1.496,9.793l-1.322,8.614l-4.568,29.733        l-0.079,0.544l-12.833,83.556c0,0,39.09,1.15,40.055,36.095c0.501,17.581-5.424,39.401-8.835,66.017        C244.526,295.219,238.214,332.183,232.44,363.365z"/>
						<path d="M197.965,431.007c-0.756,0-1.515-0.033-2.28-0.1c-30.457-2.621-80.587-10.404-107.278-16.657        c-10.254-2.423-16.768-12.657-14.831-23.3c0.041-0.234,4.25-24.107,9.884-55.422c7.411-40.998,13.301-72.908,18.009-97.555        c3.965-20.804,9.245-47.63,11.876-57.287c3.992-14.594,10.621-24.342,19.703-28.975c8.47-4.319,19.003-4.217,31.317,0.306        L187.823,7.757l0.062-0.524l52.3,8.417l-9.278,60.483l-12.749,83.009c4.861,0.334,39.073,3.863,39.975,36.555        c0.317,11.11-1.899,23.779-4.464,38.449c-1.529,8.743-3.11,17.784-4.374,27.646c-3.612,28.357-9.116,62.561-16.357,101.664        l0,0c-3.467,18.645-6.683,34.943-8.8,45.58C221.57,421.91,210.538,431.007,197.965,431.007z M146.906,149.561        c-4.93,0-9.407,1.018-13.399,3.054c-8.817,4.498-15.272,14.032-19.186,28.339c-2.622,9.625-7.896,36.424-11.858,57.21        c-4.707,24.644-10.597,56.551-18.007,97.545c-5.634,31.314-9.842,55.185-9.884,55.422        c-1.841,10.115,4.338,19.837,14.066,22.136c26.652,6.244,76.715,14.017,107.134,16.634c12.982,1.145,24.753-7.92,27.373-21.06        c2.116-10.634,5.331-26.928,8.797-45.567c7.238-39.083,12.739-73.27,16.349-101.607c1.267-9.885,2.85-18.938,4.381-27.692        c2.556-14.616,4.764-27.238,4.45-38.246c-0.395-14.287-7.157-24.618-20.099-30.708c-9.686-4.558-19.368-4.893-19.464-4.896        l-0.572-0.017l22.045-143.615l-50.279-8.092l-23.587,145l-0.579-0.218C158.183,150.767,152.275,149.561,146.906,149.561z"/>
					</g>
					<g>
						<g>
							<g>
								<path style="fill:#FFFFFF;" d="M239.717,177.753c-0.121-0.049-0.242-0.096-0.364-0.139          c-3.258-1.151-7.833,0.331-8.069,4.342c-0.222,3.772,3.546,5.671,5.396,8.379c2.798,4.099,1.634,10.194,1.401,14.871          c-0.203,4.077,0.175,9.939,5.574,10.316c6.72,0.469,5.997-8.312,6.079-12.957c0.102-5.73-0.216-11.851-2.709-17.1          C245.573,182.409,242.907,179.052,239.717,177.753z"/>
								<path style="fill:#FFFFFF;" d="M244.156,216.046c-0.176,0-0.355-0.006-0.537-0.019c-4.355-0.304-6.388-3.953-6.045-10.847          c0.042-0.832,0.112-1.709,0.185-2.611c0.33-4.089,0.704-8.723-1.499-11.949c-0.56-0.82-1.304-1.562-2.092-2.348          c-1.748-1.743-3.555-3.544-3.391-6.346c0.101-1.707,0.913-3.112,2.349-4.066c1.78-1.183,4.29-1.468,6.394-0.724          c0.131,0.046,0.259,0.095,0.387,0.147c3.466,1.413,6.185,5.04,7.573,7.963c2.605,5.485,2.855,11.836,2.758,17.326          c-0.008,0.453-0.008,0.944-0.009,1.462c-0.002,3.544-0.006,8.397-2.48,10.703          C246.819,215.607,245.612,216.046,244.156,216.046z M237.088,177.744c-1.226,0-2.454,0.33-3.401,0.959          c-0.809,0.538-1.796,1.543-1.898,3.283c-0.139,2.347,1.432,3.913,3.095,5.57c0.786,0.784,1.599,1.595,2.213,2.494          c2.404,3.521,2.015,8.345,1.671,12.6c-0.072,0.892-0.142,1.758-0.183,2.581c-0.315,6.323,1.355,9.524,5.105,9.786          c1.428,0.103,2.529-0.234,3.372-1.018c2.152-2.005,2.155-6.605,2.158-9.963c0-0.525,0.001-1.022,0.009-1.479          c0.096-5.373-0.146-11.579-2.66-16.874c-1.307-2.753-3.843-6.158-7.042-7.461l0,0c-0.113-0.046-0.228-0.089-0.343-0.13          C238.523,177.857,237.806,177.744,237.088,177.744z"/>
							</g>
						</g>
						<g>
							<path style="fill:#FFFFFF;" d="M95.983,351.079c-2.814-0.092-4.818,1.971-5.286,4.944         c-1.583,10.052-3.165,20.103-4.748,30.155c-0.437,2.776,1.927,5.66,4.406,5.742c2.814,0.092,4.818-1.971,5.286-4.944         c1.582-10.052,3.165-20.103,4.748-30.155C100.827,354.045,98.462,351.161,95.983,351.079z"/>
						</g>
					</g>
					<g>
						<polygon style="fill:#00C257;" points="230.406,76.061 178.63,67.484 183.554,37.254 235.054,45.785 230.486,75.518       "/>
						<path d="M230.832,76.645l-52.782-8.743l5.086-31.23l52.494,8.695L230.832,76.645z M179.211,67.068l50.77,8.41l0.005-0.033        l4.492-29.242l-50.505-8.366L179.211,67.068z"/>
					</g>
					<g>
						<path style="fill:#AD2328;" d="M236.478,22.374l-47.927-7.956c-2.39-0.397-4.006-2.656-3.609-5.046l0.646-3.89        c0.397-2.39,2.656-4.006,5.046-3.609l47.927,7.956c2.39,0.397,4.006,2.656,3.609,5.046l-0.646,3.89        C241.127,21.155,238.868,22.771,236.478,22.374z"/>
						<path d="M237.199,22.939c-0.265,0-0.534-0.021-0.804-0.066l-47.927-7.956c-1.289-0.214-2.418-0.917-3.178-1.98        c-0.76-1.063-1.061-2.358-0.847-3.648l0.645-3.89c0.441-2.661,2.966-4.47,5.628-4.025l47.927,7.956        c1.289,0.214,2.418,0.917,3.178,1.98c0.76,1.063,1.061,2.358,0.847,3.648l-0.645,3.89        C241.626,21.239,239.547,22.939,237.199,22.939z M236.561,21.875c2.112,0.35,4.113-1.083,4.464-3.193l0.646-3.89        c0.17-1.022-0.069-2.05-0.672-2.893c-0.603-0.843-1.498-1.401-2.521-1.571l-47.927-7.956        c-2.106-0.343-4.113,1.083-4.464,3.193l-0.645,3.89c-0.17,1.022,0.069,2.05,0.672,2.893c0.603,0.843,1.498,1.401,2.521,1.571        L236.561,21.875z"/>
					</g>
					<g>
						<path style="fill:#00C257;" d="M187.053,390.481l-66.768-11.406c-13.319-2.275-22.272-14.917-19.996-28.236l20.14-117.895        l115,19.645l-20.14,117.896C213.013,383.804,200.372,392.756,187.053,390.481z"/>
						<path d="M191.225,391.343c-1.414,0-2.836-0.12-4.258-0.363L120.2,379.574c-6.575-1.124-12.319-4.74-16.174-10.183        c-3.855-5.443-5.359-12.062-4.236-18.637l20.226-118.394l0.499,0.085l115.499,19.73l-0.085,0.499l-20.14,117.895        c-1.123,6.575-4.74,12.319-10.183,16.174C201.338,389.765,196.349,391.342,191.225,391.343z M120.842,233.528l-20.055,117.396        c-1.078,6.309,0.366,12.659,4.064,17.882c3.699,5.223,9.21,8.692,15.519,9.77l66.768,11.406        c6.309,1.08,12.658-0.365,17.881-4.065c5.223-3.699,8.693-9.21,9.77-15.518l20.055-117.397L120.842,233.528z"/>
					</g>
				</g>
				<g>
					<g>
						<g>
							<g>
								<g>
									<path d="M208.359,301.235c0.743,0.381,1.334,0.971,1.922,1.577c0.521,0.652,1.022,1.36,1.334,2.161           c0.701,1.577,0.861,3.376,0.625,5.075c-0.222,1.723-0.971,3.272-1.805,4.699c-0.466,0.684-0.973,1.338-1.494,1.964           c-0.605,0.564-1.159,1.156-1.79,1.668l-0.078-0.065l1.429-1.906c0.424-0.67,0.834-1.35,1.231-2.035l0.497-1.079           c0.175-0.356,0.333-0.718,0.436-1.101l0.362-1.129l0.211-1.165c0.235-1.556,0.138-3.17-0.378-4.665           c-0.505-1.492-1.385-2.873-2.565-3.921L208.359,301.235z"/>
								</g>
								<g>
									<path d="M212.243,301.253c1.359,0.431,2.568,1.389,3.373,2.645c0.839,1.244,1.227,2.771,1.255,4.256           c0.039,1.505-0.39,2.927-0.92,4.25c-0.314,0.64-0.659,1.264-1.03,1.859c-0.451,0.554-0.847,1.126-1.333,1.634l-0.087-0.051           l0.938-1.81c0.268-0.623,0.513-1.257,0.759-1.888c0.368-1.298,0.726-2.627,0.661-3.983           c-0.007-1.344-0.303-2.696-0.945-3.885c-0.632-1.188-1.572-2.229-2.72-2.937L212.243,301.253z"/>
								</g>
							</g>
							<g>
								<g>
									<path d="M128.887,288.094c-1.412,0.766-2.569,1.798-3.493,2.935c-0.911,1.153-1.556,2.462-1.941,3.869l-0.278,1.065           c-0.049,0.368-0.085,0.738-0.148,1.106c-0.154,0.734-0.075,1.501-0.174,2.262c0.03,0.765,0.026,1.542,0.042,2.329           c0.033,0.788,0.123,1.572,0.111,2.396l-0.098,0.027l-0.538-2.329c-0.122-0.786-0.217-1.58-0.311-2.372           c-0.04-1.589-0.057-3.214,0.419-4.758c0.442-1.538,1.221-2.991,2.337-4.145c1.108-1.156,2.503-2.038,4.047-2.483           L128.887,288.094z"/>
								</g>
								<g>
									<path d="M125.334,286.46c-1.295,0.48-2.391,1.208-3.304,2.036c-0.902,0.846-1.603,1.846-2.107,2.966           c-0.571,1.095-0.804,2.358-1.124,3.616c-0.082,0.646-0.212,1.297-0.317,1.961c-0.102,0.668-0.146,1.342-0.299,2.038           l-0.101,0.01l-0.133-2.04c0-0.681,0.036-1.363,0.059-2.045c0.183-1.347,0.388-2.723,0.997-3.965           c0.581-1.24,1.439-2.364,2.546-3.18c1.101-0.819,2.407-1.358,3.777-1.498L125.334,286.46z"/>
								</g>
							</g>
						</g>
						<g id="XMLID_530_">
							<path style="fill:#FFFFFF;" d="M168.379,301.898c10.219,1.791,18.068-2.612,27.481-1.104         c5.284,0.846,10.248,2.813,9.667,9.251c-1.065,11.791-10.178,18.72-20.69,22.317c-13.578,4.646-28.354,2.488-40.44-5.194         c-10.18-6.471-20.363-16.63-16.346-30.162c1.838-6.191,6.871-6.501,12.139-5.563         C149.574,293.115,159.028,300.259,168.379,301.898z"/>
							<path d="M170.142,335.308c-8.988,0-17.996-2.614-26.018-7.713c-9.857-6.266-20.732-16.683-16.56-30.733         c2.045-6.888,7.869-6.782,12.713-5.917c4.751,0.846,9.562,3.095,14.213,5.27c4.601,2.151,9.359,4.376,13.975,5.185l0,0         c5.191,0.91,9.825,0.186,14.303-0.514c4.197-0.655,8.537-1.333,13.17-0.591c4.645,0.744,10.743,2.568,10.09,9.795         c-1.199,13.266-12.098,19.694-21.03,22.751C180.172,334.493,175.16,335.308,170.142,335.308z M136.229,291.542         c-3.36,0-6.383,1.19-7.695,5.608c-3.992,13.444,6.57,23.512,16.133,29.59c12.24,7.78,26.821,9.656,40.004,5.143         c8.649-2.96,19.201-9.159,20.351-21.884c0.445-4.926-2.406-7.61-9.243-8.706c-4.477-0.717-8.546-0.082-12.854,0.592         c-4.561,0.712-9.277,1.451-14.634,0.511l0,0c-4.748-0.832-9.568-3.086-14.229-5.265c-4.593-2.147-9.342-4.368-13.962-5.19         C138.811,291.712,137.496,291.542,136.229,291.542z"/>
						</g>
						<g>
							<g>
								<path d="M143.891,327.2c-0.368-5.89,0.095-11.798,1.376-17.561c1.137-5.11,2.911-10.06,5.272-14.712l0.902,0.458          c-2.323,4.577-4.068,9.447-5.186,14.474c-1.261,5.67-1.717,11.483-1.355,17.278L143.891,327.2z"/>
							</g>
							<g>
								<path d="M163.067,334.366c-0.585-5.871-0.399-11.802,0.554-17.63c0.844-5.157,2.287-10.214,4.29-15.032l0.935,0.389          c-1.973,4.745-3.395,9.727-4.226,14.807c-0.939,5.741-1.123,11.584-0.546,17.367L163.067,334.366z"/>
							</g>
							<g>
								<path d="M184.335,332.438c-0.767-5.115-0.901-10.326-0.399-15.488c0.549-5.642,1.852-11.185,3.874-16.476l0.945,0.361          c-1.989,5.207-3.272,10.661-3.813,16.212c-0.494,5.08-0.362,10.207,0.393,15.24L184.335,332.438z"/>
							</g>
						</g>
					</g>
					<g>
						<g>
							<g>
								<g>
									<path style="fill:#FFFFFF;" d="M184.958,263.012c-1.495,8.921-1.723,17.503-0.913,25.192           c7.972-1.965,17.823-2.311,28.129-0.579c9.503,1.583,17.902,4.669,24.346,8.561c3.637-7.536,6.462-16.364,8.051-25.91           c5.02-30.281-3.003-55.693-20.701-58.458C207.481,209.257,189.971,232.753,184.958,263.012z"/>
									<path d="M236.736,296.906l-0.476-0.288c-6.685-4.037-15.042-6.975-24.167-8.495c-9.82-1.65-19.736-1.448-27.925,0.571           l-0.564,0.139l-0.061-0.577c-0.84-7.977-0.523-16.735,0.917-25.329c5.145-31.056,22.869-54.208,39.49-51.611           c5.661,0.884,10.452,3.992,14.242,9.237c7.709,10.667,10.281,29.286,6.879,49.804c-1.542,9.265-4.341,18.272-8.094,26.047           L236.736,296.906z M199.024,286.007c4.324,0,8.79,0.372,13.235,1.119c9.033,1.505,17.333,4.385,24.045,8.341           c3.592-7.576,6.275-16.301,7.769-25.274c3.358-20.257,0.853-38.592-6.701-49.045c-3.626-5.018-8.195-7.989-13.579-8.83           c-15.807-2.474-33.367,20.783-38.336,50.777v0.001c-1.391,8.298-1.724,16.749-0.967,24.481           C188.948,286.532,193.886,286.007,199.024,286.007z"/>
								</g>
								<g>
									<path d="M222.918,221.616c8.239,0.615,13.603,15.105,13.142,31.872l-21.66,4.241l20.438,8.422           c-0.218,1.348-0.455,2.706-0.732,4.082c-1.582,7.82-3.943,15.121-6.771,21.416c-6.504-2.665-13.059-3.993-16.571-4.248           c-10.756-0.782-9.336-0.704-17.659-0.651c-0.112-6.193,0.691-12.029,1.879-19.392           C199.658,238.377,212.11,220.827,222.918,221.616z"/>
									<path d="M227.596,292.303l-0.453-0.186c-6.186-2.534-12.702-3.941-16.416-4.211l-1.125-0.082           c-8.593-0.626-8.592-0.626-14.392-0.583l-2.602,0.018l-0.009-0.5c-0.117-6.487,0.784-12.661,1.885-19.482           c4.457-27.629,16.446-47.05,28.472-46.167l0.001,0c8.249,0.615,14.101,14.54,13.61,32.39l-0.011,0.405l-20.406,3.996           l19.252,7.934l-0.064,0.396c-0.254,1.568-0.487,2.872-0.735,4.101c-1.535,7.587-3.888,15.03-6.806,21.524L227.596,292.303z            M198.213,286.214c3.201,0,4.62,0.104,11.462,0.602l1.124,0.081c3.703,0.27,10.119,1.64,16.271,4.1           c2.796-6.32,5.054-13.522,6.539-20.864c0.224-1.112,0.437-2.286,0.664-3.668l-21.622-8.91l22.913-4.486           c0.369-16.83-5.17-30.388-12.684-30.949c-0.23-0.017-0.463-0.025-0.695-0.025c-11.103,0-22.49,19.227-26.704,45.344           c-1.064,6.596-1.941,12.579-1.879,18.802l1.599-0.011C196.414,286.221,197.374,286.214,198.213,286.214z"/>
								</g>
								<g>
									<g>
										<path d="M247.375,275.184c-1.212,0-2.472-0.146-3.767-0.481l0.254-0.979c8.862,2.297,16.288-5.201,16.362-5.276            l0.727,0.705C260.676,269.434,254.992,275.184,247.375,275.184z"/>
									</g>
									<g>
										<path d="M246.041,250.692c-0.031,0-0.06,0-0.091-0.001l0.007-1.012c0.027,0,0.056,0,0.083,0            c9.505,0,13.323-10.562,13.36-10.669l0.955,0.335C260.315,239.459,256.268,250.692,246.041,250.692z"/>
									</g>
									<g>
										<path d="M246.749,263.214c-0.375,0-0.755-0.013-1.14-0.041l0.073-1.01c9.674,0.704,16.301-8.683,16.367-8.777l0.832,0.576            C262.611,254.354,256.367,263.214,246.749,263.214z"/>
									</g>
								</g>
							</g>
						</g>
						<g>
							<g>
								<g>
									<path style="fill:#FFFFFF;" d="M165.02,257.844c-1.126,8.975-3.369,17.262-6.35,24.395           c-7.074-4.169-16.411-7.326-26.782-8.622c-9.558-1.209-18.489-0.661-25.779,1.219c-1.323-8.263-1.497-17.53-0.282-27.13           c3.875-30.449,18.849-52.493,36.596-50.066C158.86,199.887,168.896,227.418,165.02,257.844z"/>
									<path d="M158.913,282.97l-0.5-0.294c-7.267-4.283-16.708-7.321-26.588-8.556c-9.179-1.161-18.027-0.744-25.589,1.207           l-0.538,0.139l-0.088-0.549c-1.365-8.527-1.463-17.958-0.284-27.274c2.626-20.632,10.429-37.731,20.874-45.74           c5.135-3.937,10.617-5.54,16.292-4.764c16.677,2.281,27.008,29.542,23.03,60.77v-0.001           c-1.084,8.645-3.292,17.127-6.385,24.528L158.913,282.97z M121.829,272.465c3.298,0,6.688,0.216,10.123,0.65           c9.786,1.223,19.16,4.199,26.472,8.396c2.942-7.191,5.047-15.382,6.094-23.73v-0.001           c3.842-30.159-6.307-57.47-22.163-59.639c-5.398-0.738-10.627,0.797-15.54,4.564           c-10.235,7.848-17.893,24.694-20.486,45.064c-1.142,9.022-1.074,18.151,0.194,26.44           C111.227,273.05,116.403,272.465,121.829,272.465z"/>
								</g>
								<g>
									<path d="M140.527,207.3c-8.069-1.774-17.363,10.569-21.731,26.765l19.534,10.275l-21.994,2.207           c-0.177,1.354-0.34,2.723-0.469,4.121c-0.727,7.946-0.559,15.617,0.345,22.458c6.995-0.687,13.655-0.08,17.093,0.683           c10.529,2.336,9.146,2.003,17.104,4.44c1.883-5.901,2.788-11.722,3.762-19.116           C158.003,230.028,151.107,209.644,140.527,207.3z"/>
									<path d="M150.739,278.879l-2.488-0.764c-5.543-1.704-5.543-1.704-13.955-3.569l-1.1-0.244           c-3.635-0.807-10.281-1.326-16.935-0.674l-0.487,0.048l-0.064-0.485c-0.933-7.057-1.053-14.862-0.347-22.571           c0.116-1.26,0.266-2.576,0.471-4.141l0.052-0.397l20.719-2.079l-18.404-9.68l0.105-0.391           c4.65-17.241,14.254-28.895,22.328-27.127h0.001c11.787,2.612,17.689,24.646,14.036,52.393           c-0.902,6.851-1.809,13.024-3.781,19.204L150.739,278.879z M122.459,272.322c4.43,0,8.41,0.428,10.955,0.992l1.1,0.244           c8.452,1.874,8.452,1.874,14.034,3.59l1.528,0.469c1.844-5.943,2.72-11.927,3.592-18.551           c1.789-13.584,1.291-26.279-1.402-35.748c-2.525-8.878-6.733-14.392-11.849-15.525           c-7.355-1.615-16.553,9.785-21.026,26.012l20.664,10.869l-23.269,2.335c-0.178,1.379-0.311,2.565-0.415,3.704           c-0.683,7.459-0.586,15.006,0.28,21.863C118.617,272.399,120.58,272.322,122.459,272.322z"/>
								</g>
								<g>
									<g>
										<path d="M105.481,252.223c-9.745-0.361-14.811-9.886-15.021-10.291l0.897-0.467c0.049,0.094,5.013,9.408,14.161,9.747            L105.481,252.223z"/>
									</g>
									<g>
										<path d="M110.123,228.55c-9.881-2.889-10.54-14.88-10.546-15.001l1.011-0.046c0.005,0.114,0.638,11.393,9.819,14.076            L110.123,228.55z"/>
									</g>
									<g>
										<path d="M106.871,240.604c-10.044-2.229-13.752-13.308-13.905-13.778l0.962-0.313c0.036,0.11,3.689,11.001,13.163,13.103            L106.871,240.604z"/>
									</g>
								</g>
							</g>
						</g>
					</g>
					<g>
						<path style="fill:#FFB500;" d="M179.634,288.718c-0.682,4.656-5.01,7.878-9.666,7.196s-7.878-5.009-7.196-9.666        c0.682-4.656,5.01-7.878,9.666-7.196C177.094,279.734,180.316,284.062,179.634,288.718z"/>
						<path d="M171.222,296.512c-0.44,0-0.884-0.032-1.327-0.097c-2.386-0.349-4.493-1.606-5.933-3.54        c-1.439-1.934-2.04-4.313-1.69-6.699c0.349-2.386,1.606-4.493,3.541-5.933c1.934-1.441,4.313-2.044,6.699-1.691        c2.386,0.349,4.493,1.607,5.933,3.541c1.44,1.934,2.04,4.313,1.691,6.699c-0.349,2.386-1.607,4.493-3.541,5.933        C175.019,295.896,173.149,296.512,171.222,296.512z M171.185,279.467c-1.711,0-3.371,0.547-4.769,1.588        c-1.717,1.279-2.834,3.149-3.144,5.267c-0.31,2.118,0.223,4.23,1.502,5.948c1.278,1.717,3.149,2.834,5.267,3.144        c2.12,0.309,4.23-0.224,5.948-1.501c1.717-1.278,2.834-3.149,3.145-5.267c0.31-2.118-0.223-4.23-1.502-5.948        c-1.279-1.717-3.149-2.834-5.268-3.145C171.97,279.495,171.577,279.467,171.185,279.467z"/>
					</g>
				</g>
			</g>
		</g>
		<g>
			<g>
				<g>
					<path style="fill:#AD2328;" d="M327.78,373.902c7.877,16.037,15.095,30.369,20.748,41.52       c6.177,12.176,20.191,17.846,32.661,13.155c28.273-10.594,74.514-31.567,98.763-44.902c8.963-4.951,12.379-16.347,7.797-25.768       c0,0-10.426-21.742-24.446-50.714c-13.252-27.329-29.706-61.123-43.613-89.096c-12.187-24.534-22.455-44.589-26.847-51.938       c-17.579-29.346-38.582-26.595-56.621-13.357l-22.944-49.506l-6.099-13.185l-7.261-15.649l-12.883-27.788l-7.309-15.776       l-5.126-11.077l-0.087-0.211l-47.165,21.76l4.717,10.422l4.078,9.028l3.593,7.94l12.407,27.404l0.223,0.502l34.861,77.013       c0,0-37.336,11.635-28.854,45.549c4.252,17.066,15.835,36.484,26.288,61.198C297.788,311.529,313.822,345.427,327.78,373.902z"/>
					<path d="M372.211,430.72c-9.855,0-19.33-5.598-24.135-15.069c-4.897-9.662-12.376-24.477-20.75-41.526v0       c-17.508-35.714-32.021-67.173-43.133-93.503c-3.873-9.157-7.831-17.438-11.658-25.446       c-6.421-13.437-11.967-25.042-14.654-35.827c-7.936-31.727,24.061-44.339,28.654-45.97L226.679,41.121l48.1-22.191l0.288,0.699       l61.355,132.402c10.64-7.672,20.754-10.61,30.077-8.729c9.994,2.016,19.003,9.618,26.778,22.597       c5.135,8.593,17.444,33.005,26.865,51.973c11.208,22.543,25.475,51.688,43.615,89.1c13.861,28.642,24.343,50.499,24.447,50.716       c4.73,9.726,1.213,21.336-8.008,26.43c-24.022,13.209-70.203,34.206-98.83,44.933       C378.364,430.181,375.269,430.72,372.211,430.72z M328.235,373.679c8.372,17.043,15.849,31.855,20.744,41.514       c6.062,11.948,19.829,17.5,32.033,12.911c28.591-10.714,74.711-31.682,98.696-44.872c8.749-4.833,12.081-15.86,7.586-25.104       c-0.105-0.22-10.587-22.075-24.446-50.715c-18.14-37.409-32.405-66.55-43.611-89.091       c-9.413-18.951-21.709-43.339-26.828-51.903c-7.622-12.724-16.406-20.169-26.109-22.125       c-9.176-1.851-19.194,1.149-29.777,8.916l-0.499,0.366L274.256,20.286l-46.242,21.333l59.909,132.372l-0.547,0.17       c-0.093,0.029-9.353,2.971-17.451,9.978c-10.805,9.348-14.527,21.112-11.062,34.966c2.662,10.686,8.188,22.248,14.586,35.636       c3.831,8.018,7.794,16.31,11.676,25.488C296.232,306.542,310.736,337.983,328.235,373.679L328.235,373.679z"/>
				</g>
				<g>
					<g>
						<g>
							<path style="fill:#FFFFFF;" d="M270.785,197.108c0.103-0.08,0.208-0.157,0.314-0.232c2.828-1.986,7.633-1.791,8.941,2.008         c1.23,3.573-1.888,6.417-2.94,9.522c-1.591,4.701,1.172,10.258,2.656,14.699c1.294,3.872,2.508,9.619-2.59,11.437         c-6.345,2.262-8.014-6.39-9.344-10.841c-1.641-5.491-2.983-11.471-1.996-17.198         C266.399,203.169,268.062,199.218,270.785,197.108z"/>
							<path style="fill:#FFFFFF;" d="M275.197,235.417c-0.779,0-1.511-0.175-2.188-0.526c-3.004-1.554-4.314-6.227-5.271-9.64         c-0.14-0.499-0.272-0.972-0.401-1.405c-1.573-5.261-3.042-11.445-2.012-17.429c0.551-3.19,2.192-7.416,5.149-9.709         l0.002-0.001c0.109-0.084,0.22-0.166,0.331-0.244c1.826-1.282,4.319-1.685,6.354-1.025c1.64,0.532,2.8,1.667,3.356,3.283         c0.913,2.654-0.342,4.876-1.557,7.026c-0.547,0.968-1.063,1.883-1.382,2.823c-1.253,3.701,0.356,8.064,1.776,11.914         c0.312,0.849,0.616,1.673,0.88,2.462c2.187,6.546,1.211,10.608-2.9,12.074C276.588,235.285,275.874,235.417,275.197,235.417z          M271.093,197.508c-2.728,2.116-4.253,6.078-4.771,9.081c-0.995,5.778,0.443,11.819,1.982,16.967         c0.132,0.438,0.266,0.917,0.407,1.422c0.906,3.233,2.148,7.662,4.761,9.014c1.022,0.529,2.174,0.553,3.521,0.073         c3.54-1.262,4.286-4.794,2.281-10.8c-0.261-0.78-0.561-1.595-0.871-2.433c-1.477-4.007-3.152-8.548-1.785-12.588         c0.35-1.031,0.914-2.03,1.46-2.997c1.154-2.044,2.245-3.975,1.48-6.199c-0.567-1.647-1.787-2.35-2.712-2.649         c-1.712-0.557-3.908-0.198-5.459,0.891C271.289,197.36,271.191,197.433,271.093,197.508z"/>
						</g>
					</g>
					<g>
						<path style="fill:#FFFFFF;" d="M455.887,325.322c2.685-0.847,5.171,0.6,6.422,3.338c4.231,9.254,8.462,18.508,12.693,27.762        c1.168,2.555-0.332,5.97-2.697,6.716c-2.685,0.847-5.171-0.6-6.422-3.338c-4.231-9.254-8.462-18.508-12.693-27.762        C452.021,329.482,453.521,326.068,455.887,325.322z"/>
					</g>
				</g>
				<g>
					<polygon style="fill:#71D2C4;" points="252.365,96.666 299.918,74.462 287.034,46.675 239.735,68.76 252.142,96.164      "/>
					<path d="M252.112,97.343l-0.433-0.974l-12.612-27.856l48.213-22.512l13.308,28.706L252.112,97.343z M240.402,69.007       l12.215,26.982l46.629-21.772l-12.458-26.869L240.402,69.007z"/>
				</g>
				<g>
					<path style="fill:#AD2328;" d="M232.059,46.597l44.013-20.569c2.195-1.026,3.143-3.636,2.117-5.831l-1.669-3.572       c-1.026-2.195-3.637-3.143-5.831-2.117l-44.013,20.569c-2.195,1.026-3.143,3.636-2.117,5.831l1.669,3.572       C227.253,46.675,229.864,47.623,232.059,46.597z"/>
					<path d="M230.209,47.516c-1.843,0-3.611-1.044-4.441-2.821l-1.669-3.572c-1.142-2.444-0.083-5.362,2.361-6.504l44.014-20.569       c1.184-0.554,2.514-0.612,3.741-0.167c1.227,0.446,2.209,1.343,2.762,2.527l1.67,3.572c1.143,2.444,0.083,5.362-2.361,6.504       l-44.013,20.569C231.605,47.368,230.902,47.516,230.209,47.516z M272.543,14.599c-0.56,0-1.118,0.123-1.642,0.367       l-44.013,20.569c-1.938,0.906-2.779,3.22-1.873,5.159l1.669,3.572c0.906,1.939,3.221,2.779,5.159,1.873l44.014-20.569       c1.938-0.906,2.778-3.22,1.873-5.159l-1.67-3.572c-0.44-0.939-1.218-1.651-2.191-2.005       C273.438,14.677,272.99,14.599,272.543,14.599z"/>
				</g>
				<g>
					<path style="fill:#71D2C4;" d="M378.793,387.793l61.229-28.966c12.214-5.778,17.431-20.364,11.653-32.578l-51.146-108.116       l-105.461,49.89l51.147,108.116C351.993,388.354,366.579,393.572,378.793,387.793z"/>
					<path d="M368.371,390.647c-9.361,0-18.351-5.283-22.612-14.291l-51.363-108.573L400.77,217.46l0.216,0.458l51.147,108.116       c2.852,6.03,3.186,12.809,0.94,19.089c-2.247,6.28-6.805,11.31-12.834,14.163l-61.229,28.966       C375.572,389.877,371.943,390.647,368.371,390.647z M295.743,268.266l50.93,107.658c5.649,11.941,19.963,17.062,31.904,11.412       l61.228-28.966c5.786-2.737,10.159-7.562,12.315-13.588c2.155-6.026,1.835-12.531-0.901-18.316l-50.931-107.658       L295.743,268.266z"/>
				</g>
			</g>
			<g>
				<g>
					<g>
						<g>
							<g>
								<path style="fill:#FFFFFF;" d="M336.793,252.493c7.182,16.387,7.554,33.086,2.029,43.426          c-2.161,4.029-5.205,7.08-9.112,8.785c-13.891,6.064-33.243-7.482-43.223-30.251c-9.979-22.769-6.809-46.147,7.082-52.21          c3.697-1.614,7.774-1.842,11.94-0.882C317.072,224.02,329.461,235.764,336.793,252.493z"/>
								<path d="M322.663,306.646c-13.011,0-28.196-12.729-36.638-31.99c-6.408-14.622-7.668-29.908-3.369-40.891          c2.258-5.769,5.962-9.913,10.712-11.987c3.715-1.623,7.838-1.93,12.256-0.911c12.066,2.775,24.482,15.109,31.634,31.423l0,0          c6.967,15.896,7.756,33.116,2.012,43.867c-2.289,4.269-5.437,7.3-9.355,9.011          C327.622,306.168,325.182,306.646,322.663,306.646z M300.666,221.293c-2.432,0-4.737,0.472-6.895,1.413          c-4.498,1.963-8.017,5.915-10.174,11.428c-4.203,10.738-2.949,25.734,3.354,40.116c9.853,22.48,28.944,35.934,42.557,29.991          c3.705-1.618,6.689-4.498,8.867-8.561c5.603-10.487,4.801-27.359-2.047-42.983c-7.026-16.031-19.168-28.137-30.933-30.843          C303.775,221.48,302.196,221.293,300.666,221.293z"/>
							</g>
						</g>
						<g>
							<path d="M306.156,229.329c-3.18-0.862-6.265-0.771-9.03,0.436c-10.391,4.538-12.266,23.168-4.189,41.608         c0.388,0.885,0.796,1.748,1.214,2.599l17.643-14.243l-12.284,23.177c8.189,11.27,18.881,17.13,26.869,13.641         c2.922-1.276,5.161-3.648,6.708-6.823c3.954-8.147,3.295-21.514-2.518-34.786         C324.634,241.391,314.979,231.717,306.156,229.329z"/>
							<path d="M321.404,298.067c-7.144,0-15.403-5.369-22.302-14.863l-0.185-0.255l11.274-21.274l-16.215,13.09l-0.279-0.568         c-0.421-0.858-0.833-1.728-1.224-2.619c-5.326-12.161-6.539-25.072-3.164-33.693c1.623-4.148,4.256-7.115,7.614-8.582         c2.81-1.228,5.962-1.383,9.365-0.46c9.234,2.499,18.947,12.663,24.744,25.895c5.734,13.092,6.696,26.584,2.51,35.21         c-1.653,3.395-3.995,5.771-6.961,7.066C324.955,297.722,323.214,298.067,321.404,298.067z M300.107,282.864         c8.199,11.151,18.646,16.463,26.07,13.22c2.738-1.195,4.91-3.409,6.455-6.581c3.999-8.239,3.007-21.727-2.527-34.361         c-5.679-12.962-15.131-22.903-24.081-25.325h-0.001c-3.176-0.861-6.1-0.722-8.695,0.412         c-3.105,1.356-5.553,4.131-7.076,8.023c-3.28,8.38-2.074,20.994,3.149,32.918c0.298,0.681,0.608,1.35,0.927,2.009         l19.07-15.395L300.107,282.864z"/>
						</g>
					</g>
					<g>
						<g>
							<g>
								<path style="fill:#FFFFFF;" d="M363.316,240.844c7.035,16.45,18.958,28.148,30.278,31.195          c4.417,1.181,8.725,1.049,12.641-0.633c13.927-5.98,17.292-29.362,7.516-52.219c-9.775-22.858-28.992-36.543-42.919-30.562          c-3.707,1.592-6.662,4.408-8.813,8.104C356.047,206.979,356.134,224.049,363.316,240.844z"/>
								<path d="M399.253,273.326c-1.867,0-3.8-0.266-5.79-0.798c-11.772-3.169-23.788-15.527-30.612-31.485v-0.001          c-7.003-16.376-7.501-33.871-1.27-44.569c2.28-3.917,5.326-6.714,9.052-8.314c4.762-2.046,10.319-1.91,16.07,0.391          c10.95,4.38,21.235,15.759,27.513,30.438c9.871,23.079,6.381,46.802-7.781,52.882          C404.177,272.84,401.776,273.326,399.253,273.326z M363.781,240.645c6.708,15.684,18.462,27.814,29.945,30.905          c4.451,1.19,8.594,0.986,12.311-0.609c13.649-5.861,16.901-28.988,7.25-51.555c-6.175-14.438-16.253-25.614-26.959-29.896          c-5.496-2.199-10.786-2.336-15.296-0.4c-3.522,1.513-6.406,4.168-8.575,7.894          C356.379,207.414,356.9,224.552,363.781,240.645L363.781,240.645z"/>
							</g>
						</g>
						<g>
							<path d="M367.388,202.652c1.547-2.909,3.724-5.096,6.497-6.286c10.42-4.473,25.288,6.908,33.208,25.417         c0.38,0.888,0.73,1.777,1.065,2.664l-22.459,3.12l25.307,6.902c2.614,13.683-0.429,25.49-8.438,28.928         c-2.93,1.258-6.192,1.267-9.565,0.223c-8.646-2.692-17.943-12.319-23.643-25.639         C363.54,224.38,363.092,210.72,367.388,202.652z"/>
							<path d="M397.711,264.882c-1.555,0-3.178-0.26-4.858-0.781c-9.155-2.85-18.336-12.783-23.959-25.923         c-5.683-13.281-6.449-27.32-1.952-35.765c1.655-3.111,3.925-5.303,6.744-6.513c3.366-1.445,7.331-1.336,11.469,0.319         c8.596,3.439,17.181,13.157,22.403,25.363c0.383,0.896,0.736,1.791,1.073,2.685l0.223,0.592l-20.64,2.868l23.228,6.335         l0.06,0.311c2.761,14.45-0.668,26.024-8.735,29.487C401.18,264.542,399.491,264.882,397.711,264.882z M378.733,195.905         c-1.648,0-3.21,0.308-4.648,0.925c-2.602,1.117-4.704,3.156-6.25,6.059l0,0c-4.357,8.185-3.577,21.88,1.989,34.891         c5.427,12.681,14.584,22.633,23.329,25.355c3.368,1.043,6.469,0.974,9.216-0.205c7.44-3.194,10.718-14.447,8.198-28.058         l-27.384-7.468l24.275-3.372c-0.263-0.684-0.538-1.367-0.83-2.052c-5.122-11.968-13.494-21.479-21.85-24.821         C382.689,196.324,380.653,195.905,378.733,195.905z"/>
						</g>
					</g>
				</g>
				<g>
					<g>
						<path d="M411.931,304.385c-0.021,0.05-0.049,0.083-0.071,0.132c-8.327,14.009-23.497,23.217-39.631,25.928        c-5.748,0.969-12.374,1.241-18.705,0.327c-9.868-1.393-18.991-5.692-22.82-14.811c-3.522-8.459,2.148-13.788,9.905-17.257        c6.849-3.054,15.348-4.668,20.576-5.655c4.525-0.886,8.948-2.053,13.053-4.201c6.642-3.432,11.468-9.229,17.869-12.923        c1.262-0.731,2.734-1.471,4.362-2.096c4.657-1.859,10.334-3.041,14.492-1.673C423.373,276.31,416.598,296.501,411.931,304.385        z"/>
						<path d="M361.61,331.834c-2.809,0-5.563-0.186-8.157-0.561c-8.178-1.154-18.846-4.714-23.215-15.116        c-3.114-7.48,0.307-13.506,10.165-17.915c6.934-3.092,15.544-4.719,20.689-5.691c3.7-0.725,8.517-1.852,12.913-4.152        c3.486-1.801,6.532-4.318,9.478-6.752c2.625-2.168,5.34-4.411,8.373-6.162c1.456-0.843,2.948-1.56,4.434-2.13        c2.705-1.08,9.575-3.411,14.832-1.681c3.134,1.049,5.306,3.146,6.457,6.235c2.981,8.004-1.598,20.613-5.194,26.705        l-0.055,0.098c-8.076,13.594-23.023,23.377-40.015,26.231C368.801,331.536,365.162,331.834,361.61,331.834z M406.836,272.07        c-2.97,0-6.494,0.758-10.179,2.229c-1.442,0.554-2.886,1.247-4.296,2.064c-2.961,1.708-5.643,3.923-8.235,6.065        c-2.986,2.467-6.075,5.019-9.655,6.869c-4.51,2.359-9.418,3.509-13.189,4.248c-5.104,0.964-13.642,2.578-20.467,5.621        c-9.392,4.2-12.547,9.63-9.645,16.601c4.185,9.962,14.504,13.387,22.424,14.504c5.775,0.833,12.361,0.718,18.551-0.325        c16.703-2.806,31.387-12.409,39.279-25.687l0.07-0.132c3.764-6.358,7.845-18.586,5.133-25.864        c-1.038-2.788-2.999-4.681-5.826-5.627C409.649,272.257,408.311,272.07,406.836,272.07z"/>
					</g>
					<g>
						<path style="fill:#FFB2B0;" d="M411.931,304.385c-0.021,0.05-0.049,0.083-0.071,0.132        c-8.327,14.009-23.497,23.217-39.631,25.928c-5.748,0.969-12.374,1.241-18.705,0.327        c2.333-10.411,10.819-20.562,23.255-26.184C389.263,298.926,402.523,299.233,411.931,304.385z"/>
						<path d="M361.61,331.834c-2.809,0-5.563-0.186-8.157-0.561l-0.541-0.078l0.119-0.534        c2.445-10.909,11.466-21.076,23.542-26.534c12.125-5.501,25.767-5.572,35.602-0.186l0.404,0.221l-0.25,0.55        c-8.076,13.594-23.023,23.377-40.015,26.231C368.801,331.536,365.162,331.834,361.61,331.834z M354.144,330.348        c5.641,0.749,12.008,0.61,18.002-0.401c16.566-2.783,31.146-12.252,39.084-25.362c-9.522-4.987-22.585-4.822-34.24,0.465        C365.396,310.29,356.693,319.946,354.144,330.348z"/>
					</g>
				</g>
				<g>
					<g>
						<path style="fill:#004421;" d="M372.53,270.601c1.832,4.172-0.34,9.16-4.852,11.142c-4.512,1.982-9.654,0.206-11.487-3.966        c-1.832-4.172,0.34-9.16,4.851-11.142C365.555,264.654,370.697,266.43,372.53,270.601z"/>
						<path d="M363.858,283.063c-1.05,0-2.094-0.171-3.093-0.517c-2.305-0.795-4.093-2.416-5.036-4.565        c-1.941-4.421,0.352-9.718,5.111-11.809c2.297-1.009,4.824-1.131,7.116-0.339c2.305,0.795,4.093,2.417,5.036,4.565l0,0        c1.941,4.42-0.351,9.718-5.111,11.809C366.585,282.776,365.216,283.063,363.858,283.063z M364.864,266.329        c-1.22,0-2.45,0.258-3.617,0.771c-4.248,1.866-6.309,6.565-4.592,10.475c0.829,1.887,2.406,3.313,4.44,4.016        c2.051,0.708,4.315,0.597,6.38-0.31c4.248-1.866,6.309-6.565,4.592-10.475l0,0c-0.829-1.887-2.406-3.313-4.44-4.016        C366.735,266.482,365.802,266.329,364.864,266.329z"/>
					</g>
				</g>
			</g>
		</g>
	</g>
</g>















</svg>
