<?xml version="1.0" encoding="UTF-8"?>
<!-- Generator: Adobe Illustrator 27.1.1, SVG Export Plug-In . SVG Version: 6.00 Build 0)  -->
<svg xmlns="http://www.w3.org/2000/svg" xmlns:xlink="http://www.w3.org/1999/xlink" version="1.1" id="Capa_1" x="0px" y="0px" viewBox="0 0 511.846 511.846" style="enable-background:new 0 0 511.846 511.846;" xml:space="preserve" width="512" height="512">
<g>
	<g>
		<polygon style="fill:#FFB2B0;" points="111.87,255.992 0.457,139.532 159.755,153.746 182.45,0.995 267.351,128.493 397.642,51.5     353.637,199.249 511.43,237.963 353.636,312.734 403.222,468.556 267.351,383.49 182.45,510.989 159.755,358.238 9.879,369.476       "/>
	</g>
	<g>
		<g>
			<path style="fill:#00C257;" d="M0.589,458.217c0-0.695,0.574-1.482,1.724-2.359c2.419-1.845,6.684-3.282,12.794-4.31     c3.176-0.514,6.67-0.772,10.481-0.772c9.074,0,15.94,1.755,20.598,5.263c4.084,3.086,6.125,7.139,6.125,12.159     c0,1.815-0.317,3.592-0.953,5.331c-0.635,1.74-1.543,3.048-2.722,3.925c-1.603-0.817-3.146-1.225-4.628-1.225     c-0.696,0-1.225,0.136-1.588,0.408c-0.363,0.272-0.545,0.771-0.545,1.497c4.446,0.181,7.909,1.785,10.39,4.809     c2.208,2.753,3.312,6.171,3.312,10.254c0,6.322-2.646,10.92-7.939,13.793c-4.961,2.693-12.432,4.038-22.413,4.038     c-6.987,0-12.114-0.22-15.38-0.658c-3.267-0.438-5.626-1.474-7.078-3.108c-1.452-1.633-2.177-4.113-2.177-7.441V458.217z      M25.224,475.685c0.121,0.091,0.469,0.136,1.044,0.136c0.574,0,1.013-0.227,1.315-0.68c0.302-0.454,0.454-1.195,0.454-2.223     v-0.272c0-1.089-0.129-1.867-0.386-2.337c-0.257-0.469-0.681-0.703-1.271-0.703c-0.59,0-0.991,0.061-1.202,0.182     c0.029,0.152,0.045,0.408,0.045,0.771V475.685z M25.224,492.79c0.121,0.091,0.469,0.136,1.044,0.136     c0.574,0,1.013-0.196,1.315-0.59c0.302-0.392,0.454-1.089,0.454-2.087v-0.862c0-1.119-0.129-1.92-0.386-2.405     c-0.257-0.483-0.681-0.726-1.271-0.726c-0.59,0-0.991,0.061-1.202,0.182c0.029,0.152,0.045,0.408,0.045,0.771V492.79z"/>
			<path d="M25.225,511.528c-6.974,0-12.17-0.223-15.447-0.662c-3.372-0.452-5.857-1.553-7.386-3.271     c-1.528-1.719-2.303-4.334-2.303-7.773v-41.605c0-0.868,0.628-1.77,1.92-2.756c2.474-1.886,6.853-3.369,13.015-4.406     c3.194-0.517,6.748-0.779,10.564-0.779c9.142,0,16.173,1.805,20.898,5.364c4.196,3.171,6.324,7.396,6.324,12.559     c0,1.867-0.331,3.718-0.983,5.503c-0.666,1.825-1.64,3.222-2.894,4.154l-0.249,0.185l-0.275-0.141     c-1.525-0.776-3.006-1.17-4.401-1.17c-0.581,0-1.015,0.104-1.289,0.309c-0.174,0.131-0.264,0.371-0.307,0.625     c4.33,0.289,7.773,1.957,10.24,4.964c2.273,2.834,3.425,6.39,3.425,10.571c0,6.49-2.759,11.278-8.201,14.232     C42.865,510.149,35.244,511.528,25.225,511.528z M25.588,451.276c-3.764,0-7.263,0.257-10.401,0.766     c-5.998,1.009-10.229,2.427-12.571,4.214c-1.262,0.963-1.526,1.599-1.526,1.961v41.605c0,3.186,0.69,5.579,2.051,7.109     c1.365,1.534,3.643,2.525,6.771,2.944c3.233,0.434,8.386,0.653,15.314,0.653c9.851,0,17.312-1.338,22.175-3.977     c5.166-2.805,7.678-7.173,7.678-13.354c0-3.948-1.077-7.292-3.201-9.941c-2.372-2.891-5.744-4.448-10.021-4.622l-0.479-0.02     v-0.48c0-0.888,0.25-1.526,0.743-1.897c0.452-0.338,1.087-0.509,1.889-0.509c1.465,0,3.001,0.382,4.567,1.137     c0.981-0.812,1.759-1.99,2.312-3.508c0.612-1.675,0.923-3.411,0.923-5.16c0-4.833-1.994-8.789-5.927-11.76     C41.336,453.013,34.508,451.276,25.588,451.276z M26.269,493.425c-0.856,0-1.157-0.095-1.346-0.237l-0.198-0.15v-5.83     c0-0.427-0.023-0.607-0.036-0.676l-0.067-0.351l0.31-0.178c0.295-0.169,0.756-0.248,1.451-0.248c0.775,0,1.367,0.343,1.712,0.991     c0.299,0.566,0.444,1.429,0.444,2.639v0.862c0,1.122-0.183,1.905-0.559,2.393C27.585,493.154,26.994,493.425,26.269,493.425z      M25.725,492.405c0.119,0.011,0.294,0.02,0.544,0.02c0.42,0,0.712-0.125,0.918-0.394c0.161-0.209,0.352-0.686,0.352-1.783v-0.862     c0-1.282-0.179-1.888-0.328-2.171c-0.168-0.317-0.424-0.459-0.828-0.459c-0.307,0-0.52,0.018-0.665,0.04     c0.005,0.121,0.008,0.258,0.008,0.413V492.405z M26.269,476.321c-0.856,0-1.157-0.095-1.346-0.237l-0.198-0.15v-5.376     c0-0.427-0.023-0.607-0.036-0.676l-0.067-0.352l0.311-0.178c0.295-0.169,0.756-0.247,1.45-0.247c0.772,0,1.364,0.333,1.709,0.963     c0.301,0.553,0.447,1.396,0.447,2.577v0.273c0,1.139-0.177,1.956-0.539,2.5C27.605,476.008,27.007,476.321,26.269,476.321z      M25.725,475.3c0.119,0.011,0.294,0.021,0.544,0.021c0.405,0,0.69-0.146,0.898-0.457c0.169-0.254,0.371-0.798,0.371-1.946v-0.273     c0-1.241-0.177-1.826-0.325-2.098c-0.167-0.306-0.424-0.442-0.831-0.442c-0.307,0-0.52,0.018-0.665,0.039     c0.005,0.121,0.008,0.259,0.008,0.413V475.3z"/>
		</g>
		<g>
			<path style="fill:#00C257;" d="M82.637,452.001h26.179c0.876,1.452,1.527,3.033,1.951,4.741c0.423,1.709,0.635,3.244,0.635,4.605     c0,3.055-0.598,5.354-1.792,6.896c-1.195,1.543-2.866,2.314-5.013,2.314H86.312c-1.119,0-1.678,0.439-1.678,1.316v0.363     c0,0.182,0.029,0.303,0.09,0.363h21.687c0.545,0.938,1.014,2.118,1.406,3.539c0.363,1.543,0.545,2.919,0.545,4.129     c0,3.6-0.665,6.413-1.996,8.439h-9.845c-4.598,0-7.714,0.175-9.347,0.522c-1.634,0.348-2.647,0.643-3.04,0.885     c-0.394,0.272-0.59,0.62-0.59,1.043c0,0.424,0.211,0.757,0.635,0.998c1.573-0.514,3.221-0.877,4.946-1.089     c2.269-0.211,4.734-0.318,7.396-0.318h12.749c1.845,2.601,2.767,5.732,2.767,9.392c0,2.057-0.257,4.023-0.771,5.898     c-0.514,1.876-1.285,3.388-2.314,4.537H74.969c-3.75,0-6.76-0.907-9.029-2.722c-2.481-1.936-3.72-4.779-3.72-8.53v-43.148     c0-1.452,1.662-2.511,4.991-3.176C70.538,452.334,75.68,452.001,82.637,452.001z"/>
			<path d="M109.175,511.075H74.969c-3.85,0-6.992-0.953-9.341-2.832c-2.591-2.022-3.907-5.024-3.907-8.92v-43.147     c0-1.742,1.764-2.941,5.393-3.666c3.344-0.669,8.567-1.008,15.523-1.008h26.462l0.146,0.242c0.898,1.488,1.573,3.13,2.008,4.879     c0.431,1.742,0.649,3.332,0.649,4.726c0,3.155-0.638,5.578-1.896,7.203c-1.289,1.664-3.109,2.507-5.409,2.507H86.312     c-1.178,0-1.178,0.531-1.178,0.816v0.226h21.565l0.145,0.249c0.563,0.971,1.054,2.201,1.456,3.656     c0.375,1.592,0.562,3.019,0.562,4.262c0,3.682-0.699,6.613-2.078,8.713l-0.148,0.226H96.52c-4.538,0-7.647,0.172-9.243,0.511     c-2.059,0.438-2.688,0.703-2.881,0.821c-0.309,0.215-0.351,0.444-0.351,0.618c0,0.137,0.029,0.292,0.213,0.448     c1.528-0.483,3.145-0.831,4.807-1.035c2.289-0.214,4.793-0.321,7.456-0.321h13.008l0.149,0.211     c1.897,2.676,2.859,5.933,2.859,9.681c0,2.09-0.266,4.119-0.789,6.03c-0.533,1.942-1.349,3.537-2.424,4.738L109.175,511.075z      M82.637,452.501c-6.891,0-12.048,0.332-15.328,0.989c-2.093,0.419-4.588,1.224-4.588,2.686v43.147     c0,3.572,1.187,6.309,3.527,8.136c2.172,1.737,5.104,2.616,8.721,2.616h33.755c0.9-1.066,1.593-2.468,2.06-4.169     c0.5-1.825,0.754-3.765,0.754-5.766c0-3.438-0.851-6.428-2.529-8.892H96.52c-2.632,0-5.104,0.106-7.349,0.316     c-1.669,0.205-3.301,0.564-4.837,1.066l-0.211,0.069l-0.192-0.109c-0.732-0.418-0.887-1.01-0.887-1.433     c0-0.587,0.278-1.09,0.804-1.455c0.307-0.19,0.948-0.479,3.221-0.963c1.664-0.354,4.844-0.533,9.451-0.533h9.57     c1.176-1.92,1.771-4.589,1.771-7.939c0-1.165-0.179-2.516-0.531-4.014c-0.341-1.232-0.75-2.296-1.213-3.153H84.517l-0.146-0.147     c-0.212-0.212-0.236-0.511-0.236-0.717v-0.363c0-0.546,0.212-1.816,2.178-1.816h18.285c2.002,0,3.513-0.693,4.618-2.12     c1.119-1.445,1.687-3.663,1.687-6.59c0-1.313-0.209-2.822-0.62-4.485c-0.387-1.558-0.975-3.024-1.75-4.362H82.637z"/>
		</g>
		<g>
			<path style="fill:#00C257;" d="M139.323,452.001h26.179c0.876,1.452,1.527,3.033,1.951,4.741     c0.423,1.709,0.635,3.244,0.635,4.605c0,3.055-0.597,5.354-1.792,6.896c-1.195,1.543-2.866,2.314-5.013,2.314h-18.285     c-1.119,0-1.678,0.439-1.678,1.316v0.363c0,0.182,0.029,0.303,0.09,0.363h21.687c0.545,0.938,1.014,2.118,1.406,3.539     c0.363,1.543,0.545,2.919,0.545,4.129c0,3.6-0.665,6.413-1.996,8.439h-9.845c-4.598,0-7.714,0.175-9.347,0.522     c-1.634,0.348-2.647,0.643-3.04,0.885c-0.394,0.272-0.59,0.62-0.59,1.043c0,0.424,0.211,0.757,0.635,0.998     c1.573-0.514,3.221-0.877,4.946-1.089c2.269-0.211,4.734-0.318,7.396-0.318h12.749c1.845,2.601,2.767,5.732,2.767,9.392     c0,2.057-0.257,4.023-0.771,5.898c-0.514,1.876-1.286,3.388-2.314,4.537h-33.982c-3.75,0-6.76-0.907-9.029-2.722     c-2.481-1.936-3.72-4.779-3.72-8.53v-43.148c0-1.452,1.662-2.511,4.991-3.176C127.224,452.334,132.366,452.001,139.323,452.001z"/>
			<path d="M165.861,511.075h-34.206c-3.85,0-6.992-0.953-9.341-2.832c-2.592-2.022-3.908-5.024-3.908-8.92v-43.147     c0-1.742,1.764-2.941,5.394-3.666c3.343-0.669,8.566-1.008,15.523-1.008h26.461l0.146,0.242c0.898,1.487,1.574,3.129,2.009,4.879     c0.431,1.742,0.649,3.332,0.649,4.726c0,3.154-0.638,5.577-1.896,7.203c-1.289,1.664-3.109,2.507-5.408,2.507h-18.285     c-1.178,0-1.178,0.531-1.178,0.816v0.226h21.565l0.145,0.249c0.565,0.976,1.055,2.206,1.455,3.657     c0.375,1.591,0.562,3.019,0.562,4.262c0,3.683-0.699,6.615-2.078,8.713l-0.148,0.226h-10.114c-4.538,0-7.648,0.172-9.243,0.511     c-2.059,0.438-2.688,0.703-2.881,0.821c-0.31,0.215-0.353,0.444-0.353,0.618c0,0.137,0.029,0.292,0.213,0.448     c1.53-0.483,3.145-0.831,4.808-1.035c2.289-0.214,4.793-0.321,7.456-0.321h13.008l0.149,0.211     c1.896,2.675,2.858,5.932,2.858,9.681c0,2.093-0.266,4.122-0.789,6.03c-0.532,1.941-1.347,3.536-2.423,4.738L165.861,511.075z      M139.323,452.501c-6.892,0-12.049,0.332-15.328,0.989c-2.093,0.419-4.589,1.224-4.589,2.686v43.147     c0,3.572,1.188,6.31,3.528,8.136c2.172,1.737,5.105,2.616,8.721,2.616h33.755c0.9-1.067,1.593-2.468,2.059-4.169     c0.5-1.822,0.754-3.762,0.754-5.766c0-3.438-0.851-6.428-2.528-8.892h-12.487c-2.632,0-5.105,0.106-7.349,0.316     c-1.668,0.205-3.301,0.564-4.838,1.066l-0.211,0.069l-0.192-0.109c-0.732-0.418-0.887-1.01-0.887-1.433     c0-0.588,0.278-1.091,0.806-1.455c0.306-0.19,0.947-0.479,3.22-0.963c1.664-0.354,4.844-0.533,9.451-0.533h9.57     c1.175-1.919,1.77-4.588,1.77-7.939c0-1.165-0.179-2.516-0.531-4.014c-0.339-1.229-0.747-2.293-1.212-3.153h-21.602l-0.146-0.147     c-0.212-0.212-0.236-0.511-0.236-0.717v-0.363c0-0.678,0.283-1.816,2.178-1.816h18.285c2.002,0,3.512-0.693,4.617-2.12     c1.12-1.446,1.688-3.663,1.688-6.59c0-1.313-0.209-2.822-0.62-4.485c-0.387-1.559-0.976-3.025-1.751-4.362H139.323z      M141.828,472.344L141.828,472.344L141.828,472.344z"/>
		</g>
		<g>
			<path style="fill:#00C257;" d="M224.366,488.615l7.849,8.031c-0.545,4.718-2.034,8.348-4.469,10.889     c-2.436,2.54-5.8,3.811-10.095,3.811c-3.237,0-6.05-0.772-8.439-2.314c-3.056-1.935-5.339-5.02-6.851-9.255l-1.633-4.447     c-1.271-0.029-2.874-0.196-4.809-0.499c-0.242,0.242-0.363,0.575-0.363,0.999c0,0.816,1.225,1.301,3.675,1.452l2.586,6.533v3.856     c-3.479,2.45-7.939,3.675-13.384,3.675c-3.902,0-7.018-0.802-9.347-2.405c-2.33-1.602-3.493-3.931-3.493-6.987v-43.103     c0-1.331,1.225-2.624,3.675-3.879c2.45-1.255,5.655-2.268,9.618-3.04c3.962-0.772,7.924-1.157,11.887-1.157     c9.074,0,16.166,1.861,21.279,5.581c5.383,3.901,8.076,9.392,8.076,16.47c0,4.053-1.142,7.524-3.426,10.412     c-2.283,2.889-5.165,4.893-8.643,6.012c0,0.968,0.582,1.452,1.747,1.452C220.971,490.702,222.49,490.007,224.366,488.615z      M200.955,478.271c0.121,0.091,0.468,0.136,1.043,0.136c0.575,0,1.014-0.227,1.316-0.681c0.302-0.454,0.454-1.195,0.454-2.224     v-1.633c0-1.089-0.13-1.867-0.386-2.336c-0.258-0.469-0.681-0.703-1.271-0.703c-0.59,0-0.991,0.061-1.202,0.181     c0.029,0.152,0.045,0.408,0.045,0.771V478.271z"/>
			<path d="M217.651,511.846c-3.319,0-6.25-0.805-8.711-2.394c-3.134-1.984-5.507-5.184-7.05-9.507l-1.516-4.125     c-1.158-0.046-2.579-0.197-4.232-0.448c-0.059,0.123-0.087,0.275-0.087,0.458c0,0.348,0.84,0.807,3.205,0.953l0.317,0.02     l2.738,7.013v4.116l-0.212,0.149c-3.549,2.5-8.148,3.767-13.672,3.767c-3.986,0-7.227-0.839-9.63-2.493     c-2.462-1.694-3.71-4.183-3.71-7.399v-43.102c0-1.549,1.291-2.963,3.946-4.324c2.483-1.271,5.764-2.309,9.751-3.085     c3.976-0.774,8.008-1.167,11.983-1.167c9.139,0,16.396,1.91,21.572,5.677c5.495,3.982,8.282,9.66,8.282,16.874     c0,4.149-1.189,7.757-3.533,10.722c-2.25,2.847-5.107,4.881-8.497,6.049c0.091,0.342,0.379,0.605,1.208,0.605     c1.05,0,2.484-0.669,4.263-1.989l0.351-0.26l8.32,8.513l-0.027,0.236c-0.555,4.807-2.104,8.567-4.605,11.178     C225.585,510.512,222.067,511.846,217.651,511.846z M195.745,494.298l0.251,0.039c1.909,0.299,3.505,0.465,4.744,0.493     l0.34,0.008l1.751,4.767c1.468,4.112,3.704,7.141,6.648,9.005c2.3,1.485,5.049,2.236,8.172,2.236c4.133,0,7.407-1.23,9.733-3.657     c2.307-2.407,3.755-5.893,4.306-10.365l-7.38-7.55c-1.818,1.297-3.295,1.929-4.505,1.929c-1.954,0-2.246-1.223-2.246-1.952     v-0.364l0.347-0.112c3.366-1.083,6.194-3.05,8.403-5.846c2.202-2.785,3.318-6.184,3.318-10.102     c0-6.876-2.648-12.281-7.869-16.065c-5.002-3.64-12.062-5.486-20.985-5.486c-3.912,0-7.879,0.386-11.792,1.148     c-3.896,0.758-7.087,1.766-9.486,2.994c-2.258,1.157-3.402,2.312-3.402,3.434v43.102c0,2.907,1.072,5.058,3.276,6.575     c2.233,1.538,5.283,2.317,9.064,2.317c5.203,0,9.536-1.156,12.884-3.437v-3.5l-2.435-6.151c-1.73-0.13-3.826-0.499-3.826-1.929     c0-0.558,0.171-1.013,0.51-1.352L195.745,494.298z M201.998,478.907c-0.855,0-1.155-0.095-1.345-0.238l-0.198-0.15v-6.736     c0-0.429-0.022-0.606-0.036-0.673l-0.07-0.354l0.312-0.179c0.295-0.169,0.756-0.247,1.45-0.247c0.77,0,1.362,0.332,1.709,0.961     c0.302,0.554,0.448,1.397,0.448,2.578v1.633c0,1.139-0.177,1.957-0.539,2.501C203.336,478.595,202.737,478.907,201.998,478.907z      M201.455,477.887c0.119,0.011,0.293,0.021,0.543,0.021c0.405,0,0.691-0.146,0.899-0.458c0.169-0.254,0.371-0.798,0.371-1.946     v-1.633c0-1.241-0.177-1.825-0.325-2.097c-0.168-0.305-0.425-0.442-0.832-0.442c-0.307,0-0.519,0.018-0.665,0.039     c0.006,0.121,0.009,0.259,0.009,0.414V477.887z"/>
		</g>
		<g>
			<path style="fill:#00C257;" d="M303.03,475.186v31.896c-1.392,1.21-3.252,2.223-5.581,3.04c-2.33,0.816-5.158,1.225-8.484,1.225     c-3.327,0-6.155-0.742-8.485-2.224c-2.631-1.603-3.947-3.871-3.947-6.806v-29.219h-10.571c-2.178-3.115-3.267-6.518-3.267-10.208     c0-2.511,0.4-4.696,1.202-6.556c0.801-1.86,1.792-3.304,2.971-4.333h46.914c0.877,1.361,1.603,3.01,2.178,4.946     c0.574,1.936,0.861,3.856,0.861,5.762c0,3.569-0.787,6.193-2.359,7.872c-1.573,1.679-3.691,2.518-6.352,2.518h-13.294     c-0.09,0.212-0.135,0.439-0.135,0.681c0,0.544,0.317,0.907,0.953,1.089c0.664,0.212,2.086,0.317,4.265,0.317H303.03z"/>
			<path d="M288.965,511.846c-3.407,0-6.352-0.774-8.753-2.301c-2.77-1.688-4.179-4.121-4.179-7.227v-28.719h-10.332l-0.149-0.213     c-2.227-3.186-3.356-6.716-3.356-10.495c0-2.568,0.418-4.84,1.243-6.754c0.826-1.919,1.87-3.438,3.102-4.512l0.142-0.123h47.373     l0.147,0.229c0.898,1.392,1.651,3.099,2.238,5.074c0.585,1.974,0.882,3.96,0.882,5.904c0,3.683-0.839,6.446-2.493,8.214     c-1.664,1.775-3.925,2.676-6.718,2.676h-12.918c-0.008,0.059-0.012,0.119-0.012,0.181c0,0.228,0.071,0.46,0.591,0.608     c0.435,0.139,1.488,0.298,4.127,0.298h3.63v32.624l-0.172,0.149c-1.432,1.245-3.363,2.299-5.742,3.134     C295.242,511.424,292.332,511.846,288.965,511.846z M266.225,472.598h10.808v29.719c0,2.772,1.213,4.858,3.707,6.379     c2.246,1.428,5.011,2.15,8.225,2.15c3.254,0,6.053-0.403,8.319-1.197c2.163-0.759,3.927-1.7,5.245-2.799v-31.165h-2.63     c-2.253,0-3.697-0.111-4.417-0.341c-1.13-0.323-1.301-1.12-1.301-1.565c0-0.306,0.059-0.601,0.175-0.876l0.13-0.305h13.625     c2.541,0,4.5-0.772,5.987-2.359c1.476-1.576,2.224-4.11,2.224-7.53c0-1.848-0.283-3.739-0.841-5.62     c-0.527-1.776-1.191-3.318-1.975-4.588H267.06c-1.06,0.969-1.968,2.324-2.703,4.031c-0.77,1.788-1.161,3.927-1.161,6.358     C263.195,466.376,264.214,469.64,266.225,472.598z"/>
		</g>
		<g>
			<path style="fill:#00C257;" d="M349.735,460.213v46.868c-1.391,1.21-3.252,2.223-5.581,3.04     c-2.329,0.816-5.158,1.225-8.485,1.225c-3.328,0-6.156-0.742-8.484-2.224c-2.632-1.603-3.947-3.871-3.947-6.806v-46.868     c1.39-1.209,3.251-2.223,5.581-3.039c2.329-0.817,5.142-1.225,8.439-1.225c3.296,0,6.155,0.726,8.574,2.177     C348.434,455.026,349.735,457.31,349.735,460.213z"/>
			<path d="M335.67,511.846c-3.407,0-6.352-0.774-8.753-2.301c-2.77-1.686-4.178-4.12-4.178-7.227v-47.096l0.172-0.15     c1.433-1.246,3.365-2.3,5.743-3.134c2.371-0.832,5.266-1.253,8.604-1.253c3.373,0,6.345,0.756,8.831,2.249     c2.755,1.762,4.146,4.209,4.146,7.28v47.096l-0.172,0.149c-1.433,1.245-3.365,2.3-5.742,3.134     C341.947,511.424,339.037,511.846,335.67,511.846z M323.739,455.68v46.637c0,2.773,1.212,4.859,3.706,6.378     c2.246,1.429,5.011,2.15,8.225,2.15c3.254,0,6.053-0.403,8.32-1.197c2.162-0.759,3.926-1.7,5.245-2.799v-46.637     c0-2.746-1.201-4.85-3.672-6.43c-2.317-1.39-5.115-2.099-8.305-2.099c-3.226,0-6.01,0.403-8.274,1.197     C326.822,453.64,325.059,454.581,323.739,455.68z"/>
		</g>
		<g>
			<path style="fill:#00C257;" d="M407.646,511.346c-4.144,0-7.396-0.681-9.755-2.042c-2.54-1.421-3.917-3.433-4.128-6.034     l-0.409-4.265c2.783-0.665,5.127-2.389,7.033-5.172c0.514-0.786,0.771-1.467,0.771-2.042c0-0.786-0.393-1.18-1.179-1.18h-0.136     c-0.031,0.03-0.09,0.046-0.182,0.046c-2.118,4.446-5.55,6.669-10.298,6.669c-2.421,0-4.485-0.529-6.194-1.588     c-1.709-1.059-3.275-2.888-4.695-5.49H378.2c-0.816,0-1.225,0.348-1.225,1.044c0,0.484,0.181,1.029,0.545,1.633     c1.209,2.027,2.722,3.615,4.536,4.764c1.422,0.969,2.919,1.542,4.492,1.724l-0.363,8.575c-1.814,1.18-3.728,2.035-5.74,2.564     s-4.87,0.794-8.575,0.794c-3.705,0-7.009-0.726-9.913-2.178c-3.57-1.784-5.354-4.265-5.354-7.441     c0-3.962,0.786-13.747,2.359-29.355c0.847-8.136,1.527-13.823,2.042-17.059c3.115-2.782,7.713-4.174,13.793-4.174     c4.416,0,8.076,0.817,10.979,2.45l2.495,8.348l-1.588,6.67c-0.122,0.453-0.182,0.893-0.182,1.315     c0,1.059,0.604,1.604,1.814,1.633l4.311-17.921c1.239-0.665,2.858-1.248,4.854-1.747c1.996-0.499,4.174-0.749,6.533-0.749     c4.416,0,7.69,0.749,9.823,2.246c2.132,1.497,3.395,4.015,3.789,7.554c0.091,0.665,0.227,1.769,0.408,3.312     c2.753,23.654,4.129,37.583,4.129,41.786C418.807,509.577,413.968,511.346,407.646,511.346z"/>
			<path d="M407.646,511.846c-4.215,0-7.58-0.71-10.005-2.109c-2.679-1.498-4.153-3.662-4.377-6.427l-0.45-4.69l0.423-0.101     c2.647-0.632,4.913-2.304,6.737-4.968c0.451-0.691,0.683-1.286,0.683-1.76c0-0.502-0.168-0.675-0.663-0.679     c-2.208,4.456-5.783,6.715-10.633,6.715c-2.504,0-4.677-0.56-6.458-1.663c-1.718-1.064-3.307-2.886-4.727-5.416     c-0.702,0.006-0.702,0.304-0.702,0.543c0,0.39,0.159,0.853,0.474,1.376c1.163,1.95,2.635,3.497,4.375,4.599     c1.36,0.926,2.796,1.478,4.282,1.65l0.462,0.053l-0.395,9.297l-0.216,0.14c-1.85,1.204-3.83,2.088-5.885,2.628     c-2.046,0.538-4.974,0.811-8.702,0.811c-3.766,0-7.177-0.75-10.137-2.23c-3.735-1.867-5.63-4.521-5.63-7.888     c0-3.96,0.794-13.854,2.361-29.405c0.847-8.127,1.534-13.875,2.045-17.087l0.028-0.176l0.133-0.119     c3.195-2.854,7.948-4.301,14.126-4.301c4.482,0,8.259,0.846,11.225,2.515l0.176,0.099l2.592,8.671l-1.618,6.8     c-0.112,0.42-0.168,0.818-0.168,1.2c0,0.499,0.122,0.969,0.929,1.099l4.263-17.722l0.197-0.105     c1.272-0.682,2.943-1.285,4.97-1.791c2.026-0.507,4.265-0.764,6.654-0.764c4.501,0,7.902,0.786,10.109,2.337     c2.245,1.575,3.591,4.236,3.999,7.908c0.09,0.654,0.226,1.761,0.407,3.308c2.742,23.569,4.133,37.648,4.133,41.845v0.199     l-0.138,0.145C419.088,510.008,414.081,511.846,407.646,511.846z M393.892,499.382l0.369,3.84     c0.198,2.454,1.466,4.298,3.875,5.646c2.276,1.314,5.475,1.978,9.511,1.978c6.062,0,10.777-1.685,14.018-5.009     c-0.042-4.396-1.43-18.363-4.125-41.529c-0.181-1.537-0.316-2.638-0.406-3.301c-0.377-3.387-1.581-5.81-3.581-7.213     c-2.036-1.43-5.244-2.155-9.535-2.155c-2.308,0-4.465,0.247-6.412,0.733c-1.841,0.46-3.368,0.998-4.543,1.599l-4.352,18.094     l-0.403-0.01c-2.004-0.049-2.303-1.357-2.303-2.133c0-0.469,0.066-0.955,0.199-1.445l1.552-6.525l-2.398-8.024     c-2.788-1.519-6.339-2.289-10.559-2.289c-5.839,0-10.321,1.322-13.327,3.93c-0.505,3.227-1.182,8.896-2.011,16.855     c-1.562,15.517-2.355,25.377-2.355,29.303c0,2.999,1.661,5.286,5.077,6.994c2.82,1.41,6.08,2.125,9.689,2.125     c3.643,0,6.485-0.262,8.448-0.777c1.871-0.493,3.68-1.287,5.378-2.361l0.333-7.862c-1.483-0.243-2.913-0.829-4.255-1.743     c-1.859-1.177-3.44-2.836-4.685-4.921c-0.408-0.679-0.615-1.315-0.615-1.89c0-0.981,0.629-1.543,1.725-1.543h0.569l0.142,0.26     c1.372,2.512,2.893,4.297,4.521,5.305c1.62,1.004,3.616,1.513,5.931,1.513c4.58,0,7.801-2.088,9.847-6.384l0.136-0.285     l0.634-0.045c1.067,0,1.68,0.612,1.68,1.679c0,0.682-0.279,1.439-0.853,2.316C398.928,496.85,396.605,498.62,393.892,499.382z"/>
		</g>
		<g>
			<path style="fill:#00C257;" d="M449.451,452.001h26.179c0.876,1.452,1.527,3.033,1.951,4.741     c0.423,1.709,0.635,3.244,0.635,4.605c0,3.055-0.598,5.354-1.792,6.896c-1.195,1.543-2.866,2.314-5.013,2.314h-18.285     c-1.119,0-1.678,0.439-1.678,1.316v0.363c0,0.182,0.029,0.303,0.09,0.363h21.687c0.545,0.938,1.014,2.118,1.406,3.539     c0.363,1.543,0.545,2.919,0.545,4.129c0,3.6-0.665,6.413-1.996,8.439h-9.845c-4.598,0-7.714,0.175-9.347,0.522     c-1.634,0.348-2.648,0.643-3.04,0.885c-0.393,0.272-0.59,0.62-0.59,1.043c0,0.424,0.211,0.757,0.635,0.998     c1.573-0.514,3.221-0.877,4.946-1.089c2.269-0.211,4.734-0.318,7.396-0.318h12.749c1.845,2.601,2.767,5.732,2.767,9.392     c0,2.057-0.257,4.023-0.771,5.898c-0.514,1.876-1.285,3.388-2.314,4.537h-33.982c-3.75,0-6.76-0.907-9.029-2.722     c-2.481-1.936-3.72-4.779-3.72-8.53v-43.148c0-1.452,1.662-2.511,4.991-3.176C437.352,452.334,442.494,452.001,449.451,452.001z"/>
			<path d="M475.99,511.075h-34.206c-3.85,0-6.993-0.953-9.342-2.832c-2.591-2.022-3.907-5.024-3.907-8.92v-43.147     c0-1.742,1.764-2.941,5.393-3.666c3.344-0.669,8.567-1.008,15.523-1.008h26.462l0.146,0.242c0.898,1.488,1.573,3.13,2.008,4.879     c0.432,1.74,0.65,3.33,0.65,4.726c0,3.154-0.638,5.577-1.896,7.203c-1.289,1.664-3.109,2.507-5.409,2.507h-18.285     c-1.178,0-1.178,0.531-1.178,0.816v0.226h21.565l0.144,0.249c0.564,0.971,1.054,2.201,1.456,3.656     c0.375,1.592,0.562,3.019,0.562,4.262c0,3.682-0.699,6.613-2.078,8.713l-0.148,0.226h-10.115c-4.537,0-7.647,0.172-9.243,0.511     c-2.059,0.438-2.688,0.702-2.88,0.821c-0.31,0.215-0.353,0.444-0.353,0.618c0,0.137,0.029,0.292,0.213,0.448     c1.529-0.483,3.145-0.831,4.807-1.035c2.289-0.214,4.793-0.321,7.456-0.321h13.008l0.149,0.211     c1.897,2.676,2.859,5.933,2.859,9.681c0,2.09-0.266,4.119-0.789,6.03c-0.533,1.943-1.349,3.538-2.423,4.738L475.99,511.075z      M449.451,452.501c-6.891,0-12.048,0.332-15.328,0.989c-2.093,0.419-4.588,1.224-4.588,2.686v43.147     c0,3.572,1.186,6.309,3.527,8.136c2.172,1.737,5.104,2.616,8.722,2.616h33.755c0.899-1.065,1.592-2.467,2.059-4.169     c0.5-1.825,0.754-3.765,0.754-5.766c0-3.438-0.851-6.428-2.529-8.892h-12.487c-2.632,0-5.104,0.106-7.349,0.316     c-1.668,0.205-3.3,0.564-4.837,1.066l-0.211,0.069l-0.192-0.109c-0.732-0.418-0.887-1.01-0.887-1.433     c0-0.588,0.278-1.091,0.806-1.455c0.305-0.189,0.945-0.479,3.219-0.963c1.665-0.354,4.845-0.533,9.451-0.533h9.57     c1.176-1.92,1.772-4.589,1.772-7.939c0-1.165-0.179-2.516-0.531-4.014c-0.341-1.232-0.75-2.296-1.213-3.153h-21.602l-0.146-0.147     c-0.212-0.212-0.236-0.511-0.236-0.717v-0.363c0-0.546,0.212-1.816,2.178-1.816h18.285c2.002,0,3.513-0.693,4.618-2.12     c1.12-1.446,1.688-3.663,1.688-6.59c0-1.314-0.209-2.823-0.621-4.484c-0.387-1.559-0.975-3.024-1.75-4.362H449.451z"/>
		</g>
		<g>
			<path style="fill:#00C257;" d="M504.368,483.988c-1.573-0.695-2.965-1.044-4.174-1.044c-1.21,0-1.815,0.56-1.815,1.679v0.182     c3.448,0.242,6.367,1.626,8.757,4.151c2.389,2.526,3.585,5.551,3.585,9.074c0,3.524-1.286,6.572-3.856,9.142     c-2.602,2.54-5.702,3.811-9.301,3.811s-6.678-1.278-9.233-3.834c-2.556-2.556-3.834-5.618-3.834-9.188     c0-2.42,0.612-4.651,1.838-6.692c1.225-2.042,2.851-3.652,4.877-4.832c-1.814-3.146-3.267-6.76-4.356-10.844     c-1.088-4.083-1.633-8.318-1.633-12.703V448.1c1.27-0.908,2.918-1.649,4.946-2.224c2.025-0.574,4.083-0.862,6.17-0.862     c4.536,0,7.811,1.142,9.823,3.426c2.012,2.284,3.017,6.133,3.017,11.547v2.904C509.178,469.877,507.574,476.91,504.368,483.988z"/>
			<path d="M497.562,511.483c-3.721,0-6.946-1.339-9.587-3.98c-2.642-2.641-3.98-5.851-3.98-9.541c0-2.501,0.643-4.839,1.909-6.95     c1.178-1.961,2.733-3.557,4.631-4.75c-1.718-3.075-3.118-6.619-4.164-10.54c-1.095-4.108-1.649-8.426-1.649-12.833v-15.048     l0.209-0.149c1.311-0.937,3.026-1.71,5.1-2.298c2.062-0.585,4.185-0.881,6.308-0.881c4.665,0,8.096,1.209,10.197,3.595     c2.085,2.368,3.143,6.364,3.143,11.878v2.903c0,7.025-1.633,14.193-4.855,21.304l-0.204,0.451l-0.453-0.2     c-1.503-0.665-2.84-1.002-3.972-1.002c-0.824,0-1.218,0.266-1.299,0.903c3.355,0.343,6.248,1.776,8.604,4.265     c2.469,2.611,3.721,5.78,3.721,9.419c0,3.645-1.347,6.839-4.003,9.495C504.526,510.153,501.279,511.483,497.562,511.483z      M485.722,448.361v14.529c0,4.32,0.544,8.55,1.616,12.575c1.071,4.019,2.52,7.627,4.306,10.724l0.248,0.431l-0.43,0.25     c-1.942,1.131-3.524,2.698-4.7,4.657c-1.172,1.953-1.767,4.118-1.767,6.435c0,3.415,1.24,6.387,3.688,8.834     c2.446,2.447,5.434,3.688,8.88,3.688c3.446,0,6.458-1.234,8.951-3.669c2.458-2.458,3.706-5.414,3.706-8.784     c0-3.375-1.16-6.312-3.447-8.731c-2.29-2.419-5.126-3.764-8.429-3.996l-0.465-0.032v-0.648c0-1.405,0.822-2.179,2.316-2.179     c1.152,0,2.469,0.3,3.918,0.892c3.029-6.834,4.566-13.71,4.566-20.446v-2.903c0-5.264-0.974-9.038-2.893-11.217     c-1.904-2.161-5.082-3.256-9.447-3.256c-2.03,0-4.061,0.284-6.034,0.843C488.451,446.882,486.912,447.556,485.722,448.361z"/>
		</g>
	</g>
	<g>
		<g>
			<g>
				<g>
					<g>
						<path style="fill:#FFB500;" d="M247.997,84.639c1.943,41.613,4.807,78.268,8.981,123.382        c3.942,42.613,8.691,83.532,14.023,122.654c-58.18,6.034-116.36,12.068-174.54,18.101        c-2.265-41.431-5.674-84.963-10.538-130.366c-4.571-42.672-9.067-78.302-15.147-116.983        C130.15,95.27,188.622,90.797,247.997,84.639z"/>
						<path d="M95.989,349.328l-0.028-0.524c-2.37-43.349-5.914-87.202-10.536-130.34c-4.861-45.378-9.39-80.356-15.144-116.959        l-0.082-0.521l0.524-0.055c29.69-3.079,59.646-5.781,88.615-8.394c28.968-2.613,58.921-5.315,88.605-8.394l0.526-0.054        l0.025,0.528c1.762,37.717,4.363,73.457,8.98,123.36c3.772,40.788,8.489,82.048,14.02,122.632l0.07,0.511l-0.514,0.054        L95.989,349.328z M71.352,101.87c5.717,36.431,10.228,71.309,15.067,116.487c4.605,42.982,8.142,86.672,10.512,129.868        l173.504-17.994c-5.502-40.433-10.196-81.532-13.955-122.163c-4.597-49.684-7.196-85.338-8.958-122.877        c-29.518,3.057-59.294,5.743-88.093,8.34C130.632,96.129,100.863,98.815,71.352,101.87z"/>
					</g>
					<g>
						<path style="fill:#FFB500;" d="M283.272,345.541c-0.21-1.976-0.966-7.855-3.697-12.963c-3.779-7.069-8.327-7.101-9.039-6.979        c-65.207,11.181-115.504,16.398-174.54,18.101c-0.789,0.023-5.021,1.207-7.518,8.696c-2.055,6.164-1.642,12.843-1.487,14.776        c32.636-1.268,66.831-3.746,102.414-7.77C222.131,355.701,253.447,350.985,283.272,345.541z"/>
						<path d="M86.532,367.69l-0.038-0.478c-0.253-3.143-0.393-9.267,1.51-14.974c2.885-8.65,7.928-9.037,7.978-9.038        c58.883-1.699,109.43-6.941,174.47-18.094c0.054-0.007,5.269-0.799,9.565,7.236c2.558,4.785,3.448,10.29,3.752,13.147        l0.049,0.461l-0.456,0.083c-31.037,5.665-62.63,10.33-93.899,13.866c-33.893,3.833-68.361,6.448-102.45,7.772L86.532,367.69z         M270.886,326.078c-0.166,0-0.259,0.012-0.265,0.013c-65.09,11.162-115.678,16.408-174.61,18.109        c-0.043,0.001-4.432,0.479-7.058,8.354c-1.755,5.263-1.718,10.918-1.498,14.099c33.907-1.329,68.186-3.936,101.894-7.747        c31.094-3.516,62.507-8.15,93.374-13.772c-0.34-2.885-1.241-7.928-3.589-12.319        C275.775,326.531,271.917,326.078,270.886,326.078z"/>
					</g>
					<g>
						<path style="fill:#FFB500;" d="M18.951,146.706l50.337-5.22c1.125-3.438,3.184-5.807,5.728-6.071        c4.312-0.447,8.365,5.295,9.052,12.826c0.687,7.531-2.251,13.998-6.563,14.445c-2.555,0.265-5.013-1.654-6.74-4.819        l-34.314,3.559c-10.947,1.135-19.017,11.773-17.934,23.638l9.111,99.817c1.083,11.866,10.926,20.645,21.872,19.51        l37.839-3.924c1.179-2.868,3.067-4.797,5.346-5.033c4.312-0.447,8.365,5.295,9.052,12.826        c0.687,7.531-2.251,13.998-6.563,14.445c-2.583,0.268-5.067-1.695-6.796-4.923l-53.309,5.529        c-10.947,1.135-20.789-7.644-21.872-19.51L1.018,170.344C-0.066,158.478,8.005,147.841,18.951,146.706z"/>
						<path d="M33.17,323.908c-4.461,0-8.81-1.581-12.42-4.551c-4.559-3.748-7.492-9.402-8.05-15.512L0.52,170.39        c-1.11-12.167,7.135-23.015,18.38-24.182l50.017-5.187c1.262-3.616,3.454-5.835,6.048-6.104        c1.499-0.152,3.022,0.366,4.41,1.507c2.745,2.257,4.734,6.768,5.191,11.771c0.711,7.79-2.434,14.513-7.009,14.988        c-2.611,0.269-5.172-1.471-7.068-4.786l-33.985,3.525c-10.704,1.11-18.55,11.47-17.488,23.095l9.111,99.817        c0.533,5.846,3.336,11.251,7.688,14.831c3.928,3.229,8.766,4.734,13.634,4.227l37.546-3.894        c1.302-2.986,3.346-4.826,5.64-5.064c1.501-0.151,3.024,0.366,4.411,1.507c2.745,2.258,4.734,6.768,5.191,11.771        c0.711,7.79-2.434,14.513-7.01,14.988c-2.647,0.266-5.224-1.504-7.126-4.889l-52.978,5.494        C34.471,323.874,33.819,323.908,33.17,323.908z M18.951,146.706l0.052,0.497c-10.704,1.11-18.549,11.471-17.487,23.096        l12.181,133.455c0.533,5.846,3.336,11.252,7.688,14.831c3.929,3.231,8.771,4.736,13.635,4.228l53.643-5.562l0.158,0.295        c1.689,3.154,4.052,4.899,6.304,4.662c4.035-0.418,6.779-6.655,6.117-13.902c-0.434-4.746-2.284-8.996-4.83-11.089        c-1.178-0.968-2.456-1.415-3.673-1.284c-1.987,0.206-3.785,1.928-4.935,4.726l-0.114,0.276l-0.297,0.031l-37.84,3.924        c-5.132,0.528-10.236-1.048-14.372-4.45c-4.558-3.748-7.492-9.402-8.05-15.513l-9.111-99.817        c-1.11-12.167,7.135-23.015,18.381-24.181l34.645-3.593l0.159,0.292c1.684,3.087,4.027,4.794,6.25,4.561        c4.034-0.419,6.778-6.655,6.116-13.902c-0.434-4.747-2.284-8.996-4.83-11.09c-1.176-0.967-2.446-1.417-3.672-1.284        c-2.257,0.234-4.19,2.322-5.305,5.729l-0.102,0.309l-50.659,5.254L18.951,146.706z"/>
					</g>
					<g>
						<g>
							<path style="fill:#FFB500;" d="M222.855,313.633l18.771-1.947c2.751-0.285,4.779-2.958,4.507-5.94l-16.092-176.302         c-0.272-2.982-2.746-5.188-5.497-4.903l-18.771,1.947c-2.751,0.285-4.779,2.959-4.507,5.94l16.092,176.301         C217.631,311.712,220.104,313.918,222.855,313.633z"/>
							<path d="M222.376,314.158c-1.207,0-2.382-0.427-3.357-1.229c-1.222-1.005-2.009-2.519-2.158-4.154l-16.092-176.301         c-0.298-3.261,1.924-6.169,4.953-6.483l18.772-1.947c1.394-0.14,2.772,0.283,3.889,1.202         c1.223,1.005,2.009,2.518,2.157,4.153l16.092,176.302c0.298,3.26-1.924,6.168-4.953,6.483l-18.771,1.947         C222.729,314.149,222.553,314.158,222.376,314.158z M222.803,313.136l0.052,0.498L222.803,313.136l18.771-1.947         c2.487-0.258,4.309-2.679,4.061-5.397L229.543,129.49c-0.125-1.37-0.779-2.635-1.796-3.471c-0.91-0.749-2.031-1.1-3.15-0.979         l-18.771,1.947c-2.487,0.258-4.309,2.679-4.06,5.397l16.092,176.301c0.125,1.37,0.78,2.636,1.798,3.472         C220.563,312.905,221.687,313.253,222.803,313.136z"/>
						</g>
						<g>
							<path style="fill:#FFB500;" d="M168.366,322.331l18.771-1.947c2.751-0.285,4.779-2.958,4.507-5.94l-16.092-176.301         c-0.272-2.982-2.746-5.188-5.497-4.903l-18.771,1.947c-2.751,0.285-4.779,2.959-4.507,5.94l16.092,176.301         C163.141,320.41,165.615,322.617,168.366,322.331z"/>
							<path d="M167.887,322.856c-1.208,0-2.384-0.427-3.358-1.229c-1.223-1.005-2.009-2.519-2.157-4.153l-16.092-176.301         c-0.298-3.261,1.924-6.169,4.953-6.483l18.771-1.947c1.389-0.144,2.77,0.282,3.888,1.201         c1.222,1.005,2.009,2.519,2.158,4.154l16.092,176.301c0.298,3.261-1.924,6.169-4.953,6.483l-18.771,1.947         C168.24,322.847,168.062,322.856,167.887,322.856z M170.533,133.715c-0.142,0-0.284,0.007-0.426,0.023l-18.771,1.947         c-2.487,0.258-4.309,2.679-4.061,5.397l16.092,176.301c0.125,1.37,0.779,2.635,1.796,3.471         c0.91,0.749,2.034,1.101,3.15,0.979l18.771-1.947c2.487-0.258,4.309-2.679,4.061-5.397l-16.092-176.301         c-0.125-1.371-0.78-2.636-1.798-3.473C172.462,134.063,171.509,133.715,170.533,133.715z"/>
						</g>
						<g>
							<path style="fill:#FFB500;" d="M119.17,327.433l18.771-1.947c2.751-0.285,4.779-2.958,4.507-5.94l-16.092-176.301         c-0.272-2.982-2.746-5.188-5.497-4.903l-18.771,1.947c-2.751,0.285-4.779,2.958-4.507,5.94l16.092,176.302         C113.945,325.512,116.419,327.719,119.17,327.433z"/>
							<path d="M118.691,327.958c-1.207,0-2.383-0.427-3.358-1.229c-1.222-1.005-2.009-2.519-2.158-4.153L97.083,146.274         c-0.297-3.26,1.926-6.168,4.954-6.483l18.771-1.946c1.392-0.141,2.771,0.282,3.888,1.201c1.223,1.005,2.01,2.519,2.159,4.154         l16.092,176.301c0.298,3.261-1.924,6.169-4.953,6.483l-18.772,1.947C119.045,327.949,118.867,327.958,118.691,327.958z          M121.337,138.817c-0.142,0-0.284,0.007-0.426,0.023l-18.771,1.946c-2.487,0.258-4.31,2.679-4.062,5.398l16.092,176.302         c0.125,1.37,0.78,2.635,1.797,3.472c0.91,0.748,2.034,1.099,3.15,0.979l18.772-1.947c2.487-0.258,4.309-2.679,4.06-5.397         L125.858,143.29c-0.125-1.37-0.78-2.636-1.798-3.472C123.267,139.165,122.312,138.817,121.337,138.817z"/>
						</g>
					</g>
				</g>
				<g>
					<g>
						<path style="fill:#FFFFFF;" d="M255.706,249.551l6.189,56.349c0.49,4.462-5.906,5.272-6.396,0.803l-6.189-56.349        C248.82,245.893,255.216,245.082,255.706,249.551z"/>
					</g>
					<g>
						<path style="fill:#FFFFFF;" d="M93.206,348.941c2.346-3.706,7.56,0.411,5.218,4.111c-1.425,2.251-1.128,5.128-0.64,7.665        c0.847,4.404-5.516,5.475-6.36,1.082C90.574,357.38,90.799,352.744,93.206,348.941z"/>
					</g>
					<g>
						<path style="fill:#FFFFFF;" d="M277.24,341.696c-0.165,4.497-6.592,4.005-6.427-0.484c0.1-2.732-1.561-5.002-3.218-6.874        c-2.876-3.25,1.977-7.824,4.846-4.582C275.326,333.018,277.409,337.081,277.24,341.696z"/>
					</g>
					<g>
						<path style="fill:#FFFFFF;" d="M13.724,152.083c3.838-1.712,6.053,4.853,2.232,6.557c-6.839,3.051-4.535,15.384-4.046,21.598        c0.352,4.477-6.066,5.052-6.418,0.568C4.698,170.718,3.191,156.782,13.724,152.083z"/>
					</g>
					<g>
						<path style="fill:#FFFFFF;" d="M91.357,313.554c0.261-1.484,1.178-5.395-0.136-6.593c-3.164-2.884,0.592-8.544,3.777-5.641        c3.57,3.254,3.573,8.428,2.763,13.024c-0.326,1.85-1.73,3.297-3.556,3.074C92.578,317.219,91.029,315.414,91.357,313.554z"/>
					</g>
					<g>
						<path style="fill:#FFFFFF;" d="M16.85,300.888c0.138-4.485,6.541-3.685,6.404,0.79c-0.171,5.563,5.012,8.931,9.312,10.394        c3.959,1.347,1.619,7.845-2.33,6.5C22.854,316.06,16.579,309.724,16.85,300.888z"/>
					</g>
					<g>
						<path style="fill:#FFFFFF;" d="M251.63,234.528c4.072-0.823,5.279,6.038,1.2,6.862        C248.758,242.213,247.551,235.352,251.63,234.528z"/>
					</g>
				</g>
				<g>
					<g>
						<path style="fill:#FFFFFF;" d="M105.487,15.392c0.036,1.543-1.089,2.821-2.512,2.856c-1.424,0.034-2.607-1.189-2.643-2.732        c-0.036-1.543,1.089-2.821,2.512-2.856C104.267,12.626,105.451,13.849,105.487,15.392z"/>
						<path d="M102.915,18.748c-0.803,0-1.562-0.327-2.142-0.927c-0.587-0.606-0.922-1.421-0.942-2.293        c-0.042-1.816,1.304-3.326,3.001-3.367c0.792-0.021,1.615,0.309,2.213,0.927c0.587,0.606,0.922,1.421,0.942,2.293        c0.042,1.816-1.304,3.326-3.001,3.367C102.963,18.748,102.939,18.748,102.915,18.748z M102.902,13.16        c-0.016,0-0.031,0-0.047,0c-1.146,0.027-2.054,1.079-2.024,2.344c0.015,0.62,0.249,1.196,0.661,1.621        c0.4,0.415,0.934,0.631,1.471,0.622c1.146-0.027,2.054-1.079,2.024-2.344c-0.015-0.62-0.249-1.196-0.661-1.621        C103.937,13.38,103.433,13.16,102.902,13.16z"/>
					</g>
					<g>
						
							<ellipse transform="matrix(0.9998 -0.0202 0.0202 0.9998 -0.4298 1.6322)" style="fill:#FFFFFF;" cx="80.593" cy="22.096" rx="1.666" ry="1.805"/>
						<path d="M80.598,24.401c-0.567,0-1.103-0.231-1.512-0.653c-0.41-0.424-0.644-0.992-0.658-1.6        c-0.029-1.271,0.917-2.328,2.111-2.357c0.596-0.027,1.141,0.217,1.562,0.652c0.41,0.424,0.644,0.992,0.658,1.601v0        c0.028,1.271-0.919,2.327-2.111,2.356C80.631,24.401,80.614,24.401,80.598,24.401z M80.589,20.791c-0.009,0-0.018,0-0.026,0        c-0.642,0.015-1.151,0.613-1.135,1.333c0.008,0.356,0.143,0.686,0.377,0.928c0.225,0.233,0.513,0.366,0.819,0.348        c0.642-0.015,1.15-0.613,1.135-1.333l0,0c-0.008-0.356-0.143-0.686-0.377-0.929C81.164,20.914,80.883,20.791,80.589,20.791z"/>
					</g>
					<g>
						<path style="fill:#FFFFFF;" d="M251.114,24.2c0.036,1.543-1.089,2.821-2.512,2.856c-1.424,0.034-2.607-1.189-2.643-2.732        c-0.036-1.543,1.089-2.821,2.512-2.856C249.894,21.434,251.078,22.657,251.114,24.2z"/>
						<path d="M248.542,27.556c-0.803,0-1.562-0.327-2.142-0.927c-0.587-0.606-0.922-1.421-0.942-2.293        c-0.042-1.816,1.304-3.326,3.001-3.367c0.023,0,0.048,0,0.072,0c0.803,0,1.561,0.327,2.141,0.927        c0.587,0.607,0.922,1.421,0.942,2.294c0.042,1.816-1.304,3.326-3.001,3.367C248.59,27.556,248.566,27.556,248.542,27.556z         M248.529,21.968c-0.016,0-0.031,0-0.047,0c-1.145,0.027-2.054,1.079-2.024,2.344c0.015,0.62,0.249,1.196,0.661,1.621        c0.4,0.414,0.925,0.625,1.471,0.622c1.145-0.027,2.054-1.079,2.024-2.344c-0.015-0.62-0.249-1.196-0.661-1.621        C249.564,22.188,249.06,21.968,248.529,21.968z"/>
					</g>
					<g>
						<path style="fill:#FFFFFF;" d="M64.779,60.687c0.036,1.543-1.089,2.821-2.512,2.856c-1.424,0.034-2.607-1.189-2.643-2.732        s1.089-2.821,2.512-2.856C63.559,57.921,64.743,59.144,64.779,60.687z"/>
						<path d="M62.207,64.044c-0.803,0-1.562-0.328-2.142-0.927c-0.587-0.607-0.922-1.421-0.942-2.293        c-0.042-1.816,1.304-3.326,3.001-3.367c0.804-0.021,1.614,0.309,2.213,0.927c0.587,0.607,0.922,1.421,0.942,2.294        c0.042,1.816-1.304,3.326-3.001,3.367C62.255,64.044,62.231,64.044,62.207,64.044z M62.194,58.455c-0.016,0-0.031,0-0.047,0        c-1.146,0.027-2.054,1.079-2.024,2.344c0.015,0.62,0.249,1.196,0.661,1.622c0.401,0.415,0.904,0.628,1.471,0.622        c1.146-0.027,2.054-1.079,2.024-2.344l0,0c-0.015-0.62-0.249-1.196-0.661-1.622C63.229,58.675,62.725,58.455,62.194,58.455z"/>
					</g>
					<g>
						<path style="fill:#FFFFFF;" d="M274.046,46.392c0.023,0.969-0.684,1.772-1.578,1.793c-0.894,0.021-1.637-0.746-1.66-1.715        c-0.023-0.969,0.684-1.772,1.578-1.793C273.28,44.655,274.024,45.423,274.046,46.392z"/>
						<path d="M272.432,48.686c-0.556,0-1.079-0.225-1.48-0.639c-0.401-0.415-0.63-0.97-0.644-1.565        c-0.028-1.243,0.898-2.277,2.066-2.305c0.579-0.021,1.116,0.213,1.527,0.639c0.401,0.415,0.63,0.97,0.644,1.564l0,0        c0.015,0.595-0.188,1.161-0.569,1.595c-0.392,0.444-0.923,0.697-1.496,0.711C272.464,48.686,272.448,48.686,272.432,48.686z         M272.423,45.176c-0.008,0-0.016,0-0.024,0c-0.617,0.015-1.107,0.59-1.09,1.282c0.008,0.343,0.137,0.66,0.362,0.893        c0.215,0.223,0.472,0.356,0.786,0.334c0.291-0.007,0.564-0.139,0.768-0.371c0.215-0.244,0.329-0.567,0.32-0.91v0        c-0.008-0.343-0.137-0.66-0.362-0.893C272.975,45.294,272.705,45.176,272.423,45.176z"/>
					</g>
					<g>
						<path style="fill:#FFFFFF;" d="M223.707,11.218c0.023,0.969-0.684,1.772-1.578,1.793c-0.894,0.021-1.637-0.747-1.66-1.715        s0.684-1.772,1.578-1.793C222.941,9.481,223.684,10.249,223.707,11.218z"/>
						<path d="M222.093,13.512c-1.146,0-2.094-0.978-2.124-2.204c-0.028-1.244,0.898-2.277,2.066-2.306        c1.162-0.027,2.141,0.961,2.172,2.203v0c0.028,1.243-0.898,2.277-2.066,2.305C222.125,13.512,222.108,13.512,222.093,13.512z         M222.083,10.002c-0.008,0-0.016,0-0.024,0c-0.617,0.015-1.106,0.59-1.09,1.282c0.017,0.682,0.519,1.227,1.124,1.227        c0.008,0,0.016,0,0.024,0c0.617-0.015,1.107-0.59,1.09-1.282C223.19,10.547,222.688,10.002,222.083,10.002z"/>
					</g>
					<g>
						<path style="fill:#FFFFFF;" d="M45.372,78.25c0.023,0.969-0.684,1.772-1.578,1.793c-0.894,0.021-1.637-0.746-1.66-1.715        c-0.023-0.969,0.684-1.772,1.578-1.793C44.606,76.513,45.349,77.281,45.372,78.25z"/>
						<path d="M43.757,80.544c-0.556,0-1.079-0.226-1.478-0.639c-0.401-0.415-0.63-0.971-0.644-1.565        c-0.015-0.594,0.188-1.16,0.569-1.594c0.392-0.444,0.923-0.697,1.496-0.711c0.584-0.017,1.116,0.213,1.528,0.639        c0.401,0.415,0.63,0.97,0.643,1.565c0.028,1.243-0.898,2.277-2.066,2.305C43.789,80.544,43.773,80.544,43.757,80.544z         M43.748,77.034c-0.008,0-0.016,0-0.024,0.001c-0.291,0.007-0.564,0.139-0.769,0.372c-0.215,0.244-0.329,0.567-0.32,0.909        c0.008,0.343,0.137,0.661,0.362,0.894c0.215,0.222,0.457,0.342,0.785,0.334c0.617-0.015,1.106-0.59,1.09-1.282        c-0.008-0.343-0.137-0.66-0.362-0.893C44.301,77.152,44.031,77.034,43.748,77.034z"/>
					</g>
				</g>
				<g>
					<g>
						<path style="fill:#FFFFFF;" d="M274.15,70.451c-1.51-13.07-14.551-22.684-31.023-24.202c0.092-0.879,0.14-1.77,0.095-2.678        c-0.48-9.647-8.779-17.034-18.537-16.498c-3.195,0.175-6.141,1.19-8.655,2.799c-5.163-35.897-66.451-41.651-78.622-1.779        c-24.875-25.283-72.843,8.65-51.846,44.429c-3.364-1.211-7.028-1.784-10.837-1.575c-15.098,0.829-26.736,13.602-25.994,28.529        c0.742,14.927,13.583,26.356,28.682,25.527c0.569-0.031,1.131-0.085,1.69-0.15l0.468,3.075        c0.715,4.697,5.148,7.908,9.902,7.171c4.754-0.737,8.028-5.141,7.314-9.838l-0.478-3.144c0,0,6.61-0.786,6.61-0.786        l2.428,15.961c0.715,4.697,5.148,7.908,9.902,7.171c4.754-0.737,8.029-5.141,7.314-9.838l-1.624-10.674        c-0.368-2.42,1.398-4.592,3.658-4.5c0.727,0.934,6.284,7.831,15.358,7.66c7.794-0.147,12.69-5.406,13.65-6.481        c0.372-0.037,2.335-0.19,4.072,1.367c1.101,0.987,1.858,2.427,2.004,4.08l2.89,32.724c0.419,4.743,3.688,8.759,8.039,9.449        c5.538,0.878,9.909-3.797,9.405-9.502l-3.598-40.738c-0.248-2.813,1.504-5.443,4.077-5.892c3.2-0.557,6.151,1.895,6.524,5.343        l0.851,7.875c0.51,4.724,4.799,8.12,9.579,7.585c4.78-0.535,8.241-4.798,7.731-9.522l-1.518-14.043        c2.005,1.283,8.245,4.9,16.667,3.953c8.617-0.969,14.09-6.105,15.764-7.808l0.22,2.041c0.51,4.724,2.919,18.175,10.343,17.376        c8.831-0.95,7.478-14.589,6.968-19.313c-0.134-1.239-0.386-2.49-0.302-3.744c0.087-1.306,0.527-2.276,1.657-2.826        c2.108-1.028,4.149-2.222,6.083-3.594c3.493-2.477,6.678-5.552,9.093-9.26C273.128,81.615,274.8,76.071,274.15,70.451z"/>
						<path d="M171.953,168.857c-0.468,0-0.943-0.038-1.423-0.114c-4.529-0.718-8.008-4.789-8.459-9.898l-2.89-32.724        c-0.131-1.473-0.784-2.806-1.84-3.752c-1.346-1.206-2.854-1.282-3.502-1.256c-1.851,2.026-6.648,6.36-13.876,6.497        c-8.659,0.146-14.246-5.972-15.609-7.661c-0.79,0.028-1.523,0.38-2.083,1.004c-0.697,0.779-1.003,1.844-0.84,2.921        l1.624,10.673c0.755,4.962-2.713,9.63-7.731,10.408c-2.454,0.377-4.896-0.214-6.883-1.671        c-1.952-1.433-3.227-3.535-3.589-5.919l-2.356-15.482l-5.615,0.667l0.399,2.633c0.755,4.961-2.713,9.63-7.731,10.408        c-2.452,0.381-4.896-0.214-6.882-1.671c-1.953-1.433-3.228-3.535-3.59-5.919l-0.396-2.601c-0.411,0.042-0.824,0.077-1.241,0.1        c-7.485,0.415-14.671-2.105-20.205-7.088c-5.443-4.902-8.641-11.619-9.003-18.913C47.478,84.322,59.35,71.29,74.698,70.447        c3.344-0.188,6.631,0.215,9.787,1.187c-9.939-18.166-2.328-35.565,9.856-44.904c6.477-4.965,14.195-7.77,21.731-7.899        c8.076-0.137,15.321,2.739,21.104,8.328c3.017-9.239,8.934-16.617,17.153-21.374c7.53-4.358,16.822-6.358,26.162-5.645        c15.775,1.213,32.869,10.619,35.916,28.912c2.515-1.466,5.351-2.321,8.248-2.48c4.902-0.273,9.576,1.375,13.188,4.627        c3.553,3.2,5.64,7.584,5.876,12.345c0.035,0.701,0.019,1.442-0.049,2.254c16.79,1.72,29.494,11.781,30.976,24.593        c0.62,5.371-0.827,11.075-4.075,16.06c-2.293,3.521-5.397,6.681-9.223,9.395c-1.9,1.349-3.971,2.572-6.153,3.636        c-0.882,0.43-1.293,1.151-1.376,2.41c-0.06,0.882,0.057,1.758,0.18,2.686c0.043,0.324,0.085,0.648,0.12,0.971        c0.224,2.068,0.747,6.913,0.015,11.209c-0.904,5.31-3.403,8.222-7.426,8.654c-8.42,0.905-10.555-14.685-10.893-17.819        l-0.109-1.017c-2.782,2.619-7.969,6.401-15.322,7.228c-7.192,0.806-12.921-1.628-16.116-3.494l1.408,13.033        c0.539,4.99-3.126,9.508-8.172,10.073c-2.468,0.274-4.88-0.421-6.801-1.96c-1.89-1.515-3.073-3.67-3.332-6.069l-0.851-7.875        c-0.174-1.608-0.976-3.06-2.2-3.981c-1.095-0.825-2.423-1.155-3.741-0.923c-2.285,0.398-3.895,2.75-3.665,5.355l3.598,40.738        c0.271,3.066-0.778,5.948-2.879,7.909C176.057,168.083,174.078,168.857,171.953,168.857z M154.04,120.109        c0.881,0,2.51,0.206,3.97,1.515c1.245,1.116,2.015,2.682,2.168,4.409l2.89,32.724c0.404,4.579,3.608,8.363,7.619,8.999        c2.348,0.37,4.571-0.295,6.264-1.876c1.874-1.749,2.809-4.333,2.566-7.089l-3.598-40.738        c-0.275-3.118,1.697-5.941,4.489-6.428c1.593-0.275,3.196,0.116,4.515,1.11c1.444,1.087,2.39,2.79,2.593,4.672l0.851,7.875        c0.23,2.132,1.283,4.048,2.963,5.396c1.712,1.373,3.866,1.996,6.064,1.746c4.5-0.503,7.77-4.528,7.289-8.971l-1.63-15.08        l0.879,0.562c2.837,1.815,8.723,4.733,16.342,3.877c7.762-0.873,13.02-5.175,15.464-7.662l0.74-0.754l0.333,3.092        c0.196,1.82,2.136,17.76,9.792,16.933c3.524-0.379,5.727-3.013,6.548-7.828c0.709-4.16,0.195-8.907-0.023-10.934        c-0.034-0.315-0.076-0.631-0.118-0.948c-0.123-0.935-0.251-1.902-0.186-2.883c0.107-1.62,0.722-2.65,1.937-3.242        c2.133-1.04,4.156-2.235,6.013-3.553c3.723-2.64,6.738-5.71,8.963-9.125c3.121-4.79,4.514-10.259,3.919-15.399l0,0        c-1.44-12.464-14.013-22.235-30.572-23.761l-0.505-0.047l0.054-0.503c0.102-0.961,0.132-1.812,0.093-2.602        c-0.224-4.493-2.193-8.631-5.548-11.652c-3.412-3.074-7.84-4.62-12.463-4.372c-2.978,0.164-5.887,1.104-8.412,2.721        l-0.654,0.418l-0.11-0.768c-2.622-18.234-19.528-27.604-35.119-28.803c-24.724-1.896-38.351,13.412-42.529,27.099        l-0.246,0.804l-0.589-0.599c-12.791-12.999-30.79-9.588-42.102-0.918c-12.09,9.267-19.548,26.696-8.956,44.744l0.698,1.191        l-1.299-0.468c-3.406-1.226-6.979-1.744-10.641-1.545C59.952,72.258,48.504,84.82,49.23,99.45        c0.35,7.026,3.431,13.497,8.675,18.22c5.333,4.804,12.242,7.227,19.48,6.834c0.56-0.031,1.111-0.084,1.66-0.147l0.479-0.055        l0.54,3.551c0.322,2.119,1.456,3.988,3.193,5.263c1.771,1.299,3.948,1.829,6.138,1.489c4.475-0.693,7.567-4.851,6.896-9.269        l-0.556-3.654l7.604-0.904l2.501,16.439c0.322,2.119,1.456,3.988,3.192,5.262c1.771,1.299,3.946,1.828,6.139,1.49        c4.475-0.693,7.567-4.851,6.896-9.269l-1.624-10.673c-0.209-1.374,0.187-2.737,1.084-3.739        c0.802-0.896,1.911-1.382,3.09-1.336l0.231,0.009l0.143,0.183c0.992,1.275,6.374,7.605,14.953,7.467        c7.02-0.133,11.63-4.46,13.286-6.314l0.13-0.145l0.193-0.02C153.666,120.121,153.832,120.109,154.04,120.109z"/>
					</g>
					<g>
						<path d="M139.195,60.717c-1.179-6.785,2.91-13.24,9.116-14.388c4.294-0.795,8.702,1.222,11.302,5.068        c1.286-4.086,4.51-7.105,8.473-7.831c2.746-0.505,5.568,0.131,7.942,1.788c2.649,1.85,4.5,4.832,5.076,8.181l-0.986,0.17        c-0.531-3.088-2.231-5.833-4.662-7.531c-2.153-1.503-4.705-2.08-7.19-1.625c-3.928,0.72-7.061,3.944-7.979,8.213l-0.282,1.31        l-0.646-1.175c-2.265-4.124-6.625-6.366-10.865-5.585c-5.669,1.049-9.398,6.986-8.314,13.234L139.195,60.717z"/>
					</g>
					<g>
						<path d="M225.368,83.499l-0.988-0.153c1.061-6.833,6.983-11.683,13.211-10.813c4.675,0.654,8.415,4.502,9.305,9.574        l-0.984,0.173c-0.816-4.644-4.215-8.162-8.459-8.756C231.77,72.728,226.346,77.202,225.368,83.499z"/>
					</g>
					<g>
						<path d="M89.726,95.301l-0.998-0.06c0.282-4.754,3.156-8.753,7.322-10.188c2.652-0.913,5.547-0.709,8.152,0.572        c2.899,1.426,5.182,4.085,6.262,7.296l-0.947,0.319c-0.996-2.96-3.094-5.409-5.756-6.718c-2.365-1.164-4.988-1.35-7.385-0.524        C92.594,87.301,89.984,90.953,89.726,95.301z"/>
					</g>
				</g>
			</g>
			<g>
				<g>
					<path style="fill:#AD2328;" d="M191.599,232.335c0.137,5.781-4.136,10.586-9.545,10.732       c-5.409,0.147-9.905-4.421-10.042-10.202c-0.137-5.781,4.136-10.586,9.545-10.732       C186.966,221.987,191.462,226.555,191.599,232.335z"/>
					<path d="M181.802,243.571c-2.532,0-4.955-0.982-6.849-2.782c-2.115-2.01-3.369-4.893-3.441-7.911       c-0.143-6.046,4.357-11.09,10.031-11.244c2.648-0.072,5.156,0.916,7.116,2.779c2.114,2.01,3.368,4.893,3.44,7.911l0,0       c0.143,6.045-4.357,11.09-10.031,11.244C181.979,243.57,181.89,243.571,181.802,243.571z M181.808,222.63       c-0.079,0-0.158,0.001-0.237,0.003c-5.125,0.139-9.189,4.724-9.059,10.221c0.065,2.754,1.206,5.382,3.13,7.21       c1.767,1.679,4.061,2.59,6.398,2.503c5.126-0.139,9.189-4.724,9.059-10.221l0,0c-0.066-2.753-1.205-5.381-3.129-7.209       C186.263,223.516,184.083,222.63,181.808,222.63z"/>
				</g>
				<g>
					<g id="XMLID_2_">
						<path style="fill:#FFFFFF;" d="M180.993,254.794c-14.499,1.493-25.139-4.16-38.482-2.952        c-7.491,0.678-14.628,2.693-14.367,10.304c0.481,13.938,12.676,22.639,27.124,27.504c18.661,6.284,40.232,5.711,57.218-3.68        c20.546-11.359,28.971-26.502,25.543-34.507c-3.037-7.091-9.085-8.063-16.562-7.276        C208.147,245.59,194.261,253.427,180.993,254.794z"/>
						<path d="M180.388,294.296c-8.388,0-16.984-1.379-25.278-4.172c-22.16-7.462-27.167-19.325-27.465-27.961        c-0.291-8.468,8.319-10.23,14.821-10.819c6.521-0.591,12.267,0.417,18.347,1.485c6.252,1.098,12.717,2.233,20.13,1.468        l0.051,0.497l-0.051-0.497c6.587-0.678,13.476-3.016,20.137-5.276c6.701-2.273,13.63-4.624,20.335-5.33        c6.547-0.69,13.689-0.327,17.075,7.576c3.557,8.306-5.106,23.722-25.761,35.141        C203.27,291.637,192.03,294.295,180.388,294.296z M146.379,252.169c-1.251,0-2.521,0.053-3.823,0.171        c-9.823,0.889-14.113,3.908-13.911,9.788c0.52,15.075,14.852,23.03,26.783,27.048c19.546,6.581,40.786,5.219,56.816-3.644        c20.159-11.145,28.708-25.975,25.325-33.872c-3.12-7.287-9.56-7.661-16.05-6.976c-6.595,0.694-13.47,3.027-20.119,5.283        c-6.714,2.278-13.656,4.633-20.356,5.324l0,0c-7.551,0.777-14.085-0.37-20.404-1.479        C155.851,252.973,151.272,252.169,146.379,252.169z"/>
					</g>
					<g>
						<path d="M221.521,280.583l-0.975-0.222c3.155-13.876-1.378-26.802-5.735-35.201l0.887-0.461        C220.134,253.247,224.744,266.411,221.521,280.583z"/>
					</g>
					<g>
						<path d="M194.165,292.127l-0.982-0.189c1.308-6.772,1.553-13.658,0.729-20.468c-0.729-6.026-2.295-11.974-4.658-17.68        l0.924-0.383c2.397,5.79,3.988,11.827,4.727,17.942C195.74,278.262,195.491,285.253,194.165,292.127z"/>
					</g>
					<g>
						<path d="M162.065,291.449l-0.969-0.246c0.918-3.613,2.408-10.842,2.073-18.667c-0.28-6.564-1.611-13.061-3.956-19.309        l0.936-0.352c2.383,6.347,3.735,12.947,4.02,19.617C164.51,280.446,162.997,287.783,162.065,291.449z"/>
					</g>
				</g>
				<g>
					<g>
						<g>
							<path style="fill:#FFFFFF;" d="M165.987,219.258c0.742,9.359,0.323,18.31-1.015,26.279         c-7.373-2.369-16.622-3.133-26.461-1.753c-1.486,0.201-2.946,0.447-4.354,0.761c-7.316,1.456-13.902,3.969-19.232,7.146         c-2.863-7.991-4.846-17.305-5.64-27.321c-2.441-31.758,8.239-58.632,23.891-60.061c11.066-0.98,21.607,10.935,27.742,29.197         c0.024,0.021,0.027,0.046,0.03,0.07C163.483,201.194,165.27,209.92,165.987,219.258z"/>
							<path d="M114.658,252.432l-0.205-0.572c-2.934-8.189-4.893-17.681-5.667-27.449c-2.458-31.965,8.463-59.15,24.343-60.599         c10.995-0.964,21.766,10.294,28.218,29.408l0.043,0.037l0.053,0.258c2.637,7.885,4.341,16.566,5.043,25.704l0,0         c0.717,9.032,0.363,18.162-1.02,26.402l-0.096,0.57l-0.551-0.177c-7.564-2.431-16.883-3.046-26.238-1.734         c-1.591,0.215-3.002,0.461-4.315,0.754c-7.07,1.407-13.666,3.857-19.085,7.087L114.658,252.432z M134.449,164.753         c-0.41,0-0.819,0.018-1.23,0.054c-15.338,1.399-25.852,28.103-23.436,59.525c0.75,9.454,2.618,18.644,5.411,26.621         c5.414-3.136,11.922-5.517,18.865-6.898c1.33-0.296,2.769-0.548,4.385-0.766c9.278-1.3,18.527-0.732,26.129,1.599         c1.293-8.011,1.61-16.845,0.917-25.59v-0.001c-0.685-8.904-2.412-17.718-4.995-25.495l-0.01-0.008l-0.042-0.128         C154.395,175.668,144.527,164.753,134.449,164.753z"/>
						</g>
						<g>
							<g>
								<path d="M106.145,229.121c-7.17,0-12.167-7.037-12.224-7.117l0.82-0.572c0.06,0.085,6.07,8.524,14.096,6.322l0.264,0.965          C108.083,228.997,107.095,229.121,106.145,229.121z"/>
							</g>
							<g>
								<path d="M109.686,201.819c-9.74-0.354-12.729-12.303-12.758-12.423l0.973-0.234c0.027,0.113,2.843,11.332,11.822,11.659          L109.686,201.819z"/>
							</g>
							<g>
								<path d="M108.547,217.768c-9.731-0.573-12.919-10.944-12.95-11.049l0.959-0.285c0.029,0.098,3.025,9.804,12.05,10.336          L108.547,217.768z"/>
							</g>
						</g>
						<g>
							<path d="M165.987,219.258c0.742,9.359,0.323,18.31-1.015,26.279c-7.373-2.369-16.622-3.133-26.461-1.753         c-1.486,0.201-2.946,0.447-4.354,0.761c-1.85-6.359-2.612-13.75-3.441-21.353c-0.163-1.452-0.277-2.862-0.391-4.271         l19.886-7.947l-20.081-5.319c0.82-17.482,6.13-30.018,13.945-30.338c6.032-0.226,12.216,6.948,16.842,18.189         c0.024,0.021,0.027,0.046,0.03,0.07C163.483,201.194,165.27,209.92,165.987,219.258z"/>
							<path d="M165.369,246.19l-0.551-0.177c-7.564-2.431-16.883-3.046-26.238-1.734c-1.591,0.215-3.002,0.461-4.315,0.754         l-0.458,0.102l-0.131-0.45c-1.796-6.175-2.559-13.195-3.369-20.628l-0.088-0.811c-0.163-1.454-0.278-2.868-0.393-4.282         l-0.03-0.368l0.343-0.141l18.482-7.386l-19.011-5.036l0.02-0.403c0.861-18.396,6.523-30.491,14.424-30.814         c6.079-0.263,12.354,6.473,17.28,18.39l0.056,0.049l0.053,0.258c2.637,7.885,4.341,16.566,5.043,25.705         c0.717,9.032,0.363,18.161-1.02,26.4L165.369,246.19z M148.143,242.606c5.875,0,11.499,0.77,16.43,2.282         c1.293-8.011,1.61-16.845,0.917-25.59v-0.001c-0.686-8.915-2.416-17.741-5.006-25.526l-0.029-0.073         c-4.693-11.405-10.84-18.083-16.361-17.88c-7.174,0.294-12.558,12.114-13.444,29.459l21.15,5.602l-20.946,8.371         c0.105,1.284,0.212,2.569,0.36,3.889l0.088,0.812c0.785,7.207,1.527,14.025,3.207,20.009c1.21-0.255,2.503-0.475,3.936-0.668         C141.703,242.832,144.96,242.606,148.143,242.606z"/>
						</g>
					</g>
					<g>
						<g>
							<path style="fill:#FFFFFF;" d="M248.67,237.501c-0.019,0.098-0.017,0.196-0.058,0.27c0.002,0.073-0.018,0.147-0.037,0.221         c-0.036,0.269-0.094,0.538-0.152,0.808c-1.061-0.439-2.141-0.83-3.286-1.195c-0.605-0.206-1.232-0.411-1.879-0.592         l-0.022,0.001c-5.632-1.63-12.059-2.487-18.87-2.359c-2.699,0.036-5.329,0.241-7.871,0.59         c-0.363,0.057-0.705,0.089-1.047,0.146c-6.277,0.944-11.955,2.729-16.675,5.126c-2.371-7.677-3.998-16.468-4.524-25.844         c-1.84-31.805,9.216-58.435,24.682-59.487c8.578-0.581,16.707,6.845,22.549,18.956c0,0,0.001,0.024,0.022,0.024         c0.88,1.833,1.699,3.815,2.456,5.871c0.069,0.218,0.16,0.411,0.229,0.629c0.114,0.29,0.228,0.58,0.342,0.87         c0.137,0.362,0.275,0.75,0.413,1.137c0.229,0.604,0.436,1.21,0.623,1.839c0.277,0.823,0.533,1.646,0.768,2.495         c0.257,0.872,0.492,1.744,0.706,2.618c0.613,2.327,1.144,4.778,1.592,7.329c0.148,0.826,0.298,1.676,0.425,2.526         c0.023,0.048,0.024,0.097,0.025,0.146c0.178,1.167,0.357,2.357,0.493,3.573c0.106,0.827,0.191,1.678,0.275,2.53         c0.058,0.633,0.117,1.265,0.174,1.898c0.026,0.17,0.029,0.316,0.055,0.486c0.086,0.9,0.152,1.85,0.196,2.775         C250.829,220.409,250.212,229.469,248.67,237.501z"/>
							<path d="M198.473,241.23l-0.175-0.567c-2.47-7.995-4.041-16.973-4.546-25.963c-1.852-32.022,9.429-58.944,25.148-60.014         c8.424-0.564,16.743,6.342,22.904,18.973l0.013-0.001l0.14,0.291c0.847,1.764,1.679,3.754,2.474,5.914         c0.04,0.121,0.076,0.216,0.113,0.31c0.043,0.11,0.086,0.221,0.123,0.338l0.331,0.84c0.142,0.371,0.28,0.762,0.419,1.152         c0.241,0.633,0.448,1.247,0.632,1.865c0.29,0.86,0.544,1.685,0.771,2.503c0.256,0.871,0.493,1.751,0.709,2.631         c0.607,2.303,1.145,4.782,1.599,7.361c0.146,0.812,0.293,1.649,0.419,2.488c0.033,0.102,0.036,0.191,0.038,0.244         c0.187,1.208,0.356,2.347,0.491,3.544c0.105,0.824,0.19,1.68,0.275,2.536l0.175,1.902c0.012,0.067,0.02,0.158,0.028,0.249         c0.006,0.068,0.012,0.136,0.022,0.21c0.088,0.913,0.157,1.881,0.201,2.825c0.533,9.206-0.025,18.451-1.615,26.731         l-0.491-0.093l0.483,0.152c-0.008,0.06-0.018,0.14-0.046,0.228c-0.01,0.092-0.031,0.172-0.048,0.235         c-0.025,0.212-0.083,0.483-0.141,0.754l-0.126,0.587l-0.561-0.196c-1.028-0.426-2.09-0.812-3.245-1.18         c-0.584-0.199-1.178-0.394-1.791-0.568l-0.097-0.021c-5.712-1.653-12.202-2.471-18.722-2.339         c-2.608,0.034-5.236,0.231-7.811,0.585c-0.169,0.027-0.342,0.049-0.512,0.071c-0.176,0.022-0.349,0.044-0.521,0.073         c-6.073,0.914-11.786,2.67-16.53,5.079L198.473,241.23z M219.863,155.653c-0.299,0-0.597,0.01-0.895,0.03         c-15.175,1.032-26.039,27.481-24.218,58.959c0.488,8.7,1.984,17.386,4.331,25.161c4.73-2.321,10.35-4.015,16.295-4.91         c0.178-0.029,0.362-0.053,0.551-0.077c0.161-0.02,0.324-0.041,0.492-0.068c2.627-0.361,5.295-0.561,7.941-0.596         c6.632-0.124,13.159,0.692,18.948,2.359l0.085,0.018c0.656,0.184,1.291,0.392,1.905,0.601         c0.966,0.307,1.873,0.629,2.753,0.978c0.01-0.062,0.02-0.123,0.028-0.185l0.032-0.149l-0.003-0.137l0.066-0.111l0.003-0.121         c1.574-8.201,2.128-17.361,1.6-26.492c-0.044-0.922-0.109-1.864-0.195-2.756c-0.011-0.067-0.019-0.153-0.026-0.24         c-0.007-0.071-0.013-0.142-0.024-0.218l-0.178-1.929c-0.084-0.843-0.168-1.69-0.273-2.512         c-0.134-1.187-0.302-2.315-0.491-3.562l-0.031-0.066l0.006-0.08c-0.128-0.846-0.275-1.691-0.423-2.513         c-0.449-2.554-0.981-5.005-1.583-7.29c-0.214-0.874-0.447-1.739-0.702-2.604c-0.224-0.809-0.472-1.617-0.762-2.476         c-0.182-0.612-0.382-1.202-0.617-1.822c-0.14-0.393-0.276-0.777-0.413-1.136l-0.339-0.865         c-0.043-0.128-0.079-0.22-0.114-0.312c-0.045-0.114-0.089-0.228-0.127-0.348c-0.733-1.993-1.506-3.852-2.292-5.515         l-0.167,0.004l-0.033-0.4C235.232,162.376,227.58,155.653,219.863,155.653z M249.161,237.595l-0.491-0.094l0.491,0.093         C249.161,237.594,249.161,237.595,249.161,237.595z"/>
						</g>
						<g>
							<g>
								<path d="M251.48,215.03c-0.165,0-0.33-0.003-0.499-0.011l0.043-0.999c8.23,0.357,12.507-9.219,12.55-9.316l0.916,0.401          C264.31,205.519,260.044,215.03,251.48,215.03z"/>
							</g>
							<g>
								<path d="M246.325,188.085l-0.193-0.981c8.725-1.724,9.975-13.274,9.985-13.39l0.996,0.099          C257.101,173.936,255.781,186.216,246.325,188.085z"/>
							</g>
							<g>
								<path d="M249.513,202.721l-0.217-0.977c8.741-1.934,10.369-12.014,10.385-12.116l0.988,0.149          C260.653,189.886,258.93,200.636,249.513,202.721z"/>
							</g>
						</g>
						<g>
							<path d="M248.548,238.735c-0.001,0.005-4.642-1.543-5.289-1.723l-0.022,0.001c-5.632-1.63-12.059-2.487-18.87-2.359         c-2.699,0.036-5.329,0.241-7.871,0.59c-1.426-6.698-2.293-14.214-2.505-22.085c-0.036-1.511-0.051-2.998-0.043-4.462         l20.216-5.766l-19.154-7.888l-0.195-0.093c1.11-9.047,3.24-16.678,6.091-21.911c2.768-5.182,6.255-8.064,10.076-7.759         c4.896,0.427,9.488,6.031,12.977,14.756c0.183,0.484,0.388,0.991,0.572,1.499c0.137,0.362,0.275,0.75,0.413,1.137         c0.229,0.604,0.436,1.21,0.623,1.839c0.277,0.823,0.533,1.646,0.768,2.495c0.257,0.872,0.492,1.744,0.706,2.618         c0.613,2.327,1.144,4.778,1.592,7.329c0.148,0.826,0.298,1.676,0.425,2.526c0.023,0.048,0.024,0.097,0.025,0.146         c0.178,1.167,0.357,2.357,0.493,3.573c0.106,0.827,0.191,1.678,0.275,2.53c0.058,0.633,0.117,1.265,0.174,1.898         c0.026,0.17,0.029,0.316,0.055,0.486c0.086,0.9,0.152,1.85,0.196,2.775C250.829,220.409,249.649,230.659,248.548,238.735z"/>
							<path d="M248.614,239.234c-0.156,0-0.437-0.093-1.171-0.336c-1.294-0.428-3.655-1.208-4.25-1.385l-0.095-0.021         c-5.711-1.653-12.202-2.471-18.722-2.339c-2.608,0.034-5.236,0.231-7.811,0.585l-0.461,0.064l-0.097-0.455         c-1.458-6.845-2.305-14.306-2.517-22.175c-0.036-1.518-0.051-3.01-0.043-4.478l0.002-0.376l19.193-5.474l-18.367-7.6         l0.044-0.356c1.118-9.122,3.244-16.761,6.147-22.089c2.969-5.559,6.623-8.328,10.556-8.018         c4.93,0.431,9.688,5.782,13.401,15.069l0.216,0.559c0.122,0.314,0.246,0.635,0.362,0.956         c0.136,0.358,0.274,0.748,0.413,1.139c0.241,0.633,0.448,1.247,0.632,1.865c0.29,0.86,0.544,1.685,0.771,2.503         c0.256,0.871,0.493,1.751,0.709,2.631c0.607,2.303,1.145,4.782,1.599,7.361c0.146,0.812,0.293,1.649,0.42,2.488         c0.032,0.102,0.035,0.191,0.037,0.244c0.187,1.208,0.356,2.347,0.491,3.544c0.105,0.824,0.19,1.68,0.275,2.536l0.175,1.902         c0.012,0.067,0.02,0.158,0.028,0.249c0.006,0.068,0.012,0.136,0.022,0.21c0.088,0.913,0.157,1.881,0.201,2.825         c0.545,9.414-0.57,19.407-1.733,27.94l-0.028,0.212l-0.174,0.126C248.761,239.198,248.712,239.234,248.614,239.234z          M243.309,236.512l0.085,0.018c0.473,0.132,2.908,0.938,4.364,1.419c0.137,0.045,0.263,0.087,0.375,0.124         c1.127-8.353,2.173-18.042,1.645-27.158c-0.044-0.922-0.109-1.864-0.195-2.756c-0.011-0.067-0.019-0.153-0.026-0.24         c-0.007-0.071-0.013-0.142-0.024-0.218l-0.178-1.929c-0.084-0.843-0.168-1.69-0.273-2.512         c-0.134-1.187-0.302-2.315-0.491-3.562l-0.031-0.066l0.006-0.08c-0.128-0.846-0.275-1.691-0.423-2.513         c-0.449-2.554-0.981-5.005-1.583-7.29c-0.214-0.874-0.447-1.739-0.702-2.604c-0.224-0.809-0.472-1.617-0.762-2.476         c-0.182-0.612-0.382-1.202-0.617-1.822c-0.14-0.393-0.276-0.777-0.413-1.136c-0.115-0.321-0.237-0.634-0.356-0.941         l-0.215-0.559c-3.564-8.91-8.023-14.039-12.554-14.435c-4.432-0.34-7.66,3.882-9.591,7.496         c-2.808,5.152-4.876,12.535-5.99,21.372l20.328,8.371l-21.24,6.058c-0.003,1.337,0.012,2.695,0.045,4.072         c0.205,7.634,1.013,14.878,2.399,21.54c2.469-0.321,4.979-0.5,7.47-0.533C230.992,234.029,237.52,234.846,243.309,236.512z"/>
						</g>
					</g>
				</g>
			</g>
		</g>
		<g>
			<g>
				<g>
					<g>
						<path style="fill:#FFB500;" d="M272.247,140.529c-5.527,41.282-11.543,77.544-19.594,122.116        c-7.604,42.101-15.866,82.444-24.553,120.944c57.437,11.157,114.874,22.313,172.31,33.47        c5.831-41.072,12.984-84.137,21.747-128.935c8.236-42.105,15.789-77.201,25.184-115.196        C388.726,161.542,330.864,151.915,272.247,140.529z"/>
						<path d="M400.832,417.651l-173.333-33.669l0.114-0.502c9.005-39.91,17.265-80.594,24.549-120.923        c8.907-49.318,14.582-84.692,19.59-122.094l0.07-0.525l0.52,0.101c29.305,5.692,58.91,11.033,87.541,16.198        c28.634,5.166,58.242,10.507,87.555,16.201l0.516,0.1l-0.126,0.511c-8.891,35.953-16.42,70.396-25.18,115.173        c-8.325,42.561-15.641,85.932-21.742,128.909L400.832,417.651z M228.702,383.197l171.288,33.271        c6.089-42.824,13.382-86.034,21.678-128.44c8.72-44.58,16.224-78.926,25.063-114.71        c-29.138-5.655-58.562-10.963-87.025-16.098c-28.464-5.135-57.892-10.444-87.034-16.1        c-4.991,37.224-10.657,72.511-19.525,121.613C245.89,302.908,237.666,343.435,228.702,383.197z"/>
					</g>
					<g>
						<path style="fill:#FFB500;" d="M214.593,397.313c0.379-1.95,1.641-7.74,4.801-12.587c4.374-6.708,8.908-6.338,9.606-6.153        c63.993,16.906,113.648,26.551,172.31,33.47c0.784,0.092,4.897,1.647,6.738,9.328c1.515,6.322,0.527,12.939,0.206,14.851        c-32.402-4.15-66.252-9.643-101.352-16.798C274.623,412.842,243.834,405.374,214.593,397.313z"/>
						<path d="M408.67,436.779l-0.478-0.061c-33.846-4.335-67.957-9.989-101.388-16.805c-30.853-6.29-61.922-13.731-92.345-22.118        l-0.446-0.123l0.088-0.455c0.55-2.818,1.913-8.224,4.874-12.764c4.973-7.627,10.103-6.378,10.153-6.363        c63.829,16.863,113.73,26.556,172.24,33.457c0.05,0.006,5.04,0.836,7.166,9.708c1.4,5.843,0.735,11.938,0.214,15.05        L408.67,436.779z M215.175,396.954c30.258,8.33,61.152,15.725,91.829,21.979c33.25,6.779,67.171,12.408,100.836,16.731        c0.491-3.154,1.015-8.788-0.277-14.176c-1.936-8.079-6.268-8.943-6.311-8.948c-58.56-6.907-108.501-16.608-172.379-33.483        c-0.043-0.011-4.549-0.975-9.06,5.942C217.096,389.166,215.763,394.11,215.175,396.954z"/>
					</g>
					<g>
						<path style="fill:#FFB500;" d="M495.061,222.617l-49.694-9.653c-0.824-3.524-2.67-6.067-5.182-6.555        c-4.257-0.827-8.79,4.535-10.124,11.976c-1.335,7.441,1.035,14.144,5.292,14.971c2.523,0.49,5.137-1.204,7.13-4.205        l33.875,6.58c10.807,2.099,17.928,13.41,15.826,25.134l-17.689,98.63c-2.103,11.725-12.665,19.6-23.472,17.501l-37.356-7.256        c-0.927-2.962-2.641-5.049-4.892-5.487c-4.257-0.827-8.79,4.535-10.124,11.976c-1.335,7.441,1.034,14.143,5.292,14.97        c2.55,0.495,5.194-1.24,7.195-4.303l52.628,10.223c10.807,2.099,21.369-5.776,23.472-17.501l23.651-131.867        C512.989,236.027,505.868,224.716,495.061,222.617z"/>
						<path d="M467.272,397.958c-1.202,0-2.408-0.115-3.605-0.348l-52.301-10.16c-2.188,3.204-4.911,4.746-7.522,4.24        c-4.518-0.877-7.069-7.853-5.689-15.549c0.887-4.943,3.257-9.26,6.186-11.267c1.48-1.014,3.04-1.401,4.526-1.112        c2.265,0.439,4.142,2.453,5.182,5.543l37.067,7.2c4.808,0.933,9.76-0.136,13.952-3.009c4.642-3.181,7.897-8.316,8.933-14.09        l17.69-98.629c2.06-11.487-4.861-22.502-15.429-24.555l-33.552-6.517c-2.176,3.136-4.881,4.642-7.454,4.142        c-4.517-0.877-7.068-7.853-5.688-15.549c0.886-4.942,3.256-9.259,6.185-11.266c1.481-1.014,3.041-1.401,4.527-1.112        c2.56,0.497,4.552,2.901,5.497,6.616l49.379,9.592c11.101,2.156,18.379,13.691,16.223,25.713l-23.651,131.867        c-1.082,6.035-4.491,11.407-9.352,14.738C475.003,396.756,471.158,397.958,467.272,397.958z M410.9,386.342l52.958,10.287        c4.809,0.933,9.759-0.136,13.952-3.009c4.642-3.181,7.897-8.316,8.933-14.09l23.651-131.867        c2.06-11.487-4.861-22.503-15.43-24.555l-50.011-9.714l-0.074-0.316c-0.816-3.494-2.562-5.745-4.791-6.178        c-1.207-0.235-2.515,0.095-3.771,0.956c-2.716,1.861-4.925,5.929-5.766,10.618c-1.285,7.162,0.91,13.617,4.895,14.391        c2.193,0.429,4.674-1.064,6.618-3.991l0.184-0.277l34.204,6.643c11.101,2.156,18.378,13.691,16.222,25.713l-17.689,98.629        c-1.082,6.035-4.491,11.407-9.352,14.738c-4.417,3.026-9.642,4.149-14.709,3.165l-37.647-7.313l-0.09-0.285        c-0.904-2.889-2.549-4.764-4.511-5.145c-1.207-0.235-2.514,0.095-3.77,0.956c-2.716,1.86-4.926,5.929-5.767,10.618        c-1.285,7.161,0.911,13.617,4.896,14.391c2.224,0.431,4.726-1.096,6.68-4.086L410.9,386.342z"/>
					</g>
					<g>
						<g>
							<path style="fill:#FFB500;" d="M277.532,370.871l-18.531-3.6c-2.716-0.527-4.505-3.37-3.977-6.316l31.244-174.204         c0.528-2.947,3.183-4.926,5.899-4.398l18.531,3.6c2.716,0.528,4.505,3.37,3.977,6.316l-31.244,174.204         C282.902,369.419,280.248,371.398,277.532,370.871z"/>
							<path d="M278.415,371.456c-0.326,0-0.653-0.031-0.979-0.094l-18.531-3.6c-2.989-0.58-4.951-3.674-4.374-6.895l31.244-174.204         c0.289-1.614,1.203-3.053,2.507-3.946c1.193-0.818,2.606-1.121,3.979-0.854l18.532,3.6c2.988,0.581,4.95,3.674,4.373,6.896         l-31.244,174.204c-0.289,1.614-1.203,3.053-2.507,3.946C280.505,371.131,279.466,371.456,278.415,371.456z M277.628,370.38         c1.106,0.215,2.253-0.033,3.223-0.698c1.084-0.743,1.846-1.945,2.088-3.298l31.244-174.204         c0.481-2.686-1.124-5.26-3.58-5.737l-18.532-3.6c-1.106-0.213-2.253,0.033-3.223,0.698c-1.084,0.743-1.846,1.945-2.088,3.298         l-31.244,174.204c-0.482,2.686,1.125,5.26,3.581,5.737L277.628,370.38z"/>
						</g>
						<g>
							<path style="fill:#FFB500;" d="M331.063,384.355l-18.532-3.6c-2.716-0.528-4.505-3.37-3.977-6.316l31.244-174.204         c0.528-2.946,3.183-4.926,5.899-4.398l18.532,3.6c2.716,0.528,4.505,3.37,3.977,6.316l-31.244,174.204         C336.433,382.904,333.778,384.883,331.063,384.355z"/>
							<path d="M331.945,384.94c-0.326,0-0.653-0.031-0.979-0.094l-18.531-3.6c-2.989-0.581-4.951-3.674-4.374-6.896l31.244-174.204         c0.289-1.614,1.203-3.053,2.507-3.946c1.194-0.818,2.606-1.12,3.979-0.854l18.532,3.6c2.988,0.581,4.95,3.674,4.373,6.895         l-31.244,174.204c-0.29,1.615-1.203,3.053-2.508,3.947C334.035,384.616,332.997,384.94,331.945,384.94z M344.816,196.252         c-0.852,0-1.696,0.265-2.438,0.773c-1.084,0.743-1.846,1.945-2.088,3.298l-31.244,174.204         c-0.481,2.687,1.125,5.26,3.581,5.737l18.531,3.6c1.108,0.215,2.252-0.033,3.223-0.697c1.084-0.743,1.846-1.945,2.088-3.298         l31.244-174.204c0.482-2.686-1.124-5.26-3.58-5.737l-18.532-3.6C345.341,196.277,345.078,196.252,344.816,196.252z"/>
						</g>
						<g>
							<path style="fill:#FFB500;" d="M379.63,393.789l-18.531-3.6c-2.716-0.528-4.506-3.37-3.977-6.316l31.244-174.204         c0.529-2.946,3.183-4.926,5.899-4.398l18.532,3.6c2.716,0.527,4.505,3.37,3.977,6.316l-31.244,174.204         C385,392.337,382.346,394.317,379.63,393.789z"/>
							<path d="M380.513,394.374c-0.326,0-0.653-0.031-0.979-0.094l-18.531-3.6c-2.989-0.581-4.951-3.674-4.374-6.896         l31.244-174.204c0.289-1.614,1.203-3.053,2.507-3.946c1.193-0.818,2.605-1.122,3.979-0.854l18.532,3.6         c2.988,0.58,4.95,3.674,4.373,6.896L386.02,389.48c-0.289,1.614-1.203,3.053-2.507,3.946         C382.603,394.05,381.563,394.374,380.513,394.374z M379.726,393.298c1.107,0.215,2.253-0.033,3.223-0.698         c1.084-0.743,1.846-1.945,2.088-3.298l31.244-174.204c0.482-2.687-1.124-5.26-3.58-5.737l-18.532-3.6         c-1.106-0.214-2.253,0.033-3.223,0.698c-1.084,0.743-1.846,1.945-2.088,3.298l-31.244,174.204         c-0.481,2.686,1.125,5.26,3.581,5.737L379.726,393.298z"/>
						</g>
					</g>
				</g>
				<g>
					<g>
						<path style="fill:#FFFFFF;" d="M250.336,304.128l-11.028,55.586c-0.873,4.401,5.428,5.774,6.303,1.365l11.028-55.586        C257.512,301.093,251.211,299.72,250.336,304.128z"/>
					</g>
					<g>
						<path style="fill:#FFFFFF;" d="M403.638,417.511c-2.017-3.9-7.566-0.259-5.553,3.634c1.225,2.369,0.681,5.208-0.024,7.692        c-1.224,4.312,5.022,5.942,6.243,1.64C405.532,426.15,405.708,421.513,403.638,417.511z"/>
					</g>
					<g>
						<path style="fill:#FFFFFF;" d="M220.934,394.016c-0.224,4.495,6.222,4.573,6.445,0.086c0.136-2.73,1.987-4.845,3.799-6.563        c3.145-2.983-1.294-7.969-4.432-4.993C223.589,385.54,221.163,389.404,220.934,394.016z"/>
					</g>
					<g>
						<path style="fill:#FFFFFF;" d="M499.804,228.436c-3.675-2.045-6.448,4.299-2.789,6.335c6.55,3.644,3.19,15.726,2.167,21.874        c-0.737,4.428,5.606,5.569,6.345,1.134C507.188,247.798,509.891,234.049,499.804,228.436z"/>
					</g>
					<g>
						<path style="fill:#FFFFFF;" d="M408.534,382.423c-0.132-1.501-0.708-5.479,0.704-6.556c3.401-2.593,0.147-8.563-3.276-5.954        c-3.837,2.925-4.286,8.079-3.876,12.73c0.165,1.871,1.439,3.438,3.277,3.377C407.002,385.966,408.7,384.305,408.534,382.423z"/>
					</g>
					<g>
						<path style="fill:#FFFFFF;" d="M483.849,376.395c0.25-4.48-6.198-4.25-6.448,0.22c-0.31,5.557-5.764,8.453-10.174,9.531        c-4.06,0.992-2.29,7.672,1.76,6.682C476.559,390.978,483.357,385.222,483.849,376.395z"/>
					</g>
					<g>
						<path style="fill:#FFFFFF;" d="M255.693,289.523c-3.986-1.18-5.78,5.548-1.788,6.73        C257.891,297.432,259.685,290.705,255.693,289.523z"/>
					</g>
				</g>
				<g>
					<g>
						<path style="fill:#FFFFFF;" d="M420.188,84.151c-0.169,1.534,0.841,2.907,2.256,3.067c1.415,0.16,2.7-0.954,2.869-2.488        c0.169-1.534-0.841-2.907-2.256-3.067C421.641,81.504,420.357,82.618,420.188,84.151z"/>
						<path d="M422.715,87.733c-0.108,0-0.218-0.006-0.327-0.018c-1.686-0.191-2.896-1.814-2.697-3.619v0        c0.101-0.904,0.551-1.736,1.236-2.284c0.631-0.503,1.402-0.734,2.186-0.645c1.686,0.19,2.897,1.813,2.697,3.618        c-0.101,0.905-0.551,1.737-1.236,2.285C424.031,87.503,423.382,87.733,422.715,87.733z M420.685,84.207        c-0.139,1.258,0.676,2.386,1.816,2.515c0.511,0.058,1.028-0.096,1.449-0.433c0.479-0.383,0.795-0.971,0.866-1.613        c0.139-1.258-0.676-2.386-1.815-2.515c-0.518-0.062-1.029,0.096-1.45,0.433C421.071,82.977,420.756,83.565,420.685,84.207        L420.685,84.207z"/>
					</g>
					<g>
						<path style="fill:#FFFFFF;" d="M442.753,92.844c-0.109,0.991,0.543,1.878,1.458,1.981c0.914,0.103,1.744-0.616,1.853-1.607        c0.109-0.991-0.543-1.878-1.458-1.981C443.692,91.134,442.862,91.854,442.753,92.844z"/>
						<path d="M444.386,95.336c-0.077,0-0.154-0.004-0.232-0.013c-1.186-0.134-2.036-1.27-1.897-2.532l0,0        c0.069-0.63,0.383-1.211,0.862-1.595c0.445-0.355,0.989-0.513,1.544-0.455c1.185,0.134,2.038,1.271,1.898,2.533        c-0.069,0.63-0.385,1.212-0.863,1.595C445.314,95.173,444.855,95.336,444.386,95.336z M444.432,91.728        c-0.244,0-0.485,0.086-0.69,0.249c-0.272,0.218-0.452,0.554-0.492,0.922v0c-0.079,0.716,0.377,1.357,1.017,1.43        c0.282,0.032,0.57-0.054,0.806-0.243c0.273-0.218,0.453-0.554,0.494-0.922c0.079-0.716-0.377-1.358-1.017-1.43        C444.51,91.73,444.471,91.728,444.432,91.728z"/>
					</g>
					<g>
						<path style="fill:#FFFFFF;" d="M329.058,53.69c-0.169,1.534,0.841,2.907,2.256,3.067c1.415,0.16,2.7-0.954,2.869-2.487        c0.169-1.534-0.841-2.907-2.256-3.067S329.227,52.157,329.058,53.69z"/>
						<path d="M331.585,57.273c-0.108,0-0.218-0.006-0.327-0.018c-1.686-0.191-2.896-1.814-2.697-3.619        c0.1-0.904,0.55-1.736,1.235-2.284c0.631-0.504,1.404-0.738,2.188-0.646c1.687,0.19,2.896,1.814,2.696,3.619        c-0.1,0.903-0.55,1.736-1.235,2.284C332.902,57.043,332.252,57.273,331.585,57.273z M331.658,51.688        c-0.441,0-0.874,0.154-1.238,0.445c-0.479,0.383-0.795,0.97-0.865,1.612c-0.139,1.258,0.676,2.386,1.816,2.515        c0.513,0.061,1.027-0.096,1.449-0.433c0.479-0.383,0.795-0.971,0.865-1.612c0.14-1.258-0.675-2.387-1.814-2.515        C331.8,51.692,331.729,51.688,331.658,51.688z"/>
					</g>
					<g>
						<path style="fill:#FFFFFF;" d="M456.831,132.874c-0.169,1.534,0.841,2.907,2.256,3.067c1.415,0.16,2.7-0.954,2.869-2.488        c0.169-1.534-0.841-2.907-2.256-3.067C458.285,130.227,457.001,131.34,456.831,132.874z"/>
						<path d="M459.358,136.456c-0.108,0-0.218-0.006-0.327-0.018c-1.686-0.191-2.896-1.814-2.697-3.619v-0.001        c0.101-0.904,0.551-1.736,1.236-2.284c0.631-0.503,1.401-0.737,2.187-0.645c1.685,0.19,2.895,1.814,2.697,3.618        c-0.101,0.905-0.551,1.737-1.236,2.285C460.675,136.226,460.025,136.456,459.358,136.456z M457.328,132.929        c-0.139,1.258,0.676,2.386,1.816,2.515c0.513,0.059,1.027-0.096,1.449-0.433c0.479-0.383,0.795-0.971,0.866-1.613        c0.139-1.258-0.676-2.386-1.815-2.515c-0.521-0.062-1.029,0.096-1.45,0.433C457.715,131.699,457.399,132.287,457.328,132.929        L457.328,132.929z"/>
					</g>
					<g>
						<path style="fill:#FFFFFF;" d="M300.415,72.865c-0.106,0.963,0.528,1.825,1.417,1.926s1.695-0.599,1.802-1.562        c0.106-0.963-0.528-1.826-1.417-1.926C301.328,71.203,300.521,71.902,300.415,72.865z"/>
						<path d="M302.002,75.301c-0.075,0-0.15-0.004-0.226-0.013c-1.161-0.132-1.995-1.243-1.858-2.478v0        c0.068-0.616,0.376-1.185,0.845-1.559c0.436-0.348,0.97-0.504,1.511-0.445c1.159,0.131,1.992,1.243,1.857,2.478        c-0.068,0.617-0.376,1.185-0.845,1.559C302.912,75.142,302.463,75.301,302.002,75.301z M300.912,72.92        c-0.076,0.688,0.361,1.305,0.977,1.374c0.274,0.034,0.548-0.052,0.773-0.233c0.263-0.209,0.435-0.533,0.475-0.887        c0.075-0.688-0.362-1.305-0.977-1.374c-0.268-0.033-0.547,0.051-0.773,0.232C301.124,72.242,300.951,72.566,300.912,72.92        L300.912,72.92z"/>
					</g>
					<g>
						<path style="fill:#FFFFFF;" d="M361.824,49.87c-0.106,0.963,0.528,1.826,1.417,1.926c0.889,0.1,1.695-0.599,1.802-1.562        c0.106-0.963-0.528-1.825-1.417-1.926C362.737,48.208,361.931,48.907,361.824,49.87z"/>
						<path d="M363.411,52.306c-0.075,0-0.15-0.004-0.226-0.013c-1.161-0.132-1.995-1.243-1.858-2.478v0        c0.068-0.616,0.376-1.185,0.845-1.559c0.435-0.348,0.969-0.503,1.511-0.445c1.16,0.132,1.994,1.243,1.857,2.478        c-0.068,0.616-0.376,1.185-0.845,1.559C364.321,52.147,363.872,52.306,363.411,52.306z M362.321,49.925        c-0.076,0.689,0.361,1.305,0.977,1.375c0.273,0.035,0.548-0.052,0.773-0.233c0.263-0.209,0.436-0.533,0.475-0.887        c0.076-0.688-0.361-1.305-0.977-1.374c-0.265-0.033-0.546,0.051-0.773,0.232C362.533,49.247,362.36,49.571,362.321,49.925        L362.321,49.925z"/>
					</g>
					<g>
						<path style="fill:#FFFFFF;" d="M474.648,152.086c-0.106,0.963,0.528,1.825,1.417,1.926c0.889,0.101,1.695-0.599,1.802-1.562        c0.106-0.963-0.528-1.826-1.417-1.926C475.561,150.424,474.755,151.123,474.648,152.086z"/>
						<path d="M476.235,154.522c-0.075,0-0.15-0.004-0.226-0.013c-1.161-0.132-1.995-1.243-1.858-2.478v-0.001        c0.068-0.616,0.376-1.185,0.845-1.559c0.435-0.347,0.969-0.502,1.511-0.445c1.16,0.132,1.994,1.243,1.857,2.478        c-0.068,0.616-0.376,1.185-0.845,1.559C477.145,154.363,476.696,154.522,476.235,154.522z M475.145,152.141        c-0.076,0.689,0.361,1.305,0.977,1.374c0.273,0.035,0.547-0.052,0.773-0.233c0.263-0.209,0.436-0.533,0.475-0.887        c0.076-0.688-0.361-1.305-0.977-1.374c-0.266-0.034-0.547,0.051-0.773,0.232C475.357,151.463,475.185,151.787,475.145,152.141        L475.145,152.141z"/>
					</g>
				</g>
				<g>
					<g>
						<path style="fill:#FFFFFF;" d="M247.418,124.081c2.632-12.886,16.452-21.31,32.993-21.365        c-0.016-0.884,0.014-1.775,0.137-2.677c1.31-9.568,10.215-16.192,19.89-14.796c3.168,0.457,6.015,1.729,8.38,3.553        c8.241-35.303,69.791-35.614,78.475,5.182c26.962-22.986,71.818,15.06,47.814,48.845c3.455-0.908,7.155-1.155,10.931-0.61        c14.969,2.161,25.46,15.914,23.433,30.719s-15.806,25.054-30.775,22.893c-0.564-0.081-1.12-0.185-1.671-0.299l-0.731,3.022        c-1.117,4.616-5.81,7.422-10.483,6.268c-4.672-1.154-7.554-5.832-6.437-10.448l0.748-3.089c0,0-6.517-1.367-6.517-1.367        l-3.796,15.685c-1.117,4.616-5.81,7.422-10.482,6.268c-4.672-1.154-7.554-5.832-6.437-10.448l2.539-10.489        c0.576-2.378-0.996-4.698-3.256-4.806c-0.805,0.866-6.936,7.245-15.96,6.272c-7.752-0.836-12.175-6.508-13.038-7.664        c-0.367-0.069-2.31-0.396-4.174,1.002c-1.182,0.886-2.06,2.253-2.348,3.887l-5.703,32.343        c-0.827,4.688-4.429,8.399-8.824,8.701c-5.593,0.384-9.544-4.659-8.549-10.298l7.099-40.264c0.49-2.78-1.029-5.556-3.553-6.23        c-3.139-0.838-6.291,1.343-6.96,4.746l-1.527,7.77c-0.916,4.661-5.482,7.665-10.198,6.709        c-4.716-0.956-7.796-5.509-6.88-10.17l2.724-13.855c-2.108,1.1-8.636,4.152-16.944,2.464        c-8.501-1.727-13.509-7.328-15.03-9.173l-0.396,2.013c-0.916,4.661-4.476,17.847-11.803,16.395        c-8.715-1.728-6.19-15.194-5.274-19.855c0.24-1.223,0.599-2.446,0.624-3.703c0.026-1.308-0.329-2.314-1.407-2.962        c-2.011-1.21-3.941-2.581-5.75-4.118c-3.266-2.777-6.173-6.122-8.259-10.029C247.473,135.293,246.286,129.622,247.418,124.081        z"/>
						<path d="M341.52,231.185c-2.431,0-4.632-0.971-6.253-2.773c-1.923-2.138-2.719-5.102-2.185-8.132l7.099-40.264        c0.454-2.575-0.947-5.061-3.19-5.66c-1.293-0.345-2.646-0.135-3.808,0.59c-1.298,0.81-2.221,2.184-2.533,3.769l-1.527,7.77        c-0.465,2.365-1.828,4.407-3.84,5.749c-2.047,1.365-4.512,1.845-6.947,1.354c-4.977-1.009-8.238-5.835-7.271-10.756        l2.527-12.861c-3.344,1.577-9.256,3.5-16.357,2.055c-7.253-1.474-12.093-5.701-14.639-8.555l-0.197,1.001        c-0.401,2.043-2.661,12.407-7.735,15.809c-1.455,0.975-3.019,1.304-4.655,0.98c-6.186-1.227-8.092-8.104-5.667-20.442        c0.062-0.319,0.133-0.639,0.204-0.959c0.202-0.912,0.394-1.774,0.41-2.656c0.025-1.263-0.322-2.018-1.164-2.524        c-2.078-1.25-4.035-2.651-5.816-4.165c-3.577-3.042-6.396-6.465-8.376-10.174c-2.805-5.254-3.754-11.064-2.673-16.358l0,0        c2.581-12.632,16.106-21.532,32.98-21.761c0.003-0.823,0.05-1.548,0.146-2.249c0.646-4.721,3.103-8.904,6.918-11.777        c3.879-2.922,8.691-4.147,13.538-3.445c2.873,0.414,5.623,1.516,8.002,3.2c4.605-17.908,22.368-25.802,38.175-25.625        c9.384,0.092,18.487,2.901,25.633,7.909c7.801,5.467,13.072,13.351,15.283,22.839c6.242-5.054,13.737-7.274,21.736-6.431        c7.495,0.793,14.939,4.267,20.964,9.781c11.34,10.382,17.427,28.392,5.953,45.615c3.229-0.69,6.537-0.797,9.854-0.318        c15.216,2.197,25.918,16.23,23.857,31.282c-0.99,7.231-4.754,13.639-10.597,18.04c-5.943,4.477-13.314,6.349-20.745,5.279        c-0.413-0.06-0.821-0.131-1.227-0.209l-0.618,2.555c-0.567,2.342-2.019,4.323-4.086,5.578        c-2.104,1.277-4.588,1.653-7.003,1.058c-4.931-1.218-7.983-6.176-6.803-11.051l0.627-2.588l-5.538-1.162l-3.682,15.213        c-0.567,2.342-2.018,4.323-4.086,5.578c-2.105,1.278-4.592,1.653-7.003,1.058c-4.931-1.218-7.982-6.176-6.803-11.051        l2.538-10.489c0.257-1.059,0.044-2.146-0.584-2.984c-0.503-0.672-1.203-1.088-1.988-1.186        c-1.505,1.562-7.574,7.184-16.211,6.251c-7.19-0.775-11.594-5.518-13.263-7.699c-0.642-0.085-2.153-0.14-3.597,0.941        c-1.133,0.849-1.898,2.118-2.155,3.574l-5.703,32.344c-0.89,5.051-4.707,8.798-9.282,9.113        C341.944,231.178,341.731,231.185,341.52,231.185z M335.76,173.192c0.497,0,0.997,0.065,1.49,0.197        c2.739,0.731,4.46,3.718,3.916,6.8l-7.099,40.264c-0.48,2.725,0.229,5.382,1.943,7.29c1.552,1.724,3.709,2.584,6.079,2.422        c4.05-0.278,7.568-3.765,8.366-8.289l5.703-32.344c0.301-1.707,1.203-3.199,2.54-4.2c1.935-1.45,3.985-1.203,4.567-1.093        l0.191,0.036l0.116,0.156c1.489,1.994,5.707,6.713,12.691,7.466c8.529,0.917,14.441-4.933,15.54-6.115l0.158-0.171        l0.232,0.011c1.16,0.056,2.24,0.641,2.962,1.605c0.807,1.077,1.082,2.469,0.756,3.818l-2.538,10.489        c-1.051,4.342,1.672,8.758,6.07,9.845c2.149,0.532,4.368,0.197,6.244-0.942c1.839-1.116,3.129-2.877,3.632-4.958l3.91-16.156        l7.497,1.573l-0.869,3.59c-1.051,4.342,1.672,8.758,6.07,9.845c2.15,0.531,4.368,0.197,6.244-0.942        c1.839-1.116,3.128-2.877,3.632-4.959l0.846-3.491l0.473,0.098c0.542,0.112,1.087,0.213,1.642,0.293        c7.165,1.037,14.271-0.771,20.001-5.087c5.629-4.241,9.254-10.412,10.208-17.378c1.986-14.509-8.335-28.038-23.009-30.156        c-3.623-0.522-7.232-0.321-10.733,0.599l-1.333,0.351l0.799-1.124c12.112-17.048,6.18-35.073-5.073-45.374        c-10.518-9.629-28.15-14.615-42.01-2.8l-0.639,0.544l-0.175-0.821c-2.987-14.037-15.29-30.516-40.127-30.759        c-0.148-0.001-0.298-0.002-0.446-0.002c-15.481,0-32.789,7.872-36.925,25.589l-0.177,0.757l-0.616-0.475        c-2.377-1.834-5.193-3.028-8.145-3.455c-4.591-0.662-9.129,0.494-12.794,3.254c-3.6,2.712-5.919,6.659-6.529,11.114        c-0.107,0.788-0.149,1.614-0.132,2.6l0.009,0.507l-0.507,0.001c-16.628,0.056-29.994,8.677-32.505,20.965l-0.49-0.1l0.49,0.1        c-1.035,5.067-0.121,10.638,2.575,15.688c1.921,3.598,4.66,6.923,8.142,9.883c1.739,1.479,3.651,2.849,5.684,4.071        c1.157,0.696,1.681,1.777,1.648,3.401c-0.02,0.981-0.229,1.933-0.434,2.853c-0.069,0.312-0.139,0.624-0.2,0.936        c-0.855,4.357-3.462,17.614,4.882,19.269c1.38,0.273,2.659,0.002,3.902-0.831c4.747-3.182,6.924-13.196,7.312-15.17        l0.599-3.051l0.673,0.816c2.221,2.693,7.088,7.445,14.744,9.001c7.5,1.524,13.63-0.86,16.613-2.417l0.923-0.481l-2.925,14.877        c-0.861,4.384,2.05,8.683,6.489,9.583c2.166,0.44,4.369,0.012,6.193-1.205c1.788-1.193,3.001-3.008,3.414-5.11l1.527-7.771        c0.364-1.856,1.452-3.468,2.984-4.424C333.613,173.499,334.681,173.192,335.76,173.192z"/>
					</g>
					<g>
						<path d="M348.764,127.484l-0.967-0.256c1.62-6.129-1.583-12.373-7.141-13.919c-4.152-1.157-8.694,0.694-11.305,4.602        l-0.744,1.113l-0.168-1.329c-0.547-4.334-3.39-7.823-7.241-8.888c-2.436-0.673-5.03-0.324-7.307,0.984        c-2.566,1.477-4.495,4.06-5.291,7.086l-0.967-0.254c0.863-3.284,2.962-6.09,5.76-7.699c2.509-1.444,5.377-1.827,8.07-1.081        c3.886,1.075,6.835,4.367,7.764,8.551c2.923-3.603,7.489-5.222,11.696-4.049C347.006,114.038,350.523,120.829,348.764,127.484        z"/>
					</g>
					<g>
						<path d="M429.993,165.177l-1-0.027c0.118-4.355-2.168-8.224-5.822-9.856c-2.318-1.036-4.949-1.081-7.41-0.129        c-2.761,1.07-5.06,3.322-6.306,6.179l-0.916-0.399c1.352-3.1,3.853-5.546,6.86-6.712c2.711-1.05,5.615-0.998,8.18,0.148        C427.604,156.178,430.121,160.416,429.993,165.177z"/>
					</g>
				</g>
			</g>
			<g>
				<g>
					<path style="fill:#FF8806;" d="M344.434,284.393c0.408,4.521-2.9,8.504-7.39,8.896c-4.49,0.392-8.46-2.957-8.869-7.478       c-0.408-4.522,2.9-8.504,7.39-8.896C340.056,276.523,344.026,279.871,344.434,284.393z"/>
					<path d="M336.334,293.819c-4.44,0-8.247-3.43-8.656-7.964c-0.21-2.332,0.497-4.6,1.992-6.386       c1.48-1.769,3.559-2.853,5.853-3.053c4.728-0.415,8.978,3.142,9.41,7.931c0.21,2.332-0.497,4.599-1.992,6.386       c-1.48,1.769-3.56,2.853-5.854,3.053C336.835,293.809,336.583,293.819,336.334,293.819z M336.275,277.384       c-0.221,0-0.442,0.009-0.667,0.029c-2.026,0.177-3.863,1.135-5.172,2.699c-1.323,1.582-1.949,3.589-1.763,5.654       c0.383,4.24,4.109,7.391,8.327,7.025c2.026-0.177,3.863-1.135,5.173-2.699c1.323-1.581,1.949-3.589,1.763-5.654       C343.574,280.422,340.205,277.384,336.275,277.384z"/>
				</g>
				<g>
					<g id="XMLID_3_">
						<path style="fill:#FFFFFF;" d="M353.229,301.022c0,0-5.711,68.54-29.832,64.695c-27.455-4.376-10.804-71.172-10.804-71.172        c3.246,2.392,10.125,6.794,19.963,8.27C341.94,304.222,349.449,302.282,353.229,301.022z"/>
						<path d="M325.32,366.372c-0.66,0-1.328-0.054-2.003-0.161c-4.478-0.713-8.088-3.101-10.728-7.096        c-5.017-7.587-6.62-20.791-4.765-39.244c1.377-13.694,4.255-25.33,4.283-25.447l0.181-0.725l0.602,0.443        c4.054,2.988,10.768,6.832,19.74,8.178c6.823,1.024,13.892,0.411,20.441-1.772l0.72-0.24l-0.063,0.755        c-0.01,0.124-1.067,12.549-4.071,26.348c-4.048,18.598-9.517,30.705-16.252,35.984        C330.879,365.375,328.167,366.372,325.32,366.372z M312.905,295.388c-1.386,5.939-10.355,46.732,0.518,63.175        c2.48,3.751,5.862,5.992,10.053,6.66c3.296,0.525,6.429-0.355,9.312-2.615c14.591-11.437,19.27-54.632,19.874-60.877        c-6.494,2.04-13.454,2.586-20.181,1.578C323.743,301.999,317.099,298.37,312.905,295.388z"/>
					</g>
					<g>
						<polygon points="331.441,364.477 330.94,364.429 330.456,364.306 339.656,303.201 340.645,303.35       "/>
					</g>
					<g>
						
							<rect x="289.625" y="331.287" transform="matrix(0.1415 -0.9899 0.9899 0.1415 -53.157 602.2769)" width="62.113" height="1"/>
					</g>
					<g>
						
							<rect x="326.922" y="312.409" transform="matrix(0.1577 -0.9875 0.9875 0.1577 -52.4485 603.3189)" width="1" height="39.988"/>
					</g>
				</g>
				<g>
					<g>
						<g>
							<path style="fill:#FFFFFF;" d="M355.238,266.888c4.682-21.579,14.545-38.952,24.871-45.883         c4.03-2.695,8.114-3.801,12.013-2.952c13.865,3.016,19.83,29.772,13.325,59.757c-6.505,29.984-23.019,51.851-36.883,48.835         c-3.69-0.803-6.817-3.279-9.289-7.033C352.412,309.198,350.458,288.92,355.238,266.888z"/>
							<path d="M371.181,327.425c-0.919,0-1.828-0.096-2.724-0.291c-3.74-0.814-6.97-3.253-9.601-7.248         c-7.143-10.838-8.755-31.683-4.107-53.104l0,0c4.598-21.194,14.209-38.893,25.082-46.192         c4.284-2.865,8.455-3.882,12.397-3.026c14.111,3.07,20.261,30.143,13.707,60.351c-3.161,14.571-8.762,27.707-15.771,36.988         C383.993,323.075,377.353,327.425,371.181,327.425z M355.726,266.994c-4.593,21.171-3.036,41.717,3.967,52.342         c2.482,3.769,5.502,6.064,8.978,6.82c6.511,1.418,13.854-2.796,20.696-11.855c6.924-9.168,12.461-22.165,15.593-36.597         c6.436-29.67,0.63-56.21-12.943-59.162c-3.665-0.797-7.579,0.171-11.628,2.879         C369.883,228.472,360.202,246.36,355.726,266.994L355.726,266.994z"/>
						</g>
						<g>
							<path d="M359.274,319.611c13.453,1.15,28.44-17.99,34.106-44.11c0.186-0.857,0.359-1.712,0.521-2.563l-20.725-5.886         l22.278-6.967c1.012-19.838-4.876-35.823-15.345-39.08c-10.326,6.931-20.19,24.304-24.871,45.883         C350.458,288.92,352.412,309.198,359.274,319.611z"/>
							<path d="M360.418,320.16c-0.398,0-0.792-0.017-1.187-0.05l-0.241-0.021l-0.134-0.203         c-7.143-10.838-8.755-31.683-4.107-53.104c4.598-21.194,14.209-38.893,25.082-46.192l0.198-0.133l0.229,0.071         c10.43,3.245,16.737,19.151,15.695,39.583l-0.018,0.348l-21.011,6.57l19.554,5.553l-0.086,0.449         c-0.163,0.856-0.337,1.714-0.523,2.576C388.363,300.988,373.85,320.16,360.418,320.16z M359.559,319.131         c0.293,0.02,0.587,0.029,0.882,0.029c12.963,0,27.044-18.838,32.452-43.766c0.151-0.703,0.295-1.403,0.431-2.101         l-21.896-6.219l23.545-7.362c0.924-19.648-4.99-34.906-14.783-38.156c-10.428,7.143-20.015,24.936-24.463,45.438         C351.162,288.03,352.671,308.449,359.559,319.131z"/>
						</g>
					</g>
					<g>
						<g>
							<path style="fill:#FFFFFF;" d="M273.806,251.832c3.754-21.747,12.865-39.499,22.886-46.835         c3.911-2.854,7.944-4.12,11.876-3.428c13.981,2.462,21.087,28.958,15.87,59.177c-5.217,30.219-20.781,52.725-34.762,50.263         c-3.721-0.655-6.951-3.005-9.581-6.658C272.792,294.22,269.973,274.035,273.806,251.832z"/>
							<path d="M291.813,311.695c-0.746,0-1.488-0.064-2.225-0.194c-3.772-0.664-7.102-2.972-9.9-6.858         c-7.6-10.544-10.102-31.307-6.376-52.896l0.493,0.085l-0.493-0.085c3.688-21.36,12.532-39.429,23.084-47.153         c4.158-3.034,8.278-4.218,12.258-3.517c14.23,2.505,21.531,29.311,16.276,59.754c-3.689,21.375-12.904,39.989-23.476,47.421         C298.197,310.543,294.964,311.695,291.813,311.695z M306.427,201.881c-3.065,0-6.231,1.179-9.44,3.519         c-10.192,7.462-19.099,25.721-22.688,46.516l0,0c-3.684,21.338-1.25,41.805,6.201,52.142         c2.641,3.668,5.757,5.841,9.263,6.458c3.576,0.627,7.314-0.409,11.117-3.082c10.365-7.288,19.419-25.648,23.065-46.774         c5.162-29.902-1.774-56.189-15.464-58.6C307.802,201.941,307.116,201.881,306.427,201.881z"/>
						</g>
						<g>
							<path d="M280.094,304.351c13.49,0.614,27.645-19.107,32.189-45.432c0.149-0.864,0.285-1.724,0.41-2.582l-20.958-5.056         l21.961-7.847c0.162-19.862-6.405-35.6-17.004-38.437c-10.021,7.336-19.132,25.088-22.886,46.835         C269.973,274.035,272.792,294.22,280.094,304.351z"/>
							<path d="M280.701,304.864c-0.21,0-0.419-0.004-0.629-0.014l-0.242-0.011l-0.141-0.196         c-7.601-10.544-10.103-31.307-6.377-52.896c3.688-21.36,12.532-39.429,23.084-47.153l0.192-0.142l0.231,0.062         c10.561,2.827,17.543,18.469,17.376,38.924l-0.003,0.35l-20.712,7.4l19.772,4.77l-0.065,0.451         c-0.126,0.862-0.263,1.727-0.412,2.595C308.3,284.939,294.299,304.864,280.701,304.864z M280.358,303.86         c0.118,0.003,0.237,0.005,0.355,0.005c13.116,0,26.682-19.567,31.076-45.031c0.123-0.708,0.236-1.414,0.342-2.118         l-22.143-5.342l23.209-8.293c0.083-19.669-6.48-34.678-16.405-37.538c-10.112,7.551-18.928,25.71-22.494,46.373         C270.638,273.119,273.019,293.461,280.358,303.86z"/>
						</g>
					</g>
				</g>
			</g>
		</g>
	</g>
</g>















</svg>
