<?xml version="1.0" encoding="UTF-8"?>
<!-- Generator: Adobe Illustrator 27.1.1, SVG Export Plug-In . SVG Version: 6.00 Build 0)  -->
<svg xmlns="http://www.w3.org/2000/svg" xmlns:xlink="http://www.w3.org/1999/xlink" version="1.1" id="Capa_1" x="0px" y="0px" viewBox="0 0 510.245 510.245" style="enable-background:new 0 0 510.245 510.245;" xml:space="preserve" width="512" height="512">
<g>
	<g>
		<rect x="21.112" y="419.479" width="467.957" height="1"/>
	</g>
	<g>
		<g>
			<path d="M109.761,475.388c-0.213-2.085-3.498-2.106-3.284-0.006c0.929,9.093-4.646,17.641-13.408,20.411     c-6.878,2.175-13.814-0.403-15.856-7.697c-0.9-3.216-0.933-6.274-0.049-9.214c0.027,0,0.052,0.007,0.079,0.007     c3.009,0.049,5.884-0.758,8.623-1.947c2.099-0.912,5.025-2.357,5.461-4.877c0.499-2.89-2.837-4.801-5.263-5.161     c-2.997-0.445-5.739,1.244-7.701,3.375c-1.448,1.573-2.553,3.284-3.378,5.086c-0.445-0.074-0.89-0.139-1.331-0.253     c-6.002-1.55-11.147-6.585-11.986-12.862c-0.742-5.557,3.579-8.888,8.649-9.894c1.318,1.837,2.958,3.426,4.855,4.51     c3.791,2.165,7.819,1.202,9.357-3.057c0.18-0.497-0.003-1.259-0.419-1.598c-3.366-2.745-7.805-3.754-12.118-3.37     c-1.328-2.393-2.032-5.158-1.635-7.845c0.676-4.575,4.703-8.94,9.222-9.921c9.112-1.978,18.026,7.749,20.687,15.498     c0.683,1.99,3.856,1.136,3.168-0.867c-2.204-6.419-6.937-12.206-12.853-15.563c-4.967-2.819-11.108-3.671-16.115-0.455     c-5.089,3.269-8.236,9.145-7.291,15.192c0.241,1.544,0.748,3.089,1.436,4.565c-1.038,0.28-2.058,0.612-3.022,1.056     c-6.693,3.083-8.741,9.893-5.963,16.537c2.471,5.91,8.018,10.207,14.245,11.455c-0.684,2.701-0.779,5.563-0.267,8.51     c0.815,4.694,3.357,9.197,7.749,11.36c4,1.971,8.72,1.892,12.891,0.498C104.135,495.557,110.829,485.849,109.761,475.388z      M74.356,452.048c2.383,0.102,4.671,0.711,6.473,1.83C79.2,455.979,75.968,453.696,74.356,452.048z M78.617,475.522     c0.123-0.216,0.227-0.433,0.361-0.647c1.211-1.935,3.096-4.354,5.519-4.729c1.151-0.178,2.205,0.234,3.14,0.883     c0.689,0.478,0.517,0.539-0.034,1.114c-1.458,1.522-4.06,2.313-6.027,2.878C80.604,475.301,79.612,475.445,78.617,475.522z"/>
		</g>
		<g>
			<path d="M112.282,467.172h0.004l57.788,0.104c0.978,0.003,1.769,0.795,1.765,1.772c-0.003,0.974-0.794,1.765-1.769,1.765h-0.003     l-57.788-0.104c-0.978-0.004-1.769-0.795-1.765-1.772C110.517,467.964,111.308,467.172,112.282,467.172z"/>
		</g>
		<g>
			<path d="M113.263,451.613h0.003l36.197,0.066c0.978,0.003,1.769,0.795,1.765,1.772c-0.004,0.974-0.795,1.765-1.769,1.765h-0.003     l-36.197-0.066c-0.978-0.004-1.769-0.795-1.765-1.772C111.498,452.404,112.289,451.613,113.263,451.613z"/>
		</g>
	</g>
	<g>
		<g>
			<g>
				<g>
					<path d="M195.565,425.276c0.083-1.335,0.322-2.668,0.751-3.959l2.107-11.115l25.919,5.122       c18.335,3.039,37.205,2.559,55.652,2.04c19.519-0.55,46.366-3.344,48.706-30.285c1.462-16.828-20.483-64.159-32.209-78.504       l24.413-9.157c14.408,20.636,36.76,78.274,28.66,103.368c-8.748,27.105-32.197,37.726-56.633,39.7       c-25.412,2.054-51.94,2.418-77.215-2.612c9.328,18.271,16.569,50.066-34.998,63.715L195.565,425.276z"/>
					<path d="M180.079,504.274l14.989-79.061c0.091-1.417,0.351-2.78,0.773-4.054l2.184-11.546l26.414,5.22       c18.533,3.071,38.192,2.518,55.541,2.029c22.619-0.637,46.037-4.679,48.222-29.828c1.404-16.17-20.181-63.564-32.098-78.146       l-0.441-0.54l25.429-9.537l0.223,0.318c14.948,21.411,36.854,78.627,28.726,103.808c-5.356,16.599-19.606,37.02-57.068,40.045       c-30.663,2.479-54.967,1.71-76.351-2.424c4.897,9.913,9.232,24.093,3.438,37.068c-5.398,12.089-18.591,20.985-39.212,26.443       L180.079,504.274z M198.82,410.79l-2.013,10.62c-0.415,1.266-0.659,2.555-0.743,3.897l-0.008,0.061l-14.699,77.529       c19.874-5.392,32.585-14.028,37.787-25.678c5.814-13.02,1.103-27.372-3.874-37.12l-0.469-0.919l1.012,0.201       c21.532,4.286,46.021,5.112,77.077,2.605c36.911-2.982,50.934-23.048,56.197-39.355c7.862-24.359-13.9-81.617-28.373-102.61       l-23.402,8.777c5.77,7.302,14.008,22.378,20.686,37.898c7.778,18.074,11.86,32.808,11.198,40.424       c-2.252,25.933-26.13,30.093-49.19,30.742c-17.39,0.489-37.103,1.044-55.747-2.046L198.82,410.79z"/>
				</g>
				<g>
					<path style="fill:#00C257;" d="M234.214,442.612c0.937-8.552,1.211-17.209,1.509-25.859c-3.81-0.358-7.609-0.804-11.382-1.429       l-25.919-5.122l-2.107,11.115c-0.428,1.291-0.668,2.624-0.751,3.959l-14.847,78.312c51.567-13.649,44.326-45.444,34.998-63.715       C221.819,441.088,227.998,441.974,234.214,442.612z"/>
					<path d="M180.079,504.274l14.995-79.091c0.081-1.366,0.342-2.741,0.767-4.023l2.184-11.546l26.413,5.22       c3.354,0.555,7.065,1.021,11.332,1.421l0.469,0.044l-0.049,1.43c-0.283,8.201-0.575,16.683-1.48,24.939l-0.054,0.493       l-0.494-0.051c-6.127-0.628-12.023-1.485-17.542-2.55c4.897,9.913,9.232,24.093,3.438,37.068       c-5.398,12.089-18.591,20.985-39.212,26.443L180.079,504.274z M198.82,410.79l-2.014,10.62       c-0.415,1.266-0.659,2.555-0.743,3.897l-14.706,77.591c19.874-5.392,32.585-14.028,37.787-25.678       c5.814-13.02,1.103-27.372-3.874-37.12l-0.469-0.919l1.012,0.201c5.627,1.12,11.666,2.022,17.956,2.681       c0.859-8.063,1.145-16.35,1.421-24.37l0.017-0.487c-4.093-0.393-7.679-0.847-10.947-1.389L198.82,410.79z"/>
				</g>
				<g>
					<g>
						
							<rect x="221.473" y="432.518" transform="matrix(0.0938 -0.9956 0.9956 0.0938 -222.5028 621.5729)" width="17.471" height="1"/>
					</g>
					<g>
						
							<rect x="213.402" y="431.268" transform="matrix(0.1113 -0.9938 0.9938 0.1113 -231.7742 604.3665)" width="17.223" height="1"/>
					</g>
				</g>
			</g>
			<g>
				<g>
					<path d="M199.423,330.015c35.383,40.468,67.573,104.589,86.448,156.864c0.587,1.624,8.246,22.716,8.246,22.716l83.927-32.186       c-36.884-41.669-59.211-16.278-69.086,2.019c-0.13-0.562-0.224-1.115-0.434-1.696       c-17.227-47.708-53.351-113.344-83.187-152.122L199.423,330.015z"/>
					<path d="M293.821,510.245l-0.174-0.478c0,0-7.66-21.093-8.247-22.718c-17.229-47.717-48.963-113.94-86.354-156.704       l-0.588-0.672l27.091-4.605l0.184,0.238c30.382,39.486,66.176,104.942,83.261,152.257c0.059,0.163,0.109,0.324,0.153,0.482       c5.672-10.129,15.085-21.966,28.595-23.523c12.476-1.435,26.154,6.151,40.675,22.557l0.479,0.54l-0.674,0.258L293.821,510.245z        M200.385,330.359c37.229,42.887,68.785,108.796,85.957,156.35c0.534,1.479,6.931,19.095,8.071,22.237l82.775-31.745       c-14.111-15.772-27.331-23.071-39.332-21.686c-13.594,1.567-22.978,13.999-28.458,24.15l-0.628,1.162l-0.392-1.701       c-0.092-0.419-0.178-0.815-0.325-1.224c-17.02-47.136-52.642-112.308-82.93-151.749L200.385,330.359z"/>
				</g>
				<g>
					<path style="fill:#00C257;" d="M308.958,479.428c-0.13-0.562-0.224-1.115-0.434-1.696c-1.367-3.786-2.785-7.539-4.226-11.277       c-6.641,3.256-19.817,9.23-22.197,10.314c1.288,3.352,2.547,6.721,3.771,10.11c0.587,1.624,8.246,22.716,8.246,22.716       l83.927-32.186C341.16,435.74,318.833,461.131,308.958,479.428z"/>
					<path d="M293.821,510.244l-0.174-0.478c0,0-7.66-21.093-8.247-22.717c-1.175-3.255-2.442-6.653-3.767-10.101l-0.169-0.439       l1.127-0.513c10.181-4.631,17.41-7.992,21.486-9.991l0.49-0.24l0.196,0.51c1.645,4.267,2.988,7.854,4.229,11.288       c0.059,0.163,0.109,0.324,0.153,0.482c5.672-10.129,15.085-21.966,28.595-23.523c12.476-1.435,26.154,6.151,40.676,22.558       l0.479,0.54l-0.674,0.258L293.821,510.244z M282.736,477.028c1.266,3.304,2.478,6.558,3.605,9.681       c0.534,1.479,6.931,19.094,8.071,22.236l82.776-31.743c-14.111-15.772-27.345-23.072-39.333-21.688       c-13.594,1.568-22.979,13.999-28.458,24.15l-0.628,1.162l-0.392-1.701c-0.092-0.419-0.178-0.815-0.325-1.224       c-1.188-3.291-2.473-6.723-4.026-10.76c-6.261,3.05-17.322,8.081-21.021,9.764L282.736,477.028z"/>
				</g>
				<g>
					<g>
						
							<rect x="293.605" y="472.345" transform="matrix(0.9128 -0.4085 0.4085 0.9128 -167.0028 163.7063)" width="12.335" height="0.999"/>
					</g>
					<g>
						
							<rect x="296.232" y="478.768" transform="matrix(0.9128 -0.4085 0.4085 0.9128 -169.3975 165.3402)" width="12.335" height="0.999"/>
					</g>
				</g>
			</g>
		</g>
		<g>
			<g>
				<g>
					<path style="fill:#AD2328;" d="M253.698,346.523c0.024-0.003,0.024-0.003,0.045-0.03c5.256-1.299,10.458-2.641,15.582-4.022       c3.302-0.866,6.575-1.778,9.824-2.687c5.259-1.471,10.44-2.982,15.542-4.558c39.881-12.095,74.84-26.126,104.599-39.994       c2.332-1.093,4.665-2.186,6.95-3.273c11.627-5.558,19.91-16.387,22.298-29.205c0.776-4.172,1.511-8.683,2.163-13.479       c0.145-1.197,0.314-2.396,0.457-3.618c0.442-3.738,0.839-7.643,1.169-11.712c0.018-0.248,0.037-0.496,0.055-0.744       c0.149-1.762,0.269-3.57,0.362-5.399c0.108-1.905,0.186-3.855,0.264-5.805c0.117-3.429,0.201-6.928,0.175-10.536       c0.008-1.131-0.01-2.283-0.029-3.436c-0.071-4.585-0.258-9.329-0.579-14.179c-0.147-2.414-0.348-4.871-0.575-7.35       c-0.481-5.175-1.122-10.477-1.945-15.881c-1.287-8.443-3.017-17.151-5.282-26.09c-2.25-8.818-4.835-17.202-7.68-25.137       c-0.938-2.564-1.871-5.08-2.845-7.542c-0.033-0.07-0.044-0.167-0.101-0.233c-0.628-1.595-1.279-3.187-1.928-4.754       c-1.371-3.347-2.802-6.589-4.272-9.752c-0.72-1.559-1.437-3.094-2.173-4.577c-2.543-5.244-5.146-10.187-7.792-14.879       c-0.557-1.013-1.139-2.024-1.717-3.011c-1.16-1.997-2.311-3.921-3.459-5.822c-0.573-0.938-1.145-1.876-1.738-2.787       c-3.471-5.525-6.934-10.585-10.271-15.193c-0.751-1.015-1.502-2.029-2.223-2.999c-1.469-1.96-2.906-3.849-4.304-5.621       c-7.986-10.089-20.15-15.767-32.877-15.308c-2.357,0.089-4.715,0.177-7.117,0.296c-33.399,1.558-71.876,5.475-113.973,13.834       c-4.013,0.78-8.069,1.615-12.165,2.503c-0.378,0.07-0.729,0.162-1.105,0.256c-6.336,1.356-12.752,2.844-19.232,4.414       l-4.058,1.007c-50.918,12.743-94.971,29.298-131.5,45.926c-11.611,5.286-22.476,10.555-32.578,15.732       c0.161-0.069,0.325-0.113,0.488-0.157c7.81-1.952,17.818,7.868,28.05,25.743c9.097,15.875,18.356,38.094,26.472,64.038       c3.093,9.993,6.061,20.542,8.739,31.494c2.527,10.307,4.689,20.388,6.497,30.144c4.617,24.991,6.855,47.69,6.71,65.666       c-0.219,23.561-4.55,39.096-13.018,41.201c-0.539,0.139-1.108,0.232-1.661,0.25c12.122-0.262,25.076-0.846,38.78-1.816       C159.797,364.686,204.797,358.555,253.698,346.523z"/>
					<path d="M81.951,369.762l-0.026-1c0.485-0.016,1.008-0.094,1.552-0.234c7.929-1.971,12.417-16.432,12.643-40.722       c0.148-18.363-2.168-41.038-6.702-65.57c-1.836-9.906-4.02-20.039-6.491-30.115c-2.518-10.298-5.455-20.884-8.73-31.466       c-8.028-25.664-17.167-47.773-26.429-63.937c-10.457-18.268-20.221-27.329-27.495-25.507c-0.133,0.035-0.275,0.073-0.414,0.132       l-0.424-0.905c10.465-5.362,21.434-10.659,32.599-15.742c42.177-19.198,86.449-34.66,131.586-45.956l4.059-1.007       c7.11-1.722,13.405-3.167,19.248-4.418l0.097-0.024c0.343-0.087,0.671-0.17,1.021-0.234c4.096-0.888,8.192-1.73,12.162-2.503       c37.223-7.391,75.594-12.048,114.044-13.842c2.403-0.118,4.763-0.208,7.122-0.297c12.765-0.439,25.241,5.333,33.287,15.498       c1.224,1.55,2.594,3.339,4.313,5.632l2.225,3.001c3.646,5.034,7.107,10.155,10.293,15.225c0.591,0.908,1.167,1.85,1.741,2.792       c1.15,1.905,2.303,3.831,3.465,5.831c0.579,0.988,1.162,2.003,1.723,3.021c2.738,4.857,5.365,9.872,7.804,14.902       c0.748,1.51,1.488,3.096,2.177,4.585c1.583,3.407,2.983,6.604,4.281,9.772c0.642,1.55,1.286,3.126,1.908,4.705       c0.059,0.093,0.087,0.182,0.105,0.241c1.015,2.568,1.977,5.167,2.867,7.601c2.917,8.136,5.505,16.608,7.694,25.185       c2.179,8.598,3.959,17.392,5.292,26.139c0.801,5.264,1.457,10.616,1.948,15.909c0.254,2.77,0.442,5.18,0.576,7.365       c0.311,4.72,0.507,9.498,0.58,14.201c0.019,1.156,0.037,2.312,0.029,3.448c0.028,3.965-0.079,7.721-0.176,10.548       c-0.079,1.961-0.157,3.913-0.266,5.817c-0.094,1.852-0.216,3.675-0.362,5.413l-0.055,0.738       c-0.312,3.855-0.706,7.802-1.172,11.734c-0.08,0.693-0.169,1.381-0.258,2.066c-0.068,0.52-0.135,1.037-0.198,1.554       c-0.621,4.568-1.351,9.111-2.168,13.51c-2.404,12.904-10.844,23.956-22.574,29.564c-2.287,1.088-4.62,2.181-6.954,3.274       c-33.744,15.726-68.959,29.189-104.665,40.02c-4.852,1.498-9.94,2.99-15.552,4.561c-3.486,0.975-6.633,1.85-9.832,2.688       c-5.025,1.354-10.213,2.693-15.419,3.982l-0.021,0.027l-0.195,0.043l0.001,0.002c-43.636,10.737-88.405,17.781-133.062,20.938       c-13.205,0.934-26.258,1.544-38.799,1.816l0,0C81.955,369.762,81.953,369.762,81.951,369.762z M22.53,109.983       c7.42,0.261,16.376,9.24,26.107,26.238c9.296,16.225,18.465,38.402,26.515,64.137c3.282,10.601,6.225,21.208,8.747,31.524       c2.475,10.095,4.663,20.246,6.503,30.172c4.544,24.594,6.867,47.334,6.718,65.761c-0.21,22.637-4.196,36.946-11.291,40.852       c11.323-0.307,23.028-0.884,34.856-1.72c44.551-3.148,89.216-10.172,132.751-20.875l0.012-0.016l0.174-0.05       c5.256-1.299,10.495-2.651,15.572-4.019c3.195-0.839,6.338-1.712,9.819-2.686c5.603-1.568,10.682-3.058,15.528-4.554       c35.664-10.817,70.834-24.265,104.535-39.97c2.331-1.092,4.662-2.184,6.946-3.27c11.443-5.471,19.676-16.254,22.022-28.846       c0.814-4.382,1.541-8.908,2.159-13.454c0.061-0.513,0.13-1.033,0.197-1.555c0.089-0.68,0.178-1.363,0.257-2.053       c0.465-3.921,0.857-7.855,1.168-11.695l0.055-0.74c0.146-1.732,0.267-3.543,0.361-5.388c0.108-1.902,0.186-3.849,0.264-5.793       c0.097-2.822,0.203-6.564,0.176-10.519c0.008-1.136-0.011-2.284-0.029-3.433c-0.073-4.687-0.268-9.448-0.578-14.153       c-0.133-2.178-0.32-4.577-0.574-7.337c-0.489-5.273-1.143-10.607-1.94-15.851c-1.329-8.715-3.103-17.477-5.272-26.042       c-2.182-8.546-4.761-16.988-7.666-25.091c-0.887-2.424-1.846-5.016-2.84-7.527l-0.101-0.233       c-0.627-1.593-1.277-3.182-1.925-4.746c-1.293-3.156-2.688-6.339-4.264-9.732c-0.685-1.483-1.423-3.063-2.168-4.566       c-2.432-5.015-5.048-10.012-7.779-14.855c-0.558-1.014-1.137-2.021-1.713-3.003c-1.159-1.996-2.31-3.918-3.455-5.815       c-0.569-0.933-1.14-1.866-1.729-2.773c-3.178-5.058-6.628-10.159-10.258-15.172l-2.219-2.993       c-1.713-2.285-3.078-4.068-4.296-5.61c-7.85-9.915-19.965-15.566-32.467-15.118c-2.354,0.089-4.71,0.177-7.11,0.295       c-38.402,1.793-76.723,6.444-113.9,13.825c-3.963,0.771-8.053,1.612-12.157,2.501c-0.343,0.064-0.65,0.143-0.972,0.224       l-0.116,0.029c-5.852,1.254-12.138,2.696-19.236,4.416l-4.055,1.006c-45.078,11.28-89.292,26.723-131.414,45.896       C42.232,100.258,32.181,105.088,22.53,109.983z M253.698,346.519l0.001,0.004L253.698,346.519z"/>
				</g>
				<g>
					<g>
						<path d="M48.394,136.924l-0.4-0.916c54.211-23.662,110.68-43.264,167.839-58.263c53.362-14.014,108.1-24.242,162.695-30.401        l0.111,0.994c-54.547,6.153-109.237,16.373-162.552,30.374C158.978,93.698,102.558,113.283,48.394,136.924z"/>
					</g>
					<g>
						<path d="M74.847,200.963l-0.398-0.918c53.464-23.206,109.197-42.489,165.65-57.314c57.062-14.977,115.6-25.614,173.99-31.614        l0.102,0.994c-58.338,5.996-116.825,16.623-173.837,31.587C183.948,158.509,128.264,177.776,74.847,200.963z"/>
					</g>
					<g>
						<path d="M90.018,262.623l-0.214-0.977c52.107-11.388,104.168-24.22,154.737-38.143        c61.556-16.923,123.694-36.206,184.687-57.312l0.326,0.945c-61.013,21.113-123.171,40.402-184.748,57.332        C194.22,238.395,142.142,251.232,90.018,262.623z"/>
					</g>
					<g>
						<path d="M96.713,328.305l-0.212-0.977c52.315-11.352,105.118-24.345,156.941-38.619        c59.702-16.418,119.833-35.005,178.724-55.243l0.324,0.945c-58.909,20.245-119.061,38.839-178.782,55.263        C201.867,303.953,149.046,316.951,96.713,328.305z"/>
					</g>
				</g>
				<g>
					<g>
						<path style="fill:#FF8806;" d="M401.49,285.93c-0.437,3.251-1.182,6.352-2.213,9.299c2.351-1.09,4.679-2.175,6.955-3.271        c11.634-5.546,19.916-16.388,22.304-29.199c5.095-27.537,8.563-69.647-3.769-118.238        c-11.861-46.673-33.633-80.892-50.501-102.287c-7.989-10.092-20.157-15.773-32.867-15.311        c-2.351,0.085-4.725,0.176-7.117,0.296c1.804,1.811,3.485,3.829,5.027,5.982c17.735,24.923,44.979,66.56,58.467,120.091        C415.103,222.065,405.701,254.794,401.49,285.93z"/>
						<path d="M398.415,296.179l0.391-1.115c1.025-2.935,1.763-6.029,2.189-9.2v-0.001c0.559-4.13,1.197-8.22,1.874-12.55        c4.42-28.281,9.429-60.336-5.578-119.898c-13.241-52.551-39.665-93.61-58.39-119.923c-1.562-2.183-3.237-4.175-4.975-5.92        l-0.792-0.796l1.121-0.056c2.395-0.12,4.771-0.212,7.125-0.297c12.781-0.443,25.226,5.33,33.276,15.5        c24.042,30.494,41.064,64.972,50.594,102.475c9.722,38.304,11.027,79.264,3.776,118.452        c-2.407,12.916-10.848,23.966-22.58,29.559c-2.276,1.097-4.605,2.183-6.96,3.274L398.415,296.179z M401.985,285.998        c-0.382,2.841-1.009,5.624-1.864,8.289c1.99-0.925,3.961-1.848,5.895-2.779c11.445-5.457,19.681-16.237,22.029-28.84        c7.224-39.047,5.923-79.859-3.763-118.023c-9.495-37.366-26.455-71.718-50.409-102.101        c-7.853-9.92-19.959-15.582-32.456-15.12c-1.986,0.071-3.99,0.147-6.007,0.242c1.499,1.583,2.943,3.344,4.305,5.245        c18.772,26.38,45.264,67.545,58.545,120.26c15.058,59.76,10.031,91.921,5.598,120.297        C403.182,277.793,402.543,281.878,401.985,285.998L401.985,285.998z"/>
					</g>
					<g>
						<path style="fill:#FF8806;" d="M269.325,342.471c3.302-0.866,6.575-1.778,9.824-2.687c5.259-1.471,10.44-2.982,15.542-4.558        c-0.362-17.374-1.422-36.334-3.564-56.638c-2.129-20.403-5.334-42.101-9.997-64.876        c-4.436-21.696-10.174-44.366-17.542-67.722c-0.858-2.697-1.713-5.369-2.588-8.015c-7.74-23.434-16.298-45.05-25.185-64.783        c-5.091-11.324-10.278-22.046-15.511-32.149c-4.013,0.78-8.069,1.615-12.165,2.503c-0.378,0.07-0.729,0.162-1.105,0.256        c-2.397,0.56-4.788,1.169-7.203,1.78l-4.05,1.08c5.254,10.272,10.515,21.207,15.635,32.773        c8.818,19.766,17.279,41.369,24.923,64.815c0.615,1.891,1.231,3.782,1.825,5.7c7.72,24.468,13.652,48.146,18.179,70.789        l0.003,0.024c4.55,22.837,7.641,44.598,9.696,64.986C268.069,306.117,269.038,325.113,269.325,342.471z"/>
						<path d="M268.836,343.117l-0.011-0.638c-0.312-18.879-1.416-37.949-3.281-56.679c-2.208-21.903-5.468-43.751-9.689-64.937        c-4.768-23.859-10.88-47.658-18.169-70.762c-0.594-1.918-1.208-3.807-1.823-5.695c-7.187-22.044-15.566-43.835-24.904-64.765        c-4.808-10.861-10.064-21.88-15.624-32.75l-0.282-0.551l5.085-1.35c2.271-0.575,4.523-1.146,6.78-1.674l0.106-0.026        c0.343-0.087,0.671-0.17,1.021-0.234c4.096-0.888,8.193-1.73,12.162-2.503l0.367-0.071l0.172,0.333        c5.317,10.264,10.54,21.089,15.523,32.174c9.437,20.956,17.917,42.769,25.204,64.831c0.877,2.647,1.731,5.321,2.59,8.02        c6.976,22.113,12.882,44.915,17.556,67.773c4.369,21.338,7.735,43.182,10.004,64.925c1.974,18.702,3.174,37.772,3.567,56.679        l0.008,0.377l-0.36,0.111c-4.854,1.499-9.942,2.991-15.554,4.562c-3.486,0.975-6.633,1.85-9.832,2.688L268.836,343.117z         M196.507,46.988c5.463,10.707,10.631,21.554,15.365,32.247c9.351,20.961,17.743,42.783,24.941,64.861        c0.616,1.893,1.232,3.786,1.827,5.706c7.299,23.136,13.42,46.97,18.192,70.841c4.231,21.242,7.496,43.122,9.706,65.058        c1.848,18.547,2.949,37.426,3.276,56.125c2.982-0.788,5.942-1.612,9.2-2.522c5.464-1.529,10.431-2.983,15.168-4.442        c-0.4-18.756-1.596-37.668-3.554-56.219c-2.266-21.711-5.627-43.522-9.99-64.828c-4.666-22.825-10.563-45.593-17.528-67.672        c-0.856-2.694-1.711-5.364-2.586-8.008c-7.276-22.031-15.743-43.811-25.166-64.735c-4.922-10.948-10.078-21.643-15.327-31.792        c-3.847,0.751-7.81,1.567-11.788,2.429c-0.343,0.064-0.65,0.143-0.972,0.224l-0.116,0.029        c-2.259,0.529-4.505,1.098-6.77,1.671L196.507,46.988z"/>
					</g>
					<g>
						<path style="fill:#FF8806;" d="M120.724,367.457c1.686-36.789-0.234-86.248-14.474-142.304        c-13.99-55.139-35.348-98.835-54.001-130.013c-11.622,5.292-32.259,15.627-32.096,15.586        c17.436-4.357,45.747,49.942,63.267,121.263c17.52,71.322,17.618,132.672,0.182,137.029        C83.066,369.152,107.025,368.417,120.724,367.457z"/>
						<path d="M85.006,369.528c-0.559,0-0.95-0.014-1.225-0.039c-0.02,0.005-0.039,0.01-0.059,0.015l-0.005-0.022        c-0.568-0.062-0.588-0.19-0.618-0.381l-0.072-0.453l0.453-0.115c17.126-4.28,16.881-65.48-0.546-136.425        C68.296,172.517,45.84,123.524,28.326,112.966c-2.932-1.768-5.641-2.357-8.052-1.755l-0.442,0.11l-0.151-0.431        c-0.059-0.166-0.097-0.275,0.367-0.587l-0.016-0.063c0.06-0.015,0.12-0.029,0.18-0.043c1.042-0.647,3.895-2.05,11.421-5.749        c5.943-2.921,14.307-6.985,20.409-9.764l0.407-0.186l0.229,0.384c24.236,40.509,42.424,84.296,54.057,130.147        c11.815,46.51,16.689,94.438,14.489,142.45l-0.021,0.445l-0.444,0.031c-7.754,0.543-18.148,0.974-23.654,1.182        C90.264,369.396,86.786,369.528,85.006,369.528z M22.689,109.996c1.94,0.108,4,0.815,6.154,2.113        c17.723,10.685,40.366,59.932,55.062,119.761c8.485,34.539,13.178,67.832,13.214,93.744        c0.033,23.59-3.84,38.587-10.975,42.878c6.317-0.16,23.189-0.754,34.101-1.503c2.146-47.766-2.726-95.443-14.479-141.714        C94.193,179.664,76.121,136.097,52.049,95.78C42.846,99.987,28.284,107.19,22.689,109.996z"/>
					</g>
				</g>
			</g>
			<g>
				<g>
					
						<ellipse transform="matrix(0.9712 -0.2383 0.2383 0.9712 -55.669 19.2757)" style="fill:#AD2328;" cx="51.886" cy="239.874" rx="32.511" ry="132.98"/>
					<path d="M81.603,369.759c-2.09,0-4.326-0.712-6.674-2.127C57.2,356.945,34.555,307.7,19.859,247.876       c-8.483-34.532-13.173-67.824-13.208-93.743c-0.035-26.133,4.721-41.718,13.39-43.885c2.673-0.67,5.637-0.04,8.802,1.868       c17.728,10.688,40.373,59.933,55.069,119.757c8.483,34.532,13.173,67.824,13.208,93.743       c0.035,26.133-4.721,41.718-13.39,43.885C83.04,369.673,82.33,369.759,81.603,369.759z M83.488,368.53l0.121,0.485       L83.488,368.53c17.125-4.279,16.88-65.477-0.546-136.419c-14.638-59.586-37.096-108.577-54.614-119.139       c-2.93-1.767-5.638-2.357-8.044-1.754c-17.125,4.279-16.88,65.478,0.546,136.419c14.638,59.586,37.096,108.577,54.614,119.139       C78.375,368.542,81.079,369.132,83.488,368.53z"/>
				</g>
				<g>
					
						<ellipse transform="matrix(0.9712 -0.2384 0.2384 0.9712 -55.6236 19.039)" style="fill:#FF8806;" cx="50.907" cy="239.502" rx="22.872" ry="108.309"/>
					<path d="M75.525,345.333c-1.317,0-2.725-0.448-4.204-1.34c-12.796-7.714-30.918-49.276-43.089-98.826       c-14.556-59.251-15.998-108.153-3.283-111.332c1.687-0.42,3.551-0.024,5.544,1.176c12.796,7.715,30.918,49.277,43.089,98.827       c14.556,59.252,15.998,108.154,3.284,111.332C76.431,345.278,75.983,345.333,75.525,345.333z M26.288,134.673       c-0.377,0-0.743,0.044-1.097,0.133c-5.592,1.398-8.415,13.873-7.745,34.228c0.688,20.88,4.863,47.833,11.756,75.896       c12.114,49.315,30.045,90.618,42.635,98.208c1.758,1.061,3.368,1.421,4.787,1.062c5.592-1.397,8.415-13.872,7.745-34.227       c-0.688-20.88-4.863-47.834-11.757-75.896c-12.115-49.315-30.045-90.619-42.635-98.209       C28.658,135.072,27.422,134.673,26.288,134.673z"/>
				</g>
			</g>
			<g>
				<path style="fill:#AD2328;" d="M61.173,247.524c3.565,14.84,2.612,27.793-2.129,28.932c-4.741,1.139-11.473-9.968-15.038-24.808      c-3.565-14.84-2.612-27.793,2.129-28.931C50.876,221.578,57.608,232.685,61.173,247.524z"/>
				<path d="M58.376,277.034c-4.988,0-11.357-10.704-14.856-25.269c-3.685-15.34-2.587-28.314,2.499-29.535      c5.083-1.218,11.956,9.837,15.641,25.177l0,0c1.735,7.227,2.468,14.243,2.062,19.758c-0.419,5.699-2.039,9.172-4.561,9.777      C58.904,277.004,58.642,277.034,58.376,277.034z M46.841,223.134c-0.201,0-0.397,0.023-0.589,0.069      c-4.389,1.054-5.194,14.027-1.759,28.328c3.435,14.303,10.047,25.478,14.435,24.439c2.034-0.488,3.418-3.725,3.797-8.878      c0.398-5.414-0.325-12.322-2.038-19.45C57.402,233.967,51.213,223.134,46.841,223.134z"/>
			</g>
		</g>
		<g>
			<g>
				<g>
					<path d="M503.541,163.068c-0.326,8.585-2.159,17.271-8.238,23.707c-5.988,6.355-15.164,8.748-23.646,8.493       c-13.809-0.407-26.956-4.746-39.737-9.736c-0.784-8.096-1.955-16.487-3.615-25.123c0.071,0.031,0.153,0.061,0.224,0.092       c8.452,3.432,16.885,6.976,25.673,9.491c6.67,1.915,15.561,4.715,22.547,2.77c6.192-1.721,4.868-11.1,4.623-16.131       c-0.489-9.613-3.422-19.553-6.752-28.535c-6.996-18.88-16.172-36.091-26.019-53.617c-6.945-12.363,11.843-23.993,18.83-11.569       c9.114,16.202,18.3,32.282,24.858,49.737C498.357,128.8,504.213,145.531,503.541,163.068z"/>
				</g>
				<g>
					<g>
						<path style="fill:#FFFFFF;" d="M441.098,41.856c0,0-29.736-27.682-40.09-16.402c-8.149,8.878,26.783,30.56,26.783,30.56        L441.098,41.856z"/>
						<path d="M427.875,56.654l-0.348-0.216c-1.093-0.679-26.787-16.734-28.19-26.956c-0.232-1.701,0.205-3.17,1.304-4.366        c1.641-1.788,3.841-2.748,6.539-2.854c12.906-0.515,33.394,18.422,34.26,19.228l0.367,0.343L427.875,56.654z M407.694,23.252        c-0.16,0-0.318,0.003-0.476,0.009c-2.422,0.096-4.388,0.947-5.842,2.531c-0.899,0.98-1.242,2.142-1.049,3.554        c1.255,9.146,24.268,24.048,27.381,26.025l12.678-13.488C437.56,39.33,419.294,23.252,407.694,23.252z"/>
					</g>
					<g>
						<path style="fill:#FFFFFF;" d="M453.303,32.984c0,0-7.919-38.977-21.516-31.539c-13.597,7.438,7.244,40.321,7.244,40.321        L453.303,32.984z"/>
						<path d="M438.874,42.45l-0.264-0.417c-0.597-0.941-14.576-23.192-11.483-35.173c0.686-2.654,2.173-4.625,4.421-5.854        c2.234-1.223,4.468-1.331,6.64-0.321c9.895,4.597,15.378,31.074,15.606,32.199l0.069,0.343L438.874,42.45z M435.207,0.997        c-1.045,0-2.098,0.295-3.179,0.886c-1.996,1.092-3.319,2.851-3.934,5.227c-2.76,10.689,9.17,30.812,11.101,33.968        l13.546-8.336c-0.682-3.149-6.117-27.036-14.976-31.15C436.913,1.195,436.063,0.997,435.207,0.997z"/>
					</g>
					<g>
						<path style="fill:#FFFFFF;" d="M425.101,60.691c0,0-0.084,21.534,19.978,19.45c0,0-2.943,10.033,8.266,7.228        c11.209-2.806,30.485-15.896,19.677-22.16c0,0,13.06-20.999-9.529-32.462L425.101,60.691z"/>
						<path d="M449.827,88.362c-1.837,0-3.244-0.501-4.204-1.5c-1.772-1.845-1.454-4.812-1.189-6.161        c-5.518,0.442-10.023-0.888-13.396-3.938c-6.403-5.796-6.439-15.656-6.438-16.073l0.001-0.253l38.843-28.274l0.273,0.138        c6.886,3.494,11.203,8.223,12.832,14.055c2.395,8.572-1.739,16.718-2.85,18.683c2.271,1.456,3.263,3.322,2.948,5.552        c-0.972,6.892-14.523,15.097-23.184,17.265C452.109,88.192,450.896,88.362,449.827,88.362z M445.767,79.566l-0.209,0.715        c-0.011,0.039-1.111,3.916,0.789,5.891c1.252,1.302,3.566,1.541,6.876,0.711c8.203-2.053,21.534-10.035,22.436-16.434        c0.271-1.923-0.701-3.541-2.889-4.809l-0.445-0.259l0.271-0.438c0.056-0.091,5.565-9.12,2.989-18.328        c-1.531-5.471-5.584-9.939-12.048-13.285l-37.932,27.611c0.051,1.562,0.58,10.084,6.108,15.083        c3.292,2.977,7.767,4.192,13.312,3.618L445.767,79.566z"/>
					</g>
					<g>
						<path d="M445.159,80.634l-0.162-0.986c0.062-0.011,6.266-1.049,10.467-3.299l0.473,0.881        C451.586,79.559,445.42,80.591,445.159,80.634z"/>
					</g>
					<g>
						<path d="M465.118,71.55l-0.435-0.9c0.039-0.019,3.924-1.924,7.993-5.804l0.689,0.725        C469.177,69.564,465.282,71.47,465.118,71.55z"/>
					</g>
					<g>
						<path style="fill:#FFFFFF;" d="M459.462,23.359c-2.714,0.735-5.208,3.161-6.316,5.715c-1.647,3.795-0.796,8.168,0.54,11.732        c1.158,3.093,3.4,6.382,7.4,6.048c5.724-0.477,7.545-6.012,7.731-10.564c0.174-4.252-0.823-9.29-4.348-11.992        C462.898,23.096,461.138,22.905,459.462,23.359z"/>
						<path d="M460.546,47.378c-3.188,0-5.775-2.248-7.329-6.396c-1.778-4.748-1.957-8.821-0.53-12.107        c1.235-2.847,3.905-5.258,6.645-5.998l0,0c1.986-0.538,3.865-0.182,5.441,1.026c4.419,3.387,4.649,9.806,4.543,12.408        c-0.1,2.438-0.984,10.441-8.189,11.042C460.931,47.37,460.737,47.378,460.546,47.378z M461.089,23.635        c-0.487,0-0.987,0.068-1.496,0.206l0,0c-2.423,0.655-4.886,2.889-5.988,5.432c-1.32,3.04-1.136,6.861,0.548,11.357        c1.045,2.787,3.072,6.045,6.892,5.727c6.213-0.519,7.155-7.227,7.272-10.087c0.101-2.446-0.103-8.472-4.151-11.574        C463.246,23.993,462.202,23.635,461.089,23.635z"/>
					</g>
					<g>
						<path style="fill:#FFFFFF;" d="M425.065,60.967c1.303-11.052,16.939-22.23,22.834-26.171        c3.378-2.258,7.142-4.091,10.478-2.236c10.967,6.097-9.023,25.977-9.023,25.977s7.213,4.826,2.449,11.28"/>
						<path d="M452.206,70.113l-0.805-0.594c1.255-1.7,1.74-3.43,1.444-5.142c-0.562-3.235-3.737-5.404-3.77-5.426l-0.506-0.34        l0.432-0.43c0.132-0.131,13.185-13.22,12.099-21.058c-0.25-1.808-1.221-3.158-2.967-4.129        c-3.197-1.775-6.826,0.124-9.956,2.216c-7.936,5.305-21.425,15.713-22.617,25.814l-0.992-0.117        c1.238-10.5,14.975-21.128,23.053-26.529c3.184-2.127,7.31-4.309,10.999-2.257c2.011,1.118,3.179,2.755,3.471,4.865        c1.054,7.609-9.688,19.133-11.978,21.491c0.995,0.791,3.214,2.842,3.716,5.721C454.177,66.193,453.631,68.182,452.206,70.113z        "/>
					</g>
				</g>
			</g>
			<g>
				<g>
					<g>
						<g>
							<g>
								<path style="fill:#FFB500;" d="M259.713,283.549c3.938,16.769,8.452,34.205,13.634,52.216          c4.895,17.013,10.021,33.271,15.272,48.75c-25.254,7.204-50.508,14.407-75.762,21.611          c-4.067-16.669-8.794-34.099-14.303-52.172c-5.177-16.986-10.61-33.112-16.159-48.351          C208.167,298.252,233.94,290.9,259.713,283.549z"/>
								<path d="M212.494,406.749l-0.123-0.505c-4.251-17.428-9.061-34.971-14.296-52.143c-4.929-16.174-10.363-32.433-16.15-48.326          l-0.184-0.505l0.516-0.147l77.823-22.199l0.119,0.511c4.092,17.427,8.677,34.987,13.628,52.192          c4.682,16.272,9.817,32.667,15.265,48.728l0.169,0.497l-0.506,0.144L212.494,406.749z M183.048,305.937          c5.725,15.749,11.101,31.852,15.984,47.872c5.189,17.025,9.961,34.413,14.187,51.693l74.758-21.324          c-5.391-15.917-10.473-32.156-15.11-48.274c-4.907-17.054-9.455-34.456-13.52-51.73L183.048,305.937z"/>
							</g>
							<g>
								<path style="fill:#FFB500;" d="M295.139,389.561c-0.239-0.787-1.008-3.117-2.592-4.972          c-2.192-2.567-4.204-2.209-4.509-2.101c-27.977,9.871-49.809,16.099-75.762,21.611c-0.347,0.074-2.128,0.901-2.677,4.151          c-0.452,2.675,0.225,5.358,0.437,6.132c14.323-3.18,29.245-6.979,44.665-11.52          C268.883,398.685,282.367,394.21,295.139,389.561z"/>
								<path d="M209.679,414.972l-0.126-0.459c-0.351-1.281-0.876-3.809-0.448-6.347c0.561-3.32,2.403-4.415,3.066-4.558          c25.873-5.494,47.804-11.75,75.701-21.593c0.022-0.009,2.435-0.821,5.055,2.249c1.521,1.779,2.339,3.99,2.691,5.15          l0.138,0.453l-0.445,0.162c-13.295,4.839-26.911,9.316-40.469,13.31c-14.69,4.327-29.728,8.206-44.698,11.529          L209.679,414.972z M288.647,382.914c-0.276,0-0.437,0.044-0.441,0.045c-27.941,9.858-49.909,16.125-75.826,21.629          c-0.016,0.004-1.748,0.543-2.288,3.745c-0.357,2.113,0.027,4.286,0.308,5.456c14.791-3.295,29.646-7.133,44.16-11.407          c13.384-3.942,26.825-8.357,39.957-13.126c-0.386-1.145-1.123-2.905-2.35-4.341          C290.679,383.172,289.32,382.914,288.647,382.914z"/>
							</g>
							<g>
								<path style="fill:#FFB500;" d="M162.751,325.875l21.849-6.233c0.243-1.49,0.977-2.622,2.081-2.937          c1.872-0.534,4.087,1.471,4.948,4.478c0.861,3.007,0.042,5.878-1.83,6.412c-1.109,0.316-2.337-0.263-3.334-1.41          l-14.894,4.249c-4.752,1.355-7.529,6.341-6.173,11.08l11.412,39.861c1.357,4.738,6.354,7.507,11.106,6.151l16.425-4.685          c0.309-1.263,1-2.201,1.989-2.484c1.872-0.534,4.087,1.471,4.948,4.478c0.861,3.007,0.042,5.878-1.83,6.412          c-1.121,0.32-2.364-0.276-3.367-1.448l-23.14,6.601c-4.752,1.355-9.749-1.413-11.106-6.151l-15.258-53.294          C155.222,332.216,157.999,327.23,162.751,325.875z"/>
								<path d="M180.474,397.247c-4.127,0-7.931-2.711-9.119-6.86l-15.258-53.294c-0.693-2.421-0.395-4.974,0.84-7.189          c1.234-2.216,3.25-3.817,5.676-4.509l21.552-6.148c0.337-1.59,1.193-2.684,2.379-3.021c2.168-0.628,4.614,1.498,5.565,4.82          c0.579,2.021,0.458,4.063-0.32,5.465c-0.448,0.807-1.089,1.348-1.853,1.565c-1.194,0.339-2.501-0.142-3.632-1.325          l-14.597,4.164c-2.17,0.619-3.973,2.052-5.077,4.034c-1.105,1.981-1.372,4.264-0.752,6.427l11.412,39.861          c1.285,4.486,5.994,7.093,10.488,5.809l16.153-4.608c0.398-1.336,1.212-2.263,2.261-2.561          c2.171-0.617,4.615,1.498,5.565,4.821c0.442,1.543,0.481,3.109,0.11,4.408c-0.395,1.384-1.205,2.315-2.283,2.622          c-1.185,0.34-2.54-0.169-3.667-1.362l-22.839,6.515C182.21,397.129,181.335,397.247,180.474,397.247z M162.888,326.355          c-2.17,0.619-3.973,2.052-5.077,4.034c-1.104,1.982-1.372,4.265-0.752,6.428l15.258,53.294          c1.285,4.485,5.991,7.093,10.488,5.809l23.448-6.689l0.208,0.243c0.906,1.06,1.973,1.539,2.85,1.293          c0.733-0.21,1.3-0.896,1.596-1.935c0.32-1.122,0.281-2.492-0.109-3.858c-0.771-2.692-2.757-4.577-4.33-4.136          c-0.767,0.219-1.365,0.992-1.641,2.122l-0.069,0.283l-16.704,4.764c-5.03,1.435-10.289-1.48-11.724-6.494l-11.412-39.861          c-0.693-2.421-0.395-4.974,0.84-7.189c1.234-2.215,3.25-3.816,5.676-4.508l15.2-4.337l0.209,0.24          c0.899,1.033,1.951,1.501,2.819,1.258c0.503-0.144,0.937-0.521,1.253-1.09c0.643-1.157,0.732-2.96,0.233-4.704          c-0.771-2.691-2.752-4.574-4.331-4.135c-0.861,0.245-1.506,1.193-1.725,2.536l-0.051,0.314L162.888,326.355z"/>
							</g>
							<g>
								<path style="fill:#FFB500;" d="M262.229,293.327l-77.365,20.669c-1.131,0.302-2.294-0.369-2.597-1.5l-3.171-11.827          c-0.304-1.133,0.369-2.297,1.502-2.599l77.365-20.669c1.131-0.302,2.294,0.369,2.597,1.5l3.171,11.827          C264.034,291.86,263.361,293.024,262.229,293.327z"/>
								<path d="M184.317,314.569c-1.158,0-2.221-0.774-2.534-1.943l-3.17-11.826c-0.182-0.678-0.088-1.385,0.262-1.991          c0.35-0.607,0.916-1.04,1.593-1.222l77.366-20.669c1.391-0.375,2.834,0.459,3.208,1.854l3.172,11.827          c0.181,0.677,0.088,1.383-0.263,1.989c-0.351,0.607-0.916,1.041-1.594,1.223l-77.365,20.67          C184.767,314.54,184.541,314.569,184.317,314.569z M258.511,277.829c-0.139,0-0.279,0.018-0.419,0.056l-77.366,20.669          c-0.418,0.111-0.769,0.38-0.985,0.755c-0.217,0.376-0.274,0.813-0.162,1.231l3.17,11.826          c0.231,0.863,1.122,1.377,1.985,1.147l77.365-20.67c0.419-0.111,0.77-0.38,0.986-0.756c0.216-0.375,0.273-0.812,0.161-1.229          l-3.171-11.827C259.883,278.307,259.226,277.829,258.511,277.829z"/>
							</g>
							<g>
								<line style="fill:#FFB500;" x1="204.331" y1="316.94" x2="225.871" y2="392.132"/>
								
									<rect x="214.601" y="315.428" transform="matrix(0.9613 -0.2754 0.2754 0.9613 -89.3165 72.9436)" width="1" height="78.217"/>
							</g>
							<g>
								<line style="fill:#FFB500;" x1="227.448" y1="311.155" x2="248.988" y2="386.348"/>
								
									<rect x="237.718" y="309.643" transform="matrix(0.9613 -0.2754 0.2754 0.9613 -86.8295 79.086)" width="1" height="78.217"/>
							</g>
							<g>
								<line style="fill:#FFB500;" x1="250.565" y1="305.371" x2="272.105" y2="380.563"/>
								
									<rect x="260.836" y="303.859" transform="matrix(0.9613 -0.2754 0.2754 0.9613 -84.3445 85.2308)" width="1" height="78.217"/>
							</g>
						</g>
					</g>
				</g>
				<g>
					<g>
						<path d="M155.737,375.121c-24.518,7.71-50.182,14.063-75.654,17.612c-18.134,2.533-43.014,4.413-56.404-10.857        c-10.314-11.761-7.962-28.539-3.87-42.27c4.544-15.209,12.234-29.745,20.326-43.326        c10.917-18.295,29.564-40.441,44.683-55.489c0.332-0.322,0.653-0.593,0.965-0.814c2.171,9.63,4.021,19.029,5.539,28.076        c-14.103,14.747-26.377,32.489-35.807,50.383c-6.695,12.686-14.264,27.232-14.847,41.135c-0.07,1.669-0.07,3.498,0.794,5.237        c-0.121-0.452,2.202,2.483,1.106,1.568c1.046,0.985,0.04,0.292,1.789,1.106c9.228,4.312,21.412,2.553,31.112,1.257        c3.93-0.523,7.871-1.126,11.812-1.789c11.259-1.88,22.537-4.282,33.666-7.107c8.444-2.141,16.798-4.514,24.99-7.097        c6.323-1.99,13.239-0.271,16.114,6.303C164.493,364.627,162.04,373.131,155.737,375.121z"/>
					</g>
					<g>
						<g>
							<g>
								<path style="fill:#FFFFFF;" d="M127.596,353.401c0,0-11.469-6.209-12.286,2.564c-0.623,6.683,2.354,20.736,3.808,27.053          c0.671,2.914,2.854,5.347,5.775,6.019c1.89,0.435,6.441-1.273,8.459-3.287c4.931,2.57,11.764,7.941,23.4,7.433          c8.704-0.38,17.777-2.797,25.3-7.232c3.867-2.281,7.24-5.203,9.041-9.389c1.001-2.326,1.586-4.983,1.147-7.508          c-0.219-1.258-0.707-2.452-1.488-3.469c-0.227-0.296-1.89-2.317-1.89-2.317s5.932-12.013-7.015-15.363          c0,0,7.827-19.45-18.666-11.284c-1.605,0.494-4.229-6.53-11.017-8.798c-1.007-0.337-8.046-2.579-14.567,0.617          C129.838,332.242,125.426,342.461,127.596,353.401z"/>
								<path d="M155.225,393.716c-9.005,0.001-15.047-3.491-19.523-6.078c-0.801-0.463-1.554-0.897-2.267-1.279          c-2.199,1.97-6.652,3.625-8.654,3.165c-3-0.69-5.413-3.2-6.149-6.393c-1.36-5.909-4.455-20.389-3.819-27.212          c0.205-2.196,1.067-3.716,2.563-4.516c2.976-1.591,7.602,0.209,9.552,1.111c-1.744-10.624,2.47-20.612,10.45-24.523          c6.513-3.192,13.593-1.094,14.946-0.643c4.278,1.43,6.949,4.681,8.717,6.832c0.713,0.869,1.688,2.032,1.995,1.963          c9.303-2.867,15.526-2.685,18.496,0.546c3.159,3.435,1.573,9.118,0.973,10.877c3.674,1.058,6.151,2.939,7.368,5.595          c1.899,4.147,0.111,8.812-0.424,10.032c0.45,0.548,1.522,1.854,1.702,2.088c0.809,1.052,1.341,2.292,1.584,3.687          c0.517,2.974-0.357,5.879-1.181,7.792c-1.618,3.76-4.642,6.907-9.246,9.622c-7.308,4.309-16.375,6.901-25.532,7.302          C156.248,393.705,155.731,393.716,155.225,393.716z M133.258,385.136l0.325,0.169c0.817,0.426,1.686,0.927,2.619,1.467          c4.622,2.671,10.958,6.334,20.528,5.91c8.996-0.393,17.899-2.936,25.068-7.163c4.415-2.603,7.305-5.598,8.835-9.155          c0.771-1.789,1.589-4.495,1.114-7.226c-0.214-1.233-0.683-2.327-1.392-3.249c-0.226-0.295-1.88-2.305-1.88-2.305          l-0.205-0.249l0.142-0.289c0.025-0.052,2.509-5.196,0.546-9.475c-1.144-2.492-3.579-4.236-7.238-5.183l-0.55-0.142          l0.212-0.528c0.027-0.067,2.676-6.806-0.591-10.354c-2.687-2.918-8.563-3.008-17.463-0.266          c-0.952,0.297-1.788-0.732-3.061-2.283c-1.695-2.062-4.256-5.18-8.261-6.518c-1.288-0.433-8.027-2.43-14.188,0.592          c-7.696,3.772-11.788,14.04-9.731,24.415l0.207,1.043l-0.935-0.506c-0.062-0.033-6.217-3.32-9.513-1.556          c-1.18,0.631-1.866,1.885-2.037,3.726c-0.624,6.679,2.448,21.033,3.797,26.895c0.65,2.823,2.77,5.039,5.399,5.644          c1.616,0.366,6.03-1.194,7.994-3.153L133.258,385.136z"/>
							</g>
							<g>
								<line style="fill:#FFFFFF;" x1="181.608" y1="348.082" x2="171.723" y2="352.088"/>
								
									<rect x="171.333" y="349.586" transform="matrix(0.9265 -0.3763 0.3763 0.9265 -118.7478 92.2068)" width="10.666" height="0.999"/>
							</g>
							<g>
								<line style="fill:#FFFFFF;" x1="188.861" y1="363.268" x2="178.264" y2="366.587"/>
								
									<rect x="178.01" y="364.427" transform="matrix(0.9544 -0.2986 0.2986 0.9544 -100.5857 71.4534)" width="11.106" height="1.001"/>
							</g>
							<g>
								<line style="fill:#FFFFFF;" x1="163.181" y1="336.62" x2="148.636" y2="341.686"/>
								
									<rect x="148.208" y="338.652" transform="matrix(0.9444 -0.3288 0.3288 0.9444 -102.8327 70.108)" width="15.402" height="1.001"/>
							</g>
							<g>
								<line style="fill:#FFFFFF;" x1="127.596" y1="353.401" x2="129.355" y2="364.065"/>
								
									<rect x="127.976" y="353.329" transform="matrix(0.9867 -0.1628 0.1628 0.9867 -56.6795 25.697)" width="1" height="10.808"/>
							</g>
							<g>
								<line style="fill:#FFFFFF;" x1="132.224" y1="377.943" x2="133.352" y2="385.749"/>
								
									<rect x="132.288" y="377.902" transform="matrix(0.9897 -0.143 0.143 0.9897 -53.2369 22.9118)" width="0.999" height="7.888"/>
							</g>
						</g>
					</g>
				</g>
			</g>
		</g>
		<g>
			<g>
				<g>
					<g>
						<path style="fill:#FFFFFF;" d="M229.742,156.727c9.203,30.186-5.692,61.988-33.626,74.705        c-2.452,1.141-5.045,2.107-7.688,2.913c-32.829,10.009-67.569-8.497-77.59-41.366c-10.009-32.828,8.497-67.569,41.326-77.578        c2.642-0.806,5.333-1.451,8.006-1.872C190.447,108.498,220.539,126.541,229.742,156.727z"/>
						<path d="M170.349,237.551c-26.854,0.001-51.757-17.425-59.989-44.428c-4.88-16.005-3.234-32.954,4.635-47.727        c7.869-14.772,21.017-25.595,37.022-30.475c2.774-0.846,5.49-1.48,8.074-1.888c30.847-5.121,60.996,13.596,70.128,43.547        c9.138,29.973-5.435,62.347-33.897,75.306c-2.367,1.101-4.975,2.09-7.749,2.936        C182.514,236.672,176.38,237.551,170.349,237.551z M170.282,113.193c-3.317,0-6.669,0.271-10.03,0.829        c-2.542,0.4-5.212,1.025-7.941,1.857c-15.75,4.802-28.688,15.451-36.432,29.988c-7.743,14.536-9.363,31.215-4.562,46.965        c8.1,26.569,32.609,43.717,59.032,43.719c5.937,0,11.968-0.865,17.934-2.685c2.729-0.833,5.294-1.805,7.622-2.888        c28.011-12.754,42.351-44.611,33.358-74.107C221.273,130.664,196.925,113.193,170.282,113.193z"/>
					</g>
					<g>
						<g>
							<path d="M114.511,255.751l-0.906-0.422l0.175-0.376c2.241-4.821,3.721-8.006,9.857-14.652         c4.153-4.498,8.876-8.46,14.038-11.778l0.541,0.842c-5.091,3.271-9.749,7.18-13.844,11.614         c-6.03,6.532-7.484,9.66-9.685,14.396L114.511,255.751z"/>
						</g>
						<g>
							<path d="M147.074,269.344l-0.993-0.117c0.655-5.574,1.873-11.102,3.62-16.433c1.904-5.805,4.449-11.416,7.564-16.677         l0.86,0.51c-3.079,5.198-5.593,10.743-7.475,16.48C148.924,258.373,147.721,263.837,147.074,269.344z"/>
						</g>
						<g>
							<path d="M180.69,270.98c-1.48-5.028-2.489-10.222-3.001-15.438c-0.582-5.941-0.523-11.965,0.174-17.908l0.993,0.117         c-0.689,5.871-0.747,11.824-0.172,17.693c0.505,5.154,1.503,10.286,2.964,15.253L180.69,270.98z"/>
						</g>
					</g>
					<g>
						<path d="M160.17,113.529c-3.743,12.999-4.286,29.321-1.201,46.724l44.883,4.389l-34.797,28.68        c7.148,16.15,16.701,29.386,27.061,38.11c27.934-12.717,42.829-44.519,33.626-74.705        C220.539,126.541,190.447,108.498,160.17,113.529z"/>
						<path d="M196.036,232.018l-0.242-0.203c-10.537-8.874-20.195-22.473-27.196-38.291l-0.154-0.347l34.161-28.155l-44.062-4.309        l-0.066-0.374c-3.024-17.058-2.594-33.731,1.212-46.949l0.087-0.303l0.311-0.052c30.855-5.129,61.001,13.595,70.132,43.546        c9.139,29.973-5.434,62.347-33.896,75.306L196.036,232.018z M169.667,193.467c6.874,15.412,16.278,28.663,26.53,37.379        c27.818-12.838,42.028-44.578,33.067-73.973c-8.955-29.372-38.456-47.774-68.701-42.901        c-3.656,12.929-4.07,29.172-1.167,45.82l45.704,4.471L169.667,193.467z"/>
					</g>
				</g>
				<g>
					<g>
						<path style="fill:#FFFFFF;" d="M391.649,111.779c9.203,30.186-5.692,61.988-33.626,74.705        c-2.452,1.142-5.046,2.108-7.688,2.913c-32.829,10.009-67.568-8.497-77.59-41.366c-10.009-32.829,8.497-67.569,41.326-77.578        c2.643-0.805,5.333-1.451,8.006-1.872C352.354,63.55,382.446,81.592,391.649,111.779z"/>
						<path d="M332.138,192.627c-10.138,0.001-20.184-2.488-29.386-7.393c-14.773-7.874-25.6-21.035-30.485-37.058        c-4.88-16.005-3.233-32.955,4.636-47.728c7.869-14.771,21.018-25.595,37.023-30.475c2.775-0.846,5.49-1.48,8.073-1.888        c30.853-5.115,60.997,13.596,70.129,43.547c9.139,29.974-5.435,62.348-33.898,75.306c-2.369,1.104-4.978,2.092-7.75,2.936        C344.445,191.715,338.274,192.627,332.138,192.627z M332.189,68.245c-3.317,0-6.669,0.271-10.03,0.829        c-2.542,0.4-5.212,1.024-7.942,1.857c-32.518,9.914-50.907,44.436-40.993,76.954c4.807,15.767,15.461,28.718,29.999,36.466        c14.536,7.749,31.216,9.37,46.967,4.566c2.727-0.83,5.292-1.802,7.623-2.887c28.012-12.753,42.352-44.61,33.358-74.106        C383.181,85.716,358.833,68.245,332.189,68.245z"/>
					</g>
					<g>
						<g>
							<path d="M425.525,158.898l-0.355-0.215c-4.469-2.702-7.422-4.487-16.069-6.543c-5.876-1.398-11.936-2.052-17.969-1.916         l-0.022-1c6.146-0.119,12.264,0.527,18.221,1.943c8.801,2.092,11.807,3.909,16.357,6.66l0.355,0.215L425.525,158.898z"/>
						</g>
						<g>
							<path d="M406.086,188.346c-3.608-4.209-7.655-8.071-12.028-11.48c-4.762-3.712-9.942-6.909-15.396-9.506l0.43-0.902         c5.519,2.627,10.763,5.863,15.582,9.619c4.425,3.449,8.52,7.358,12.173,11.618L406.086,188.346z"/>
						</g>
						<g>
							<path d="M378.147,208.759c-1.562-4.946-3.599-9.762-6.051-14.312c-2.798-5.193-6.167-10.102-10.014-14.589l0.76-0.65         c3.893,4.541,7.302,9.509,10.135,14.765c2.481,4.605,4.542,9.479,6.123,14.485L378.147,208.759z"/>
						</g>
					</g>
					<g>
						<path d="M322.077,68.581c-3.743,12.999-4.286,29.32-1.201,46.724l44.883,4.389l-34.798,28.68        c7.148,16.15,16.701,29.386,27.061,38.11c27.934-12.717,42.829-44.519,33.626-74.705        C382.446,81.592,352.354,63.55,322.077,68.581z"/>
						<path d="M357.943,187.07l-0.242-0.203c-10.536-8.873-20.194-22.472-27.196-38.291l-0.153-0.347l34.16-28.155l-44.061-4.309        l-0.066-0.374c-3.024-17.058-2.595-33.73,1.212-46.949l0.087-0.303l0.311-0.052c30.855-5.128,61.001,13.595,70.133,43.546        c9.139,29.974-5.435,62.348-33.898,75.306L357.943,187.07z M331.573,148.518c6.874,15.413,16.279,28.664,26.53,37.379        c27.819-12.837,42.029-44.577,33.067-73.973c-8.955-29.371-38.454-47.773-68.7-42.901c-3.656,12.929-4.07,29.172-1.167,45.82        l45.704,4.471L331.573,148.518z"/>
					</g>
				</g>
			</g>
			<g>
				<circle style="fill:#FFB500;" cx="261.945" cy="186.705" r="17.133"/>
				<path d="M261.945,204.338c-9.723,0-17.633-7.91-17.633-17.633c0-9.723,7.91-17.633,17.633-17.633      c9.723,0,17.633,7.91,17.633,17.633C279.578,196.427,271.668,204.338,261.945,204.338z M261.945,170.072      c-9.171,0-16.633,7.462-16.633,16.633c0,9.171,7.461,16.633,16.633,16.633c9.171,0,16.633-7.462,16.633-16.633      C278.578,177.534,271.116,170.072,261.945,170.072z"/>
			</g>
			<g>
				<g>
					<path style="fill:#FFB2B0;" d="M347.293,210.605c1.725,5.515,0.797,11.792-2.887,17.596       c-12.822,20.196-35.383,32.459-59.707,39.14c-22.025,6.05-59.127,6.236-72.808-5.851       c-12.438-10.988-10.199-25.246,2.059-33.279c18.404-12.062,40.052-5.044,60.086-9.937       c13.092-3.198,24.474-12.586,36.524-18.261c8.781-4.135,18.236-5.714,26.88-0.932       C342.544,201.904,345.849,205.987,347.293,210.605z"/>
					<path d="M251.862,271.885c-2.264,0-4.511-0.056-6.722-0.17c-15.36-0.791-27.286-4.29-33.581-9.851       c-5.886-5.2-8.878-11.537-8.425-17.843c0.453-6.309,4.197-12.072,10.541-16.23c11.454-7.507,24.349-7.704,36.82-7.896       c7.757-0.119,15.778-0.242,23.422-2.108c8.264-2.02,15.962-6.598,23.406-11.026c4.24-2.521,8.624-5.13,13.023-7.201       c10.393-4.895,19.59-5.203,27.335-0.917c5.058,2.798,8.546,6.882,10.088,11.811l0,0c1.808,5.78,0.764,12.178-2.942,18.014       c-11.506,18.125-32.252,31.733-59.996,39.354C275.305,270.439,263.377,271.885,251.862,271.885z M325.914,196.648       c-4.679,0-9.737,1.273-15.141,3.816c-4.355,2.051-8.719,4.646-12.938,7.156c-7.508,4.466-15.272,9.084-23.68,11.138       c-7.753,1.894-15.831,2.018-23.644,2.138c-12.895,0.197-25.076,0.384-36.287,7.731c-6.077,3.983-9.661,9.476-10.091,15.466       c-0.43,5.988,2.442,12.033,8.089,17.022c13.702,12.106,51.372,11.503,72.344,5.743c27.501-7.554,48.047-21.014,59.418-38.925       c3.545-5.584,4.551-11.686,2.831-17.18c-1.464-4.68-4.789-8.564-9.617-11.235C333.74,197.605,329.97,196.648,325.914,196.648z"/>
				</g>
				<g>
					<path d="M264.271,244.858c-12.76,0-23.36-4.704-29.257-8.03l0.491-0.871c7.465,4.21,22.588,10.669,40.012,6.617       c17.77-4.13,28.834-17.035,33.848-24.36l0.826,0.564c-5.097,7.445-16.348,20.564-34.447,24.771       C271.783,244.469,267.937,244.858,264.271,244.858z"/>
				</g>
			</g>
			<g>
				<g>
					<g>
						<g>
							<path style="fill:#AD2328;" d="M268.769,35.2c4.474-4.837,18.001-18.131,37.307-17.615         c17.606,0.47,30.065,12.159,34.737,17.063"/>
						</g>
						<g>
							<path d="M268.628,35.07c3.675-5.968,8.87-11.068,15.052-14.831c3.059-1.954,6.474-3.355,9.993-4.447         c3.541-1.014,7.247-1.61,10.963-1.634l1.393-0.002c0.464,0.014,0.926,0.066,1.389,0.098l1.387,0.112         c0.462,0.038,0.925,0.066,1.382,0.152l2.744,0.437c0.903,0.196,1.803,0.41,2.693,0.655c0.223,0.061,0.447,0.116,0.667,0.182         l0.654,0.223l1.306,0.446c0.877,0.276,1.719,0.639,2.562,0.993l1.264,0.529c0.41,0.199,0.822,0.392,1.224,0.608         c0.808,0.422,1.615,0.837,2.382,1.32c0.774,0.471,1.561,0.913,2.297,1.433c0.743,0.509,1.507,0.98,2.196,1.561         c0.701,0.561,1.417,1.094,2.082,1.691c0.673,0.586,1.358,1.149,1.987,1.779c2.538,2.486,4.854,5.156,6.707,8.142         l-0.278,0.265c-2.381-2.451-4.946-4.721-7.682-6.759c-2.723-2.052-5.618-3.878-8.671-5.386         c-6.09-3.016-12.854-4.788-19.654-4.644c-3.397-0.04-6.785,0.473-10.073,1.313c-1.656,0.389-3.256,0.974-4.858,1.542         l-2.353,0.989c-0.778,0.344-1.53,0.746-2.296,1.116c-3.025,1.563-5.895,3.426-8.591,5.515         c-2.709,2.072-5.242,4.378-7.587,6.864L268.628,35.07z"/>
						</g>
					</g>
				</g>
				<g>
					<g>
						<g>
							<path style="fill:#AD2328;" d="M91.881,104.822c1.353-7.428,6.263-28.601,25.251-39.97         c17.315-10.369,36.55-6.724,44.083-4.853"/>
						</g>
						<g>
							<path d="M91.664,104.783c-0.115-8.031,1.774-16.157,5.439-23.596c1.757-3.77,4.198-7.224,6.93-10.444         c2.801-3.158,6.019-6.012,9.598-8.32l1.346-0.858c0.457-0.271,0.936-0.506,1.403-0.759l1.41-0.745         c0.47-0.248,0.935-0.505,1.429-0.702l2.922-1.264c0.994-0.366,1.995-0.712,3.007-1.022c0.253-0.078,0.503-0.163,0.757-0.234         l0.769-0.187l1.537-0.371c1.018-0.272,2.056-0.438,3.088-0.615l1.547-0.265c0.519-0.06,1.036-0.126,1.557-0.164         c1.04-0.088,2.076-0.183,3.116-0.188c1.038-0.02,2.071-0.076,3.103-0.027c1.031,0.035,2.061,0.022,3.083,0.159         c1.023,0.111,2.043,0.187,3.053,0.355c1.011,0.153,2.02,0.276,3.015,0.499c3.982,0.844,7.864,2.003,11.491,3.751         l-0.106,0.427c-3.81-0.906-7.686-1.525-11.584-1.814c-3.895-0.311-7.817-0.296-11.697,0.122         c-7.744,0.828-15.374,3.271-21.862,7.592c-3.31,2.05-6.271,4.628-8.934,7.461c-1.363,1.394-2.55,2.943-3.75,4.478         l-1.667,2.403c-0.541,0.811-1.02,1.662-1.534,2.491c-1.965,3.371-3.595,6.937-4.918,10.614         c-1.346,3.67-2.377,7.457-3.118,11.302L91.664,104.783z"/>
						</g>
					</g>
				</g>
			</g>
		</g>
	</g>
</g>















</svg>
