<?xml version="1.0" encoding="UTF-8"?>
<!-- Generator: Adobe Illustrator 27.1.1, SVG Export Plug-In . SVG Version: 6.00 Build 0)  -->
<svg xmlns="http://www.w3.org/2000/svg" xmlns:xlink="http://www.w3.org/1999/xlink" version="1.1" id="Capa_1" x="0px" y="0px" viewBox="0 0 511.693 511.693" style="enable-background:new 0 0 511.693 511.693;" xml:space="preserve" width="512" height="512">
<g>
	<g>
		<g>
			<g>
				<g>
					<g>
						<path d="M162.559,332.906c-28.404,6.975-67.494,17.143-70.009,52.177c-1.149,16.003,6.809,30.249,16.258,42.504        c9.268,12.019,20.324,22.615,24.772,37.553c1.598,5.368,6.648,9.143,12.391,7.865c5.184-1.154,9.471-6.996,7.865-12.391        c-4.221-14.175-12.023-25.569-21.402-36.832c-7.834-9.408-17.415-19.709-19.07-32.38c-1.484-11.363,4.352-19.236,13.92-24.528        c12.269-6.786,26.284-10.392,39.801-13.712C180.022,349.985,175.577,329.709,162.559,332.906z"/>
					</g>
					<g>
						<g>
							<path style="fill:#004421;" d="M161.128,463.406l0.088,31.349l-73.581,2.479l-33.318,1.125c0,0-4.87-35.516,31.718-40.861         c3.587-0.527,7.595-0.756,12.026-0.633c-0.633-1.196-2.585-5.239-1.582-10.409c0.193-1.002,1.301-6.171,5.257-8.896         c5.152-3.587,19.076-2.497,25.775,4.079l12.518-0.123c0,0,19.147-8.65,25.933,2.286         C171.695,454.369,161.128,463.406,161.128,463.406z"/>
							<path d="M53.883,498.874l-0.062-0.446c-0.05-0.36-4.514-36.069,32.141-41.424c3.461-0.509,7.258-0.729,11.283-0.656         c-0.972-2.099-2.093-5.679-1.258-9.985c0.284-1.474,1.518-6.495,5.465-9.213c5.506-3.835,19.416-2.548,26.259,3.988         l12.21-0.12c0.729-0.319,5.192-2.211,10.46-2.954c7.582-1.07,13.119,0.822,16.006,5.476         c5.452,10.049-3.382,18.812-4.759,20.089l0.088,31.61L53.883,498.874z M95.756,457.334c-3.428,0-6.664,0.221-9.649,0.66         c-14.976,2.188-24.793,9.625-29.18,22.105c-2.856,8.126-2.35,15.838-2.164,17.744l105.951-3.572l-0.088-31.095l0.176-0.15         c0.026-0.022,2.61-2.259,4.467-5.723c2.455-4.585,2.541-9.047,0.254-13.263c-6.467-10.42-25.101-2.155-25.287-2.068         l-0.201,0.044l-12.726,0.125l-0.148-0.146c-6.364-6.249-19.993-7.607-25.139-4.024c-3.636,2.504-4.786,7.201-5.052,8.581         c-0.888,4.574,0.579,8.278,1.533,10.079l0.4,0.758l-0.857-0.023C97.275,457.344,96.511,457.334,95.756,457.334z"/>
						</g>
						<g>
							<path style="fill:#FFFFFF;" d="M54.31,498.364c-0.44,0.42-2.275,2.264-2.457,5.234c-0.217,3.555,2.11,5.868,2.457,6.201         c35.786,0,71.572,0,107.358,0c0.612-0.697,2.743-3.292,2.842-7.235c0.108-4.303-2.279-7.168-2.842-7.809         C125.882,495.958,90.096,497.161,54.31,498.364z"/>
							<path d="M161.895,510.298H54.109l-0.146-0.14c-0.667-0.641-2.828-3.011-2.609-6.592c0.181-2.947,1.886-4.874,2.611-5.565         l0.138-0.131l0.19-0.007l107.595-3.616l0.156,0.178c0.927,1.056,3.071,3.963,2.966,8.151         c-0.098,3.882-2.106,6.574-2.967,7.552L161.895,510.298z M54.517,509.298h106.922c0.848-1.013,2.487-3.397,2.571-6.747         c0.092-3.621-1.655-6.197-2.565-7.288l-106.924,3.594c-0.693,0.701-2.021,2.344-2.169,4.771         C52.171,506.588,53.902,508.661,54.517,509.298z"/>
						</g>
						<g>
							<path style="fill:#FFFFFF;" d="M87.635,497.234l-33.318,1.125c0,0-4.87-35.516,31.718-40.861         C89.78,464.092,93.261,476.452,87.635,497.234z"/>
							<path d="M53.883,498.874l-0.062-0.446c-0.05-0.36-4.514-36.069,32.141-41.424l0.338-0.049l0.169,0.297         c3.864,6.803,7.287,19.284,1.648,40.113l-0.097,0.356L53.883,498.874z M85.767,458.044         c-33.119,5.047-31.387,35.712-31.003,39.799l32.484-1.097C92.584,476.763,89.446,464.71,85.767,458.044z"/>
						</g>
						<g>
							<path d="M153.699,467.728l-0.271-0.963c1.371-0.388,2.71-0.915,3.977-1.566c1.202-0.618,2.351-1.354,3.414-2.186l0.617,0.787         c-1.113,0.872-2.315,1.642-3.574,2.288C156.535,466.77,155.134,467.322,153.699,467.728z"/>
						</g>
						<g>
							<g>
								
									<rect x="108.774" y="448.343" transform="matrix(0.2676 -0.9635 0.9635 0.2676 -363.1726 442.1872)" width="0.999" height="23.273"/>
							</g>
							<g>
								
									<rect x="102.549" y="451.785" transform="matrix(0.6196 -0.7849 0.7849 0.6196 -326.1061 257.9248)" width="1" height="27.245"/>
							</g>
							<g>
								<path style="fill:#FFFFFF;" d="M125.039,463.619c0,1.347-1.092,2.439-2.439,2.439c-1.347,0-2.439-1.092-2.439-2.439          c0-1.347,1.092-2.439,2.439-2.439C123.947,461.18,125.039,462.272,125.039,463.619z"/>
								<path d="M122.599,466.558c-1.62,0-2.938-1.318-2.938-2.94c0-1.621,1.318-2.939,2.938-2.939c1.621,0,2.939,1.318,2.939,2.939          C125.539,465.24,124.22,466.558,122.599,466.558z M122.599,461.679c-1.069,0-1.938,0.87-1.938,1.939          c0,1.069,0.869,1.94,1.938,1.94c1.069,0,1.939-0.87,1.939-1.94C124.539,462.549,123.668,461.679,122.599,461.679z"/>
							</g>
							<g>
								<path style="fill:#FFFFFF;" d="M117.919,475.221c0,1.347-1.092,2.439-2.439,2.439s-2.439-1.092-2.439-2.439          s1.092-2.439,2.439-2.439S117.919,473.874,117.919,475.221z"/>
								<path d="M115.48,478.161c-1.621,0-2.939-1.318-2.939-2.939c0-1.621,1.318-2.939,2.939-2.939          c1.621,0,2.939,1.318,2.939,2.939C118.419,476.842,117.101,478.161,115.48,478.161z M115.48,473.282          c-1.069,0-1.939,0.87-1.939,1.939c0,1.069,0.87,1.939,1.939,1.939c1.069,0,1.939-0.87,1.939-1.939          C117.419,474.152,116.549,473.282,115.48,473.282z"/>
							</g>
						</g>
					</g>
				</g>
			</g>
			<g>
				<g>
					<g>
						<path d="M308.398,339.806c28.404,6.975,67.494,17.143,70.009,52.177c1.149,16.003-6.809,30.249-16.258,42.504        c-9.267,12.019-20.324,22.615-24.772,37.553c-1.598,5.368-6.648,9.143-12.391,7.865c-5.184-1.154-9.471-6.996-7.865-12.391        c4.22-14.175,12.023-25.569,21.402-36.832c7.834-9.408,17.415-19.709,19.07-32.38c1.484-11.363-4.352-19.236-13.92-24.529        c-12.27-6.786-26.284-10.392-39.801-13.712C290.935,356.885,295.38,336.609,308.398,339.806z"/>
					</g>
					<g>
						<g>
							<path style="fill:#004421;" d="M314.429,463.406l-0.088,31.349l73.581,2.479l33.318,1.125c0,0,4.87-35.516-31.718-40.861         c-3.587-0.527-7.595-0.756-12.026-0.633c0.633-1.196,2.585-5.239,1.582-10.409c-0.193-1.002-1.301-6.171-5.257-8.896         c-5.151-3.587-19.077-2.497-25.775,4.079l-12.518-0.123c0,0-19.147-8.65-25.934,2.286         C303.862,454.369,314.429,463.406,314.429,463.406z"/>
							<path d="M421.673,498.874l-33.769-1.14l-74.064-2.496l0.088-31.61c-1.377-1.276-10.212-10.038-4.773-20.064         c2.902-4.679,8.444-6.568,16.021-5.501c5.268,0.743,9.732,2.635,10.461,2.954l12.209,0.12         c6.844-6.536,20.75-7.824,26.262-3.986c3.943,2.716,5.178,7.737,5.462,9.212c0.835,4.306-0.286,7.886-1.259,9.984         c4.031-0.072,7.823,0.147,11.284,0.656c36.654,5.354,32.19,41.063,32.141,41.424L421.673,498.874z M314.842,494.271         l105.95,3.572c0.382-4.102,2.107-34.964-31.343-39.85c-3.644-0.537-7.662-0.748-11.94-0.628l-0.856,0.023l0.4-0.758         c0.954-1.801,2.421-5.505,1.533-10.078c-0.266-1.381-1.416-6.078-5.049-8.58c-5.149-3.585-18.776-2.226-25.142,4.022         l-0.149,0.146l-12.926-0.169c-0.188-0.086-18.826-8.341-25.303,2.094c-2.272,4.19-2.186,8.652,0.269,13.237         c1.856,3.464,4.44,5.7,4.467,5.723l0.175,0.15v0.23L314.842,494.271z"/>
						</g>
						<g>
							<path style="fill:#FFFFFF;" d="M421.247,498.364c0.44,0.42,2.275,2.264,2.456,5.234c0.217,3.555-2.11,5.868-2.456,6.201         c-35.786,0-71.572,0-107.358,0c-0.612-0.697-2.743-3.292-2.842-7.235c-0.108-4.303,2.28-7.168,2.842-7.809         C349.675,495.958,385.461,497.161,421.247,498.364z"/>
							<path d="M421.448,510.298H313.662l-0.149-0.17c-1.067-1.216-2.872-3.815-2.966-7.552c-0.105-4.188,2.039-7.096,2.966-8.151         l0.156-0.178l107.785,3.623l0.138,0.131c0.726,0.691,2.431,2.618,2.611,5.565c0.219,3.581-1.942,5.951-2.609,6.592         L421.448,510.298z M314.119,509.298H421.04c0.615-0.638,2.346-2.71,2.165-5.671c-0.148-2.427-1.476-4.069-2.169-4.771         l-106.924-3.594c-0.91,1.091-2.657,3.667-2.565,7.288C311.63,505.898,313.271,508.284,314.119,509.298z"/>
						</g>
						<g>
							<path style="fill:#FFFFFF;" d="M387.922,497.234l33.318,1.125c0,0,4.87-35.516-31.718-40.861         C385.777,464.092,382.296,476.452,387.922,497.234z"/>
							<path d="M421.673,498.874l-34.138-1.152l-0.097-0.356c-5.639-20.829-2.216-33.311,1.648-40.113l0.169-0.297l0.338,0.049         c36.654,5.354,32.19,41.063,32.141,41.424L421.673,498.874z M388.308,496.747l32.485,1.097         c0.185-1.91,0.69-9.649-2.176-17.778c-4.36-12.366-14.058-19.773-28.828-22.021         C386.11,464.709,382.973,476.761,388.308,496.747z"/>
						</g>
						<g>
							<path d="M321.857,467.728c-1.436-0.407-2.837-0.959-4.162-1.641c-1.259-0.646-2.461-1.416-3.574-2.288l0.617-0.787         c1.063,0.832,2.212,1.568,3.414,2.186c1.267,0.65,2.605,1.178,3.978,1.566L321.857,467.728z"/>
						</g>
						<g>
							<g>
								
									<rect x="354.646" y="459.48" transform="matrix(0.9635 -0.2678 0.2678 0.9635 -109.7904 114.8731)" width="23.273" height="0.999"/>
							</g>
							<g>
								
									<rect x="358.885" y="464.908" transform="matrix(0.7852 -0.6193 0.6193 0.7852 -208.1894 330.6585)" width="27.245" height="1"/>
							</g>
							<g>
								<path style="fill:#FFFFFF;" d="M350.518,463.619c0,1.347,1.092,2.439,2.439,2.439c1.347,0,2.439-1.092,2.439-2.439          c0-1.347-1.092-2.439-2.439-2.439C351.61,461.18,350.518,462.272,350.518,463.619z"/>
								<path d="M352.958,466.558c-1.621,0-2.94-1.318-2.94-2.94c0-1.621,1.318-2.939,2.94-2.939c1.62,0,2.939,1.318,2.939,2.939          C355.896,465.24,354.578,466.558,352.958,466.558z M352.958,461.679c-1.069,0-1.94,0.87-1.94,1.939          c0,1.069,0.87,1.94,1.94,1.94c1.069,0,1.939-0.87,1.939-1.94C354.896,462.549,354.027,461.679,352.958,461.679z"/>
							</g>
							<g>
								<path style="fill:#FFFFFF;" d="M357.638,475.221c0,1.347,1.092,2.439,2.439,2.439s2.439-1.092,2.439-2.439          s-1.092-2.439-2.439-2.439S357.638,473.874,357.638,475.221z"/>
								<path d="M360.077,478.161c-1.62,0-2.938-1.318-2.938-2.939c0-1.621,1.318-2.939,2.938-2.939c1.621,0,2.94,1.318,2.94,2.939          C363.016,476.842,361.698,478.161,360.077,478.161z M360.077,473.282c-1.069,0-1.938,0.87-1.938,1.939          c0,1.069,0.869,1.939,1.938,1.939c1.069,0,1.94-0.87,1.94-1.939C362.016,474.152,361.146,473.282,360.077,473.282z"/>
							</g>
						</g>
					</g>
				</g>
			</g>
		</g>
		<g>
			<g>
				<g>
					<path d="M56.044,108.446c3.618,55.816,16.163,110.607,37.009,162.507c4.81,11.975-14.242,18.093-19.017,6.202       c-21.45-53.403-34.244-110.178-37.966-167.604C35.235,96.685,55.211,95.604,56.044,108.446z"/>
				</g>
				<g>
					<g>
						<path style="fill:#FFFFFF;" d="M22.956,73.889c0,0-7.554-22.246-19.039-14.669c0,0-11.832,7.598,8.523,29.654        c0,0,4.242,25.278,16.191,29.476c0,0-2.677,10.45,11.977,13.678c14.653,3.228,33.532-5.765,26.238-16.784        c-0.014-0.021,3.361-3.684,3.554-3.927c2.282-2.87,4.281-6.074,5.407-9.583c0.384-1.196,0.397-2.481,0.785-3.677        c0.09-0.276,4.314-2.161,6.447-6.612c2.359-4.922,1.598-5.895,4.207-7.425c2.771-1.625,7.196-3.383,8.493-6.307        c1.905-4.299,0.982-9.398-3.178-12.037c-3.114-1.975-7.141-2.004-10.616-1.12c-3.546,0.902-6.801,2.767-9.805,4.808        c-1.259,0.856-2.483,1.763-3.677,2.707c-0.428,0.338-3.984,2.892-3.869,3.257c-0.001-0.002-7.956-25.231-26.548-7.97        C38.044,67.358,28.184,63.83,22.956,73.889z"/>
						<path d="M47.001,133.2c-2.199,0-4.395-0.22-6.501-0.684c-5.303-1.168-8.998-3.396-10.984-6.624        c-1.89-3.07-1.641-6.104-1.458-7.222c-4.926-1.941-9.12-7.475-12.472-16.457c-2.327-6.234-3.435-12.109-3.613-13.107        C1.145,77.337-0.464,69.649,0.097,65.267c0.577-4.512,3.428-6.39,3.549-6.468c2.526-1.666,5.08-2.075,7.59-1.216        c6.369,2.183,10.57,11.88,11.814,15.111c4.939-8.232,13.202-6.376,14.865-5.899c5.396-4.937,10.462-6.823,15.049-5.626        c7.02,1.84,10.763,10.394,11.804,13.156c0.524-0.477,1.423-1.185,2.931-2.308c0.219-0.162,0.381-0.283,0.453-0.34        c1.274-1.006,2.486-1.898,3.706-2.727c2.568-1.745,6.022-3.877,9.963-4.88c2.435-0.621,7.109-1.291,11.007,1.184        c4.126,2.617,5.511,7.823,3.367,12.661c-1.098,2.473-4.132,4.082-6.81,5.502c-0.672,0.356-1.315,0.698-1.888,1.034        c-1.54,0.902-1.77,1.542-2.382,3.253c-0.334,0.934-0.791,2.212-1.627,3.956c-1.746,3.643-4.784,5.589-6.081,6.421        c-0.166,0.105-0.296,0.187-0.378,0.245c-0.16,0.528-0.248,1.078-0.342,1.658c-0.101,0.625-0.204,1.271-0.406,1.901        c-1.026,3.198-2.823,6.385-5.492,9.742c-0.094,0.117-0.647,0.726-1.801,1.989c-0.544,0.596-1.186,1.299-1.522,1.672        c2.025,3.262,2.004,6.58-0.074,9.608C63.919,129.958,55.447,133.2,47.001,133.2z M8.681,58.151        c-1.485,0-2.988,0.496-4.489,1.486c-0.029,0.02-2.603,1.739-3.108,5.793c-0.521,4.182,1.09,11.584,11.722,23.105l0.102,0.109        l0.024,0.146c0.042,0.25,4.331,25.036,15.863,29.087l0.431,0.151l-0.112,0.443c-0.009,0.034-0.847,3.497,1.263,6.91        c1.841,2.98,5.319,5.051,10.338,6.156c9.671,2.132,21.755-1.237,25.853-7.208c1.896-2.762,1.847-5.809-0.141-8.812        c-0.218-0.342-0.218-0.342,1.823-2.576c0.741-0.812,1.664-1.823,1.756-1.938c2.593-3.262,4.334-6.344,5.322-9.425        c0.18-0.56,0.273-1.141,0.372-1.756c0.103-0.632,0.207-1.285,0.414-1.923c0.074-0.229,0.231-0.329,0.753-0.664        c1.227-0.785,4.097-2.624,5.719-6.01c0.814-1.698,1.243-2.897,1.588-3.861c0.642-1.793,0.964-2.692,2.817-3.779        c0.584-0.342,1.24-0.69,1.926-1.054c2.534-1.345,5.406-2.868,6.363-5.025c1.938-4.373,0.709-9.066-2.988-11.412        c-2.615-1.658-6.342-2.046-10.226-1.059c-3.789,0.965-7.146,3.039-9.646,4.737c-1.2,0.816-2.394,1.695-3.649,2.687        c-0.075,0.06-0.245,0.187-0.475,0.357c-1.794,1.335-2.857,2.19-3.167,2.547l0.558,1.762l-1.534-1.534l-0.037-0.117        c-0.149-0.461-3.709-11.324-11.405-13.341c-4.301-1.125-9.12,0.753-14.327,5.587l-0.222,0.206l-0.286-0.102        c-0.386-0.137-9.518-3.251-14.477,6.291l-0.54,1.039l-0.377-1.108c-0.044-0.131-4.526-13.108-11.571-15.521        C10.173,58.277,9.429,58.151,8.681,58.151z"/>
					</g>
					<g>
						<path style="fill:#FFFFFF;" d="M22.956,73.889c-1.307,4.918-1.547,10.574,0.008,15.447c0.861,2.696,2.376,5.163,4.586,6.96        c2.502,2.034,5.545,3.223,8.78,2.855c2.559-0.291,5.397-1.315,5.973-5.41"/>
						<path d="M35.148,99.717c-2.743,0-5.456-1.036-7.914-3.034c-2.163-1.759-3.805-4.247-4.747-7.195        c-1.454-4.559-1.46-10.291-0.015-15.728l0.967,0.258c-1.397,5.256-1.397,10.784,0.001,15.165        c0.883,2.764,2.412,5.089,4.425,6.725c1.823,1.481,4.77,3.162,8.408,2.745c3.396-0.385,5.104-1.921,5.534-4.981l0.99,0.139        c-0.491,3.494-2.589,5.403-6.411,5.837C35.973,99.694,35.56,99.717,35.148,99.717z"/>
					</g>
					<g>
						<path style="fill:#FFFFFF;" d="M66.844,115.244c0,0-7.75,3.859-13.006,1.833"/>
						<path d="M57.367,118.168c-1.277,0-2.546-0.177-3.708-0.625l0.359-0.934c4.993,1.928,12.527-1.777,12.604-1.813l0.445,0.895        C66.812,115.818,62.025,118.168,57.367,118.168z"/>
					</g>
					<g>
						<path style="fill:#FFFFFF;" d="M28.63,118.35c0,0,5.241,1.521,10.335,0.202"/>
						<path d="M34.432,119.594c-3.256,0-5.79-0.72-5.942-0.764l0.278-0.961c0.052,0.016,5.179,1.467,10.071,0.198l0.25,0.969        C37.493,119.45,35.89,119.594,34.432,119.594z"/>
					</g>
					<g>
						<rect x="64.21" y="74.521" transform="matrix(0.9995 -0.0323 0.0323 0.9995 -2.4887 2.1306)" width="1.001" height="7.165"/>
					</g>
					<g>
						<path style="fill:#FFFFFF;" d="M38.044,67.358c-1.865,6.919-2.476,15.16,0.813,21.759c1.715,3.442,4.976,6.475,8.757,7.438        c4.564,1.163,9.184-1.534,10.457-6.093c1.118-4.002-1.91-11.019-3.818-14.472"/>
						<path d="M49.779,97.329c-0.755,0-1.522-0.094-2.289-0.289c-3.705-0.943-7.185-3.894-9.081-7.7        c-3.845-7.715-2.182-17.165-0.848-22.111l0.965,0.26c-1.296,4.81-2.92,13.986,0.777,21.406        c1.771,3.553,5.003,6.303,8.433,7.177c4.324,1.098,8.646-1.423,9.853-5.743c1.065-3.812-1.871-10.654-3.774-14.095        l0.875-0.484c0.545,0.985,5.281,9.77,3.862,14.849C57.412,94.678,53.789,97.329,49.779,97.329z"/>
					</g>
				</g>
			</g>
			<g>
				<g>
					<path d="M451.538,123.516c-9.431,55.133-27.633,108.312-53.788,157.75c-6.035,11.407,12.273,19.482,18.265,8.156       c26.913-50.869,45.57-105.996,55.273-162.719C473.462,113.994,453.708,110.831,451.538,123.516z"/>
				</g>
				<g>
					<g>
						<path style="fill:#FFFFFF;" d="M488.056,92.606c0,0,9.837-21.335,20.468-12.599c0,0,10.973,8.793-11.575,28.601        c0,0-6.861,24.696-19.183,27.623c0,0,1.57,10.672-13.341,12.351c-14.911,1.679-32.746-9.237-24.34-19.434        c0.016-0.02-2.957-4.015-3.124-4.277c-1.969-3.093-3.623-6.488-4.376-10.096c-0.257-1.23-0.136-2.509-0.397-3.739        c-0.06-0.284-4.065-2.6-5.721-7.25c-1.832-5.142-0.973-6.03-3.408-7.824c-2.586-1.905-6.803-4.116-7.788-7.16        c-1.445-4.475,0.005-9.45,4.418-11.639c3.303-1.639,7.311-1.246,10.674-0.005c3.432,1.268,6.475,3.463,9.249,5.807        c1.163,0.983,2.285,2.013,3.374,3.076c0.39,0.381,3.66,3.293,3.508,3.644c0.001-0.002,10.549-24.261,27.236-5.152        C473.733,84.534,483.907,82.056,488.056,92.606z"/>
						<path d="M461.268,149.256c-9.507,0-19.427-4.459-22.737-10.564c-1.749-3.227-1.426-6.526,0.931-9.564        c-0.3-0.413-0.881-1.202-1.373-1.869c-0.992-1.346-1.469-1.993-1.549-2.119c-2.304-3.62-3.757-6.977-4.442-10.262        c-0.136-0.648-0.172-1.302-0.206-1.933c-0.032-0.587-0.064-1.144-0.167-1.687c-0.076-0.068-0.197-0.162-0.352-0.285        c-1.203-0.962-4.02-3.216-5.375-7.02c-0.649-1.822-0.971-3.141-1.205-4.104c-0.431-1.766-0.592-2.426-2.029-3.485        c-0.533-0.393-1.137-0.799-1.768-1.223c-2.515-1.693-5.366-3.612-6.198-6.186c-1.627-5.036,0.294-10.069,4.671-12.241        c4.138-2.054,8.711-0.896,11.07-0.025c3.817,1.409,7.028,3.89,9.398,5.894c1.127,0.951,2.239,1.966,3.401,3.101        c0.064,0.062,0.212,0.198,0.41,0.381c1.384,1.275,2.204,2.074,2.677,2.604c1.318-2.642,5.908-10.739,13.1-11.847        c4.694-0.729,9.538,1.686,14.393,7.165c1.703-0.3,10.114-1.283,14.168,7.421c1.575-3.084,6.767-12.289,13.329-13.794        c2.586-0.591,5.084,0.082,7.426,2.006c0.107,0.087,2.746,2.252,2.849,6.799c0.101,4.416-2.304,11.895-14.301,22.467        c-0.282,0.975-1.998,6.701-4.963,12.658c-4.272,8.583-9.021,13.648-14.123,15.064c0.064,1.13-0.006,4.174-2.205,7.029        c-2.312,3.003-6.221,4.833-11.616,5.441C463.423,149.199,462.348,149.256,461.268,149.256z M424.664,76.584        c-1.745,0-3.368,0.343-4.75,1.029c-3.923,1.945-5.636,6.484-4.165,11.037c0.727,2.245,3.425,4.061,5.806,5.663        c0.643,0.433,1.259,0.847,1.803,1.248c1.73,1.274,1.956,2.203,2.407,4.054c0.242,0.993,0.544,2.23,1.175,4.004        c1.26,3.537,3.922,5.666,5.059,6.575c0.485,0.388,0.632,0.505,0.681,0.74c0.14,0.655,0.176,1.316,0.211,1.956        c0.034,0.622,0.066,1.209,0.187,1.783c0.661,3.166,2.07,6.413,4.308,9.93c0.077,0.119,0.871,1.197,1.51,2.063        c1.839,2.493,1.839,2.493,1.573,2.806c-2.285,2.772-2.652,5.798-1.056,8.742c3.451,6.367,15.111,10.979,24.96,9.871        c5.115-0.576,8.794-2.277,10.936-5.057c2.453-3.186,1.972-6.69,1.966-6.726l-0.066-0.453l0.446-0.105        c11.892-2.825,18.747-27.026,18.815-27.27l0.04-0.144l0.111-0.099c11.804-10.369,14.167-17.572,14.072-21.79        c-0.093-4.086-2.456-6.025-2.479-6.044c-2.094-1.722-4.305-2.329-6.571-1.809c-7.258,1.663-13.072,14.101-13.13,14.226        l-0.491,1.063l-0.428-1.09c-3.938-10.008-13.344-7.867-13.74-7.769l-0.295,0.07l-0.2-0.228        c-4.678-5.356-9.279-7.734-13.678-7.052c-7.872,1.213-12.652,11.913-12.723,12.074l0,0c-0.001,0-0.001,0-0.001,0.001        l-0.917-0.399c-0.059,0.136-0.031,0.255-0.016,0.289c-0.133-0.291-1.125-1.292-2.951-2.975        c-0.208-0.191-0.362-0.334-0.431-0.4c-1.146-1.118-2.24-2.117-3.348-3.053c-3.43-2.897-6.235-4.662-9.1-5.72        C428.306,76.932,426.422,76.584,424.664,76.584z"/>
					</g>
					<g>
						<path style="fill:#FFFFFF;" d="M488.056,92.606c0.786,5.028,0.434,10.678-1.622,15.361c-1.138,2.591-2.903,4.887-5.288,6.443        c-2.701,1.762-5.851,2.625-9.03,1.922c-2.514-0.556-5.23-1.871-5.375-6.004"/>
						<path d="M474.374,117.079c-0.794,0-1.585-0.086-2.366-0.259c-3.756-0.832-5.643-2.95-5.767-6.476l1-0.035        c0.108,3.089,1.645,4.796,4.983,5.534c3.585,0.796,6.682-0.568,8.648-1.853c2.173-1.417,3.938-3.569,5.103-6.225        c1.85-4.211,2.428-9.708,1.587-15.083l0.988-0.154c0.869,5.559,0.265,11.259-1.659,15.64c-1.244,2.833-3.136,5.136-5.472,6.66        C479.135,116.318,476.738,117.079,474.374,117.079z"/>
					</g>
					<g>
						<path style="fill:#FFFFFF;" d="M440.086,129.148c0,0,7.304,4.648,12.743,3.182"/>
						<path d="M450.512,133.118c-5.053,0-10.433-3.381-10.695-3.548l0.537-0.844c0.071,0.045,7.186,4.514,12.346,3.121l0.26,0.965        C452.169,133.026,451.345,133.118,450.512,133.118z"/>
					</g>
					<g>
						<path style="fill:#FFFFFF;" d="M477.767,136.231c0,0-5.372,0.965-10.299-0.879"/>
						<path d="M474.326,136.988c-1.982,0-4.55-0.238-7.033-1.167l0.35-0.938c4.735,1.771,9.983,0.864,10.037,0.855l0.177,0.984        C477.743,136.744,476.334,136.988,474.326,136.988z"/>
					</g>
					<g>
						<rect x="442.507" y="91.934" transform="matrix(0.1368 -0.9906 0.9906 0.1368 293.4817 521.6784)" width="7.165" height="1"/>
					</g>
					<g>
						<path style="fill:#FFFFFF;" d="M473.733,84.534c1.132,7.076,0.879,15.336-3.082,21.555c-2.066,3.244-5.626,5.92-9.486,6.483        c-4.661,0.68-8.973-2.485-9.763-7.153c-0.693-4.097,3.051-10.759,5.31-13.993"/>
						<path d="M459.886,113.165c-4.402,0.001-8.214-3.154-8.977-7.663c-0.879-5.195,4.748-13.439,5.392-14.362l0.82,0.572        c-2.252,3.225-5.887,9.723-5.227,13.624c0.749,4.423,4.789,7.394,9.197,6.741c3.504-0.511,7.005-2.909,9.137-6.257        c4.452-6.99,3.797-16.287,3.01-21.207l0.988-0.158c0.988,6.181,1.243,14.998-3.154,21.902        c-2.283,3.586-6.053,6.157-9.836,6.71C460.783,113.132,460.332,113.165,459.886,113.165z"/>
					</g>
				</g>
			</g>
		</g>
	</g>
	<g>
		<g>
			<path style="fill:#71D2C4;" d="M390.405,81.27L117.892,71.058L84.92,200.131l326.208,12.225L390.405,81.27z M332.578,117.295     c-0.227,6.045-5.311,10.762-11.356,10.536l-141.509-5.303c-6.045-0.227-10.762-5.311-10.536-11.356l0.278-7.426     c0.227-6.045,5.311-10.762,11.356-10.536l141.509,5.303c6.045,0.227,10.762,5.311,10.536,11.356L332.578,117.295z"/>
			<path d="M411.716,212.878l-0.607-0.023L84.283,200.608l33.225-130.065l0.403,0.015l272.924,10.229l0.065,0.406L411.716,212.878z      M85.558,199.655l324.98,12.179L389.975,81.754L118.277,71.572L85.558,199.655z M321.637,128.338     c-0.145,0-0.289-0.003-0.435-0.008l-141.509-5.303c-6.312-0.237-11.254-5.563-11.018-11.875l0.278-7.426     c0.115-3.058,1.413-5.887,3.656-7.968c2.243-2.081,5.172-3.156,8.219-3.049l141.51,5.303c6.311,0.237,11.253,5.563,11.017,11.875     l-0.278,7.426l-0.5-0.019l0.5,0.019C332.846,123.479,327.756,128.338,321.637,128.338z M180.391,93.703     c-2.644,0-5.151,0.982-7.101,2.79c-2.047,1.899-3.232,4.481-3.336,7.271l-0.278,7.426c-0.216,5.761,4.295,10.622,10.055,10.838     l141.509,5.303c5.814,0.211,10.622-4.295,10.838-10.054l0.278-7.426c0.216-5.761-4.294-10.622-10.054-10.838l-141.51-5.303     C180.659,93.705,180.525,93.703,180.391,93.703z"/>
		</g>
		<g>
			<g>
				<g>
					<path style="fill:#AD2328;" d="M89.125,273.821c0.98,12.787,1.974,24.262,2.773,33.201c0.875,9.761,8.706,17.272,18.267,17.466       c21.667,0.467,58.074-1.199,77.788-3.63c7.293-0.913,12.605-7.599,12.059-15.1c0,0-1.16-17.269-2.79-40.314       c-1.556-21.746-3.524-48.652-5.345-71.001c-1.59-19.598-3.094-35.7-4.064-41.768c-3.902-24.242-18.635-28.001-34.184-23.981       l-2.11-39.108l-0.554-10.413l-0.673-12.365l-1.188-21.953l-0.671-12.462l-0.467-8.749l-0.002-0.164l-37.233,1.944l0.369,8.203       l0.314,7.104l0.28,6.249l0.972,21.57l0.015,0.394l2.729,60.616c0,0-27.985-2.187-31.362,22.677       c-1.71,12.508,0.839,28.535,1.225,47.792C85.743,224.259,87.403,251.123,89.125,273.821z"/>
					<path d="M118.131,325.066c-2.814,0-5.488-0.025-7.977-0.079c-9.794-0.199-17.856-7.903-18.755-17.921       c-0.688-7.705-1.726-19.529-2.774-33.207l0,0c-2.159-28.465-3.454-53.302-3.851-73.819c-0.143-7.134-0.575-13.707-0.994-20.064       c-0.702-10.672-1.31-19.889-0.227-27.805c3.133-23.065,27.315-23.28,31.333-23.134L110.21,24.951l38.248-1.996l0.008,0.684       l5.63,104.421c9.1-2.24,16.607-1.484,22.319,2.25c6.158,4.027,10.159,11.525,11.891,22.286       c1.137,7.104,2.841,26.655,4.069,41.808c1.456,17.864,3.205,41.091,5.347,71.005c1.61,22.783,2.777,40.144,2.789,40.316       c0.567,7.815-4.921,14.681-12.496,15.629C170.696,323.49,140.132,325.066,118.131,325.066z M89.623,273.783       c1.049,13.672,2.085,25.492,2.773,33.193c0.853,9.509,8.496,16.822,17.779,17.011c21.915,0.475,58.222-1.222,77.716-3.626       c7.046-0.882,12.151-7.281,11.622-14.567c-0.012-0.175-1.179-17.534-2.789-40.314c-2.141-29.911-3.89-53.134-5.345-70.995       c-1.229-15.135-2.929-34.659-4.061-41.73c-1.686-10.471-5.538-17.74-11.45-21.607c-5.59-3.654-13.031-4.318-22.114-1.969       l-0.592,0.152l-5.678-105.323l-36.231,1.892l4.684,104.205l-0.564-0.044c-0.068-0.003-7.005-0.507-14.241,1.999       c-9.634,3.337-15.215,10.148-16.587,20.247c-1.068,7.816-0.465,16.986,0.234,27.604c0.419,6.368,0.852,12.953,0.996,20.11       C86.17,220.519,87.465,245.337,89.623,273.783L89.623,273.783z"/>
				</g>
				<g>
					<path d="M128.949,317.496c-11.735,0-21.382-0.698-23.184-2.349c-0.253-0.233-0.387-0.494-0.397-0.78       c-0.141-3.741,26.96-6.097,41.309-6.818c18.48-0.933,38.593-0.586,41.278,1.875c0.253,0.232,0.387,0.494,0.397,0.779       c0.141,3.741-26.96,6.097-41.309,6.818C140.962,317.328,134.705,317.496,128.949,317.496z M164.717,308.061       c-5.194,0-11.213,0.145-17.99,0.485c-25.418,1.28-39.998,4.237-40.36,5.792c0.513,1.487,15.278,2.96,40.626,1.684       c25.366-1.277,39.938-4.225,40.357-5.782C186.929,309.14,178.907,308.061,164.717,308.061z"/>
				</g>
				<g>
					<g>
						<g>
							<path style="fill:#FFFFFF;" d="M98.213,140.8c0.09-0.026,0.18-0.049,0.271-0.071c2.414-0.571,5.564,0.839,5.424,3.72         c-0.132,2.709-2.967,3.774-4.495,5.564c-2.312,2.71-1.951,7.149-2.144,10.505c-0.169,2.925-0.89,7.08-4.772,6.933         c-4.832-0.182-3.64-6.393-3.342-9.714c0.368-4.097,1.066-8.441,3.249-11.995C93.676,143.672,95.837,141.482,98.213,140.8z"/>
							<path style="fill:#FFFFFF;" d="M92.701,167.955c-0.073,0-0.146-0.001-0.222-0.004c-1.261-0.048-2.252-0.48-2.948-1.284         c-1.626-1.881-1.252-5.378-0.979-7.931c0.04-0.37,0.077-0.722,0.106-1.045c0.354-3.94,1.025-8.474,3.321-12.212         c1.229-2.001,3.477-4.407,6.097-5.16l0.002-0.001c0.096-0.027,0.193-0.052,0.29-0.075c1.601-0.378,3.415,0.028,4.627,1.035         c0.973,0.808,1.475,1.942,1.413,3.195c-0.101,2.073-1.619,3.292-2.959,4.367c-0.617,0.496-1.2,0.964-1.655,1.496         c-1.788,2.096-1.877,5.405-1.956,8.324c-0.018,0.652-0.034,1.286-0.069,1.886C97.486,165.463,95.781,167.955,92.701,167.955z          M98.351,141.28c-2.345,0.674-4.389,2.882-5.521,4.723c-2.187,3.562-2.833,7.953-3.177,11.778         c-0.029,0.328-0.067,0.685-0.107,1.062c-0.254,2.371-0.602,5.618,0.74,7.17c0.515,0.595,1.244,0.901,2.229,0.938         c2.596,0.122,3.998-2.015,4.254-6.462c0.034-0.59,0.051-1.213,0.068-1.854c0.083-3.086,0.178-6.582,2.195-8.946         c0.516-0.605,1.163-1.124,1.789-1.627c1.29-1.035,2.508-2.013,2.587-3.637c0.058-1.193-0.542-1.951-1.054-2.378         c-0.964-0.801-2.475-1.131-3.757-0.831C98.517,141.235,98.434,141.256,98.351,141.28L98.351,141.28z"/>
						</g>
					</g>
					<g>
						<path style="fill:#FFFFFF;" d="M188.293,273.193c2.253,0.299,3.749,2.168,3.635,4.487c-0.035,0.737-0.055,1.474-0.057,2.211        c-0.001,0.327,0.002,0.654,0.007,0.98c0.002,0.136,0.006,0.272,0.009,0.408c0.062,1.424,0.143,2.847,0.234,4.269        c0.203,3.154,0.398,6.321,0.277,9.486c-0.084,2.173-2.333,4.054-4.411,3.779c-2.272-0.301-3.724-2.167-3.635-4.487        c0.028-0.735,0.041-1.47,0.036-2.204c-0.002-0.326-0.007-0.651-0.015-0.978c0-0.011-0.001-0.034-0.002-0.063        c-0.003-0.084-0.006-0.175-0.008-0.22c-0.061-1.465-0.158-2.927-0.252-4.389c-0.202-3.158-0.385-6.332-0.23-9.5        C183.989,274.8,186.2,272.916,188.293,273.193z"/>
						<path style="fill:#FFFFFF;" d="M188.401,299.341c-0.161,0-0.32-0.011-0.479-0.031c-2.496-0.332-4.169-2.389-4.069-5.003        c0.028-0.727,0.041-1.454,0.036-2.182c-0.002-0.323-0.007-0.646-0.015-0.97l-0.01-0.272c-0.055-1.323-0.14-2.643-0.225-3.962        l-0.026-0.416c-0.217-3.381-0.383-6.434-0.229-9.558c0.058-1.192,0.67-2.36,1.681-3.203c0.977-0.814,2.181-1.19,3.294-1.048        l0,0c2.483,0.33,4.194,2.435,4.068,5.008c-0.034,0.729-0.055,1.458-0.056,2.188c0,0.322,0.002,0.647,0.007,0.972l0.009,0.405        c0.062,1.409,0.143,2.829,0.234,4.247c0.189,2.932,0.402,6.253,0.277,9.538c-0.046,1.178-0.647,2.338-1.65,3.184        C190.401,298.952,189.385,299.341,188.401,299.341z M187.877,273.666c-0.74,0-1.515,0.299-2.172,0.847        c-0.796,0.664-1.278,1.57-1.323,2.484c-0.15,3.072,0.015,6.095,0.23,9.444l0.026,0.416c0.086,1.327,0.171,2.654,0.227,3.984        l0.009,0.223c0.009,0.397,0.014,0.727,0.016,1.056c0.005,0.741-0.008,1.484-0.036,2.227c-0.081,2.11,1.205,3.707,3.2,3.972        c0.85,0.114,1.779-0.195,2.551-0.846c0.788-0.664,1.261-1.56,1.295-2.457c0.124-3.232-0.088-6.527-0.275-9.435        c-0.092-1.426-0.173-2.852-0.236-4.279l-0.009-0.419c-0.005-0.333-0.007-0.662-0.007-0.991        c0.001-0.746,0.021-1.491,0.058-2.234c0.1-2.073-1.216-3.705-3.201-3.968l0,0        C188.113,273.673,187.996,273.666,187.877,273.666z"/>
					</g>
				</g>
				<g>
					<g>
						<path style="fill:#FF8806;" d="M149.652,21.422c1.837,3.049,2.8,7.825,0.535,10.076c-2.05,2.037-5.659,0.465-7.655-1.442        c-0.179,2.221-1.733,4.978-3.867,5.105c-1.854,0.11-4.394-0.837-5.429-4.095c-0.945,2.219-2.354,4.322-4.872,4.393        c-1.964,0.055-3.921-1.663-4.52-3.623c-1.383,2.746-2.962,3.754-5.251,3.812c-1.492,0.037-3.944-1.02-4.986-4.327        c-1.632,3.47-5.295,3.108-5.851-0.991c-0.309-2.276,0.67-4.948,1.811-6.795L149.652,21.422z"/>
						<path d="M118.522,36.148c-1.349,0-3.706-0.797-5.01-3.673c-0.88,1.239-2.1,1.865-3.337,1.678        c-1.516-0.233-2.633-1.673-2.915-3.757c-0.336-2.466,0.751-5.297,1.88-7.125l0.138-0.223l40.647-2.141l0.155,0.257        c2.036,3.379,2.889,8.274,0.458,10.688c-2.075,2.063-5.473,0.867-7.648-0.829c-0.503,2.288-2.139,4.514-4.196,4.636        c-1.781,0.105-4.198-0.731-5.489-3.334c-0.757,1.47-2.228,3.559-4.827,3.633c-1.751,0.058-3.646-1.199-4.597-2.979        c-1.312,2.15-2.902,3.109-5.176,3.167C118.578,36.148,118.55,36.148,118.522,36.148z M113.698,29.95l0.385,1.22        c0.996,3.156,3.307,3.979,4.441,3.979c0.019,0,0.037,0,0.056-0.001c2.213-0.056,3.563-1.047,4.817-3.536l0.56-1.113        l0.365,1.191c0.557,1.821,2.316,3.271,3.95,3.271c0.026,0,0.052,0,0.077-0.001c1.855-0.053,3.262-1.352,4.427-4.089        l0.528-1.24l0.408,1.285c0.929,2.923,3.131,3.847,4.923,3.747c1.789-0.106,3.228-2.534,3.398-4.645l0.084-1.047l0.76,0.726        c1.782,1.702,5.118,3.275,6.956,1.449c1.912-1.9,1.255-6.185-0.459-9.206l-39.518,2.081c-0.987,1.68-1.893,4.134-1.606,6.242        c0.221,1.628,1.017,2.74,2.077,2.903c1.078,0.17,2.151-0.624,2.826-2.058L113.698,29.95z"/>
					</g>
					<g>
						<path style="fill:#FF8806;" d="M149.723,21.505c0.124,2.685-8.773,5.395-19.871,6.054        c-11.098,0.659-20.195-0.984-20.318-3.668c-0.123-2.685,8.773-5.396,19.871-6.055C140.503,17.178,149.6,18.82,149.723,21.505z        "/>
						<path d="M125.083,28.203c-7.336,0.001-13.305-1.059-15.269-2.827c-0.493-0.443-0.756-0.936-0.779-1.462        c-0.16-3.478,10.36-5.984,20.341-6.577c9.436-0.56,17.689,0.544,20.067,2.684c0.493,0.444,0.756,0.937,0.779,1.463l0,0        c0.16,3.477-10.36,5.982-20.341,6.575C128.238,28.156,126.629,28.203,125.083,28.203z M134.259,18.188        c-1.519,0-3.13,0.046-4.825,0.146c-11.551,0.687-19.495,3.467-19.401,5.534c0.012,0.248,0.163,0.506,0.45,0.764        c1.853,1.668,9.093,3.036,19.34,2.428c11.551-0.687,19.495-3.466,19.401-5.532l0,0c-0.012-0.249-0.163-0.506-0.45-0.765        C147.228,19.372,141.929,18.188,134.259,18.188z"/>
					</g>
				</g>
				<g>
					<path style="fill:#FFB500;" d="M110.026,201.469c1.175-14.025,12.517-25.408,26.972-26.229       c14.455-0.821,27.013,9.204,29.769,23.005l14.9-0.847l3.902,68.669l-86.543,4.917l-3.901-68.669L110.026,201.469z"/>
					<path d="M98.556,271.511l-3.958-69.667l14.969-0.851c1.404-14.189,13.109-25.441,27.402-26.253       c14.308-0.815,27.198,9.042,30.2,22.98l14.969-0.851l3.959,69.667L98.556,271.511z M95.653,202.786l3.845,67.671l85.545-4.86       l-3.846-67.671l-14.835,0.843l-0.085-0.426c-2.731-13.678-15.303-23.396-29.251-22.604       c-13.944,0.792-25.337,11.872-26.502,25.771l-0.036,0.433L95.653,202.786z"/>
				</g>
				<g>
					<polygon style="fill:#FFB500;" points="112.683,68.945 150.292,66.808 149.104,44.855 111.696,46.98 112.668,68.551      "/>
					<path d="M112.204,69.473l-0.036-0.903l-0.993-22.06l38.402-2.182l1.242,22.951L112.204,69.473z M112.217,47.451l0.944,20.966       l36.604-2.079l-1.135-20.955L112.217,47.451z"/>
				</g>
			</g>
			<g>
				<g>
					<path style="fill:#AD2328;" d="M296.674,257.485c-0.831,12.798-1.691,24.283-2.385,33.231       c-0.761,9.77-8.504,17.372-18.062,17.678c-21.66,0.721-58.084-0.52-77.825-2.721c-7.303-0.828-12.692-7.452-12.235-14.958       c0,0,0.958-17.281,2.318-40.343c1.302-21.762,2.956-48.69,4.515-71.059c1.361-19.615,2.676-35.734,3.576-41.813       c3.619-24.286,18.307-28.217,33.902-24.379l1.653-39.13l0.433-10.418l0.528-12.372l0.931-21.965l0.525-12.469l0.365-8.754V7.85       l37.253,1.509l-0.273,8.207l-0.231,7.107l-0.208,6.252l-0.72,21.58l-0.01,0.394l-2.021,60.644c0,0,27.957-2.513,31.625,22.309       c1.856,12.487-0.506,28.543-0.667,47.803C299.477,207.887,298.131,234.77,296.674,257.485z"/>
					<path d="M262.208,309.1c-21.274,0-48.057-1.169-63.86-2.93c-7.587-0.86-13.156-7.662-12.679-15.485       c0.01-0.17,0.974-17.543,2.318-40.342c1.782-29.805,3.26-53.05,4.516-71.065c1.053-15.167,2.528-34.739,3.581-41.851       c1.606-10.781,5.518-18.325,11.63-22.424c5.668-3.801,13.165-4.644,22.292-2.51L234.415,7.33l38.27,1.55l-3.462,104.132       c4.02-0.172,28.199-0.26,31.602,22.768c1.175,7.904,0.676,17.13,0.098,27.811c-0.344,6.359-0.7,12.936-0.76,20.068       c-0.156,20.512-1.162,45.361-2.988,73.858l0,0c-0.886,13.656-1.785,25.51-2.386,33.238       c-0.78,10.027-8.753,17.825-18.545,18.139C272.027,309.034,267.271,309.1,262.208,309.1z M220.823,112.345       c-4.887,0-9.088,1.165-12.553,3.489c-5.867,3.935-9.635,11.249-11.198,21.739c-1.047,7.079-2.521,26.624-3.571,41.773       c-1.256,18.013-2.733,41.255-4.516,71.056c-1.345,22.796-2.309,40.167-2.318,40.34c-0.445,7.295,4.735,13.634,11.793,14.434       c19.526,2.177,55.86,3.448,77.751,2.718c9.282-0.297,16.84-7.698,17.581-17.217c0.599-7.725,1.498-19.574,2.384-33.225l0,0       c1.825-28.478,2.83-53.308,2.986-73.802c0.06-7.156,0.417-13.743,0.762-20.114c0.575-10.628,1.071-19.807-0.088-27.611       c-1.492-10.093-7.161-16.843-16.852-20.063c-7.264-2.413-14.165-1.828-14.234-1.822l-0.564,0.051l3.465-104.253L235.4,8.371       l-4.447,105.383l-0.593-0.146C226.941,112.766,223.758,112.345,220.823,112.345z"/>
				</g>
				<g>
					<path d="M253.667,301.644c-4.689,0-9.599-0.098-14.402-0.283c-14.356-0.556-41.481-2.595-41.385-6.337       c0.008-0.286,0.138-0.55,0.388-0.784c2.656-2.491,22.762-3.072,41.254-2.357c14.356,0.555,41.482,2.593,41.386,6.336       c-0.008,0.286-0.139,0.55-0.389,0.784C278.551,300.847,267.021,301.644,253.667,301.644z M198.881,295.05       c0.438,1.553,15.043,4.329,40.422,5.311c25.361,0.983,40.109-0.667,40.606-2.179c-0.381-1.531-14.995-4.317-40.427-5.3       C214.181,291.902,199.439,293.541,198.881,295.05z"/>
				</g>
				<g>
					<g>
						<g>
							<path style="fill:#FFFFFF;" d="M286.033,124.58c-0.09-0.025-0.181-0.047-0.272-0.068c-2.42-0.542-5.554,0.904-5.381,3.783         c0.164,2.707,3.011,3.739,4.56,5.511c2.344,2.683,2.034,7.126,2.267,10.479c0.203,2.923,0.972,7.069,4.853,6.877         c4.829-0.239,3.565-6.435,3.228-9.753c-0.416-4.092-1.165-8.428-3.389-11.956         C290.603,127.399,288.417,125.234,286.033,124.58z"/>
							<path style="fill:#FFFFFF;" d="M291.794,151.668c-3.037,0-4.748-2.471-5.087-7.35c-0.041-0.598-0.065-1.229-0.091-1.88         c-0.112-2.92-0.239-6.229-2.054-8.304c-0.46-0.527-1.049-0.989-1.672-1.478c-1.353-1.06-2.885-2.261-3.01-4.333         c-0.075-1.251,0.413-2.392,1.375-3.211c1.2-1.021,3.009-1.447,4.614-1.09c0.099,0.022,0.194,0.047,0.292,0.073h0.003         c2.627,0.722,4.902,3.101,6.155,5.089c2.34,3.712,3.064,8.236,3.464,12.173c0.033,0.323,0.075,0.673,0.119,1.042         c0.303,2.551,0.718,6.043-0.887,7.941c-0.687,0.813-1.674,1.257-2.934,1.318C291.986,151.666,291.89,151.668,291.794,151.668         z M284.726,124.9c-1.033,0-2.09,0.353-2.821,0.976c-0.508,0.432-1.098,1.197-1.025,2.389         c0.098,1.624,1.327,2.587,2.628,3.607c0.633,0.496,1.286,1.008,1.81,1.606c2.046,2.342,2.181,5.838,2.299,8.924         c0.025,0.64,0.049,1.262,0.09,1.85c0.314,4.505,1.659,6.535,4.329,6.412c0.985-0.049,1.711-0.364,2.219-0.966         c1.324-1.566,0.939-4.81,0.657-7.178c-0.045-0.375-0.087-0.731-0.12-1.059c-0.389-3.821-1.086-8.205-3.315-11.741         c-1.152-1.828-3.222-4.011-5.573-4.657c-0.084-0.022-0.167-0.043-0.251-0.062C285.351,124.933,285.04,124.9,284.726,124.9z"/>
						</g>
					</g>
					<g>
						<path style="fill:#FFFFFF;" d="M197.506,258.017c-2.249,0.325-3.723,2.212-3.582,4.529c0.044,0.737,0.073,1.473,0.082,2.21        c0.004,0.327,0.006,0.654,0.004,0.98c-0.001,0.136-0.003,0.272-0.004,0.408c-0.045,1.425-0.11,2.848-0.185,4.272        c-0.166,3.156-0.324,6.325-0.166,9.488c0.109,2.172,2.38,4.027,4.454,3.727c2.268-0.328,3.699-2.21,3.582-4.529        c-0.037-0.734-0.058-1.469-0.062-2.204c-0.001-0.326-0.001-0.652,0.003-0.978c0-0.011,0-0.034,0.001-0.063        c0.002-0.085,0.004-0.175,0.005-0.22c0.043-1.465,0.124-2.928,0.201-4.391c0.165-3.16,0.311-6.336,0.119-9.502        C201.828,259.573,199.595,257.714,197.506,258.017z"/>
						<path style="fill:#FFFFFF;" d="M197.66,284.164c-0.972,0-1.975-0.377-2.818-1.071c-1.012-0.833-1.626-1.986-1.685-3.162        c-0.165-3.272,0.01-6.603,0.165-9.541c0.075-1.419,0.139-2.84,0.184-4.261l0.005-0.397c0.001-0.321,0-0.645-0.005-0.969        c-0.01-0.73-0.038-1.459-0.081-2.189c-0.156-2.569,1.53-4.695,4.01-5.054l0,0c1.118-0.157,2.321,0.206,3.306,1.009        c1.02,0.831,1.646,1.991,1.719,3.184c0.188,3.121,0.058,6.176-0.119,9.559l-0.025,0.497c-0.068,1.294-0.136,2.587-0.174,3.882        l-0.006,0.192c-0.005,0.405-0.006,0.728-0.004,1.052c0.004,0.728,0.024,1.454,0.061,2.181c0.131,2.613-1.518,4.69-4.01,5.05        C198.009,284.151,197.834,284.164,197.66,284.164z M197.577,258.511c-1.982,0.286-3.28,1.933-3.154,4.004        c0.045,0.744,0.073,1.488,0.083,2.233c0.005,0.329,0.006,0.658,0.005,0.989l-0.005,0.407c-0.045,1.443-0.11,2.87-0.186,4.297        c-0.153,2.914-0.327,6.217-0.165,9.438c0.045,0.897,0.527,1.786,1.322,2.441c0.779,0.641,1.714,0.941,2.562,0.815        c1.992-0.288,3.26-1.899,3.154-4.009c-0.038-0.742-0.059-1.484-0.062-2.226c-0.002-0.329-0.001-0.658,0.003-0.987l0.007-0.299        c0.038-1.296,0.106-2.597,0.175-3.897l0.026-0.498c0.175-3.353,0.305-6.377,0.119-9.446c-0.055-0.914-0.548-1.814-1.352-2.469        C199.34,258.679,198.415,258.386,197.577,258.511L197.577,258.511z"/>
					</g>
				</g>
				<g>
					<g>
						<path style="fill:#FF8806;" d="M233.204,5.811c-1.802,3.07-2.708,7.857-0.417,10.081c2.074,2.013,5.664,0.399,7.637-1.532        c0.205,2.219,1.792,4.958,3.926,5.059c1.855,0.088,4.383-0.888,5.38-4.158c0.97,2.208,2.405,4.294,4.923,4.336        c1.964,0.032,3.901-1.709,4.478-3.676c1.415,2.73,3.005,3.719,5.295,3.75c1.493,0.02,3.932-1.066,4.936-4.385        c1.673,3.45,5.331,3.046,5.839-1.059c0.282-2.28-0.728-4.94-1.89-6.773L233.204,5.811z"/>
						<path d="M264.463,20.172c-0.015,0-0.028,0-0.043,0c-2.273-0.031-3.877-0.972-5.214-3.105c-0.917,1.769-2.728,3.031-4.5,3.031        c-0.02,0-0.041,0-0.061,0c-2.601-0.043-4.096-2.115-4.869-3.576c-1.26,2.615-3.655,3.484-5.45,3.397        c-2.059-0.098-3.72-2.304-4.25-4.587c-2.156,1.723-5.537,2.957-7.639,0.919c-2.458-2.387-1.662-7.291,0.334-10.693        l0.152-0.259l0.3,0.012l40.369,1.654l0.14,0.222c1.15,1.814,2.271,4.633,1.965,7.102c-0.258,2.087-1.358,3.539-2.872,3.79        c-1.24,0.208-2.462-0.41-3.355-1.639C268.187,19.361,265.806,20.172,264.463,20.172z M259.001,14.586l0.574,1.106        c1.282,2.475,2.645,3.45,4.858,3.48c0.01,0,0.02,0,0.029,0c1.124,0,3.455-0.837,4.421-4.03l0.37-1.226l0.559,1.152        c0.689,1.425,1.779,2.199,2.85,2.024c1.059-0.176,1.841-1.297,2.043-2.927c0.262-2.112-0.673-4.555-1.68-6.224l-39.538-1.62        c-1.68,3.04-2.287,7.333-0.353,9.212c1.86,1.807,5.178,0.19,6.939-1.531l0.75-0.734l0.098,1.046        c0.195,2.11,1.662,4.521,3.452,4.607c1.791,0.076,3.984-0.871,4.879-3.805l0.394-1.291l0.543,1.235        c1.196,2.724,2.617,4.006,4.474,4.037c1.64,0.043,3.446-1.461,3.989-3.316L259.001,14.586z"/>
					</g>
					<g>
						<path style="fill:#FF8806;" d="M233.133,5.895c-0.092,2.686,8.835,5.292,19.94,5.822c11.105,0.529,20.182-1.22,20.274-3.906        c0.092-2.686-8.836-5.293-19.941-5.822C242.302,1.46,233.225,3.208,233.133,5.895z"/>
						<path d="M256.946,12.31c-1.267,0-2.568-0.031-3.895-0.095c-9.987-0.476-20.537-2.858-20.417-6.338        c0.018-0.526,0.274-1.021,0.763-1.471c2.352-2.168,10.586-3.371,20.034-2.917c9.987,0.476,20.536,2.859,20.418,6.338        c-0.018,0.527-0.275,1.022-0.763,1.471C271.062,11.162,264.691,12.309,256.946,12.31z M249.444,2.392        c-8.149,0-13.782,1.287-15.37,2.75c-0.284,0.262-0.433,0.52-0.44,0.769v0.001c-0.071,2.066,7.904,4.753,19.464,5.305        c10.26,0.481,17.477-0.966,19.311-2.654c0.284-0.262,0.432-0.521,0.44-0.77c0.071-2.066-7.906-4.754-19.465-5.306        C252.014,2.423,250.699,2.392,249.444,2.392z"/>
					</g>
				</g>
				<g>
					<path style="fill:#FFB500;" d="M274.93,185.383c-1.339-14.01-12.812-25.26-27.277-25.912       c-14.464-0.652-26.904,9.519-29.499,23.351l-14.909-0.673l-3.099,68.71l86.594,3.906l3.099-68.71L274.93,185.383z"/>
					<path d="M287.216,255.288l-0.499-0.023l-87.094-3.929l0.023-0.499l3.121-69.21l14.979,0.677       c2.839-13.975,15.619-24,29.929-23.332c14.303,0.645,26.138,11.759,27.707,25.931l14.979,0.677l-0.023,0.499L287.216,255.288z        M200.668,250.382l85.595,3.86l3.054-67.711l-14.844-0.67l-0.042-0.432c-1.326-13.886-12.848-24.831-26.801-25.461       c-13.987-0.62-26.414,9.235-28.984,22.944l-0.08,0.428l-14.845-0.67L200.668,250.382z"/>
				</g>
				<g>
					<polygon style="fill:#FFB500;" points="270.725,52.899 233.093,51.201 234.025,29.236 271.456,30.924 270.735,52.504      "/>
					<path d="M271.211,53.421l-38.639-1.743l0.974-22.965l0.501,0.023l37.925,1.71L271.211,53.421z M233.614,50.725l36.626,1.651       l0.699-20.975l-36.435-1.644L233.614,50.725z"/>
				</g>
			</g>
			<g>
				<g>
					<path style="fill:#AD2328;" d="M287.604,266.945c-2.216,12.632-4.092,23.996-5.531,32.854       c-1.568,9.674,4.16,18.889,13.376,21.444c20.877,5.816,56.563,13.213,76.266,15.737c7.292,0.92,14.093-4.243,15.421-11.645       c0,0,3.151-17.018,7.276-39.75c3.875-21.454,8.628-48.011,12.395-70.115c3.31-19.382,5.839-35.355,6.401-41.475       c2.219-24.453-11.124-31.742-27.185-31.696l7.635-38.414l2.04-10.226l2.409-12.146l4.283-21.564l2.435-12.24l1.713-8.592       l0.039-0.159l-36.556-7.332l-1.673,8.039l-1.454,6.96l-1.275,6.124l-4.397,21.14l-0.083,0.385l-12.36,59.406       c0,0-26.573-9.045-35.999,14.209c-4.753,11.695-6.25,27.855-10.642,46.608C296.595,218.088,291.554,244.528,287.604,266.945z"/>
					<path d="M373.418,337.586c-0.584,0-1.173-0.036-1.767-0.111c-19.52-2.5-55.19-9.86-76.337-15.751       c-9.44-2.616-15.346-12.077-13.735-22.006c1.252-7.709,3.188-19.503,5.532-32.859v-0.001       c4.957-28.131,9.849-52.515,14.54-72.475c1.627-6.946,2.834-13.422,4.002-19.685c1.961-10.515,3.654-19.595,6.664-26.998       c8.743-21.572,32.221-15.778,36.084-14.659l21.23-102.003l37.551,7.531l-0.159,0.664l-20.393,102.567       c9.373,0.081,16.459,2.672,21.069,7.704c4.97,5.425,6.989,13.68,6.005,24.535c-0.656,7.149-3.846,26.521-6.405,41.514       c-3.028,17.767-7.083,40.702-12.397,70.119c-4.078,22.473-7.244,39.582-7.276,39.752       C386.353,332.532,380.291,337.586,373.418,337.586z M288.096,267.031c-2.342,13.352-4.277,25.142-5.53,32.848       c-1.527,9.425,4.068,18.402,13.017,20.883c21.11,5.88,56.716,13.227,76.195,15.722c7.055,0.89,13.576-4.047,14.866-11.236       c0.032-0.173,3.198-17.281,7.275-39.751c5.312-29.413,9.367-52.347,12.395-70.109c2.558-14.976,5.742-34.32,6.396-41.436       c0.959-10.562-0.975-18.56-5.747-23.77c-4.486-4.898-11.48-7.381-20.788-7.381c-0.05,0-0.1,0-0.15,0l-0.61,0.002       l20.568-103.452l-35.572-7.135l-21.256,102.121l-0.535-0.182c-0.066-0.023-6.663-2.223-14.293-1.589       c-10.16,0.849-17.253,6.067-21.082,15.512c-2.971,7.31-4.655,16.345-6.606,26.806c-1.17,6.273-2.38,12.761-4.012,19.729       c-4.688,19.942-9.575,44.308-14.529,72.42V267.031z"/>
				</g>
				<g>
					<path d="M369.171,328.141c-8.778,0-25.862-2.922-36.145-5.004c-18.135-3.673-37.536-8.985-39.529-12.034       c-0.188-0.287-0.252-0.574-0.191-0.853c0.789-3.659,27.628,0.766,41.711,3.617c18.135,3.674,37.536,8.986,39.529,12.034       c0.188,0.287,0.252,0.574,0.191,0.853l0,0C374.525,327.743,372.416,328.141,369.171,328.141z M298.308,309.834       c-2.443,0-3.816,0.229-4.027,0.636c0.13,1.568,14.07,6.65,38.945,11.688c24.893,5.043,39.744,5.793,40.532,4.387       c-0.185-1.598-14.119-6.669-38.94-11.696C317.034,311.246,304.376,309.834,298.308,309.834z"/>
				</g>
				<g>
					<g>
						<g>
							<path style="fill:#FFFFFF;" d="M329.335,140.312c0.094-0.003,0.187-0.003,0.28-0.002c2.48,0.045,5.184,2.19,4.335,4.946         c-0.798,2.592-3.809,2.922-5.733,4.279c-2.911,2.053-3.659,6.444-4.677,9.647c-0.888,2.792-2.614,6.639-6.34,5.536         c-4.636-1.373-1.944-7.095-0.833-10.239c1.371-3.878,3.122-7.914,6.117-10.818         C324.227,141.972,326.863,140.385,329.335,140.312z"/>
						</g>
					</g>
					<g>
						<path style="fill:#FFFFFF;" d="M383.842,290.883c2.109,0.847,3.095,3.029,2.411,5.247c-0.217,0.705-0.418,1.414-0.602,2.128        c-0.081,0.316-0.16,0.634-0.236,0.952c-0.032,0.133-0.062,0.265-0.093,0.398c-0.292,1.395-0.566,2.794-0.829,4.195        c-0.584,3.106-1.179,6.223-2.08,9.259c-0.619,2.085-3.264,3.351-5.209,2.57c-2.127-0.854-3.072-3.021-2.411-5.247        c0.209-0.705,0.403-1.414,0.581-2.127c0.078-0.316,0.154-0.633,0.228-0.951c0.003-0.011,0.008-0.033,0.014-0.061        c0.018-0.082,0.037-0.171,0.047-0.215c0.304-1.434,0.571-2.875,0.842-4.315c0.586-3.109,1.194-6.23,2.129-9.262        C379.274,291.374,381.883,290.096,383.842,290.883z"/>
						<path style="fill:#FFFFFF;" d="M378.459,316.365c-0.503,0-0.991-0.09-1.441-0.271c-2.336-0.939-3.448-3.346-2.704-5.854        c0.208-0.698,0.399-1.399,0.575-2.105c0.077-0.312,0.153-0.626,0.226-0.942l0.058-0.262c0.274-1.295,0.518-2.589,0.761-3.882        l0.081-0.428c0.625-3.322,1.218-6.316,2.142-9.316c0.352-1.142,1.235-2.122,2.425-2.689c1.145-0.546,2.401-0.618,3.447-0.198        l0,0c2.325,0.935,3.462,3.398,2.703,5.858c-0.214,0.697-0.414,1.398-0.596,2.105c-0.08,0.312-0.158,0.627-0.233,0.942        l-0.093,0.396c-0.288,1.38-0.561,2.775-0.824,4.173c-0.544,2.892-1.16,6.169-2.092,9.31c-0.336,1.13-1.205,2.104-2.386,2.676        C379.84,316.202,379.136,316.365,378.459,316.365z M382.586,291.147c-0.517,0-1.058,0.125-1.576,0.372        c-0.937,0.446-1.629,1.205-1.899,2.081c-0.908,2.949-1.495,5.914-2.114,9.207l-0.08,0.427        c-0.245,1.301-0.49,2.602-0.765,3.898l-0.049,0.222c-0.088,0.384-0.164,0.703-0.243,1.022c-0.18,0.721-0.375,1.438-0.587,2.15        c-0.601,2.025,0.25,3.891,2.118,4.641c0.792,0.319,1.772,0.25,2.681-0.188c0.928-0.449,1.607-1.199,1.862-2.061        c0.918-3.091,1.529-6.342,2.068-9.21c0.264-1.403,0.538-2.805,0.831-4.204l0.096-0.41c0.075-0.321,0.155-0.642,0.237-0.961        c0.186-0.722,0.39-1.439,0.609-2.15c0.61-1.983-0.262-3.89-2.121-4.637l0,0C383.324,291.213,382.961,291.147,382.586,291.147z        "/>
					</g>
				</g>
				<g>
					<g>
						<path style="fill:#FF8806;" d="M408.72,37.382c1.025,3.409,0.776,8.275-1.976,9.895c-2.491,1.466-5.598-0.95-7.059-3.292        c-0.724,2.108-2.912,4.394-5.01,3.989c-1.824-0.352-4.05-1.898-4.246-5.311c-1.464,1.916-3.351,3.605-5.808,3.05        c-1.916-0.432-3.387-2.582-3.483-4.63c-2.02,2.319-3.799,2.904-6.031,2.393c-1.455-0.333-3.569-1.964-3.76-5.427        c-2.44,2.958-5.9,1.7-5.424-2.408c0.264-2.282,1.874-4.628,3.437-6.135L408.72,37.382z"/>
						<path d="M395.159,48.519c-0.193,0-0.387-0.018-0.579-0.055c-1.782-0.345-3.887-1.751-4.493-4.59        c-1.098,1.235-3.035,2.898-5.576,2.325c-1.747-0.395-3.237-2.065-3.717-4.023c-1.802,1.759-3.581,2.296-5.799,1.787        c-1.301-0.299-3.463-1.646-4.025-4.818c-1.158,0.981-2.493,1.291-3.647,0.8c-1.411-0.601-2.138-2.272-1.896-4.362        c0.287-2.472,2.041-4.946,3.588-6.438l0.188-0.182l0.256,0.052l39.655,7.935l0.086,0.288c1.137,3.777,0.751,8.73-2.2,10.469        c-2.523,1.485-5.518-0.515-7.206-2.696C398.839,46.904,397,48.519,395.159,48.519z M390.85,41.286l0.077,1.348        c0.176,3.061,2.101,4.512,3.842,4.849c1.748,0.348,3.754-1.655,4.443-3.66l0.341-0.993l0.556,0.891        c1.305,2.091,4.151,4.442,6.382,3.126c2.323-1.368,2.746-5.683,1.833-9.033l-38.802-7.765        c-1.373,1.383-2.857,3.536-3.103,5.65c-0.189,1.632,0.307,2.906,1.294,3.327c0.991,0.423,2.238-0.072,3.247-1.295l0.814-0.987        l0.07,1.278c0.185,3.359,2.287,4.719,3.373,4.968c2.152,0.494,3.711-0.133,5.542-2.234l0.818-0.939l0.058,1.244        c0.091,1.933,1.479,3.801,3.095,4.166c1.81,0.409,3.494-0.504,5.3-2.867L390.85,41.286z"/>
					</g>
					<g>
						<path style="fill:#FF8806;" d="M408.769,37.479c-0.545,2.632-9.836,3.056-20.751,0.947        c-10.916-2.109-19.323-5.952-18.778-8.583c0.545-2.632,9.836-3.056,20.752-0.948        C400.907,31.004,409.314,34.847,408.769,37.479z"/>
						<path d="M400.622,40.262c-3.781,0-8.338-0.503-12.698-1.345c-9.283-1.793-17.005-4.904-18.779-7.566        c-0.368-0.552-0.501-1.094-0.393-1.609c0.704-3.408,11.521-3.233,21.335-1.338c9.283,1.794,17.006,4.906,18.779,7.567        c0.368,0.552,0.501,1.094,0.394,1.609C408.867,39.475,405.351,40.262,400.622,40.262z M377.383,28.046        c-4.547,0-7.413,0.735-7.654,1.898c-0.05,0.244,0.033,0.53,0.247,0.852c1.382,2.074,8.056,5.191,18.137,7.139        c11.364,2.197,19.747,1.469,20.167-0.558c0.05-0.244-0.033-0.53-0.247-0.852c-1.382-2.073-8.056-5.191-18.137-7.14        C385.057,28.452,380.757,28.046,377.383,28.046z"/>
					</g>
				</g>
				<g>
					<path style="fill:#FFB500;" d="M325.763,202.017c4.61-13.297,18.416-21.519,32.625-18.737       c14.209,2.782,23.895,15.604,23.149,29.658l14.646,2.868l-13.217,67.498L297.9,266.648l13.217-67.498L325.763,202.017z"/>
					<path d="M383.361,283.891l-0.49-0.097l-85.558-16.752l0.097-0.49l13.312-67.989l14.714,2.881       c4.872-13.399,19.001-21.408,33.048-18.653c14.05,2.751,24.113,15.491,23.572,29.739l14.714,2.882l-0.097,0.49L383.361,283.891       z M298.487,266.253l84.085,16.464l13.025-66.517l-14.582-2.855l0.023-0.434c0.739-13.929-9.039-26.456-22.745-29.141       c-13.711-2.68-27.489,5.23-32.057,18.41l-0.143,0.41l-14.582-2.855L298.487,266.253z"/>
				</g>
				<g>
					<polygon style="fill:#FFB500;" points="361.139,74.275 398.107,81.513 402.39,59.95 365.619,52.75 361.222,73.889      "/>
					<path d="M398.501,82.1l-0.489-0.097l-37.468-7.336l0.189-0.884l4.497-21.62l0.484,0.096l37.264,7.296L398.501,82.1z        M361.734,73.882l35.979,7.044l4.089-20.582l-35.795-7.009L361.734,73.882z"/>
				</g>
			</g>
		</g>
		<g>
			
				<rect x="76.64" y="194.646" transform="matrix(0.9993 0.0375 -0.0375 0.9993 10.5793 -8.9868)" style="fill:#71D2C4;" width="337.061" height="166.499"/>
			<path d="M410.946,367.917l-0.499-0.019L73.122,355.255l6.273-167.381l0.499,0.019l337.325,12.643L410.946,367.917z      M74.159,354.294l335.826,12.585l6.197-165.383L80.356,188.912L74.159,354.294z"/>
		</g>
	</g>
	<g>
		<g>
			<g>
				<path d="M166.11,304.332c0.497,6.523,3.492,13.131,7.134,18.521c2.048,3.028,4.32,5.799,6.783,8.326      c22.494,23.094,60.956,26.01,90.558,20.774c2.533-0.448,5.059-0.972,7.563-1.57c2.098-0.507,4.188-1.064,6.255-1.674      c5.926-1.768,11.708-4.007,17.252-6.765c1.63-0.807,3.238-1.668,4.825-2.571c6.732-3.842,12.914-8.994,16.872-15.854      c2.219-3.848,3.474-8.225,3.328-12.731c-0.449-13.754-12.152-24.175-25.57-22.771c-67.926,7.104-55.866,2.272-108.926-5.619      c-7.913-1.175-16.396,0.908-21.683,7.315C166.884,294.107,165.721,299.19,166.11,304.332z"/>
				<path d="M245.624,354.634c-23.884,0-49.351-6.06-65.955-23.108c-2.517-2.581-4.817-5.405-6.839-8.393      c-4.207-6.225-6.771-12.889-7.219-18.763l0,0c-0.436-5.775,1.08-10.815,4.506-14.977c4.962-6.014,13.241-8.816,22.143-7.491      c13.828,2.057,23.232,3.904,30.788,5.39c21.393,4.204,27.85,5.474,78.013,0.227c6.534-0.688,12.872,1.325,17.842,5.658      c5.04,4.393,8.058,10.806,8.279,17.594c0.142,4.404-1.032,8.898-3.395,12.998c-3.6,6.236-9.338,11.633-17.058,16.038      c-1.641,0.933-3.272,1.803-4.852,2.585c-5.42,2.695-11.252,4.982-17.332,6.796c-2.014,0.595-4.126,1.16-6.28,1.682      c-2.511,0.599-5.065,1.129-7.593,1.575C262.876,353.824,254.354,354.634,245.624,354.634z M166.609,304.294      c0.434,5.704,2.938,12.195,7.049,18.278c1.988,2.94,4.252,5.717,6.727,8.257c22.402,23,61.24,25.738,90.113,20.631      c2.508-0.443,5.043-0.969,7.533-1.563c2.137-0.517,4.233-1.078,6.229-1.668c6.023-1.797,11.802-4.061,17.172-6.732      c1.562-0.774,3.178-1.636,4.801-2.559c7.562-4.315,13.177-9.588,16.686-15.669c2.27-3.938,3.397-8.248,3.261-12.465      c-0.213-6.512-3.105-12.662-7.937-16.873c-4.758-4.148-10.823-6.072-17.081-5.418c-50.315,5.263-56.805,3.987-78.309-0.24      c-7.546-1.482-16.938-3.328-30.742-5.382c-8.561-1.268-16.488,1.399-21.225,7.139      C167.632,293.986,166.192,298.786,166.609,304.294L166.609,304.294z"/>
			</g>
			<g>
				<g>
					<path style="fill:#FFB2B0;" d="M193.178,422.149c0,0,43.6,17.689,59.885-31.872c0,0,10.685-33.991,25.479-39.773       c1.202-0.47,5.861-1.795,5.861-1.795c5.926-1.768,11.708-4.007,17.252-6.765c-5.844-12.249-29.415-54.029-64.88-17.678       c0,0-5.401-29.825-34.285-16.312c-7.93,3.71-14.397,11.274-22.464,23.226C160.872,359.576,150.593,402.976,193.178,422.149z"/>
					<path d="M210.793,425.693c-10.036,0-17.686-3.032-17.803-3.08l-0.018-0.007c-14.959-6.735-24.455-16.871-28.226-30.126       c-4.955-17.416,0.603-40.438,14.865-61.581c7.576-11.225,14.33-19.499,22.666-23.399c8.919-4.172,16.55-4.681,22.681-1.513       c8.417,4.351,11.372,14.192,12.108,17.27c10.757-10.781,21.413-15.387,31.686-13.686c17.647,2.919,29.204,23.461,33.353,32.158       l0.212,0.443l-0.44,0.219c-5.421,2.696-11.253,4.983-17.333,6.797c-0.052,0.015-4.654,1.325-5.821,1.782       c-14.405,5.63-25.078,39.12-25.185,39.458c-5.141,15.645-13.517,26.248-24.896,31.522       C222.542,424.777,216.307,425.693,210.793,425.693z M193.374,421.69c0.457,0.182,18.185,7.08,34.857-0.651       c11.115-5.154,19.31-15.557,24.357-30.917c0.437-1.391,10.925-34.28,25.771-40.083c1.211-0.474,5.715-1.757,5.906-1.811       c5.853-1.746,11.48-3.938,16.725-6.514c-4.254-8.789-15.508-28.362-32.4-31.156c-10.139-1.676-20.722,3.053-31.458,14.057       l-0.676,0.693l-0.174-0.954c-0.023-0.125-2.395-12.631-11.788-17.482c-5.84-3.015-13.174-2.5-21.792,1.533       c-8.128,3.803-14.777,11.966-22.262,23.052c-14.1,20.903-19.607,43.612-14.732,60.749       C169.394,405.162,178.703,415.082,193.374,421.69z"/>
				</g>
				<g>
					<path d="M208.248,387.144l-0.961-0.277c3.314-11.494,7.557-22.797,12.612-33.594c4.743-10.132,10.281-19.984,16.46-29.284       l0.832,0.553c-6.15,9.259-11.664,19.068-16.386,29.155C215.771,364.447,211.546,375.7,208.248,387.144z"/>
				</g>
				<g>
					<g>
						<path style="fill:#FFFFFF;" d="M208.749,416.967c6.681-0.533,13.138-3.186,18.77-6.873c6.366-4.168,10.165-9.449,14.53-15.538        c1.325-1.849,4,0.49,2.679,2.334c-9.165,12.787-19.508,22.356-35.638,23.642C206.841,420.712,206.501,417.147,208.749,416.967        z"/>
					</g>
					<g>
						<path style="fill:#FFFFFF;" d="M213.841,310.757c2.229-0.242,2.902,3.278,0.662,3.521        c-7.722,0.837-15.372,5.858-18.552,13.255c-0.899,2.091-4.208,0.895-3.302-1.213        C196.305,317.814,204.855,311.731,213.841,310.757z"/>
					</g>
					<g>
						<path style="fill:#FFFFFF;" d="M191.375,330.466c2.124,0.78,0.965,4.15-1.164,3.368        C188.086,333.054,189.246,329.685,191.375,330.466z"/>
					</g>
				</g>
			</g>
		</g>
		<g>
			<path style="fill:#71D2C4;" d="M253.558,253.292l-0.624,12.282c0,0-19.597-9.198-20.245,0.275     c-0.649,9.47,19.872,13.509,19.872,13.509"/>
			<path d="M252.464,279.848c-0.855-0.168-20.946-4.236-20.274-14.034c0.121-1.768,0.864-3.066,2.209-3.857     c4.65-2.735,15.263,1.621,18.073,2.859l0.587-11.55l0.998,0.051l-0.661,13.025l-0.674-0.316     c-0.13-0.061-13.003-6.042-17.816-3.208c-1.058,0.622-1.619,1.624-1.718,3.063c-0.612,8.928,19.268,12.945,19.47,12.985     L252.464,279.848z"/>
		</g>
		<g>
			<g>
				<g>
					<path style="fill:#FFFFFF;" d="M368.527,246.013c-4.305,28.596-30.968,48.288-59.574,43.983       c-28.596-4.305-48.288-30.979-43.983-59.574c3.226-21.426,19.012-37.866,38.757-42.931c6.606-1.699,13.648-2.131,20.818-1.052       c3.954,0.592,7.743,1.616,11.324,3.019C358.135,198.165,372.24,221.361,368.527,246.013z"/>
					<path d="M316.779,291.084c-2.607,0-5.246-0.194-7.9-0.594c-13.963-2.102-26.271-9.516-34.657-20.876       c-8.387-11.359-11.848-25.305-9.745-39.267c3.168-21.045,18.526-38.058,39.127-43.341c6.877-1.77,13.948-2.129,21.016-1.062       c3.925,0.588,7.77,1.613,11.433,3.047c23.113,9.04,36.672,32.519,32.97,57.096C365.083,272.253,342.48,291.084,316.779,291.084       z M316.683,186.346c-4.32,0-8.613,0.544-12.831,1.629c-20.212,5.184-35.279,21.874-38.388,42.521       c-2.062,13.698,1.333,27.38,9.561,38.524c8.228,11.146,20.303,18.419,34.001,20.481c2.603,0.392,5.195,0.581,7.751,0.582       c25.217,0.002,47.39-18.472,51.255-44.145l0,0c3.632-24.112-9.67-47.148-32.346-56.016c-3.593-1.407-7.366-2.413-11.217-2.99       C321.872,186.542,319.272,186.346,316.683,186.346z"/>
				</g>
				<g>
					<path d="M333.407,287.027c-4.034,1.206-9.435,2.385-15.849,2.584c-7.771,0.234-14.221-1.047-18.717-2.341       c-2.805-5.028,2.143-10.855,0.45-16.299c-1.389-4.467-4.423-6.299-3.742-11.815c0.564-4.448,3.846-7.785,5.744-11.672       c3.764-7.682-0.135-9.323-2.014-16.957c-1.192-4.877-0.13-7.966,2.427-12.375c2.971-5.116,3.855-4.855,1.842-10.198       c-1.189-3.191-3.818-6.214-4.028-9.884c-0.23-4.01,1.422-8.052,4.208-10.579c6.606-1.699,13.648-2.131,20.818-1.052       c3.954,0.592,7.743,1.616,11.324,3.019c1.632,3.06,0.989,6.716,0.817,8.401c-0.375,3.658-3.132,6.606-4.472,9.766       c-2.242,5.294-1.358,5.061,1.385,10.253c2.365,4.471,3.288,7.589,1.879,12.424c-2.211,7.586-6.185,9.121-2.765,16.896       c1.73,3.944,4.861,7.359,5.222,11.822c0.439,5.531-2.683,7.276-4.264,11.699C331.737,276.125,336.419,282.075,333.407,287.027z       "/>
					<path d="M315.691,290.139c-5.77,0-11.475-0.802-16.989-2.389l-0.197-0.057l-0.101-0.181c-1.599-2.866-0.834-5.959-0.094-8.951       c0.613-2.482,1.248-5.049,0.503-7.442c-0.472-1.516-1.145-2.728-1.795-3.902c-1.249-2.251-2.429-4.377-1.966-8.123       c0.389-3.065,2.017-5.616,3.591-8.083c0.773-1.213,1.574-2.466,2.199-3.747c2.496-5.094,1.511-7.367,0.018-10.809       c-0.691-1.595-1.475-3.402-2.067-5.811c-1.231-5.037-0.132-8.244,2.479-12.744c0.49-0.844,0.924-1.542,1.297-2.144       c1.866-3.005,2.105-3.391,0.511-7.628c-0.412-1.104-0.996-2.179-1.614-3.317c-1.133-2.084-2.303-4.238-2.445-6.715       c-0.235-4.112,1.439-8.318,4.371-10.977l0.092-0.083l0.119-0.031c6.877-1.77,13.947-2.126,21.017-1.062       c3.925,0.588,7.77,1.613,11.433,3.047l0.172,0.067l0.087,0.163c1.543,2.895,1.147,6.307,0.934,8.14l-0.062,0.548       c-0.253,2.469-1.52,4.592-2.746,6.643c-0.668,1.119-1.3,2.176-1.762,3.267c-1.782,4.206-1.56,4.6,0.175,7.663       c0.345,0.607,0.744,1.312,1.192,2.161c2.414,4.563,3.373,7.795,1.917,12.797c-0.698,2.396-1.562,4.184-2.325,5.762       c-1.643,3.398-2.728,5.644-0.462,10.793c0.569,1.298,1.313,2.571,2.033,3.803c1.465,2.509,2.98,5.103,3.229,8.181       c0.298,3.752-0.975,5.841-2.322,8.052c-0.704,1.156-1.432,2.351-1.97,3.854c-0.853,2.383-0.331,4.97,0.174,7.472       c0.605,3.006,1.232,6.114-0.482,8.931l-0.1,0.164l-0.184,0.056c-5.223,1.561-10.599,2.438-15.978,2.604       C316.945,290.129,316.317,290.139,315.691,290.139z M299.181,286.847c5.949,1.689,12.121,2.448,18.361,2.264       c5.228-0.162,10.453-1.006,15.533-2.507c1.391-2.441,0.841-5.168,0.26-8.051c-0.531-2.636-1.081-5.36-0.135-8.005       c0.572-1.601,1.327-2.84,2.058-4.039c1.315-2.158,2.451-4.023,2.18-7.452c-0.232-2.85-1.623-5.232-3.098-7.755       c-0.733-1.256-1.492-2.555-2.085-3.905c-2.45-5.571-1.223-8.113,0.478-11.631c0.745-1.542,1.59-3.291,2.265-5.605       c1.369-4.7,0.498-7.631-1.841-12.051c-0.442-0.839-0.837-1.535-1.178-2.136c-1.852-3.27-2.14-4.028-0.225-8.546       c0.488-1.153,1.167-2.29,1.823-3.389c1.17-1.959,2.38-3.984,2.61-6.232l0.062-0.562c0.21-1.807,0.559-4.807-0.739-7.391       c-3.539-1.371-7.253-2.354-11.041-2.922c-6.895-1.037-13.791-0.696-20.498,1.012c-2.657,2.465-4.17,6.32-3.954,10.097       c0.13,2.252,1.246,4.307,2.326,6.294c0.607,1.119,1.236,2.275,1.672,3.444c1.714,4.553,1.393,5.3-0.598,8.506       c-0.369,0.595-0.797,1.285-1.281,2.118c-2.53,4.361-3.531,7.271-2.374,12.004c0.572,2.325,1.339,4.092,2.015,5.65       c1.545,3.564,2.662,6.139-0.037,11.646c-0.65,1.332-1.466,2.609-2.255,3.846c-1.585,2.482-3.081,4.828-3.441,7.669       c-0.423,3.421,0.63,5.318,1.848,7.514c0.676,1.218,1.374,2.477,1.876,4.091c0.827,2.66,0.159,5.364-0.487,7.98       C298.573,281.666,297.903,284.374,299.181,286.847z"/>
				</g>
				<g>
					
						<rect x="367.09" y="222.364" transform="matrix(0.9287 -0.3707 0.3707 0.9287 -55.6184 156.3627)" width="23.713" height="1.001"/>
				</g>
				<g>
					
						<rect x="359.291" y="202.587" transform="matrix(0.8398 -0.5429 0.5429 0.8398 -50.8465 233.8725)" width="23.086" height="1"/>
				</g>
				<g>
					
						<rect x="343.347" y="187.017" transform="matrix(0.4966 -0.868 0.868 0.4966 15.4159 401.6125)" width="21.158" height="0.999"/>
				</g>
			</g>
		</g>
		<g>
			<g>
				<g>
					<path style="fill:#FFFFFF;" d="M122.664,237.355c4.061,28.632,30.555,48.551,59.197,44.49       c28.632-4.061,48.551-30.566,44.49-59.197c-3.043-21.453-18.688-38.026-38.389-43.26c-6.591-1.755-13.629-2.247-20.808-1.23       c-3.959,0.559-7.756,1.55-11.349,2.922C133.465,189.598,119.162,212.673,122.664,237.355z"/>
					<path d="M174.474,282.868c-25.889,0.001-48.567-19.089-52.305-45.442c-3.491-24.608,10.267-47.971,33.458-56.812       c3.674-1.403,7.528-2.396,11.456-2.95c7.077-1.002,14.143-0.585,21.007,1.241c20.555,5.46,35.768,22.602,38.756,43.673       c4.093,28.86-16.056,55.67-44.914,59.763C179.427,282.695,176.934,282.867,174.474,282.868z M174.577,178.131       c-2.443,0-4.897,0.174-7.353,0.521c-3.854,0.544-7.637,1.518-11.24,2.894c-22.752,8.676-36.25,31.596-32.824,55.738l0,0       c4.015,28.312,30.314,48.083,58.632,44.064c28.312-4.016,48.08-30.317,44.064-58.632c-2.932-20.672-17.857-37.49-38.022-42.847       C183.482,178.711,179.045,178.131,174.577,178.131z"/>
				</g>
				<g>
					<path d="M157.434,278.667c4.024,1.24,9.415,2.466,15.827,2.719c7.769,0.3,14.229-0.926,18.736-2.181       c2.848-5.004-2.05-10.873-0.311-16.302c1.427-4.455,4.477-6.261,3.843-11.783c-0.526-4.453-3.78-7.817-5.644-11.721       c-3.698-7.714,0.215-9.321,2.159-16.939c1.233-4.867,0.198-7.965-2.322-12.395c-2.928-5.141-3.813-4.888-1.755-10.214       c1.216-3.181,3.87-6.181,4.112-9.849c0.264-4.007-1.353-8.064-4.117-10.614c-6.591-1.755-13.629-2.247-20.808-1.23       c-3.959,0.559-7.756,1.55-11.349,2.922c-1.658,3.046-1.046,6.707-0.889,8.393c0.344,3.661,3.076,6.632,4.388,9.804       c2.197,5.313,1.314,5.073-1.472,10.241c-2.403,4.45-3.352,7.561-1.985,12.407c2.146,7.605,6.107,9.174,2.621,16.919       c-1.764,3.929-4.924,7.318-5.323,11.776c-0.486,5.528,2.621,7.298,4.164,11.735C159.197,267.78,154.464,273.69,157.434,278.667       z"/>
					<path d="M175.654,281.932c-0.804,0-1.606-0.015-2.412-0.046c-5.375-0.212-10.743-1.135-15.955-2.741l-0.184-0.057l-0.099-0.165       c-1.689-2.831-1.036-5.934-0.405-8.935c0.525-2.497,1.069-5.079,0.236-7.47c-0.524-1.509-1.242-2.71-1.937-3.871       c-1.328-2.223-2.583-4.322-2.253-8.071c0.275-3.076,1.813-5.658,3.301-8.154c0.729-1.225,1.484-2.49,2.064-3.783       c2.31-5.13,1.243-7.385-0.37-10.797c-0.749-1.584-1.599-3.38-2.276-5.781c-1.414-5.013-0.427-8.237,2.026-12.78       c0.456-0.845,0.861-1.546,1.21-2.151c1.761-3.048,1.987-3.44,0.241-7.661c-0.453-1.094-1.075-2.155-1.733-3.279       c-1.209-2.063-2.458-4.197-2.691-6.669l-0.057-0.549c-0.197-1.834-0.563-5.249,1.005-8.131l0.089-0.162l0.172-0.065       c3.675-1.403,7.529-2.396,11.457-2.95c7.077-1.002,14.143-0.585,21.007,1.241l0.119,0.032l0.091,0.084       c2.91,2.685,4.549,6.905,4.277,11.015c-0.163,2.475-1.352,4.619-2.502,6.692c-0.628,1.133-1.222,2.203-1.642,3.303       c-1.632,4.225-1.395,4.613,0.444,7.633c0.368,0.605,0.796,1.308,1.278,2.155c2.572,4.523,3.646,7.739,2.371,12.766       c-0.613,2.402-1.412,4.202-2.117,5.791c-1.521,3.429-2.527,5.693-0.074,10.81c0.614,1.287,1.404,2.548,2.168,3.767       c1.553,2.48,3.159,5.044,3.521,8.11c0.431,3.75-0.767,5.866-2.034,8.107c-0.661,1.168-1.344,2.376-1.828,3.888       c-0.766,2.388-0.152,4.96,0.439,7.447c0.714,2.998,1.452,6.098-0.171,8.95l-0.102,0.18l-0.199,0.055       C186.771,281.179,181.239,281.932,175.654,281.932z M157.769,278.248c5.07,1.545,10.287,2.433,15.512,2.639       c6.23,0.247,12.411-0.467,18.379-2.106c1.3-2.463,0.653-5.177-0.03-8.046c-0.624-2.62-1.27-5.33-0.42-7.983       c0.516-1.61,1.226-2.863,1.911-4.075c1.236-2.186,2.305-4.073,1.911-7.499c-0.335-2.842-1.811-5.199-3.375-7.694       c-0.778-1.243-1.584-2.528-2.223-3.866c-2.651-5.531-1.513-8.097,0.062-11.648c0.69-1.552,1.471-3.311,2.062-5.632       c1.197-4.724,0.222-7.641-2.271-12.024c-0.477-0.838-0.9-1.531-1.264-2.129c-1.963-3.223-2.276-3.973-0.523-8.513       c0.445-1.163,1.084-2.315,1.701-3.428c1.097-1.978,2.23-4.023,2.378-6.275c0.249-3.772-1.23-7.642-3.867-10.13       c-6.692-1.766-13.585-2.164-20.488-1.186c-3.792,0.535-7.514,1.486-11.065,2.827c-1.32,2.573-0.998,5.575-0.804,7.385       l0.059,0.562c0.212,2.251,1.404,4.287,2.559,6.257c0.646,1.104,1.316,2.245,1.794,3.402c1.875,4.534,1.581,5.29-0.299,8.545       c-0.346,0.598-0.745,1.29-1.195,2.125c-2.377,4.4-3.273,7.323-1.944,12.034c0.655,2.32,1.485,4.076,2.218,5.625       c1.67,3.532,2.876,6.084,0.378,11.635c-0.604,1.345-1.373,2.636-2.117,3.885c-1.496,2.511-2.909,4.882-3.164,7.731       c-0.302,3.425,0.818,5.299,2.115,7.469c0.72,1.205,1.465,2.451,2.023,4.057c0.923,2.652,0.351,5.373-0.203,8.004       C156.972,273.072,156.4,275.793,157.769,278.248z"/>
				</g>
				<g>
					
						<rect x="111.943" y="202.263" transform="matrix(0.3785 -0.9256 0.9256 0.3785 -128.3058 237.1487)" width="1" height="23.713"/>
				</g>
				<g>
					
						<rect x="120.225" y="182.869" transform="matrix(0.5506 -0.8348 0.8348 0.5506 -108.035 188.1475)" width="0.999" height="23.086"/>
				</g>
				<g>
					
						<rect x="137.263" y="168.406" transform="matrix(0.8721 -0.4894 0.4894 0.8721 -69.9701 90.3218)" width="1.001" height="21.159"/>
				</g>
			</g>
		</g>
	</g>
</g>















</svg>
