<?xml version="1.0" encoding="UTF-8"?>
<!-- Generator: Adobe Illustrator 27.1.1, SVG Export Plug-In . SVG Version: 6.00 Build 0)  -->
<svg xmlns="http://www.w3.org/2000/svg" xmlns:xlink="http://www.w3.org/1999/xlink" version="1.1" id="Capa_1" x="0px" y="0px" viewBox="0 0 509.286 509.286" style="enable-background:new 0 0 509.286 509.286;" xml:space="preserve" width="512" height="512">
<g>
	<g>
		<rect x="22.132" y="410.722" width="461.571" height="1"/>
	</g>
	<g>
		<g>
			<g>
				<g>
					<path d="M163.847,403.59c18.703,11.416,38.24,24.875,60.217,28.786c5.093,0.906,15.545,2.13,19.327-2.868       c2.072-2.738,2.381-10.662,2.548-13.797c0.67-12.56-5.269-24.307-10.085-35.583c-5.558-13.014,14.18-22.844,19.766-9.763       c9.542,22.342,25.15,68.15-5.77,82.375c-31.222,14.364-73.329-15.607-98.374-30.895       C139.372,414.455,151.738,396.199,163.847,403.59z"/>
					<path d="M231.714,457.002c-24.943,0.001-52.919-17.509-72.802-29.953c-2.708-1.694-5.281-3.305-7.696-4.779       c-6.232-3.805-6.126-10.362-3.39-14.845c3.138-5.142,9.738-8.256,16.282-4.262c2.268,1.384,4.548,2.799,6.844,4.223       c16.706,10.362,33.981,21.077,53.199,24.497c5.536,0.983,15.343,1.945,18.841-2.678c1.878-2.48,2.259-9.869,2.421-13.024       l0.026-0.497c0.586-10.979-3.945-21.359-8.327-31.397c-0.58-1.328-1.156-2.649-1.718-3.963       c-1.713-4.012-1.263-8.078,1.267-11.451c2.667-3.555,7.245-5.604,11.381-5.108c3.606,0.435,6.46,2.709,8.038,6.403       c7.216,16.895,11.363,31.83,12.327,44.389c1.485,19.352-4.688,32.352-18.348,38.636       C244.267,455.858,238.089,457.002,231.714,457.002z M157.999,402.36c-3.899,0-7.35,2.36-9.32,5.587       c-2.569,4.208-2.62,10.005,3.058,13.471c2.417,1.476,4.995,3.088,7.705,4.785c24.783,15.51,62.235,38.945,90.199,26.083       c13.241-6.091,19.219-18.759,17.769-37.651c-0.956-12.45-5.077-27.278-12.25-44.073c-1.431-3.352-4.001-5.413-7.238-5.803       c-3.795-0.458-8.002,1.437-10.461,4.715c-2.307,3.075-2.714,6.789-1.146,10.458c0.56,1.312,1.136,2.63,1.714,3.956       c4.428,10.145,9.008,20.634,8.41,31.85l-0.026,0.495c-0.182,3.522-0.56,10.851-2.623,13.577       c-3.628,4.796-12.777,4.311-19.813,3.059c-19.408-3.453-36.765-14.22-53.552-24.632c-2.293-1.423-4.572-2.836-6.838-4.219       C161.696,402.863,159.8,402.36,157.999,402.36z"/>
				</g>
				<g>
					<g>
						<path style="fill:#AD2328;" d="M184.771,411.442c0,0,18.357-4.645,1.202,19.8c-18.393,26.21-16.786,1.978-16.786,1.978        l-4.979,2.227c0,0,0.639,43.993-28.08,38.191c-28.719-5.802-10.207-38.453,3.039-57.01        C152.41,398.07,162.922,375.306,184.771,411.442z"/>
						<path d="M141.116,474.663c-1.624,0-3.321-0.178-5.089-0.535c-7.469-1.509-12.31-4.945-14.388-10.212        c-4.955-12.559,6.575-32.806,17.119-47.579c1.295-1.815,2.581-3.694,3.823-5.511c6.775-9.904,13.201-19.252,21.398-19.027        c6.45,0.181,13.332,6.422,21.032,19.076c1.353-0.277,6.029-0.995,7.971,1.822c2.174,3.156-0.046,9.492-6.601,18.831        c-6.546,9.328-11.251,13.328-14.383,12.221c-3.23-1.139-3.393-7.453-3.343-9.745l-3.948,1.765        c-0.005,1.389-0.109,6.961-1.323,13.389c-1.296,6.859-4.16,16.132-10.445,21.352        C149.612,473.275,145.649,474.663,141.116,474.663z M163.685,392.795c-7.557,0-13.737,9.036-20.278,18.596        c-1.246,1.821-2.534,3.704-3.835,5.527c-8.514,11.929-22.045,33.85-17.002,46.631c1.946,4.931,6.54,8.161,13.656,9.598        c6.39,1.293,11.798,0.146,16.074-3.405c11.625-9.651,11.411-34.044,11.408-34.289l-0.005-0.329l6.038-2.7l-0.055,0.829        c-0.155,2.343,0.019,8.628,2.646,9.554c1.797,0.634,5.551-0.908,13.231-11.852c7.834-11.164,7.911-15.781,6.596-17.69        c-1.843-2.674-7.212-1.353-7.266-1.338l-0.359,0.091l-0.191-0.317c-7.586-12.547-14.256-18.73-20.392-18.902        C163.863,392.796,163.773,392.795,163.685,392.795z"/>
					</g>
					<g>
						<path d="M164.157,435.452c-0.466-1.148-0.763-2.312-1.001-3.483c-0.248-1.169-0.398-2.348-0.526-3.528        c-0.097-1.184-0.174-2.369-0.153-3.564c0.011-1.194,0.081-2.393,0.317-3.609l0.099-0.01l0.731,7.087l0.632,7.097        L164.157,435.452z"/>
					</g>
					<g>
						<path d="M164.174,435.484c-0.957-0.386-1.801-0.897-2.605-1.453c-0.811-0.548-1.556-1.17-2.286-1.808        c-0.709-0.661-1.405-1.337-2.035-2.086c-0.637-0.742-1.234-1.527-1.719-2.437l0.067-0.074l4.356,3.855l4.289,3.929        L164.174,435.484z"/>
					</g>
					<g>
						<path style="fill:#FFFFFF;" d="M151.645,464.535c-0.817,0.831-1.779,1.499-2.775,2.115c-0.497,0.314-1.042,0.531-1.565,0.803        c-0.537,0.24-1.091,0.442-1.642,0.666c-2.243,0.776-4.7,0.978-7.09,0.69c-0.603-0.053-1.183-0.223-1.762-0.392        c-0.577-0.172-1.17-0.292-1.707-0.567l-1.642-0.725c-0.519-0.291-1.008-0.636-1.496-0.972l-0.731-0.502l-0.659-0.59        l-1.297-1.184c-0.413-0.412-0.739-0.908-1.107-1.353c-0.363-0.452-0.709-0.915-1.039-1.384l0.076-0.066        c0.809,0.8,1.574,1.649,2.419,2.408l1.34,1.056l0.672,0.524l0.735,0.432c0.491,0.285,0.976,0.583,1.472,0.857l1.575,0.647        c0.513,0.25,1.077,0.346,1.624,0.495c0.548,0.146,1.096,0.294,1.665,0.328c2.24,0.34,4.555,0.16,6.743-0.451        c2.183-0.621,4.283-1.591,6.13-2.912L151.645,464.535z"/>
					</g>
				</g>
			</g>
			<g>
				<g>
					<path d="M319.258,350.111c53.112,12.947,66.306,91.357,53.346,135.461c-3.873,13.18-23.478,4.478-19.63-8.616       c5.446-18.535,3.238-42.424-2.037-61.084c-4.512-15.96-16.839-40.182-34.767-44.552       C302.885,368.082,305.842,346.841,319.258,350.111z"/>
					<path d="M364.46,492.615c-3.193,0-6.638-1.501-9.102-4.086c-3.064-3.214-4.107-7.484-2.864-11.714       c4.835-16.457,4.073-39.188-2.039-60.807c-2.611-9.24-7.089-18.891-12.283-26.476c-6.633-9.686-14.282-15.816-22.121-17.727       c-5.594-1.364-10.511-7.027-8.607-14.836c1.174-4.817,5.314-8.957,11.933-7.345l0,0c17.223,4.198,31.753,15.83,42.019,33.637       c18.174,31.526,19.637,75.402,11.688,102.451c-1.038,3.533-3.321,5.894-6.429,6.647       C365.947,492.532,365.21,492.615,364.46,492.615z M316.528,350.265c-4.685,0-7.277,3.516-8.112,6.942       c-1.307,5.357,1.009,11.955,7.872,13.627c8.083,1.97,15.936,8.24,22.71,18.133c5.253,7.671,9.78,17.428,12.421,26.769       c6.161,21.793,6.922,44.731,2.035,61.361c-1.14,3.878-0.182,7.793,2.629,10.742c2.805,2.942,6.959,4.367,10.337,3.549       c1.942-0.471,4.509-1.887,5.705-5.957c7.888-26.844,6.438-70.387-11.596-101.669c-10.126-17.565-24.438-29.033-41.389-33.165       l0,0C318.206,350.369,317.335,350.265,316.528,350.265z"/>
				</g>
				<g>
					<g>
						<path style="fill:#AD2328;" d="M352.494,472.14c0,0-17.505-13.134,16.727-13.212c36.703-0.084,13.989,13.404,13.989,13.404        l5.608,2.969c0,0,38.645-27.586,54.412,0.992c15.768,28.578-26.748,32.515-52.896,32.381        C364.185,508.539,336.289,513.37,352.494,472.14z"/>
						<path d="M376.315,509.286c-11.623,0-21.911-0.889-26.556-7.607c-4.005-5.793-3.307-15.405,2.135-29.376        c-1.186-0.964-5.325-4.64-4.176-8.1c1.263-3.802,8.497-5.746,21.502-5.775c13.373-0.072,20.343,1.684,21.324,5.242        c0.951,3.449-4.327,7.303-6.337,8.625l4.575,2.423c2.49-1.704,22.562-14.954,38.997-11.219        c6.799,1.544,12.144,5.768,15.888,12.553c4.018,7.281,4.549,13.507,1.581,18.506c-7.29,12.276-33.861,14.73-54.917,14.616        c-2.56-0.014-5.167,0.022-7.687,0.056C380.508,509.258,378.39,509.286,376.315,509.286z M369.564,459.427        c-0.113,0-0.227,0-0.342,0c-15.602,0.035-19.789,2.787-20.555,5.089c-1.084,3.259,4.075,7.184,4.127,7.223l0.305,0.228        l-0.139,0.355c-5.435,13.825-6.212,23.241-2.379,28.788c5.171,7.479,18.227,7.304,32.049,7.119        c2.526-0.034,5.139-0.067,7.707-0.056c16.958,0.083,46.631-1.631,54.051-14.126c2.774-4.673,2.237-10.565-1.596-17.513        c-3.601-6.525-8.726-10.583-15.233-12.061c-17.035-3.868-38.238,11.083-38.451,11.234l-0.251,0.18l-6.668-3.53l0.766-0.455        c2.109-1.253,7.409-5.128,6.625-7.967C389.011,461.874,385.067,459.427,369.564,459.427z"/>
					</g>
					<g>
						<path d="M388.85,475.339c-1.5,2.162-3.337,3.929-5.257,5.597c-0.982,0.809-1.964,1.617-3.033,2.324l-1.606,1.058        c-0.575,0.306-1.113,0.655-1.721,0.922l-0.065-0.076l5.776-4.989l5.841-4.913L388.85,475.339z"/>
					</g>
					<g>
						<path d="M388.868,475.303c0.302,1.044,0.435,2.079,0.507,3.112c0.083,1.033,0.068,2.061,0.031,3.088        c-0.069,1.025-0.157,2.049-0.344,3.069c-0.177,1.02-0.412,2.037-0.815,3.045l-0.1-0.005l0.261-6.159l0.361-6.154        L388.868,475.303z"/>
					</g>
					<g>
						<path style="fill:#FFFFFF;" d="M423.831,468.373c1.285,0.183,2.511,0.607,3.734,1.049c1.198,0.5,2.362,1.095,3.483,1.778        c2.228,1.387,4.177,3.258,5.724,5.436c1.434,2.252,2.432,4.808,2.716,7.445c0.104,1.319,0.143,2.634-0.002,3.931        c-0.166,1.294-0.424,2.565-0.822,3.789l-0.098-0.018c0.452-2.5,0.544-5.071,0.156-7.579c-0.413-2.503-1.357-4.912-2.779-7.01        c-1.411-2.107-3.264-3.899-5.34-5.354c-2.082-1.447-4.376-2.614-6.798-3.37L423.831,468.373z"/>
					</g>
				</g>
			</g>
		</g>
		<g>
			<g>
				<path style="fill:#FFFFFF;" d="M224.016,371.515c2.06,4.234,4.14,8.469,6.2,12.703c15.999,1.35,37.994,1.545,63.467-3.283      c24.88-4.73,44.876-12.692,59.103-19.638l2.099-14.519c-16.191,8.975-37.02,17.809-62.149,22.72      C266.68,374.602,243.199,374.064,224.016,371.515z"/>
				<path d="M249.922,385.548c-6.587,0-13.175-0.277-19.748-0.832l-0.283-0.024l-0.125-0.255c-1.036-2.129-2.077-4.259-3.118-6.388      c-1.029-2.105-2.058-4.211-3.082-6.316l-0.407-0.837l0.923,0.123c23.044,3.061,46.109,2.385,68.557-2.011      c21.638-4.229,42.499-11.855,62.004-22.667l0.881-0.488l-2.281,15.778l-0.237,0.116c-18.738,9.149-38.666,15.77-59.228,19.68      C279.298,384.171,264.613,385.548,249.922,385.548z M230.541,383.744c21.051,1.75,42.261,0.64,63.049-3.3      c20.388-3.876,40.149-10.43,58.738-19.48l1.918-13.262c-19.343,10.606-40,18.103-61.416,22.288      c-22.256,4.359-45.113,5.079-67.958,2.142c0.889,1.826,1.782,3.652,2.675,5.478C228.546,379.655,229.546,381.7,230.541,383.744z      "/>
			</g>
			<g>
				<g>
					<path style="fill:#00C257;" d="M386.239,325.529c-14.823,12.108-46.694,34.802-93.509,43.978       c-51.074,9.959-92.226-1.616-110.42-7.952c-4.191-29.248-8.385-58.472-12.576-87.72       c-9.251-64.48-18.474-128.984-27.722-193.489c2.773,21.982,50.018,34.113,105.524,27.073c3.983-0.503,7.896-1.088,11.716-1.756       c15.429-2.661,29.576-6.615,41.743-11.365c26.902-10.626,43.785-25.317,41.999-39.411l29.88,186.974L386.239,325.529z"/>
					<path d="M252.389,373.91c-28.776,0-53.011-5.882-70.244-11.882l-0.287-0.1l-12.62-88.021       c-5.091-35.485-10.173-70.977-15.256-106.473c-4.128-28.819-8.255-57.643-12.387-86.466c-0.03-0.186-0.057-0.372-0.08-0.559       l0.991-0.133c0.026,0.18,0.052,0.362,0.078,0.543c1.637,10.172,13.159,18.49,32.539,23.464       c19.874,5.101,45.569,6.039,72.349,2.642c3.993-0.504,7.927-1.094,11.693-1.753c14.981-2.583,28.993-6.398,41.646-11.338       c27.795-10.979,43.379-25.514,41.685-38.882l0.99-0.142l43.292,270.926l-0.223,0.182       c-18.894,15.432-50.491,35.606-93.73,44.081C278.609,372.77,265.058,373.91,252.389,373.91z M182.761,361.183       c24.718,8.566,63.755,16.825,109.872,7.833c42.864-8.401,74.236-28.357,93.066-43.692L343.322,60.12       c-2.276,12.27-17.467,24.896-42.146,34.644c-12.718,4.965-26.794,8.798-41.841,11.393c-3.781,0.661-7.73,1.253-11.739,1.759       c-26.902,3.412-52.729,2.465-72.723-2.665c-16.38-4.204-27.274-10.823-31.509-18.984c3.872,27.01,7.739,54.019,11.607,81.025       c5.083,35.496,10.165,70.987,15.256,106.473L182.761,361.183z"/>
				</g>
			</g>
			<g>
				<g>
					<g>
						<path style="fill:#FFFFFF;" d="M142.014,80.352c2.744,21.696,48.779,33.777,103.303,27.325c0.746-0.068,1.47-0.16,2.217-0.25        c3.974-0.504,7.889-1.097,11.719-1.761c11.868-2.059,22.967-4.856,32.986-8.215c3.021-1.013,5.936-2.076,8.743-3.166        c26.923-10.615,43.796-25.312,42.011-39.389c-2.773-21.96-50.027-34.086-105.52-27.053        C181.96,34.854,139.221,58.37,142.014,80.352z"/>
						<path d="M216.518,109.918c-15.653,0-30.168-1.638-42.397-4.865c-19.671-5.19-31.25-13.94-32.603-24.639l0,0        c-1.379-10.85,7.897-22.346,26.12-32.37c18.086-9.949,42.865-17.3,69.773-20.697c26.896-3.409,52.722-2.461,72.717,2.667        c20.145,5.166,31.993,13.981,33.362,24.82c1.757,13.853-14.065,28.775-42.324,39.917c-2.943,1.143-5.892,2.21-8.767,3.175        c-10.249,3.436-21.372,6.206-33.061,8.233c-3.944,0.684-7.895,1.277-11.741,1.764l-0.341,0.041        c-0.634,0.077-1.256,0.152-1.894,0.211C235.51,109.341,225.813,109.918,216.518,109.918z M268.448,26.336        c-9.941,0-20.342,0.665-30.912,2.004c-26.786,3.382-51.439,10.691-69.417,20.581c-17.838,9.813-26.933,20.953-25.609,31.368v0        c2.683,21.214,48.776,33.28,102.748,26.89c0.641-0.059,1.253-0.133,1.878-0.208l0.338-0.041        c3.828-0.485,7.763-1.076,11.693-1.757c11.638-2.019,22.711-4.776,32.912-8.196c2.861-0.96,5.796-2.022,8.722-3.158        c27.804-10.962,43.392-25.489,41.696-38.859c-1.314-10.405-12.898-18.92-32.618-23.977        C297.85,27.898,283.69,26.336,268.448,26.336z"/>
					</g>
					<g>
						<path style="fill:#FFFFFF;" d="M164.342,77.773c2.719,15.774,39.966,23.549,83.173,17.362c3.095-0.442,6.14-0.95,9.118-1.505        c11.998-2.236,22.962-5.359,32.338-9.04c20.783-8.189,33.605-19.114,31.855-29.215c-2.719-15.758-39.966-23.533-83.173-17.347        C194.428,44.2,161.606,61.999,164.342,77.773z"/>
						<path d="M218.845,97.743c-30.145,0.001-52.872-7.561-54.996-19.885v0c-0.61-3.519,0.448-7.184,3.146-10.895        c9.39-12.915,37.757-24.743,70.588-29.431c43.411-6.216,80.974,1.751,83.737,17.757c1.735,10.018-10.289,21.145-32.165,29.765        c-9.726,3.818-20.637,6.868-32.43,9.066c-3.079,0.574-6.153,1.082-9.139,1.509C237.578,97.063,227.877,97.742,218.845,97.743z         M266.649,36.395c-9.072,0-18.835,0.684-28.924,2.128c-32.58,4.652-60.68,16.318-69.921,29.029        c-2.533,3.483-3.531,6.893-2.969,10.135v0.001c2.67,15.488,39.727,23.093,82.61,16.952c2.972-0.424,6.033-0.93,9.097-1.502        c11.732-2.186,22.581-5.218,32.247-9.013c21.401-8.433,33.194-19.149,31.546-28.664        C318.291,43.624,296.135,36.395,266.649,36.395z"/>
					</g>
				</g>
				<g>
					<g>
						<path d="M219.739,74.907c0.312,0.294,0.597,0.586,0.934,0.881c0.86-0.078,1.697-0.184,2.557-0.288        c4.587-0.581,9.104-1.266,13.525-2.032c13.694-2.375,26.505-5.603,38.066-9.479c-0.419-2.464-1.747-4.902-3.964-7.162        c-8.344-8.533-26.585-11.414-40.673-6.418C216.069,55.429,211.394,66.399,219.739,74.907z"/>
						<path d="M220.505,76.306l-0.161-0.142c-0.229-0.2-0.434-0.399-0.64-0.599l-0.321-0.308c-3.528-3.597-4.943-7.866-3.985-12.021        c1.293-5.607,6.622-10.454,14.62-13.298c14.249-5.053,32.73-2.119,41.198,6.539c2.275,2.32,3.655,4.82,4.1,7.428l0.071,0.422        l-0.405,0.136c-11.826,3.964-24.658,7.159-38.14,9.497c-4.547,0.789-9.105,1.473-13.548,2.036l-0.359,0.043        c-0.741,0.09-1.47,0.179-2.216,0.247L220.505,76.306z M220.091,74.552l0.308,0.295c0.145,0.141,0.291,0.281,0.445,0.423        c0.661-0.065,1.31-0.144,1.97-0.224l0.356-0.043c4.425-0.56,8.968-1.242,13.5-2.028c13.275-2.302,25.915-5.438,37.578-9.321        c-0.482-2.254-1.741-4.431-3.748-6.477c-8.223-8.408-26.233-11.231-40.148-6.296c-7.669,2.728-12.765,7.313-13.98,12.581        C215.481,67.325,216.767,71.16,220.091,74.552z"/>
					</g>
					<g>
						<path style="fill:#FFB500;" d="M228.095,20.173c2.33,0.662,4.634,1.754,6.776,3.295c8.415,6.057,11.121,16.684,6.045,23.737        c-5.076,7.052-16.013,7.858-24.428,1.801c-1.937-1.394-3.557-3.039-4.863-4.818c-5.821,0.498-12.22-1.19-17.776-5.19        c-10.944-7.878-14.464-21.698-7.861-30.87c6.601-9.171,20.825-10.22,31.768-2.343        C223.043,9.591,226.577,14.787,228.095,20.173z M231.456,30.115c-3.93-2.828-9.248-2.157-11.88,1.498        c-2.632,3.657-1.579,8.913,2.35,11.742c3.929,2.828,9.248,2.158,11.881-1.498C236.439,38.2,235.386,32.943,231.456,30.115z         M209.924,12.175c-5.065-3.647-11.921-2.782-15.312,1.93c-3.391,4.713-2.035,11.487,3.029,15.134        c5.064,3.646,11.92,2.781,15.312-1.931C216.345,22.596,214.989,15.821,209.924,12.175z"/>
						<path d="M228.607,53.571c-4.293,0-8.651-1.453-12.412-4.159c-1.833-1.32-3.449-2.901-4.807-4.703        c-6.119,0.45-12.445-1.427-17.832-5.305c-5.388-3.878-9.189-9.288-10.703-15.232c-1.521-5.976-0.553-11.778,2.728-16.335        c3.281-4.558,8.475-7.318,14.625-7.771c6.115-0.446,12.453,1.437,17.841,5.315c5.095,3.667,8.798,8.769,10.452,14.391        c2.366,0.705,4.607,1.812,6.664,3.292c4.165,2.998,7.103,7.181,8.274,11.778c1.179,4.629,0.428,9.124-2.116,12.657        c-2.543,3.533-6.567,5.672-11.331,6.023C229.53,53.554,229.069,53.571,228.607,53.571z M211.862,43.666l0.166,0.226        c1.33,1.811,2.929,3.395,4.752,4.708c3.975,2.862,8.641,4.257,13.137,3.922c4.464-0.329,8.226-2.321,10.593-5.61        c2.367-3.289,3.063-7.489,1.958-11.826c-1.113-4.37-3.915-8.352-7.889-11.213c-2.04-1.468-4.268-2.551-6.621-3.22        l-0.268-0.076l-0.076-0.269c-1.552-5.51-5.157-10.523-10.15-14.118c-5.198-3.742-11.299-5.562-17.184-5.129        c-5.85,0.431-10.782,3.044-13.887,7.358c-3.105,4.313-4.018,9.82-2.57,15.505c1.456,5.717,5.12,10.926,10.318,14.667        c5.276,3.798,11.466,5.611,17.442,5.098L211.862,43.666z M227.266,45.6c-1.927,0-3.908-0.6-5.631-1.84        c-4.148-2.986-5.253-8.566-2.464-12.44c2.788-3.874,8.431-4.596,12.577-1.611l0,0c4.147,2.985,5.253,8.566,2.465,12.44        C232.583,44.412,229.977,45.6,227.266,45.6z M226.115,28.868c-2.4,0-4.697,1.044-6.132,3.037        c-2.466,3.426-1.463,8.381,2.236,11.044c3.699,2.662,8.716,2.042,11.183-1.384c2.466-3.427,1.462-8.381-2.237-11.044l0,0        C229.617,29.407,227.84,28.868,226.115,28.868z M204.524,31.99c-2.455,0-4.979-0.765-7.174-2.345        c-5.28-3.801-6.689-10.903-3.143-15.832c1.722-2.393,4.34-3.921,7.372-4.303c3.018-0.378,6.086,0.422,8.638,2.26        c2.552,1.837,4.287,4.492,4.884,7.474c0.6,2.996-0.018,5.964-1.741,8.356C211.286,30.479,207.973,31.989,204.524,31.99z         M203.05,10.417c-0.449,0-0.898,0.028-1.347,0.085c-2.753,0.347-5.127,1.73-6.685,3.895        c-3.225,4.481-1.917,10.957,2.915,14.436c4.832,3.478,11.388,2.663,14.614-1.817c1.559-2.165,2.117-4.856,1.572-7.576        c-0.547-2.734-2.141-5.17-4.487-6.859l0,0C207.666,11.165,205.37,10.417,203.05,10.417z"/>
					</g>
				</g>
			</g>
			<g>
				<path style="fill:#FFB500;" d="M386.239,325.529c-14.823,12.108-46.694,34.802-93.509,43.978      c-51.074,9.959-92.226-1.616-110.42-7.952c-4.191-29.248-8.385-58.472-12.576-87.72c22.085,5.439,60.671,11.945,107.603,4.042      c43.965-7.404,76.611-24.313,95.535-36.015L386.239,325.529z"/>
				<path d="M252.389,373.91c-28.776,0-53.011-5.882-70.244-11.882l-0.287-0.1l-12.725-88.755l0.72,0.177      c34.896,8.594,72.036,9.99,107.4,4.034c33.941-5.716,66.024-17.81,95.355-35.947l0.638-0.395l0.119,0.741l13.413,83.952      l-0.223,0.182c-18.894,15.432-50.491,35.606-93.73,44.081C278.609,372.77,265.058,373.91,252.389,373.91z M182.761,361.183      c24.718,8.566,63.755,16.825,109.872,7.833c42.864-8.401,74.236-28.357,93.066-43.692l-13.205-82.644      c-29.268,17.988-61.251,29.993-95.076,35.69c-35.258,5.936-72.269,4.596-107.086-3.873L182.761,361.183z"/>
			</g>
			<g>
				<g>
					<path style="fill:#FFFFFF;" d="M210.138,308.244c0.062-0.449,0.502-0.903,1.32-1.367c1.723-0.973,4.597-1.522,8.624-1.642       c2.091-0.05,4.365,0.095,6.82,0.433c5.846,0.805,10.114,2.544,12.803,5.217c2.357,2.349,3.312,5.141,2.867,8.376       c-0.161,1.17-0.523,2.287-1.087,3.35c-0.563,1.065-1.263,1.827-2.102,2.286c-0.96-0.668-1.917-1.068-2.872-1.199       c-0.449-0.062-0.801-0.021-1.059,0.122c-0.259,0.144-0.42,0.449-0.484,0.917c2.849,0.51,4.937,1.85,6.267,4.02       c1.177,1.969,1.586,4.268,1.223,6.898c-0.56,4.073-2.674,6.799-6.337,8.182c-3.435,1.294-8.367,1.499-14.797,0.614       c-4.501-0.62-7.785-1.216-9.851-1.788c-2.066-0.572-3.493-1.449-4.284-2.63c-0.79-1.181-1.037-2.843-0.742-4.986       L210.138,308.244z M222.942,332.7c0.07,0.069,0.289,0.129,0.66,0.179c0.37,0.052,0.67-0.036,0.9-0.263       c0.228-0.225,0.388-0.661,0.477-1.304l0.077-0.555c0.098-0.721,0.086-1.249-0.036-1.583c-0.123-0.335-0.373-0.528-0.754-0.581       c-0.379-0.052-0.643-0.048-0.79,0.01c0.005,0.1-0.007,0.267-0.039,0.501L222.942,332.7z M224.459,321.681       c0.069,0.069,0.29,0.129,0.66,0.181c0.371,0.051,0.673-0.056,0.909-0.322c0.234-0.266,0.398-0.729,0.489-1.393l0.024-0.174       c0.097-0.702,0.082-1.214-0.041-1.54c-0.125-0.324-0.377-0.512-0.756-0.565c-0.38-0.052-0.644-0.048-0.79,0.01       c0.005,0.1-0.007,0.267-0.04,0.501L224.459,321.681z"/>
					<path d="M228.392,345.484c-2.142,0-4.523-0.179-7.136-0.539c-4.506-0.621-7.842-1.228-9.915-1.802       c-2.173-0.602-3.71-1.556-4.566-2.834c-0.856-1.28-1.133-3.074-0.821-5.332l3.689-26.802c0.085-0.617,0.598-1.184,1.568-1.733       c1.814-1.025,4.71-1.583,8.856-1.706c2.104-0.053,4.433,0.097,6.903,0.438c5.929,0.816,10.332,2.619,13.087,5.358       c2.463,2.455,3.476,5.415,3.01,8.798c-0.169,1.226-0.553,2.409-1.141,3.516c-0.607,1.147-1.382,1.986-2.302,2.491l-0.272,0.149       l-0.254-0.177c-0.89-0.62-1.783-0.995-2.655-1.115c-0.331-0.045-0.591-0.023-0.748,0.065c-0.034,0.018-0.066,0.051-0.094,0.097       c2.709,0.605,4.746,1.996,6.061,4.141c1.235,2.065,1.669,4.496,1.292,7.228c-0.584,4.248-2.823,7.135-6.656,8.581       C234.209,345.091,231.563,345.484,228.392,345.484z M210.632,308.312l-3.689,26.802c-0.277,2.008-0.054,3.569,0.662,4.64       c0.719,1.073,2.066,1.89,4.002,2.426c2.031,0.563,5.323,1.16,9.786,1.775c6.314,0.867,11.21,0.671,14.552-0.586       c3.512-1.325,5.48-3.871,6.018-7.782c0.345-2.501-0.045-4.713-1.158-6.574c-1.261-2.057-3.2-3.296-5.926-3.784l-0.473-0.084       l0.066-0.476c0.086-0.63,0.335-1.062,0.737-1.286c0.358-0.198,0.805-0.256,1.369-0.181c0.938,0.129,1.885,0.5,2.819,1.103       c0.638-0.421,1.19-1.069,1.645-1.928c0.533-1.004,0.881-2.075,1.034-3.185c0.426-3.099-0.465-5.701-2.726-7.953       c-2.597-2.582-6.809-4.29-12.518-5.076c-2.416-0.333-4.682-0.478-6.74-0.428c-3.921,0.116-6.745,0.647-8.39,1.577       C210.79,307.829,210.651,308.183,210.632,308.312L210.632,308.312z M223.8,333.394c-0.084,0-0.173-0.006-0.267-0.019       c-0.523-0.072-0.779-0.158-0.942-0.319l-0.178-0.176l0.529-3.844c0.025-0.19,0.039-0.325,0.035-0.406l-0.019-0.359l0.335-0.132       c0.234-0.094,0.565-0.107,1.043-0.039c0.559,0.077,0.969,0.398,1.154,0.904c0.152,0.415,0.173,1.011,0.062,1.822l-0.078,0.556       c-0.105,0.762-0.308,1.283-0.621,1.591C224.651,333.173,224.311,333.394,223.8,333.394z M223.494,332.357       c0.05,0.009,0.108,0.017,0.176,0.027c0.28,0.042,0.402-0.045,0.48-0.122c0.068-0.067,0.234-0.298,0.334-1.018l0.077-0.555       c0.113-0.833,0.042-1.198-0.011-1.341c-0.05-0.137-0.126-0.227-0.352-0.258c-0.101-0.014-0.184-0.022-0.252-0.027       c-0.004,0.035-0.009,0.071-0.014,0.109L223.494,332.357z M225.292,322.374c-0.079,0-0.159-0.005-0.242-0.017       c-0.526-0.074-0.781-0.161-0.943-0.32l-0.178-0.176l0.488-3.551c0.027-0.191,0.04-0.326,0.036-0.406l-0.019-0.359l0.334-0.133       c0.238-0.094,0.559-0.108,1.042-0.04c0.712,0.099,1.021,0.533,1.155,0.88c0.157,0.413,0.179,0.997,0.07,1.789l-0.024,0.175       c-0.105,0.767-0.304,1.308-0.609,1.654C226.108,322.203,225.728,322.374,225.292,322.374z M225.01,321.339       c0.05,0.009,0.109,0.018,0.177,0.028c0.206,0.03,0.34-0.017,0.465-0.158c0.094-0.106,0.268-0.396,0.368-1.129l0.025-0.176       c0.11-0.803,0.039-1.156-0.014-1.294c-0.048-0.124-0.128-0.215-0.357-0.247c-0.1-0.014-0.183-0.022-0.251-0.027       c-0.005,0.036-0.01,0.074-0.015,0.113L225.01,321.339z"/>
				</g>
				<g>
					<path style="fill:#FFFFFF;" d="M262.869,308.074l16.988-1.109c0.63,0.906,1.12,1.904,1.467,2.995       c0.346,1.091,0.549,2.078,0.607,2.961c0.129,1.982-0.161,3.499-0.871,4.551c-0.71,1.051-1.762,1.623-3.154,1.713l-11.865,0.774       c-0.726,0.047-1.071,0.357-1.033,0.925l0.015,0.236c0.008,0.118,0.032,0.195,0.074,0.232l14.072-0.918       c0.393,0.585,0.747,1.331,1.063,2.237c0.301,0.985,0.478,1.871,0.528,2.655c0.153,2.337-0.16,4.189-0.938,5.561l-6.389,0.417       c-2.984,0.195-4.998,0.44-6.044,0.734c-1.045,0.294-1.691,0.529-1.935,0.703c-0.244,0.193-0.356,0.427-0.338,0.702       c0.018,0.275,0.168,0.482,0.454,0.621c0.998-0.401,2.053-0.705,3.162-0.917c1.464-0.233,3.058-0.406,4.786-0.519l8.272-0.54       c1.307,1.61,2.039,3.602,2.193,5.977c0.088,1.335,0.004,2.622-0.25,3.86c-0.255,1.24-0.692,2.253-1.31,3.042l-22.052,1.439       c-2.433,0.159-4.424-0.302-5.974-1.384c-1.691-1.151-2.616-2.943-2.775-5.377l-1.827-27.999       c-0.061-0.943,0.972-1.699,3.103-2.272C255.032,308.803,258.355,308.368,262.869,308.074z"/>
					<path d="M259.469,346.937c-2.126,0-3.924-0.504-5.355-1.504c-1.812-1.234-2.819-3.171-2.987-5.755l-1.827-27.998       c-0.118-1.822,2.584-2.549,3.473-2.788c2.159-0.579,5.545-1.022,10.065-1.316l17.269-1.128l0.161,0.232       c0.657,0.944,1.173,1.996,1.534,3.129c0.357,1.129,0.569,2.165,0.629,3.081c0.136,2.086-0.185,3.722-0.956,4.863       c-0.798,1.182-1.987,1.832-3.536,1.932l-11.866,0.774c-0.363,0.023-0.482,0.117-0.517,0.156       c-0.037,0.042-0.054,0.112-0.051,0.209l13.918-0.908l0.161,0.238c0.414,0.616,0.791,1.407,1.12,2.352       c0.317,1.038,0.502,1.97,0.555,2.788c0.159,2.422-0.178,4.387-1.002,5.839l-0.133,0.235l-6.658,0.435       c-2.932,0.191-4.931,0.433-5.94,0.717c-1.341,0.377-1.691,0.565-1.78,0.628c-0.127,0.102-0.135,0.189-0.13,0.263       c0.002,0.025,0.004,0.055,0.025,0.089c0.944-0.36,1.952-0.644,2.999-0.844c1.495-0.238,3.121-0.414,4.848-0.527l8.53-0.556       l0.163,0.201c1.367,1.685,2.143,3.792,2.303,6.26c0.091,1.374,0.003,2.718-0.26,3.993c-0.268,1.308-0.74,2.401-1.405,3.25       l-0.138,0.176l-22.275,1.454C260.087,346.927,259.775,346.937,259.469,346.937z M279.603,307.483l-16.701,1.091       c-4.454,0.29-7.775,0.722-9.871,1.284c-1.805,0.485-2.776,1.11-2.734,1.757l1.827,27.998c0.149,2.292,0.985,3.926,2.557,4.997       c1.452,1.014,3.361,1.452,5.66,1.298l21.821-1.424c0.501-0.701,0.864-1.594,1.082-2.658c0.245-1.188,0.326-2.441,0.241-3.727       c-0.141-2.16-0.787-4.006-1.923-5.494l-8.011,0.522c-1.695,0.111-3.29,0.284-4.74,0.514c-1.064,0.203-2.097,0.503-3.055,0.887       l-0.207,0.083l-0.199-0.098c-0.442-0.217-0.703-0.585-0.733-1.037c-0.02-0.31,0.056-0.754,0.527-1.128       c0.224-0.16,0.644-0.379,2.109-0.792c1.092-0.307,3.102-0.553,6.146-0.752l6.111-0.399c0.634-1.259,0.886-2.955,0.748-5.047       c-0.048-0.741-0.219-1.596-0.508-2.542c-0.253-0.727-0.539-1.356-0.847-1.865l-13.979,0.912l-0.154-0.132       c-0.224-0.191-0.243-0.483-0.25-0.579l-0.015-0.237c-0.032-0.479,0.143-0.786,0.294-0.96c0.257-0.294,0.662-0.46,1.205-0.496       l11.866-0.774c1.241-0.081,2.147-0.569,2.772-1.494c0.643-0.953,0.907-2.379,0.786-4.239c-0.055-0.835-0.251-1.792-0.584-2.843       C280.547,309.167,280.129,308.284,279.603,307.483z"/>
				</g>
				<g>
					<path style="fill:#FFFFFF;" d="M298.306,302.658l16.441-4.415c0.796,0.764,1.47,1.648,2.025,2.649       c0.553,1.003,0.945,1.931,1.175,2.785c0.516,1.919,0.528,3.463,0.037,4.634c-0.491,1.171-1.41,1.937-2.759,2.299l-11.482,3.083       c-0.704,0.188-0.98,0.558-0.833,1.109l0.061,0.228c0.031,0.114,0.07,0.185,0.119,0.212l13.619-3.657       c0.5,0.498,0.993,1.159,1.481,1.986c0.487,0.908,0.834,1.742,1.037,2.501c0.608,2.261,0.664,4.139,0.17,5.637l-6.183,1.66       c-2.888,0.775-4.814,1.41-5.782,1.903c-0.967,0.495-1.555,0.85-1.76,1.069c-0.201,0.236-0.266,0.489-0.195,0.755       c0.072,0.266,0.26,0.439,0.567,0.52c0.9-0.588,1.874-1.094,2.922-1.518c1.388-0.515,2.919-0.997,4.59-1.447l8.008-2.149       c1.596,1.323,2.704,3.133,3.321,5.432c0.347,1.292,0.517,2.569,0.509,3.834c-0.006,1.265-0.236,2.344-0.688,3.239l-21.342,5.73       c-2.356,0.634-4.398,0.57-6.129-0.187c-1.884-0.798-3.142-2.374-3.776-4.729l-7.275-27.099       c-0.244-0.911,0.622-1.857,2.599-2.836C290.763,304.908,293.936,303.831,298.306,302.658z"/>
					<path d="M300.348,341.666c-1.199,0-2.307-0.219-3.311-0.658c-2.018-0.854-3.385-2.557-4.058-5.058l-7.275-27.099       c-0.472-1.764,2.036-3.006,2.86-3.414c1.999-0.989,5.233-2.086,9.612-3.262l16.713-4.488l0.204,0.195       c0.825,0.792,1.537,1.724,2.115,2.767c0.57,1.033,0.98,2.007,1.221,2.897c0.543,2.019,0.548,3.687,0.016,4.958       c-0.551,1.315-1.59,2.186-3.09,2.588l-11.482,3.083c-0.326,0.087-0.435,0.194-0.466,0.235       c-0.016,0.021-0.058,0.076-0.021,0.234l13.472-3.618l0.204,0.203c0.527,0.525,1.052,1.228,1.559,2.086       c0.515,0.958,0.878,1.836,1.09,2.626c0.63,2.343,0.684,4.336,0.161,5.922l-0.084,0.256l-6.444,1.73       c-2.841,0.763-4.754,1.391-5.684,1.866c-1.241,0.634-1.55,0.887-1.624,0.966c-0.099,0.117-0.096,0.207-0.075,0.283       c0.006,0.024,0.014,0.053,0.042,0.082c0.86-0.542,1.794-1.017,2.777-1.415c1.411-0.524,2.97-1.015,4.647-1.466l8.258-2.216       l0.199,0.164c1.671,1.385,2.844,3.298,3.484,5.688c0.358,1.333,0.535,2.667,0.527,3.967c-0.007,1.336-0.257,2.501-0.742,3.462       l-0.101,0.199l-21.558,5.788C302.388,341.517,301.336,341.666,300.348,341.666z M314.6,298.801l-16.163,4.34       c-4.316,1.159-7.488,2.233-9.429,3.193c-1.675,0.83-2.506,1.632-2.338,2.259l7.275,27.098c0.598,2.219,1.738,3.658,3.488,4.399       c1.621,0.71,3.573,0.764,5.804,0.164l21.12-5.671c0.352-0.784,0.534-1.731,0.54-2.818c0.008-1.211-0.158-2.456-0.492-3.702       c-0.561-2.09-1.558-3.774-2.963-5.01l-7.754,2.081c-1.647,0.443-3.178,0.925-4.546,1.433c-0.999,0.404-1.953,0.9-2.823,1.468       l-0.186,0.122l-0.214-0.057c-0.611-0.161-0.839-0.563-0.923-0.872c-0.115-0.429-0.013-0.847,0.296-1.21       c0.189-0.201,0.559-0.498,1.914-1.19c1.007-0.514,2.93-1.149,5.879-1.941l5.916-1.588c0.375-1.359,0.289-3.072-0.255-5.096       c-0.192-0.716-0.526-1.522-0.995-2.395c-0.391-0.661-0.794-1.222-1.196-1.663l-13.53,3.633l-0.178-0.1       c-0.255-0.142-0.332-0.423-0.357-0.516l-0.061-0.232c-0.143-0.535,0.02-0.904,0.181-1.119c0.21-0.28,0.539-0.477,1.007-0.601       l11.481-3.083c1.202-0.323,1.996-0.979,2.428-2.009c0.444-1.062,0.425-2.512-0.059-4.311c-0.22-0.812-0.6-1.712-1.131-2.673       C315.852,300.264,315.269,299.48,314.6,298.801z"/>
				</g>
				<g>
					<path style="fill:#FFFFFF;" d="M359.167,303.381l6.914,2.35c1.072,2.897,1.274,5.441,0.61,7.629       c-0.665,2.19-2.244,3.916-4.735,5.179c-1.878,0.952-3.736,1.332-5.575,1.14c-2.341-0.224-4.572-1.342-6.695-3.353l-2.255-2.099       c-0.746,0.356-1.725,0.732-2.937,1.124c-0.069,0.213-0.042,0.441,0.084,0.687c0.24,0.473,1.092,0.394,2.558-0.239l3.421,3.029       l1.134,2.237c-1.298,2.444-3.525,4.466-6.682,6.067c-2.264,1.148-4.307,1.599-6.128,1.354       c-1.823-0.245-3.182-1.253-4.081-3.025l-12.673-25c-0.391-0.771-0.061-1.881,0.991-3.33c1.052-1.448,2.613-2.979,4.685-4.592       c2.072-1.612,4.256-3.001,6.554-4.166c5.263-2.668,9.924-3.675,13.982-3.02c4.271,0.68,7.446,3.073,9.527,7.178       c1.193,2.35,1.55,4.699,1.076,7.046c-0.475,2.346-1.557,4.356-3.245,6.028c0.284,0.561,0.765,0.67,1.44,0.328       C357.81,305.59,358.488,304.74,359.167,303.381z M342.547,304.265c0.096,0.018,0.312-0.058,0.646-0.228       c0.332-0.169,0.52-0.429,0.562-0.781c0.043-0.352-0.088-0.826-0.39-1.423l-0.48-0.948c-0.32-0.632-0.624-1.045-0.911-1.242       c-0.287-0.195-0.601-0.208-0.943-0.034c-0.343,0.174-0.557,0.326-0.644,0.458c0.061,0.079,0.146,0.224,0.253,0.434       L342.547,304.265z"/>
					<path d="M339.853,329.049c-0.354,0-0.699-0.023-1.038-0.068c-1.985-0.267-3.486-1.375-4.461-3.295l-12.673-25       c-0.488-0.962-0.15-2.221,1.032-3.85c1.075-1.48,2.685-3.059,4.783-4.692c2.09-1.627,4.322-3.046,6.635-4.217       c5.334-2.705,10.14-3.737,14.288-3.068c4.416,0.704,7.744,3.208,9.893,7.446c1.238,2.442,1.615,4.922,1.119,7.371       c-0.461,2.277-1.486,4.274-3.052,5.944c0.001,0,0.001,0,0.002,0c0.115,0.026,0.306-0.02,0.528-0.133       c0.396-0.2,1.03-0.767,1.811-2.329l0.195-0.39l7.552,2.567l0.082,0.223c1.105,2.986,1.314,5.661,0.62,7.948       c-0.703,2.315-2.381,4.159-4.987,5.479c-1.955,0.991-3.928,1.392-5.853,1.191c-2.439-0.233-4.791-1.407-6.987-3.488       l-2.005-1.867c-0.645,0.288-1.434,0.588-2.353,0.896c0.01,0.028,0.022,0.06,0.04,0.094l0,0c0.002,0,0.339,0.208,1.915-0.472       l0.292-0.126l3.773,3.387l1.251,2.468l-0.122,0.229c-1.341,2.526-3.661,4.639-6.896,6.279       C343.306,328.556,341.5,329.049,339.853,329.049z M345.891,285.661c-3.375,0-7.166,1.057-11.308,3.157       c-2.256,1.143-4.434,2.527-6.474,4.115c-2.024,1.576-3.567,3.086-4.588,4.491c-0.914,1.259-1.242,2.231-0.948,2.81l12.673,25       c0.827,1.631,2.038,2.532,3.701,2.756c1.714,0.23,3.676-0.208,5.836-1.304c2.95-1.496,5.083-3.389,6.343-5.63l-0.972-1.917       l-3.112-2.756c-0.852,0.352-2.403,0.882-2.91-0.119c-0.187-0.368-0.225-0.728-0.111-1.069l0.079-0.24l0.241-0.078       c1.183-0.384,2.15-0.754,2.876-1.1l0.307-0.146l2.503,2.331c2.033,1.926,4.186,3.009,6.402,3.222       c1.74,0.181,3.52-0.185,5.301-1.088c2.353-1.193,3.861-2.834,4.482-4.878c0.612-2.018,0.438-4.402-0.52-7.088l-6.279-2.134       c-0.669,1.243-1.342,2.025-2.051,2.385c-0.443,0.225-0.85,0.295-1.204,0.217c-0.269-0.061-0.645-0.244-0.908-0.764       l-0.164-0.325l0.259-0.256c1.608-1.595,2.653-3.537,3.105-5.772c0.45-2.223,0.103-4.484-1.031-6.721       c-1.994-3.935-5.076-6.26-9.159-6.911C347.495,285.723,346.705,285.661,345.891,285.661z M342.578,304.768       c-0.042,0-0.082-0.004-0.121-0.011l-0.244-0.044l-2.021-3.984c-0.086-0.169-0.151-0.289-0.201-0.353l-0.22-0.283l0.196-0.299       c0.14-0.213,0.397-0.407,0.835-0.63c0.643-0.326,1.145-0.143,1.451,0.066c0.364,0.251,0.715,0.718,1.076,1.43l0.481,0.948       c0.351,0.695,0.495,1.254,0.439,1.709c-0.06,0.516-0.348,0.921-0.831,1.167C343.027,304.683,342.779,304.768,342.578,304.768z        M341.033,300.177c0.017,0.031,0.033,0.064,0.051,0.098l1.722,3.395c0.046-0.022,0.099-0.047,0.16-0.078       c0.183-0.093,0.271-0.211,0.291-0.393c0.017-0.143-0.004-0.476-0.339-1.139l-0.48-0.947c-0.366-0.723-0.626-0.973-0.748-1.057       c-0.109-0.074-0.226-0.106-0.434,0C341.165,300.101,341.092,300.142,341.033,300.177z"/>
				</g>
			</g>
		</g>
		<g>
			<g>
				<g>
					<g>
						<path style="fill:#FFFFFF;" d="M270.5,151.697c5.188,26.15,2.376,50.012-6.074,62.478c-3.303,4.855-7.445,7.966-12.33,8.82        c-17.373,3.039-37.302-23.959-44.51-60.294s1.031-68.259,18.404-71.297c4.624-0.809,9.421,0.503,14.092,3.537        C253.043,103.355,265.203,125,270.5,151.697z"/>
						<path d="M249.429,223.725c-16.917,0.003-35.459-26.271-42.334-60.927c-5.034-25.375-2.585-50.089,6.239-62.961        c3.477-5.072,7.706-8.076,12.569-8.926c4.649-0.813,9.51,0.402,14.45,3.611c13.466,8.741,25.491,31.145,30.636,57.078        c5.092,25.662,2.735,49.747-6.15,62.856c-3.493,5.135-7.751,8.174-12.658,9.032        C251.271,223.647,250.351,223.725,249.429,223.725z M228.722,91.667c-0.891,0-1.773,0.076-2.648,0.229        c-4.588,0.802-8.598,3.664-11.917,8.506c-8.679,12.661-11.067,37.077-6.083,62.201c6.781,34.18,24.88,60.123,41.306,60.126        c0.882,0,1.757-0.075,2.628-0.227c4.629-0.81,8.667-3.706,12.002-8.609c8.608-12.699,10.962-37.075,5.997-62.1        c-5.096-25.681-16.95-47.832-30.201-56.433C236.027,92.904,232.309,91.667,228.722,91.667z"/>
					</g>
					<g>
						<path d="M240.081,94.941c-15.988,4.923-23.81,33.111-17.53,64.764c0.206,1.039,0.426,2.068,0.657,3.09l26.644-3.01        L227.714,177.8c8.544,22.522,23.115,37.58,36.712,36.374c8.45-12.466,11.262-36.328,6.074-62.478        C265.203,125,253.043,103.355,240.081,94.941z"/>
						<path d="M262.933,214.741c-13.072,0-27.239-14.493-35.687-36.763l-0.128-0.337l21.095-17.167l-25.395,2.869l-0.099-0.436        c-0.232-1.025-0.453-2.059-0.659-3.103c-6.273-31.621,1.577-60.322,17.874-65.339l0.223-0.068l0.196,0.127        c13.466,8.741,25.491,31.145,30.636,57.078c5.092,25.662,2.735,49.747-6.15,62.856l-0.134,0.196l-0.236,0.021        C263.96,214.718,263.445,214.741,262.933,214.741z M228.31,177.96c8.581,22.39,22.902,36.68,35.835,35.736        c8.499-12.754,10.804-37.007,5.864-61.902c-5.07-25.554-16.832-47.613-30.004-56.304c-15.661,5.063-23.11,33.14-16.964,64.119        c0.176,0.887,0.362,1.766,0.556,2.639l27.892-3.151L228.31,177.96z"/>
					</g>
				</g>
				<g>
					<g>
						<path style="fill:#FFFFFF;" d="M371.423,137.384c3.745,26.364-0.375,50.042-9.503,62.061        c-3.566,4.68-7.875,7.577-12.803,8.184c-17.523,2.159-35.948-25.794-41.151-62.428c-5.204-36.634,4.783-68.086,22.305-70.245        c4.663-0.574,9.384,0.976,13.883,4.241C356.641,88.249,367.599,110.468,371.423,137.384z"/>
						<path d="M347.231,208.245c-17.164,0-34.716-27.47-39.76-62.973c-3.63-25.56,0.166-50.095,9.672-62.507        c3.757-4.905,8.153-7.699,13.067-8.304c4.689-0.577,9.48,0.88,14.238,4.332c12.972,9.403,23.755,32.375,27.47,58.521l0,0        c3.675,25.874-0.004,49.797-9.6,62.434c-3.772,4.951-8.193,7.769-13.14,8.377C348.531,208.205,347.88,208.245,347.231,208.245        z M332.208,75.338c-0.627,0-1.252,0.038-1.875,0.115c-4.639,0.571-8.809,3.236-12.396,7.92        c-9.35,12.21-13.07,36.452-9.475,61.759c5.158,36.311,23.375,64.122,40.595,62.002c4.67-0.575,8.864-3.263,12.467-7.991        c9.297-12.242,12.988-36.456,9.405-61.688l0,0c-3.679-25.892-14.303-48.601-27.066-57.852        C339.954,76.767,336.043,75.338,332.208,75.338z"/>
					</g>
					<g>
						<path d="M344.154,79.198c-16.243,4.109-25.606,31.854-21.073,63.767c0.149,1.047,0.312,2.086,0.487,3.117l26.782-1.663        l-23.106,16.869c7.297,22.913,21.027,38.677,34.676,38.159c9.127-12.019,13.247-35.697,9.503-62.061        C367.599,110.468,356.641,88.249,344.154,79.198z"/>
						<path d="M361.282,199.958c-13.337,0-27.137-15.352-34.515-38.519l-0.109-0.343l22.015-16.072l-25.523,1.585l-0.075-0.443        c-0.176-1.035-0.339-2.078-0.488-3.13c-4.528-31.881,4.892-60.135,21.445-64.322l0.228-0.057l0.189,0.137        c12.973,9.403,23.756,32.375,27.471,58.521c3.675,25.874-0.004,49.797-9.6,62.434l-0.144,0.188l-0.236,0.009        C361.721,199.954,361.501,199.958,361.282,199.958z M327.83,161.478c7.342,22.782,20.905,37.778,33.835,37.476        c9.192-12.302,12.827-36.397,9.263-61.499c-3.66-25.764-14.197-48.375-26.877-57.714        c-15.925,4.266-24.911,31.919-20.475,63.153c0.127,0.893,0.264,1.779,0.41,2.66l28.04-1.741L327.83,161.478z"/>
					</g>
				</g>
			</g>
			<g>
				<g>
					<g>
						<path style="fill:#00C257;" d="M300.265,243.906c11.294-6.666,15.494-8.307,25.127-8.181        c5.679,0.075,10.955,1.96,16.685,0.962c4.646-0.81,9.592-2.761,12.764-6.478c0.206-0.241,0.403-0.49,0.591-0.745        c6.939-9.47,4.159-25.833-0.474-35.602c-3.041-6.412-8.29-12.818-15.279-14.165c-3.442-0.663-7.45,0.882-10.748,2.116        c-2.313,0.865-4.28,2.32-6.475,3.413c-10.377,5.163-19.415,10.247-30.132,7.249l-2.722-13.452"/>
						<path d="M300.519,244.336l-0.508-0.861c11.196-6.608,15.643-8.379,25.388-8.25c2.234,0.029,4.423,0.337,6.539,0.635        c3.404,0.479,6.62,0.931,10.053,0.334c5.368-0.936,9.796-3.176,12.471-6.31c0.198-0.231,0.388-0.47,0.567-0.716        c3.934-5.369,7.041-19.145-0.523-35.092c-1.727-3.645-6.641-12.292-14.921-13.889c-3.222-0.619-7.12,0.837-10.251,2.009        l-0.227,0.085c-1.381,0.517-2.619,1.24-3.929,2.006c-0.806,0.471-1.638,0.957-2.499,1.386l-1.92,0.96        c-9.428,4.724-18.335,9.187-28.568,6.322l-0.295-0.082l-2.783-13.752l0.98-0.198l2.661,13.15        c9.736,2.594,18.002-1.546,27.557-6.334l1.923-0.961c0.831-0.414,1.648-0.891,2.44-1.354c1.289-0.753,2.622-1.533,4.084-2.08        l0.227-0.085c3.249-1.216,7.29-2.724,10.791-2.054c8.729,1.683,13.842,10.661,15.636,14.442        c4.246,8.954,7.864,25.96,0.426,36.112c-0.195,0.266-0.4,0.524-0.614,0.775c-2.824,3.31-7.462,5.67-13.059,6.646        c-3.586,0.624-7.032,0.139-10.364-0.329c-2.085-0.293-4.241-0.597-6.413-0.626        C315.814,236.099,311.694,237.742,300.519,244.336z"/>
					</g>
					<g>
						<path d="M336.321,206.989c2.576,11.493,8.082,19.99,12.298,18.978c4.216-1.012,5.547-11.15,2.971-22.643        c-2.576-11.493-8.082-19.99-12.298-18.978S333.745,195.495,336.321,206.989z"/>
						<path d="M347.918,226.55c-0.799,0-1.632-0.268-2.486-0.8c-3.826-2.385-7.594-9.706-9.6-18.651l0,0        c-2.675-11.939-1.207-22.147,3.342-23.239c1.043-0.247,2.154-0.014,3.305,0.704c3.826,2.385,7.594,9.706,9.6,18.651        c2.675,11.939,1.207,22.147-3.342,23.239C348.468,226.517,348.195,226.55,347.918,226.55z M336.809,206.88        c1.919,8.564,5.597,15.806,9.151,18.021c0.916,0.57,1.773,0.765,2.542,0.58c3.879-0.931,5.069-11.028,2.6-22.048        c-1.919-8.563-5.597-15.806-9.151-18.021c-0.917-0.571-1.776-0.766-2.542-0.58C335.529,185.763,334.339,195.86,336.809,206.88        L336.809,206.88z"/>
					</g>
					<g>
						<g>
							<path style="fill:#FFFFFF;" d="M330.311,184.236c0.41-0.511,1.041-0.76,1.636-0.392c0.493,0.305,0.779,1.158,0.372,1.665         c-4.049,5.041-3.395,11.497-2.044,17.408c0.346,1.514-1.967,2.07-2.314,0.554         C326.481,196.997,325.882,189.75,330.311,184.236z"/>
						</g>
						<g>
							<path style="fill:#FFFFFF;" d="M328.454,207.421c0.008-0.158,0.053-0.305,0.137-0.442c0.073-0.143,0.175-0.258,0.304-0.346         c0.117-0.112,0.255-0.187,0.414-0.226c0.105-0.015,0.21-0.03,0.316-0.045c0.209,0,0.404,0.052,0.585,0.156         c0.081,0.061,0.161,0.123,0.242,0.185c0.152,0.152,0.257,0.333,0.314,0.543l0.095,0.354c0.049,0.159,0.056,0.318,0.021,0.477         c-0.008,0.158-0.053,0.305-0.137,0.442c-0.073,0.143-0.175,0.258-0.304,0.346c-0.117,0.112-0.255,0.187-0.414,0.226         c-0.105,0.015-0.21,0.03-0.316,0.045c-0.209,0-0.404-0.052-0.585-0.156c-0.081-0.062-0.161-0.123-0.242-0.185         c-0.152-0.152-0.257-0.333-0.313-0.543l-0.095-0.354C328.427,207.739,328.42,207.58,328.454,207.421z"/>
						</g>
					</g>
				</g>
				<g>
					
						<ellipse transform="matrix(0.971 -0.2389 0.2389 0.971 -33.9124 75.0152)" style="fill:#FF8806;" cx="292.465" cy="177.389" rx="12.709" ry="8.088"/>
					<path d="M289.862,186.297c-4.006,0-7.564-1.312-9.302-3.759c-1.07-1.506-1.36-3.27-0.841-5.101       c0.837-2.949,3.703-5.71,7.667-7.385c6.543-2.767,14.162-1.785,16.983,2.187l0,0c1.069,1.506,1.36,3.27,0.84,5.102       c-0.838,2.949-3.703,5.709-7.667,7.384C295.03,185.787,292.36,186.297,289.862,186.297z M295.124,169.462       c-2.374,0-4.934,0.491-7.349,1.511c-3.686,1.559-6.338,4.077-7.094,6.737c-0.434,1.529-0.194,2.999,0.693,4.249       c2.565,3.611,9.645,4.438,15.778,1.845c3.687-1.559,6.338-4.077,7.094-6.737c0.435-1.529,0.195-2.999-0.692-4.249l0,0       C301.999,170.628,298.782,169.462,295.124,169.462z"/>
				</g>
			</g>
		</g>
		<g>
			<g>
				<g>
					<path d="M164.682,224.669c0.285,6.657,1.194,13.327,2.691,19.972c0.228,1.023,0.48,2.039,0.747,3.025       c-19.771-1.904-38.853-12.364-52.505-28.174c-14.477-16.755-21.177-39.134-26.926-60.06c-1.581-5.926-3.59-11.874-5.491-17.879       c-3.78-12.016-7.216-24.209-6.506-36.711c0.044-0.187,0.045-0.435,0.036-0.63c0.81-7.477,7.846-9.411,13.651-7.214       c0.475,0.182,0.957,0.386,1.4,0.627c2.195,1.135,4.089,2.928,5.191,5.229c0.838,1.66,1.262,3.592,1.142,5.783       c-0.513,8.9,2.782,18.607,6.033,27.83c1.593,4.46,3.159,8.829,4.282,12.958c4.445,16.355,8.945,33.313,17.895,47.888       C134.303,210.292,149.013,220.881,164.682,224.669z"/>
				</g>
				<g>
					<g>
						<g>
							<path style="fill:#FFFFFF;" d="M90.056,41.665c-1.82,0.444-3.146,1.581-4.064,3.177c-4.558,7.886-1.427,29.82-1.427,29.82         l-17.67,5.94c0,0-16.036-32.107-27.524-18.834C31.459,70.887,54.535,102.8,54.535,102.8         c1.856,25.743,15.174,25.844,15.174,25.844c-5.167,3.134-4.726,7.576-4.129,9.234c1.114,3.059,5.788,4.192,12.042,4.031         c6.002-0.184,13.446-1.549,20.555-3.532c12.089-3.355,23.207-8.507,24.539-12.628c3.665-11.424-11.034-9.418-11.034-9.418         c4.948-3.095,8.751-8.012,11.478-13.588c0.689-1.353,1.29-2.758,1.843-4.177c5.372-13.927,4.797-29.94-0.472-31.952         c-8.386-3.227-14.212,9.604-17.724,16.945c-0.066,0.136-0.119,0.224-0.171,0.313c-0.466,0.692-0.827-0.013-1.072-1.281         c0,0-0.024-0.007-0.017-0.031c-0.461-2.111-0.72-5.772-1-7.621C102.057,59.162,99.112,39.509,90.056,41.665z"/>
							<path d="M76.508,142.424c-6.424,0-10.354-1.504-11.399-4.375c-0.729-2.025-0.764-6.044,3.236-9.085         c-3.529-0.765-12.732-4.794-14.299-25.987c-1.756-2.445-22.969-32.414-15.053-41.537c2.215-2.559,4.77-3.676,7.583-3.324         c9.529,1.199,19.044,18.92,20.569,21.875l16.869-5.671c-0.421-3.151-2.753-22.29,1.546-29.728         c1.04-1.809,2.513-2.958,4.378-3.413l0.003,0c1.673-0.398,3.237-0.121,4.648,0.826c5.895,3.95,8.251,18.9,10.331,32.09         l0.121,0.767c0.105,0.692,0.206,1.629,0.316,2.646c0.173,1.599,0.367,3.397,0.625,4.691l0.016,0.005l0.057,0.294         c0.092,0.477,0.182,0.769,0.251,0.945c0.016-0.03,0.033-0.064,0.052-0.102l0.313-0.655         c3.541-7.419,9.467-19.832,18.04-16.537c1.218,0.465,2.223,1.57,2.986,3.284c2.774,6.23,1.816,18.833-2.228,29.315         c-0.631,1.62-1.24,3.001-1.864,4.224c-2.652,5.423-6.123,9.787-10.107,12.728c2.492-0.071,6.807,0.232,8.989,2.833         c1.474,1.756,1.711,4.236,0.705,7.37c-1.484,4.592-13.566,9.816-24.882,12.957c-7.571,2.112-14.913,3.374-20.674,3.55         C77.253,142.419,76.876,142.424,76.508,142.424z M45.588,59.054c-2.129,0-4.09,1.02-5.839,3.042         c-7.564,8.718,14.963,40.096,15.191,40.412l0.083,0.115l0.01,0.142c1.796,24.917,14.551,25.378,14.68,25.38l1.743,0.023         l-1.489,0.904c-5.605,3.399-4.107,8.111-3.918,8.637c1.191,3.274,6.942,3.819,11.559,3.701         c5.68-0.174,12.938-1.422,20.434-3.514c13.08-3.631,23.03-8.688,24.198-12.3c0.893-2.784,0.719-4.944-0.519-6.419         c-2.754-3.287-9.901-2.36-9.972-2.349l-2.301,0.312l1.969-1.231c4.476-2.8,8.381-7.428,11.293-13.383         c0.612-1.2,1.208-2.551,1.826-4.139c4.509-11.689,4.523-23.433,2.246-28.547c-0.651-1.462-1.469-2.389-2.431-2.756         c-7.72-2.97-13.388,8.927-16.78,16.034l-0.315,0.66c-0.076,0.156-0.134,0.254-0.193,0.353         c-0.339,0.505-0.689,0.549-0.925,0.501c-0.463-0.094-0.77-0.591-1.005-1.646l-0.195-0.06l0.095-0.372         c-0.284-1.352-0.489-3.254-0.671-4.938c-0.108-1-0.208-1.922-0.31-2.6l-0.121-0.764c-1.946-12.345-4.368-27.709-9.899-31.415         c-1.187-0.795-2.449-1.019-3.859-0.685c-1.588,0.388-2.849,1.377-3.747,2.94c-4.422,7.649-1.397,29.283-1.366,29.5         l0.059,0.412l-18.477,6.211l-0.194-0.389c-0.103-0.205-10.349-20.505-19.997-21.718         C46.16,59.072,45.872,59.054,45.588,59.054z"/>
						</g>
						<g>
							<path style="fill:#FFFFFF;" d="M106.635,83.873c0,0-19.969,7.587-13.054,30.449"/>
							<path d="M93.103,114.466c-6.97-23.041,13.15-30.983,13.354-31.061l0.355,0.935c-0.797,0.304-19.449,7.701-12.753,29.837         L93.103,114.466z"/>
						</g>
						<g>
							<path style="fill:#FFFFFF;" d="M68.28,85.726c3.532,10.194,8.855,22.104,16.537,19.156         c7.997-3.069,5.525-15.382,1.993-25.576s-9.812-10.612-14.104-8.956C68.774,71.867,64.748,75.532,68.28,85.726z"/>
							<path d="M82.466,105.837c-0.966,0-1.919-0.217-2.854-0.652c-5.471-2.545-9.358-12.231-11.806-19.296l0,0         c-2.876-8.302-1.288-13.688,4.72-16.006c1.899-0.733,4.785-1.319,7.754,0.059c3.016,1.4,5.373,4.495,7.002,9.2         c5.14,14.834,4.371,23.651-2.287,26.206C84.147,105.674,83.302,105.837,82.466,105.837z M68.752,85.562         c2.388,6.893,6.156,16.332,11.282,18.716c1.509,0.702,3.016,0.746,4.604,0.136c6.058-2.325,6.63-10.718,1.7-24.945         c-1.538-4.438-3.717-7.339-6.479-8.62c-2.648-1.228-5.254-0.696-6.972-0.034C67.4,72.933,66.048,77.757,68.752,85.562         L68.752,85.562z"/>
						</g>
					</g>
					<g>
						<g>
							<rect x="69.707" y="127.848" transform="matrix(0.9964 -0.0849 0.0849 0.9964 -10.6353 6.6824)" width="7.038" height="1"/>
						</g>
						<g>
							
								<rect x="102.459" y="117.849" transform="matrix(0.9084 -0.4181 0.4181 0.9084 -39.6536 55.6981)" width="9.664" height="1"/>
						</g>
						<g>
							<path style="fill:#FFFFFF;" d="M106.635,83.873c0,0-19.969,7.587-13.054,30.449"/>
							<path d="M93.103,114.466c-6.97-23.041,13.15-30.983,13.354-31.061l0.355,0.935c-0.797,0.304-19.449,7.701-12.753,29.837         L93.103,114.466z"/>
						</g>
					</g>
				</g>
			</g>
			<g>
				<g>
					<path d="M364.714,190.511c1.54,6.107,2.52,12.395,2.96,18.819c0.07,0.988,0.117,1.977,0.141,2.943       c17.395-7.068,31.853-21.701,39.947-39.712c8.586-19.09,8.606-41.173,8.158-61.682c-0.17-5.795,0.043-11.726,0.142-17.68       c0.177-11.906-0.006-23.88-4.028-35.013c-0.09-0.157-0.158-0.382-0.203-0.561c-2.754-6.554-9.651-6.404-14.316-2.845       c-0.381,0.293-0.762,0.608-1.099,0.946c-1.681,1.621-2.912,3.758-3.289,6.14c-0.311,1.73-0.172,3.595,0.528,5.548       c2.87,7.924,2.508,17.607,2.056,26.841c-0.238,4.471-0.475,8.852-0.377,12.895c0.393,16.016,0.901,32.594-3.267,48.215       C388.346,169.277,377.884,182.845,364.714,190.511z"/>
				</g>
				<g>
					<g>
						<g>
							<path style="fill:#FFFFFF;" d="M382.854,4.569c1.769-0.09,3.277,0.582,4.54,1.78c6.26,5.911,9.352,26.626,9.352,26.626         l17.612,0.605c0,0,5.848-33.418,19.842-24.5c9.632,6.122-2.646,41.267-2.646,41.267c5.276,23.82-6.76,27.511-6.76,27.511         c5.528,1.442,6.328,5.586,6.236,7.249c-0.182,3.072-4.11,5.362-9.819,6.906c-5.486,1.455-12.598,2.231-19.575,2.356         c-11.858,0.228-23.321-1.434-25.642-4.807c-6.408-9.358,7.449-11.513,7.449-11.513c-5.319-1.467-10.092-4.893-14.069-9.206         c-0.99-1.039-1.914-2.15-2.798-3.286c-8.631-11.164-12.437-25.825-8.208-29.071c6.724-5.19,15.469,4.859,20.635,10.559         c0.097,0.105,0.168,0.171,0.239,0.237c0.609,0.501,0.746-0.235,0.625-1.45c0,0,0.02-0.013,0.007-0.033         c-0.153-2.037-0.908-5.423-1.154-7.174C376.712,23.662,374.067,5.063,382.854,4.569z"/>
							<path d="M399.544,94.89c-10.518,0-21.533-1.513-23.962-5.044c-1.764-2.576-2.221-4.895-1.356-6.894         c1.262-2.92,5.022-4.363,7.311-4.988c-4.38-1.596-8.679-4.603-12.53-8.782c-0.891-0.934-1.816-2.021-2.826-3.317         c-6.501-8.41-10.776-19.576-9.946-25.975c0.229-1.766,0.845-3.045,1.829-3.8c6.897-5.322,15.627,4.337,20.846,10.107         l0.464,0.513c0.011,0.011,0.021,0.021,0.029,0.032c0.011-0.179,0.009-0.452-0.032-0.859l-0.029-0.297l0.014-0.009         c-0.117-1.238-0.426-2.909-0.699-4.396c-0.176-0.952-0.338-1.832-0.43-2.484l-0.098-0.724         c-1.683-12.519-3.591-26.707,0.689-31.888c1.028-1.245,2.377-1.923,4.008-2.015l0.003,0c1.814-0.094,3.472,0.553,4.908,1.917         c5.896,5.566,8.957,23.467,9.439,26.504l16.768,0.576c0.597-3.159,4.432-21.713,12.731-25.371         c2.462-1.085,5.084-0.762,7.793,0.963c9.646,6.131-1.449,38.979-2.396,41.72c4.282,19.516-2.865,25.706-5.893,27.399         c4.414,1.688,5.462,5.33,5.349,7.359c-0.181,3.062-3.703,5.606-10.187,7.361c-5.271,1.398-12.264,2.24-19.696,2.373         C400.948,94.883,400.247,94.89,399.544,94.89z M362.462,35.565c-1.318,0-2.594,0.396-3.788,1.318         c-0.768,0.589-1.254,1.644-1.447,3.136c-0.681,5.242,2.504,15.867,9.744,25.233c0.988,1.269,1.893,2.331,2.766,3.247         c4.25,4.61,9.034,7.744,13.84,9.069l2.239,0.617l-2.295,0.359c-0.067,0.01-6.777,1.1-8.378,4.807         c-0.718,1.662-0.292,3.657,1.264,5.93c2.028,2.949,12.412,4.846,25.22,4.589c7.355-0.131,14.264-0.962,19.456-2.339         c4.201-1.137,9.254-3.18,9.447-6.452c0.029-0.524,0.113-5.176-5.862-6.736l-1.686-0.44l1.663-0.521         c0.116-0.036,11.52-3.897,6.42-26.926l-0.03-0.139l0.047-0.134c0.121-0.348,12.039-34.839,2.85-40.681         c-2.406-1.535-4.713-1.834-6.853-0.893c-8.398,3.701-12.19,24.844-12.228,25.057l-0.074,0.428l-18.463-0.634l-0.062-0.412         c-0.031-0.206-3.139-20.612-9.201-26.336c-1.231-1.168-2.614-1.722-4.17-1.644c-1.359,0.077-2.435,0.617-3.291,1.653         c-4.002,4.844-2.043,19.412-0.47,31.118l0.097,0.721c0.09,0.639,0.25,1.503,0.423,2.439c0.288,1.566,0.614,3.334,0.725,4.634         l0.199,0.306l-0.173,0.127c0.075,1.045-0.069,1.572-0.48,1.791c-0.17,0.09-0.523,0.189-0.984-0.189         c-0.103-0.093-0.182-0.168-0.29-0.286l-0.467-0.516C374.148,42.424,367.944,35.565,362.462,35.565z"/>
						</g>
						<g>
							<path style="fill:#FFFFFF;" d="M379.243,47.283c0,0,20.14,1.476,20.054,24.054"/>
							<path d="M399.797,71.339l-1-0.004c0.034-9.164-3.239-15.909-9.729-20.048c-4.861-3.101-9.812-3.501-9.862-3.505l0.073-0.997         C379.485,46.8,399.883,48.558,399.797,71.339z"/>
						</g>
						<g>
							<path style="fill:#FFFFFF;" d="M414.488,38.596c-0.444,10.189-2.047,22.416-9.803,21.821         c-8.073-0.618-9.162-12.44-8.718-22.629c0.444-10.189,6.02-12.265,10.355-11.925         C410.294,26.175,414.932,28.407,414.488,38.596z"/>
							<path d="M405.218,60.938c-0.188,0-0.378-0.007-0.571-0.022c-6.737-0.516-9.826-8.305-9.181-23.149         c0.206-4.71,1.507-8.157,3.867-10.246c2.322-2.056,5.107-2.307,7.027-2.156c6.087,0.478,8.989,4.937,8.627,13.253         c-0.309,7.066-1.213,16.898-5.488,20.689C408.277,60.391,406.838,60.938,405.218,60.938z M405.451,26.329         c-1.643,0-3.706,0.393-5.456,1.941c-2.149,1.902-3.337,5.112-3.529,9.541c-0.618,14.203,2.16,21.641,8.257,22.108         c1.602,0.123,2.942-0.323,4.113-1.361c3.991-3.539,4.852-13.1,5.151-19.984c0.34-7.784-2.181-11.778-7.705-12.212         C406.022,26.341,405.743,26.329,405.451,26.329z"/>
						</g>
					</g>
					<g>
						<g>
							<rect x="418.199" y="78.041" transform="matrix(0.9792 -0.203 0.203 0.9792 -7.1669 87.219)" width="6.653" height="1"/>
						</g>
						<g>
							<rect x="387.466" y="74.123" transform="matrix(0.1413 -0.99 0.99 0.1413 255.2607 451.6508)" width="1" height="9.136"/>
						</g>
						<g>
							<path style="fill:#FFFFFF;" d="M379.243,47.283c0,0,20.14,1.476,20.054,24.054"/>
							<path d="M399.797,71.339l-1-0.004c0.034-9.164-3.239-15.909-9.729-20.048c-4.861-3.101-9.812-3.501-9.862-3.505l0.073-0.997         C379.485,46.8,399.883,48.558,399.797,71.339z"/>
						</g>
					</g>
				</g>
			</g>
		</g>
	</g>
	<g>
		<g>
			<path style="fill:#FFB2B0;" d="M75.244,195.158c-23.317,7.855-25.559,11.371-24.451,38.347     c-7.925-25.809-11.208-28.38-35.811-28.034c23.317-7.855,25.559-11.371,24.45-38.347     C47.358,192.933,50.642,195.504,75.244,195.158z"/>
			<path d="M51.451,237.353l-1.137-3.701c-7.89-25.696-10.853-28.028-35.326-27.681l-3.19,0.045l3.024-1.019     c23.186-7.811,25.214-10.994,24.11-37.853l-0.159-3.868l1.137,3.701c7.891,25.697,10.861,28.029,35.326,27.681l3.19-0.045     l-3.023,1.019c-23.186,7.812-25.214,10.996-24.111,37.854L51.451,237.353z M18.538,204.944c20.597,0,24.733,3.278,31.621,24.857     c-0.685-22.816,2.173-27.176,22.006-34.117c-21.002,0.042-25.158-3.109-32.099-24.856c0.686,22.821-2.171,27.176-22.006,34.116     C18.221,204.944,18.379,204.944,18.538,204.944z"/>
		</g>
		<g>
			<path style="fill:#FFB2B0;" d="M492.662,198.894c-24.552,1.607-27.621,4.43-33.474,30.787     c-1.036-26.979-3.549-30.306-27.416-36.286c24.552-1.607,27.621-4.43,33.473-30.787     C466.281,189.587,468.795,192.914,492.662,198.894z"/>
			<path d="M458.836,233.57l-0.148-3.869c-1.03-26.86-3.305-29.874-27.037-35.82l-3.096-0.775l3.185-0.208     c24.413-1.598,27.19-4.155,33.018-30.397l0.84-3.78l0.148,3.869c1.03,26.861,3.305,29.874,27.037,35.82l3.096,0.775l-3.185,0.208     c-24.414,1.599-27.19,4.156-33.018,30.397L458.836,233.57z M434.882,193.677c20.322,5.345,23.517,9.464,24.643,32.262     c5.193-22.228,9.075-25.708,30.025-27.325c-20.322-5.344-23.517-9.463-24.644-32.262     C459.714,188.579,455.832,192.059,434.882,193.677z"/>
		</g>
		<g>
			<path style="fill:#FFB2B0;" d="M494.27,74.003c-15.173,0.993-17.07,2.738-20.687,19.027c-0.64-16.673-2.193-18.729-16.943-22.425     c15.173-0.993,17.07-2.738,20.687-19.027C477.967,68.251,479.521,70.307,494.27,74.003z"/>
			<path d="M473.232,96.917l-0.148-3.869c-0.632-16.469-2.024-18.315-16.564-21.959l-3.096-0.775l3.185-0.209     c14.957-0.979,16.658-2.546,20.231-18.636l0.839-3.779l0.149,3.869c0.633,16.469,2.025,18.316,16.565,21.959l3.096,0.775     l-3.184,0.208c-14.957,0.979-16.658,2.546-20.232,18.636L473.232,96.917z M459.66,70.877c11.234,3.092,13.491,5.975,14.25,18.532     c2.997-12.219,5.733-14.65,17.34-15.68c-11.234-3.092-13.491-5.975-14.251-18.532C474.003,67.416,471.267,69.848,459.66,70.877z"/>
		</g>
		<g>
			<path style="fill:#FFB2B0;" d="M79.146,22.196c-14.073,5.759-15.318,8.016-13.576,24.61c-5.9-15.607-8.026-17.064-23.186-15.885     c14.073-5.759,15.318-8.016,13.576-24.61C61.86,21.918,63.987,23.375,79.146,22.196z"/>
			<path d="M66.472,50.604l-1.369-3.621c-5.828-15.416-7.735-16.723-22.68-15.564l-3.181,0.247l2.953-1.208     c13.872-5.677,14.988-7.704,13.268-24.095l-0.404-3.851l1.369,3.622c5.829,15.416,7.738,16.724,22.68,15.563l3.181-0.247     l-2.953,1.208c-13.872,5.677-14.988,7.704-13.268,24.095L66.472,50.604z M48.732,30.117c8.898,0,11.788,2.713,15.999,13.153     c-1.038-12.538,0.785-15.713,11.464-20.374c-11.639,0.634-14.689-1.383-19.396-13.049c1.038,12.538-0.785,15.713-11.464,20.374     C46.558,30.154,47.686,30.117,48.732,30.117z"/>
		</g>
	</g>
</g>















</svg>
