<?xml version="1.0" encoding="UTF-8"?>
<!-- Generator: Adobe Illustrator 27.1.1, SVG Export Plug-In . SVG Version: 6.00 Build 0)  -->
<svg xmlns="http://www.w3.org/2000/svg" xmlns:xlink="http://www.w3.org/1999/xlink" version="1.1" id="Capa_1" x="0px" y="0px" viewBox="0 0 511.03 511.03" style="enable-background:new 0 0 511.03 511.03;" xml:space="preserve" width="512" height="512">
<g>
	<g>
		<g>
			<g>
				<g>
					<path d="M142.851,501.731l79.475-1.071l0.065,0.001l0.152-23.123l0.229-33.536l0.622-95.921l-34.566,0.605l1.802,95.242       l0.429,23.584c0,0-2.579,0.095-6.537,0.786c-0.36,0.06-0.752,0.119-1.178,0.211c-0.785,0.119-1.636,0.301-2.52,0.516       c-2.193,0.456-4.649,1.102-7.206,1.941c-1.048,0.31-2.098,0.684-3.18,1.09c-0.492,0.188-1.017,0.407-1.51,0.626       c-0.065-0.001-0.164,0.063-0.23,0.094l-0.033,0c-1.477,0.627-2.988,1.318-4.499,2.107c-0.427,0.188-0.887,0.441-1.314,0.662       c-0.099,0.063-0.165,0.127-0.264,0.19c-0.395,0.221-0.789,0.442-1.184,0.696l-0.033,0c-0.131,0.063-0.231,0.159-0.362,0.222       c-0.527,0.316-1.02,0.633-1.547,0.982c-2.041,1.331-3.988,2.89-5.839,4.644c-0.463,0.414-0.926,0.861-1.356,1.34       c-2.217,2.267-4.179,4.925-5.786,7.944c-0.636,1.156-1.208,2.442-1.748,3.761c-0.472,1.158-0.881,2.382-1.192,3.639       c-0.103,0.354-0.205,0.709-0.309,1.095C143.095,500.603,142.957,501.151,142.851,501.731z"/>
					<path d="M142.25,502.239l0.109-0.598c0.108-0.592,0.248-1.15,0.389-1.709c0.106-0.397,0.209-0.755,0.313-1.113       c0.298-1.21,0.707-2.458,1.209-3.688c0.645-1.577,1.209-2.788,1.773-3.813c1.592-2.99,3.567-5.701,5.867-8.052       c0.39-0.435,0.846-0.886,1.38-1.364c1.889-1.79,3.878-3.371,5.899-4.689c0.53-0.351,1.03-0.672,1.562-0.992       c0.084-0.043,0.12-0.069,0.157-0.095c0.078-0.054,0.157-0.105,0.245-0.148l0.11-0.054l0.003,0.001       c0.359-0.225,0.718-0.427,1.078-0.628c0.01-0.007,0.04-0.03,0.069-0.054c0.054-0.041,0.107-0.082,0.171-0.122l0.348-0.185       c0.344-0.18,0.698-0.365,1.032-0.513c1.349-0.704,2.832-1.399,4.506-2.109l0.107-0.04c0.064-0.031,0.132-0.06,0.207-0.077       c0.483-0.215,0.995-0.428,1.475-0.61c0.949-0.355,2.07-0.764,3.217-1.102c2.414-0.792,4.924-1.469,7.245-1.951       c0.987-0.24,1.825-0.412,2.546-0.521c0.333-0.072,0.671-0.128,0.987-0.179l0.185-0.03c2.99-0.522,5.18-0.706,6.11-0.766       l-0.42-23.103l-1.812-95.741l35.579-0.622l-1.009,153.597l-0.504-0.008L142.25,502.239z M161.502,476.932       c-0.009,0.006-0.017,0.012-0.026,0.018c-0.08,0.056-0.16,0.108-0.251,0.151c-0.477,0.29-0.966,0.603-1.486,0.948       c-1.975,1.288-3.915,2.831-5.771,4.59c-0.518,0.463-0.949,0.889-1.328,1.312c-2.247,2.298-4.166,4.933-5.717,7.845       c-0.549,0.997-1.097,2.176-1.727,3.715c-0.483,1.185-0.876,2.386-1.169,3.569c-0.107,0.37-0.209,0.722-0.311,1.105       c-0.086,0.342-0.173,0.686-0.251,1.039l78.43-1.057l0.996-151.576l-33.554,0.587l1.793,94.74l0.438,24.075l-0.49,0.019       c-0.026,0.001-2.597,0.103-6.47,0.778l-0.191,0.031c-0.3,0.05-0.623,0.102-0.968,0.176c-0.722,0.11-1.532,0.276-2.506,0.514       c-2.302,0.479-4.775,1.145-7.168,1.93c-1.131,0.335-2.231,0.734-3.161,1.082c-0.481,0.184-0.997,0.399-1.481,0.616       l-0.101,0.045l-0.031-0.001l-0.232,0.093c-1.612,0.687-3.042,1.357-4.371,2.05c-0.343,0.153-0.676,0.328-1,0.498l-0.316,0.165       c0.002,0.001-0.027,0.024-0.057,0.047c-0.052,0.04-0.105,0.08-0.167,0.12c-0.412,0.232-0.797,0.448-1.184,0.695l-0.13,0.083       L161.502,476.932z"/>
				</g>
				<g>
					<path style="fill:#FFFFFF;" d="M190.571,440.854l0.482,26.668c0,0-2.581,0.085-6.524,0.781       c-0.357,0.042-0.746,0.112-1.195,0.208c-0.775,0.111-1.614,0.306-2.512,0.499c-2.184,0.456-4.644,1.104-7.202,1.953       c-1.051,0.303-2.106,0.694-3.191,1.084c-0.483,0.183-0.997,0.423-1.511,0.634c-0.059-0.003-0.15,0.052-0.212,0.107       l-0.029-0.001c-1.48,0.606-2.994,1.298-4.514,2.108c-0.423,0.186-0.879,0.428-1.304,0.643       c-0.091,0.054-0.155,0.139-0.276,0.193c-0.395,0.216-0.791,0.433-1.189,0.708l-0.03-0.001       c-0.121,0.053-0.214,0.137-0.366,0.218c-0.518,0.299-1.008,0.628-1.528,0.985c-2.047,1.314-3.989,2.896-5.849,4.629       c-0.464,0.419-0.93,0.867-1.338,1.347c-2.241,2.273-4.203,4.912-5.799,7.949c-0.647,1.144-1.212,2.439-1.749,3.764       c-0.47,1.152-0.883,2.366-1.181,3.644c-0.106,0.347-0.211,0.695-0.318,1.072c-0.145,0.551-0.29,1.102-0.376,1.685l79.465-1.066       l0.059,0.003l0.154-23.127l0.335-36.685H190.571z"/>
					<path d="M142.278,502.237l0.087-0.581c0.09-0.608,0.24-1.177,0.384-1.728c0.111-0.393,0.215-0.736,0.319-1.078       c0.276-1.186,0.67-2.403,1.203-3.71c0.452-1.115,1.063-2.559,1.777-3.822c1.559-2.967,3.539-5.681,5.878-8.053       c0.339-0.401,0.779-0.845,1.359-1.368c2.049-1.909,3.985-3.442,5.913-4.679c0.503-0.344,1.009-0.687,1.548-0.997       c0.072-0.039,0.117-0.069,0.159-0.097c0.085-0.056,0.165-0.105,0.253-0.145l0.054-0.023c0.376-0.252,0.748-0.456,1.108-0.653       l0.113-0.072c0.054-0.045,0.107-0.086,0.167-0.122l0.327-0.168c0.344-0.177,0.698-0.357,1.032-0.504       c1.397-0.746,2.889-1.442,4.525-2.113l0.011-0.005c0.077-0.05,0.176-0.101,0.288-0.124c0.182-0.075,0.364-0.154,0.544-0.232       c0.314-0.136,0.624-0.27,0.921-0.383l0.425-0.152c0.963-0.348,1.874-0.676,2.806-0.944c2.39-0.793,4.9-1.474,7.239-1.962       l0.482-0.104c0.725-0.157,1.41-0.307,2.061-0.4c0.433-0.094,0.836-0.166,1.208-0.21c2.959-0.523,5.144-0.701,6.074-0.759       l-0.483-26.693h33.315l-0.497,60.828l-0.513-0.017L142.278,502.237z M161.478,476.945c-0.008,0.005-0.015,0.01-0.023,0.015       c-0.066,0.044-0.138,0.091-0.225,0.137c-0.492,0.284-0.981,0.614-1.479,0.955c-1.889,1.213-3.779,2.709-5.791,4.584       c-0.553,0.497-0.963,0.91-1.297,1.304c-2.295,2.33-4.218,4.965-5.738,7.857c-0.693,1.228-1.288,2.632-1.729,3.72       c-0.512,1.259-0.891,2.426-1.157,3.569c-0.118,0.392-0.22,0.729-0.324,1.094c-0.093,0.355-0.183,0.696-0.256,1.042       l78.426-1.053l0.151-22.634l0.331-36.182H191.08l0.482,26.651l-0.492,0.017c-0.025,0.001-2.598,0.093-6.454,0.773       c-0.372,0.045-0.746,0.112-1.177,0.205c-0.649,0.094-1.317,0.239-2.024,0.394l-0.487,0.105c-2.305,0.48-4.776,1.151-7.15,1.938       c-0.919,0.266-1.814,0.588-2.762,0.93l-0.417,0.15c-0.276,0.104-0.571,0.232-0.871,0.362c-0.205,0.089-0.413,0.179-0.62,0.264       l-0.088,0.036l-0.128,0.114l-0.126-0.004c-1.566,0.645-2.996,1.314-4.369,2.046c-0.351,0.155-0.686,0.327-1.012,0.494       l-0.302,0.154c-0.07,0.066-0.164,0.145-0.302,0.204c-0.367,0.204-0.734,0.405-1.104,0.661l-0.144,0.1L161.478,476.945z"/>
				</g>
				<g>
					<g>
						<g>
							<path d="M198.512,510.36l-0.551-4.225l-3.935,4.214l-50.225,0.181c-1.223,0.004-2.166-1.065-1.998-2.266l1.014-7.243         l79.799-0.323l0.009,9.529L198.512,510.36z"/>
							<path d="M143.793,511.03c-0.728,0-1.418-0.312-1.895-0.859c-0.475-0.543-0.689-1.264-0.59-1.976l1.074-7.672l80.733-0.327         l0.011,10.527l-25.052,0.139l-0.471-3.61l-3.358,3.597l-50.441,0.182C143.799,511.03,143.796,511.03,143.793,511.03z          M143.252,501.52l-0.954,6.815c-0.059,0.425,0.069,0.854,0.353,1.18c0.287,0.328,0.703,0.517,1.142,0.517         c0.002,0,0.004,0,0.006,0l50.009-0.18l4.512-4.831l0.631,4.838l23.173-0.128l-0.009-8.529L143.252,501.52z"/>
						</g>
						<g>
							<g>
								<path style="fill:#00C257;" d="M222.387,500.578c-0.314,0.367-65.983,0.963-79.528,1.151          c1.891-10.48,7.447-18.294,16.642-24.146c0.55-0.356,1.13-0.71,1.707-1.006c0.611-0.382,1.22-0.736,1.826-1.03          c1.702-0.919,3.521-1.773,5.424-2.565c0.666-0.292,1.33-0.554,2.022-0.786c0.152-0.081,0.333-0.161,0.484-0.212          c3.951-1.488,8.309-2.811,13.073-3.939c1.168-0.268,9.642,14.602,38.5,9.494          C222.511,481.207,222.856,500.071,222.387,500.578z"/>
								<path d="M142.259,502.238l0.107-0.598c1.886-10.449,7.403-18.456,16.866-24.48c0.676-0.438,1.232-0.766,1.748-1.03          c0.676-0.425,1.271-0.761,1.836-1.034c1.652-0.892,3.493-1.763,5.451-2.577c0.716-0.313,1.392-0.575,2.055-0.798          c0.099-0.061,0.308-0.151,0.48-0.211c4.006-1.509,8.425-2.841,13.121-3.952c0.461-0.111,0.845,0.256,1.763,1.137          c3.236,3.102,13.08,12.54,36.765,8.351l0.591-0.104l-0.004,0.601c-0.007,0.968,0.012,2.994,0.035,5.462          c0.145,15.625,0.026,17.5-0.305,17.899l0,0c-0.271,0.316-0.383,0.447-61.781,1.118c-8.077,0.088-14.73,0.161-18.12,0.208          L142.259,502.238z M184.04,468.559c-4.61,1.096-8.95,2.405-12.899,3.893c-0.142,0.049-0.296,0.116-0.425,0.186          c-0.711,0.246-1.359,0.498-2.057,0.803c-1.935,0.806-3.745,1.661-5.387,2.548c-0.551,0.267-1.116,0.586-1.798,1.013          c-0.521,0.27-1.05,0.581-1.7,1.003c-9.037,5.752-14.375,13.35-16.309,23.219c3.542-0.048,9.894-0.117,17.511-0.2          c21.637-0.236,57.354-0.627,61.011-0.893c0.229-1.815,0.137-11.679,0.086-17.115c-0.019-2.046-0.035-3.79-0.036-4.881          c-23.757,4.016-33.743-5.553-37.042-8.716C184.613,469.052,184.221,468.676,184.04,468.559z M183.985,468.528          L183.985,468.528L183.985,468.528z"/>
							</g>
						</g>
						<g>
							<g>
								<path d="M181.97,484.712l-1.487,1.369l-12.024-13.099c0.666-0.292,1.33-0.554,2.022-0.786L181.97,484.712z"/>
							</g>
							<g>
								<path d="M175.115,488.707l-1.515,1.338l-12.392-13.468c0.611-0.382,1.22-0.736,1.826-1.03L175.115,488.707z"/>
							</g>
						</g>
					</g>
				</g>
			</g>
		</g>
		<g>
			<g>
				<g>
					<path d="M373.266,501.731l-79.475-1.071l-0.065,0.001l-0.152-23.123l-0.229-33.536l-0.622-95.921l34.566,0.605l-1.802,95.242       l-0.429,23.584c0,0,2.579,0.095,6.537,0.786c0.36,0.06,0.752,0.119,1.178,0.211c0.785,0.119,1.636,0.301,2.52,0.516       c2.193,0.456,4.649,1.102,7.206,1.941c1.049,0.31,2.098,0.684,3.18,1.09c0.492,0.188,1.017,0.407,1.51,0.626       c0.065-0.001,0.164,0.063,0.23,0.094l0.033,0c1.477,0.627,2.987,1.318,4.499,2.107c0.427,0.188,0.887,0.441,1.314,0.662       c0.099,0.063,0.165,0.127,0.264,0.19c0.395,0.221,0.789,0.442,1.184,0.696l0.033,0c0.131,0.063,0.231,0.159,0.362,0.222       c0.526,0.316,1.02,0.633,1.547,0.982c2.041,1.331,3.988,2.89,5.839,4.644c0.463,0.414,0.926,0.861,1.356,1.34       c2.217,2.267,4.179,4.925,5.786,7.944c0.636,1.156,1.208,2.442,1.748,3.761c0.473,1.158,0.881,2.382,1.192,3.639       c0.103,0.354,0.205,0.709,0.309,1.095C373.022,500.603,373.16,501.151,373.266,501.731z"/>
					<path d="M373.866,502.239l-80.572-1.086l-0.068-0.489l-1.005-153.092l35.579,0.622l-0.01,0.501l-1.803,95.241l-0.42,23.102       c0.931,0.06,3.121,0.243,6.114,0.767l0.185,0.03c0.314,0.051,0.651,0.106,1.012,0.183c0.693,0.104,1.531,0.276,2.533,0.52       c2.304,0.479,4.815,1.156,7.243,1.953c1.13,0.333,2.253,0.741,3.199,1.095c0.483,0.184,0.993,0.397,1.477,0.611       c0.096,0.021,0.177,0.061,0.241,0.094l0.075,0.024c1.675,0.711,3.158,1.405,4.535,2.123c0.302,0.133,0.653,0.316,0.995,0.496       l0.317,0.165c0.102,0.062,0.155,0.103,0.209,0.145c0.029,0.022,0.059,0.046,0.094,0.068c0.352,0.196,0.725,0.405,1.099,0.642       l0.067,0.024c0.089,0.043,0.167,0.095,0.245,0.148c0.036,0.025,0.072,0.053,0.114,0.072c0.575,0.343,1.074,0.664,1.607,1.017       c2.018,1.315,4.007,2.896,5.907,4.697c0.524,0.469,0.98,0.92,1.385,1.37c2.285,2.336,4.261,5.047,5.855,8.042       c0.562,1.021,1.125,2.232,1.77,3.807c0.501,1.227,0.909,2.476,1.214,3.708c0.1,0.338,0.203,0.696,0.308,1.087       c0.142,0.565,0.282,1.124,0.39,1.717L373.866,502.239z M294.223,500.168l78.43,1.056c-0.078-0.355-0.166-0.701-0.253-1.047       c-0.101-0.376-0.202-0.727-0.304-1.077c-0.299-1.207-0.692-2.408-1.175-3.591c-0.629-1.537-1.177-2.716-1.724-3.708       c-1.553-2.917-3.472-5.551-5.705-7.835c-0.395-0.438-0.825-0.864-1.332-1.317c-1.868-1.77-3.809-3.312-5.779-4.598       c-0.523-0.347-1.011-0.66-1.531-0.973c-0.049-0.021-0.13-0.073-0.209-0.129c-0.009-0.006-0.018-0.012-0.025-0.018h-0.01       l-0.163-0.082c-0.386-0.247-0.772-0.464-1.158-0.68c-0.088-0.056-0.142-0.096-0.193-0.137       c-0.029-0.022-0.059-0.046-0.094-0.068l-0.285-0.146c-0.321-0.168-0.651-0.342-0.964-0.48       c-1.355-0.705-2.787-1.377-4.398-2.064l-0.147-0.049l0.069-0.524l-0.075,0.48l-0.11,0.002l-0.101-0.045       c-0.485-0.217-1.001-0.433-1.484-0.617c-0.928-0.347-2.029-0.747-3.145-1.076c-2.408-0.79-4.881-1.456-7.165-1.932       c-0.99-0.24-1.8-0.406-2.493-0.512c-0.373-0.078-0.694-0.131-0.993-0.18l-0.191-0.031c-3.877-0.677-6.448-0.778-6.474-0.779       l-0.49-0.019l0.438-24.074l1.793-94.741l-33.554-0.587l0.619,95.409L294.223,500.168z M347.272,472.701l-0.191,0.462       L347.272,472.701z"/>
				</g>
				<g>
					<path style="fill:#FFFFFF;" d="M372.564,498.973c-0.298-1.278-0.711-2.491-1.181-3.644c-0.537-1.325-1.102-2.62-1.749-3.764       c-1.596-3.037-3.558-5.676-5.799-7.949c-0.408-0.48-0.874-0.928-1.338-1.347c-1.86-1.733-3.802-3.316-5.849-4.629       c-0.521-0.357-1.01-0.687-1.528-0.985c-0.152-0.081-0.245-0.165-0.366-0.218l-0.03,0.001c-0.398-0.275-0.794-0.491-1.189-0.708       c-0.121-0.053-0.184-0.138-0.276-0.193c-0.425-0.215-0.881-0.458-1.304-0.643c-1.52-0.81-3.034-1.502-4.514-2.108l-0.029,0.001       c-0.062-0.056-0.154-0.11-0.212-0.107c-0.514-0.211-1.029-0.451-1.511-0.634c-1.085-0.39-2.14-0.78-3.192-1.084       c-2.558-0.849-5.018-1.497-7.202-1.953c-0.898-0.193-1.737-0.388-2.512-0.499c-0.449-0.096-0.837-0.166-1.195-0.208       c-3.943-0.696-6.524-0.781-6.524-0.781l0.484-26.736h-32.304l0.336,36.753l0.154,23.127l0.059-0.003l79.465,1.066       c-0.087-0.583-0.232-1.134-0.376-1.685C372.775,499.667,372.67,499.32,372.564,498.973z"/>
					<path d="M373.839,502.237l-80.543-1.081l-0.062-0.488l-0.154-23.127l-0.341-37.256h33.317l-0.483,26.762       c0.932,0.058,3.121,0.237,6.102,0.764c0.343,0.039,0.746,0.111,1.213,0.211c0.618,0.088,1.303,0.237,2.027,0.395l0.484,0.104       c2.337,0.488,4.846,1.169,7.255,1.968c0.916,0.264,1.829,0.593,2.796,0.941l0.407,0.146c0.306,0.116,0.616,0.25,0.931,0.386       c0.181,0.078,0.362,0.157,0.544,0.232c0.114,0.023,0.215,0.076,0.292,0.127l0.007,0.002c1.638,0.671,3.13,1.368,4.56,2.13       c0.296,0.128,0.646,0.307,0.986,0.481l0.309,0.157c0.091,0.053,0.143,0.094,0.195,0.139l0.095,0.062       c0.384,0.21,0.763,0.418,1.145,0.675l0.038,0.014c0.089,0.039,0.168,0.089,0.253,0.145c0.042,0.028,0.087,0.059,0.142,0.087       c0.559,0.322,1.065,0.664,1.577,1.016c1.915,1.228,3.85,2.76,5.907,4.676c0.574,0.518,1.015,0.961,1.378,1.389       c2.314,2.345,4.294,5.059,5.86,8.04c0.7,1.237,1.289,2.62,1.771,3.81c0.529,1.296,0.922,2.507,1.201,3.701       c0.104,0.345,0.209,0.69,0.315,1.065c0.147,0.564,0.298,1.137,0.389,1.748L373.839,502.237z M294.232,500.172l78.426,1.05       c-0.075-0.35-0.165-0.693-0.259-1.051c-0.103-0.364-0.208-0.709-0.312-1.053l-0.009-0.032       c-0.267-1.147-0.646-2.314-1.156-3.568c-0.471-1.159-1.043-2.506-1.723-3.707c-1.527-2.907-3.449-5.542-5.72-7.843       c-0.358-0.421-0.769-0.834-1.316-1.327c-2.018-1.88-3.908-3.376-5.784-4.58c-0.509-0.349-0.997-0.678-1.508-0.974       c-0.07-0.036-0.142-0.083-0.208-0.126c-0.008-0.006-0.016-0.011-0.023-0.016l-0.025,0.001l-0.174-0.097       c-0.369-0.256-0.735-0.457-1.124-0.67c-0.117-0.051-0.212-0.13-0.274-0.182l-0.319-0.173c-0.322-0.166-0.653-0.336-0.967-0.473       c-1.402-0.746-2.831-1.415-4.396-2.06l-0.096,0.006l-0.252-0.155c-0.207-0.085-0.414-0.175-0.619-0.264       c-0.3-0.13-0.596-0.258-0.88-0.365l-0.4-0.145c-0.951-0.343-1.85-0.667-2.753-0.927c-2.392-0.793-4.863-1.463-7.166-1.944       l-0.489-0.105c-0.707-0.154-1.375-0.3-1.991-0.388c-0.465-0.098-0.839-0.166-1.183-0.207c-3.884-0.684-6.456-0.776-6.482-0.777       l-0.492-0.017l0.483-26.72h-31.29l0.331,36.248L294.232,500.172z"/>
				</g>
				<g>
					<g>
						<g>
							<path d="M317.605,510.36l0.551-4.225l3.935,4.214l50.225,0.181c1.223,0.004,2.166-1.065,1.998-2.266l-1.014-7.243         l-79.798-0.323l-0.009,9.529L317.605,510.36z"/>
							<path d="M372.324,511.03c-0.003,0-0.007,0-0.01,0l-50.44-0.182l-3.359-3.597l-0.471,3.61l-25.051-0.139l0.009-10.527         l80.734,0.327l1.073,7.672c0.1,0.712-0.115,1.433-0.59,1.976C373.742,510.718,373.053,511.03,372.324,511.03z          M322.31,509.851l50.009,0.18c0.002,0,0.004,0,0.006,0c0.439,0,0.855-0.189,1.143-0.517c0.283-0.325,0.412-0.755,0.352-1.18         l-0.954-6.815l-78.863-0.319l-0.009,8.529l23.174,0.128l0.631-4.838L322.31,509.851z"/>
						</g>
						<g>
							<g>
								<path style="fill:#00C257;" d="M293.73,500.578c0.314,0.367,65.983,0.963,79.528,1.151          c-1.891-10.48-7.447-18.294-16.642-24.146c-0.55-0.356-1.13-0.71-1.707-1.006c-0.611-0.382-1.22-0.736-1.826-1.03          c-1.703-0.919-3.521-1.773-5.424-2.565c-0.665-0.292-1.33-0.554-2.022-0.786c-0.152-0.081-0.333-0.161-0.484-0.212          c-3.951-1.488-8.309-2.811-13.073-3.939c-1.168-0.268-9.642,14.602-38.499,9.494          C293.607,481.207,293.261,500.071,293.73,500.578z"/>
								<path d="M373.858,502.238l-0.606-0.009c-3.39-0.047-10.044-0.12-18.122-0.208c-61.396-0.671-61.509-0.802-61.779-1.118l0,0          c-0.331-0.398-0.45-2.272-0.305-17.916c0.023-2.461,0.042-4.48,0.035-5.445l-0.004-0.601l0.591,0.104          c23.686,4.194,33.529-5.249,36.765-8.351c0.918-0.881,1.288-1.245,1.76-1.138c4.699,1.113,9.118,2.444,13.137,3.958          c0.16,0.055,0.368,0.145,0.543,0.238c0.589,0.19,1.264,0.453,1.987,0.77c1.951,0.812,3.792,1.682,5.462,2.583          c0.545,0.264,1.141,0.6,1.854,1.046c0.475,0.241,1.03,0.569,1.713,1.011c9.461,6.022,14.977,14.029,16.862,24.478          L373.858,502.238z M294.131,500.129c3.657,0.266,39.373,0.656,61.01,0.893c7.618,0.083,13.971,0.152,17.513,0.2          c-1.933-9.868-7.272-17.467-16.306-23.217c-0.656-0.425-1.186-0.737-1.667-0.983c-0.719-0.448-1.284-0.768-1.816-1.024          c-1.66-0.895-3.47-1.752-5.399-2.554c-0.704-0.309-1.353-0.561-1.988-0.774c-0.205-0.102-0.36-0.169-0.488-0.213          c-3.96-1.491-8.299-2.801-12.912-3.897c-0.181,0.117-0.573,0.493-0.954,0.858c-3.299,3.163-13.282,12.734-37.042,8.716          c-0.001,1.088-0.017,2.825-0.036,4.863C293.994,488.439,293.902,498.313,294.131,500.129z M332.131,468.528"/>
							</g>
						</g>
						<g>
							<g>
								<path d="M334.147,484.712l1.487,1.369l12.024-13.099c-0.665-0.292-1.33-0.554-2.022-0.786L334.147,484.712z"/>
							</g>
							<g>
								<path d="M341.002,488.707l1.515,1.338l12.392-13.468c-0.611-0.382-1.22-0.736-1.826-1.03L341.002,488.707z"/>
							</g>
						</g>
					</g>
				</g>
			</g>
		</g>
	</g>
	<g>
		<g>
			<g>
				<path style="fill:#004421;" d="M250.134,246.882c1.297,12.725,2.346,24.165,3.14,33.081c0.864,9.736-5.561,18.486-14.997,20.357      c-21.378,4.266-57.735,9.028-77.693,10.106c-7.386,0.385-13.832-5.245-14.622-12.704c0,0-1.913-17.157-4.385-40.067      c-2.314-21.621-5.135-48.382-7.294-70.642c-1.9-19.519-3.265-35.591-3.38-41.719c-0.432-24.484,13.493-30.764,29.608-29.55      l-4.843-38.764l-1.297-10.32l-1.526-12.257l-2.716-21.76l-1.545-12.352l-1.088-8.671l-0.027-0.161l37.224-4.634l1.089,8.118      l0.948,7.029l0.83,6.184l2.861,21.347l0.055,0.389l8.044,59.988c0,0,27.331-7.064,35.085,16.751      c3.912,11.979,4.228,28.161,7.26,47.134C244.697,197.632,247.815,224.297,250.134,246.882z"/>
				<path d="M159.86,310.944c-7.351,0-13.6-5.65-14.396-13.17c-0.019-0.169-1.941-17.417-4.384-40.066      c-3.176-29.668-5.562-52.776-7.294-70.647c-1.469-15.094-3.249-34.591-3.382-41.757c-0.191-10.822,2.419-18.865,7.756-23.904      c4.997-4.718,12.322-6.807,21.78-6.196L146.887,11.028l38.234-4.761l13.821,103.005c3.944-0.833,27.943-4.897,35.138,17.205      c2.476,7.582,3.509,16.738,4.705,27.34c0.713,6.314,1.449,12.842,2.572,19.869c3.245,20.213,6.365,44.822,9.273,73.146l0,0      c1.38,13.553,2.453,25.374,3.14,33.088c0.887,9.993-5.732,18.975-15.398,20.891c-21.649,4.321-57.988,9.047-77.764,10.114      C160.359,310.938,160.109,310.944,159.86,310.944z M156.827,116.101c-7.702,0-13.739,2.02-17.981,6.025      c-5.125,4.838-7.629,12.63-7.443,23.158c0.133,7.134,1.91,26.602,3.378,41.679c1.732,17.868,4.118,40.974,7.293,70.638      c2.443,22.646,4.365,39.894,4.384,40.064c0.767,7.248,6.933,12.608,14.099,12.261c19.737-1.065,56.01-5.783,77.622-10.097      c9.164-1.817,15.439-10.339,14.597-19.822c-0.687-7.71-1.759-19.527-3.139-33.074l0,0c-2.906-28.304-6.023-52.895-9.266-73.089      c-1.127-7.051-1.865-13.591-2.579-19.915c-1.19-10.548-2.218-19.656-4.663-27.143c-3.149-9.674-9.885-15.381-20.021-16.964      c-7.612-1.188-14.396,0.523-14.463,0.541l-0.545,0.141L184.262,7.382l-36.23,4.511l13.05,104.396l-0.609-0.046      C159.22,116.148,158.004,116.101,156.827,116.101z"/>
			</g>
			<g>
				<path d="M168.341,301.961c-5.763,0-9.839-0.517-10.039-1.925c-0.04-0.281,0.045-0.561,0.251-0.833      c2.204-2.887,22.071-6.763,40.556-9.1c14.339-1.811,41.599-4.262,42.121-0.563c0.04,0.282-0.045,0.562-0.251,0.833      c-2.204,2.887-22.071,6.763-40.557,9.1C191.544,300.595,177.712,301.961,168.341,301.961z M159.295,299.897      c0.714,1.451,15.679,1.784,41.003-1.416c25.303-3.198,39.679-7.241,39.943-8.812c-0.646-1.439-15.622-1.78-41.006,1.428      C173.997,294.286,159.63,298.317,159.295,299.897z M159.29,299.886"/>
			</g>
			<g>
				<g>
					<g>
						<path style="fill:#FFFFFF;" d="M217.547,117.89c-0.094-0.01-0.187-0.017-0.281-0.022c-2.492-0.136-5.363,1.801-4.714,4.605        c0.611,2.637,3.608,3.184,5.439,4.673c2.771,2.254,3.2,6.676,3.986,9.936c0.686,2.842,2.136,6.794,5.956,5.968        c4.754-1.028,2.472-6.916,1.588-10.124c-1.091-3.957-2.553-8.099-5.345-11.205        C222.551,119.913,220.022,118.142,217.547,117.89z"/>
						<path style="fill:#FFFFFF;" d="M226.929,143.663c-2.575,0-4.4-2.168-5.436-6.465c-0.141-0.581-0.27-1.199-0.402-1.835        c-0.596-2.854-1.27-6.087-3.413-7.83c-0.545-0.443-1.206-0.801-1.906-1.179c-1.518-0.82-3.237-1.75-3.705-3.768        c-0.28-1.211,0.01-2.407,0.817-3.368c1.019-1.214,2.743-1.935,4.411-1.849c0.1,0.005,0.2,0.014,0.3,0.022l0.004,0.001        c2.727,0.277,5.378,2.245,6.951,3.994c2.937,3.267,4.406,7.599,5.455,11.406c0.086,0.311,0.185,0.647,0.29,1.003        c0.723,2.455,1.712,5.816,0.445,7.951c-0.546,0.92-1.454,1.522-2.698,1.791C227.655,143.622,227.285,143.663,226.929,143.663z         M217.02,118.361c-1.273,0-2.604,0.586-3.371,1.499c-0.425,0.506-0.875,1.35-0.608,2.499c0.366,1.58,1.745,2.326,3.206,3.115        c0.709,0.384,1.443,0.78,2.061,1.283c2.419,1.967,3.132,5.385,3.762,8.401c0.13,0.625,0.257,1.232,0.395,1.805        c1.057,4.382,2.759,6.155,5.365,5.598c0.975-0.211,1.646-0.645,2.049-1.325c1.045-1.76,0.127-4.88-0.544-7.158        c-0.106-0.36-0.207-0.703-0.294-1.02c-1.018-3.694-2.436-7.892-5.235-11.004c-1.447-1.609-3.864-3.418-6.307-3.668        c-0.085-0.008-0.171-0.015-0.257-0.02C217.167,118.363,217.093,118.361,217.02,118.361z"/>
					</g>
				</g>
				<g>
					<path style="fill:#FFFFFF;" d="M151.795,263.692c-2.178,0.689-3.328,2.787-2.805,5.043c0.166,0.717,0.316,1.437,0.448,2.161       c0.058,0.321,0.114,0.642,0.167,0.964c0.022,0.134,0.043,0.268,0.064,0.402c0.191,1.409,0.363,2.82,0.525,4.232       c0.358,3.132,0.726,6.275,1.408,9.361c0.468,2.119,3.03,3.57,5.039,2.935c2.197-0.695,3.305-2.782,2.805-5.044       c-0.158-0.716-0.301-1.435-0.427-2.158c-0.055-0.32-0.109-0.641-0.159-0.962c-0.002-0.011-0.005-0.034-0.009-0.062       c-0.012-0.083-0.025-0.173-0.031-0.217c-0.2-1.449-0.362-2.901-0.528-4.353c-0.36-3.136-0.742-6.284-1.456-9.367       C156.344,264.513,153.819,263.052,151.795,263.692z"/>
					<path style="fill:#FFFFFF;" d="M155.632,289.442c-0.782,0-1.593-0.222-2.34-0.653c-1.133-0.653-1.927-1.684-2.179-2.825       c-0.705-3.189-1.083-6.495-1.417-9.412c-0.161-1.408-0.333-2.815-0.523-4.222l-0.062-0.39       c-0.052-0.317-0.107-0.636-0.165-0.953c-0.131-0.716-0.279-1.429-0.443-2.139c-0.581-2.504,0.74-4.873,3.141-5.632l0,0       c1.086-0.343,2.347-0.177,3.46,0.458c1.141,0.65,1.949,1.686,2.216,2.84c0.704,3.039,1.081,6.065,1.466,9.424l0.052,0.451       c0.148,1.298,0.297,2.596,0.475,3.89l0.03,0.211c0.059,0.379,0.112,0.697,0.167,1.015c0.125,0.715,0.266,1.426,0.422,2.136       c0.564,2.55-0.729,4.864-3.142,5.627C156.421,289.384,156.03,289.442,155.632,289.442z M152.807,264.04       c-0.297,0-0.587,0.043-0.861,0.129l0,0c-1.921,0.607-2.936,2.438-2.468,4.453c0.167,0.727,0.319,1.453,0.452,2.185       c0.059,0.323,0.115,0.647,0.168,0.972l0.064,0.406c0.193,1.424,0.366,2.837,0.527,4.253c0.331,2.893,0.707,6.17,1.4,9.311       c0.191,0.868,0.812,1.66,1.703,2.175c0.872,0.503,1.879,0.648,2.697,0.391c1.931-0.61,2.922-2.401,2.467-4.458       c-0.16-0.725-0.304-1.451-0.431-2.181c-0.056-0.324-0.109-0.646-0.16-0.971l-0.037-0.253c-0.185-1.338-0.334-2.644-0.483-3.949       l-0.051-0.451c-0.382-3.326-0.754-6.323-1.447-9.311c-0.205-0.884-0.838-1.684-1.737-2.197       C154.028,264.211,153.402,264.04,152.807,264.04z"/>
				</g>
			</g>
			<g>
				<g>
					<path style="fill:#00C257;" d="M145.432,9.735c-1.279,3.316-1.386,8.174,1.257,9.985c2.392,1.64,5.688-0.538,7.326-2.761       c0.572,2.149,2.6,4.583,4.735,4.332c1.856-0.218,4.204-1.593,4.651-4.974c1.329,2.013,3.098,3.829,5.605,3.457       c1.955-0.291,3.589-2.322,3.835-4.352c1.857,2.453,3.599,3.165,5.877,2.819c1.485-0.226,3.726-1.694,4.172-5.125       c2.232,3.119,5.796,2.12,5.62-2.001c-0.098-2.289-1.541-4.74-2.999-6.353L145.432,9.735z"/>
					<path d="M158.453,21.809c-1.932,0-3.769-1.805-4.62-3.84c-1.852,2.05-5.004,3.824-7.427,2.163       c-2.733-1.873-2.879-6.85-1.441-10.577l0.107-0.279l40.635-5.041l0.174,0.193c1.442,1.597,3.021,4.186,3.127,6.666       c0.089,2.09-0.757,3.698-2.208,4.198c-1.199,0.415-2.52,0.007-3.615-1.06c-0.797,3.12-3.066,4.303-4.393,4.504       c-2.26,0.345-4.008-0.319-5.689-2.204c-0.623,1.915-2.241,3.472-4.024,3.736c-2.48,0.377-4.227-1.17-5.425-2.729       c-0.815,2.787-3.032,4.035-4.847,4.249C158.69,21.802,158.571,21.809,158.453,21.809z M154.23,15.824l0.268,1.006       c0.543,2.044,2.405,4.181,4.194,3.964c1.773-0.208,3.812-1.511,4.213-4.543l0.176-1.326l0.737,1.116       c1.641,2.483,3.263,3.506,5.115,3.238c1.649-0.246,3.18-2.003,3.412-3.918l0.149-1.227l0.746,0.986       c1.685,2.226,3.201,2.965,5.403,2.627c1.108-0.169,3.318-1.366,3.751-4.695l0.164-1.259l0.739,1.032       c0.927,1.295,2.143,1.879,3.179,1.521c1.032-0.355,1.605-1.556,1.535-3.21c-0.09-2.12-1.423-4.37-2.699-5.846l-39.516,4.902       c-1.163,3.265-1.054,7.585,1.176,9.114c2.147,1.47,5.177-0.659,6.641-2.646L154.23,15.824z"/>
				</g>
				<g>
					<path style="fill:#00C257;" d="M145.376,9.828c0.354,2.657,9.646,3.755,20.756,2.452c11.11-1.303,19.829-4.515,19.475-7.172       c-0.354-2.658-9.646-3.756-20.756-2.452C153.741,3.96,145.022,7.17,145.376,9.828z"/>
					<path d="M157.216,13.321c-6.625,0-12.017-1.023-12.336-3.427c-0.069-0.518,0.101-1.045,0.504-1.564       c1.96-2.522,9.941-5.06,19.408-6.172c9.989-1.169,20.852-0.559,21.31,2.883c0.069,0.519-0.101,1.045-0.504,1.563       c-1.962,2.524-9.943,5.062-19.409,6.172C163.175,13.13,160.08,13.321,157.216,13.321z M173.799,2.602       c-2.638,0-5.637,0.169-8.89,0.551c-10.282,1.207-17.208,3.827-18.735,5.792c-0.233,0.3-0.335,0.575-0.303,0.817l0,0       c0.272,2.046,8.636,3.38,20.202,2.02c10.281-1.205,17.207-3.825,18.735-5.791c0.233-0.3,0.335-0.575,0.303-0.817       C184.916,3.704,180.54,2.602,173.799,2.602z"/>
				</g>
			</g>
			<g>
				<path style="fill:#FFB2B0;" d="M216.603,179.526c-3.65-13.562-16.903-22.744-31.367-21.01      c-14.464,1.734-25.125,13.782-25.408,27.816l-14.909,1.787l8.31,68.099l86.593-10.38l-8.31-68.099L216.603,179.526z"/>
				<path d="M152.794,256.774l-8.431-69.091l14.979-1.797c0.503-14.212,11.536-26.151,25.836-27.866      c14.298-1.716,27.887,7.274,31.793,20.958l14.979-1.795l8.431,69.091L152.794,256.774z M145.477,188.556l8.189,67.106      l85.6-10.262l-8.189-67.106l-14.844,1.779l-0.113-0.418c-3.618-13.44-16.865-22.313-30.824-20.644      c-13.954,1.674-24.688,13.423-24.968,27.329l-0.009,0.435L145.477,188.556z"/>
			</g>
			<g>
				<polygon style="fill:#FFB2B0;" points="190.476,49.892 152.844,54.403 150.129,32.643 187.559,28.156 190.421,49.502     "/>
				<path d="M152.41,54.958l-2.84-22.752l38.419-4.606l3.053,22.727L152.41,54.958z M150.687,33.079l2.592,20.768l36.631-4.391      l-2.781-20.746L150.687,33.079z"/>
			</g>
		</g>
		<g>
			<g>
				<path style="fill:#004421;" d="M251.411,246.868c-1.018,12.75-1.816,24.21-2.415,33.141c-0.65,9.753,5.965,18.362,15.44,20.029      c21.467,3.805,57.919,7.784,77.897,8.432c7.392,0.226,13.714-5.542,14.34-13.016c0,0,1.537-17.194,3.506-40.152      c1.84-21.666,4.074-48.481,5.745-70.782c1.472-19.556,2.485-35.653,2.465-41.782c-0.104-24.488-14.164-30.466-30.248-28.906      l3.993-38.859l1.071-10.345l1.257-12.287l2.238-21.813l1.274-12.382l0.898-8.692l0.024-0.162L311.58,5.46l-0.911,8.139      l-0.794,7.048l-0.694,6.2l-2.393,21.403l-0.046,0.39l-6.729,60.147c0,0-27.48-6.475-34.71,17.502      c-3.648,12.06-3.61,28.245-6.226,47.279C255.768,197.513,253.235,224.239,251.411,246.868z"/>
				<path d="M342.757,308.977c-0.146,0-0.293-0.003-0.44-0.007c-19.795-0.642-56.228-4.586-77.968-8.439      c-9.704-1.708-16.519-10.545-15.851-20.555c0.519-7.741,1.334-19.601,2.415-33.148l0,0c2.288-28.384,4.868-53.055,7.67-73.328      c0.969-7.049,1.561-13.592,2.136-19.919c0.964-10.625,1.797-19.802,4.106-27.437c6.71-22.251,30.794-18.701,34.752-17.956      L311.139,4.911l38.328,3.937l-0.099,0.678L338.7,113.279c9.439-0.812,16.81,1.117,21.91,5.726      c5.447,4.923,8.232,12.908,8.278,23.731c0.022,7.176-1.328,26.703-2.466,41.82c-1.34,17.881-3.22,41.035-5.746,70.787      c-1.947,22.697-3.49,39.982-3.506,40.154C356.531,303.136,350.242,308.977,342.757,308.977z M251.909,246.908      c-1.081,13.541-1.895,25.396-2.414,33.134c-0.634,9.499,5.827,17.884,15.027,19.504c21.702,3.847,58.069,7.783,77.826,8.424      c0.136,0.005,0.273,0.007,0.408,0.007c6.967,0,12.821-5.443,13.418-12.566c0.016-0.175,1.559-17.458,3.506-40.152      c2.526-29.748,4.405-52.899,5.744-70.776c1.137-15.1,2.486-34.6,2.464-41.742c-0.045-10.53-2.719-18.267-7.949-22.993      c-4.989-4.51-12.305-6.339-21.751-5.417l-0.607,0.059l10.76-104.651l-36.319-3.73l-11.574,103.396l-0.549-0.129      c-0.068-0.016-6.887-1.584-14.473-0.229c-10.099,1.8-16.708,7.65-19.645,17.389c-2.28,7.538-3.108,16.667-4.067,27.238      c-0.575,6.338-1.17,12.893-2.142,19.965C256.774,193.892,254.195,218.543,251.909,246.908L251.909,246.908z"/>
			</g>
			<g>
				<path d="M331.967,300.199c-9.215,0-21.544-0.97-29.705-1.823c-18.532-1.938-38.479-5.385-40.746-8.224      c-0.213-0.267-0.304-0.545-0.27-0.827c0.441-3.71,27.747-1.848,42.124-0.343c18.532,1.938,38.478,5.385,40.745,8.225      c0.213,0.267,0.304,0.545,0.27,0.827C344.194,299.637,338.983,300.199,331.967,300.199z M273.798,288.164      c-7.225,0-11.248,0.54-11.561,1.29c0.301,1.543,14.763,5.275,40.129,7.928c25.384,2.654,40.338,2.002,41.024,0.534      c-0.369-1.573-14.82-5.293-40.123-7.939C290.759,288.669,280.782,288.164,273.798,288.164z"/>
			</g>
			<g>
				<g>
					<g>
						<path style="fill:#FFFFFF;" d="M281.165,117.206c0.093-0.012,0.187-0.021,0.28-0.028c2.488-0.19,5.401,1.686,4.813,4.502        c-0.553,2.649-3.538,3.261-5.335,4.789c-2.721,2.313-3.053,6.743-3.768,10.019c-0.623,2.856-1.987,6.838-5.824,6.095        c-4.775-0.925-2.623-6.861-1.809-10.087c1.004-3.98,2.375-8.152,5.098-11.317        C276.207,119.335,278.696,117.511,281.165,117.206z"/>
						<path style="fill:#FFFFFF;" d="M272.251,143.175c-0.325,0-0.664-0.034-1.015-0.102c-1.25-0.242-2.171-0.825-2.736-1.732        c-1.315-2.106-0.398-5.489,0.27-7.959c0.097-0.357,0.189-0.696,0.268-1.009c0.966-3.829,2.339-8.192,5.204-11.521        c1.532-1.782,4.14-3.806,6.861-4.142c0.102-0.013,0.203-0.024,0.306-0.031c1.649-0.123,3.402,0.562,4.447,1.753        c0.828,0.943,1.145,2.133,0.891,3.351c-0.423,2.028-2.122,2.995-3.621,3.848c-0.691,0.394-1.344,0.765-1.879,1.22        c-2.105,1.789-2.709,5.037-3.242,7.902c-0.118,0.639-0.233,1.259-0.361,1.843C276.69,140.968,274.878,143.175,272.251,143.175        z M281.794,117.665c-0.104,0-0.208,0.003-0.31,0.012c-0.087,0.006-0.172,0.015-0.256,0.025h-0.001        c-2.439,0.301-4.816,2.161-6.227,3.802c-2.73,3.172-4.056,7.397-4.993,11.113c-0.08,0.318-0.173,0.662-0.271,1.025        c-0.62,2.293-1.471,5.432-0.388,7.169c0.419,0.671,1.099,1.09,2.078,1.279c2.588,0.503,4.294-1.366,5.241-5.709        c0.125-0.574,0.238-1.185,0.355-1.812c0.563-3.029,1.201-6.463,3.576-8.481c0.607-0.516,1.332-0.928,2.033-1.327        c1.442-0.82,2.806-1.596,3.137-3.184c0.241-1.155-0.227-1.989-0.663-2.485C284.337,118.217,283.038,117.665,281.794,117.665z"/>
					</g>
				</g>
				<g>
					<path style="fill:#FFFFFF;" d="M350.094,261.559c2.193,0.642,3.389,2.715,2.915,4.982c-0.15,0.721-0.285,1.444-0.401,2.17       c-0.051,0.322-0.1,0.644-0.146,0.967c-0.019,0.135-0.037,0.269-0.055,0.404c-0.16,1.413-0.301,2.827-0.432,4.243       c-0.289,3.139-0.589,6.289-1.202,9.389c-0.422,2.129-2.951,3.635-4.973,3.042c-2.212-0.648-3.365-2.71-2.915-4.982       c0.142-0.72,0.269-1.442,0.379-2.166c0.048-0.321,0.094-0.643,0.138-0.966c0.002-0.011,0.005-0.034,0.008-0.062       c0.011-0.084,0.021-0.173,0.026-0.218c0.168-1.453,0.298-2.908,0.433-4.363c0.291-3.142,0.604-6.298,1.251-9.396       C345.565,262.478,348.057,260.962,350.094,261.559z"/>
					<path style="fill:#FFFFFF;" d="M346.734,287.387c-0.367,0-0.729-0.05-1.073-0.151c-2.43-0.712-3.772-2.998-3.265-5.559       c0.141-0.713,0.267-1.428,0.376-2.146c0.047-0.317,0.093-0.637,0.137-0.957l0.032-0.267c0.148-1.288,0.268-2.575,0.386-3.861       l0.046-0.494c0.312-3.362,0.621-6.394,1.26-9.453c0.242-1.159,1.026-2.212,2.152-2.887c1.1-0.66,2.358-0.855,3.451-0.533l0,0       c2.417,0.708,3.79,3.049,3.263,5.565c-0.147,0.712-0.281,1.428-0.396,2.146c-0.051,0.318-0.099,0.639-0.144,0.959l-0.055,0.401       c-0.158,1.397-0.298,2.809-0.429,4.221c-0.269,2.917-0.573,6.224-1.211,9.44c-0.227,1.146-0.997,2.192-2.115,2.87       C348.384,287.146,347.543,287.387,346.734,287.387z M349.157,261.927c-0.616,0-1.263,0.185-1.858,0.543       c-0.888,0.532-1.503,1.347-1.689,2.234c-0.628,3.007-0.934,6.009-1.242,9.34l-0.046,0.494       c-0.119,1.294-0.238,2.588-0.388,3.881l-0.027,0.224c-0.053,0.391-0.099,0.714-0.147,1.037       c-0.111,0.735-0.239,1.464-0.384,2.19c-0.409,2.065,0.622,3.836,2.565,4.406c0.821,0.242,1.826,0.072,2.689-0.45       c0.878-0.533,1.48-1.339,1.653-2.21c0.627-3.166,0.929-6.444,1.195-9.338c0.131-1.42,0.273-2.837,0.433-4.254l0.057-0.415       c0.046-0.328,0.096-0.652,0.147-0.978c0.118-0.734,0.254-1.464,0.405-2.192c0.424-2.024-0.631-3.834-2.565-4.401       C349.699,261.964,349.432,261.927,349.157,261.927z"/>
				</g>
			</g>
			<g>
				<g>
					<path style="fill:#00C257;" d="M350.895,7.524c1.352,3.288,1.564,8.142-1.038,10.01c-2.356,1.691-5.698-0.415-7.385-2.603       c-0.524,2.161-2.499,4.637-4.639,4.433c-1.86-0.178-4.238-1.503-4.759-4.873c-1.285,2.041-3.014,3.895-5.528,3.576       c-1.961-0.249-3.639-2.244-3.929-4.268c-1.803,2.493-3.529,3.241-5.814,2.945c-1.489-0.194-3.762-1.614-4.283-5.034       c-2.163,3.167-5.748,2.245-5.662-1.879c0.047-2.291,1.437-4.772,2.859-6.416L350.895,7.524z"/>
					<path d="M338.074,19.876c-0.096,0-0.192-0.005-0.29-0.014c-1.817-0.174-4.061-1.373-4.937-4.139       c-0.979,1.331-2.764,3.168-5.366,2.84c-1.788-0.227-3.439-1.747-4.104-3.648c-1.639,1.919-3.367,2.616-5.64,2.326       c-1.331-0.174-3.625-1.308-4.49-4.409c-1.071,1.092-2.382,1.526-3.591,1.139c-1.462-0.469-2.344-2.059-2.3-4.149       c0.052-2.481,1.574-5.105,2.982-6.732l0.17-0.196l40.735,4.165l0.114,0.276c1.52,3.696,1.482,8.674-1.209,10.606       c-2.382,1.711-5.576,0.006-7.473-2.003C341.86,18.013,340.031,19.876,338.074,19.876z M333.362,13.092l0.205,1.323       c0.468,3.022,2.534,4.281,4.312,4.451c1.768,0.179,3.607-1.997,4.105-4.053l0.246-1.012l0.636,0.824       c1.507,1.952,4.582,4.019,6.697,2.502c2.196-1.576,2.211-5.898,0.978-9.137l-39.614-4.051       c-1.244,1.503-2.527,3.781-2.571,5.902c-0.034,1.655,0.565,2.843,1.605,3.176c1.044,0.335,2.246-0.275,3.144-1.59l0.716-1.048       l0.191,1.255c0.506,3.317,2.742,4.469,3.853,4.613c2.212,0.287,3.71-0.482,5.345-2.742l0.725-1.002l0.176,1.224       c0.273,1.91,1.842,3.634,3.496,3.843c1.866,0.241,3.458-0.827,5.043-3.347L333.362,13.092z"/>
				</g>
				<g>
					<path style="fill:#00C257;" d="M350.953,7.617c-0.295,2.664-9.562,3.962-20.697,2.898c-11.136-1.064-19.923-4.087-19.628-6.751       c0.296-2.665,9.562-3.962,20.698-2.898C342.461,1.929,351.248,4.952,350.953,7.617z"/>
					<path d="M337.737,11.379c-2.443,0-5.013-0.127-7.53-0.367c-9.487-0.906-17.522-3.272-19.538-5.752       c-0.415-0.511-0.596-1.033-0.538-1.553c0.383-3.449,11.228-4.297,21.242-3.341c9.488,0.908,17.522,3.273,19.538,5.754       c0.415,0.51,0.597,1.032,0.539,1.551v0.001C351.163,10.255,345.012,11.379,337.737,11.379z M323.771,0.988       c-7.528,0-12.472,1.257-12.645,2.829c-0.027,0.244,0.081,0.517,0.32,0.811c1.57,1.932,8.552,4.402,18.857,5.387       c11.591,1.111,19.926-0.404,20.153-2.455c0.027-0.242-0.081-0.516-0.32-0.811c-1.57-1.931-8.552-4.402-18.858-5.388       C328.579,1.105,326.055,0.988,323.771,0.988z"/>
				</g>
			</g>
			<g>
				<path style="fill:#FFB2B0;" d="M283.458,178.807c3.353-13.637,16.4-23.102,30.899-21.68s25.421,13.239,26.011,27.262      l14.945,1.466l-6.817,68.262l-86.8-8.515l6.817-68.262L283.458,178.807z"/>
				<path d="M348.944,254.663l-0.497-0.048l-87.298-8.564l6.916-69.257l15.014,1.473c3.606-13.764,16.987-23.029,31.327-21.638      c14.334,1.406,25.627,13.107,26.439,27.306l15.015,1.473L348.944,254.663z M262.243,245.154l85.805,8.417l6.719-67.268      l-14.88-1.459l-0.018-0.434c-0.584-13.899-11.572-25.415-25.56-26.786c-13.985-1.378-27.041,7.784-30.365,21.301l-0.104,0.421      l-14.878-1.461L262.243,245.154z"/>
			</g>
			<g>
				<polygon style="fill:#FFB2B0;" points="306.741,48.641 344.462,52.341 346.701,30.528 309.181,26.847 306.787,48.25     "/>
				<path d="M344.908,52.887l-0.495-0.048l-38.228-3.75l0.105-0.897l2.448-21.891l38.511,3.778L344.908,52.887z M307.297,48.193      l36.719,3.603l2.136-20.819l-36.528-3.583L307.297,48.193z"/>
			</g>
		</g>
		<g>
			<g>
				<path style="fill:#004421;" d="M85.035,302.233c2.085,12.622,4.072,23.939,5.643,32.753c1.719,9.624,10.218,16.418,19.82,15.794      c21.763-1.387,58.119-6.155,77.674-10.256c7.233-1.531,11.981-8.628,10.788-16.034c0,0-2.652-17.06-6.273-39.819      c-3.435-21.474-7.729-48.042-11.482-70.093c-3.284-19.338-6.18-35.209-7.677-41.156c-6.003-23.754-21.097-26.23-36.34-20.907      l-5.488-38.679l-1.454-10.299l-1.741-12.229l-3.084-21.712l-1.747-12.325l-1.223-8.653l-0.016-0.163l-37.16,5.114l1.077,8.119      l0.928,7.032l0.82,6.185l2.835,21.35l0.049,0.39l7.964,59.998c0,0-28.245,0.219-29.486,25.214      c-0.636,12.574,3.302,28.282,5.35,47.384C77.37,253.275,81.351,279.828,85.035,302.233z"/>
				<path d="M109.278,351.32c-9.315,0-17.403-6.788-19.093-16.245c-1.362-7.643-3.43-19.355-5.644-32.76l0,0      c-4.62-28.103-8.061-52.67-10.227-73.021c-0.759-7.074-1.759-13.567-2.727-19.847c-1.625-10.546-3.029-19.654-2.626-27.615      c1.152-23.193,25.387-25.453,29.418-25.667L84.714,53.141l38.167-5.253l0.067,0.679l14.649,103.278      c8.967-3.02,16.582-2.896,22.643,0.364c6.483,3.488,11.116,10.583,13.771,21.09c1.75,6.956,5.145,26.241,7.685,41.194      c3.02,17.749,6.776,40.678,11.482,70.098c3.58,22.501,6.247,39.651,6.274,39.821c1.244,7.719-3.666,15.011-11.178,16.601      c-19.378,4.063-55.708,8.86-77.746,10.266C110.111,351.306,109.693,351.32,109.278,351.32z M85.528,302.153      c2.213,13.399,4.28,25.106,5.642,32.746c1.675,9.376,9.967,15.997,19.296,15.382c22.001-1.402,58.264-6.19,77.604-10.246      c6.988-1.478,11.556-8.271,10.396-15.466c-0.027-0.173-2.694-17.321-6.273-39.82c-4.706-29.416-8.461-52.342-11.481-70.087      c-2.537-14.936-5.927-34.193-7.669-41.118c-2.583-10.223-7.05-17.104-13.275-20.453c-5.932-3.191-13.474-3.227-22.415-0.104      l-0.575,0.201L122.003,49.019l-36.167,4.977l13.682,103.142l-0.566,0.005c-0.07,0.001-7.067,0.095-14.108,3.204      c-9.371,4.139-14.379,11.384-14.883,21.534c-0.398,7.86,0.999,16.921,2.615,27.413c0.969,6.29,1.972,12.796,2.732,19.893      C77.473,249.52,80.911,274.069,85.528,302.153L85.528,302.153z"/>
			</g>
			<g>
				<path d="M113.892,342.987c-4.456,0-7.6-0.336-8.613-1.115c-0.27-0.208-0.425-0.456-0.46-0.738      c-0.463-3.708,26.501-8.364,40.824-10.308c18.463-2.507,38.661-3.883,41.547-1.662c0.27,0.208,0.425,0.456,0.46,0.738l0,0      c0.463,3.707-26.501,8.364-40.823,10.309C134.844,341.838,122.13,342.987,113.892,342.987z M178.714,329.047      c-6.925,0-18.165,0.765-32.937,2.77c-25.34,3.44-39.716,7.626-39.966,9.205c0.657,1.429,15.595,1.631,40.88-1.801      c25.278-3.433,39.645-7.606,39.963-9.194C186.352,329.43,183.611,329.047,178.714,329.047z"/>
			</g>
			<g>
				<g>
					<g>
						<path style="fill:#FFFFFF;" d="M82.675,169.28c0.088-0.033,0.176-0.065,0.265-0.094c2.37-0.773,5.651,0.358,5.759,3.232        c0.101,2.703-2.649,4.004-4.027,5.913c-2.085,2.89-1.339,7.271-1.243,10.621c0.083,2.921-0.281,7.111-4.186,7.297        c-4.86,0.232-4.201-6.041-4.188-9.367c0.016-4.102,0.341-8.478,2.223-12.197C78.373,172.522,80.351,170.161,82.675,169.28z"/>
						<path style="fill:#FFFFFF;" d="M78.987,196.757c-1.146,0-2.085-0.35-2.795-1.042c-1.781-1.734-1.707-5.233-1.654-7.788        c0.008-0.371,0.015-0.722,0.017-1.045c0.016-3.947,0.298-8.511,2.277-12.421c1.061-2.095,3.105-4.678,5.666-5.648h0        c0.095-0.036,0.19-0.069,0.286-0.101c1.581-0.517,3.441-0.261,4.743,0.646c1.032,0.72,1.626,1.8,1.672,3.042        c0.078,2.07-1.339,3.412-2.59,4.596c-0.577,0.545-1.121,1.061-1.53,1.629c-1.612,2.234-1.416,5.531-1.243,8.439        c0.039,0.647,0.076,1.277,0.093,1.874c0.143,5.029-1.426,7.657-4.663,7.812C79.172,196.755,79.079,196.757,78.987,196.757z         M82.852,169.748c-2.293,0.869-4.152,3.237-5.128,5.164c-1.885,3.725-2.154,8.143-2.169,11.974        c-0.002,0.328-0.009,0.686-0.017,1.062c-0.05,2.372-0.118,5.62,1.352,7.052c0.569,0.554,1.329,0.796,2.329,0.753        c2.66-0.127,3.838-2.283,3.71-6.784c-0.017-0.588-0.054-1.207-0.091-1.844c-0.184-3.075-0.391-6.561,1.429-9.085        c0.465-0.645,1.07-1.216,1.654-1.77c1.203-1.138,2.339-2.214,2.278-3.832c-0.044-1.181-0.702-1.88-1.246-2.259        c-1.037-0.725-2.587-0.931-3.858-0.517C83.015,169.689,82.933,169.717,82.852,169.748L82.852,169.748z"/>
					</g>
				</g>
				<g>
					<path style="fill:#FFFFFF;" d="M184.402,293.134c2.284,0.104,3.945,1.834,4.031,4.147c0.028,0.735,0.072,1.469,0.134,2.202       c0.028,0.325,0.058,0.649,0.092,0.973c0.014,0.135,0.029,0.27,0.044,0.405c0.185,1.41,0.389,2.816,0.603,4.222       c0.476,3.116,0.945,6.247,1.096,9.402c0.104,2.167-1.989,4.228-4.096,4.132c-2.304-0.105-3.921-1.835-4.031-4.148       c-0.035-0.732-0.086-1.464-0.154-2.193c-0.031-0.324-0.063-0.647-0.099-0.97c-0.001-0.011-0.004-0.034-0.007-0.063       c-0.01-0.084-0.021-0.173-0.027-0.218c-0.187-1.45-0.411-2.895-0.631-4.339c-0.475-3.12-0.932-6.259-1.05-9.42       C180.225,295.098,182.28,293.037,184.402,293.134z"/>
					<path style="fill:#FFFFFF;" d="M186.448,319.12c-0.055,0-0.11-0.001-0.165-0.004c-2.53-0.115-4.383-2.017-4.508-4.623       c-0.035-0.726-0.085-1.448-0.152-2.172c-0.03-0.319-0.063-0.64-0.098-0.961l-0.033-0.271c-0.169-1.307-0.368-2.608-0.566-3.911       l-0.063-0.418c-0.508-3.338-0.939-6.354-1.055-9.477c-0.044-1.184,0.463-2.392,1.394-3.314       c0.909-0.901,2.097-1.397,3.224-1.336c2.517,0.114,4.413,2.06,4.508,4.627c0.028,0.728,0.071,1.453,0.133,2.178       c0.027,0.323,0.058,0.643,0.091,0.965l0.04,0.373c0.186,1.426,0.39,2.828,0.604,4.23c0.443,2.901,0.945,6.19,1.101,9.454       c0.056,1.166-0.441,2.364-1.362,3.288C188.665,318.627,187.547,319.12,186.448,319.12z M184.256,293.631       c-0.824,0-1.674,0.378-2.352,1.05c-0.732,0.726-1.132,1.661-1.099,2.566c0.115,3.069,0.541,6.056,1.044,9.363l0.064,0.418       c0.2,1.31,0.4,2.619,0.569,3.934l0.027,0.224c0.044,0.391,0.077,0.717,0.107,1.042c0.069,0.739,0.12,1.478,0.156,2.218       c0.1,2.104,1.529,3.58,3.554,3.673c0.849,0.023,1.793-0.363,2.503-1.074c0.723-0.725,1.113-1.648,1.071-2.535       c-0.153-3.211-0.651-6.473-1.09-9.351c-0.215-1.408-0.419-2.818-0.605-4.231l-0.046-0.42c-0.034-0.326-0.065-0.654-0.092-0.982       c-0.063-0.739-0.107-1.48-0.136-2.225c-0.077-2.067-1.539-3.575-3.554-3.667h-0.001       C184.339,293.632,184.298,293.631,184.256,293.631z"/>
				</g>
			</g>
			<g>
				<g>
					<path style="fill:#00C257;" d="M123.949,46.265c2.105,2.873,3.482,7.536,1.405,9.966c-1.88,2.2-5.633,0.946-7.799-0.779       c0.012,2.222-1.309,5.095-3.437,5.403c-1.849,0.268-4.477-0.456-5.796-3.605c-0.756,2.286-1.988,4.496-4.506,4.782       c-1.964,0.223-4.074-1.317-4.844-3.214c-1.15,2.847-2.645,3.983-4.936,4.236c-1.493,0.165-4.042-0.676-5.372-3.874       c-1.337,3.587-5.041,3.541-5.951-0.484c-0.506-2.236,0.245-4.974,1.23-6.907L123.949,46.265z"/>
					<path d="M93.685,63.572c-1.391,0-3.578-0.697-5.015-3.24c-0.774,1.311-1.935,2.051-3.203,1.957       c-1.537-0.104-2.779-1.439-3.242-3.483c-0.548-2.422,0.298-5.33,1.272-7.244l0.119-0.233l0.259-0.035l40.301-5.564l0.176,0.24       c2.367,3.229,3.531,8.072,1.382,10.587c-1.902,2.228-5.413,1.325-7.738-0.175c-0.306,2.317-1.753,4.671-3.805,4.969       c-1.806,0.257-4.276-0.373-5.793-2.854c-0.748,1.813-2.029,3.749-4.524,4.033c-1.793,0.195-3.762-0.884-4.865-2.572       c-1.13,2.253-2.643,3.344-4.917,3.595C93.966,63.565,93.83,63.572,93.685,63.572z M88.639,57.817l0.487,1.171       c1.293,3.104,3.746,3.69,4.856,3.569c2.215-0.244,3.484-1.346,4.526-3.927l0.462-1.145l0.465,1.144       c0.726,1.79,2.668,3.101,4.325,2.905c1.856-0.211,3.155-1.622,4.087-4.442l0.42-1.27l0.517,1.233       c1.184,2.827,3.5,3.562,5.262,3.304c1.787-0.259,3.02-2.793,3.009-4.905l-0.005-1.045l0.817,0.651       c1.934,1.54,5.416,2.822,7.107,0.845c1.753-2.051,0.723-6.251-1.257-9.104l-39.443,5.445c-0.845,1.754-1.541,4.268-1.073,6.338       c0.367,1.621,1.239,2.633,2.333,2.707c1.086,0.057,2.109-0.804,2.661-2.287L88.639,57.817z"/>
				</g>
				<g>
					<path style="fill:#00C257;" d="M124.027,46.34c0.355,2.657-8.33,6.111-19.4,7.714c-11.07,1.603-20.332,0.749-20.687-1.908       c-0.355-2.657,8.33-6.111,19.4-7.715C114.41,42.829,123.672,43.683,124.027,46.34z"/>
					<path d="M94.24,55.359c-4.715,0-8.36-0.605-9.898-1.768c-0.525-0.396-0.827-0.86-0.896-1.378       c-0.46-3.443,9.87-6.834,19.824-8.276c9.432-1.366,17.803-0.972,20.357,0.959c0.526,0.396,0.827,0.86,0.896,1.378       c0.461,3.443-9.87,6.834-19.824,8.276C100.945,55.094,97.359,55.359,94.24,55.359z M113.721,44.12       c-2.929,0-6.411,0.242-10.309,0.807c-11.523,1.669-19.249,5.109-18.976,7.153c0.033,0.243,0.203,0.482,0.508,0.713       c1.992,1.504,9.368,2.251,19.611,0.767c11.523-1.669,19.25-5.109,18.976-7.153c-0.033-0.243-0.204-0.483-0.508-0.713       C121.791,44.761,118.49,44.12,113.721,44.12z"/>
				</g>
			</g>
			<g>
				<path style="fill:#FFB2B0;" d="M99.749,228.555c-0.032-14.036,10.357-26.316,24.779-28.368      c14.422-2.052,27.876,6.836,31.829,20.314l14.865-2.115l9.834,67.899l-86.339,12.283l-9.834-67.899L99.749,228.555z"/>
				<path d="M94.294,299.134l-9.977-68.89l14.935-2.124c0.184-14.22,10.947-26.4,25.206-28.429      c14.257-2.025,28.043,6.658,32.254,20.254l14.935-2.125l9.977,68.89l-0.497,0.07L94.294,299.134z M85.451,231.094l9.69,66.909      l85.349-12.142l-9.69-66.909l-14.8,2.105l-0.122-0.415c-3.917-13.358-17.359-21.935-31.279-19.96      c-13.913,1.979-24.38,13.962-24.349,27.872l0.001,0.435L85.451,231.094z"/>
			</g>
			<g>
				<polygon style="fill:#FFB2B0;" points="90.984,96.645 128.505,91.307 125.421,69.595 88.1,74.905 90.935,96.255     "/>
				<path d="M90.55,97.211l-0.112-0.894l-2.9-21.838l38.307-5.45l3.225,22.702L90.55,97.211z M88.661,75.329l2.755,20.749      l36.524-5.196l-2.943-20.722L88.661,75.329z"/>
			</g>
		</g>
		<g>
			<g>
				<path style="fill:#004421;" d="M309.694,272.937c0.176,12.789,0.219,24.276,0.229,33.226      c0.007,9.774-7.161,17.937-16.725,18.988c-21.672,2.41-58.308,4.023-78.285,3.378c-7.392-0.253-13.32-6.417-13.453-13.915      c0,0-0.402-17.257-0.856-40.293c-0.411-21.739-0.875-48.641-1.075-71.003c-0.182-19.609-0.133-35.738,0.29-41.852      c1.715-24.429,16.139-29.486,32.086-26.889l-1.428-39.034l-0.388-10.392l-0.446-12.342l-0.798-21.912l-0.457-12.438      l-0.324-8.732l-0.013-0.163l37.49-1.412l0.373,8.181l0.328,7.084l0.285,6.232l0.979,21.512l0.021,0.393l2.756,60.453      c0,0,27.847-4.684,33.484,19.709c2.847,12.27,1.744,28.419,3.101,47.581C308.595,223.405,309.364,250.238,309.694,272.937z"/>
				<path d="M224.9,329.171c-3.646,0-7.016-0.046-10.004-0.142c-7.677-0.263-13.798-6.591-13.937-14.407      c-0.004-0.17-0.407-17.518-0.856-40.291c-0.563-29.846-0.915-53.073-1.074-71.009c-0.141-15.166-0.204-34.744,0.29-41.891      c0.758-10.799,4.063-18.586,9.824-23.146c5.391-4.269,12.868-5.713,22.239-4.296l-3.872-104.906l38.507-1.449l4.74,103.805      c4.002-0.488,28.266-2.474,33.497,20.166c1.803,7.768,2.029,16.98,2.292,27.646c0.156,6.35,0.317,12.915,0.82,20.011      c1.462,20.415,2.413,45.201,2.827,73.668l0,0c0.188,13.622,0.22,25.49,0.229,33.231c0.007,10.032-7.374,18.41-17.17,19.487      C274.62,327.72,245.41,329.171,224.9,329.171z M224.768,134.463c-6.103,0-11.13,1.54-15.003,4.607      c-5.531,4.378-8.71,11.926-9.447,22.432c-0.492,7.113-0.428,26.664-0.288,41.812c0.16,17.934,0.511,41.157,1.074,70.999      c0.449,22.771,0.853,40.117,0.856,40.29c0.129,7.286,5.826,13.184,12.97,13.428c19.759,0.641,56.307-0.938,78.213-3.375      c9.288-1.021,16.287-8.971,16.28-18.492c-0.009-7.738-0.041-19.603-0.229-33.219l0,0c-0.414-28.447-1.364-53.214-2.825-73.61      c-0.504-7.119-0.665-13.696-0.822-20.058c-0.261-10.611-0.486-19.776-2.267-27.445c-2.292-9.918-8.512-16.186-18.487-18.63      c-7.48-1.832-14.358-0.711-14.427-0.699l-0.557,0.094l-4.745-103.924l-36.488,1.373l3.85,105.125l-0.603-0.099      C229.334,134.665,226.98,134.463,224.768,134.463z"/>
			</g>
			<g>
				<path d="M240.474,321.343c-13.112,0-26.783-0.728-26.923-3.36c-0.015-0.283,0.094-0.556,0.323-0.808      c2.449-2.686,22.58-4.837,41.2-5.573c14.445-0.571,41.815-0.664,42.012,3.066c0.016,0.283-0.094,0.556-0.323,0.808      c-2.448,2.685-22.579,4.837-41.2,5.573C251.313,321.217,245.941,321.343,240.474,321.343z M214.552,317.93      c0.591,1.509,15.47,3.127,40.971,2.119c25.491-1.008,40.166-3.797,40.566-5.34c-0.521-1.489-15.411-3.12-40.976-2.107      C229.686,313.606,215.021,316.384,214.552,317.93z"/>
			</g>
			<g>
				<g>
					<g>
						<path style="fill:#FFFFFF;" d="M288.537,141.627c-0.093-0.018-0.185-0.033-0.278-0.046c-2.47-0.35-5.5,1.333-5.099,4.182        c0.378,2.679,3.316,3.482,5.009,5.123c2.563,2.484,2.602,6.926,3.1,10.242c0.434,2.89,1.533,6.952,5.41,6.458        c4.826-0.615,3.069-6.677,2.469-9.949c-0.74-4.036-1.833-8.288-4.343-11.623C293.345,144.072,290.981,142.091,288.537,141.627        z"/>
						<path style="fill:#FFFFFF;" d="M296.038,168.127c-2.804,0-4.573-2.325-5.263-6.926c-0.089-0.591-0.163-1.218-0.24-1.862        c-0.343-2.894-0.732-6.174-2.714-8.094c-0.505-0.489-1.132-0.902-1.796-1.339c-1.44-0.948-3.071-2.023-3.36-4.075        c-0.174-1.23,0.221-2.398,1.109-3.284c1.121-1.121,2.904-1.691,4.555-1.461c0.099,0.014,0.2,0.03,0.301,0.05l0,0        c2.693,0.511,5.162,2.699,6.575,4.577c2.639,3.506,3.723,7.948,4.436,11.833c0.058,0.317,0.127,0.662,0.2,1.026        c0.504,2.507,1.194,5.94-0.254,7.957c-0.624,0.869-1.581,1.391-2.844,1.552C296.501,168.111,296.266,168.127,296.038,168.127z         M287.601,142.035c-1.159,0-2.357,0.457-3.12,1.219c-0.467,0.467-0.99,1.27-0.825,2.439c0.226,1.604,1.534,2.466,2.92,3.378        c0.674,0.443,1.37,0.902,1.941,1.456c2.237,2.168,2.648,5.636,3.012,8.694c0.075,0.635,0.148,1.251,0.235,1.832        c0.669,4.454,2.202,6.376,4.853,6.036c0.991-0.126,1.697-0.5,2.159-1.144c1.194-1.662,0.553-4.85,0.085-7.176        c-0.074-0.37-0.145-0.721-0.204-1.044c-0.69-3.769-1.736-8.072-4.25-11.411c-1.301-1.729-3.55-3.738-5.962-4.196        c-0.085-0.016-0.169-0.03-0.253-0.042C287.997,142.049,287.8,142.035,287.601,142.035z"/>
					</g>
				</g>
				<g>
					<path style="fill:#FFFFFF;" d="M210.254,281.217c-2.231,0.499-3.56,2.49-3.237,4.783c0.102,0.729,0.189,1.459,0.257,2.191       c0.03,0.325,0.058,0.649,0.082,0.974c0.01,0.135,0.019,0.271,0.028,0.406c0.067,1.42,0.115,2.841,0.152,4.262       c0.082,3.151,0.173,6.314,0.582,9.447c0.281,2.151,2.705,3.818,4.762,3.357c2.25-0.503,3.536-2.487,3.236-4.783       c-0.095-0.727-0.174-1.456-0.236-2.186c-0.027-0.324-0.052-0.648-0.074-0.972c-0.001-0.011-0.002-0.034-0.004-0.063       c-0.005-0.084-0.01-0.174-0.012-0.219c-0.072-1.46-0.106-2.921-0.145-4.382c-0.084-3.155-0.188-6.324-0.63-9.457       C214.713,282.426,212.326,280.753,210.254,281.217z"/>
					<path style="fill:#FFFFFF;" d="M212.168,307.214c-0.889,0-1.811-0.3-2.623-0.868c-1.071-0.749-1.771-1.843-1.922-3.002       c-0.423-3.244-0.509-6.567-0.586-9.499c-0.037-1.417-0.084-2.833-0.151-4.251l-0.027-0.392       c-0.024-0.322-0.051-0.645-0.081-0.965c-0.067-0.726-0.153-1.448-0.254-2.169c-0.359-2.545,1.164-4.791,3.623-5.34       c1.112-0.246,2.355,0.027,3.409,0.756c1.079,0.746,1.792,1.847,1.958,3.021c0.436,3.089,0.545,6.136,0.635,9.513l0.012,0.454       c0.034,1.306,0.068,2.611,0.133,3.917l0.011,0.214c0.025,0.381,0.05,0.702,0.077,1.022c0.061,0.723,0.14,1.445,0.233,2.164       c0.338,2.589-1.152,4.783-3.623,5.336C212.722,307.185,212.446,307.214,212.168,307.214z M210.971,281.639       c-0.207,0-0.411,0.022-0.608,0.066h0c-1.967,0.439-3.139,2.176-2.85,4.224c0.103,0.737,0.191,1.476,0.26,2.216       c0.03,0.327,0.058,0.655,0.082,0.983l0.029,0.409c0.067,1.435,0.115,2.858,0.153,4.282c0.076,2.908,0.161,6.203,0.577,9.396       c0.115,0.881,0.664,1.723,1.504,2.311c0.824,0.576,1.816,0.812,2.654,0.622c1.977-0.441,3.122-2.142,2.85-4.23       c-0.096-0.734-0.176-1.471-0.238-2.209c-0.028-0.326-0.053-0.653-0.075-0.979l-0.016-0.295       c-0.065-1.31-0.099-2.623-0.133-3.938l-0.012-0.452c-0.088-3.347-0.197-6.363-0.625-9.4c-0.127-0.897-0.687-1.75-1.536-2.338       C212.354,281.87,211.646,281.639,210.971,281.639z"/>
				</g>
			</g>
			<g>
				<g>
					<path style="fill:#00C257;" d="M226.174,27.671c-1.565,3.194-2.097,8.024,0.377,10.056c2.24,1.84,5.713-0.046,7.541-2.12       c0.381,2.19,2.188,4.789,4.338,4.723c1.868-0.057,4.327-1.225,5.069-4.555c1.148,2.119,2.751,4.082,5.281,3.926       c1.973-0.121,3.779-2.004,4.202-4.005c1.635,2.604,3.308,3.463,5.608,3.315c1.499-0.097,3.86-1.367,4.605-4.746       c1.95,3.3,5.588,2.611,5.774-1.51c0.103-2.289-1.12-4.854-2.431-6.587L226.174,27.671z"/>
					<path d="M238.352,40.831c-2.035,0-3.831-2.038-4.53-4.234c-2.025,1.883-5.32,3.38-7.588,1.517       c-2.559-2.103-2.268-7.072-0.508-10.662l0.131-0.269l0.299-0.012l40.624-1.512l0.157,0.208c1.297,1.714,2.643,4.43,2.531,6.911       c-0.094,2.091-1.079,3.62-2.57,3.992c-1.229,0.308-2.51-0.211-3.506-1.369c-1.067,3.04-3.431,4.021-4.771,4.108       c-2.281,0.142-3.965-0.663-5.475-2.686c-0.789,1.854-2.536,3.266-4.336,3.376c-2.613,0.149-4.277-1.79-5.167-3.181       c-1.057,2.704-3.373,3.755-5.199,3.811C238.414,40.831,238.382,40.831,238.352,40.831z M234.405,34.494l0.179,1.026       c0.358,2.058,1.985,4.311,3.766,4.311c0.021,0,0.043,0,0.064-0.001c1.786-0.054,3.931-1.176,4.597-4.163l0.291-1.306       l0.637,1.176c1.417,2.615,2.951,3.77,4.811,3.665c1.665-0.103,3.344-1.722,3.743-3.609l0.256-1.209l0.657,1.047       c1.483,2.362,2.937,3.22,5.152,3.081c1.119-0.072,3.426-1.075,4.149-4.354l0.273-1.239l0.646,1.092       c0.808,1.368,1.97,2.054,3.03,1.79c1.062-0.265,1.739-1.411,1.814-3.067c0.095-2.12-1.035-4.476-2.177-6.055l-39.797,1.48       c-1.444,3.152-1.715,7.466,0.372,9.181c2.011,1.653,5.215-0.212,6.848-2.064L234.405,34.494z"/>
				</g>
				<g>
					<path style="fill:#00C257;" d="M226.11,27.759c0.119,2.678,9.281,4.571,20.463,4.229c11.182-0.342,20.15-2.79,20.03-5.468       c-0.12-2.678-9.281-4.572-20.463-4.23C234.958,22.633,225.99,25.081,226.11,27.759z"/>
					<path d="M244.076,32.527c-9.256,0-18.323-1.563-18.465-4.745c-0.023-0.523,0.192-1.031,0.639-1.514       c2.174-2.344,10.348-4.186,19.876-4.477c10.057-0.307,20.823,1.238,20.977,4.707c0.023,0.521-0.191,1.031-0.639,1.514       c-2.174,2.344-10.347,4.186-19.875,4.477C245.754,32.514,244.914,32.527,244.076,32.527z M248.781,22.75       c-0.854,0-1.729,0.014-2.626,0.041c-10.349,0.316-17.479,2.33-19.173,4.157c-0.258,0.278-0.384,0.544-0.373,0.788       c0.092,2.062,8.309,4.108,19.948,3.752c10.35-0.316,17.478-2.331,19.173-4.157c0.258-0.278,0.384-0.544,0.373-0.788       C266.019,24.642,259.012,22.75,248.781,22.75z"/>
				</g>
			</g>
			<g>
				<path style="fill:#FFB2B0;" d="M282.194,202.948c-2.448-13.825-14.845-24.113-29.406-23.631      c-14.561,0.482-26.238,11.567-27.75,25.523l-15.01,0.497l2.31,68.557l87.176-2.885l-2.31-68.557L282.194,202.948z"/>
				<path d="M211.856,274.41l-2.344-69.557l15.079-0.499c1.747-14.115,13.785-25.061,28.181-25.537      c14.388-0.465,27.144,9.649,29.836,23.617l15.079-0.5l0.018,0.5l2.326,69.058L211.856,274.41z M210.545,205.82l2.276,67.557      l86.176-2.852l-2.275-67.558l-14.944,0.494l-0.075-0.427c-2.427-13.701-14.844-23.685-28.897-23.218      c-14.048,0.464-25.772,11.245-27.27,25.076l-0.047,0.432L210.545,205.82z"/>
			</g>
			<g>
				<polygon style="fill:#FFB2B0;" points="267.528,71.554 229.643,72.808 228.845,50.897 266.528,49.649 267.507,71.162     "/>
				<path d="M229.162,73.325l-0.835-22.912l38.677-1.279l1.049,22.903l-0.509,0.018L229.162,73.325z M229.363,51.38l0.761,20.912      l36.877-1.22l-0.951-20.907L229.363,51.38z"/>
			</g>
		</g>
		<g>
			<g>
				<path style="fill:#004421;" d="M315.978,286.131c-0.497,12.781-0.828,24.263-1.062,33.21      c-0.252,9.771,6.708,18.108,16.243,19.395c21.604,2.943,58.189,5.459,78.177,5.307c7.396-0.07,13.477-6.086,13.798-13.579      c0,0,0.835-17.241,1.867-40.259c0.956-21.722,2.095-48.605,2.856-70.955c0.674-19.599,1.03-35.723,0.761-41.846      c-1.102-24.464-15.394-29.874-31.401-27.671l2.407-38.987l0.648-10.379l0.755-12.327l1.348-21.885l0.769-12.423l0.543-8.721      l0.017-0.163l-37.443-2.335l-0.578,8.169l-0.506,7.074l-0.441,6.223l-1.519,21.481l-0.03,0.392l-4.272,60.367      c0,0-27.721-5.369-33.968,18.878c-3.154,12.196-2.456,28.367-4.294,47.489C318.321,236.642,316.878,263.448,315.978,286.131z"/>
				<path d="M407.575,344.55c-20.152,0-55.242-2.424-76.483-5.318c-9.766-1.318-16.936-9.874-16.676-19.902      c0.204-7.787,0.536-19.703,1.062-33.218l0,0c1.128-28.446,2.701-53.2,4.674-73.574c0.681-7.084,1.008-13.645,1.323-19.991      c0.53-10.654,0.988-19.855,2.984-27.576c5.8-22.502,30.008-19.917,33.993-19.333l7.343-103.656l38.461,2.399l-0.074,0.683      l-6.431,104.095c9.406-1.184,16.843,0.443,22.126,4.843c5.644,4.701,8.752,12.567,9.238,23.381      c0.315,7.164-0.239,26.732-0.76,41.887c-0.614,18.045-1.549,41.256-2.855,70.959c-1.021,22.756-1.859,40.089-1.868,40.262      c-0.334,7.807-6.612,13.981-14.292,14.055C408.767,344.547,408.177,344.55,407.575,344.55z M316.479,286.151L316.479,286.151      c-0.526,13.51-0.858,25.42-1.062,33.204c-0.246,9.518,6.551,17.637,15.81,18.887c21.84,2.975,58.363,5.477,78.106,5.302      c7.146-0.068,12.99-5.822,13.302-13.101c0.009-0.175,0.848-17.507,1.868-40.261c1.307-29.699,2.24-52.906,2.854-70.948      c0.521-15.137,1.075-34.677,0.762-41.808c-0.475-10.521-3.462-18.144-8.881-22.657c-5.17-4.307-12.554-5.834-21.953-4.541      l-0.605,0.083l6.487-104.996l-36.442-2.273l-7.352,103.774l-0.554-0.106c-0.069-0.015-6.943-1.304-14.47,0.35      c-10.017,2.203-16.383,8.314-18.92,18.161c-1.971,7.622-2.427,16.776-2.954,27.376c-0.316,6.357-0.644,12.931-1.326,20.037      C319.177,232.988,317.606,257.724,316.479,286.151L316.479,286.151z"/>
			</g>
			<g>
				<path d="M391.34,336.325c-7.766,0-16.29-0.367-22.454-0.763c-18.597-1.194-38.667-3.841-41.047-6.587      c-0.224-0.258-0.325-0.532-0.303-0.815c0.291-3.724,27.651-2.955,42.075-2.029c18.597,1.195,38.667,3.842,41.047,6.588      c0.224,0.257,0.325,0.531,0.303,0.814C410.794,335.666,401.748,336.325,391.34,336.325z M347.666,326.358      c-12.015,0-18.764,0.893-19.136,1.892c0.362,1.53,14.963,4.681,40.42,6.315c25.47,1.633,40.385,0.386,41.012-1.108      c-0.433-1.557-15.024-4.695-40.415-6.327C361.027,326.582,353.685,326.358,347.666,326.358z"/>
			</g>
			<g>
				<g>
					<g>
						<path style="fill:#FFFFFF;" d="M340.424,155.384c0.093-0.015,0.186-0.028,0.279-0.039c2.479-0.289,5.465,1.468,4.993,4.306        c-0.445,2.669-3.402,3.4-5.136,4.998c-2.624,2.42-2.775,6.86-3.356,10.162c-0.506,2.879-1.707,6.912-5.571,6.323        c-4.809-0.734-2.9-6.75-2.218-10.007c0.841-4.017,2.041-8.24,4.633-11.512C335.557,157.71,337.97,155.788,340.424,155.384z"/>
					</g>
				</g>
				<g>
					<path style="fill:#FFFFFF;" d="M415.18,296.86c2.218,0.554,3.497,2.577,3.116,4.861c-0.121,0.726-0.226,1.454-0.312,2.184       c-0.038,0.324-0.074,0.648-0.106,0.972c-0.014,0.135-0.026,0.27-0.038,0.406c-0.103,1.418-0.186,2.837-0.259,4.257       c-0.161,3.148-0.332,6.308-0.819,9.43c-0.335,2.144-2.8,3.75-4.845,3.239c-2.236-0.559-3.472-2.573-3.115-4.861       c0.113-0.725,0.211-1.451,0.291-2.18c0.035-0.323,0.068-0.646,0.098-0.97c0.001-0.011,0.003-0.034,0.005-0.063       c0.007-0.084,0.014-0.174,0.017-0.219c0.109-1.458,0.18-2.918,0.255-4.377c0.163-3.152,0.347-6.318,0.867-9.439       C410.692,297.959,413.12,296.345,415.18,296.86z"/>
					<path style="fill:#FFFFFF;" d="M412.712,322.804c-0.311,0-0.619-0.036-0.917-0.11c-2.456-0.613-3.89-2.844-3.488-5.424       c0.112-0.717,0.209-1.436,0.288-2.158c0.035-0.319,0.067-0.64,0.098-0.962l0.022-0.267c0.098-1.319,0.165-2.635,0.233-3.949       l0.021-0.421c0.175-3.378,0.36-6.424,0.873-9.495c0.194-1.169,0.935-2.253,2.034-2.973c1.07-0.702,2.318-0.945,3.425-0.67       c2.444,0.61,3.911,2.894,3.487,5.428c-0.119,0.719-0.223,1.439-0.309,2.161c-0.037,0.32-0.073,0.642-0.105,0.963l-0.037,0.402       c-0.102,1.404-0.185,2.819-0.258,4.235c-0.149,2.933-0.32,6.256-0.823,9.481c-0.181,1.155-0.909,2.232-1.999,2.954       C414.462,322.528,413.57,322.804,412.712,322.804z M414.378,297.264c-0.651,0-1.336,0.213-1.954,0.618       c-0.865,0.566-1.446,1.405-1.596,2.3c-0.504,3.021-0.688,6.036-0.861,9.382l-0.022,0.421c-0.067,1.322-0.136,2.647-0.233,3.968       l-0.018,0.228c-0.035,0.39-0.069,0.716-0.104,1.041c-0.081,0.737-0.18,1.471-0.294,2.203c-0.324,2.081,0.777,3.809,2.742,4.299       c0.833,0.211,1.83,0,2.668-0.557c0.855-0.567,1.426-1.397,1.562-2.274c0.495-3.174,0.664-6.47,0.813-9.378       c0.073-1.424,0.156-2.845,0.259-4.268l0.039-0.416c0.033-0.33,0.069-0.657,0.108-0.983c0.086-0.738,0.193-1.474,0.315-2.208       c0.341-2.04-0.787-3.805-2.743-4.293l0,0C414.839,297.29,414.61,297.264,414.378,297.264z"/>
				</g>
			</g>
			<g>
				<g>
					<path style="fill:#00C257;" d="M405.627,43c1.485,3.231,1.895,8.073-0.629,10.044c-2.285,1.784-5.71-0.187-7.485-2.305       c-0.436,2.18-2.308,4.734-4.455,4.615c-1.866-0.103-4.295-1.332-4.954-4.678c-1.2,2.09-2.853,4.013-5.378,3.795       c-1.969-0.17-3.727-2.096-4.1-4.107c-1.699,2.563-3.394,3.38-5.689,3.175c-1.496-0.134-3.824-1.462-4.485-4.858       c-2.032,3.251-5.652,2.473-5.734-1.651c-0.046-2.291,1.241-4.825,2.595-6.525L405.627,43z"/>
					<path d="M393.198,55.858c-0.056,0-0.112-0.002-0.168-0.005c-1.823-0.1-4.113-1.208-5.102-3.938       c-0.925,1.369-2.627,3.283-5.245,3.053c-1.797-0.155-3.509-1.608-4.25-3.482c-1.561,1.984-3.25,2.761-5.541,2.55       c-1.336-0.119-3.675-1.16-4.665-4.225c-1.025,1.134-2.318,1.623-3.541,1.282c-1.48-0.409-2.426-1.962-2.468-4.054       c-0.05-2.482,1.364-5.164,2.703-6.847l0.163-0.203l0.26,0.016l40.611,2.515l0.125,0.271c1.669,3.633,1.835,8.608-0.775,10.647       c-2.316,1.805-5.572,0.227-7.548-1.703C397.013,53.887,395.202,55.858,393.198,55.858z M388.337,49.266l0.258,1.312       c0.591,3.003,2.707,4.178,4.49,4.276c1.802,0.088,3.523-2.141,3.938-4.214l0.204-1.022l0.669,0.799       c1.586,1.892,4.739,3.839,6.795,2.232c2.13-1.663,1.967-5.982,0.603-9.169l-39.747-2.461c-1.182,1.551-2.37,3.879-2.327,6       c0.033,1.656,0.682,2.818,1.734,3.109c1.058,0.296,2.233-0.366,3.076-1.714l0.673-1.076l0.242,1.245       c0.641,3.297,2.921,4.356,4.038,4.456c2.216,0.195,3.686-0.63,5.228-2.954l0.684-1.03l0.225,1.216       c0.352,1.896,1.989,3.557,3.651,3.7c1.878,0.156,3.421-0.966,4.901-3.546L388.337,49.266z"/>
				</g>
				<g>
					<path style="fill:#00C257;" d="M405.689,43.09c-0.187,2.674-9.393,4.341-20.562,3.724c-11.17-0.617-20.073-3.286-19.887-5.96       c0.187-2.674,9.393-4.342,20.563-3.724C396.972,37.748,405.876,40.416,405.689,43.09z"/>
					<path d="M389.606,47.439c-1.494,0-3.008-0.042-4.506-0.125c-9.52-0.526-17.644-2.568-19.758-4.966       c-0.435-0.493-0.637-1.007-0.601-1.528c0.242-3.464,11.047-4.744,21.089-4.189c9.518,0.526,17.643,2.568,19.758,4.966       c0.435,0.492,0.637,1.007,0.601,1.528C405.983,46.072,398.129,47.439,389.606,47.439z M381.171,37.499       c-9.148,0-15.309,1.616-15.432,3.391c-0.018,0.244,0.102,0.512,0.353,0.797c1.646,1.867,8.724,4.057,19.062,4.629       c11.629,0.636,19.893-1.203,20.036-3.261c0.018-0.244-0.101-0.512-0.352-0.797c-1.648-1.867-8.725-4.057-19.062-4.629       C384.173,37.541,382.633,37.499,381.171,37.499z"/>
				</g>
			</g>
			<g>
				<path style="fill:#FFB2B0;" d="M345.226,216.843c2.794-13.76,15.446-23.74,29.99-22.899c14.545,0.841,25.94,12.21,27.101,26.199      l14.993,0.867l-4.03,68.479l-87.076-5.034l4.03-68.479L345.226,216.843z"/>
				<path d="M413.75,290.017l-0.499-0.029l-87.575-5.061l4.088-69.479l15.062,0.871c3.042-13.895,16.018-23.719,30.42-22.874      c14.38,0.831,26.14,12.069,27.531,26.224l15.061,0.87L413.75,290.017z M326.733,283.985l86.078,4.976l3.971-67.481      l-14.926-0.863l-0.036-0.433c-1.151-13.863-12.601-24.93-26.633-25.741c-14.041-0.809-26.702,8.862-29.471,22.5l-0.087,0.425      l-14.926-0.863L326.733,283.985z"/>
			</g>
			<g>
				<polygon style="fill:#FFB2B0;" points="363.185,85.851 401.027,88.038 402.374,66.153 364.735,63.977 363.216,85.459     "/>
				<path d="M401.495,88.567l-38.85-2.246l0.072-0.901l1.553-21.969l38.634,2.233L401.495,88.567z M363.723,85.381l36.835,2.129      l1.286-20.887l-36.646-2.118L363.723,85.381z"/>
			</g>
		</g>
	</g>
	<g>
		<path style="fill:#AD2328;" d="M66.233,218.958l5.786,193.234l368.366-10.835l-5.786-193.234l-84.87,2.496l0.126,9.307    l-193.451,5.728l-0.145-9.344L66.233,218.958z M187.003,266.343l8.366-25.162c15.569-3.406,35.017-6.44,57.503-7.222    c24.011-0.835,44.822,1.129,61.288,3.728c3.556,8.157,7.112,16.314,10.668,24.471c1.314,3.013-0.854,6.39-4.164,6.487    l-129.069,3.796C188.344,272.537,185.985,269.404,187.003,266.343z"/>
		<path d="M71.534,412.706l-0.015-0.5l-5.8-193.734l91.033-2.677l0.145,9.345l192.452-5.699l-0.126-9.307l85.861-2.526l0.016,0.5    l5.801,193.734L71.534,412.706z M66.748,219.443l5.756,192.234l367.367-10.806l-5.756-192.234l-83.879,2.468l0.126,9.307    l-194.45,5.758l-0.145-9.345L66.748,219.443z M191.456,272.944c-1.644,0-3.196-0.774-4.176-2.092    c-1.011-1.36-1.285-3.062-0.751-4.667l8.456-25.432l0.278-0.061c18.863-4.127,38.241-6.561,57.593-7.233    c20.51-0.711,41.163,0.542,61.384,3.733l0.271,0.043l10.777,24.722c0.68,1.559,0.541,3.347-0.37,4.782    c-0.922,1.455-2.507,2.353-4.238,2.405l-129.069,3.797C191.558,272.943,191.507,272.944,191.456,272.944z M195.754,241.609    l-8.276,24.893c-0.43,1.291-0.209,2.659,0.605,3.753c0.828,1.114,2.118,1.747,3.497,1.688l129.069-3.797    c1.399-0.041,2.679-0.767,3.423-1.94c0.744-1.173,0.853-2.575,0.299-3.847l-10.559-24.22c-20.073-3.149-40.572-4.39-60.922-3.679    C233.693,235.126,214.47,237.531,195.754,241.609z"/>
	</g>
	<g>
		<g>
			<g>
				<path d="M319.601,353.677c0,0.005-0.005,0.011-0.004,0.016c-0.58,2.861-1.767,5.806-3.312,8.662      c-3.834,7.109-9.839,13.674-14.073,17.147c-0.05,0.051-0.097,0.074-0.141,0.125c-1.207,0.987-2.45,1.918-3.722,2.798      c-15.532,10.793-35.549,13.925-54.045,9.952c-5.67-1.214-11.795-3.229-17.564-6.053c-1.483-0.723-2.944-1.506-4.37-2.338      c-6.544-3.801-12.301-8.743-15.936-14.876c-2.16-3.645-3.567-7.711-3.946-12.203c-0.042-0.51-0.069-1.031-0.085-1.553      c-0.319-11.884,8.666-15.667,19.257-16.221l0.218-0.013c9.293-0.432,19.803,1.581,26.28,2.835      c2.119,0.394,4.239,0.736,6.364,0.966c0.692,0.079,1.389,0.143,2.08,0.201c2.35,0.18,4.702,0.211,7.068,0.03      c0.525-0.037,1.05-0.085,1.579-0.148c0.566-0.061,1.132-0.138,1.691-0.23c8.59-1.367,16.357-5.635,24.904-7.005      c1.799-0.294,3.843-0.497,6.018-0.487c6.257-0.063,13.399,1.172,17.635,4.781C319.748,343.729,320.64,348.581,319.601,353.677z"/>
				<path d="M259.969,394.552c-5.221,0-10.512-0.556-15.771-1.686c-6.084-1.303-12.197-3.41-17.679-6.093      c-1.469-0.716-2.951-1.508-4.402-2.355c-7.277-4.228-12.699-9.292-16.114-15.054c-2.295-3.873-3.645-8.051-4.014-12.415      c-0.044-0.518-0.071-1.049-0.087-1.58c-0.279-10.406,6.359-16.036,19.73-16.735l0.214-0.013      c9.448-0.437,20.061,1.615,26.404,2.843c2.401,0.447,4.411,0.753,6.322,0.96c0.69,0.079,1.382,0.142,2.068,0.2      c2.482,0.189,4.768,0.199,6.987,0.029c0.52-0.036,1.036-0.083,1.558-0.146c0.563-0.061,1.119-0.137,1.67-0.227      c4.266-0.679,8.409-2.109,12.418-3.492c4.023-1.388,8.183-2.823,12.488-3.514c2.058-0.336,4.102-0.5,6.099-0.493      c3.639-0.031,12.638,0.369,17.957,4.9c4.014,3.458,5.456,8.169,4.292,14.003l0.008,0.047l-0.055,0.14l-0.002-0.001      c-0.577,2.786-1.695,5.688-3.336,8.722c-4.033,7.479-10.168,13.992-14.195,17.296l-0.428-0.293l0.334,0.373      c-1.232,1.014-2.496,1.963-3.804,2.867C287.568,390.526,274.023,394.552,259.969,394.552z M224.54,339.561      c-0.888,0-1.77,0.018-2.641,0.059l-0.212,0.013c-12.907,0.675-19.051,5.813-18.786,15.708c0.016,0.512,0.042,1.024,0.084,1.525      c0.355,4.213,1.66,8.247,3.878,11.989c3.327,5.612,8.628,10.559,15.756,14.699c1.432,0.835,2.891,1.616,4.338,2.321      c5.411,2.648,11.444,4.728,17.45,6.013c19.149,4.114,38.706,0.516,53.656-9.873c1.286-0.89,2.528-1.823,3.691-2.775l0.079-0.071      c4.332-3.557,10.301-10.17,14.012-17.051c1.628-3.012,2.726-5.88,3.262-8.524l0.004-0.017c1.121-5.495-0.206-9.915-3.943-13.135      c-5.061-4.312-13.804-4.706-17.304-4.66c-1.902,0.016-3.936,0.153-5.941,0.481c-4.222,0.677-8.34,2.098-12.322,3.472      c-4.049,1.397-8.235,2.842-12.585,3.534c-0.565,0.093-1.14,0.17-1.716,0.232c-0.531,0.064-1.064,0.112-1.598,0.15      c-2.267,0.175-4.604,0.163-7.141-0.03c-0.7-0.06-1.401-0.124-2.098-0.203c-1.934-0.21-3.968-0.519-6.398-0.972      C242.351,341.341,233.153,339.561,224.54,339.561z"/>
			</g>
			<g>
				<path style="fill:#FF8806;" d="M298.348,382.425c-15.532,10.793-35.549,13.925-54.045,9.952      c-5.67-1.214-11.795-3.229-17.564-6.053c7.982-8.797,20.513-14.855,34.888-15.665      C276.148,369.825,289.394,374.466,298.348,382.425z"/>
				<path d="M259.969,394.552c-5.221,0-10.512-0.556-15.771-1.686c-6.084-1.303-12.197-3.41-17.679-6.093l-0.598-0.293l0.447-0.492      c8.413-9.272,21.253-15.041,35.229-15.828c14.153-0.809,27.666,3.521,37.082,11.891l0.475,0.422l-0.522,0.362      C287.568,390.525,274.022,394.552,259.969,394.552z M227.563,386.168c5.252,2.509,11.061,4.482,16.844,5.72      c18.924,4.066,38.246,0.6,53.127-9.511c-9.195-7.919-22.221-12.001-35.88-11.219      C248.188,371.917,235.806,377.377,227.563,386.168z"/>
			</g>
			<g>
				<path style="fill:#FFFFFF;" d="M256.599,343.122l0.691,11.711c0.294,4.993-3.423,9.334-8.442,9.858l-42.261,4.409      c-2.234-3.641-3.689-7.703-4.074-12.195c-0.042-0.51-0.069-1.031-0.08-1.553c-0.299-11.643,8.653-15.529,19.357-16.227      l0.085-0.005c9.293-0.432,19.803,1.581,26.28,2.835c2.119,0.394,4.239,0.736,6.364,0.966      C255.211,343,255.908,343.064,256.599,343.122z"/>
				<path d="M206.326,369.631l-0.165-0.269c-2.377-3.875-3.772-8.052-4.145-12.414c-0.043-0.521-0.07-1.054-0.082-1.585      c-0.262-10.231,6.408-15.863,19.825-16.737c9.536-0.441,20.15,1.609,26.493,2.838c2.401,0.447,4.411,0.753,6.322,0.96      c0.69,0.079,1.382,0.142,2.068,0.2l0.432,0.036l0.716,12.143c0.311,5.272-3.593,9.833-8.889,10.385L206.326,369.631z       M224.54,339.561c-0.888,0-1.77,0.018-2.641,0.059c-13.036,0.849-19.215,5.989-18.966,15.721      c0.011,0.514,0.037,1.024,0.079,1.524c0.351,4.103,1.642,8.041,3.838,11.706l41.945-4.376c4.763-0.497,8.274-4.596,7.995-9.332      l-0.665-11.279c-0.554-0.049-1.109-0.103-1.663-0.165c-1.934-0.21-3.968-0.519-6.398-0.972      C242.351,341.341,233.153,339.561,224.54,339.561z"/>
			</g>
			<g>
				<path style="fill:#FFFFFF;" d="M319.601,353.677c0,0.005-0.005,0.011-0.004,0.016c-0.58,2.861-1.767,5.806-3.312,8.662      l-42.708,0.804c-4.811,0.091-8.843-3.586-9.153-8.345l-0.758-11.662c0.525-0.037,1.05-0.085,1.579-0.148      c0.566-0.061,1.132-0.138,1.691-0.23c8.59-1.367,16.357-5.635,24.904-7.005c1.799-0.294,3.843-0.497,6.018-0.487      c6.257-0.063,13.399,1.172,17.635,4.781C319.748,343.729,320.64,348.581,319.601,353.677z"/>
				<path d="M273.402,363.661c-5.008,0-9.152-3.838-9.477-8.815l-0.79-12.157l0.496-0.035c0.517-0.036,1.033-0.083,1.555-0.146      c0.563-0.061,1.119-0.137,1.67-0.227c4.266-0.679,8.41-2.109,12.418-3.492c4.023-1.388,8.183-2.823,12.488-3.514      c2.058-0.336,4.102-0.5,6.099-0.493c3.618-0.03,12.637,0.368,17.957,4.9c4.014,3.458,5.456,8.168,4.292,14.003l0.008,0.047      l-0.055,0.14l-0.002-0.001c-0.577,2.786-1.695,5.688-3.336,8.722l-0.139,0.257l-0.291,0.006l-42.708,0.804      C273.525,363.66,273.463,363.661,273.402,363.661z M264.197,343.612l0.725,11.169c0.293,4.503,4.096,7.918,8.645,7.878      l42.416-0.798c1.552-2.918,2.602-5.698,3.123-8.267l0.004-0.017c1.121-5.495-0.206-9.915-3.943-13.135      c-5.061-4.311-13.79-4.688-17.304-4.66c-1.945-0.008-3.936,0.152-5.941,0.481c-4.222,0.677-8.34,2.098-12.322,3.472      c-4.049,1.397-8.235,2.842-12.585,3.534c-0.565,0.093-1.14,0.17-1.716,0.232C264.932,343.545,264.565,343.582,264.197,343.612z"/>
			</g>
		</g>
		<g>
			<path style="fill:#71D2C4;" d="M277.91,316.447c0.149,7.076-7.737,12.978-17.613,13.183c-9.877,0.204-18.004-5.367-18.153-12.443     c-0.149-7.076,7.737-12.978,17.613-13.183C269.634,303.8,277.761,309.371,277.91,316.447z"/>
			<path d="M259.776,330.136c-9.896,0-17.98-5.727-18.132-12.939c-0.075-3.588,1.788-6.99,5.248-9.579     c3.41-2.553,7.975-4.014,12.855-4.114c10.145-0.225,18.509,5.593,18.664,12.933l0,0c0.075,3.588-1.788,6.99-5.248,9.579     c-3.409,2.553-7.975,4.014-12.854,4.114C260.13,330.134,259.952,330.136,259.776,330.136z M260.281,304.498     c-0.171,0-0.342,0.002-0.514,0.006c-4.673,0.097-9.034,1.486-12.277,3.915c-3.194,2.391-4.915,5.5-4.847,8.757     c0.143,6.79,8.061,12.197,17.643,11.954c4.673-0.097,9.033-1.486,12.277-3.915c3.193-2.391,4.915-5.5,4.847-8.757l0,0     C277.27,309.79,269.634,304.498,260.281,304.498z"/>
		</g>
		<g>
			<g>
				<g>
					<g>
						
							<rect x="98.344" y="338.4" transform="matrix(0.7934 -0.6088 0.6088 0.7934 -183.5838 136.9702)" width="23.236" height="0.999"/>
					</g>
					<g>
						<rect x="96.739" y="289.674" transform="matrix(0.031 -0.9995 0.9995 0.031 -206.0472 388.2983)" width="1" height="21.486"/>
					</g>
					<g>
						
							<rect x="109.358" y="250.164" transform="matrix(0.5452 -0.8383 0.8383 0.5452 -169.364 211.0735)" width="0.999" height="22.94"/>
					</g>
				</g>
				<g>
					<path style="fill:#FFB500;" d="M217.766,304.183c0.059-0.845,0.055-5.976-0.088-7.666       c-1.955-23.757-19.293-43.284-42.193-48.614c-3.887-0.925-7.92-1.427-12.051-1.474c-30.425-0.35-55.379,23.791-55.731,53.946       c-0.379,30.152,24.005,54.887,54.429,55.237c2.39,0.03,4.77-0.096,7.085-0.357c17.132-1.969,31.902-11.75,40.535-25.696       c0.003-0.026,0.003-0.026,0.003-0.026c0.278-0.436,0.559-0.899,0.837-1.335C214.717,321.052,217.279,312.901,217.766,304.183z"/>
					<path d="M162.813,356.116c-0.23,0-0.459-0.001-0.688-0.004c-14.947-0.172-28.905-6.131-39.3-16.779       c-10.258-10.508-15.807-24.345-15.623-38.963c0.353-30.154,25.225-54.444,55.583-54.444c0.218,0,0.436,0.001,0.655,0.004       c4.119,0.047,8.21,0.547,12.161,1.487c23.501,5.47,40.612,25.186,42.577,49.06c0.141,1.672,0.152,6.798,0.088,7.737       c-0.479,8.59-2.916,16.743-7.241,24.234l-0.847,1.374c-8.992,14.524-23.9,23.976-40.903,25.93       C167.129,355.994,164.96,356.116,162.813,356.116z M162.784,246.926c-29.814,0-54.236,23.848-54.583,53.456       c-0.18,14.352,5.267,27.937,15.339,38.253c10.209,10.457,23.916,16.309,38.597,16.478c2.325,0.026,4.691-0.091,7.023-0.354       c16.657-1.914,31.268-11.155,40.104-25.361v-0.004l0.068-0.128l0.837-1.335c4.235-7.337,6.626-15.342,7.097-23.775l0.001-0.007       c0.06-0.855,0.049-5.965-0.087-7.588c-1.929-23.44-18.731-42.798-41.809-48.169c-3.881-0.924-7.899-1.415-11.944-1.461       C163.214,246.927,162.997,246.926,162.784,246.926z"/>
				</g>
				<g>
					<path d="M217.663,304.178c0.843-18.297-7.66-36.788-22.947-47.634c-1.589-1.127-3.239-2.169-4.941-3.118       c-4.472-2.494-9.295-4.359-14.29-5.522c-5.067,4.862,1.168,11.407-2.572,16.787c-3.128,4.461-8.247,5.966-8.338,11.783       c-0.107,4.682,4.317,8.547,6.461,12.833c4.224,8.435-2.219,9.655-6.765,17.353c-2.911,4.894-1.921,8.241,1.125,13.13       c3.541,5.661,4.985,5.52,0.709,10.795c-2.556,3.176-7.287,5.983-8.421,9.764c-1.585,5.412,1.905,11.326,8.494,13.833       c1.002,0.383,2.032,0.742,3.04,1.074c17.132-1.969,31.902-11.75,40.538-25.721c0.152-0.475,0.427-0.886,0.837-1.335       c1.843-2.023,2.948-5.731,3.886-8.253C216.377,314.835,217.417,309.515,217.663,304.178z"/>
					<path d="M169.165,355.764l-0.104-0.034c-1.084-0.356-2.114-0.72-3.062-1.081c-6.789-2.584-10.488-8.657-8.795-14.44       c0.771-2.569,3.057-4.658,5.267-6.679c1.213-1.109,2.359-2.156,3.245-3.258c3.343-4.124,3.056-4.546,0.823-7.836       c-0.455-0.67-0.982-1.446-1.566-2.38c-3.139-5.04-4.175-8.534-1.131-13.652c1.438-2.435,3.049-4.218,4.47-5.791       c3.141-3.476,5.036-5.573,2.277-11.082c-0.702-1.403-1.683-2.801-2.63-4.151c-1.946-2.773-3.957-5.641-3.883-8.917       c0.062-3.998,2.36-6.058,4.793-8.238c1.266-1.135,2.575-2.308,3.636-3.82c1.642-2.362,1.227-4.954,0.788-7.698       c-0.504-3.149-1.026-6.405,1.848-9.162l0.196-0.189l0.264,0.062c5.045,1.175,9.897,3.05,14.421,5.573       c1.706,0.951,3.384,2.01,4.987,3.146c15.154,10.753,24.027,29.17,23.157,48.065c-0.253,5.501-1.335,10.856-3.217,15.917       c-0.149,0.401-0.302,0.832-0.462,1.28c-0.85,2.39-1.907,5.362-3.523,7.137c-0.391,0.428-0.609,0.772-0.73,1.15l-0.051,0.11       c-8.987,14.541-23.897,24.001-40.906,25.956L169.165,355.764z M175.64,248.454c-2.281,2.355-1.834,5.145-1.362,8.093       c0.452,2.819,0.919,5.734-0.955,8.429c-1.127,1.608-2.48,2.82-3.788,3.993c-2.363,2.118-4.405,3.948-4.46,7.513       c-0.067,2.951,1.764,5.561,3.702,8.322c0.969,1.382,1.971,2.81,2.706,4.279c3.064,6.119,0.64,8.803-2.43,12.2       c-1.39,1.538-2.965,3.281-4.352,5.63c-2.798,4.705-1.869,7.815,1.119,12.612c0.576,0.921,1.097,1.688,1.545,2.349       c2.472,3.641,2.821,4.471-0.872,9.025c-0.933,1.16-2.161,2.282-3.348,3.368c-2.11,1.929-4.291,3.923-4.982,6.225       c-1.542,5.267,1.903,10.828,8.192,13.222c0.903,0.345,1.882,0.691,2.914,1.031c16.638-1.945,31.221-11.206,40.03-25.425       c0.169-0.494,0.456-0.946,0.923-1.459c1.481-1.625,2.501-4.493,3.321-6.798c0.161-0.453,0.316-0.889,0.466-1.293       c1.845-4.964,2.907-10.218,3.155-15.616l0,0c0.855-18.558-7.857-36.645-22.737-47.202c-1.573-1.116-3.221-2.156-4.896-3.09       C185.17,251.43,180.498,249.611,175.64,248.454z"/>
				</g>
			</g>
			<g>
				<g>
					<path style="fill:#FFB500;" d="M401.398,280.471c-0.131-0.837-1.277-5.84-1.792-7.458       c-7.196-22.744-28.453-37.999-51.976-38.189c-3.997-0.053-8.043,0.34-12.082,1.198c-29.753,6.312-48.718,35.315-42.349,64.803       c6.343,29.492,35.631,48.285,65.384,41.973c2.338-0.493,4.631-1.137,6.831-1.898c16.271-5.666,28.5-18.437,33.816-33.926       c-0.003-0.026-0.003-0.026-0.003-0.026c0.174-0.487,0.345-0.999,0.519-1.485C402.179,297.591,402.864,289.08,401.398,280.471z"/>
					<path d="M347.033,344.516c-25.655,0-48.766-17.74-54.324-43.585c-3.088-14.303-0.401-28.959,7.567-41.268       c8.066-12.461,20.557-21.03,35.168-24.131c4.03-0.855,8.13-1.254,12.192-1.208c24.138,0.195,45.215,15.683,52.445,38.539       c0.512,1.603,1.664,6.599,1.809,7.527c1.445,8.483,0.884,16.969-1.668,25.221l-0.521,1.525       c-5.536,16.133-17.974,28.612-34.124,34.237c-2.267,0.783-4.586,1.428-6.892,1.914       C354.778,344.117,350.877,344.516,347.033,344.516z M346.928,235.32c-3.761,0-7.549,0.4-11.276,1.191       c-14.35,3.044-26.614,11.46-34.535,23.695c-7.823,12.084-10.462,26.473-7.43,40.514c6.276,29.18,35.339,47.837,64.793,41.59       c2.266-0.478,4.544-1.11,6.772-1.881c15.821-5.511,28.015-17.721,33.469-33.51l0.036-0.138l0.518-1.485       c2.498-8.082,3.049-16.412,1.63-24.74l-0.001-0.008c-0.131-0.846-1.278-5.826-1.774-7.382       c-7.1-22.443-27.797-37.65-51.503-37.842C347.394,235.321,347.16,235.32,346.928,235.32z"/>
				</g>
				<g>
					<path d="M401.297,280.489c-3.251-18.031-15.661-34.206-32.985-41.443c-1.8-0.752-3.642-1.407-5.514-1.961       c-4.916-1.455-10.037-2.219-15.167-2.261c-3.86,5.85,3.679,10.871,1.228,16.936c-2.058,5.035-6.716,7.622-5.51,13.316       c0.938,4.59,6.113,7.393,9.159,11.103c5.998,7.304-0.015,9.902-2.736,18.405c-1.75,5.41-0.039,8.457,4.02,12.561       c4.714,4.747,6.091,4.294,3.095,10.374c-1.786,3.657-5.775,7.429-6.04,11.365c-0.341,5.625,4.379,10.63,11.363,11.634       c1.062,0.154,2.148,0.279,3.204,0.382c16.271-5.666,28.5-18.437,33.813-33.952c0.043-0.496,0.22-0.957,0.519-1.485       c1.347-2.376,1.6-6.234,1.953-8.9C402.414,291.165,402.245,285.748,401.297,280.489z"/>
					<path d="M365.475,341.41l-0.109-0.011c-1.183-0.116-2.238-0.242-3.227-0.386c-7.195-1.035-12.154-6.149-11.79-12.16       c0.18-2.676,1.943-5.213,3.649-7.667c0.937-1.347,1.821-2.619,2.44-3.888c2.342-4.752,1.968-5.102-0.942-7.821       c-0.593-0.554-1.28-1.196-2.058-1.979c-4.183-4.229-5.972-7.41-4.142-13.068c0.86-2.689,2.035-4.78,3.071-6.625       c2.289-4.077,3.671-6.538-0.246-11.308c-0.997-1.215-2.264-2.363-3.489-3.473c-2.516-2.279-5.116-4.636-5.773-7.848       c-0.829-3.914,0.954-6.426,2.842-9.085c0.982-1.384,1.998-2.814,2.695-4.521c1.075-2.662,0.094-5.099-0.946-7.68       c-1.192-2.961-2.426-6.022-0.236-9.342l0.149-0.227l0.272,0.002c5.181,0.042,10.331,0.81,15.306,2.281       c1.877,0.556,3.75,1.221,5.564,1.979c17.174,7.174,29.928,23.197,33.285,41.815c0.977,5.422,1.114,10.882,0.405,16.228       c-0.057,0.422-0.109,0.874-0.165,1.346c-0.297,2.518-0.666,5.65-1.85,7.736c-0.28,0.495-0.421,0.891-0.455,1.281l-0.025,0.119       c-5.528,16.148-17.966,28.636-34.121,34.263L365.475,341.41z M347.903,235.327c-1.699,2.796-0.643,5.418,0.474,8.19       c1.068,2.65,2.173,5.392,0.945,8.43c-0.742,1.815-1.792,3.294-2.807,4.724c-1.833,2.583-3.417,4.814-2.678,8.302       c0.592,2.895,2.959,5.039,5.466,7.31c1.252,1.135,2.546,2.308,3.591,3.579c4.35,5.298,2.582,8.446,0.344,12.432       c-1.013,1.804-2.16,3.849-2.99,6.442c-1.683,5.201-0.083,8.032,3.899,12.058c0.767,0.772,1.445,1.406,2.03,1.953       c3.22,3.01,3.745,3.742,1.157,8.992c-0.652,1.336-1.6,2.699-2.517,4.018c-1.628,2.342-3.312,4.764-3.473,7.159       c-0.332,5.475,4.268,10.147,10.936,11.106c0.943,0.138,1.949,0.258,3.072,0.369c15.794-5.536,27.955-17.757,33.381-33.55       c0.056-0.519,0.234-1.022,0.576-1.625c1.083-1.911,1.44-4.933,1.726-7.36c0.057-0.477,0.11-0.934,0.166-1.359       c0.695-5.244,0.562-10.601-0.397-15.92l0,0c-3.297-18.288-15.821-34.025-32.686-41.071c-1.782-0.744-3.62-1.398-5.463-1.942       C357.86,236.146,352.897,235.394,347.903,235.327z"/>
				</g>
				<g>
					<g>
						
							<rect x="384.892" y="245.898" transform="matrix(0.7597 -0.6503 0.6503 0.7597 -64.9447 317.0555)" width="23.225" height="1"/>
					</g>
					<g>
						<rect x="400.574" y="283.64" transform="matrix(0.9997 -0.0235 0.0235 0.9997 -6.5619 9.7417)" width="21.487" height="1"/>
					</g>
					<g>
						
							<rect x="400.342" y="312.069" transform="matrix(0.4991 -0.8666 0.8666 0.4991 -79.58 509.421)" width="1.001" height="22.95"/>
					</g>
				</g>
			</g>
		</g>
	</g>
	<g>
		<g>
			<g>
				<path d="M500.122,305.853c-1.665,16.36-3.239,37.03-15.366,49.61c-14.761,15.3-33.841,2.63-45.645-9.16      c-0.121-0.12-0.242-0.24-0.353-0.36l-0.948-31.91c3.814,5.09,7.84,10.02,12.208,14.67c4.228,4.5,8.849,9.72,14.448,12.58      c4.803,2.46,6.124,0.59,8.415-3.89c6.326-12.35,7.043-27.98,7.951-41.56c0.454-6.8,0.666-13.6,0.656-20.4      c-0.01-3.47-0.071-6.95-0.192-10.42c-0.172-5.02-0.464-10.04-0.878-15.05c-0.182-2.25,0.282-4.11,1.18-5.59      c4.238-7,18.141-5.42,18.999,5.12c0.343,4.19,0.605,8.38,0.787,12.58c0.131,3.26,0.222,6.51,0.252,9.77      C501.757,283.193,501.262,294.543,500.122,305.853z"/>
			</g>
			<g>
				<g>
					<g>
						<path style="fill:#FFFFFF;" d="M474.106,264.869c0,0-8.259,12.704,11.018,10.27c19.278-2.434,27.361-5.897,16.765-13.15        c0,0,16.978-4.169,2.765-47.503c-0.733-2.235-2.1-4.794-4.444-5.148c-3.283-0.495-6.684,5.212-6.146,23.135        c0,0-2.175-31.358-10.836-29.061c-1.645,0.436-2.681,2.063-3.105,3.698c-0.871,3.359-0.462,17.47,1.272,27.446        c0,0-4.029-18.792-7.75-24.377c-3.721-5.586-9.712-6.017-8.8,6.267c0.235,3.172,0.739,6.319,1.426,9.425l3.243,14.666        c0,0-10.747-13.743-16.655-8.668C449.15,235.057,456.985,262.01,474.106,264.869z"/>
						<path d="M480.699,275.947c-4.161,0-6.884-0.99-8.119-2.961c-1.686-2.689-0.057-6.307,0.734-7.757        c-11.887-2.46-18.667-15.951-20.821-23.672c-1.091-3.911-1.653-8.61,0.042-10.066c1.115-0.959,2.465-1.366,3.998-1.215        c4.526,0.448,9.677,5.681,12.054,8.378l-2.803-12.674c-0.741-3.352-1.212-6.457-1.438-9.496        c-0.586-7.905,1.696-9.9,3.108-10.386c2.013-0.693,4.606,0.801,6.607,3.804c2.064,3.098,4.188,10.046,5.702,15.767        c-0.723-8.032-0.778-16.165-0.125-18.685c0.548-2.11,1.842-3.627,3.461-4.056c1.18-0.312,2.312-0.09,3.365,0.662        c3.954,2.829,6.099,12.961,7.17,20.429c0.401-7.374,1.756-12.342,3.955-14.294c0.812-0.721,1.746-1.027,2.693-0.882        c2.649,0.399,4.098,3.204,4.846,5.487c8.147,24.844,6.048,36.926,2.853,42.685c-1.747,3.148-3.856,4.533-5.045,5.102        c3.176,2.321,4.507,4.343,4.065,6.166c-0.804,3.323-7.328,5.522-21.816,7.352        C483.542,275.844,482.045,275.947,480.699,275.947z M455.909,231.245c-1.043,0-1.938,0.331-2.722,1.004        c-0.876,0.752-1.164,3.901,0.27,9.04c2.133,7.646,8.899,21.11,20.73,23.087l0.752,0.126l-0.415,0.64        c-0.028,0.044-2.869,4.49-1.096,7.315c1.391,2.216,5.412,2.972,11.633,2.187c8.579-1.083,20.087-2.946,20.97-6.595        c0.36-1.491-1.128-3.391-4.424-5.647l-0.923-0.631l1.086-0.267c0.028-0.008,3.056-0.819,5.368-5.028        c3.074-5.595,5.056-17.395-2.959-41.833c-0.661-2.017-1.898-4.486-4.044-4.811c-0.653-0.098-1.289,0.117-1.881,0.642        c-1.274,1.131-4.185,5.536-3.691,21.984l-0.999,0.049c-0.017-0.237-1.721-23.837-7.682-28.103        c-0.809-0.579-1.636-0.745-2.527-0.509c-1.266,0.335-2.293,1.584-2.748,3.34c-0.884,3.408-0.412,17.497,1.28,27.235        l-0.982,0.19c-0.04-0.187-4.052-18.763-7.677-24.204c-1.712-2.57-3.9-3.942-5.45-3.412c-1.941,0.666-2.828,4.08-2.436,9.365        c0.222,2.99,0.685,6.05,1.416,9.354l3.719,16.818l-1.357-1.736c-0.071-0.09-7.12-9.023-12.689-9.574        C456.255,231.254,456.08,231.245,455.909,231.245z"/>
					</g>
					<g>
						
							<rect x="475.218" y="233.525" transform="matrix(0.9931 -0.1171 0.1171 0.9931 -24.0454 58.7281)" width="25.242" height="1.001"/>
					</g>
					<g>
						<path d="M487.513,253.864c-0.936-5.415-4.009-8.854-9.134-10.223c-3.881-1.037-7.548-0.441-7.584-0.436l-0.166-0.986        c0.153-0.024,15.464-2.445,17.87,11.475L487.513,253.864z"/>
					</g>
					<g>
						<path d="M477.96,265.822c-1.141,0-2.282-0.103-3.41-0.311l0.18-0.984c1.545,0.284,3.119,0.364,4.673,0.236        c1.826-0.149,3.609-0.577,5.302-1.27l0.379,0.926c-1.787,0.732-3.671,1.184-5.599,1.341        C478.978,265.802,478.469,265.822,477.96,265.822z"/>
					</g>
					<g>
						
							<rect x="495.194" y="262.026" transform="matrix(0.9874 -0.1584 0.1584 0.9874 -35.2847 82.2722)" width="6.739" height="0.999"/>
					</g>
				</g>
			</g>
		</g>
		<g>
			<g>
				<path d="M119.422,421.066c-1.029,2.56-3.199,4.68-6.679,5.56c-20.532,5.13-41.095,10.29-61.96,13.92      c-15.77,2.74-39.39,8.05-48.319-9.99c-8.223-16.62,8.021-34.92,18.131-46.69c14.711-17.12,31.247-32.59,49.187-46.29      l0.757,25.05c-2.29,1.92-4.55,3.88-6.78,5.88c-13.308,11.9-26.788,24.95-36.958,39.67c-2.189,3.16-4.51,6.56-5.711,10.23      c-0.171,0.62-0.373,1.23-0.585,1.85c0.04,0.65,0.051,1.09,0.04,1.34c0.464,0.67,1.14,1.14,1.988,1.5      c2.997,1.27,7.083,0.51,10.19,0.09c5.085-0.66,10.15-1.52,15.205-2.42c11.351-2.03,22.611-4.49,33.84-7.15      c2.694-0.64,5.398-1.28,8.092-1.95c6.044-1.46,12.087-2.97,18.131-4.48c4.591-1.15,8.142,0.69,10.19,3.65      C120.199,413.756,120.754,417.766,119.422,421.066z"/>
			</g>
			<g>
				<g>
					<g>
						<path style="fill:#FFFFFF;" d="M99.742,316.695c-4.341-0.332-8.726,1.038-12.655,3.648        c-5.001,3.321-10.678,5.595-16.603,6.344c-4.956,0.627-9.414,2.62-12.576,5.983c-7.819,8.316-5.318,22.484,6.848,30.235        c25.778,16.422,47.186-4.049,49.997-19.152C117.378,329.65,111.064,317.562,99.742,316.695z M102.586,347.795        c-4.277,2.67-6.907-0.097-15.546,4.068c-4.179,2.015-7.402,7.15-12.391,6.955c-4.07-0.159-7.625-2.654-9.946-5.352        c-2.873-3.34-4.896-8.923-1.673-13.21c2.224-2.958,6.405-3.258,9.794-3.925c5.734-1.128,11.479-3.409,16.119-6.971        c2.062-1.583,4.173-4.038,7.177-4.593C108.802,322.424,110.937,342.583,102.586,347.795z"/>
						<path d="M83.821,369.485c-5.593,0-12.137-1.572-19.334-6.157c-6.425-4.093-10.584-10.233-11.411-16.845        c-0.669-5.352,0.917-10.379,4.467-14.155c3.147-3.347,7.6-5.469,12.878-6.137c5.622-0.712,11.289-2.878,16.389-6.266        c4.173-2.77,8.66-4.056,12.97-3.729l0,0c4.629,0.355,8.604,2.531,11.494,6.293c4.065,5.29,5.512,13.074,3.971,21.356        c-1.432,7.693-8.121,18.211-19.423,23.12C92.631,368.351,88.569,369.485,83.821,369.485z M98.452,317.146        c-3.702,0-7.509,1.236-11.089,3.613c-5.228,3.472-11.043,5.692-16.816,6.424c-5.045,0.638-9.29,2.654-12.275,5.83        c-3.342,3.555-4.835,8.295-4.203,13.346c0.79,6.315,4.784,12.192,10.956,16.125c12.937,8.242,23.671,6.487,30.398,3.565        c10.967-4.765,17.454-14.944,18.838-22.387c1.49-8.003,0.112-15.498-3.78-20.563c-2.713-3.531-6.439-5.572-10.777-5.904        C99.288,317.161,98.871,317.146,98.452,317.146z M74.927,359.324c-0.099,0-0.197-0.002-0.297-0.006        c-5.186-0.203-8.935-3.932-10.306-5.525c-3.213-3.734-4.983-9.462-1.693-13.837c2.022-2.689,5.517-3.302,8.6-3.842        c0.51-0.089,1.012-0.178,1.497-0.273c6.116-1.203,11.618-3.581,15.911-6.877c0.482-0.37,0.966-0.788,1.464-1.218        c1.642-1.417,3.502-3.022,5.927-3.471c5.001-0.929,8.993,1.428,10.945,6.456c2.251,5.797,1.131,14.207-4.124,17.486        c-2.027,1.266-3.724,1.376-5.69,1.503c-2.33,0.151-5.231,0.339-9.904,2.592c-1.473,0.711-2.812,1.814-4.23,2.982        C80.622,357.278,78.138,359.324,74.927,359.324z M98.067,325.083c-0.599,0-1.218,0.059-1.855,0.176        c-2.159,0.399-3.834,1.847-5.455,3.245c-0.513,0.443-1.012,0.873-1.508,1.254c-4.416,3.39-10.061,5.832-16.327,7.064        c-0.492,0.098-1.001,0.187-1.518,0.277c-3.043,0.533-6.188,1.084-7.974,3.458c-2.956,3.931-1.3,9.152,1.652,12.583        c1.286,1.494,4.795,4.99,9.587,5.178c2.981,0.149,5.281-1.783,7.722-3.794c1.401-1.155,2.85-2.349,4.432-3.111        c4.849-2.338,7.857-2.532,10.274-2.69c1.906-0.123,3.411-0.221,5.225-1.352l0,0c4.763-2.973,5.784-10.965,3.722-16.277        C104.532,327.202,101.679,325.083,98.067,325.083z"/>
					</g>
					<g>
						<path style="fill:#FFFFFF;" d="M107.258,370.015l-16.19,6.982l-1.883-4.29c-1.189-2.709,0.062-5.86,2.795-7.038l6.294-2.714        c2.733-1.179,5.912,0.062,7.101,2.77L107.258,370.015z"/>
						<path d="M90.809,377.653l-2.083-4.745c-0.626-1.428-0.657-3.012-0.087-4.462c0.575-1.461,1.691-2.61,3.142-3.236l6.294-2.715        c2.981-1.285,6.461,0.074,7.758,3.028l2.086,4.751L90.809,377.653z M100.42,363.01c-0.652,0-1.313,0.13-1.948,0.403        l-6.294,2.715c-1.205,0.52-2.13,1.473-2.607,2.685c-0.472,1.2-0.447,2.512,0.072,3.693l1.684,3.835l15.272-6.586l-1.681-3.829        C104.116,364.101,102.311,363.01,100.42,363.01z"/>
					</g>
				</g>
				<g>
					<g>
						<path style="fill:#71D2C4;" d="M138.932,436.896c-3.119,1.819-6.762,3.695-10.92,5.423c-3.278,1.363-6.385,2.43-9.242,3.272        c-0.274,0.118-1.874,0.777-3.687,0.03c-1.139-0.47-2.092-1.38-2.578-2.613l-22.589-57.407c-1.774-4.508,0.364-9.6,4.84-11.531        l7.899-3.407c4.486-1.935,9.712-0.002,11.823,4.372l26.821,55.568C142.452,432.988,141.377,435.842,138.932,436.896z"/>
						<path d="M116.869,446.473c-0.594,0-1.271-0.099-1.976-0.39c-1.32-0.544-2.333-1.571-2.853-2.893l-22.589-57.407        c-1.881-4.779,0.363-10.126,5.107-12.172l7.899-3.406c4.756-2.051,10.233-0.024,12.471,4.612l26.821,55.568        c0.614,1.272,0.68,2.701,0.187,4.024c-0.493,1.323-1.48,2.363-2.78,2.934c-3.516,2.048-7.202,3.878-10.954,5.438        c-3.025,1.258-6.151,2.364-9.292,3.289C118.649,446.188,117.879,446.473,116.869,446.473z M106.302,370.406        c-1.151,0-2.322,0.231-3.448,0.717l-7.899,3.406c-4.246,1.831-6.255,6.614-4.573,10.889l22.589,57.407        c0.419,1.065,1.237,1.894,2.303,2.334c1.538,0.632,2.913,0.14,3.297-0.027c3.164-0.936,6.257-2.029,9.249-3.274        c3.721-1.546,7.375-3.361,10.86-5.393l0.054-0.027c1.061-0.458,1.866-1.302,2.267-2.377c0.397-1.065,0.344-2.216-0.15-3.239        l-26.821-55.568C112.554,372.196,109.506,370.406,106.302,370.406z"/>
					</g>
					<g>
						
							<rect x="106.353" y="380.084" transform="matrix(0.9248 -0.3804 0.3804 0.9248 -148.7677 71.6277)" width="1" height="64.303"/>
					</g>
				</g>
			</g>
			<g>
				<g>
					<path style="fill:#FFFFFF;" d="M68.287,410.782c-0.466-7.116,7.079-6.415,7.079-6.415l1.259,0.728       c-3.373-9.563,3.574-23.889,8.441-23.847c10.642,0.091,8.594,14.901,8.594,14.901s16.031-1.178,23.02-12.305       c1.144-1.821,3.358-2.479,5.447-1.402c2.247,1.159,4.453,3.701,3.966,9.264c0,0,8.521,0.28,7.947,11.877       c0,0,0.624,0.255,1.559,0.911c8.535,5.983-4.37,33.168-37.843,30.127c0,0,0.129,5.495-5.56,6.875       C83.284,443.659,68.753,417.898,68.287,410.782z"/>
					<path d="M91.099,442.125c-1.649,0-3.491-0.741-5.496-2.214c-8.122-5.968-17.43-23.215-17.815-29.096v-0.001       c-0.143-2.177,0.414-3.893,1.654-5.1c2.226-2.166,5.817-1.858,5.971-1.847l0.204,0.065l0.162,0.094       c-1.695-6.58,0.772-14.845,4.174-19.608c1.7-2.382,3.521-3.678,5.117-3.672c2.688,0.023,4.84,0.95,6.398,2.754       c3.221,3.729,2.941,10.062,2.756,12.086c2.956-0.354,16.018-2.435,22.032-12.009c1.321-2.102,3.827-2.753,6.099-1.581       c2.159,1.114,4.618,3.623,4.272,9.26c1.01,0.146,3.294,0.692,5.171,2.73c1.971,2.141,2.897,5.264,2.755,9.285       c0.29,0.147,0.756,0.408,1.333,0.812c2.897,2.03,3.574,6.36,1.765,11.3c-3.956,10.803-17.963,21.54-39.426,19.778       c-0.147,1.505-1.002,5.628-5.912,6.82C91.921,442.078,91.516,442.125,91.099,442.125z M68.786,410.749       c0.375,5.719,9.47,22.522,17.409,28.356c2.264,1.663,4.243,2.309,5.882,1.905c5.238-1.271,5.18-6.327,5.178-6.378l-0.013-0.561       l0.559,0.051c21.223,1.926,35.051-8.54,38.911-19.082c1.645-4.494,1.109-8.379-1.4-10.138c-0.87-0.609-1.458-0.856-1.463-0.859       l-0.325-0.135l0.016-0.352c0.193-3.897-0.637-6.885-2.465-8.88c-2.145-2.34-4.972-2.472-5-2.473l-0.525-0.021l0.045-0.523       c0.382-4.36-0.862-7.313-3.697-8.775c-1.791-0.922-3.762-0.419-4.794,1.224c-7.042,11.212-23.244,12.525-23.407,12.538       l-0.616,0.045l0.084-0.612c0.011-0.078,1.038-7.886-2.455-11.928c-1.362-1.575-3.262-2.385-5.649-2.405       c-0.005,0-0.011,0-0.016,0c-1.243,0-2.801,1.184-4.278,3.253c-3.521,4.93-5.856,13.732-3.67,19.929l0.451,1.277l-2.331-1.349       c-0.57-0.024-3.38-0.082-5.081,1.577C69.117,407.428,68.663,408.88,68.786,410.749L68.786,410.749z"/>
				</g>
				<g>
					<path d="M106.599,406.37l-0.13-0.992c0.118-0.016,11.875-1.703,19.194-13.93l0.858,0.514       C118.944,404.619,106.721,406.354,106.599,406.37z"/>
				</g>
				<g>
					<path d="M113.245,419.087l-0.195-0.98c0.115-0.023,11.626-2.443,20.584-14.817l0.81,0.586       C125.244,416.584,113.364,419.064,113.245,419.087z"/>
				</g>
				<g>
					<rect x="78.602" y="403.81" transform="matrix(0.8419 -0.5397 0.5397 0.8419 -208.3544 107.4083)" width="1" height="10.85"/>
				</g>
				<g>
					<line style="fill:#FFFFFF;" x1="92.485" y1="428.42" x2="97.755" y2="434.621"/>
					<rect x="94.62" y="427.452" transform="matrix(0.762 -0.6476 0.6476 0.762 -256.8189 164.3185)" width="1" height="8.138"/>
				</g>
			</g>
		</g>
	</g>
</g>















</svg>
