<?xml version="1.0" encoding="UTF-8"?>
<!-- Generator: Adobe Illustrator 27.1.1, SVG Export Plug-In . SVG Version: 6.00 Build 0)  -->
<svg xmlns="http://www.w3.org/2000/svg" xmlns:xlink="http://www.w3.org/1999/xlink" version="1.1" id="Capa_1" x="0px" y="0px" viewBox="0 0 511.182 511.182" style="enable-background:new 0 0 511.182 511.182;" xml:space="preserve" width="512" height="512">
<g>
	<g>
		<rect x="11.303" y="423.209" width="488.576" height="1"/>
	</g>
	<g>
		<g>
			<g>
				<g>
					<ellipse style="fill:#71D2C4;" cx="348.34" cy="480.04" rx="33.969" ry="10.501"/>
					<path d="M348.34,491.041c-19.328,0-34.469-4.833-34.469-11.002c0-6.169,15.141-11.001,34.469-11.001       c19.328,0,34.469,4.832,34.469,11.001C382.809,486.208,367.668,491.041,348.34,491.041z M348.34,470.038       c-18.142,0-33.469,4.58-33.469,10.001c0,5.422,15.327,10.002,33.469,10.002s33.469-4.58,33.469-10.002       C381.809,474.618,366.482,470.038,348.34,470.038z"/>
				</g>
				<g>
					<ellipse style="fill:#71D2C4;" cx="349.537" cy="459.449" rx="60.506" ry="23.148"/>
					<path d="M349.537,483.097c-33.639,0-61.005-10.608-61.005-23.648c0-13.039,27.366-23.647,61.005-23.647       s61.006,10.608,61.006,23.647C410.543,472.489,383.176,483.097,349.537,483.097z M349.537,436.801       c-33.087,0-60.005,10.159-60.005,22.647c0,12.488,26.918,22.648,60.005,22.648s60.006-10.16,60.006-22.648       C409.543,446.96,382.624,436.801,349.537,436.801z"/>
				</g>
			</g>
			<g>
				<g>
					<path style="fill:#FFB500;" d="M338.956,449.65c0,2.651-4.835,4.799-10.799,4.799c-5.964,0-10.799-2.149-10.799-4.799       c0-2.651,4.835-4.799,10.799-4.799C334.121,444.851,338.956,447,338.956,449.65z"/>
					<path d="M328.157,454.949c-6.336,0-11.299-2.327-11.299-5.299s4.963-5.3,11.299-5.3s11.299,2.328,11.299,5.3       S334.493,454.949,328.157,454.949z M328.157,445.351c-5.583,0-10.299,1.969-10.299,4.3c0,2.33,4.716,4.299,10.299,4.299       s10.299-1.969,10.299-4.299C338.456,447.32,333.74,445.351,328.157,445.351z"/>
				</g>
				<g>
					<path style="fill:#FFB500;" d="M324.024,454.45c0,2.651-4.835,4.799-10.799,4.799c-5.964,0-10.799-2.149-10.799-4.799       c0-2.651,4.835-4.799,10.799-4.799C319.19,449.65,324.024,451.799,324.024,454.45z"/>
					<path d="M313.226,459.749c-6.336,0-11.299-2.328-11.299-5.3s4.963-5.299,11.299-5.299c6.336,0,11.299,2.327,11.299,5.299       S319.562,459.749,313.226,459.749z M313.226,450.151c-5.583,0-10.299,1.969-10.299,4.299c0,2.331,4.716,4.3,10.299,4.3       c5.583,0,10.299-1.969,10.299-4.3C323.525,452.119,318.809,450.151,313.226,450.151z"/>
				</g>
				<g>
					<path style="fill:#FFB500;" d="M356.021,453.65c0,2.651-4.835,4.799-10.799,4.799c-5.964,0-10.799-2.149-10.799-4.799       c0-2.651,4.835-4.799,10.799-4.799C351.186,448.85,356.021,450.999,356.021,453.65z"/>
					<path d="M345.222,458.949c-6.336,0-11.299-2.328-11.299-5.3c0-2.972,4.963-5.299,11.299-5.299       c6.336,0,11.299,2.327,11.299,5.299C356.521,456.621,351.558,458.949,345.222,458.949z M345.222,449.351       c-5.583,0-10.299,1.969-10.299,4.299c0,2.331,4.716,4.3,10.299,4.3c5.583,0,10.299-1.969,10.299-4.3       C355.521,451.32,350.805,449.351,345.222,449.351z"/>
				</g>
				<g>
					<path style="fill:#FFB500;" d="M374.685,458.982c0,2.651-4.835,4.799-10.799,4.799c-5.964,0-10.799-2.149-10.799-4.799       c0-2.651,4.835-4.799,10.799-4.799C369.85,454.183,374.685,456.332,374.685,458.982z"/>
					<path d="M363.886,464.281c-6.335,0-11.298-2.327-11.298-5.299s4.963-5.3,11.298-5.3c6.336,0,11.299,2.328,11.299,5.3       S370.222,464.281,363.886,464.281z M363.886,454.683c-5.582,0-10.298,1.969-10.298,4.3c0,2.33,4.716,4.299,10.298,4.299       c5.583,0,10.299-1.969,10.299-4.299C374.185,456.652,369.469,454.683,363.886,454.683z"/>
				</g>
				<g>
					<ellipse style="fill:#FFB500;" cx="346.555" cy="462.715" rx="10.799" ry="4.799"/>
					<path d="M346.555,468.015c-6.336,0-11.299-2.328-11.299-5.3c0-2.972,4.963-5.299,11.299-5.299       c6.336,0,11.299,2.327,11.299,5.299C357.854,465.687,352.891,468.015,346.555,468.015z M346.555,458.416       c-5.583,0-10.299,1.969-10.299,4.299c0,2.331,4.716,4.3,10.299,4.3c5.583,0,10.299-1.969,10.299-4.3       C356.854,460.385,352.138,458.416,346.555,458.416z"/>
				</g>
				<g>
					<path style="fill:#FFB500;" d="M376.818,466.182c0,2.651-4.835,4.799-10.799,4.799c-5.964,0-10.799-2.149-10.799-4.799       c0-2.651,4.835-4.799,10.799-4.799C371.983,461.382,376.818,463.531,376.818,466.182z"/>
					<path d="M366.02,471.481c-6.336,0-11.299-2.327-11.299-5.299c0-2.972,4.963-5.3,11.299-5.3c6.336,0,11.299,2.328,11.299,5.3       C377.318,469.154,372.356,471.481,366.02,471.481z M366.02,461.882c-5.583,0-10.299,1.969-10.299,4.3       c0,2.33,4.716,4.299,10.299,4.299s10.299-1.969,10.299-4.299C376.318,463.851,371.603,461.882,366.02,461.882z"/>
				</g>
				<g>
					<ellipse style="fill:#FFB500;" cx="349.755" cy="471.248" rx="10.799" ry="4.799"/>
					<path d="M349.755,476.547c-6.336,0-11.299-2.328-11.299-5.3c0-2.972,4.963-5.299,11.299-5.299       c6.335,0,11.298,2.327,11.298,5.299C361.053,474.219,356.09,476.547,349.755,476.547z M349.755,466.948       c-5.583,0-10.299,1.969-10.299,4.299c0,2.331,4.716,4.3,10.299,4.3c5.582,0,10.298-1.969,10.298-4.3       C360.053,468.917,355.337,466.948,349.755,466.948z"/>
				</g>
				<g>
					<ellipse style="fill:#FFB500;" cx="380.951" cy="461.649" rx="10.799" ry="4.799"/>
					<path d="M380.951,466.948c-6.336,0-11.299-2.328-11.299-5.3c0-2.972,4.963-5.299,11.299-5.299       c6.335,0,11.298,2.327,11.298,5.299C392.249,464.62,387.286,466.948,380.951,466.948z M380.951,457.35       c-5.583,0-10.299,1.969-10.299,4.299c0,2.331,4.716,4.3,10.299,4.3c5.582,0,10.298-1.969,10.298-4.3       C391.249,459.319,386.533,457.35,380.951,457.35z"/>
				</g>
				<g>
					<ellipse style="fill:#FFB500;" cx="330.024" cy="465.915" rx="10.799" ry="4.799"/>
					<path d="M330.024,471.214c-6.336,0-11.299-2.327-11.299-5.299c0-2.972,4.963-5.3,11.299-5.3c6.336,0,11.299,2.328,11.299,5.3       C341.322,468.887,336.36,471.214,330.024,471.214z M330.024,461.616c-5.583,0-10.299,1.969-10.299,4.3       c0,2.33,4.716,4.299,10.299,4.299c5.583,0,10.299-1.969,10.299-4.299C340.322,463.584,335.607,461.616,330.024,461.616z"/>
				</g>
				<g>
					<path style="fill:#FFB500;" d="M323.491,462.182c0,2.651-4.835,4.799-10.799,4.799c-5.964,0-10.799-2.149-10.799-4.799       c0-2.651,4.835-4.799,10.799-4.799C318.656,457.383,323.491,459.531,323.491,462.182z"/>
					<path d="M312.693,467.482c-6.336,0-11.299-2.328-11.299-5.3c0-2.972,4.963-5.299,11.299-5.299       c6.336,0,11.299,2.327,11.299,5.299C323.991,465.154,319.028,467.482,312.693,467.482z M312.693,457.883       c-5.583,0-10.299,1.969-10.299,4.299c0,2.331,4.716,4.3,10.299,4.3c5.583,0,10.299-1.969,10.299-4.3       C322.991,459.852,318.276,457.883,312.693,457.883z"/>
				</g>
				<g>
					<path style="fill:#FFB500;" d="M390.95,453.65c0,2.651-4.835,4.799-10.799,4.799c-5.964,0-10.799-2.149-10.799-4.799       c0-2.651,4.835-4.799,10.799-4.799C386.115,448.85,390.95,450.999,390.95,453.65z"/>
					<path d="M380.151,458.949c-6.335,0-11.298-2.328-11.298-5.3c0-2.972,4.963-5.299,11.298-5.299       c6.336,0,11.299,2.327,11.299,5.299C391.449,456.621,386.486,458.949,380.151,458.949z M380.151,449.351       c-5.582,0-10.298,1.969-10.298,4.299c0,2.331,4.716,4.3,10.298,4.3c5.583,0,10.299-1.969,10.299-4.3       C390.449,451.32,385.734,449.351,380.151,449.351z"/>
				</g>
				<g>
					<ellipse style="fill:#FFB500;" cx="362.02" cy="450.184" rx="10.799" ry="4.799"/>
					<path d="M362.02,455.483c-6.336,0-11.299-2.327-11.299-5.299s4.963-5.3,11.299-5.3c6.336,0,11.299,2.328,11.299,5.3       S368.356,455.483,362.02,455.483z M362.02,445.884c-5.583,0-10.299,1.969-10.299,4.3c0,2.33,4.716,4.299,10.299,4.299       s10.299-1.969,10.299-4.299C372.318,447.853,367.603,445.884,362.02,445.884z"/>
				</g>
				<g>
					<ellipse style="fill:#FFB500;" cx="348.955" cy="457.916" rx="10.799" ry="4.799"/>
					<path d="M348.955,463.215c-6.336,0-11.299-2.327-11.299-5.299c0-2.972,4.963-5.3,11.299-5.3c6.335,0,11.298,2.328,11.298,5.3       C360.253,460.888,355.29,463.215,348.955,463.215z M348.955,453.616c-5.583,0-10.299,1.969-10.299,4.3       c0,2.33,4.716,4.299,10.299,4.299c5.582,0,10.298-1.969,10.298-4.299C359.253,455.585,354.537,453.616,348.955,453.616z"/>
				</g>
				<g>
					<path style="fill:#FFB500;" d="M380.551,460.582c0,2.651-4.835,4.799-10.799,4.799c-5.964,0-10.799-2.149-10.799-4.799       c0-2.651,4.835-4.799,10.799-4.799C375.716,455.783,380.551,457.932,380.551,460.582z"/>
					<path d="M369.752,465.882c-6.336,0-11.299-2.328-11.299-5.3c0-2.972,4.963-5.3,11.299-5.3c6.336,0,11.299,2.328,11.299,5.3       C381.051,463.554,376.088,465.882,369.752,465.882z M369.752,456.283c-5.583,0-10.299,1.969-10.299,4.3       c0,2.331,4.716,4.3,10.299,4.3s10.299-1.969,10.299-4.3C380.051,458.251,375.335,456.283,369.752,456.283z"/>
				</g>
				<g>
					<ellipse style="fill:#FFB500;" cx="330.29" cy="458.183" rx="10.799" ry="4.799"/>
					<path d="M330.29,463.482c-6.336,0-11.299-2.327-11.299-5.299s4.963-5.3,11.299-5.3c6.336,0,11.299,2.328,11.299,5.3       S336.626,463.482,330.29,463.482z M330.29,453.883c-5.583,0-10.299,1.969-10.299,4.3c0,2.33,4.716,4.299,10.299,4.299       c5.583,0,10.299-1.969,10.299-4.299C340.589,455.852,335.873,453.883,330.29,453.883z"/>
				</g>
				<g>
					<path style="fill:#FFB500;" d="M356.82,444.318c0,2.651-4.835,4.799-10.799,4.799c-5.964,0-10.799-2.149-10.799-4.799       c0-2.651,4.835-4.799,10.799-4.799C351.986,439.518,356.82,441.667,356.82,444.318z"/>
					<path d="M346.022,449.617c-6.336,0-11.299-2.328-11.299-5.3c0-2.972,4.963-5.3,11.299-5.3c6.336,0,11.299,2.328,11.299,5.3       C357.32,447.289,352.358,449.617,346.022,449.617z M346.022,440.018c-5.583,0-10.299,1.969-10.299,4.3       c0,2.331,4.716,4.3,10.299,4.3c5.583,0,10.299-1.969,10.299-4.3C356.32,441.987,351.605,440.018,346.022,440.018z"/>
				</g>
			</g>
		</g>
		<g>
			<g>
				<path d="M238.627,150.89c-41.864,0-81.227-3.145-110.838-8.857c-29.842-5.756-46.276-13.517-46.276-21.853      c0-8.336,16.435-16.097,46.276-21.854c29.611-5.712,68.974-8.857,110.838-8.857c41.864,0,81.228,3.146,110.838,8.857      c29.842,5.757,46.276,13.518,46.276,21.854c0,8.336-16.435,16.097-46.276,21.853C319.855,147.744,280.491,150.89,238.627,150.89      z M238.627,90.469c-41.803,0-81.098,3.14-110.648,8.839c-28.894,5.574-45.466,13.182-45.466,20.872s16.571,15.297,45.466,20.871      c29.551,5.7,68.847,8.839,110.648,8.839c41.803,0,81.099-3.139,110.648-8.839c28.895-5.574,45.466-13.181,45.466-20.871      s-16.571-15.298-45.466-20.872C319.726,93.609,280.43,90.469,238.627,90.469z"/>
			</g>
			<g>
				<g>
					<polygon style="fill:#FF8806;" points="394.919,120.179 341.529,423.627 134.627,423.627 82.013,120.179      "/>
					<path d="M341.949,424.127H134.205l-0.071-0.415L81.419,119.68h314.096l-0.103,0.587L341.949,424.127z M135.047,423.127H341.11       l53.214-302.447H82.607L135.047,423.127z"/>
				</g>
				<g>
					<path style="fill:#FF8806;" d="M40.999,189.32l46.988-5.865c0.996-2.847,2.882-4.85,5.258-5.146       c4.025-0.503,7.909,4.064,8.675,10.2c0.766,6.136-1.876,11.517-5.902,12.02c-2.385,0.298-4.715-1.193-6.382-3.727       l-32.031,3.998c-10.219,1.275-17.592,10.229-16.385,19.897l10.152,81.329c1.207,9.668,10.555,16.535,20.773,15.259       l35.322-4.409c1.056-2.383,2.79-4.019,4.918-4.285c4.025-0.503,7.909,4.064,8.675,10.2c0.766,6.136-1.876,11.517-5.902,12.02       c-2.411,0.301-4.766-1.225-6.436-3.81l-49.763,6.212c-10.218,1.276-19.567-5.591-20.773-15.259L24.615,209.217       C23.408,199.549,30.781,190.595,40.999,189.32z"/>
					<path d="M56.499,333.866c-9.484,0-17.664-6.688-18.808-15.851L24.118,209.279c-0.601-4.814,0.826-9.599,4.019-13.476       c3.186-3.868,7.731-6.347,12.801-6.979l0.062,0.496l-0.062-0.496l46.685-5.827c1.132-2.999,3.146-4.883,5.561-5.185       c4.308-0.53,8.435,4.235,9.233,10.635c0.383,3.062-0.044,6.048-1.201,8.404c-1.191,2.427-3.015,3.908-5.135,4.173       c-2.42,0.307-4.85-1.038-6.686-3.688l-31.727,3.96c-9.971,1.245-17.126,9.921-15.95,19.34l10.152,81.33       c1.177,9.418,10.247,16.068,20.216,14.824l35.045-4.375c1.178-2.483,3.059-4.052,5.195-4.318       c2.117-0.267,4.251,0.723,6.002,2.782c1.701,2,2.849,4.788,3.23,7.852c0.799,6.399-2.044,12.042-6.336,12.578       c-2.409,0.303-4.922-1.103-6.743-3.772l-49.456,6.174C58.174,333.816,57.331,333.866,56.499,333.866z M93.857,178.77       c-0.183,0-0.366,0.012-0.55,0.034c-2.102,0.263-3.868,2.018-4.848,4.815l-0.103,0.293l-47.296,5.903       c-4.814,0.601-9.13,2.953-12.152,6.623c-3.016,3.662-4.364,8.179-3.798,12.717l13.573,108.737       c1.177,9.418,10.242,16.068,20.216,14.824l50.074-6.251l0.17,0.264c1.621,2.51,3.857,3.841,5.955,3.586       c3.744-0.468,6.197-5.61,5.467-11.463c-0.358-2.871-1.424-5.474-3-7.327c-1.525-1.793-3.337-2.654-5.117-2.438       c-1.853,0.231-3.501,1.685-4.522,3.99l-0.114,0.259l-35.604,4.444c-10.522,1.32-20.087-5.728-21.331-15.693l-10.152-81.33       c-1.244-9.965,6.301-19.142,16.819-20.455l32.34-4.037l0.171,0.261c1.639,2.49,3.783,3.764,5.902,3.505       c1.773-0.222,3.322-1.508,4.36-3.621c1.072-2.185,1.465-4.969,1.106-7.841C100.73,183.005,97.402,178.77,93.857,178.77z"/>
				</g>
				<g>
					<g>
						
							<rect x="250.124" y="370.173" transform="matrix(0.1368 -0.9906 0.9906 0.1368 -105.1908 620.6349)" width="106.764" height="1"/>
					</g>
					<g>
						<rect x="232.506" y="302.377" width="1" height="121.17"/>
					</g>
					<g>
						
							<rect x="166.413" y="321.133" transform="matrix(0.9934 -0.1144 0.1144 0.9934 -41.5029 21.5308)" width="1.001" height="102.751"/>
					</g>
				</g>
				<g>
					<g>
						<g>
							<path style="fill:#FFFFFF;" d="M137.094,187.142c-3.18,0-5.767-2.587-5.767-5.766s2.587-5.766,5.767-5.766         c3.179,0,5.766,2.587,5.766,5.766S140.273,187.142,137.094,187.142z M137.094,176.111c-2.904,0-5.267,2.362-5.267,5.266         s2.362,5.266,5.267,5.266c2.903,0,5.266-2.362,5.266-5.266S139.998,176.111,137.094,176.111z"/>
						</g>
					</g>
					<g>
						<g>
							<path style="fill:#FFFFFF;" d="M247.92,247.827c-2.836,0-5.143-2.308-5.143-5.143c0-2.836,2.308-5.143,5.143-5.143         c2.836,0,5.143,2.307,5.143,5.143C253.062,245.52,250.755,247.827,247.92,247.827z M247.92,238.041         c-2.56,0-4.643,2.083-4.643,4.643c0,2.561,2.083,4.643,4.643,4.643c2.56,0,4.643-2.083,4.643-4.643         C252.562,240.124,250.479,238.041,247.92,238.041z"/>
						</g>
					</g>
					<g>
						<g>
							<path style="fill:#FFFFFF;" d="M327.074,401.305c-2.836,0-5.143-2.307-5.143-5.143c0-2.836,2.307-5.143,5.143-5.143         s5.144,2.308,5.144,5.143C332.217,398.998,329.91,401.305,327.074,401.305z M327.074,391.519         c-2.56,0-4.643,2.083-4.643,4.643c0,2.56,2.083,4.643,4.643,4.643c2.561,0,4.644-2.083,4.644-4.643         C331.717,393.602,329.634,391.519,327.074,391.519z"/>
						</g>
					</g>
					<g>
						<g>
							<path style="fill:#FFFFFF;" d="M274.64,370.648c-2.836,0-5.143-2.308-5.143-5.144c0-2.836,2.307-5.143,5.143-5.143         c2.836,0,5.144,2.307,5.144,5.143C279.784,368.34,277.476,370.648,274.64,370.648z M274.64,360.862         c-2.56,0-4.643,2.083-4.643,4.643c0,2.561,2.083,4.644,4.643,4.644c2.561,0,4.644-2.083,4.644-4.644         C279.284,362.945,277.201,360.862,274.64,360.862z"/>
						</g>
					</g>
					<g>
						<g>
							<path style="fill:#FFFFFF;" d="M253.768,413.067c-1.867,0-3.387-1.519-3.387-3.388c0-1.868,1.52-3.388,3.387-3.388         c1.868,0,3.388,1.52,3.388,3.388C257.156,411.547,255.636,413.067,253.768,413.067z M253.768,406.791         c-1.592,0-2.887,1.296-2.887,2.888s1.295,2.888,2.887,2.888c1.592,0,2.888-1.296,2.888-2.888S255.36,406.791,253.768,406.791         z"/>
						</g>
					</g>
					<g>
						<g>
							<path style="fill:#FFFFFF;" d="M358.128,204.858c-1.868,0-3.388-1.52-3.388-3.387c0-1.868,1.52-3.388,3.388-3.388         c1.867,0,3.387,1.52,3.387,3.388C361.514,203.338,359.995,204.858,358.128,204.858z M358.128,198.583         c-1.592,0-2.888,1.296-2.888,2.888s1.296,2.887,2.888,2.887c1.592,0,2.887-1.295,2.887-2.887         S359.719,198.583,358.128,198.583z"/>
						</g>
					</g>
					<g>
						<g>
							<path style="fill:#FFFFFF;" d="M133.12,352.488c-1.868,0-3.388-1.52-3.388-3.388c0-1.868,1.52-3.388,3.388-3.388         c1.868,0,3.388,1.52,3.388,3.388C136.507,350.968,134.988,352.488,133.12,352.488z M133.12,346.212         c-1.592,0-2.888,1.296-2.888,2.888s1.296,2.888,2.888,2.888s2.888-1.296,2.888-2.888S134.712,346.212,133.12,346.212z"/>
						</g>
					</g>
					<g>
						<g>
							<path style="fill:#FFFFFF;" d="M323.002,329.579c-1.868,0-3.388-1.52-3.388-3.388c0-1.868,1.52-3.388,3.388-3.388         c1.868,0,3.388,1.52,3.388,3.388C326.389,328.06,324.87,329.579,323.002,329.579z M323.002,323.304         c-1.592,0-2.888,1.296-2.888,2.888c0,1.592,1.296,2.888,2.888,2.888s2.888-1.296,2.888-2.888         C325.889,324.6,324.593,323.304,323.002,323.304z"/>
						</g>
					</g>
					<g>
						<g>
							<path style="fill:#FFFFFF;" d="M263.95,189.586c-1.868,0-3.388-1.52-3.388-3.388c0-1.868,1.52-3.388,3.388-3.388         c1.868,0,3.388,1.52,3.388,3.388C267.338,188.067,265.818,189.586,263.95,189.586z M263.95,183.311         c-1.592,0-2.888,1.296-2.888,2.888c0,1.592,1.296,2.888,2.888,2.888s2.888-1.296,2.888-2.888         C266.838,184.607,265.542,183.311,263.95,183.311z"/>
						</g>
					</g>
					<g>
						<g>
							<path style="fill:#FFFFFF;" d="M128.539,234.301c-1.868,0-3.388-1.52-3.388-3.388c0-1.868,1.52-3.388,3.388-3.388         c1.867,0,3.387,1.52,3.387,3.388C131.925,232.781,130.406,234.301,128.539,234.301z M128.539,228.026         c-1.592,0-2.888,1.296-2.888,2.888s1.296,2.888,2.888,2.888c1.592,0,2.887-1.296,2.887-2.888S130.13,228.026,128.539,228.026         z"/>
						</g>
					</g>
					<g>
						<g>
							<path style="fill:#FFFFFF;" d="M130.266,284.065c-2.836,0-5.144-2.308-5.144-5.143s2.308-5.143,5.144-5.143         c2.836,0,5.143,2.307,5.143,5.143S133.102,284.065,130.266,284.065z M130.266,274.279c-2.561,0-4.644,2.083-4.644,4.643         c0,2.56,2.083,4.643,4.644,4.643c2.56,0,4.643-2.083,4.643-4.643C134.909,276.362,132.826,274.279,130.266,274.279z"/>
						</g>
					</g>
					<g>
						<g>
							<path style="fill:#FFFFFF;" d="M344.152,284.945c-3.179,0-5.766-2.587-5.766-5.766c0-3.179,2.587-5.766,5.766-5.766         s5.766,2.587,5.766,5.766C349.918,282.358,347.331,284.945,344.152,284.945z M344.152,273.913         c-2.903,0-5.266,2.362-5.266,5.266c0,2.903,2.362,5.266,5.266,5.266s5.266-2.362,5.266-5.266         C349.418,276.276,347.055,273.913,344.152,273.913z"/>
						</g>
					</g>
					<g>
						<g>
							<path style="fill:#FFFFFF;" d="M180.775,344.102c-3.179,0-5.766-2.587-5.766-5.766c0-3.179,2.587-5.766,5.766-5.766         c3.179,0,5.766,2.587,5.766,5.766C186.541,341.515,183.954,344.102,180.775,344.102z M180.775,333.071         c-2.903,0-5.266,2.362-5.266,5.266c0,2.903,2.362,5.266,5.266,5.266c2.903,0,5.266-2.362,5.266-5.266         C186.041,335.433,183.678,333.071,180.775,333.071z"/>
						</g>
					</g>
				</g>
				<g>
					<g>
						<path style="fill:#FFFFFF;" d="M66.497,108.154c0.973-18.357,19.694-33.095,44.405-36.914c-0.227-1.214-0.388-2.45-0.41-3.72        c-0.241-13.485,11.547-24.63,26.33-24.894c4.84-0.087,9.389,1.022,13.343,3.002c4.203-50.525,96.135-64.881,118.494-10.614        c35.018-37.784,110.815,4.507,82.7,56.506c4.956-2.034,10.43-3.211,16.2-3.314c22.872-0.408,41.716,16.174,42.089,37.039        c0.373,20.864-17.867,38.11-40.739,38.518c-0.862,0.016-1.716-0.001-2.566-0.033l-0.399,4.33        c-0.609,6.615-6.979,11.545-14.228,11.011c-7.249-0.534-12.632-6.329-12.023-12.944l0.408-4.428l-10.055-0.41l-2.069,22.478        c-0.609,6.615-6.979,11.545-14.228,11.011c-7.249-0.534-12.632-6.329-12.023-12.944l1.383-15.032        c0.314-3.408-2.569-6.25-5.972-5.888c-1.004,1.376-8.702,11.556-22.415,12.256c-11.779,0.602-19.695-6.216-21.251-7.613        c-0.565-0.013-3.543-0.023-6.01,2.326c-1.563,1.489-2.561,3.572-2.617,5.889l-1.089,45.871        c-0.158,6.649-4.69,12.579-11.19,13.99c-8.272,1.796-15.337-4.262-15.147-12.26l1.356-57.104        c0.094-3.943-2.815-7.425-6.743-7.783c-4.885-0.445-9.095,3.275-9.313,8.116l-0.497,11.055        c-0.298,6.632-6.432,11.805-13.701,11.555c-7.269-0.25-12.919-5.829-12.621-12.461l0.886-19.714        c-2.898,1.994-11.954,7.677-24.762,7.23c-13.104-0.457-21.878-7.044-24.575-9.242l-0.129,2.865        c-0.298,6.632-2.588,25.613-13.874,25.268c-13.424-0.409-12.746-19.542-12.448-26.174c0.078-1.74,0.333-3.507,0.082-5.245        c-0.262-1.809-1.024-3.115-2.783-3.764c-3.285-1.213-6.485-2.665-9.541-4.376c-5.52-3.088-10.635-7.041-14.651-11.954        C69.157,123.596,66.079,116.048,66.497,108.154z"/>
						<path d="M229.679,234.446c-3.018,0-5.896-0.998-8.189-2.892c-3.001-2.48-4.668-6.194-4.573-10.192l1.355-57.105        c0.089-3.749-2.673-6.943-6.289-7.273c-2.201-0.206-4.353,0.489-6.023,1.947c-1.67,1.457-2.645,3.479-2.745,5.693        l-0.497,11.056c-0.309,6.895-6.694,12.298-14.217,12.032c-3.822-0.132-7.43-1.739-9.897-4.41        c-2.209-2.392-3.348-5.437-3.206-8.573l0.842-18.726c-4.502,2.927-13.015,7.153-24.236,6.765        c-11.456-0.399-19.773-5.395-24.102-8.742l-0.084,1.887c-0.197,4.366-1.776,26.099-14.39,25.746        c-3.254-0.1-5.95-1.278-8.016-3.505c-5.683-6.129-5.126-18.524-4.916-23.191c0.02-0.452,0.052-0.907,0.084-1.362        c0.089-1.255,0.181-2.552,0.002-3.789c-0.26-1.795-1.019-2.834-2.461-3.366c-3.387-1.251-6.621-2.734-9.612-4.408        c-6.021-3.369-10.999-7.432-14.794-12.074c-5.375-6.574-8.115-14.329-7.718-21.834l0,0        c0.951-17.959,19.148-33.247,44.322-37.303c-0.205-1.205-0.31-2.264-0.328-3.297c-0.119-6.664,2.611-12.978,7.688-17.777        c5.063-4.788,11.858-7.496,19.133-7.626c4.457-0.081,8.926,0.866,12.921,2.737c2.543-25.389,26.84-40.358,49.985-43.949        c25.712-3.993,56.932,4.756,69.103,33.197c8.691-9.079,20.211-13.942,33.367-14.074c12.223-0.118,24.627,3.877,34.934,11.259        c9.407,6.738,16.205,15.885,19.142,25.753c3.207,10.775,1.877,22.336-3.838,33.514c4.805-1.804,9.886-2.765,15.123-2.857        c11.185-0.21,21.777,3.588,29.82,10.666c8.057,7.09,12.594,16.63,12.776,26.863c0.183,10.233-4.011,19.93-11.809,27.303        c-7.785,7.361-18.233,11.524-29.421,11.725c-0.645,0.011-1.328,0.006-2.12-0.018l-0.355,3.86        c-0.635,6.874-7.259,12.021-14.764,11.464c-3.81-0.28-7.336-2.025-9.677-4.788c-2.099-2.478-3.096-5.567-2.808-8.7        l0.359-3.903l-9.056-0.37l-2.025,22.006c-0.633,6.874-7.267,12.019-14.764,11.465c-3.81-0.281-7.337-2.026-9.677-4.789        c-2.099-2.477-3.096-5.567-2.808-8.7l1.384-15.032c0.136-1.475-0.392-2.916-1.446-3.956c-1.002-0.988-2.355-1.492-3.76-1.406        c-1.74,2.321-9.501,11.604-22.657,12.275c-10.915,0.565-18.556-5.035-21.469-7.612c-0.947,0.007-3.418,0.231-5.473,2.188        c-1.537,1.464-2.411,3.432-2.462,5.539l-1.089,45.871c-0.165,6.962-5.036,13.046-11.583,14.467        C231.668,234.339,230.666,234.446,229.679,234.446z M211.23,155.949c0.28,0,0.562,0.013,0.845,0.038        c4.138,0.378,7.3,4.021,7.198,8.293l-1.355,57.105c-0.088,3.689,1.446,7.115,4.211,9.398c2.804,2.315,6.57,3.175,10.329,2.361        c6.102-1.325,10.643-7.008,10.796-13.514l1.089-45.871c0.058-2.376,1.042-4.592,2.772-6.24c2.478-2.36,5.51-2.48,6.365-2.463        l0.186,0.004l0.138,0.124c2.707,2.433,10.154,8.035,20.892,7.485c13.085-0.669,20.652-10.156,22.037-12.052l0.13-0.179        l0.221-0.023c1.765-0.188,3.514,0.42,4.782,1.671c1.27,1.251,1.903,2.985,1.74,4.76l-1.384,15.032        c-0.264,2.863,0.651,5.69,2.574,7.962c2.168,2.56,5.444,4.177,8.988,4.438c6.965,0.508,13.11-4.224,13.693-10.559        l2.112-22.951l11.056,0.45l-0.455,4.952c-0.264,2.863,0.651,5.691,2.575,7.962c2.167,2.56,5.443,4.176,8.987,4.436        c6.961,0.533,13.109-4.223,13.693-10.558l0.442-4.801l0.473,0.017c0.98,0.036,1.786,0.048,2.539,0.033        c10.937-0.195,21.148-4.262,28.751-11.451c7.592-7.178,11.674-16.609,11.496-26.559c-0.178-9.948-4.594-19.229-12.437-26.13        c-7.856-6.914-18.227-10.615-29.143-10.417c-5.572,0.099-10.962,1.201-16.02,3.276l-1.295,0.531l0.666-1.232        c14.044-25.975,1.781-47.597-14.378-59.171c-18.797-13.462-48.846-16.901-67.516,3.244l-0.532,0.573l-0.297-0.723        c-11.744-28.504-42.78-37.266-68.324-33.302c-22.979,3.564-47.105,18.48-49.209,43.767l-0.061,0.737l-0.661-0.331        c-4.018-2.011-8.554-3.028-13.111-2.949c-7.025,0.125-13.581,2.736-18.464,7.353c-4.869,4.604-7.488,10.653-7.374,17.033        c0.02,1.118,0.147,2.274,0.401,3.637l0.095,0.507l-0.51,0.079c-24.963,3.858-43.05,18.846-43.982,36.447l-0.499-0.026        l0.499,0.026c-0.384,7.257,2.277,14.767,7.493,21.148c3.716,4.545,8.598,8.526,14.509,11.834        c2.946,1.648,6.133,3.11,9.47,4.344c1.804,0.665,2.791,1.987,3.105,4.161c0.193,1.344,0.098,2.695,0.006,4.002        c-0.032,0.447-0.063,0.893-0.084,1.337c-0.204,4.553-0.747,16.645,4.651,22.467c1.876,2.023,4.337,3.094,7.313,3.185        c0.094,0.003,0.188,0.005,0.281,0.005c11.626,0,12.963-22.24,13.078-24.796l0.173-3.857l0.771,0.628        c3.964,3.232,12.389,8.716,24.275,9.13c11.65,0.402,20.332-4.3,24.462-7.143l0.828-0.569l-0.933,20.718        c-0.128,2.868,0.917,5.656,2.942,7.85c2.288,2.477,5.641,3.967,9.198,4.089c6.953,0.24,12.898-4.729,13.184-11.077        l0.496-11.056c0.112-2.489,1.208-4.764,3.087-6.402C206.967,156.725,209.045,155.949,211.23,155.949z"/>
					</g>
					<g>
						<g>
							<path d="M198.93,82.736c-1.723-9.911,4.242-19.337,13.296-21.013c6.413-1.189,13.01,1.934,16.761,7.825         c1.77-6.209,6.565-10.826,12.498-11.915c4-0.733,8.113,0.192,11.573,2.607c3.867,2.701,6.568,7.057,7.411,11.949l-0.986,0.17         c-0.797-4.632-3.348-8.75-6.998-11.299c-3.238-2.262-7.078-3.129-10.82-2.443c-5.908,1.083-10.618,5.927-11.998,12.338         l-0.282,1.31l-0.645-1.176c-3.398-6.192-9.957-9.561-16.331-8.385c-8.517,1.577-14.121,10.485-12.493,19.858L198.93,82.736z"/>
						</g>
						<g>
							<path d="M313.482,120.763l-0.988-0.154c1.324-8.526,8.717-14.585,16.473-13.494c5.826,0.815,10.487,5.612,11.597,11.938         l-0.984,0.172c-1.035-5.897-5.355-10.365-10.751-11.12C321.611,107.097,314.722,112.771,313.482,120.763z"/>
						</g>
						<g>
							<path d="M114.669,113.662l-0.988-0.154c1.324-8.526,8.72-14.582,16.473-13.494c5.826,0.815,10.486,5.613,11.597,11.938         l-0.984,0.174c-1.036-5.896-5.356-10.365-10.751-11.121C122.788,99.995,115.91,105.671,114.669,113.662z"/>
						</g>
					</g>
				</g>
			</g>
			<g>
				<g>
					<g>
						<path style="fill:#FFB500;" d="M261.576,291.227c7.092-2.652,14.905,1.749,15.56,8.821        c2.54,27.441,2.917,83.901-36.344,87.456c-39.521,3.578-41.278-57.371-39.847-86.821c0.354-7.277,8.286-12.005,15.581-9.378        c6.249,2.25,13.754,4.153,22.378,4.182C247.86,295.516,255.385,293.542,261.576,291.227z"/>
						<path d="M237.549,388.154c-7.74,0.001-14.387-2.617-19.795-7.805c-17.608-16.888-18.402-57.178-17.309-79.691        c0.166-3.416,1.967-6.513,4.939-8.496c3.291-2.196,7.52-2.691,11.309-1.328c7.691,2.771,14.956,4.129,22.211,4.152        c7.464,0.019,14.822-1.357,22.496-4.228l0,0c3.676-1.373,7.819-0.971,11.086,1.078c2.963,1.858,4.838,4.835,5.146,8.166        c1.863,20.126,2.619,56.736-13.249,75.803c-6.012,7.223-13.935,11.327-23.548,12.197        C239.721,388.103,238.624,388.154,237.549,388.154z M212.346,291.074c-2.268,0-4.507,0.651-6.406,1.919        c-2.706,1.805-4.345,4.616-4.496,7.713c-1.085,22.344-0.319,62.308,17.003,78.921c5.941,5.698,13.44,8.174,22.301,7.379        c9.339-0.846,17.033-4.829,22.869-11.841c15.637-18.789,14.87-55.1,13.022-75.071c-0.279-3.017-1.985-5.719-4.682-7.41        c-3.003-1.884-6.817-2.256-10.205-0.988c-7.718,2.886-15.128,4.29-22.646,4.29c-0.067,0-0.136,0-0.204,0        c-7.371-0.024-14.746-1.401-22.546-4.211C215.053,291.305,213.694,291.074,212.346,291.074z"/>
					</g>
					<g>
						<g id="XMLID_8_">
							<path style="fill:#FFFFFF;" d="M265.59,299.009c1.9-0.758,3.903,0.596,3.997,2.698c0.751,16.841,1.324,77.308-29.099,78.453         c-34.79,1.31-32.376-59.838-31.085-76.421c0.159-2.036,2.097-3.428,3.945-2.824c5.855,1.915,15.138,4.09,26.781,3.564         C251.081,303.983,259.871,301.289,265.59,299.009z"/>
							<path d="M239.406,380.68c-6.831,0-12.645-2.449-17.297-7.291c-15.993-16.648-14.15-57.551-13.204-69.691         c0.09-1.166,0.689-2.2,1.645-2.837c0.887-0.593,1.963-0.747,2.954-0.423c8.332,2.726,17.532,3.952,26.603,3.54         c8.734-0.396,17.246-2.224,25.298-5.435l0,0c1.038-0.412,2.159-0.308,3.083,0.288c0.963,0.622,1.546,1.661,1.599,2.852         c0.561,12.562,1.179,54.863-14.382,71.76c-4.206,4.566-9.319,6.994-15.197,7.216         C240.138,380.673,239.771,380.68,239.406,380.68z M212.465,301.274c-0.474,0-0.945,0.143-1.36,0.419         c-0.697,0.466-1.136,1.226-1.203,2.084c-0.938,12.034-2.775,52.571,12.929,68.919c4.692,4.886,10.628,7.239,17.64,6.964         c5.602-0.211,10.479-2.53,14.499-6.894c15.299-16.611,14.675-58.572,14.119-71.037c-0.039-0.862-0.455-1.612-1.144-2.056         c-0.648-0.418-1.438-0.491-2.169-0.199l0,0c-8.156,3.252-16.777,5.103-25.624,5.503c-9.191,0.419-18.513-0.825-26.958-3.587         C212.955,301.312,212.71,301.274,212.465,301.274z"/>
						</g>
						<g>
							<rect x="214.226" y="339.51" transform="matrix(0.002 -1 1 0.002 -89.4708 590.3702)" width="73.629" height="1"/>
						</g>
						<g>
							<rect x="228.841" y="304.171" transform="matrix(1 -0.0078 0.0078 1 -2.6497 1.7962)" width="1" height="73.995"/>
						</g>
						<g>
							<polygon points="210.168,341.877 210.129,340.877 267.997,338.677 268.014,339.13 268.189,339.647 268.034,339.677                 "/>
						</g>
					</g>
				</g>
				<g>
					<circle style="fill:#00C257;" cx="238.777" cy="270.799" r="12.665"/>
					<path d="M238.777,283.963c-7.259,0-13.165-5.905-13.165-13.164c0-7.259,5.906-13.164,13.165-13.164s13.164,5.905,13.164,13.164       C251.942,278.058,246.036,283.963,238.777,283.963z M238.777,258.635c-6.708,0-12.165,5.457-12.165,12.164       c0,6.707,5.457,12.164,12.165,12.164c6.707,0,12.164-5.457,12.164-12.164C250.942,264.092,245.485,258.635,238.777,258.635z"/>
				</g>
				<g>
					<g>
						<g>
							<path d="M182.258,174.21c-17.165-0.489-32.1,23.839-35.659,56.136l24.313,14.255l-24.554,12.573         c2.794,29.927,15.775,52.481,32.023,52.945c19.038,0.543,35.339-29.441,36.41-66.971         C215.862,205.617,201.296,174.753,182.258,174.21z"/>
							<path d="M178.894,310.625c-0.176,0-0.35-0.002-0.527-0.007c-16.247-0.464-29.614-22.423-32.506-53.398l-0.031-0.338         l24.044-12.312l-23.806-13.957l0.035-0.322c3.668-33.277,18.839-57.049,36.17-56.581         c19.282,0.55,34.095,31.706,33.019,69.452c-0.521,18.227-4.614,35.269-11.528,47.986         C196.922,303.732,188.109,310.625,178.894,310.625z M146.888,257.463c2.907,30.281,15.839,51.708,31.508,52.155         c9.005,0.26,17.706-6.472,24.489-18.947c6.84-12.581,10.891-29.464,11.406-47.538c1.061-37.194-13.315-67.889-32.048-68.423         c-0.158-0.005-0.318-0.007-0.476-0.007c-16.246,0-31.054,23.631-34.634,55.375l24.818,14.551L146.888,257.463z"/>
						</g>
					</g>
					<g>
						<g>
							<path d="M299.655,175.827c17.17,0.195,31.124,25.099,33.393,57.512l-24.862,13.275l24.033,13.541         c-3.984,29.793-17.854,51.811-34.107,51.627c-19.045-0.216-34.138-30.826-33.712-68.369         C264.826,205.87,280.61,175.611,299.655,175.827z"/>
							<path d="M298.315,312.284c-0.07,0-0.139,0-0.209-0.001c-19.289-0.22-34.634-31.117-34.206-68.875         c0.207-18.234,4.008-35.345,10.702-48.179c6.699-12.844,15.517-19.902,24.848-19.902c0.07,0,0.141,0,0.211,0.001         c17.297,0.195,31.548,24.578,33.887,57.977l0.022,0.323l-24.345,12.998l23.534,13.261l-0.045,0.336         C328.609,290.925,314.48,312.281,298.315,312.284z M299.45,176.326c-8.941,0-17.443,6.867-23.962,19.365         c-6.623,12.697-10.384,29.646-10.589,47.727c-0.422,37.207,14.48,67.65,33.218,67.863c0.066,0.001,0.133,0.001,0.198,0.001         c15.592,0,29.269-20.845,33.362-50.858l-24.531-13.823l25.38-13.551c-2.336-32.175-16.44-56.538-32.878-56.724l0,0         C299.583,176.326,299.516,176.326,299.45,176.326z"/>
						</g>
					</g>
				</g>
			</g>
			<g>
				<g>
					<g>
						<path d="M472.297,252.606c-4.883,21.931-8.707,44.071-13.349,66.054c-3.898,18.504-7.88,37.553-15.078,55.094        c-6.748,16.43-19.164,36.642-39.869,33.069c-18.347-3.164-28.742-23.115-37.176-37.753        c-4.191-7.282-8.068-14.743-11.777-22.287l6.664-37.847c8.655,19.018,17.425,38.067,28.396,55.901        c3.835,6.224,8.665,16.513,15.874,19.625c6.905,2.986,11.851-7.534,14.397-12.354c4.715-8.927,7.335-18.923,9.944-28.626        c2.735-10.164,5.082-20.422,7.251-30.711c4.631-21.983,8.456-44.134,13.339-66.064        C454.023,232.76,475.388,238.701,472.297,252.606z"/>
					</g>
					<g>
						<g>
							<g>
								<path style="fill:#FFFFFF;" d="M419.284,218.231c0.612,6.857,9.583,10.825,14.99,6.232          c3.654-3.103,14.865-7.037,18.876-0.683c3.665,5.807,1.301,12.653-7.43,15.439c-3.814,1.217-7.935,1.435-11.711,0.105          c-3.394-1.196-6.815-3.629-6.925-8.579c-0.104-4.729-3.169-5.55-3.748-5.874c-2.494-1.396-5.621-1.327-7.039,1.155          c-4.809,8.418,0.033,31.915,28.832,30.439c0,0-5.763,1.102-7.177,5.995c-1.214,4.2,1.94,8.444,6.271,9.044l28.573,3.956          c5.902,0.817,11.423-4.027,10.669-9.938c-0.274-2.146-1.358-4.137-3.894-5.454c0,0,25.864-72.343,3.859-76.985          c0,0-7.717-1.108-11.091,5.592c0,0-0.046-14.212-11.859-11.391c-15.624,3.731-6.242,31.472-6.24,31.474          c-3.538-1.72-4.043-2.018-5.802-2.567c-4.489-1.398-9.27-1.977-13.959-1.569c-6.846,0.596-15.191,4.937-15.227,12.826          C419.25,217.712,419.261,217.973,419.284,218.231z"/>
								<path d="M474.092,276.048c-0.454,0-0.909-0.03-1.363-0.094l-28.573-3.956c-2.353-0.325-4.443-1.655-5.738-3.648          c-1.199-1.847-1.535-3.987-0.945-6.029c0.801-2.768,2.869-4.385,4.642-5.292c-14.943-0.152-21.731-7.423-24.509-11.938          c-4.349-7.069-4.168-15.067-1.743-19.314c1.146-2.006,3.251-2.58,5.302-2.215c-1.35-1.476-2.201-3.312-2.378-5.286l0,0          c-0.024-0.273-0.036-0.551-0.035-0.831c0.027-5.944,5.424-12.43,15.684-13.322c4.621-0.403,9.517,0.148,14.15,1.59          c1.548,0.482,2.182,0.792,4.541,1.945l0.281,0.137c-1.161-3.723-3.815-14.539-1.616-22.316          c1.335-4.721,4.219-7.642,8.572-8.682c3.326-0.793,6.079-0.357,8.186,1.302c3.021,2.377,3.915,6.625,4.179,8.951          c3.793-5.39,10.697-4.474,10.773-4.462c2.857,0.602,5.068,2.298,6.607,5.048c4.036,7.22,3.562,21.646-1.407,42.879          c-3.335,14.248-7.682,26.928-8.518,29.319c2.193,1.264,3.463,3.153,3.778,5.624c0.357,2.805-0.629,5.593-2.707,7.649          C479.346,274.996,476.743,276.048,474.092,276.048z M445.104,255.966l0.12,0.99c-0.055,0.011-5.481,1.109-6.791,5.642          c-0.508,1.759-0.216,3.608,0.823,5.208c1.137,1.749,2.972,2.916,5.036,3.202l28.573,3.956          c2.8,0.389,5.669-0.572,7.686-2.567c1.854-1.836,2.736-4.318,2.418-6.811c-0.289-2.267-1.51-3.973-3.629-5.073l-0.388-0.2          l0.147-0.411c0.196-0.549,19.496-55.032,10.135-71.776c-1.391-2.486-3.378-4.019-5.908-4.552          c-0.266-0.037-7.372-0.965-10.542,5.326l-0.938,1.861l-0.009-2.084c0-0.067-0.073-6.778-3.91-9.794          c-1.854-1.456-4.32-1.83-7.332-1.112c-2.972,0.71-5.208,2.394-6.646,5.006c-4.925,8.945,0.704,25.65,0.762,25.818          l0.39,1.137l-2.414-1.174c-2.364-1.154-2.926-1.429-4.4-1.889c-4.513-1.405-9.271-1.939-13.768-1.549          c-7.136,0.621-14.737,5.153-14.77,12.33c-0.001,0.249,0.009,0.494,0.031,0.735v0.002c0.273,3.062,2.387,5.763,5.517,7.045          c3.085,1.264,6.318,0.834,8.652-1.149c2.592-2.202,8.885-4.838,13.96-4.063c2.538,0.389,4.443,1.563,5.661,3.494          c1.793,2.841,2.216,5.954,1.191,8.767c-1.218,3.341-4.376,5.975-8.892,7.416c-4.229,1.348-8.388,1.382-12.029,0.1          c-4.654-1.641-7.164-4.767-7.259-9.04c-0.086-3.915-2.264-4.89-3.193-5.306c-0.127-0.057-0.228-0.104-0.299-0.143          c-2.186-1.224-5.073-1.284-6.36,0.967c-2.224,3.893-2.375,11.627,1.727,18.293          C423.366,252.546,432.825,256.582,445.104,255.966z M426.46,226.66c0.611,0.917,1.083,2.216,1.124,4.074          c0.086,3.875,2.303,6.606,6.591,8.118c3.435,1.21,7.375,1.173,11.393-0.109c4.215-1.345,7.147-3.762,8.257-6.806          c0.916-2.515,0.526-5.316-1.098-7.891c-1.057-1.674-2.728-2.696-4.967-3.039c-4.721-0.723-10.777,1.811-13.162,3.837          C432.363,226.742,429.408,227.382,426.46,226.66z"/>
							</g>
							<g>
								<rect x="461.908" y="198.527" transform="matrix(0.0078 -1 1 0.0078 269.5568 669.7208)" width="20.706" height="1"/>
							</g>
						</g>
						<g>
							
								<rect x="450.647" y="251.293" transform="matrix(0.1504 -0.9886 0.9886 0.1504 128.8434 664.6875)" width="1" height="12.175"/>
						</g>
						<g>
							<rect x="474.57" y="255.127" transform="matrix(0.093 -0.9957 0.9957 0.093 172.3711 708.5158)" width="1" height="9.042"/>
						</g>
						<g>
							
								<rect x="473.721" y="198.571" transform="matrix(0.1569 -0.9876 0.9876 0.1569 192.2445 645.5424)" width="1.001" height="23.202"/>
						</g>
					</g>
				</g>
				<g>
					<g>
						<g>
							<g>
								<path style="fill:#FFB2B0;" d="M123.373,411.281l16.519,78.199l0.035,0.784l0.68,17.185c8.553,1.998,20.809,3.911,35.512,3          c14.372-0.891,26.079-4.16,34.23-7.109c-0.453-5.807-0.896-11.637-1.349-17.444c-0.01-0.165-0.03-0.319-0.04-0.485          l7.211-79.597l1.635-18.085c-20.57-1.534-37.197-0.974-48.586-0.193c-22.128,1.525-49.613,5.679-49.595,5.977          L123.373,411.281z"/>
								<path d="M168.579,511.182c-9.426,0-18.841-1.087-28.085-3.246l-0.371-0.087l-0.73-18.347l-20.257-95.886          c-0.04-0.587-0.059-0.896,16.917-3.128c6.98-0.917,20.565-2.586,33.134-3.452c15.922-1.092,32.293-1.027,48.657,0.193          l0.507,0.038l-8.892,98.188l0.04,0.41l1.379,17.814l-0.358,0.129c-11.084,4.011-22.647,6.412-34.369,7.139          C173.629,511.104,171.103,511.182,168.579,511.182z M141.092,507.048c11.509,2.65,23.283,3.629,34.996,2.901          c11.501-0.713,22.849-3.052,33.733-6.952l-1.359-17.558l8.801-97.25c-16.148-1.18-32.298-1.233-48.008-0.155          c-20.34,1.402-45.591,5.093-49.051,5.829l20.177,95.513l0.045,0.865L141.092,507.048z"/>
							</g>
							<g>
								<path style="fill:#AD2328;" d="M139.892,489.48l0.035,0.784c10.098,0.789,21.649,1.06,34.344,0.279          c13.005-0.799,24.668-2.56,34.729-4.647c-0.01-0.165-0.03-0.319-0.04-0.485l7.309-84.313l-94.714,2.39L139.892,489.48z"/>
								<path d="M159.097,491.508c-6.425,0-12.846-0.248-19.209-0.746l-0.44-0.034l-0.054-1.184l-18.451-86.539l0.601-0.016          l95.274-2.404l-0.049,0.557l-7.309,84.312l0.065,0.843l-0.423,0.088c-11.439,2.374-23.148,3.941-34.8,4.658          C169.251,491.353,164.173,491.508,159.097,491.508z M140.406,489.799c11.201,0.854,22.582,0.938,33.835,0.245          c11.457-0.705,22.969-2.235,34.225-4.55l-0.004-0.055l7.262-83.828l-93.553,2.361l18.22,85.484L140.406,489.799z"/>
							</g>
							<g>
								<g>
									<path style="fill:#FFFFFF;" d="M205.492,488.738c0.749,0,1.243,0.597,1.299,1.299c0.261,3.29,0.522,6.581,0.783,9.872           c0.056,0.7-0.637,1.299-1.299,1.299c-0.749,0-1.243-0.597-1.299-1.299c-0.261-3.291-0.522-6.581-0.783-9.872           C204.138,489.337,204.83,488.738,205.492,488.738z"/>
								</g>
								<g>
									<path style="fill:#FFFFFF;" d="M142.299,493.724c0.051-0.7,0.56-1.299,1.299-1.299c0.663,0,1.35,0.595,1.299,1.299           c-0.192,2.617-0.242,5.322,0.097,7.931c0.108,0.831,0.371,1.543,1.098,1.991c0.814,0.502,1.785,0.685,2.717,0.837           c0.693,0.113,1.079,0.973,0.907,1.598c-0.202,0.736-0.903,1.02-1.598,0.907c-2.48-0.405-4.969-1.505-5.553-4.202           c-0.305-1.408-0.336-2.914-0.377-4.349C142.143,496.864,142.184,495.292,142.299,493.724z"/>
								</g>
								<g>
									<path style="fill:#FFFFFF;" d="M205.008,436.389c0.313-3.869,0.627-7.738,0.94-11.607c0.057-0.699,0.556-1.299,1.299-1.299           c0.659,0,1.356,0.596,1.299,1.299c-1.1,13.585-2.2,27.169-3.3,40.754c-0.313,3.869-0.627,7.738-0.94,11.607           c-0.057,0.699-0.556,1.299-1.299,1.299c-0.659,0-1.356-0.596-1.299-1.299C202.808,463.558,203.908,449.974,205.008,436.389           z"/>
								</g>
							</g>
							<g>
								<g>
									<g>
										<path style="fill:#FFFFFF;" d="M179.489,417.124c0-1.339,1.089-2.429,2.429-2.429c1.339,0,2.429,1.089,2.429,2.429            s-1.089,2.429-2.429,2.429C180.579,419.552,179.489,418.463,179.489,417.124z M179.749,417.124            c0,1.196,0.973,2.169,2.169,2.169s2.169-0.973,2.169-2.169s-0.973-2.169-2.169-2.169S179.749,415.928,179.749,417.124z"/>
									</g>
								</g>
								<g>
									<g>
										<path style="fill:#FFFFFF;" d="M145.612,474.715c0-1.339,1.089-2.429,2.429-2.429c1.339,0,2.428,1.089,2.428,2.429            c0,1.339-1.089,2.429-2.428,2.429C146.702,477.143,145.612,476.054,145.612,474.715z M145.872,474.715            c0,1.196,0.973,2.169,2.169,2.169c1.196,0,2.169-0.973,2.169-2.169c0-1.196-0.973-2.169-2.169-2.169            C146.845,472.546,145.872,473.519,145.872,474.715z"/>
									</g>
								</g>
								<g>
									<g>
										<path style="fill:#FFFFFF;" d="M138.353,419.906c0-1.339,1.089-2.429,2.429-2.429c1.339,0,2.428,1.09,2.428,2.429            c0,1.339-1.089,2.429-2.428,2.429C139.442,422.335,138.353,421.246,138.353,419.906z M138.613,419.906            c0,1.196,0.973,2.169,2.169,2.169c1.196,0,2.169-0.973,2.169-2.169c0-1.196-0.973-2.169-2.169-2.169            C139.586,417.737,138.613,418.711,138.613,419.906z"/>
									</g>
								</g>
								<g>
									<g>
										<path style="fill:#FFFFFF;" d="M155.671,413.269c0-0.796,0.648-1.444,1.444-1.444c0.796,0,1.444,0.648,1.444,1.444            c0,0.796-0.648,1.444-1.444,1.444C156.319,414.713,155.671,414.065,155.671,413.269z M155.931,413.269            c0,0.653,0.531,1.184,1.185,1.184c0.653,0,1.184-0.531,1.184-1.184c0-0.653-0.531-1.184-1.184-1.184            C156.462,412.084,155.931,412.616,155.931,413.269z"/>
									</g>
								</g>
								<g>
									<g>
										<path style="fill:#FFFFFF;" d="M156.639,432.385c0-0.796,0.648-1.444,1.444-1.444c0.796,0,1.444,0.648,1.444,1.444            c0,0.796-0.648,1.444-1.444,1.444C157.287,433.829,156.639,433.181,156.639,432.385z M156.899,432.385            c0,0.653,0.531,1.184,1.184,1.184c0.653,0,1.185-0.531,1.185-1.184c0-0.653-0.531-1.184-1.185-1.184            C157.43,431.201,156.899,431.732,156.899,432.385z"/>
									</g>
								</g>
								<g>
									<g>
										<path style="fill:#FFFFFF;" d="M191,470.376c0-0.796,0.648-1.444,1.444-1.444c0.797,0,1.444,0.648,1.444,1.444            s-0.648,1.444-1.444,1.444C191.648,471.82,191,471.172,191,470.376z M191.26,470.376c0,0.653,0.531,1.184,1.184,1.184            c0.653,0,1.185-0.531,1.185-1.184s-0.531-1.184-1.185-1.184C191.791,469.191,191.26,469.723,191.26,470.376z"/>
									</g>
								</g>
								<g>
									<g>
										<path style="fill:#FFFFFF;" d="M207.213,414.478c0-0.796,0.648-1.444,1.444-1.444c0.796,0,1.444,0.648,1.444,1.444            c0,0.796-0.648,1.444-1.444,1.444C207.861,415.922,207.213,415.275,207.213,414.478z M207.472,414.478            c0,0.653,0.531,1.184,1.184,1.184c0.653,0,1.185-0.531,1.185-1.184s-0.531-1.184-1.185-1.184            C208.004,413.294,207.472,413.826,207.472,414.478z"/>
									</g>
								</g>
							</g>
						</g>
						<g>
							<g>
								<g>
									<path style="fill:#FFFFFF;" d="M116.278,394.596c0.017-5.676,2.957-12.735,12.85-12.327           c-5.423-13.967,22.682-42.215,47.085-14.553c10.003-12.393,33.527-0.994,25.822,15.63c1.466-0.733,3.101-1.214,4.841-1.369           c6.9-0.618,12.839,4.086,13.267,10.506s-4.82,12.125-11.719,12.742c-0.26,0.023-0.518,0.037-0.775,0.045l-0.055,1.343           c-0.084,2.051-1.933,3.707-4.13,3.698c-2.197-0.009-3.91-1.678-3.826-3.729l0.056-1.373l-3.042,0.09l-0.286,6.97           c-0.084,2.051-1.933,3.707-4.13,3.698c-2.197-0.008-3.91-1.678-3.826-3.729l0.191-4.661c0.043-1.056-0.87-1.87-1.892-1.685           c-0.282,0.445-2.453,3.747-6.583,4.258c-3.547,0.439-6.04-1.491-6.531-1.888c-0.171,0.008-1.07,0.069-1.779,0.846           c-0.45,0.492-0.719,1.155-0.701,1.871l0.363,14.155c0.053,2.052-1.226,3.976-3.167,4.551           c-2.47,0.731-4.695-0.983-4.758-3.451l-0.452-17.622c-0.031-1.217-1.197-2.967-2.153-2.253           c-6.116,4.571-10.664,0.312-10.664,0.312c-0.845,0.676-3.494,2.622-7.367,2.76c-3.963,0.141-6.712-1.7-7.559-2.319           l0.004,0.885c0.01,2.049-0.9,9.707-4.783,9.142c-3.449-0.501-3.168-6.806-3.178-8.855           c-0.003-0.538-0.673-2.575-0.952-2.717c-0.95-0.484-1.998-0.682-2.947-1.143c-1.713-0.833-3.317-1.941-4.604-3.368           C117.314,399.296,116.271,397.037,116.278,394.596z"/>
									<path d="M167.171,430.351c-0.872,0-1.711-0.263-2.411-0.772c-1.05-0.764-1.671-1.979-1.706-3.334l-0.452-17.622           c-0.018-0.699-0.53-1.65-1.016-1.887c-0.157-0.075-0.246-0.047-0.338,0.022c-5.423,4.055-9.761,1.448-10.969,0.548           c-1.368,1.024-3.916,2.501-7.345,2.623c-3.131,0.089-5.582-0.963-7.073-1.879c-0.006,1.438-0.485,6.776-2.833,8.818           c-0.739,0.643-1.585,0.898-2.522,0.765c-3.64-0.53-3.616-6.374-3.606-8.869l0.001-0.479           c-0.002-0.396-0.511-1.957-0.745-2.308c-0.439-0.217-0.903-0.372-1.393-0.536c-0.488-0.164-0.993-0.333-1.479-0.57           c-1.909-0.927-3.51-2.099-4.756-3.481c-1.78-1.975-2.757-4.387-2.75-6.794l0,0c0.007-2.308,0.498-6.637,3.714-9.713           c2.172-2.079,5.138-3.13,8.824-3.13c0.035,0,0.07,0,0.104,0c-2.156-7.044,3.119-16.917,12.109-22.388           c11.669-7.1,24.968-4.257,35.672,7.589c5.598-6.431,14.556-6.039,20.656-2.243c4.911,3.056,9.291,9.444,6.132,17.667           c1.226-0.478,2.513-0.779,3.843-0.898c3.602-0.323,7.157,0.777,9.772,3.014c2.398,2.052,3.833,4.878,4.038,7.957           c0.443,6.679-5.018,12.633-12.174,13.273c-0.113,0.01-0.226,0.018-0.34,0.025l-0.035,0.885           c-0.095,2.308-2.162,4.178-4.612,4.178c-0.007,0-0.013,0-0.02,0c-1.232-0.005-2.405-0.495-3.218-1.345           c-0.757-0.792-1.149-1.823-1.105-2.905l0.034-0.836l-2.04,0.061l-0.266,6.504c-0.095,2.307-2.163,4.178-4.614,4.178           c-0.006,0-0.012,0-0.018,0c-1.233-0.005-2.406-0.495-3.219-1.345c-0.757-0.792-1.149-1.823-1.105-2.905l0.191-4.661           c0.015-0.358-0.127-0.694-0.389-0.923c-0.201-0.175-0.454-0.268-0.717-0.268h-0.001c-0.66,0.963-2.912,3.798-6.807,4.279           c-3.285,0.413-5.714-1.076-6.744-1.867c-0.296,0.044-0.823,0.189-1.259,0.666c-0.383,0.419-0.585,0.958-0.57,1.521           l0.363,14.155c0.06,2.336-1.39,4.41-3.526,5.043C168.027,430.288,167.595,430.351,167.171,430.351z M161.418,405.69           c0.199,0,0.402,0.049,0.604,0.146c0.913,0.443,1.554,1.785,1.579,2.761l0.452,17.622c0.026,1.042,0.498,1.972,1.294,2.55           c0.8,0.583,1.8,0.735,2.822,0.435c1.676-0.496,2.857-2.203,2.81-4.059l-0.363-14.155c-0.021-0.821,0.274-1.61,0.832-2.221           c0.805-0.881,1.83-0.994,2.126-1.007l0.19-0.009l0.147,0.119c0.639,0.517,2.971,2.172,6.155,1.78           c3.788-0.469,5.847-3.438,6.222-4.029l0.117-0.185l0.216-0.039c0.63-0.113,1.269,0.062,1.749,0.48           c0.492,0.429,0.759,1.055,0.732,1.718l-0.191,4.661c-0.033,0.808,0.261,1.579,0.828,2.173           c0.626,0.654,1.537,1.032,2.5,1.036c0.005,0,0.009,0,0.014,0c1.922,0,3.542-1.441,3.614-3.219l0.305-7.435l4.044-0.119           l-0.077,1.908c-0.033,0.808,0.261,1.58,0.828,2.173c0.626,0.654,1.536,1.032,2.499,1.036c0.005,0,0.011,0,0.016,0           c1.921,0,3.54-1.44,3.612-3.219l0.074-1.808l0.465-0.015c0.248-0.007,0.496-0.021,0.746-0.043           c6.62-0.592,11.674-6.07,11.266-12.211c-0.187-2.809-1.497-5.388-3.689-7.263c-2.412-2.062-5.707-3.074-9.033-2.778           c-1.639,0.147-3.207,0.591-4.663,1.319l-1.278,0.64l0.6-1.297c3.796-8.189-0.225-14.45-5.252-17.577           c-5.865-3.648-14.525-3.975-19.728,2.472l-0.372,0.461l-0.392-0.444c-10.423-11.817-23.43-14.743-34.789-7.829           c-8.746,5.321-13.991,15.336-11.455,21.869l0.276,0.712l-0.763-0.031c-3.792-0.167-6.796,0.797-8.925,2.835           c-2.948,2.821-3.399,6.846-3.405,8.994c-0.006,2.158,0.879,4.332,2.492,6.121c1.16,1.287,2.658,2.382,4.451,3.252           c0.429,0.209,0.881,0.361,1.359,0.521c0.526,0.177,1.071,0.359,1.597,0.627c0.605,0.308,1.222,2.718,1.224,3.159           l-0.001,0.488c-0.009,2.235-0.03,7.471,2.751,7.875c0.643,0.095,1.206-0.08,1.722-0.528           c1.923-1.673,2.497-6.535,2.489-8.116l-0.008-1.875l0.799,0.584c1.21,0.883,3.761,2.356,7.247,2.222           c3.427-0.121,5.902-1.713,7.072-2.65l0.336-0.27l0.317,0.294c0.174,0.162,4.333,3.91,10.023-0.346           C160.886,405.78,161.148,405.69,161.418,405.69z"/>
								</g>
							</g>
							<g>
								<path style="fill:#FFFFFF;" d="M194.631,394.939c-0.199-3.438-3.197-6.025-6.697-5.778c-3.5,0.247-6.175,3.233-5.977,6.671"/>
								<path d="M181.459,395.862c-0.215-3.705,2.675-6.935,6.44-7.199c1.851-0.134,3.623,0.463,4.994,1.669          c1.34,1.177,2.134,2.804,2.236,4.579l-0.998,0.059c-0.088-1.508-0.762-2.888-1.898-3.887          c-1.169-1.029-2.689-1.542-4.264-1.422c-3.223,0.227-5.695,2.982-5.513,6.143L181.459,395.862z"/>
							</g>
							<g>
								<g>
									<path style="fill:#FFFFFF;" d="M158.565,382.989c-0.156-3.441-3.122-6.064-6.623-5.859c-3.502,0.205-6.214,3.16-6.058,6.6"/>
									<path d="M145.385,383.752c-0.169-3.707,2.76-6.901,6.527-7.121c1.858-0.115,3.617,0.506,4.973,1.728           c1.324,1.194,2.099,2.83,2.179,4.608l-0.998,0.045c-0.069-1.508-0.726-2.897-1.851-3.91           c-1.155-1.042-2.671-1.562-4.244-1.473c-3.225,0.189-5.731,2.914-5.588,6.078L145.385,383.752z"/>
								</g>
								<g>
									<path style="fill:#FFFFFF;" d="M145.879,383.963c-0.104-2.289-2.077-4.034-4.406-3.898c-2.33,0.136-4.134,2.102-4.03,4.391           "/>
									<path d="M136.943,384.479c-0.116-2.557,1.902-4.761,4.5-4.913c1.282-0.079,2.495,0.35,3.432,1.193           c0.914,0.824,1.448,1.954,1.503,3.182l-0.998,0.045c-0.044-0.958-0.461-1.84-1.175-2.483           c-0.736-0.664-1.692-0.991-2.703-0.938c-2.054,0.121-3.651,1.856-3.561,3.87L136.943,384.479z"/>
								</g>
							</g>
						</g>
					</g>
					<g>
						<g>
							<path d="M126.583,465.07c-23.324,5.281-46.711,10.373-70.507,12.961c-9.347,1.027-19.584,2.085-28.553-1.404         c-10.793-4.212-14.303-14.575-11.893-25.336c4.16-18.567,16.796-35.049,28.521-49.52         c21.669-26.74,47.131-50.012,74.384-70.937l4.034,23.272c-9.053,7.251-17.844,14.816-26.321,22.727         c-11.956,11.138-23.282,22.947-33.761,35.479c-6.067,7.261-12.029,14.669-16.995,22.737         c-3.741,6.077-15.832,21.899-2.756,23.586c8.592,1.111,17.226-1.886,25.619-3.175c17.708-2.724,35.196-6.643,52.652-10.604         C134.169,441.882,139.722,462.094,126.583,465.07z"/>
						</g>
						<g>
							<g>
								<path style="fill:#FFFFFF;" d="M102.961,439.19c3.354-7.955,9.978-0.455,9.978-0.455l1.207,1.31          c0.993-11.816,5.714-28.521,12.251-27.266c9.14,1.755,8.136,23.095,8.136,23.095s27.558,6.685,42.682-2.588          c2.475-1.517,5.675-1.328,7.75,0.704c2.233,2.185,3.645,5.864-0.067,11.733c0,0,10.751,3.799,3.578,16.216          c0,0,0.656,0.534,1.49,1.634c7.603,10.028-24.009,34.393-65.167,17.35c0,0,2.821,9.182-5.229,8.355          C106.964,487.982,99.607,447.145,102.961,439.19z"/>
								<path d="M120.551,489.83c-0.329,0-0.673-0.019-1.031-0.056c-3.057-0.314-5.966-2.77-8.648-7.298          c-7.58-12.8-10.898-37.486-8.371-43.482l0,0c0.977-2.315,2.333-3.63,4.032-3.908c3.325-0.546,6.642,3.158,6.781,3.316          l0.438,0.476c1.013-10.04,4.426-22.096,9.034-25.588c1.197-0.907,2.443-1.244,3.707-1.003          c8.839,1.697,8.652,20.074,8.557,23.19c3.427,0.763,28.111,5.839,41.904-2.618c2.743-1.682,6.181-1.362,8.362,0.772          c2.145,2.099,3.897,5.844,0.313,11.855c1.216,0.564,4.047,2.188,5.26,5.473c1.134,3.072,0.535,6.73-1.78,10.877          c0.286,0.275,0.739,0.751,1.257,1.434c2.044,2.695,1.532,6.424-1.403,10.228c-8.305,10.759-33.391,20.308-63.445,8.256          c0.312,1.542,0.646,4.542-0.911,6.438C123.712,489.281,122.351,489.83,120.551,489.83z M103.422,439.384          c-2.444,5.798,1.096,30.401,8.309,42.583c2.512,4.241,5.167,6.533,7.89,6.814c1.964,0.201,3.381-0.211,4.212-1.223          c1.785-2.174,0.501-6.445,0.488-6.488l-0.312-1.015l0.981,0.406c17.521,7.257,49.722,9.866,63.18-7.573          c2.64-3.419,3.148-6.704,1.398-9.013c-0.781-1.03-1.402-1.544-1.408-1.55l-0.328-0.269l0.212-0.368          c2.323-4.022,2.965-7.515,1.907-10.381c-1.372-3.717-5.181-5.1-5.22-5.113l-0.591-0.209l0.335-0.53          c2.915-4.608,2.963-8.346,0.141-11.107c-1.855-1.816-4.791-2.077-7.14-0.635c-15.128,9.272-41.927,2.921-43.062,2.647          l-0.4-0.098l0.02-0.412c0.01-0.209,0.88-20.927-7.731-22.58c-0.981-0.188-1.938,0.078-2.914,0.817          c-4.551,3.449-7.902,15.97-8.745,25.999l-0.095,1.134l-1.979-2.148c-0.036-0.042-3.101-3.446-5.878-2.999          C105.356,436.294,104.255,437.408,103.422,439.384L103.422,439.384z"/>
							</g>
							<g>
								<path d="M157.965,454.094c-3.71,0-6.004-0.431-6.064-0.443l0.193-0.98c0.162,0.031,16.268,3.041,32.535-7.368l0.539,0.842          C174.697,452.843,164.28,454.094,157.965,454.094z"/>
							</g>
							<g>
								<path d="M157.569,470.457c-2.646,0-4.189-0.202-4.239-0.209l0.139-0.99c0.159,0.023,16.333,2.121,34.771-7.76l0.473,0.881          C175.642,469.384,163.672,470.457,157.569,470.457z"/>
							</g>
							<g>
								
									<rect x="114.518" y="439.278" transform="matrix(0.9813 -0.1924 0.1924 0.9813 -83.5623 30.4457)" width="0.999" height="12.601"/>
							</g>
							<g>
								<line style="fill:#FFFFFF;" x1="121.496" y1="471.996" x2="124.799" y2="480.923"/>
								<rect x="122.648" y="471.701" transform="matrix(0.9379 -0.347 0.347 0.9379 -157.679 72.3364)" width="1" height="9.518"/>
							</g>
						</g>
					</g>
				</g>
			</g>
		</g>
	</g>
</g>















</svg>
