<?xml version="1.0" encoding="UTF-8"?>
<!-- Generator: Adobe Illustrator 27.1.1, SVG Export Plug-In . SVG Version: 6.00 Build 0)  -->
<svg xmlns="http://www.w3.org/2000/svg" xmlns:xlink="http://www.w3.org/1999/xlink" version="1.1" id="Capa_1" x="0px" y="0px" viewBox="0 0 511.791 511.791" style="enable-background:new 0 0 511.791 511.791;" xml:space="preserve" width="512" height="512">
<g>
	<g>
		<rect y="429.172" width="511.791" height="1"/>
	</g>
	<g>
		<g>
			<g>
				
					<rect x="306.122" y="317.59" transform="matrix(0.1113 -0.9938 0.9938 0.1113 -65.784 615.7357)" style="fill:#FFB500;" width="10.536" height="54.12"/>
			</g>
		</g>
		<g>
			<g>
				
					<rect x="263.724" y="212.33" transform="matrix(0.8462 -0.5328 0.5328 0.8462 -71.5553 187.2367)" style="fill:#FFB500;" width="49.812" height="10.531"/>
			</g>
		</g>
		<g>
			<g>
				
					<rect x="281.213" y="274.304" transform="matrix(0.9907 -0.1361 0.1361 0.9907 -35.1508 44.8114)" style="fill:#FFB500;" width="58.108" height="10.534"/>
			</g>
		</g>
	</g>
	<g>
		<g>
			<g>
				<g>
					<path style="fill:#FFB2B0;" d="M242.834,230.498c0,1.678-0.656,3.33-1.918,4.931c-9.513,12.082-53.216,21.196-105.724,21.196       c-54.023,0-98.76-9.656-106.481-22.254c-0.757-1.265-1.161-2.556-1.161-3.872c0-3.305,2.523-6.454,7.116-9.372       c15.493-9.811,54.654-16.781,100.526-16.781c44.359,0,82.435,6.506,98.912,15.826       C239.731,223.32,242.834,226.832,242.834,230.498z"/>
					<path d="M135.192,257.125c-53.959,0-98.92-9.46-106.907-22.493c-0.82-1.369-1.234-2.758-1.234-4.134       c0-3.401,2.472-6.696,7.347-9.793c16.174-10.242,55.738-16.859,100.794-16.859c43.171,0,82.092,6.238,99.158,15.891       c5.961,3.336,8.985,6.958,8.985,10.762c0,1.772-0.682,3.536-2.025,5.241C231.553,248.13,186.924,257.125,135.192,257.125z        M135.192,204.845c-44.19,0-84.481,6.713-100.259,16.704c-4.567,2.901-6.883,5.913-6.883,8.949c0,1.192,0.367,2.408,1.09,3.616       c7.689,12.546,53.282,22.011,106.052,22.011c51.451,0,95.749-8.834,105.331-21.005c1.202-1.524,1.811-3.08,1.811-4.622       c0-3.367-2.931-6.787-8.475-9.89C216.931,211.031,178.203,204.845,135.192,204.845z"/>
				</g>
				<g>
					<path style="fill:#FFB2B0;" d="M210.079,471.846l8.284,31.437c-22.782,4.364-51.063,7.865-83.535,7.693       c-30.524-0.148-57.227-3.526-79.072-7.693l6.608-31.437l13.142-62.627c-32.176-22.166-54.49-61.936-57.301-107.994       c-0.197-3.255-0.296-6.534-0.296-9.838c0-20.218,1.8-44.85,8.975-61.887c0.247-0.592,0.419-0.863,1.307-2.342       c-0.666,1.208-0.986,2.441-0.986,3.674c0,1.332,0.419,2.614,1.183,3.871c7.717,12.624,52.518,22.289,106.638,22.289       c52.567,0,96.332-9.123,105.874-21.229c1.257-1.603,1.923-3.255,1.923-4.931c0-0.641-0.099-1.282-0.321-1.948       c0.049,0.123,0.099,0.247,0.173,0.345c5.745,15.09,7.816,36.812,8.21,55.353c0.049,2.318,0.074,4.611,0.074,6.805       c0,50.126-23.054,93.94-57.4,117.684C199.057,429.979,204.58,450.913,210.079,471.846z"/>
					<path d="M137.116,511.481c-0.765,0-1.526-0.002-2.291-0.006c-26.409-0.128-53.043-2.719-79.164-7.702l-0.5-0.096l19.786-94.236       c-33.116-22.954-54.507-63.369-57.243-108.186c-0.197-3.25-0.297-6.57-0.297-9.868c0-18.557,1.564-44.391,9.014-62.081       c0.239-0.575,0.411-0.861,1.134-2.065l0.205-0.341l0.867,0.499c-0.613,1.114-0.924,2.269-0.924,3.433       c0,1.201,0.363,2.382,1.111,3.611c7.684,12.57,53.345,22.049,106.211,22.049c51.511,0,95.873-8.848,105.481-21.039       c1.205-1.536,1.816-3.091,1.816-4.622c0-0.609-0.097-1.194-0.295-1.789l0.938-0.344c0.036,0.091,0.074,0.184,0.108,0.23       l0.068,0.123c6.182,16.239,7.895,39.155,8.243,55.52c0.049,2.303,0.074,4.596,0.074,6.816c0,24.268-5.489,48.114-15.873,68.958       c-10.025,20.124-24.354,37.038-41.454,48.937l7.025,26.691c3.137,11.912,6.275,23.829,9.405,35.745l8.421,31.954l-0.526,0.101       C191.749,508.89,164.393,511.481,137.116,511.481z M56.35,502.886c25.9,4.909,52.302,7.462,78.48,7.589       c27.775,0.133,55.686-2.404,82.913-7.583l-8.147-30.919c-3.13-11.916-6.268-23.833-9.405-35.744l-7.204-27.37l0.289-0.199       c35.272-24.384,57.184-69.321,57.184-117.273c0-2.212-0.025-4.499-0.074-6.794c-0.327-15.378-1.861-36.558-7.192-52.431       c-0.257,1.315-0.893,2.625-1.9,3.909c-9.784,12.412-54.475,21.42-106.268,21.42c-54.057,0-99.085-9.475-107.065-22.529       c-0.762-1.254-1.171-2.475-1.245-3.722c-6.846,17.477-8.308,42.218-8.308,60.146c0,3.278,0.099,6.578,0.295,9.808       c2.724,44.636,24.065,84.865,57.086,107.613l0.274,0.189L56.35,502.886z"/>
				</g>
			</g>
			<g>
				<g>
					<path style="fill:#AD2328;" d="M237.648,292.331c-15.446,4.764-39.375,10.812-49.274,12.797       c-13.575,2.709-27.446,1.679-40.612-2.835c-5.436-42.013,1.273-93.569,3.66-109.482c0.173-1.159,0.32-2.12,0.444-2.885       c-0.345-3.797-2.219-10.997-5.03-19.035c-4.068-11.588-8.581-20.538-10.085-19.996c-0.074,0.025-0.123,0.074-0.173,0.123       c-0.025,0.049-0.049,0.123-0.074,0.197c-0.025,0.025-0.049,0.074-0.074,0.099c-25.403,30.362-30.132,82.385-26.968,137.875       c-25.36-4.578-54.208-1.581-75.359,12.863c2.196,43.629,34.521,87.856,59.655,108.853c-2.525,21.953-9.7,46.335-12.225,68.288       c13.12,3.866,33.552,10.313,58.263,9.575c22.829-0.681,41.903-6.704,53.438-11.771c-4.295-19.829-11.554-46.956-15.849-66.762       C204.214,387.745,248.179,338.468,237.648,292.331z"/>
					<path d="M135.898,489.327c-21.902,0.001-40.238-5.43-52.607-9.092l-2.303-0.68l0.048-0.418c1.265-11,3.733-22.79,6.12-34.192       c2.362-11.286,4.805-22.952,6.074-33.829c-13.788-11.568-27.748-28.28-38.33-45.892c-12.937-21.53-20.301-43.366-21.297-63.146       l-0.014-0.28l0.232-0.158c19.158-13.082,47.192-17.946,75.106-13.054c-3.711-66.335,5.162-111.348,27.119-137.592       c0.003-0.005,0.006-0.01,0.01-0.015c0.025-0.069,0.05-0.134,0.073-0.182l0.095-0.132c0.068-0.068,0.182-0.182,0.367-0.244       c0.161-0.057,0.439-0.096,0.79,0.071c2.327,1.105,6.776,11.264,9.925,20.234c2.763,7.901,4.7,15.241,5.056,19.155l0.005,0.063       l-0.01,0.062c-0.124,0.763-0.271,1.722-0.443,2.879c-2.237,14.915-9.101,66.768-3.698,109.035       c13.025,4.409,26.869,5.35,40.058,2.718c10.284-2.062,34.027-8.096,49.225-12.784l0.515-0.159l0.12,0.525       c4.683,20.514-0.763,43.459-16.184,68.195c-15.312,24.561-35.706,43.022-44.013,50.01c2.135,9.813,5.033,21.587,7.836,32.977       c2.849,11.575,5.795,23.544,7.949,33.49l0.087,0.399l-0.374,0.165c-9.317,4.092-28.672,11.067-53.624,11.812       C138.496,489.308,137.189,489.327,135.898,489.327z M82.079,478.833l1.497,0.442c13.036,3.86,32.746,9.698,56.206,8.993       c24.454-0.73,43.489-7.482,52.877-11.564c-2.143-9.853-5.046-21.649-7.856-33.063c-2.833-11.511-5.763-23.413-7.906-33.298       l-0.064-0.295l0.232-0.194c8.117-6.805,28.658-25.296,44.038-49.967c15.145-24.292,20.586-46.804,16.176-66.918       c-15.242,4.673-38.614,10.607-48.806,12.65c-13.461,2.686-27.594,1.7-40.872-2.852l-0.294-0.101l-0.04-0.308       c-5.493-42.452,1.414-94.637,3.661-109.62c0.168-1.129,0.313-2.072,0.434-2.828c-0.364-3.854-2.275-11.066-4.998-18.853       c-4.288-12.214-8.195-19.235-9.391-19.665l-0.031,0.096l-0.087,0.085c-0.003,0.018-0.039,0.063-0.071,0.095       c-21.827,26.091-30.61,71.076-26.822,137.493l0.036,0.633l-0.624-0.112c-27.752-5.01-55.673-0.29-74.757,12.627       c1.043,19.543,8.35,41.112,21.141,62.4c10.581,17.609,24.548,34.307,38.321,45.813l0.207,0.173l-0.031,0.268       c-1.265,10.999-3.733,22.787-6.12,34.187C85.784,456.384,83.353,467.998,82.079,478.833z"/>
				</g>
				<g>
					<path style="fill:#FFFFFF;" d="M233.136,283.634c-1.977-0.782-4.207-1.073-6.383-0.87c-6.357,0.592-10.694,5.749-16.432,7.962       c-4.471,1.724-8.288-1.018-12.592-1.719c-5.085-0.828-7.757,1.775-11.752,4.404c-5.588,3.677-11.024-0.093-16.981,0.475       c-5.798,0.554-12.393,4.345-17.946,0.886c-4.079-2.541-5.525-7.284-10.443-8.747c-5.109-1.52-10.951,0.495-15.369-3.266       c-4.439-3.779-8.829-5.932-14.793-5.253c-3.317,0.378-8.843,3.929-11.839,3.38c1.758,0.322-5.15-5.347-6.651-5.915       c-3.894-1.475-7.749-0.886-11.524,0.493c-1.559,0.57-2.942,1.631-4.478,2.17c-4.569,1.604-3.601,0.702-8.522-0.22       c-3.688-0.691-7.184-0.328-10.675,0.991c-1.675,0.632-9.276,6.335-10.672,5.766c-11.345-4.618-21.433,22.298-5.374,23.05       c7.191,0.337,12.473-7.526,18.968-9.949c5.068-1.891,9.927,0.365,15.046,0.094c4.039-0.214,6.911-3.551,10.81-3.736       c2.562-0.119,5.021,2.409,7.18,3.444c2.667,1.278,5.432,1.937,8.437,1.765c2.995-0.171,5.744-2.175,8.744-2.17       c3.841,0.007,4.181,2.58,6.908,4.666c3.192,2.442,7.279,4.068,11.345,4.139c7.411,0.13,9.894,6.001,16.903,8.107       c8.789,2.64,16.133-1.766,24.66-1.408c7.965,0.334,13.699,5.195,21.439,0.188c1.974-1.277,2.697-3.593,5.188-4.194       c4.494-1.08,9.508,2.685,14.493,1.848c5.162-0.867,9.542-4.166,13.882-6.84c5.275-3.25,11.448,0.754,13.951-6.938       C240.267,291.318,238.114,285.604,233.136,283.634z"/>
					<path d="M183.873,315.113c-2.363,0-4.644-0.575-6.991-1.168c-2.271-0.573-4.62-1.165-7.19-1.273       c-3.398-0.141-6.675,0.498-9.843,1.118c-4.717,0.921-9.595,1.875-14.939,0.27c-3.104-0.933-5.314-2.561-7.451-4.137       c-2.705-1.994-5.26-3.878-9.317-3.949c-3.964-0.069-8.207-1.616-11.64-4.242c-0.939-0.718-1.61-1.495-2.202-2.18       c-1.193-1.381-2.055-2.378-4.403-2.382c-0.003,0-0.007,0-0.011,0c-1.475,0-2.887,0.514-4.383,1.058       c-1.385,0.503-2.816,1.024-4.321,1.11c-2.948,0.165-5.785-0.425-8.682-1.813c-0.729-0.349-1.462-0.842-2.238-1.363       c-1.54-1.035-3.107-2.104-4.704-2.032c-1.828,0.087-3.425,0.912-5.115,1.786c-1.747,0.903-3.552,1.836-5.691,1.95       c-1.996,0.103-3.955-0.164-5.849-0.424c-3.1-0.426-6.026-0.827-9.049,0.299c-2.511,0.936-4.912,2.767-7.234,4.538       c-3.646,2.78-7.411,5.654-11.932,5.442c-5.156-0.242-7.276-3.021-8.147-5.311c-1.823-4.792,0.206-12.122,4.522-16.34       c2.847-2.783,6.118-3.624,9.211-2.362c0.759,0.21,4.639-2.293,6.728-3.638c1.64-1.056,2.935-1.89,3.579-2.133       c3.65-1.378,7.23-1.711,10.944-1.014c1.442,0.27,2.405,0.544,3.108,0.744c1.702,0.485,2.056,0.585,5.156-0.504       c0.74-0.26,1.442-0.647,2.187-1.057c0.728-0.401,1.481-0.816,2.286-1.11c4.574-1.67,8.347-1.826,11.873-0.492       c0.666,0.252,6.254,4.185,7.133,5.941c1.605-0.026,3.778-0.886,5.92-1.755c1.915-0.777,3.723-1.512,5.203-1.68       c5.483-0.625,10.02,0.981,15.174,5.368c2.609,2.221,5.737,2.325,9.048,2.435c2.035,0.068,4.139,0.138,6.139,0.733       c3,0.892,4.776,2.958,6.494,4.956c1.194,1.388,2.428,2.823,4.07,3.846c3.689,2.298,7.976,1.21,12.121,0.156       c1.828-0.464,3.718-0.945,5.513-1.116c2.285-0.219,4.483,0.18,6.608,0.566c3.501,0.636,6.805,1.236,10.145-0.962       c0.589-0.388,1.149-0.775,1.692-1.15c3.158-2.183,5.884-4.066,10.415-3.33c1.413,0.23,2.774,0.675,4.09,1.104       c2.759,0.9,5.366,1.75,8.241,0.642c2.224-0.858,4.285-2.201,6.278-3.501c3.11-2.027,6.326-4.123,10.288-4.492       c2.296-0.214,4.582,0.099,6.614,0.903c5.03,1.99,7.587,7.799,5.822,13.224c-1.657,5.092-5.008,5.391-8.248,5.681       c-1.976,0.176-4.018,0.359-5.916,1.528c-0.735,0.453-1.471,0.923-2.211,1.397c-3.67,2.347-7.464,4.773-11.85,5.51       c-2.577,0.432-5.117-0.298-7.573-1.004c-2.439-0.702-4.743-1.363-6.887-0.85c-1.344,0.324-2.136,1.231-2.975,2.192       c-0.597,0.683-1.213,1.389-2.058,1.936C188.724,314.527,186.257,315.113,183.873,315.113z M168.715,311.653       c0.338,0,0.678,0.007,1.019,0.021c2.673,0.112,5.072,0.717,7.393,1.302c4.691,1.184,8.743,2.206,13.754-1.035       c0.726-0.47,1.271-1.093,1.847-1.753c0.905-1.036,1.84-2.108,3.495-2.506c2.399-0.577,4.94,0.154,7.397,0.861       c2.349,0.676,4.777,1.374,7.13,0.979c4.185-0.703,7.892-3.073,11.477-5.366c0.746-0.477,1.486-0.951,2.226-1.406       c2.099-1.293,4.358-1.495,6.352-1.673c3.315-0.296,5.933-0.53,7.386-4.994c1.603-4.924-0.699-10.188-5.239-11.985l0,0       c-1.886-0.746-4.016-1.036-6.153-0.836c-3.716,0.346-6.688,2.283-9.835,4.334c-2.037,1.328-4.143,2.701-6.465,3.596       c-3.206,1.238-6.106,0.29-8.91-0.624c-1.28-0.418-2.604-0.85-3.941-1.067c-4.13-0.674-6.581,1.021-9.684,3.165       c-0.549,0.38-1.116,0.772-1.712,1.163c-3.675,2.418-7.333,1.754-10.873,1.111c-2.058-0.374-4.188-0.758-6.335-0.555       c-1.718,0.164-3.488,0.614-5.362,1.09c-4.348,1.105-8.844,2.247-12.895-0.277c-1.772-1.104-3.057-2.598-4.3-4.043       c-1.698-1.975-3.302-3.84-6.021-4.649c-1.876-0.558-3.916-0.626-5.887-0.691c-3.337-0.111-6.788-0.226-9.663-2.673       c-4.923-4.191-9.234-5.724-14.412-5.137c-1.344,0.153-3.091,0.862-4.94,1.613c-2.547,1.034-5.183,2.104-7.045,1.763l0.18-0.983       c-0.012,0.003-0.142,0.04-0.23,0.164c-0.088,0.124-0.082,0.259-0.064,0.305c-0.298-0.794-5.374-4.952-6.623-5.425       c-3.289-1.246-6.841-1.088-11.175,0.496c-0.732,0.267-1.451,0.664-2.146,1.046c-0.747,0.412-1.519,0.838-2.338,1.125       c-3.277,1.151-3.852,1.065-5.761,0.523c-0.723-0.206-1.622-0.462-3.019-0.723c-3.529-0.663-6.932-0.346-10.406,0.967       c-0.546,0.206-1.928,1.096-3.392,2.038c-4.587,2.954-6.666,4.126-7.646,3.723c-2.701-1.099-5.591-0.335-8.135,2.152       c-4.058,3.965-5.981,10.815-4.286,15.269c1.096,2.882,3.606,4.496,7.259,4.667c4.145,0.192,7.614-2.444,11.279-5.239       c2.38-1.815,4.841-3.69,7.491-4.679c3.259-1.216,6.45-0.777,9.535-0.353c1.849,0.254,3.76,0.517,5.66,0.416       c1.924-0.102,3.557-0.946,5.285-1.839c1.712-0.885,3.481-1.8,5.528-1.897c1.894-0.085,3.712,1.128,5.308,2.201       c0.745,0.501,1.449,0.974,2.112,1.292c2.742,1.313,5.425,1.873,8.192,1.716c1.358-0.078,2.659-0.551,4.037-1.052       c1.511-0.55,3.074-1.118,4.725-1.118c0.004,0,0.009,0,0.013,0c2.804,0.005,3.947,1.328,5.157,2.728       c0.588,0.681,1.196,1.384,2.053,2.04c3.268,2.499,7.295,3.97,11.05,4.036c4.376,0.077,7.056,2.052,9.893,4.144       c2.068,1.525,4.207,3.102,7.145,3.984c5.109,1.535,9.65,0.647,14.459-0.293C162.569,312.24,165.572,311.653,168.715,311.653z"/>
				</g>
				<g>
					<g>
						<g>
							<path style="fill:#FFFFFF;" d="M157.665,287.167c-1.566,0-2.84-1.274-2.84-2.839s1.274-2.839,2.84-2.839         c1.565,0,2.839,1.274,2.839,2.839S159.23,287.167,157.665,287.167z M157.665,282.106c-1.226,0-2.224,0.997-2.224,2.222         c0,1.226,0.998,2.222,2.224,2.222s2.222-0.997,2.222-2.222C159.888,283.103,158.891,282.106,157.665,282.106z"/>
						</g>
					</g>
					<g>
						<g>
							<path style="fill:#FFFFFF;" d="M230.354,262.404c-1.565,0-2.839-1.274-2.839-2.839s1.274-2.839,2.839-2.839         c1.565,0,2.839,1.274,2.839,2.839S231.919,262.404,230.354,262.404z M230.354,257.342c-1.226,0-2.222,0.997-2.222,2.223         c0,1.226,0.997,2.222,2.222,2.222c1.226,0,2.222-0.997,2.222-2.222C232.577,258.339,231.58,257.342,230.354,257.342z"/>
						</g>
					</g>
					<g>
						<g>
							<path style="fill:#FFFFFF;" d="M67.239,317.494c-2.353,0-4.267-1.914-4.267-4.267c0-2.353,1.914-4.266,4.267-4.266         c2.352,0,4.267,1.913,4.267,4.266C71.506,315.58,69.591,317.494,67.239,317.494z M67.239,309.578         c-2.013,0-3.65,1.637-3.65,3.649c0,2.013,1.637,3.65,3.65,3.65c2.013,0,3.65-1.637,3.65-3.65         C70.889,311.215,69.252,309.578,67.239,309.578z"/>
						</g>
					</g>
					<g>
						<g>
							<path style="fill:#FFFFFF;" d="M197.458,335.72c-2.352,0-4.266-1.914-4.266-4.267c0-2.353,1.913-4.267,4.266-4.267         c2.352,0,4.267,1.914,4.267,4.267C201.725,333.806,199.811,335.72,197.458,335.72z M197.458,327.803         c-2.012,0-3.649,1.637-3.649,3.65c0,2.013,1.637,3.65,3.649,3.65c2.013,0,3.65-1.637,3.65-3.65         C201.109,329.44,199.471,327.803,197.458,327.803z"/>
						</g>
					</g>
					<g>
						<g>
							<path style="fill:#FFFFFF;" d="M106.587,408.635c-2.352,0-4.267-1.913-4.267-4.266s1.914-4.267,4.267-4.267         c2.353,0,4.267,1.914,4.267,4.267S108.94,408.635,106.587,408.635z M106.587,400.719c-2.013,0-3.65,1.637-3.65,3.65         c0,2.012,1.637,3.649,3.65,3.649c2.013,0,3.65-1.637,3.65-3.649C110.238,402.356,108.6,400.719,106.587,400.719z"/>
						</g>
					</g>
					<g>
						<g>
							<path style="fill:#FFFFFF;" d="M136.414,324.837c-2.352,0-4.267-1.914-4.267-4.267c0-2.353,1.914-4.267,4.267-4.267         c2.353,0,4.267,1.914,4.267,4.267C140.68,322.922,138.766,324.837,136.414,324.837z M136.414,316.92         c-2.013,0-3.65,1.637-3.65,3.65c0,2.013,1.637,3.65,3.65,3.65c2.013,0,3.65-1.637,3.65-3.65         C140.064,318.557,138.427,316.92,136.414,316.92z"/>
						</g>
					</g>
					<g>
						<g>
							<path style="fill:#FFFFFF;" d="M100.915,454.702c-2.352,0-4.267-1.914-4.267-4.267c0-2.352,1.914-4.267,4.267-4.267         c2.352,0,4.267,1.914,4.267,4.267C105.182,452.788,103.267,454.702,100.915,454.702z M100.915,446.785         c-2.013,0-3.65,1.637-3.65,3.65c0,2.013,1.637,3.65,3.65,3.65c2.013,0,3.65-1.637,3.65-3.65         C104.565,448.422,102.928,446.785,100.915,446.785z"/>
						</g>
					</g>
					<g>
						<g>
							<path style="fill:#FFFFFF;" d="M93,358.899c-2.352,0-4.267-1.914-4.267-4.267c0-2.352,1.914-4.266,4.267-4.266         c2.353,0,4.267,1.913,4.267,4.266C97.267,356.985,95.353,358.899,93,358.899z M93,350.983c-2.013,0-3.65,1.637-3.65,3.649         c0,2.013,1.637,3.65,3.65,3.65c2.013,0,3.65-1.637,3.65-3.65C96.651,352.621,95.013,350.983,93,350.983z"/>
						</g>
					</g>
					<g>
						<g>
							<path style="fill:#FFFFFF;" d="M106.485,313.781c-1.751,0-3.175-1.424-3.175-3.176c0-1.751,1.424-3.175,3.175-3.175         c1.752,0,3.176,1.424,3.176,3.175C109.661,312.357,108.237,313.781,106.485,313.781z M106.485,308.047         c-1.411,0-2.558,1.147-2.558,2.558c0,1.411,1.147,2.559,2.558,2.559s2.56-1.148,2.56-2.559         C109.045,309.194,107.896,308.047,106.485,308.047z"/>
						</g>
					</g>
					<g>
						<g>
							<path style="fill:#FFFFFF;" d="M181.093,395.313c-1.751,0-3.175-1.424-3.175-3.175c0-1.752,1.424-3.176,3.175-3.176         c1.752,0,3.176,1.424,3.176,3.176C184.269,393.889,182.845,395.313,181.093,395.313z M181.093,389.579         c-1.411,0-2.558,1.148-2.558,2.56s1.147,2.558,2.558,2.558c1.411,0,2.559-1.147,2.559-2.558S182.504,389.579,181.093,389.579         z"/>
						</g>
					</g>
					<g>
						<g>
							<path style="fill:#FFFFFF;" d="M165.506,456.902c-1.751,0-3.175-1.424-3.175-3.176c0-1.751,1.424-3.175,3.175-3.175         c1.752,0,3.176,1.424,3.176,3.175C168.682,455.477,167.258,456.902,165.506,456.902z M165.506,451.167         c-1.411,0-2.558,1.147-2.558,2.558c0,1.411,1.147,2.56,2.558,2.56c1.411,0,2.56-1.149,2.56-2.56         C168.066,452.315,166.917,451.167,165.506,451.167z"/>
						</g>
					</g>
					<g>
						<g>
							<path style="fill:#FFFFFF;" d="M223.586,320.818c-1.752,0-3.176-1.424-3.176-3.175c0-1.752,1.424-3.176,3.176-3.176         c1.75,0,3.175,1.424,3.175,3.176C226.761,319.394,225.336,320.818,223.586,320.818z M223.586,315.084         c-1.411,0-2.56,1.149-2.56,2.56c0,1.411,1.149,2.558,2.56,2.558c1.411,0,2.558-1.147,2.558-2.558         C226.144,316.232,224.997,315.084,223.586,315.084z"/>
						</g>
					</g>
					<g>
						<g>
							<path style="fill:#FFFFFF;" d="M174.267,322.391c-1.253,0-2.273-1.02-2.273-2.273s1.02-2.273,2.273-2.273         c1.253,0,2.273,1.02,2.273,2.273S175.521,322.391,174.267,322.391z M174.267,318.462c-0.914,0-1.656,0.743-1.656,1.657         c0,0.914,0.743,1.657,1.656,1.657c0.914,0,1.657-0.743,1.657-1.657C175.924,319.205,175.181,318.462,174.267,318.462z"/>
						</g>
					</g>
					<g>
						<g>
							<path style="fill:#FFFFFF;" d="M132.307,351.137c-1.253,0-2.273-1.02-2.273-2.273c0-1.252,1.02-2.272,2.273-2.272         c1.253,0,2.273,1.02,2.273,2.272C134.58,350.118,133.56,351.137,132.307,351.137z M132.307,347.209         c-0.914,0-1.657,0.743-1.657,1.655c0,0.914,0.743,1.657,1.657,1.657c0.914,0,1.657-0.743,1.657-1.657         C133.964,347.952,133.221,347.209,132.307,347.209z"/>
						</g>
					</g>
					<g>
						<g>
							<path style="fill:#FFFFFF;" d="M217.335,339.562c-1.253,0-2.273-1.02-2.273-2.273c0-1.252,1.02-2.272,2.273-2.272         c1.253,0,2.273,1.02,2.273,2.272C219.608,338.542,218.588,339.562,217.335,339.562z M217.335,335.633         c-0.914,0-1.657,0.743-1.657,1.655c0,0.914,0.743,1.657,1.657,1.657c0.914,0,1.657-0.743,1.657-1.657         C218.992,336.376,218.249,335.633,217.335,335.633z"/>
						</g>
					</g>
					<g>
						<g>
							<path style="fill:#FFFFFF;" d="M187.743,373.217c-1.253,0-2.273-1.02-2.273-2.273c0-1.252,1.02-2.272,2.273-2.272         c1.253,0,2.273,1.02,2.273,2.272C190.016,372.198,188.996,373.217,187.743,373.217z M187.743,369.289         c-0.914,0-1.657,0.743-1.657,1.655c0,0.914,0.743,1.657,1.657,1.657c0.914,0,1.657-0.743,1.657-1.657         C189.399,370.032,188.657,369.289,187.743,369.289z"/>
						</g>
					</g>
					<g>
						<g>
							<path style="fill:#FFFFFF;" d="M167.143,425.549c-1.253,0-2.273-1.02-2.273-2.273c0-1.253,1.02-2.273,2.273-2.273         c1.252,0,2.272,1.02,2.272,2.273C169.415,424.529,168.395,425.549,167.143,425.549z M167.143,421.619         c-0.914,0-1.657,0.743-1.657,1.657c0,0.914,0.743,1.657,1.657,1.657c0.913,0,1.655-0.743,1.655-1.657         C168.799,422.362,168.056,421.619,167.143,421.619z"/>
						</g>
					</g>
					<g>
						<g>
							<path style="fill:#FFFFFF;" d="M138.318,478.078c-1.253,0-2.273-1.02-2.273-2.273c0-1.253,1.02-2.273,2.273-2.273         c1.253,0,2.273,1.02,2.273,2.273C140.591,477.059,139.572,478.078,138.318,478.078z M138.318,474.149         c-0.914,0-1.657,0.743-1.657,1.656c0,0.914,0.743,1.657,1.657,1.657c0.914,0,1.657-0.743,1.657-1.657         C139.975,474.892,139.232,474.149,138.318,474.149z"/>
						</g>
					</g>
					<g>
						<g>
							<path style="fill:#FFFFFF;" d="M84.886,381.861c-1.253,0-2.273-1.02-2.273-2.273c0-1.253,1.02-2.273,2.273-2.273         c1.253,0,2.273,1.02,2.273,2.273C87.159,380.842,86.139,381.861,84.886,381.861z M84.886,377.932         c-0.914,0-1.657,0.743-1.657,1.657c0,0.914,0.743,1.656,1.657,1.656c0.914,0,1.657-0.743,1.657-1.656         C86.543,378.675,85.8,377.932,84.886,377.932z"/>
						</g>
					</g>
					<g>
						<g>
							<path style="fill:#FFFFFF;" d="M48.827,325.546c-1.253,0-2.273-1.02-2.273-2.273c0-1.253,1.02-2.273,2.273-2.273         c1.252,0,2.272,1.02,2.272,2.273C51.099,324.526,50.079,325.546,48.827,325.546z M48.827,321.616         c-0.914,0-1.657,0.743-1.657,1.657c0,0.914,0.743,1.657,1.657,1.657c0.913,0,1.655-0.743,1.655-1.657         C50.483,322.359,49.74,321.616,48.827,321.616z"/>
						</g>
					</g>
					<g>
						<g>
							<path style="fill:#FFFFFF;" d="M33.876,272.448c-0.969,0-1.758-0.789-1.758-1.758c0-0.969,0.789-1.758,1.758-1.758         c0.969,0,1.758,0.788,1.758,1.758C35.634,271.659,34.845,272.448,33.876,272.448z M33.876,269.549         c-0.63,0-1.141,0.512-1.141,1.141c0,0.63,0.512,1.141,1.141,1.141c0.63,0,1.141-0.512,1.141-1.141         C35.017,270.061,34.506,269.549,33.876,269.549z"/>
						</g>
					</g>
					<g>
						<g>
							<path style="fill:#FFFFFF;" d="M162.996,265.764c-0.969,0-1.758-0.789-1.758-1.758c0-0.969,0.789-1.758,1.758-1.758         c0.969,0,1.758,0.789,1.758,1.758C164.754,264.975,163.965,265.764,162.996,265.764z M162.996,262.865         c-0.63,0-1.141,0.512-1.141,1.141c0,0.63,0.512,1.141,1.141,1.141c0.63,0,1.141-0.512,1.141-1.141         C164.138,263.376,163.626,262.865,162.996,262.865z"/>
						</g>
					</g>
					<g>
						<g>
							<path style="fill:#FFFFFF;" d="M203.104,266.378c-0.968,0-1.757-0.789-1.757-1.758c0-0.969,0.789-1.758,1.757-1.758         c0.969,0,1.758,0.789,1.758,1.758C204.861,265.589,204.073,266.378,203.104,266.378z M203.104,263.479         c-0.628,0-1.14,0.512-1.14,1.141c0,0.63,0.512,1.141,1.14,1.141c0.63,0,1.141-0.512,1.141-1.141         C204.245,263.991,203.733,263.479,203.104,263.479z"/>
						</g>
					</g>
					<g>
						<g>
							<path style="fill:#FFFFFF;" d="M82.059,266.457c-0.969,0-1.758-0.789-1.758-1.758c0-0.969,0.789-1.758,1.758-1.758         c0.969,0,1.758,0.789,1.758,1.758C83.817,265.669,83.028,266.457,82.059,266.457z M82.059,263.558         c-0.63,0-1.141,0.512-1.141,1.141c0,0.63,0.512,1.141,1.141,1.141c0.63,0,1.141-0.512,1.141-1.141         C83.2,264.07,82.689,263.558,82.059,263.558z"/>
						</g>
					</g>
					<g>
						<g>
							<path style="fill:#FFFFFF;" d="M53.472,261.87c-1.565,0-2.839-1.274-2.839-2.839s1.274-2.839,2.839-2.839         c1.565,0,2.839,1.274,2.839,2.839S55.037,261.87,53.472,261.87z M53.472,256.809c-1.226,0-2.222,0.997-2.222,2.222         c0,1.226,0.997,2.223,2.222,2.223c1.225,0,2.222-0.997,2.222-2.223C55.695,257.806,54.698,256.809,53.472,256.809z"/>
						</g>
					</g>
					<g>
						<g>
							<path style="fill:#FFFFFF;" d="M137.696,279.149c-1.566,0-2.84-1.274-2.84-2.839s1.274-2.839,2.84-2.839         c1.565,0,2.839,1.274,2.839,2.839S139.261,279.149,137.696,279.149z M137.696,274.088c-1.226,0-2.224,0.997-2.224,2.223         c0,1.226,0.998,2.222,2.224,2.222c1.226,0,2.222-0.997,2.222-2.222C139.918,275.085,138.922,274.088,137.696,274.088z"/>
						</g>
					</g>
					<g>
						<g>
							<path style="fill:#FFFFFF;" d="M127.149,198.57c-1.566,0-2.84-1.274-2.84-2.839c0-1.565,1.274-2.839,2.84-2.839         c1.565,0,2.839,1.274,2.839,2.839C129.988,197.297,128.714,198.57,127.149,198.57z M127.149,193.509         c-1.226,0-2.224,0.997-2.224,2.222s0.998,2.223,2.224,2.223s2.222-0.997,2.222-2.223S128.375,193.509,127.149,193.509z"/>
						</g>
					</g>
					<g>
						<g>
							<path style="fill:#FFFFFF;" d="M137.366,240.918c-1.566,0-2.84-1.274-2.84-2.839c0-1.565,1.274-2.839,2.84-2.839         c1.565,0,2.839,1.274,2.839,2.839C140.205,239.644,138.931,240.918,137.366,240.918z M137.366,235.856         c-1.226,0-2.224,0.997-2.224,2.222s0.998,2.223,2.224,2.223s2.222-0.997,2.222-2.223S138.592,235.856,137.366,235.856z"/>
						</g>
					</g>
					<g>
						<g>
							<path style="fill:#FFFFFF;" d="M117.439,259.696c-0.969,0-1.758-0.789-1.758-1.758c0-0.969,0.789-1.758,1.758-1.758         c0.969,0,1.758,0.788,1.758,1.758C119.196,258.908,118.408,259.696,117.439,259.696z M117.439,256.797         c-0.63,0-1.141,0.512-1.141,1.141c0,0.63,0.512,1.141,1.141,1.141c0.63,0,1.141-0.512,1.141-1.141         C118.58,257.309,118.068,256.797,117.439,256.797z"/>
						</g>
					</g>
					<g>
						<g>
							<path style="fill:#FFFFFF;" d="M121.04,227.397c-0.969,0-1.758-0.789-1.758-1.758c0-0.969,0.789-1.758,1.758-1.758         c0.969,0,1.758,0.788,1.758,1.758C122.797,226.608,122.009,227.397,121.04,227.397z M121.04,224.498         c-0.63,0-1.141,0.512-1.141,1.141c0,0.63,0.512,1.141,1.141,1.141c0.63,0,1.141-0.512,1.141-1.141         C122.181,225.01,121.669,224.498,121.04,224.498z"/>
						</g>
					</g>
					<g>
						<g>
							<path style="fill:#FFFFFF;" d="M134.73,172.509c-0.969,0-1.758-0.789-1.758-1.758c0-0.969,0.789-1.758,1.758-1.758         c0.969,0,1.758,0.788,1.758,1.758C136.487,171.72,135.699,172.509,134.73,172.509z M134.73,169.61         c-0.63,0-1.141,0.512-1.141,1.141c0,0.63,0.512,1.141,1.141,1.141c0.63,0,1.141-0.512,1.141-1.141         C135.871,170.121,135.359,169.61,134.73,169.61z"/>
						</g>
					</g>
					<g>
						<g>
							<path style="fill:#FFFFFF;" d="M142.969,206.126c-0.969,0-1.758-0.789-1.758-1.758c0-0.969,0.789-1.758,1.758-1.758         c0.969,0,1.758,0.789,1.758,1.758C144.727,205.338,143.938,206.126,142.969,206.126z M142.969,203.227         c-0.63,0-1.141,0.512-1.141,1.141c0,0.63,0.512,1.141,1.141,1.141c0.63,0,1.141-0.512,1.141-1.141         C144.111,203.739,143.599,203.227,142.969,203.227z"/>
						</g>
					</g>
				</g>
			</g>
			<g>
				<g>
					<path style="fill:#FFFFFF;" d="M78.817,423.728c-5.188,23.004-9.68,46.159-13.472,69.435c-0.757,4.646,6.339,6.761,7.103,2.072       c3.791-23.276,8.283-46.43,13.472-69.435C86.964,421.17,79.865,419.079,78.817,423.728z"/>
				</g>
				<g>
					<path style="fill:#FFFFFF;" d="M204.651,471.673c-0.34-1.97-2.759-3.075-4.549-2.583c-2.082,0.572-2.924,2.574-2.583,4.549       c0.408,2.365,1.117,4.648,1.79,6.947c0.335,1.147,0.661,2.298,0.921,3.466c0.119,0.534,0.225,1.072,0.309,1.613       c0.005,0.104,0.071,0.686,0.077,0.775c0.056,0.855,0.022,1.698-0.032,2.552c-0.005,0.046-0.007,0.068-0.011,0.105       c-0.033,0.197-0.069,0.394-0.111,0.59c-0.094,0.437-0.208,0.87-0.348,1.295c-0.048,0.148-0.103,0.293-0.157,0.439       c-0.023,0.049-0.054,0.113-0.095,0.202c-0.18,0.308-0.355,0.613-0.542,0.915c0.003-0.045-0.474,0.584-0.579,0.686       c-0.106,0.104-0.219,0.2-0.331,0.297c-0.039,0.023-0.075,0.045-0.205,0.136c-1.667,1.096-2.373,3.272-1.327,5.06       c0.969,1.657,3.384,2.429,5.06,1.327c4.235-2.786,6.126-7.633,6.109-12.585C208.027,481.994,205.567,476.982,204.651,471.673z"/>
				</g>
				<g>
					<path style="fill:#FFFFFF;" d="M235.41,319.877c-6.239,25.618-20.183,48.77-39.873,66.3c-3.563,3.172,1.684,8.388,5.23,5.23       c20.57-18.314,35.259-42.808,41.776-69.564C243.669,317.22,236.538,315.247,235.41,319.877z"/>
				</g>
			</g>
			<g>
				<g>
					<g>
						<g>
							<g>
								<path style="fill:#FFFFFF;" d="M119.895,317.002c0.191,20.692-7.002,38.622-17.577,47.109          c-4.129,3.303-8.754,5.165-13.684,5.203c-17.53,0.136-31.957-23.066-32.222-51.818c-0.265-28.752,13.73-52.175,31.26-52.311          c4.665-0.036,9.105,1.574,13.1,4.489C111.861,277.756,119.7,295.876,119.895,317.002z"/>
								<path d="M88.482,369.814c-17.709,0-32.303-23.413-32.57-52.314c-0.17-18.441,5.428-35.249,14.976-44.961          c5.006-5.092,10.809-7.809,16.78-7.855c4.668-0.074,9.179,1.506,13.399,4.585c11.551,8.419,19.137,27.154,19.328,47.728l0,0          c0.185,20.048-6.788,38.695-17.764,47.504c-4.36,3.487-9.068,5.274-13.993,5.312          C88.587,369.814,88.533,369.814,88.482,369.814z M87.829,265.684c-0.051,0-0.102,0-0.152,0          c-5.7,0.044-11.259,2.657-16.075,7.556c-9.365,9.526-14.856,26.068-14.688,44.251c0.263,28.433,14.503,51.501,31.718,51.322          c4.695-0.036,9.195-1.75,13.375-5.093c10.746-8.623,17.572-26.96,17.39-46.714l0,0          c-0.188-20.268-7.613-38.689-18.917-46.929C96.481,267.161,92.226,265.684,87.829,265.684z"/>
							</g>
						</g>
						<g>
							<path d="M97.838,278.441c-2.99-2.362-6.312-3.667-9.802-3.64c-13.114,0.104-23.575,19.066-23.365,42.349         c0.01,1.118,0.052,2.221,0.11,3.317l25.238-7.13l-23.598,19.068c3.588,15.708,12.297,26.799,22.377,26.72         c3.688-0.029,7.147-1.535,10.235-4.208c7.908-6.868,13.282-21.385,13.13-38.141         C112.009,299.667,106.137,284.991,97.838,278.441z"/>
							<path d="M88.689,359.625c-10.066,0-18.99-10.623-22.756-27.109l-0.07-0.304l21.943-17.731l-23.493,6.637l-0.033-0.625         c-0.065-1.235-0.102-2.328-0.11-3.338c-0.139-15.333,4.43-29.592,11.922-37.212c3.596-3.657,7.724-5.608,11.939-5.641         c3.5-0.019,6.932,1.233,10.116,3.747h0c8.667,6.84,14.365,22.039,14.516,38.722c0.149,16.506-4.948,31.268-13.303,38.523         c-3.285,2.844-6.837,4.301-10.559,4.331C88.765,359.625,88.727,359.625,88.689,359.625z M66.979,332.597         c3.644,15.6,12.339,26.027,21.716,26.028c0.034,0,0.066,0,0.1,0c3.477-0.028,6.812-1.402,9.912-4.086         c8.016-6.962,13.102-21.783,12.958-37.759c-0.149-16.392-5.697-31.286-14.135-37.945h-0.001c-3-2.37-6.177-3.583-9.488-3.532         c-3.943,0.031-7.828,1.879-11.234,5.342c-7.313,7.438-11.771,21.425-11.635,36.502c0.007,0.822,0.033,1.701,0.078,2.669         l26.982-7.623L66.979,332.597z"/>
						</g>
					</g>
					<g>
						<g>
							<g>
								<path style="fill:#FFFFFF;" d="M153.399,316.665c0.006,20.693,7.371,38.554,18.026,46.939          c4.161,3.264,8.803,5.081,13.733,5.072c17.531-0.031,31.735-23.37,31.726-52.123c-0.009-28.753-14.228-52.042-31.758-52.01          c-4.666,0.008-9.09,1.661-13.057,4.613C161.058,277.344,153.392,295.539,153.399,316.665z"/>
								<path d="M185.121,369.176c-4.912,0-9.624-1.742-14.005-5.178c-11.061-8.705-18.211-27.283-18.217-47.332l0,0          c-0.006-20.575,7.402-39.381,18.872-47.91c4.19-3.119,8.684-4.704,13.355-4.712c0.012,0,0.024,0,0.036,0          c5.96,0,11.774,2.66,16.819,7.694c9.64,9.62,15.398,26.373,15.404,44.816c0.009,28.985-14.447,52.591-32.225,52.623          C185.146,369.176,185.133,369.176,185.121,369.176z M153.898,316.665c0.006,19.754,7.007,38.024,17.835,46.546          c4.211,3.303,8.722,4.997,13.423,4.965c17.228-0.031,31.236-23.189,31.227-51.623c-0.005-18.183-5.654-34.672-15.11-44.108          c-4.862-4.852-10.435-7.413-16.146-7.402c-4.452,0.008-8.745,1.527-12.76,4.515          C161.142,277.905,153.893,296.396,153.898,316.665L153.898,316.665z"/>
							</g>
						</g>
						<g>
							<path d="M175.087,277.896c2.967-2.39,6.277-3.728,9.767-3.733c13.115-0.022,23.756,18.84,23.768,42.124         c0.001,1.118-0.031,2.222-0.078,3.318l-25.305-6.889l23.779,18.842c-3.438,15.741-12.04,26.915-22.121,26.932         c-3.688,0.006-7.161-1.466-10.275-4.11c-7.973-6.792-13.485-21.257-13.494-38.014         C161.12,299.256,166.851,284.524,175.087,277.896z"/>
							<path d="M184.872,358.989c-3.712,0-7.269-1.422-10.574-4.228c-8.424-7.177-13.662-21.889-13.67-38.396         c-0.008-16.683,5.544-31.935,14.145-38.858c3.159-2.545,6.55-3.838,10.08-3.844c0.008,0,0.016,0,0.023,0         c4.207,0,8.345,1.911,11.969,5.527c7.564,7.548,12.269,21.763,12.277,37.097c0,1.02-0.025,2.081-0.079,3.34l-0.027,0.625         l-23.555-6.413l22.111,17.52l-0.067,0.305c-3.622,16.583-12.497,27.309-22.609,27.325         C184.889,358.989,184.88,358.989,184.872,358.989z M184.876,274.663c-0.007,0-0.014,0-0.021,0         c-3.296,0.005-6.477,1.224-9.455,3.623v0c-8.374,6.74-13.78,21.686-13.772,38.079c0.008,15.976,5.235,30.748,13.318,37.634         c3.118,2.647,6.458,3.99,9.926,3.99c0.008,0,0.015,0,0.023,0c9.416-0.015,18.059-10.544,21.567-26.234l-25.446-20.163         l27.053,7.365c0.036-0.977,0.053-1.838,0.053-2.67c-0.008-15.078-4.6-29.022-11.983-36.389         C192.707,276.473,188.812,274.663,184.876,274.663z"/>
						</g>
					</g>
				</g>
				<g>
					<g>
						<path style="fill:#FFB500;" d="M148.829,350.634c0.053,5.312-4.561,9.665-10.306,9.723        c-5.745,0.058-10.446-4.202-10.499-9.515c-0.053-5.312,4.561-9.665,10.306-9.723        C144.075,341.062,148.776,345.322,148.829,350.634z"/>
						<path d="M138.407,360.858c-2.86,0-5.556-1.018-7.604-2.874c-2.087-1.892-3.252-4.426-3.279-7.137        c-0.056-5.58,4.79-10.167,10.801-10.228c2.865-0.034,5.648,0.991,7.725,2.873c2.087,1.892,3.252,4.426,3.279,7.137        c0.056,5.58-4.79,10.168-10.801,10.228C138.488,360.858,138.447,360.858,138.407,360.858z M138.446,341.619        c-0.037,0-0.074,0-0.111,0c-5.46,0.055-9.861,4.19-9.811,9.218c0.024,2.428,1.072,4.703,2.951,6.405        c1.863,1.689,4.321,2.615,6.933,2.615c0.037,0,0.074,0,0.111-0.001c5.46-0.055,9.861-4.19,9.811-9.218        c-0.024-2.428-1.072-4.703-2.951-6.405C143.515,342.545,141.057,341.619,138.446,341.619z"/>
					</g>
				</g>
				<g>
					<g id="XMLID_13_">
						<path style="fill:#FFFFFF;" d="M159.799,365.693c0,0,5.758,72.019-20.038,72.293c-29.362,0.312-23.421-71.831-23.421-71.831        c3.791,1.905,11.714,5.252,22.219,5.045C148.58,371.001,156.075,367.666,159.799,365.693z"/>
						<path d="M139.572,438.487c-4.717,0-8.826-1.846-12.218-5.49c-6.504-6.986-10.418-20.377-11.631-39.799        c-0.901-14.415,0.107-26.959,0.118-27.084l0.061-0.738l0.662,0.333c4.739,2.381,12.389,5.195,21.985,4.991        c7.29-0.144,14.558-2.028,21.016-5.448l0.672-0.356l0.061,0.758c0.01,0.13,1.03,13.167,0.261,27.977        c-1.037,19.956-4.652,33.457-10.748,40.129c-2.828,3.096-6.208,4.686-10.045,4.727        C139.701,438.487,139.636,438.487,139.572,438.487z M116.785,366.932c-0.422,6.237-2.84,50.194,11.302,65.385        c3.237,3.477,7.129,5.21,11.668,5.169c3.549-0.038,6.684-1.519,9.317-4.401c13.247-14.501,10.712-60.156,10.282-66.597        c-6.424,3.27-13.594,5.069-20.786,5.212C129.222,371.891,121.662,369.285,116.785,366.932z"/>
					</g>
					<g>
						<polygon points="147.403,435.321 146.904,435.288 146.053,370.343 147.053,370.331 147.905,435.285       "/>
					</g>
					<g>
						<rect x="130.633" y="370.678" transform="matrix(0.9998 -0.0207 0.0207 0.9998 -8.3358 2.8062)" width="1" height="65.27"/>
					</g>
					<g>
						<rect x="117.145" y="402.261" transform="matrix(1 -0.0098 0.0098 1 -3.9402 1.3743)" width="42.236" height="1"/>
					</g>
				</g>
			</g>
			<g>
				<g>
					<g>
						<path style="fill:#AD2328;" d="M25.975,219.404c0.181-1.235,0.649-2.497,1.463-3.748c2.128-3.274,5.774-5.671,9.453-6.848        c6.731-2.154,14.358-2.035,21.218-0.588c11.652,2.459,21.896,9.197,30.55,17.163c2.68,2.467,5.289,5.014,7.827,7.628        c0.788,0.811,1.955,2.176,3.073,3.251c-7.668-3.342-15.475-6.602-23.708-8.264c-9.861-1.991-18.727,0.206-28.34,2.105        C39.816,231.623,24.229,231.35,25.975,219.404z"/>
						<path d="M101.916,237.835l-2.558-1.115c-7.808-3.403-15.489-6.593-23.607-8.232c-8.846-1.786-16.927-0.154-25.481,1.572        c-0.882,0.178-1.769,0.357-2.663,0.534c-5.056,0.999-14.889,1.474-19.675-3.079c-2.125-2.021-2.95-4.775-2.451-8.184l0,0        c0.198-1.354,0.715-2.683,1.538-3.949c2.057-3.163,5.599-5.733,9.72-7.052c6.233-1.995,13.858-2.208,21.473-0.601        c10.339,2.182,20.696,7.997,30.786,17.285c2.632,2.422,5.272,4.995,7.847,7.647c0.293,0.302,0.638,0.679,1.013,1.09        c0.634,0.694,1.353,1.481,2.048,2.149L101.916,237.835z M67.773,226.711c2.67,0,5.381,0.232,8.176,0.796        c7.417,1.498,14.442,4.262,21.522,7.306c-0.121-0.131-0.238-0.26-0.354-0.386c-0.368-0.402-0.706-0.772-0.993-1.068        c-2.562-2.639-5.188-5.198-7.806-7.608c-9.955-9.164-20.154-14.898-30.314-17.042c-7.449-1.572-14.893-1.368-20.962,0.575        c-3.847,1.231-7.281,3.715-9.186,6.644c-0.744,1.144-1.21,2.338-1.388,3.548l0,0c-0.448,3.069,0.275,5.53,2.151,7.314        c4.499,4.28,14.258,3.718,18.792,2.822c0.892-0.176,1.778-0.355,2.659-0.533C56.053,227.872,61.806,226.711,67.773,226.711z"/>
					</g>
					<g>
						<path style="fill:#FFFFFF;" d="M28.326,221.602c-0.281-1.317-0.023-2.574,0.565-3.762c0.368-0.744,1.542-0.933,2.187-0.478        c0.765,0.541,0.872,1.39,0.478,2.187c0.183-0.37,0.03-0.061-0.005,0.031c-0.044,0.116-0.083,0.233-0.116,0.352        c-0.013,0.046-0.025,0.092-0.036,0.137c-0.001,0.009-0.001,0.006-0.002,0.017c-0.006,0.05-0.011,0.1-0.015,0.15        c-0.01,0.116-0.007,0.232-0.013,0.348c0,0.009-0.001,0.002-0.002,0.01c0.029,0.19,0.057,0.377,0.106,0.564        c0.006,0.023,0.013,0.046,0.019,0.069c0.031,0.075,0.066,0.18,0.076,0.204c0.081,0.187,0.173,0.37,0.274,0.547        c0.011,0.02,0.147,0.208,0.157,0.252c0.002,0.002,0.003,0.005,0.005,0.007c0.137,0.185,0.284,0.363,0.439,0.534        c0.145,0.16,0.297,0.314,0.454,0.461c0.039,0.037,0.314,0.306,0.122,0.116c-0.194-0.193,0.134,0.105,0.176,0.137        c0.343,0.265,0.706,0.505,1.083,0.716c0.093,0.052,0.187,0.103,0.282,0.152c0.047,0.024,0.094,0.048,0.142,0.071        c0.107,0.053,0.063,0.032-0.134-0.062c0.03,0.081,0.492,0.204,0.573,0.233c0.188,0.068,0.378,0.128,0.571,0.179        c0.091,0.024,0.185,0.042,0.277,0.066c0.023,0.003,0.046,0.007,0.068,0.01c0.819,0.114,1.582,0.765,1.495,1.665        c-0.077,0.794-0.79,1.617-1.665,1.495c-2.275-0.317-4.449-1.538-5.941-3.286C29.181,223.827,28.574,222.764,28.326,221.602z"/>
					</g>
				</g>
				<g>
					<g>
						<path style="fill:#AD2328;" d="M224.168,208.793c-0.385-1.187-1.059-2.353-2.071-3.45c-2.647-2.871-6.643-4.622-10.467-5.166        c-6.997-0.994-14.497,0.402-21.016,2.979c-11.075,4.378-20.044,12.74-27.238,22.044c-2.229,2.882-4.373,5.83-6.436,8.833        c-0.641,0.932-1.563,2.474-2.484,3.721c6.999-4.581,14.148-9.104,21.986-12.123c9.388-3.617,18.497-2.938,28.292-2.678        C212.572,223.161,227.893,220.277,224.168,208.793z"/>
						<path d="M152.396,239.699l1.657-2.243c0.572-0.773,1.148-1.668,1.655-2.458c0.302-0.47,0.58-0.901,0.819-1.249        c2.096-3.049,4.267-6.029,6.453-8.855c8.388-10.848,17.623-18.318,27.45-22.203c7.237-2.861,14.789-3.93,21.27-3.009        c4.284,0.609,8.207,2.549,10.764,5.322c1.023,1.109,1.756,2.331,2.179,3.634l0,0c1.063,3.277,0.712,6.129-1.044,8.479        c-3.955,5.291-13.736,6.465-18.879,6.335c-0.909-0.024-1.812-0.052-2.71-0.08c-8.725-0.269-16.965-0.522-25.389,2.724        c-7.729,2.978-14.766,7.411-21.892,12.075L152.396,239.699z M206.987,200.36c-5.162,0-10.762,1.116-16.189,3.261        c-9.657,3.818-18.75,11.181-27.026,21.885c-2.175,2.812-4.335,5.776-6.42,8.81c-0.234,0.341-0.506,0.764-0.803,1.225        c-0.091,0.142-0.185,0.288-0.281,0.436c6.469-4.188,12.931-8.092,19.993-10.812c8.611-3.317,16.949-3.061,25.779-2.79        c0.897,0.027,1.798,0.055,2.706,0.079c4.622,0.123,14.335-0.96,18.052-5.934c1.55-2.074,1.851-4.621,0.894-7.571        c-0.378-1.164-1.038-2.263-1.963-3.265c-2.368-2.568-6.17-4.441-10.169-5.01C210.087,200.463,208.557,200.36,206.987,200.36z"/>
					</g>
					<g>
						<path style="fill:#FFFFFF;" d="M222.219,211.355c0.056-1.345-0.409-2.541-1.188-3.614c-0.487-0.672-1.677-0.661-2.236-0.104        c-0.664,0.662-0.626,1.517-0.104,2.236c-0.242-0.334-0.04-0.055,0.01,0.03c0.063,0.107,0.121,0.216,0.174,0.328        c0.021,0.043,0.04,0.086,0.058,0.13c0.003,0.009,0.002,0.005,0.005,0.016c0.015,0.048,0.028,0.096,0.04,0.145        c0.029,0.113,0.046,0.228,0.071,0.341c0.002,0.009,0.002,0.002,0.003,0.009c0.003,0.192,0.007,0.382-0.01,0.574        c-0.002,0.024-0.005,0.048-0.007,0.071c-0.018,0.079-0.035,0.189-0.041,0.214c-0.048,0.198-0.109,0.394-0.179,0.585        c-0.008,0.021-0.11,0.229-0.112,0.275c-0.001,0.003-0.002,0.005-0.004,0.008c-0.104,0.205-0.22,0.405-0.343,0.6        c-0.116,0.182-0.24,0.359-0.37,0.531c-0.032,0.043-0.258,0.354-0.101,0.134c0.159-0.223-0.114,0.126-0.151,0.165        c-0.294,0.319-0.611,0.616-0.948,0.888c-0.083,0.067-0.167,0.133-0.253,0.197c-0.042,0.032-0.085,0.063-0.128,0.094        c-0.097,0.07-0.057,0.042,0.121-0.084c-0.016,0.085-0.451,0.283-0.526,0.326c-0.173,0.098-0.351,0.189-0.533,0.272        c-0.086,0.039-0.176,0.072-0.262,0.111c-0.022,0.007-0.044,0.015-0.066,0.021c-0.788,0.25-1.431,1.02-1.194,1.892        c0.209,0.77,1.05,1.462,1.892,1.194c2.189-0.694,4.128-2.262,5.306-4.236C221.749,213.692,222.169,212.541,222.219,211.355z"/>
					</g>
				</g>
				<g>
					<g>
						<path style="fill:#AD2328;" d="M62.249,174.122c0.639-0.68,1.467-1.252,2.501-1.671c2.706-1.095,5.966-1.003,8.725-0.149        c5.047,1.562,9.67,4.901,13.253,8.725c6.087,6.496,9.479,15.011,11.371,23.598c0.586,2.66,1.094,5.337,1.53,8.025        c0.135,0.835,0.266,2.171,0.491,3.308c-3.268-5.331-6.656-10.671-10.989-15.215c-5.19-5.443-11.564-7.892-18.267-10.845        C65.498,187.536,56.064,180.694,62.249,174.122z"/>
						<path d="M101.15,218.596l-1.456-2.377c-3.323-5.422-6.66-10.659-10.924-15.131c-4.639-4.865-10.279-7.32-16.249-9.92        l-1.858-0.812c-3.548-1.562-9.817-5.512-10.811-10.401c-0.445-2.191,0.239-4.269,2.034-6.176        c0.714-0.759,1.615-1.361,2.678-1.792c2.641-1.068,5.943-1.127,9.06-0.163c4.693,1.453,9.477,4.6,13.47,8.86        c5.417,5.78,9.284,13.798,11.495,23.832c0.576,2.613,1.092,5.322,1.535,8.053c0.05,0.312,0.101,0.694,0.155,1.109        c0.091,0.694,0.194,1.48,0.333,2.183L101.15,218.596z M62.249,174.122l0.364,0.343c-1.559,1.657-2.159,3.437-1.782,5.291        c0.914,4.499,7.094,8.303,10.234,9.686l1.854,0.81c6.067,2.641,11.796,5.136,16.574,10.146        c3.78,3.964,6.826,8.493,9.768,13.217c-0.043-0.329-0.084-0.63-0.125-0.885c-0.44-2.712-0.953-5.403-1.524-7.998        c-2.171-9.855-5.955-17.716-11.247-23.363c-3.876-4.136-8.506-7.186-13.036-8.589c-2.857-0.884-5.992-0.834-8.389,0.135        c-0.928,0.375-1.71,0.897-2.325,1.55L62.249,174.122z"/>
					</g>
					<g>
						<path style="fill:#FFFFFF;" d="M62.749,176.475c0.392-0.927,1.088-1.587,1.957-2.063c0.544-0.298,1.345,0.088,1.544,0.644        c0.237,0.659-0.061,1.225-0.643,1.544c0.27-0.148,0.045-0.024-0.017,0.017c-0.077,0.052-0.151,0.107-0.222,0.166        c-0.028,0.022-0.054,0.046-0.081,0.069c-0.005,0.005-0.003,0.003-0.008,0.009c-0.025,0.028-0.05,0.056-0.073,0.085        c-0.056,0.067-0.104,0.139-0.157,0.208c-0.004,0.005-0.002,0.001-0.005,0.005c-0.063,0.129-0.126,0.256-0.176,0.391        c-0.006,0.017-0.012,0.034-0.018,0.05c-0.013,0.059-0.037,0.139-0.041,0.158c-0.031,0.149-0.052,0.301-0.066,0.453        c-0.001,0.017,0.001,0.19-0.012,0.222c0,0.002,0,0.004,0,0.006c0.005,0.172,0.019,0.344,0.041,0.515        c0.02,0.16,0.047,0.319,0.081,0.477c0.008,0.039,0.062,0.322,0.025,0.123c-0.037-0.201,0.037,0.122,0.049,0.16        c0.097,0.309,0.216,0.611,0.357,0.903c0.035,0.072,0.071,0.143,0.108,0.214c0.018,0.035,0.037,0.07,0.057,0.104        c0.043,0.078,0.025,0.046-0.055-0.095c-0.016,0.062,0.214,0.335,0.251,0.388c0.086,0.122,0.177,0.24,0.273,0.354        c0.045,0.054,0.096,0.105,0.142,0.159c0.012,0.012,0.025,0.024,0.038,0.036c0.453,0.421,0.642,1.146,0.203,1.66        c-0.387,0.454-1.176,0.653-1.66,0.203c-1.258-1.168-2.068-2.847-2.234-4.557C62.319,178.205,62.403,177.293,62.749,176.475z"/>
					</g>
				</g>
			</g>
		</g>
		<g>
			<g>
				<g>
					<path style="fill:#004421;" d="M398.255,14.044c14.458-4.773,27.485-8.929,37.644-12.141       c11.095-3.504,22.904,1.642,27.489,12.029c10.418,23.526,25.238,64.177,31.588,86.888c2.334,8.408-2.563,17.285-11.03,20.116       c0,0-19.451,6.624-45.445,15.375c-24.537,8.238-54.917,18.383-80.236,26.605c-22.2,7.218-40.529,12.933-47.622,14.644       c-28.345,6.808-39.199-7.615-41.904-26.49l-43.814,15.568l-11.662,4.153l-13.855,4.916l-24.595,8.735l-13.961,4.963       l-9.099,3.239c-0.387,0.138-0.813-0.063-0.953-0.449l-14.318-39.505c-0.278-0.778,0.124-1.635,0.9-1.919l7.754-2.834       l7.927-2.903l6.975-2.55l24.078-8.797l0.438-0.164l67.662-24.724c0,0-15.191-29.661,10.507-44.73       c12.922-7.593,31.648-12.127,52.924-20.508C342.406,32.998,372.6,22.535,398.255,14.044z"/>
					<path d="M151.504,193.188c-0.511,0-0.992-0.316-1.176-0.822l-14.317-39.506c-0.37-1.035,0.169-2.182,1.199-2.559       l114.318-41.782c-1.852-4.026-13.008-30.837,10.942-44.88c8.171-4.801,18.544-8.35,30.556-12.458       c7.156-2.448,14.556-4.979,22.438-8.084c22.647-8.941,50.45-18.876,82.635-29.528h0.001       c15.388-5.08,28.856-9.363,37.649-12.143c11.341-3.582,23.42,1.709,28.097,12.304c10.549,23.819,25.32,64.453,31.611,86.955       c2.411,8.687-2.576,17.789-11.354,20.725c-0.191,0.065-19.745,6.724-45.443,15.375c-33.598,11.28-59.845,19.983-80.241,26.607       c-17.164,5.581-39.366,12.653-47.659,14.654c-12.555,3.016-22.575,2.065-29.779-2.826       c-6.704-4.551-10.958-12.446-12.648-23.475l-116.413,41.371C151.782,193.165,151.642,193.188,151.504,193.188z M398.412,14.518       L398.412,14.518c-32.167,10.646-59.952,20.575-82.582,29.509c-7.903,3.114-15.314,5.649-22.481,8.1       c-11.96,4.091-22.288,7.624-30.373,12.374c-10.481,6.146-15.408,15.416-14.644,27.553c0.572,9.09,4.291,16.444,4.329,16.518       l0.258,0.504l-115.365,42.165c-0.516,0.189-0.786,0.763-0.601,1.281l14.317,39.503c0.046,0.127,0.188,0.194,0.316,0.148       l117.561-41.779l0.087,0.605c1.584,11.054,5.726,18.924,12.309,23.393c6.961,4.725,16.715,5.628,28.983,2.681       c8.262-1.993,30.436-9.057,47.585-14.633c20.392-6.623,46.637-15.325,80.231-26.604c25.695-8.65,45.248-15.308,45.442-15.374       c8.275-2.768,12.979-11.337,10.71-19.509c-6.281-22.464-21.029-63.034-31.563-86.819C458.46,4.005,446.906-1.047,436.049,2.379       C427.26,5.158,413.795,9.441,398.412,14.518L398.412,14.518z"/>
				</g>
				<g>
					<path style="fill:#00C257;" d="M483.079,106.107c-0.188,0-0.387-0.048-0.592-0.143c-3.899-1.807-13.455-23.661-20.879-44.316       c-6.691-18.62-15.269-46.837-11.47-48.258c0.294-0.111,0.617-0.084,0.964,0.076c3.9,1.808,13.455,23.662,20.878,44.316       c6.692,18.62,15.27,46.837,11.47,48.258C483.331,106.085,483.207,106.107,483.079,106.107z M450.51,14.324       c-0.01,0-0.017,0.002-0.022,0.003c-1.525,0.571,1.199,16.759,12.061,46.983c9.263,25.771,17.624,42.48,20.357,43.747       c0.112,0.052,0.174,0.053,0.193,0.047l0,0c1.526-0.571-1.198-16.76-12.061-46.983c-9.261-25.769-17.623-42.479-20.358-43.747       C450.597,14.335,450.541,14.324,450.51,14.324z"/>
				</g>
				<g>
					<g>
						<g>
							<path style="fill:#00C257;" d="M256.666,84.819c0.013,0.11,0.028,0.22,0.046,0.329c0.478,2.905,3.463,5.713,6.555,4.243         c2.908-1.383,2.779-4.977,4.041-7.469c1.911-3.773,6.941-5.406,10.529-7.152c3.128-1.522,7.35-4.211,5.415-8.398         c-2.409-5.211-8.669-1.065-12.171,0.78c-4.32,2.276-8.76,5.027-11.657,9.044C257.738,78.534,256.327,81.903,256.666,84.819z"/>
						</g>
					</g>
					<g>
						<path style="fill:#00C257;" d="M442.908,122.984c1.357,2.332,4.089,3.116,6.578,1.932c0.791-0.376,1.59-0.735,2.397-1.073        c0.358-0.15,0.717-0.297,1.077-0.44c0.15-0.06,0.301-0.118,0.451-0.177c1.589-0.583,3.184-1.145,4.785-1.695        c3.548-1.219,7.108-2.454,10.52-4.034c2.343-1.085,3.375-4.41,2.124-6.56c-1.369-2.352-4.077-3.09-6.578-1.931        c-0.792,0.367-1.591,0.717-2.399,1.048c-0.358,0.146-0.717,0.29-1.078,0.431c-0.012,0.005-0.038,0.015-0.07,0.027        c-0.094,0.036-0.194,0.073-0.245,0.092c-1.633,0.604-3.279,1.165-4.924,1.73c-3.552,1.222-7.114,2.473-10.514,4.091        C442.7,117.534,441.646,120.818,442.908,122.984z"/>
					</g>
				</g>
				<g>
					<path style="fill:#FFB500;" d="M328.539,70.023c-14.829,7.699-22.115,25.33-16.406,41.544       c5.709,16.214,22.435,25.389,38.816,22.099l5.885,16.713l77.021-27.121l-34.18-97.068L322.654,53.31L328.539,70.023z"/>
					<path d="M356.528,151.017l-5.908-16.777c-16.629,3.117-33.32-6.492-38.959-22.506c-5.639-16.014,1.35-33.966,16.263-41.951       l-5.908-16.777l77.965-27.453l34.512,98.012L356.528,151.017z M351.275,133.09l5.864,16.651l76.077-26.789l-33.848-96.125       l-76.078,26.789l5.864,16.651l-0.386,0.2c-14.738,7.652-21.688,25.25-16.165,40.934c5.522,15.685,21.974,25.042,38.245,21.775       L351.275,133.09z"/>
				</g>
				<g>
					<polygon style="fill:#FFB500;" points="184.553,133.524 199.407,175.708 174.812,184.443 160.037,142.484 184.115,133.688             "/>
					<path d="M174.506,185.082l-15.105-42.898l25.454-9.307l15.189,43.135L174.506,185.082z M160.673,142.785l14.444,41.019       l23.653-8.4l-14.519-41.233L160.673,142.785z"/>
				</g>
				<g>
					<path style="fill:#004421;" d="M138.332,149.299c4.911-2.826,9.015,1.432,14.66,18.34c5.445,16.311,7.029,23.487,0.776,25.619       c-4.008,1.367-7.692-8.353-11.955-20.492C137.55,160.627,134.538,151.482,138.332,149.299z"/>
					<path d="M152.999,193.891c-3.972,0-7.38-8.778-11.658-20.959c-4.715-13.428-7.288-21.749-3.259-24.067l0,0       c1.62-0.932,3.112-1.118,4.565-0.565c3.545,1.348,6.781,7.084,10.819,19.181c5.503,16.484,7.21,23.949,0.464,26.25       C153.616,193.838,153.306,193.891,152.999,193.891z M138.581,149.732c-3.6,2.071,0.113,12.644,3.704,22.869       c3.36,9.568,7.545,21.464,11.322,20.184c5.57-1.899,4.614-7.905-1.089-24.987c-3.88-11.625-7.035-17.349-10.227-18.563       C141.137,148.796,139.924,148.959,138.581,149.732L138.581,149.732z"/>
				</g>
				<g>
					<path style="fill:#AD2328;" d="M136.739,150.889c1.511-0.531,6.031,8.422,10.095,19.997       c4.064,11.575,6.134,21.388,4.623,21.919c-1.511,0.531-6.031-8.422-10.096-19.997       C137.298,161.233,135.228,151.42,136.739,150.889z"/>
					<path d="M151.364,193.32c-3.291,0-10.175-19.495-10.474-20.347c-0.307-0.875-7.489-21.442-4.317-22.556l0,0       c3.168-1.121,10.425,19.428,10.732,20.303c0.307,0.875,7.489,21.442,4.317,22.556       C151.54,193.306,151.453,193.32,151.364,193.32z M136.908,151.372c-0.737,0.896,0.572,8.873,4.925,21.271       c4.401,12.534,8.405,19.595,9.491,19.685c0.729-0.727-0.561-8.742-4.962-21.276       C142.009,158.655,138.044,151.611,136.908,151.372z"/>
				</g>
			</g>
			<g>
				<g>
					<g>
						<g>
							<path d="M382.041,118.124c1.055,6.71-3.423,11.105-8.772,13.578c-4.746,2.193-8.945,1.033-13.702,2.041         c-4.823,1.021-7.044,6.863-11.204,9.275c-4.777,2.771-9.383,2.57-14.742,2.553c-5.38-0.017-8.17,3.343-13.154,4.124         c-6.926,1.085-16.08-4.731-13.224-12.386c3.23-8.658,11.518-7.536,18.44-10.58c6.716-2.954,9.277-10.273,17.834-10.131         c3.352,0.056,6.292,0.68,9.727,0.097c5.335-0.906,9.149-5.023,14.414-6.47C373.256,108.69,380.656,109.314,382.041,118.124z"/>
							<path d="M318.752,150.326c-3.928,0-8.137-1.862-10.53-4.795c-2.027-2.482-2.541-5.464-1.447-8.396         c2.387-6.395,7.338-7.638,12.581-8.954c2.045-0.513,4.159-1.044,6.127-1.909c2.522-1.11,4.483-2.891,6.38-4.614         c3.057-2.777,6.197-5.675,11.664-5.559c1.104,0.019,2.17,0.098,3.199,0.175c2.148,0.162,4.178,0.313,6.436-0.071         c2.781-0.472,5.116-1.833,7.587-3.274c2.107-1.229,4.285-2.499,6.779-3.184c2.436-0.669,7.065-1.44,10.705,0.911         c2.319,1.498,3.767,3.984,4.303,7.391l0,0c1.267,8.048-5.131,12.294-9.057,14.109c-2.978,1.376-5.781,1.474-8.492,1.568         c-1.718,0.06-3.494,0.122-5.315,0.508c-2.633,0.558-4.451,2.652-6.377,4.87c-1.406,1.62-2.86,3.294-4.68,4.349         c-4.609,2.674-8.978,2.652-14.045,2.625l-0.95-0.004c-0.013,0-0.025,0-0.038,0c-2.878,0-4.97,0.998-7.183,2.053         c-1.764,0.841-3.587,1.71-5.854,2.065C319.959,150.282,319.358,150.326,318.752,150.326z M343.274,117.097         c-4.904,0-7.74,2.576-10.739,5.301c-1.956,1.777-3.979,3.614-6.65,4.789c-2.045,0.899-4.201,1.44-6.286,1.964         c-4.98,1.25-9.685,2.431-11.887,8.333c-1.236,3.313,0.016,5.861,1.284,7.415c2.553,3.127,7.343,4.935,11.393,4.303         c2.122-0.333,3.879-1.17,5.577-1.98c2.218-1.057,4.511-2.15,7.615-2.15c0.014,0,0.027,0,0.041,0l0.951,0.004         c4.918,0.023,9.163,0.048,13.538-2.49c1.676-0.972,3.074-2.582,4.427-4.139c1.948-2.245,3.964-4.565,6.925-5.193         c1.906-0.404,3.727-0.467,5.487-0.529c2.732-0.095,5.313-0.185,8.107-1.477c3.67-1.696,9.652-5.647,8.488-13.046l0,0         c-0.489-3.113-1.787-5.37-3.858-6.706c-2.42-1.563-6.029-1.85-9.896-0.787c-2.369,0.651-4.49,1.888-6.541,3.084         c-2.439,1.423-4.963,2.894-7.923,3.397c-2.378,0.404-4.467,0.248-6.678,0.082c-1.016-0.076-2.066-0.155-3.141-0.172         C343.432,117.098,343.353,117.097,343.274,117.097z"/>
						</g>
						<g>
							<path style="fill:#FFFFFF;" d="M325.686,126.724c-6.922,3.043-15.214,1.921-18.44,10.582         c-0.922,2.465-0.604,4.753,0.498,6.685c-0.031-0.959,0.147-1.96,0.534-3.001c3.226-8.661,11.518-7.54,18.44-10.582         c6.71-2.95,9.276-10.272,17.838-10.125c3.345,0.064,6.285,0.683,9.719,0.094c5.332-0.9,9.15-5.025,14.415-6.467         c4.762-1.301,10.825-1.048,13.377,4.484c0.009-0.088-0.017-0.182-0.023-0.265c-1.383-8.813-8.789-9.437-14.385-7.902         c-5.266,1.442-9.084,5.567-14.416,6.467c-3.434,0.589-6.374-0.03-9.719-0.094         C334.961,116.452,332.395,123.774,325.686,126.724z"/>
							<path d="M308.31,145.99l-1-1.751c-1.261-2.209-1.444-4.667-0.532-7.108c2.383-6.397,7.567-7.698,12.582-8.956         c2.044-0.513,4.158-1.044,6.125-1.908l0,0c2.518-1.107,4.478-2.887,6.373-4.608c3.06-2.779,6.227-5.647,11.675-5.559         c1.084,0.021,2.13,0.1,3.142,0.176c2.164,0.162,4.208,0.316,6.483-0.074c2.781-0.47,5.115-1.831,7.587-3.272         c2.108-1.229,4.286-2.501,6.782-3.184c2.438-0.668,7.067-1.437,10.711,0.916c2.319,1.499,3.766,3.985,4.301,7.391         c0.023,0.17,0.039,0.273,0.026,0.392l-0.183,1.824l-0.769-1.665c-2.929-6.35-10.531-4.828-12.791-4.211         c-2.369,0.648-4.491,1.886-6.543,3.083c-2.44,1.423-4.963,2.895-7.922,3.395c-2.395,0.412-4.498,0.253-6.725,0.086         c-0.998-0.075-2.031-0.153-3.087-0.173c-5.041-0.099-7.935,2.529-10.983,5.299c-1.955,1.775-3.976,3.611-6.645,4.784         c-2.044,0.899-4.199,1.439-6.284,1.963c-4.982,1.25-9.689,2.431-11.888,8.336c-0.362,0.976-0.531,1.921-0.502,2.811         L308.31,145.99z M325.887,127.181c-2.044,0.899-4.2,1.44-6.284,1.963c-4.982,1.251-9.688,2.431-11.888,8.336         c-0.571,1.527-0.657,3.061-0.263,4.516c0.09-0.39,0.209-0.784,0.357-1.181c2.383-6.399,7.568-7.7,12.582-8.958         c2.045-0.513,4.158-1.044,6.125-1.908c2.52-1.107,4.479-2.888,6.374-4.609c3.06-2.779,6.256-5.642,11.675-5.559         c1.085,0.021,2.131,0.1,3.144,0.175c2.164,0.163,4.209,0.315,6.481-0.074c2.781-0.47,5.115-1.831,7.586-3.272         c2.107-1.229,4.287-2.5,6.783-3.184c2.119-0.579,8.567-1.878,12.384,2.333c-0.675-1.868-1.763-3.301-3.248-4.261         c-2.42-1.564-6.031-1.854-9.904-0.791c-2.369,0.648-4.491,1.886-6.543,3.083c-2.44,1.423-4.962,2.895-7.922,3.395         c-2.394,0.411-4.499,0.253-6.727,0.086c-0.997-0.075-2.029-0.153-3.085-0.173c-5.042-0.094-7.935,2.53-10.983,5.299         C330.576,124.173,328.555,126.008,325.887,127.181L325.887,127.181z"/>
						</g>
					</g>
					<g>
						<g>
							<path d="M362.187,65.341c1.055,6.71-3.423,11.105-8.772,13.578c-4.746,2.194-8.945,1.033-13.702,2.041         c-4.823,1.022-7.044,6.863-11.203,9.275c-4.777,2.77-9.383,2.57-14.742,2.553c-5.38-0.017-8.17,3.343-13.155,4.124         c-6.926,1.086-16.08-4.731-13.224-12.386c3.23-8.658,11.518-7.536,18.441-10.58c6.717-2.954,9.277-10.273,17.834-10.13         c3.352,0.055,6.291,0.68,9.727,0.097c5.335-0.905,9.149-5.023,14.414-6.469C353.401,55.907,360.801,56.531,362.187,65.341z"/>
							<path d="M298.898,97.544c-3.929,0-8.138-1.862-10.531-4.795c-2.026-2.482-2.54-5.464-1.446-8.396         c2.386-6.395,7.338-7.638,12.581-8.954c2.045-0.513,4.159-1.044,6.127-1.909c2.522-1.11,4.483-2.891,6.379-4.614         c3.011-2.734,6.121-5.561,11.414-5.561c0.083,0,0.166,0,0.251,0.002c1.104,0.018,2.17,0.098,3.2,0.175         c2.149,0.161,4.178,0.312,6.434-0.071c2.781-0.472,5.115-1.833,7.586-3.274c2.106-1.229,4.284-2.499,6.779-3.184         c2.438-0.668,7.064-1.439,10.706,0.911c2.319,1.498,3.767,3.984,4.303,7.391l0,0c1.265,8.049-5.132,12.295-9.057,14.109         c-2.978,1.377-5.782,1.474-8.493,1.569c-1.718,0.06-3.494,0.122-5.315,0.508c-2.633,0.558-4.451,2.652-6.377,4.87         c-1.406,1.619-2.859,3.294-4.679,4.349c-4.611,2.674-8.983,2.647-14.049,2.624l-0.946-0.004c-0.013,0-0.026,0-0.039,0         c-2.878,0-4.97,0.998-7.185,2.054c-1.763,0.84-3.586,1.709-5.852,2.065C300.105,97.499,299.504,97.544,298.898,97.544z          M323.419,64.315c-4.904,0-7.74,2.576-10.739,5.301c-1.956,1.776-3.978,3.614-6.649,4.789         c-2.045,0.899-4.201,1.44-6.286,1.964c-4.98,1.251-9.685,2.431-11.887,8.334c-1.236,3.313,0.016,5.86,1.283,7.414         c2.553,3.128,7.344,4.935,11.395,4.303c2.121-0.333,3.877-1.17,5.575-1.979c2.218-1.058,4.511-2.151,7.616-2.151         c0.014,0,0.027,0,0.042,0l0.947,0.004c4.912,0.024,9.165,0.049,13.542-2.49c1.675-0.971,3.073-2.582,4.426-4.139         c1.949-2.244,3.964-4.565,6.925-5.193c1.906-0.404,3.727-0.467,5.487-0.529c2.732-0.095,5.313-0.186,8.108-1.477         c3.67-1.696,9.651-5.646,8.488-13.046c-0.489-3.113-1.787-5.37-3.857-6.706c-2.421-1.563-6.029-1.851-9.897-0.787         c-2.369,0.651-4.49,1.888-6.541,3.084c-2.44,1.423-4.962,2.894-7.922,3.397c-2.379,0.403-4.466,0.247-6.677,0.082         c-1.016-0.076-2.066-0.154-3.142-0.172C323.575,64.316,323.497,64.315,323.419,64.315z"/>
						</g>
						<g>
							<path style="fill:#FFFFFF;" d="M305.83,73.941c-6.922,3.043-15.214,1.921-18.44,10.582c-0.922,2.465-0.603,4.752,0.498,6.684         c-0.031-0.959,0.147-1.959,0.534-3.001c3.225-8.661,11.518-7.539,18.44-10.582c6.71-2.95,9.276-10.272,17.838-10.125         c3.345,0.064,6.286,0.683,9.719,0.094c5.332-0.9,9.15-5.025,14.416-6.467c4.762-1.3,10.825-1.047,13.377,4.485         c0.009-0.088-0.017-0.182-0.023-0.265c-1.383-8.813-8.789-9.437-14.385-7.902c-5.266,1.442-9.083,5.567-14.416,6.467         c-3.434,0.588-6.374-0.03-9.719-0.095C315.106,63.669,312.541,70.992,305.83,73.941z"/>
							<path d="M288.452,93.206l-0.998-1.75c-1.26-2.21-1.444-4.668-0.532-7.107c2.383-6.397,7.567-7.698,12.581-8.957         c2.045-0.513,4.159-1.043,6.126-1.908l0,0c2.52-1.108,4.479-2.888,6.375-4.609c3.06-2.779,6.237-5.655,11.673-5.559         c1.084,0.021,2.131,0.1,3.143,0.176c2.166,0.163,4.21,0.316,6.484-0.074c2.78-0.47,5.114-1.831,7.585-3.272         c2.107-1.229,4.287-2.501,6.783-3.185c2.438-0.667,7.068-1.438,10.711,0.916c2.318,1.499,3.766,3.985,4.3,7.391         c0.023,0.167,0.04,0.274,0.026,0.398l-0.199,1.783l-0.752-1.629c-2.929-6.349-10.53-4.829-12.79-4.211         c-2.369,0.648-4.491,1.886-6.543,3.083c-2.44,1.423-4.963,2.895-7.922,3.395c-2.393,0.41-4.497,0.253-6.727,0.085         c-0.998-0.075-2.03-0.153-3.086-0.173c-5.039-0.075-7.933,2.529-10.982,5.299c-1.955,1.775-3.976,3.611-6.644,4.784         c-2.044,0.899-4.199,1.439-6.284,1.963c-4.982,1.25-9.689,2.431-11.888,8.336c-0.362,0.973-0.531,1.919-0.503,2.812         L288.452,93.206z M306.031,74.399c-2.044,0.899-4.199,1.44-6.284,1.963c-4.983,1.25-9.689,2.431-11.888,8.336         c-0.571,1.527-0.656,3.06-0.263,4.516c0.091-0.39,0.21-0.785,0.357-1.182c2.383-6.399,7.568-7.7,12.582-8.958         c2.045-0.513,4.158-1.044,6.125-1.908c2.52-1.107,4.479-2.888,6.375-4.609c3.059-2.778,6.224-5.657,11.673-5.558         c1.084,0.021,2.13,0.1,3.142,0.175c2.164,0.164,4.209,0.317,6.484-0.074c2.78-0.469,5.114-1.831,7.586-3.272         c2.107-1.229,4.287-2.501,6.783-3.185c2.119-0.578,8.565-1.876,12.382,2.333c-0.675-1.868-1.762-3.301-3.246-4.26         c-2.422-1.566-6.032-1.854-9.904-0.791c-2.369,0.648-4.491,1.886-6.543,3.083c-2.439,1.423-4.963,2.895-7.922,3.395         c-2.395,0.41-4.497,0.252-6.727,0.085c-0.998-0.075-2.03-0.153-3.086-0.173c-5.04-0.099-7.932,2.529-10.982,5.299         C310.722,71.39,308.7,73.226,306.031,74.399L306.031,74.399z"/>
						</g>
					</g>
				</g>
				<g>
					<g id="XMLID_14_">
						<path style="fill:#FFFFFF;" d="M380.785,89.829c3.555,9.234,1.35,17.343,4.502,25.874c1.77,4.789,4.433,9.082,9.816,7.406        c9.858-3.07,13.971-12.804,14.96-23.261c1.277-13.506-2.835-27.569-12.45-36.876c-11.63-11.258-23.878-13.803-28.998-9.968        c-4.536,3.397-4.191,7.564-2.345,12.322C369.558,73.802,377.532,81.379,380.785,89.829z"/>
						<path d="M392.851,123.978c-4.459,0.001-6.693-4.482-8.031-8.102c-1.551-4.196-1.832-8.368-2.104-12.403        c-0.29-4.312-0.59-8.77-2.397-13.464l0,0c-1.607-4.173-4.449-8.229-7.199-12.151c-2.778-3.964-5.651-8.062-7.314-12.352        c-1.639-4.224-2.621-9.06,2.511-12.903c5.353-4.006,17.903-1.357,29.646,10.009c9.25,8.955,13.96,22.893,12.6,37.283        c-0.842,8.895-4.181,20.226-15.31,23.691C394.387,123.855,393.588,123.978,392.851,123.978z M374.602,51.805        c-2.331,0-4.281,0.546-5.687,1.599c-4.585,3.434-3.757,7.672-2.179,11.741c1.62,4.176,4.457,8.224,7.202,12.139        c2.784,3.971,5.662,8.078,7.313,12.366c1.861,4.836,2.167,9.371,2.462,13.756c0.278,4.147,0.542,8.063,2.043,12.124        c2.284,6.18,5.115,8.375,9.198,7.102c10.603-3.302,13.798-14.237,14.61-22.829c1.333-14.091-3.265-27.725-12.299-36.47        C389.089,55.415,380.591,51.805,374.602,51.805z"/>
					</g>
					<g>
						<path d="M368.193,69.64l-0.654-0.757c5.347-4.614,13.964-10.258,24.652-10.942l0.065,0.998        C381.844,59.605,373.424,65.126,368.193,69.64z"/>
					</g>
					<g>
						<path d="M378.73,84.737l-0.59-0.808c3.725-2.724,7.765-4.966,12.008-6.664c4.795-1.919,9.833-3.139,14.974-3.626l0.094,0.995        c-5.045,0.479-9.989,1.676-14.696,3.56C386.354,79.86,382.388,82.062,378.73,84.737z"/>
					</g>
					<g>
						<path d="M383.484,104.591l-0.565-0.825c4.125-2.825,8.609-5.022,13.327-6.53c5.624-1.798,11.128-2.255,13.907-2.367        l0.041,0.999c-2.729,0.11-8.132,0.558-13.643,2.32C391.926,99.667,387.529,101.821,383.484,104.591z"/>
					</g>
				</g>
				<g>
					<path style="fill:#FF8806;" d="M368.117,92.241c1.473,4.349,0.259,8.69-2.711,9.695c-2.97,1.006-6.572-1.704-8.044-6.053       c-1.473-4.349-0.259-8.69,2.711-9.695C363.043,85.182,366.644,87.892,368.117,92.241z"/>
					<path d="M364.112,102.649c-1.188,0-2.423-0.452-3.591-1.331c-1.6-1.203-2.89-3.076-3.634-5.274       c-1.559-4.603-0.202-9.237,3.024-10.33c3.228-1.09,7.119,1.764,8.679,6.367v0c0.744,2.197,0.857,4.469,0.318,6.396       c-0.559,1.995-1.745,3.392-3.344,3.933C365.095,102.569,364.607,102.649,364.112,102.649z M361.367,86.477       c-0.386,0-0.766,0.06-1.135,0.185c-2.704,0.916-3.779,4.981-2.397,9.062c0.681,2.009,1.848,3.712,3.287,4.795       c1.384,1.041,2.846,1.375,4.123,0.944c1.275-0.432,2.234-1.588,2.701-3.255c0.485-1.735,0.378-3.797-0.303-5.806       C366.449,88.878,363.807,86.477,361.367,86.477z"/>
				</g>
			</g>
		</g>
	</g>
</g>















</svg>
