<?xml version="1.0" encoding="UTF-8"?>
<!-- Generator: Adobe Illustrator 27.1.1, SVG Export Plug-In . SVG Version: 6.00 Build 0)  -->
<svg xmlns="http://www.w3.org/2000/svg" xmlns:xlink="http://www.w3.org/1999/xlink" version="1.1" id="Capa_1" x="0px" y="0px" viewBox="0 0 510.269 510.269" style="enable-background:new 0 0 510.269 510.269;" xml:space="preserve" width="512" height="512">
<g>
	<g>
		<g>
			<g>
				<rect x="87.236" y="399.545" width="77.872" height="1"/>
			</g>
			<g>
				<rect x="44.232" y="415.817" width="95.306" height="1"/>
			</g>
		</g>
		<g>
			<g>
				<rect x="418.482" y="399.545" width="77.872" height="1"/>
			</g>
			<g>
				<rect x="375.478" y="415.817" width="95.306" height="1"/>
			</g>
		</g>
	</g>
	<g>
		<g>
			<g>
				<g>
					<g>
						<g>
							<path d="M339.189,371.724c14.789,18.24,17.027,54.027,15.173,80.784c-0.388,5.6,3.574,10.561,9.132,11.345         c0.07,0.01,0.141,0.02,0.211,0.03c5.975,0.843,11.523-3.398,12.132-9.401c3.394-33.461,0.913-67.925-20.812-94.721         C347.074,349.956,331.205,361.877,339.189,371.724z"/>
						</g>
					</g>
				</g>
				<g>
					<g>
						<g>
							<path d="M410.113,510.269c-0.04,0-0.08-0.001-0.12-0.001c-2.721-0.031-5.266-1.12-7.167-3.065         c-1.9-1.945-2.931-4.515-2.899-7.235c0.031-2.721,1.12-5.266,3.065-7.167c1.946-1.901,4.541-2.912,7.235-2.899         c2.72,0.031,5.266,1.119,7.167,3.065c1.901,1.945,2.932,4.515,2.9,7.235c-0.031,2.721-1.12,5.266-3.065,7.167         C415.313,509.242,412.789,510.269,410.113,510.269z M410.106,490.9c-2.412,0-4.685,0.927-6.414,2.615         c-1.755,1.715-2.736,4.011-2.765,6.464s0.9,4.771,2.615,6.524c1.714,1.755,4.01,2.736,6.463,2.765         c2.475-0.011,4.772-0.9,6.525-2.615c1.755-1.714,2.736-4.01,2.765-6.463c0.028-2.453-0.9-4.771-2.615-6.525         c-1.715-1.754-4.011-2.736-6.464-2.764C410.18,490.901,410.143,490.9,410.106,490.9z"/>
						</g>
						<g>
							<path d="M410.165,504.938c-0.02,0-0.039,0-0.06,0c-2.846-0.032-5.135-2.375-5.102-5.222c0.016-1.379,0.567-2.668,1.554-3.632         c0.971-0.949,2.249-1.47,3.605-1.47c0.021,0,0.042,0,0.062,0c1.379,0.016,2.669,0.567,3.633,1.554         c0.963,0.986,1.485,2.288,1.47,3.667C415.293,502.662,412.984,504.938,410.165,504.938z M405.503,499.722l0.5,0.006         c-0.026,2.295,1.819,4.184,4.114,4.21c2.26,0.013,4.182-1.82,4.209-4.114c0.013-1.111-0.408-2.161-1.185-2.956         c-0.776-0.796-1.816-1.24-2.929-1.253c-1.145-0.005-2.161,0.407-2.956,1.185c-0.796,0.777-1.24,1.817-1.253,2.929         L405.503,499.722z"/>
						</g>
						<g>
							<path d="M373.987,499.63c-0.062,5.348,4.224,9.734,9.573,9.796c5.348,0.061,9.734-4.224,9.795-9.573         c0.061-5.348-4.224-9.734-9.572-9.796C378.434,489.996,374.049,494.281,373.987,499.63z"/>
							<path d="M383.673,509.926c-0.04,0-0.079-0.001-0.119-0.001c-2.721-0.031-5.266-1.12-7.167-3.065         c-1.901-1.946-2.931-4.516-2.899-7.236c0.031-2.72,1.119-5.265,3.065-7.166c1.945-1.901,4.501-2.923,7.235-2.9         c2.721,0.031,5.266,1.12,7.167,3.066c1.901,1.946,2.931,4.516,2.899,7.236C393.79,505.434,389.235,509.926,383.673,509.926z          M383.668,490.556c-2.413,0-4.688,0.927-6.417,2.616c-1.754,1.715-2.736,4.01-2.764,6.463l0,0         c-0.028,2.453,0.9,4.771,2.615,6.525c1.714,1.755,4.01,2.736,6.463,2.765c0.035,0,0.071,0.001,0.107,0.001         c5.016,0,9.124-4.051,9.182-9.079c0.028-2.453-0.9-4.77-2.615-6.525c-1.714-1.755-4.01-2.736-6.463-2.765         C383.74,490.557,383.704,490.556,383.668,490.556z"/>
						</g>
						<g>
							<path d="M383.725,504.595c-0.02,0-0.039,0-0.06,0c-2.847-0.033-5.135-2.376-5.102-5.222c0.032-2.826,2.342-5.103,5.161-5.103         c0.02,0,0.039,0,0.06,0c2.846,0.033,5.135,2.376,5.103,5.222C388.854,502.319,386.543,504.595,383.725,504.595z          M383.725,495.271c-2.273,0-4.135,1.835-4.161,4.114l0,0c-0.027,2.294,1.818,4.183,4.113,4.21c0.016,0,0.032,0,0.048,0         c2.272,0,4.136-1.836,4.162-4.114c0.026-2.294-1.819-4.183-4.114-4.21C383.757,495.271,383.74,495.271,383.725,495.271z"/>
						</g>
						<g>
							<path d="M400.427,499.973c-0.062,5.348,4.224,9.734,9.573,9.795c5.348,0.061,9.734-4.224,9.795-9.573         c0.062-5.348-4.224-9.734-9.573-9.795C404.874,490.339,400.488,494.624,400.427,499.973z"/>
							<path d="M410.113,510.269c-0.04,0-0.08-0.001-0.12-0.001c-2.721-0.031-5.266-1.12-7.167-3.065         c-1.9-1.945-2.931-4.515-2.899-7.235c0.031-2.721,1.12-5.266,3.065-7.167c1.946-1.901,4.541-2.912,7.235-2.899         c2.72,0.031,5.266,1.119,7.167,3.065c1.901,1.945,2.932,4.515,2.9,7.235c-0.031,2.721-1.12,5.266-3.065,7.167         C415.313,509.242,412.789,510.269,410.113,510.269z M410.106,490.9c-2.412,0-4.685,0.927-6.414,2.615         c-1.755,1.715-2.736,4.011-2.765,6.464s0.9,4.771,2.615,6.524c1.714,1.755,4.01,2.736,6.463,2.765         c2.475-0.011,4.772-0.9,6.525-2.615c1.755-1.714,2.736-4.01,2.765-6.463c0.028-2.453-0.9-4.771-2.615-6.525         c-1.715-1.754-4.011-2.736-6.464-2.764C410.18,490.901,410.143,490.9,410.106,490.9z"/>
						</g>
						<g>
							<path style="fill:#FFFFFF;" d="M405.503,499.722c-0.029,2.575,2.034,4.686,4.608,4.715c2.574,0.03,4.685-2.033,4.715-4.608         c0.029-2.574-2.034-4.686-4.608-4.715C407.644,495.085,405.533,497.148,405.503,499.722z"/>
							<path d="M410.165,504.938c-0.02,0-0.039,0-0.06,0c-2.846-0.032-5.135-2.375-5.102-5.222c0.016-1.379,0.567-2.668,1.554-3.632         c0.971-0.949,2.249-1.47,3.605-1.47c0.021,0,0.042,0,0.062,0c1.379,0.016,2.669,0.567,3.633,1.554         c0.963,0.986,1.485,2.288,1.47,3.667C415.293,502.662,412.984,504.938,410.165,504.938z M405.503,499.722l0.5,0.006         c-0.026,2.295,1.819,4.184,4.114,4.21c2.26,0.013,4.182-1.82,4.209-4.114c0.013-1.111-0.408-2.161-1.185-2.956         c-0.776-0.796-1.816-1.24-2.929-1.253c-1.145-0.005-2.161,0.407-2.956,1.185c-0.796,0.777-1.24,1.817-1.253,2.929         L405.503,499.722z"/>
						</g>
						<g>
							<path d="M373.987,499.63c-0.062,5.348,4.224,9.734,9.573,9.796c5.348,0.061,9.734-4.224,9.795-9.573         c0.061-5.348-4.224-9.734-9.572-9.796C378.434,489.996,374.049,494.281,373.987,499.63z"/>
							<path d="M383.673,509.926c-0.04,0-0.079-0.001-0.119-0.001c-2.721-0.031-5.266-1.12-7.167-3.065         c-1.901-1.946-2.931-4.516-2.899-7.236c0.031-2.72,1.119-5.265,3.065-7.166c1.945-1.901,4.501-2.923,7.235-2.9         c2.721,0.031,5.266,1.12,7.167,3.066c1.901,1.946,2.931,4.516,2.899,7.236C393.79,505.434,389.235,509.926,383.673,509.926z          M383.668,490.556c-2.413,0-4.688,0.927-6.417,2.616c-1.754,1.715-2.736,4.01-2.764,6.463l0,0         c-0.028,2.453,0.9,4.771,2.615,6.525c1.714,1.755,4.01,2.736,6.463,2.765c0.035,0,0.071,0.001,0.107,0.001         c5.016,0,9.124-4.051,9.182-9.079c0.028-2.453-0.9-4.77-2.615-6.525c-1.714-1.755-4.01-2.736-6.463-2.765         C383.74,490.557,383.704,490.556,383.668,490.556z"/>
						</g>
						<g>
							<path style="fill:#FFFFFF;" d="M379.063,499.379c-0.03,2.575,2.033,4.686,4.608,4.715c2.574,0.029,4.686-2.034,4.715-4.608         c0.03-2.575-2.033-4.686-4.608-4.716C381.204,494.742,379.093,496.805,379.063,499.379z"/>
							<path d="M383.725,504.595c-0.02,0-0.039,0-0.06,0c-2.847-0.033-5.135-2.376-5.102-5.222c0.032-2.826,2.342-5.103,5.161-5.103         c0.02,0,0.039,0,0.06,0c2.846,0.033,5.135,2.376,5.103,5.222C388.854,502.319,386.543,504.595,383.725,504.595z          M383.725,495.271c-2.273,0-4.135,1.835-4.161,4.114l0,0c-0.027,2.294,1.818,4.183,4.113,4.21c0.016,0,0.032,0,0.048,0         c2.272,0,4.136-1.836,4.162-4.114c0.026-2.294-1.819-4.183-4.114-4.21C383.757,495.271,383.74,495.271,383.725,495.271z"/>
						</g>
						<g>
							<path d="M346.063,499.441c-0.062,5.348,4.224,9.734,9.572,9.796c5.349,0.061,9.734-4.224,9.796-9.573         c0.062-5.348-4.224-9.734-9.573-9.796C350.51,489.807,346.124,494.092,346.063,499.441z"/>
							<path d="M355.746,509.738c-0.039,0-0.077-0.001-0.117-0.001c-5.615-0.065-10.131-4.687-10.066-10.302         c0.031-2.721,1.12-5.266,3.065-7.167c1.917-1.873,4.44-2.9,7.116-2.9c0.04,0,0.08,0.001,0.12,0.001         c2.72,0.031,5.266,1.12,7.167,3.065c1.901,1.946,2.931,4.516,2.899,7.235C365.866,505.245,361.309,509.738,355.746,509.738z          M355.744,490.368c-2.413,0-4.688,0.927-6.417,2.616c-1.755,1.714-2.736,4.01-2.765,6.463         c-0.059,5.064,4.015,9.23,9.078,9.29c0.035,0,0.07,0.001,0.105,0.001c5.017,0,9.127-4.052,9.185-9.08         c0.028-2.453-0.9-4.77-2.615-6.524c-1.714-1.755-4.01-2.736-6.463-2.765C355.817,490.369,355.78,490.368,355.744,490.368z"/>
						</g>
						<g>
							<path d="M355.802,504.406c-0.021,0-0.04,0-0.061,0c-1.379-0.016-2.669-0.567-3.633-1.554         c-0.963-0.986-1.485-2.288-1.47-3.667l0.5,0.006l-0.5-0.006c0.032-2.826,2.342-5.103,5.162-5.103c0.02,0,0.039,0,0.06,0         c1.379,0.016,2.668,0.567,3.632,1.554c0.964,0.986,1.486,2.288,1.47,3.667c-0.016,1.379-0.567,2.669-1.554,3.633         C358.437,503.885,357.158,504.406,355.802,504.406z M355.801,495.082c-2.273,0-4.136,1.835-4.162,4.114         c-0.013,1.111,0.408,2.161,1.186,2.956c0.776,0.796,1.816,1.24,2.929,1.253c0.016,0,0.032,0,0.049,0         c1.093,0,2.124-0.42,2.907-1.186c0.796-0.776,1.24-1.816,1.253-2.929c0.013-1.111-0.407-2.161-1.185-2.956         c-0.777-0.796-1.817-1.24-2.929-1.253C355.833,495.082,355.817,495.082,355.801,495.082z"/>
						</g>
						<g>
							<path d="M346.063,499.441c-0.062,5.348,4.224,9.734,9.572,9.796c5.349,0.061,9.734-4.224,9.796-9.573         c0.062-5.348-4.224-9.734-9.573-9.796C350.51,489.807,346.124,494.092,346.063,499.441z"/>
							<path d="M355.746,509.738c-0.039,0-0.077-0.001-0.117-0.001c-5.615-0.065-10.131-4.687-10.066-10.302         c0.031-2.721,1.12-5.266,3.065-7.167c1.917-1.873,4.44-2.9,7.116-2.9c0.04,0,0.08,0.001,0.12,0.001         c2.72,0.031,5.266,1.12,7.167,3.065c1.901,1.946,2.931,4.516,2.899,7.235C365.866,505.245,361.309,509.738,355.746,509.738z          M355.744,490.368c-2.413,0-4.688,0.927-6.417,2.616c-1.755,1.714-2.736,4.01-2.765,6.463         c-0.059,5.064,4.015,9.23,9.078,9.29c0.035,0,0.07,0.001,0.105,0.001c5.017,0,9.127-4.052,9.185-9.08         c0.028-2.453-0.9-4.77-2.615-6.524c-1.714-1.755-4.01-2.736-6.463-2.765C355.817,490.369,355.78,490.368,355.744,490.368z"/>
						</g>
						<g>
							<path style="fill:#FFFFFF;" d="M351.139,499.191c-0.03,2.575,2.033,4.686,4.608,4.715c2.575,0.029,4.686-2.034,4.715-4.608         c0.03-2.575-2.033-4.686-4.608-4.715C353.28,494.553,351.169,496.616,351.139,499.191z"/>
							<path d="M355.802,504.406c-0.021,0-0.04,0-0.061,0c-1.379-0.016-2.669-0.567-3.633-1.554         c-0.963-0.986-1.485-2.288-1.47-3.667l0.5,0.006l-0.5-0.006c0.032-2.826,2.342-5.103,5.162-5.103c0.02,0,0.039,0,0.06,0         c1.379,0.016,2.668,0.567,3.632,1.554c0.964,0.986,1.486,2.288,1.47,3.667c-0.016,1.379-0.567,2.669-1.554,3.633         C358.437,503.885,357.158,504.406,355.802,504.406z M355.801,495.082c-2.273,0-4.136,1.835-4.162,4.114         c-0.013,1.111,0.408,2.161,1.186,2.956c0.776,0.796,1.816,1.24,2.929,1.253c0.016,0,0.032,0,0.049,0         c1.093,0,2.124-0.42,2.907-1.186c0.796-0.776,1.24-1.816,1.253-2.929c0.013-1.111-0.407-2.161-1.185-2.956         c-0.777-0.796-1.817-1.24-2.929-1.253C355.833,495.082,355.817,495.082,355.801,495.082z"/>
						</g>
					</g>
					<g>
						<g>
							<path style="fill:#00C257;" d="M344.885,488.953l76.339,1.473c0,0,3.775-26.85-30.094-24.553         c-2.53,0.165-5.292,0.505-8.269,1.019l4.996-17.305l-37.526-1.725L344.885,488.953z"/>
							<path d="M421.658,490.934l-77.343-1.492l5.58-42.101l38.618,1.774l-4.951,17.151c2.683-0.442,5.214-0.742,7.535-0.894         c11.466-0.778,19.928,1.668,25.142,7.271c6.862,7.375,5.54,17.427,5.48,17.85L421.658,490.934z M345.454,488.463l75.32,1.453         c0.167-2.003,0.479-10.424-5.274-16.599c-4.999-5.366-13.19-7.704-24.336-6.946c-2.513,0.164-5.277,0.505-8.218,1.014         l-0.787,0.136l5.042-17.464l-36.434-1.675L345.454,488.463z"/>
						</g>
						<g>
							<path style="fill:#004421;" d="M365.586,462.808c-0.015,1.326,5.93,2.473,13.285,2.558c1.291,0.015,2.546-0.006,3.731-0.045         l0.86-2.347l0.819-2.332c-1.255-0.085-3.976-0.087-5.354-0.102C371.572,460.454,365.602,461.482,365.586,462.808z"/>
							<path d="M379.701,465.871c-0.282,0-0.56-0.002-0.836-0.005c-0.564-0.007-13.811-0.192-13.779-3.063l0,0         c0.027-2.312,9.079-2.831,13.847-2.764l0.982,0.009c1.429,0.011,3.386,0.026,4.4,0.095l0.655,0.045l-2.015,5.621         l-0.337,0.012C381.587,465.854,380.624,465.871,379.701,465.871z M366.089,462.814c0.253,0.692,4.698,1.958,12.788,2.052         c1.062,0.012,2.171,0.001,3.372-0.035l1.339-3.724c-1.048-0.039-2.535-0.051-3.681-0.06l-0.986-0.009         C370.957,460.955,366.353,462.139,366.089,462.814z"/>
						</g>
						<g>
							<path style="fill:#004421;" d="M366.708,454c-0.015,1.326,6.217,3.012,13.572,3.097c1.485,0.017,3.447,0.149,4.774,0.076         l1.644-4.777c-1.396-0.105-4.789-0.108-6.363-0.126C372.981,452.186,366.724,452.656,366.708,454z"/>
							<path d="M384.124,457.695c-0.686,0-1.443-0.025-2.185-0.052c-0.582-0.02-1.152-0.04-1.666-0.046         c-3.417-0.039-6.938-0.439-9.661-1.097c-2.934-0.709-4.415-1.552-4.404-2.506c0.007-0.653,0.005-2.37,14.133-2.224         l1.086,0.01c1.759,0.014,4.166,0.032,5.309,0.117l0.646,0.049l-1.965,5.707l-0.336,0.019         C384.787,457.689,384.464,457.695,384.124,457.695z M367.213,454.012c0.277,0.762,5.402,2.496,13.072,2.585         c0.521,0.006,1.1,0.026,1.689,0.047c0.949,0.033,1.927,0.066,2.719,0.044l1.318-3.829c-1.235-0.053-3.138-0.067-4.592-0.078         l-1.09-0.01C370.577,452.652,367.498,453.524,367.213,454.012z"/>
						</g>
					</g>
					<g>
						<g>
							<path style="fill:#FFFFFF;" d="M405.539,470.86c0.543-0.905,1.547-0.99,2.426-0.606c5.375,2.343,9.595,7.202,10.258,13.12         c0.103,0.923-0.915,1.797-1.788,1.747c-1.055-0.06-1.637-0.8-1.747-1.788c0.041,0.361-0.029-0.181-0.033-0.205         c-0.028-0.167-0.059-0.334-0.094-0.499c-0.057-0.274-0.125-0.547-0.202-0.816c-0.092-0.323-0.202-0.638-0.316-0.953         c-0.018-0.05-0.022-0.062-0.029-0.081c-0.002-0.004-0.004-0.005-0.017-0.036c-0.056-0.128-0.112-0.255-0.171-0.381         c-0.261-0.554-0.561-1.089-0.895-1.603c-0.091-0.14-0.185-0.279-0.281-0.416c-0.005-0.007-0.134-0.183-0.172-0.236         c-0.174-0.224-0.354-0.444-0.54-0.657c-0.407-0.466-0.841-0.907-1.298-1.324c-0.211-0.192-0.428-0.376-0.648-0.558         c-0.041-0.031-0.203-0.162-0.233-0.184c-0.112-0.084-0.226-0.168-0.34-0.249c-1.023-0.731-2.121-1.345-3.273-1.848         C405.269,472.905,405.092,471.604,405.539,470.86z"/>
						</g>
						<g>
							<path style="fill:#FFFFFF;" d="M357.016,452.557l-3.541,29.66c-0.27,2.259-3.781,1.844-3.511-0.419l3.541-29.66         C353.775,449.878,357.286,450.294,357.016,452.557z"/>
						</g>
					</g>
				</g>
			</g>
			<g>
				<g>
					<g>
						<g>
							<path d="M288.875,397.885c-5.576-9.949-12.143-19.271-18.894-28.409c-3.372-4.564-6.799-9.085-10.192-13.633         c-2.364-3.168-4.532-6.81-8.68-7.546c-6.235-1.107-12.253,4.722-12.807,10.878c-0.72,8.007,8.568,16.075,12.985,21.838         c13.921,18.163,28.323,37.653,30.489,61.465c1.174,12.912-24.544-2.048-28.134-3.969         c-7.131-3.816-14.171-7.782-21.095-11.958c-2.111-1.273-4.137-2.679-6.116-4.148c-5.163,6.583-8.556,11.155-13.157,18.602         c2.671,2.221,21.99,13.31,23.916,14.376c7.873,4.358,16.019,8.501,24.501,11.492c13.956,4.921,32.546,5.329,39.318-10.917         C308.898,437.03,298.017,414.198,288.875,397.885z"/>
						</g>
					</g>
				</g>
				<g>
					<g>
						<g>
							<path d="M181.887,466.347c-1.871,0-3.762-0.514-5.453-1.59c-2.295-1.461-3.883-3.727-4.473-6.384         c-0.59-2.655-0.11-5.382,1.351-7.677c1.461-2.295,3.728-3.884,6.384-4.474c2.655-0.591,5.382-0.11,7.677,1.35l0,0         c4.738,3.017,6.138,9.324,3.123,14.062C188.555,464.681,185.255,466.347,181.887,466.347z M181.922,446.978         c-0.668,0-1.341,0.073-2.009,0.222c-2.395,0.531-4.439,1.964-5.757,4.034c-1.318,2.069-1.751,4.528-1.219,6.923         c0.532,2.396,1.964,4.44,4.034,5.757c4.272,2.72,9.961,1.457,12.68-2.815c2.72-4.271,1.457-9.96-2.816-12.681l0,0         C185.343,447.467,183.648,446.978,181.922,446.978z"/>
						</g>
						<g>
							<path d="M182.128,461.535c-0.948,0-1.906-0.261-2.763-0.806c-2.401-1.528-3.111-4.726-1.583-7.127         c1.529-2.401,4.725-3.11,7.127-1.583l0,0c2.401,1.528,3.111,4.725,1.583,7.127         C185.509,460.69,183.835,461.535,182.128,461.535z M182.144,452.213c-1.377,0-2.726,0.681-3.518,1.926         c-1.232,1.935-0.66,4.514,1.276,5.746c1.936,1.231,4.515,0.66,5.746-1.276c1.232-1.937,0.66-4.514-1.276-5.746         C183.681,452.423,182.908,452.213,182.144,452.213z"/>
						</g>
						<g>
							<path d="M201.337,425.711c-4.512-2.872-10.498-1.543-13.371,2.969c-2.872,4.512-1.543,10.498,2.969,13.371         c4.512,2.872,10.498,1.543,13.371-2.969C207.178,434.57,205.849,428.584,201.337,425.711z"/>
							<path d="M196.116,444.07c-1.916,0-3.795-0.544-5.45-1.598c-4.737-3.016-6.138-9.323-3.122-14.061         c3.015-4.738,9.324-6.137,14.061-3.122c2.295,1.461,3.884,3.728,4.473,6.384c0.59,2.656,0.11,5.383-1.351,7.678         c-1.461,2.295-3.729,3.883-6.384,4.473C197.603,443.988,196.857,444.07,196.116,444.07z M196.151,424.699         c-3.038,0-6.014,1.503-7.763,4.25c-2.72,4.273-1.457,9.96,2.815,12.68c2.069,1.317,4.526,1.749,6.923,1.219         c2.395-0.531,4.439-1.964,5.757-4.033c1.318-2.07,1.75-4.528,1.219-6.924c-0.532-2.396-1.964-4.439-4.034-5.757         C199.543,425.163,197.837,424.699,196.151,424.699z"/>
						</g>
						<g>
							<path d="M196.361,439.249c-0.948,0-1.907-0.26-2.764-0.806c-2.4-1.528-3.11-4.726-1.583-7.127         c1.529-2.401,4.726-3.111,7.127-1.582l0,0c2.401,1.528,3.111,4.726,1.583,7.127         C199.741,438.406,198.068,439.249,196.361,439.249z M196.376,429.928c-1.377,0-2.725,0.681-3.518,1.926         c-1.232,1.936-0.66,4.514,1.276,5.746c1.937,1.235,4.514,0.661,5.746-1.275c1.233-1.935,0.66-4.514-1.276-5.746         C197.913,430.138,197.14,429.928,196.376,429.928z"/>
						</g>
						<g>
							<path d="M187.104,447.996c-4.512-2.872-10.498-1.543-13.37,2.969c-2.872,4.512-1.543,10.498,2.969,13.371         c4.512,2.872,10.498,1.543,13.37-2.969C192.945,456.855,191.616,450.868,187.104,447.996z"/>
							<path d="M181.887,466.347c-1.871,0-3.762-0.514-5.453-1.59c-2.295-1.461-3.883-3.727-4.473-6.384         c-0.59-2.655-0.11-5.382,1.351-7.677c1.461-2.295,3.728-3.884,6.384-4.474c2.655-0.591,5.382-0.11,7.677,1.35l0,0         c4.738,3.017,6.138,9.324,3.123,14.062C188.555,464.681,185.255,466.347,181.887,466.347z M181.922,446.978         c-0.668,0-1.341,0.073-2.009,0.222c-2.395,0.531-4.439,1.964-5.757,4.034c-1.318,2.069-1.751,4.528-1.219,6.923         c0.532,2.396,1.964,4.44,4.034,5.757c4.272,2.72,9.961,1.457,12.68-2.815c2.72-4.271,1.457-9.96-2.816-12.681l0,0         C185.343,447.467,183.648,446.978,181.922,446.978z"/>
						</g>
						<g>
							<path style="fill:#FFFFFF;" d="M184.64,452.441c-2.172-1.383-5.054-0.743-6.437,1.429c-1.383,2.172-0.743,5.053,1.429,6.436         c2.172,1.382,5.054,0.743,6.437-1.429S186.812,453.824,184.64,452.441z"/>
							<path d="M182.128,461.535c-0.948,0-1.906-0.261-2.763-0.806c-2.401-1.528-3.111-4.726-1.583-7.127         c1.529-2.401,4.725-3.11,7.127-1.583l0,0c2.401,1.528,3.111,4.725,1.583,7.127         C185.509,460.69,183.835,461.535,182.128,461.535z M182.144,452.213c-1.377,0-2.726,0.681-3.518,1.926         c-1.232,1.935-0.66,4.514,1.276,5.746c1.936,1.231,4.515,0.66,5.746-1.276c1.232-1.937,0.66-4.514-1.276-5.746         C183.681,452.423,182.908,452.213,182.144,452.213z"/>
						</g>
						<g>
							<path d="M201.337,425.711c-4.512-2.872-10.498-1.543-13.371,2.969c-2.872,4.512-1.543,10.498,2.969,13.371         c4.512,2.872,10.498,1.543,13.371-2.969C207.178,434.57,205.849,428.584,201.337,425.711z"/>
							<path d="M196.116,444.07c-1.916,0-3.795-0.544-5.45-1.598c-4.737-3.016-6.138-9.323-3.122-14.061         c3.015-4.738,9.324-6.137,14.061-3.122c2.295,1.461,3.884,3.728,4.473,6.384c0.59,2.656,0.11,5.383-1.351,7.678         c-1.461,2.295-3.729,3.883-6.384,4.473C197.603,443.988,196.857,444.07,196.116,444.07z M196.151,424.699         c-3.038,0-6.014,1.503-7.763,4.25c-2.72,4.273-1.457,9.96,2.815,12.68c2.069,1.317,4.526,1.749,6.923,1.219         c2.395-0.531,4.439-1.964,5.757-4.033c1.318-2.07,1.75-4.528,1.219-6.924c-0.532-2.396-1.964-4.439-4.034-5.757         C199.543,425.163,197.837,424.699,196.151,424.699z"/>
						</g>
						<g>
							<path style="fill:#FFFFFF;" d="M198.873,430.157c-2.172-1.383-5.054-0.743-6.436,1.429c-1.382,2.172-0.743,5.054,1.429,6.436         c2.172,1.383,5.054,0.743,6.436-1.429C201.685,434.421,201.045,431.539,198.873,430.157z"/>
							<path d="M196.361,439.249c-0.948,0-1.907-0.26-2.764-0.806c-2.4-1.528-3.11-4.726-1.583-7.127         c1.529-2.401,4.726-3.111,7.127-1.582l0,0c2.401,1.528,3.111,4.726,1.583,7.127         C199.741,438.406,198.068,439.249,196.361,439.249z M196.376,429.928c-1.377,0-2.725,0.681-3.518,1.926         c-1.232,1.936-0.66,4.514,1.276,5.746c1.937,1.235,4.514,0.661,5.746-1.275c1.233-1.935,0.66-4.514-1.276-5.746         C197.913,430.138,197.14,429.928,196.376,429.928z"/>
						</g>
						<g>
							<path d="M216.221,402.084c-4.512-2.873-10.498-1.543-13.37,2.969c-2.872,4.512-1.543,10.498,2.969,13.371         c4.512,2.872,10.498,1.543,13.371-2.969C222.062,410.942,220.733,404.956,216.221,402.084z"/>
							<path d="M211.004,420.435c-1.871,0-3.762-0.514-5.453-1.59c-4.737-3.016-6.138-9.323-3.122-14.061         c1.461-2.295,3.729-3.884,6.384-4.474c2.654-0.589,5.382-0.11,7.677,1.352l0,0c2.295,1.461,3.883,3.728,4.473,6.384         c0.59,2.655,0.11,5.382-1.351,7.677C217.673,418.769,214.372,420.435,211.004,420.435z M211.038,401.066         c-0.668,0-1.341,0.073-2.008,0.222c-2.395,0.531-4.44,1.964-5.757,4.034c-2.72,4.272-1.456,9.96,2.816,12.68         c4.271,2.72,9.961,1.458,12.68-2.815c1.318-2.069,1.75-4.528,1.219-6.923c-0.532-2.396-1.964-4.44-4.034-5.757l0,0         C214.46,401.556,212.765,401.066,211.038,401.066z"/>
						</g>
						<g>
							<path d="M211.243,415.625c-0.971,0-1.923-0.275-2.762-0.81c-1.163-0.74-1.968-1.889-2.267-3.235         c-0.299-1.346-0.056-2.728,0.685-3.891c1.528-2.401,4.725-3.111,7.127-1.583c1.163,0.74,1.968,1.89,2.268,3.236         c0.299,1.346,0.055,2.727-0.685,3.891c-0.741,1.163-1.89,1.969-3.236,2.268C211.997,415.584,211.619,415.625,211.243,415.625         z M211.26,406.301c-1.376,0-2.726,0.681-3.518,1.926c-0.597,0.938-0.793,2.052-0.552,3.137         c0.241,1.086,0.89,2.012,1.828,2.608c0.938,0.597,2.053,0.797,3.137,0.553c1.085-0.241,2.012-0.891,2.609-1.828         c0.597-0.938,0.794-2.052,0.552-3.138c-0.241-1.085-0.89-2.012-1.828-2.608C212.798,406.511,212.025,406.301,211.26,406.301z         "/>
						</g>
						<g>
							<path d="M216.221,402.084c-4.512-2.873-10.498-1.543-13.37,2.969c-2.872,4.512-1.543,10.498,2.969,13.371         c4.512,2.872,10.498,1.543,13.371-2.969C222.062,410.942,220.733,404.956,216.221,402.084z"/>
							<path d="M211.004,420.435c-1.871,0-3.762-0.514-5.453-1.59c-4.737-3.016-6.138-9.323-3.122-14.061         c1.461-2.295,3.729-3.884,6.384-4.474c2.654-0.589,5.382-0.11,7.677,1.352l0,0c2.295,1.461,3.883,3.728,4.473,6.384         c0.59,2.655,0.11,5.382-1.351,7.677C217.673,418.769,214.372,420.435,211.004,420.435z M211.038,401.066         c-0.668,0-1.341,0.073-2.008,0.222c-2.395,0.531-4.44,1.964-5.757,4.034c-2.72,4.272-1.456,9.96,2.816,12.68         c4.271,2.72,9.961,1.458,12.68-2.815c1.318-2.069,1.75-4.528,1.219-6.923c-0.532-2.396-1.964-4.44-4.034-5.757l0,0         C214.46,401.556,212.765,401.066,211.038,401.066z"/>
						</g>
						<g>
							<path style="fill:#FFFFFF;" d="M213.757,406.529c-2.172-1.383-5.053-0.743-6.436,1.429c-1.383,2.172-0.743,5.054,1.429,6.436         c2.172,1.383,5.053,0.743,6.436-1.429C216.569,410.793,215.929,407.912,213.757,406.529z"/>
							<path d="M211.243,415.625c-0.971,0-1.923-0.275-2.762-0.81c-1.163-0.74-1.968-1.889-2.267-3.235         c-0.299-1.346-0.056-2.728,0.685-3.891c1.528-2.401,4.725-3.111,7.127-1.583c1.163,0.74,1.968,1.89,2.268,3.236         c0.299,1.346,0.055,2.727-0.685,3.891c-0.741,1.163-1.89,1.969-3.236,2.268C211.997,415.584,211.619,415.625,211.243,415.625         z M211.26,406.301c-1.376,0-2.726,0.681-3.518,1.926c-0.597,0.938-0.793,2.052-0.552,3.137         c0.241,1.086,0.89,2.012,1.828,2.608c0.938,0.597,2.053,0.797,3.137,0.553c1.085-0.241,2.012-0.891,2.609-1.828         c0.597-0.938,0.794-2.052,0.552-3.138c-0.241-1.085-0.89-2.012-1.828-2.608C212.798,406.511,212.025,406.301,211.26,406.301z         "/>
						</g>
					</g>
					<g>
						<g>
							<path style="fill:#00C257;" d="M225.754,406.613l-41.503,64.089c0,0,20.824,17.365,36.73-12.625         c1.194-2.237,2.361-4.763,3.494-7.563l12.07,13.37l21.252-30.976L225.754,406.613z"/>
							<path d="M198.221,476.207c-8.045,0.001-14.005-4.883-14.292-5.121l-0.34-0.283l42.049-64.93l32.83,26.939l-21.87,31.877         l-11.962-13.251c-1.04,2.514-2.12,4.822-3.215,6.874c-5.386,10.156-11.925,16.054-19.434,17.529         C200.694,476.096,199.433,476.207,198.221,476.207z M184.92,470.587c1.613,1.198,8.599,5.905,16.885,4.271         c7.194-1.418,13.497-7.143,18.733-17.016c1.185-2.221,2.353-4.749,3.473-7.517l0.299-0.74l12.18,13.492l20.633-30.074         l-31.255-25.648L184.92,470.587z"/>
						</g>
						<g>
							<path style="fill:#004421;" d="M237.054,437.989c-1.119-0.712-5.228,3.735-9.178,9.939c-0.693,1.089-1.337,2.167-1.929,3.195         l1.541,1.968l1.55,1.925c0.734-1.021,2.17-3.332,2.91-4.495C235.897,444.316,238.172,438.701,237.054,437.989z"/>
							<path d="M229.06,455.842l-3.715-4.677l0.168-0.293c0.673-1.168,1.308-2.219,1.941-3.213         c0.303-0.476,7.444-11.627,9.868-10.093c0.512,0.326,1.021,1.18-0.458,4.816c-0.977,2.401-2.573,5.387-4.495,8.405         l-0.536,0.847c-0.759,1.203-1.799,2.85-2.39,3.673L229.06,455.842z M226.549,451.081l2.458,3.101         c0.583-0.866,1.373-2.117,1.981-3.08l0.538-0.85c4.285-6.73,5.693-11.259,5.258-11.839c-0.734-0.124-4.141,2.959-8.486,9.784         C227.726,449.094,227.152,450.04,226.549,451.081z M236.796,438.415L236.796,438.415L236.796,438.415z"/>
						</g>
						<g>
							<path style="fill:#004421;" d="M243.946,443.586c-1.119-0.712-5.838,3.694-9.788,9.899c-0.797,1.253-1.945,2.85-2.582,4.016         l3.192,3.916c0.825-1.131,2.617-4.013,3.462-5.34C242.18,449.872,245.079,444.308,243.946,443.586z"/>
							<path d="M234.79,462.235l-3.814-4.678l0.162-0.296c0.425-0.776,1.061-1.727,1.675-2.645c0.326-0.486,0.646-0.964,0.923-1.4         c1.835-2.883,4.032-5.664,6.026-7.631c2.149-2.119,3.646-2.93,4.452-2.421c0.825,0.525,0.595,1.969-0.769,4.826         c-1.027,2.154-2.685,5.043-4.793,8.354l-0.576,0.911c-0.94,1.488-2.227,3.527-2.904,4.455L234.79,462.235z M232.179,457.45         l2.558,3.139c0.697-1.023,1.714-2.635,2.492-3.866l0.578-0.914c5.241-8.231,6.126-11.3,5.862-11.799         c-0.801-0.183-4.97,3.272-9.09,9.744c-0.281,0.441-0.606,0.927-0.937,1.42C233.118,455.958,232.577,456.767,232.179,457.45z          M243.688,444.014L243.688,444.014L243.688,444.014z"/>
						</g>
					</g>
					<g>
						<g>
							<path style="fill:#FFFFFF;" d="M209.145,467.69c0.482,0.939,0.025,1.836-0.764,2.381c-4.825,3.331-11.179,4.355-16.557,1.798         c-0.839-0.399-1.044-1.725-0.542-2.441c0.607-0.865,1.542-0.969,2.441-0.542c-0.329-0.156,0.17,0.071,0.191,0.08         c0.157,0.065,0.314,0.126,0.473,0.184c0.264,0.096,0.531,0.182,0.8,0.259c0.323,0.092,0.649,0.165,0.977,0.234         c0.052,0.011,0.065,0.014,0.084,0.018c0.005,0,0.006-0.001,0.04,0.004c0.138,0.02,0.276,0.039,0.414,0.055         c0.608,0.07,1.222,0.097,1.834,0.085c0.167-0.004,0.335-0.01,0.502-0.019c0.009-0.001,0.226-0.018,0.292-0.022         c0.282-0.03,0.563-0.066,0.843-0.112c0.61-0.1,1.214-0.236,1.809-0.405c0.274-0.078,0.546-0.166,0.816-0.256         c0.048-0.018,0.245-0.087,0.279-0.101c0.131-0.051,0.262-0.104,0.391-0.158c1.16-0.484,2.262-1.093,3.296-1.807         C207.55,466.383,208.749,466.919,209.145,467.69z"/>
						</g>
						<g>
							<path style="fill:#FFFFFF;" d="M250.282,436.112l-23.335-18.648c-1.777-1.42,0.427-4.185,2.208-2.762l23.335,18.647         C254.267,434.77,252.063,437.534,250.282,436.112z"/>
						</g>
					</g>
				</g>
			</g>
		</g>
		<g>
			<g>
				<g>
					<path style="fill:#FFB500;" d="M161.36,189.854c-45.628,0-82.616,36.988-82.616,82.616s36.989,82.616,82.616,82.616       c45.628,0,82.616-36.989,82.616-82.616S206.988,189.854,161.36,189.854z M161.36,332.152c-32.961,0-59.681-26.72-59.681-59.681       s26.72-59.681,59.681-59.681s59.681,26.72,59.681,59.681S194.321,332.152,161.36,332.152z"/>
					<path d="M161.36,355.587c-45.831,0-83.116-37.286-83.116-83.116c0-45.831,37.286-83.117,83.116-83.117       c45.831,0,83.117,37.286,83.117,83.117C244.476,318.301,207.19,355.587,161.36,355.587z M161.36,190.354       c-45.279,0-82.116,36.838-82.116,82.117s36.837,82.116,82.116,82.116c45.279,0,82.117-36.837,82.117-82.116       S206.639,190.354,161.36,190.354z M161.36,332.652c-33.184,0-60.181-26.997-60.181-60.181       c0-33.185,26.997-60.182,60.181-60.182s60.181,26.997,60.181,60.182C221.541,305.655,194.544,332.652,161.36,332.652z        M161.36,213.29c-32.633,0-59.181,26.549-59.181,59.182s26.548,59.181,59.181,59.181s59.181-26.548,59.181-59.181       S193.992,213.29,161.36,213.29z"/>
				</g>
				<g>
					<path style="fill:#FFB500;" d="M368.916,105.185c-0.409,0.186-0.859,0.348-1.359,0.437       c11.924,74.504,23.833,149.026,35.739,223.533c0.562,3.557,1.141,7.111,1.703,10.669c0.902,5.568-2.416,11.34-8.556,14.929       c-18.963,11.139-50.896,26.634-93.67,34.354c-43.135,7.768-78.718,4.267-100.492,0.387c-7.101-1.273-12.247-5.63-13.252-11.26       l-41.46-232.141c-1.198,0.101-2.322-0.103-3.226-0.524l-0.041-0.025c-1.353-0.665-2.241-1.817-2.25-3.207l-0.374-44.813       c-0.118-2.52,1.016-4.94,2.989-6.894c3.069-3.04,7.112-3.827,8.058-3.996c29.123-2.644,61.616-6.748,96.794-13.047       c34.874-6.245,66.529-13.597,94.576-21.131c6.572-1.174,12.714,1.646,14.171,6.5l12.727,42.574       C371.424,102.924,370.511,104.414,368.916,105.185z"/>
					<path d="M251.134,394.219c-19.645,0-36.345-1.987-48.942-4.232c-7.375-1.322-12.608-5.792-13.657-11.665l-41.382-231.706       c-1.085,0.037-2.123-0.175-3.023-0.595c-1.625-0.803-2.57-2.168-2.58-3.683l-0.374-44.812c-0.12-2.547,0.993-5.13,3.136-7.254       c2.942-2.914,6.8-3.861,8.322-4.133c32.242-2.929,64.793-7.316,96.794-13.047c31.65-5.667,63.456-12.773,94.534-21.121       c6.903-1.236,13.239,1.708,14.779,6.839l12.728,42.574c0.495,1.596-0.465,3.346-2.336,4.25l-0.011,0.005       c-0.342,0.156-0.672,0.277-0.998,0.365c11.898,74.35,23.783,148.719,35.665,223.07c0.281,1.787,0.568,3.572,0.855,5.358       c0.284,1.771,0.567,3.541,0.848,5.311c0.939,5.801-2.431,11.717-8.798,15.44c-19.595,11.51-51.782,26.823-93.834,34.414       C284.159,392.967,266.719,394.219,251.134,394.219z M147.98,145.556l41.54,232.59c0.974,5.45,5.897,9.609,12.849,10.857       c22.511,4.012,58.189,7.2,100.314-0.388c41.907-7.565,73.98-22.823,93.507-34.292c6.002-3.51,9.188-9.034,8.315-14.419       c-0.28-1.772-0.564-3.542-0.848-5.311c-0.287-1.786-0.573-3.572-0.855-5.359c-11.906-74.506-23.815-149.028-35.739-223.532       l-0.077-0.485l0.483-0.086c0.399-0.071,0.804-0.201,1.234-0.396c1.412-0.685,2.156-1.94,1.81-3.056l-12.729-42.579       c-1.393-4.644-7.24-7.289-13.603-6.151c-31.064,8.347-62.897,15.459-94.576,21.131c-32.029,5.735-64.609,10.127-96.837,13.053       c-1.387,0.249-5.009,1.137-7.751,3.854c-1.939,1.922-2.948,4.235-2.841,6.516l0.374,44.832       c0.007,1.145,0.726,2.151,1.971,2.763c0.888,0.419,1.945,0.59,3.005,0.5L147.98,145.556z"/>
				</g>
				<g>
					<path style="fill:#FFB500;" d="M368.916,105.185l-1.362,0.421c-35.268,8.581-73.417,16.818-114.221,24.219       c-37.197,6.757-72.552,12.067-105.764,16.267l-3.226-0.524l-0.041-0.025c-1.353-0.665-2.241-1.817-2.25-3.207l-0.374-44.813       c-0.118-2.52,1.016-4.94,2.989-6.894c3.069-3.04,7.112-3.827,8.058-3.996c29.123-2.644,61.616-6.748,96.794-13.047       c34.874-6.245,66.529-13.597,94.576-21.131c6.572-1.174,12.714,1.646,14.171,6.5l12.727,42.574       C371.424,102.924,370.511,104.414,368.916,105.185z"/>
					<path d="M147.559,146.597l-3.474-0.6c-1.58-0.779-2.525-2.145-2.535-3.659l-0.374-44.812c-0.12-2.547,0.993-5.13,3.136-7.254       c2.942-2.914,6.8-3.861,8.322-4.133c32.242-2.929,64.793-7.316,96.794-13.047c31.65-5.667,63.456-12.773,94.534-21.121       c6.903-1.236,13.239,1.708,14.779,6.839l12.728,42.574c0.495,1.596-0.465,3.346-2.336,4.25l-0.07,0.027l-1.362,0.421       c-37.566,9.142-76.006,17.292-114.28,24.233c-34.785,6.318-70.378,11.793-105.791,16.271L147.559,146.597z M144.508,145.088       l3.069,0.499c35.372-4.475,70.922-9.943,105.666-16.255c38.254-6.938,76.674-15.084,114.193-24.212l1.296-0.401       c1.394-0.688,2.126-1.935,1.781-3.042l-12.729-42.579c-1.393-4.644-7.24-7.289-13.603-6.151       c-31.064,8.347-62.897,15.459-94.576,21.131c-32.028,5.735-64.609,10.127-96.836,13.053c-1.387,0.249-5.009,1.137-7.751,3.854       c-1.939,1.922-2.948,4.235-2.841,6.516l0.374,44.832C142.558,143.472,143.271,144.476,144.508,145.088z"/>
				</g>
				<g>
					<path style="fill:#FF8806;" d="M351.447,109.482l36.888,231.229c-20.627,11.286-49.961,24.007-86.927,30.97       c-38.865,7.302-72.439,5.627-96.61,2.152l-42-229.784c29.173-3.769,59.941-8.457,92.099-14.304       C289.025,123.548,321.257,116.693,351.447,109.482z"/>
					<path d="M246.523,377.317c-13.976,0-27.932-0.995-41.796-2.988l-0.356-0.052l-0.064-0.354l-42.095-230.303l0.522-0.067       c30.767-3.975,61.745-8.785,92.074-14.3c32.408-5.885,64.884-12.7,96.523-20.258l0.525-0.125l37.027,232.11l-0.309,0.169       c-27.04,14.795-56.337,25.232-87.074,31.022C283.252,375.601,264.871,377.317,246.523,377.317z M205.225,373.389       c31.842,4.538,64.17,3.797,96.09-2.199c30.517-5.748,59.608-16.094,86.47-30.748l-36.747-230.349       c-31.49,7.512-63.806,14.289-96.052,20.145c-30.174,5.485-60.991,10.276-91.602,14.24L205.225,373.389z"/>
				</g>
				<g>
					<g>
						
							<rect x="223.932" y="265.32" transform="matrix(0.9857 -0.1685 0.1685 0.9857 -50.0283 42.3338)" width="1" height="101.262"/>
					</g>
					<g>
						<rect x="287.322" y="264.431" transform="matrix(0.982 -0.1886 0.1886 0.982 -53.8974 59.9177)" width="1" height="97.343"/>
					</g>
					<g>
						
							<rect x="344.919" y="248.555" transform="matrix(0.9817 -0.1906 0.1906 0.9817 -50.5523 71.3262)" width="1.001" height="99.676"/>
					</g>
				</g>
			</g>
			<g>
				<g>
					<path style="fill:#FFFFFF;" d="M134.692,89.563c-10.384-19.583,8.799-39.21,28.253-29.392       c-6.511-41.439,68.746-73.705,98.575-35.266c23.858-45.783,91.378-21.609,81.553,26.605c3.806-2.749,8.222-4.929,13.105-6.314       c19.355-5.493,38.677,3.541,43.157,20.177c4.48,16.636-7.578,34.575-26.933,40.068c-0.729,0.207-1.459,0.386-2.187,0.553       l0.525,3.56c0.803,5.439-3.627,10.828-9.893,12.037c-6.267,1.21-11.998-2.219-12.8-7.658l-0.537-3.64l-8.627,1.942       l2.728,18.481c0.803,5.439-3.627,10.828-9.894,12.037c-6.267,1.209-11.998-2.219-12.8-7.658l-1.824-12.359       c-0.414-2.801-3.431-4.428-6.25-3.37c-0.579,1.329-5.089,11.226-16.602,14.884c-9.89,3.142-17.977-0.533-19.578-1.301       c-0.734,9.641-8.076,17.322-17.1,18.096c-7.52,0.645-14.6-3.643-18.058-10.455c-2.266-4.465-9.079-2.029-8.182,2.937       c0.007,0.039,0.014,0.079,0.022,0.118l1.784,8.972c1.07,5.382-3.11,10.913-9.337,12.354       c-6.227,1.441-12.142-1.754-13.212-7.135l-3.181-15.998c-2.065,2.252-8.627,8.852-19.599,11.386       c-11.227,2.593-19.997-0.704-22.728-1.857l-0.207,0.007l8.133,41.938c1.348,6.948-2.955,13.721-9.61,15.128l-1.614,0.341       c-6.655,1.407-13.142-3.085-14.489-10.033l-9.031-46.57c-2.76-0.587-5.613-0.598-8.342-1.23       c-5.307-1.228-10.442-3.241-14.836-6.271c-5.41-3.731-9.532-9.085-10.752-15.505       C101.487,114.242,106.282,94.039,134.692,89.563z"/>
					<path d="M159.315,209.54c-2.408,0-4.772-0.711-6.846-2.085c-2.964-1.966-4.979-5.023-5.675-8.612l-8.968-46.241       c-1.204-0.236-2.446-0.374-3.651-0.507c-1.441-0.159-2.932-0.324-4.376-0.658c-5.797-1.342-10.847-3.478-15.007-6.348       c-5.902-4.07-9.794-9.689-10.959-15.822c-1.075-5.655-1.882-16.555,4.784-26.024c5.193-7.377,13.708-12.106,25.316-14.062       c-4.48-9-3.164-19.055,3.43-25.783c6.442-6.573,16.147-8.132,24.954-4.084c-2.661-20.704,14.793-38.043,33.522-46.136       c21.117-9.125,49.465-9.258,65.598,10.814C274.09,0.485,297.701-3.684,315.641,2.675c17.307,6.137,32.547,23.22,28.155,47.718       c3.714-2.518,7.827-4.426,12.245-5.68c10.378-2.945,21.259-1.841,29.851,3.028c7.011,3.974,11.957,10.188,13.926,17.5       c4.545,16.872-7.692,35.121-27.278,40.679c-0.588,0.166-1.175,0.315-1.763,0.454l0.459,3.104       c0.841,5.691-3.777,11.344-10.294,12.602c-3.439,0.663-6.897-0.009-9.489-1.847c-2.146-1.522-3.531-3.734-3.9-6.229       l-0.458-3.107l-7.648,1.722l2.66,18.022c0.84,5.691-3.778,11.344-10.294,12.602c-3.438,0.661-6.897-0.008-9.489-1.847       c-2.147-1.522-3.531-3.734-3.9-6.229l-1.823-12.359c-0.169-1.138-0.819-2.093-1.832-2.689       c-1.058-0.624-2.341-0.751-3.555-0.353c-1.038,2.295-5.794,11.456-16.819,14.96c-8.699,2.764-16.009,0.424-19.298-1.029       c-1.047,9.457-8.451,17.07-17.489,17.846c-7.631,0.661-14.907-3.556-18.546-10.727c-1.086-2.139-3.147-2.333-4.582-1.852       c-1.628,0.547-3.083,2.143-2.662,4.474l0.021,0.108l1.784,8.972c1.121,5.636-3.238,11.439-9.714,12.939       c-3.42,0.794-6.927,0.251-9.617-1.486c-2.217-1.433-3.708-3.577-4.198-6.039l-2.992-15.048       c-3.269,3.37-9.645,8.621-19.186,10.825c-9.936,2.295-18.083,0.096-22.4-1.623l7.977,41.131       c1.397,7.202-3.087,14.251-9.997,15.712l-1.614,0.341C161.025,209.451,160.167,209.54,159.315,209.54z M152.43,58.023       c-6.018,0-11.056,2.71-14.352,6.074c-6.435,6.565-7.59,16.47-2.944,25.231l0.328,0.619l-0.692,0.109       c-11.679,1.84-20.203,6.47-25.335,13.761c-6.454,9.168-5.664,19.763-4.619,25.262c1.116,5.873,4.86,11.267,10.544,15.188       c4.057,2.797,8.991,4.882,14.665,6.195c1.388,0.321,2.848,0.482,4.261,0.639c1.337,0.148,2.72,0.301,4.072,0.589l0.324,0.069       l9.095,46.895c0.645,3.322,2.508,6.152,5.247,7.968c2.581,1.711,5.653,2.309,8.648,1.671l1.614-0.341       c6.379-1.349,10.516-7.873,9.223-14.543l-8.245-42.512l0.901-0.034l0.102,0.043c4.007,1.693,12.247,4.182,22.421,1.83       c9.979-2.305,16.402-8.029,19.343-11.236l0.667-0.727l3.374,16.965c0.436,2.194,1.772,4.11,3.76,5.395       c2.463,1.591,5.688,2.086,8.849,1.352c5.956-1.379,9.975-6.658,8.959-11.77l-1.808-9.095c-0.525-2.905,1.357-4.94,3.327-5.603       c1.955-0.658,4.505-0.186,5.792,2.347c3.455,6.807,10.36,10.804,17.569,10.184c8.781-0.754,15.936-8.336,16.645-17.637       l0.056-0.729l0.66,0.316c2.782,1.336,10.224,4.135,19.21,1.276c10.971-3.485,15.498-12.779,16.295-14.607l0.084-0.193       l0.198-0.074c1.551-0.583,3.232-0.452,4.607,0.359c1.26,0.742,2.103,1.982,2.313,3.404l1.824,12.359       c0.327,2.223,1.566,4.196,3.488,5.56c2.369,1.68,5.548,2.294,8.722,1.68c5.998-1.157,10.257-6.304,9.494-11.473l-2.796-18.94       l9.605-2.163l0.616,4.174c0.327,2.223,1.566,4.196,3.488,5.56c2.37,1.68,5.547,2.293,8.722,1.68       c5.999-1.157,10.258-6.304,9.494-11.473l-0.594-4.019l0.451-0.103c0.722-0.164,1.441-0.342,2.162-0.547       c19.062-5.408,30.989-23.108,26.587-39.456c-1.899-7.051-6.678-13.049-13.454-16.89c-8.361-4.737-18.963-5.81-29.084-2.936       c-4.713,1.337-9.069,3.436-12.948,6.238l-1.039,0.75l0.256-1.255c5.005-24.56-10.094-41.699-27.276-47.791       c-17.702-6.278-41.06-2.057-53.344,21.517l-0.36,0.691l-0.478-0.616c-15.72-20.255-43.917-20.18-64.89-11.115       c-18.655,8.061-36.032,25.41-32.797,45.998l0.151,0.963l-0.871-0.44C159.09,58.785,155.622,58.023,152.43,58.023z"/>
				</g>
				<g>
					<path d="M228.826,69.677c-0.813-7.665,4.07-14.503,10.886-15.242c4.511-0.487,8.936,1.841,11.567,6.005       c1.574-5.16,5.705-8.877,10.595-9.4c3.127-0.333,6.255,0.629,8.826,2.707c2.997,2.424,4.961,6.154,5.388,10.236l-0.994,0.104       c-0.4-3.819-2.23-7.305-5.022-9.562c-2.363-1.912-5.233-2.791-8.091-2.491c-4.832,0.518-8.866,4.464-10.038,9.82l-0.295,1.349       l-0.637-1.225c-2.322-4.464-6.717-7.031-11.191-6.549c-6.27,0.68-10.755,7.024-10,14.143L228.826,69.677z"/>
				</g>
				<g>
					<path d="M166.77,122.941c-0.606-5.888,2.216-11.351,7.022-13.593c2.864-1.337,6.147-1.438,9.246-0.285       c3.581,1.331,6.593,4.229,8.265,7.949l-0.912,0.41c-1.563-3.479-4.37-6.184-7.702-7.422c-2.844-1.059-5.854-0.968-8.474,0.254       c-4.42,2.062-7.012,7.12-6.45,12.585L166.77,122.941z"/>
				</g>
				<g>
					<path d="M322.926,85.987l-1-0.043c0.174-3.984,1.859-7.718,4.624-10.241c2.374-2.168,5.352-3.291,8.409-3.138       c4.912,0.232,9.227,3.719,10.992,8.883l-0.945,0.324c-1.633-4.774-5.595-7.995-10.094-8.209       c-2.791-0.124-5.513,0.892-7.689,2.878C324.655,78.787,323.088,82.266,322.926,85.987z"/>
				</g>
			</g>
		</g>
		<g>
			<g>
				<g>
					<path d="M170.581,274.99c-4.531,0.838-8.993-1.417-12.896-3.783c-4.831-2.924-9.322-6.607-11.977-11.688       c-1.357-2.605-2.286-5.42-2.974-8.264c-0.779-3.264-0.26-12.726-3.823-12.676c-1.647,0.02-4.122,2.296-5.689,2.904       c-1.926,0.749-3.923,1.138-5.979,1.018c-8.983-0.509-13.295-8.644-13.654-16.688c-0.17-4.002,0.948-8.574,0-12.476       c-1.028-4.242-1.168-3.843-4.841-2.585c-7.146,2.455-14.363,3.663-20.521-1.986c-5.599-5.14-4.551-11.957-2.226-18.395       c0.679-1.886,3.354-6.188,2.465-8.264c-1.387-3.244-4.651,0.409-6.807,1.427c-9.572,4.541-14.033-1.567-20.561-7.755       c-5.739-5.43,1.966-15.091,7.735-9.622c1.517,1.437,2.795,3.184,4.332,4.591c2.455,2.246,1.118,2.086,3.843,1.318       c3.703-1.058,5.909-3.863,10.141-3.873c8.045,0,13.993,7.546,13.614,15.241c-0.16,3.443-5.789,13.894-4.412,16.059       c2.356,3.713,13.874-2.665,17.816-1.966c8.065,1.437,11.648,10.091,11.868,17.407c0.12,3.843-1.168,8.853,0.07,12.546       c1.637,4.851,5.02,0.928,8.404-0.439c9.722-3.943,17.018,2.865,18.904,12.197c0.609,3.024,0.669,6.168,1.527,9.143       c0.748,2.625,2.206,5.24,4.811,6.378c1.507,0.669,3.174,0.808,4.801,0.908c0.499,0.03,1.647-0.04,2.595,0.1L170.581,274.99z"/>
				</g>
				<g>
					<g>
						<path style="fill:#FFFFFF;" d="M32.335,150.799c0,0-13.691-10.483-17.602-1.172c0,0-4.113,9.465,17.307,14.605        c0,0,12.91,13.684,21.911,11.365c0,0,2.635,7.466,12.89,3.451c10.255-4.015,18.096-17.208,9.148-20.95        c-0.017-0.007,0.545-3.619,0.564-3.846c0.22-2.682,0.13-5.453-0.616-8.052c-0.254-0.887-0.771-1.675-1.022-2.563        c-0.058-0.205,1.749-3.08,1.232-6.665c-0.571-3.965-1.433-4.248-0.466-6.246c1.026-2.122,3.007-5.001,2.604-7.314        c-0.594-3.4-3.239-6.133-6.853-6.044c-2.706,0.067-5.174,1.694-6.932,3.652c-1.794,1.998-3.018,4.465-4.017,6.936        c-0.418,1.036-0.794,2.089-1.137,3.152c-0.123,0.381-1.249,3.391-1.03,3.566c-0.001-0.001-15.155-12.139-19.445,5.98        C38.87,140.656,31.417,142.53,32.335,150.799z"/>
						<path d="M61.298,180.739c-1.381,0-2.644-0.261-3.782-0.781c-2.346-1.074-3.461-2.947-3.858-3.778        c-8.811,1.801-20.563-10.126-21.877-11.495c-9.179-2.222-14.907-5.502-17.025-9.749c-1.518-3.042-0.523-5.407-0.479-5.506        c0.875-2.086,2.296-3.405,4.22-3.917c4.67-1.234,10.966,2.669,13.267,4.258c-0.192-6.787,5.332-9.055,6.689-9.508        c1.29-5.223,3.629-8.452,6.956-9.602c4.958-1.716,10.584,1.747,12.527,3.111c0.143-0.525,0.396-1.29,0.8-2.43        c0.066-0.186,0.115-0.324,0.136-0.387c0.368-1.14,0.744-2.182,1.149-3.187c0.858-2.122,2.1-4.846,4.108-7.083        c1.248-1.39,3.855-3.733,7.291-3.817c3.663-0.052,6.679,2.565,7.358,6.458c0.349,2.001-0.857,4.243-1.92,6.222        c-0.263,0.49-0.516,0.959-0.727,1.396c-0.55,1.136-0.44,1.572-0.115,2.866c0.178,0.708,0.422,1.679,0.625,3.091        c0.428,2.973-0.641,5.425-1.097,6.472c-0.046,0.105-0.085,0.191-0.111,0.256c0.115,0.363,0.278,0.717,0.448,1.089        c0.196,0.427,0.399,0.868,0.536,1.346c0.685,2.385,0.892,5.077,0.634,8.231c-0.009,0.113-0.098,0.707-0.284,1.941        c-0.09,0.597-0.181,1.194-0.234,1.559c2.565,1.2,3.896,3.255,3.865,5.971c-0.066,5.726-6.191,12.938-13.376,15.751        C64.941,180.331,63.027,180.739,61.298,180.739z M54.268,175l0.154,0.43c0.009,0.024,0.897,2.431,3.526,3.625        c2.305,1.049,5.235,0.89,8.71-0.472c6.726-2.633,12.679-9.564,12.74-14.831c0.028-2.434-1.184-4.181-3.602-5.192        c-0.371-0.144-0.371-0.144-0.018-2.475c0.132-0.875,0.264-1.746,0.276-1.873c0.248-3.031,0.052-5.606-0.598-7.874        c-0.116-0.404-0.294-0.793-0.483-1.204c-0.198-0.431-0.402-0.877-0.54-1.359c-0.061-0.216,0.008-0.375,0.194-0.802        c0.422-0.969,1.412-3.238,1.023-5.93c-0.196-1.361-0.423-2.264-0.605-2.989c-0.337-1.344-0.523-2.083,0.184-3.546        c0.217-0.448,0.476-0.93,0.746-1.434c0.987-1.835,2.105-3.916,1.816-5.576c-0.592-3.393-3.216-5.685-6.349-5.63        c-2.235,0.055-4.631,1.325-6.572,3.485c-1.486,1.655-2.697,3.749-3.925,6.79c-0.396,0.982-0.765,2.002-1.125,3.118        c-0.021,0.068-0.074,0.215-0.144,0.414c-0.592,1.67-0.892,2.642-0.89,2.89c0-0.043-0.03-0.177-0.159-0.28l-0.625,0.78        c-0.067-0.054-6.808-5.354-12.271-3.46c-3.04,1.051-5.186,4.134-6.377,9.165l-0.069,0.295l-0.294,0.074        c-0.287,0.073-7.019,1.88-6.161,9.604l0.129,1.164l-0.93-0.711c-0.08-0.061-8.062-6.103-13.28-4.718        c-1.631,0.435-2.794,1.527-3.557,3.343c-0.037,0.087-0.852,2.077,0.471,4.699c1.38,2.734,5.361,6.555,16.491,9.226        l0.145,0.035l0.103,0.108c0.127,0.135,12.812,13.444,21.423,11.224L54.268,175z"/>
					</g>
					<g>
						<path style="fill:#FFFFFF;" d="M32.335,150.799c1.211,3.533,3.374,7.081,6.313,9.417c1.626,1.293,3.558,2.179,5.639,2.372        c2.356,0.219,4.697-0.299,6.52-1.844c1.442-1.222,2.755-3.005,1.434-5.738"/>
						<path d="M45.32,163.138c-0.354,0-0.714-0.017-1.08-0.051c-2.062-0.191-4.104-1.049-5.903-2.479        c-2.809-2.234-5.108-5.66-6.475-9.647l0.946-0.324c1.286,3.754,3.528,7.103,6.15,9.189c1.647,1.309,3.505,2.092,5.374,2.266        c1.691,0.159,4.131-0.016,6.151-1.729c1.86-1.575,2.263-3.16,1.306-5.139l0.9-0.436c1.157,2.395,0.647,4.468-1.56,6.338        C49.567,162.452,47.574,163.138,45.32,163.138z"/>
					</g>
					<g>
						<path style="fill:#FFFFFF;" d="M75.989,158.099c0,0-3.15,5.518-7.184,6.429"/>
						<path d="M68.915,165.015l-0.22-0.975c3.769-0.851,6.829-6.136,6.86-6.189l0.868,0.496        C76.29,158.581,73.115,164.068,68.915,165.015z"/>
					</g>
					<g>
						<path style="fill:#FFFFFF;" d="M53.951,175.598c0,0,3.818-1.213,6.385-4.097"/>
						<path d="M54.103,176.075l-0.303-0.953c0.037-0.012,3.722-1.21,6.163-3.952l0.747,0.664        C58.081,174.787,54.264,176.024,54.103,176.075z"/>
					</g>
					<g>
						<rect x="59.021" y="133.691" transform="matrix(0.8125 -0.583 0.583 0.8125 -68.3083 60.257)" width="0.999" height="5.258"/>
					</g>
					<g>
						<path style="fill:#FFFFFF;" d="M38.87,140.656c1.688,4.981,4.68,10.257,9.381,12.938c2.452,1.399,5.679,1.917,8.378,0.961        c3.258-1.154,4.974-4.685,3.889-7.986c-0.953-2.897-5.664-5.941-8.238-7.267"/>
						<path d="M53.659,155.54c-1.913,0-3.911-0.517-5.656-1.513c-5.255-2.998-8.125-8.839-9.606-13.212l0.947-0.32        c1.167,3.445,3.909,9.672,9.154,12.663c2.499,1.427,5.549,1.781,7.963,0.924c3.014-1.067,4.587-4.299,3.581-7.357        c-0.893-2.718-5.444-5.666-7.992-6.98l0.458-0.889c0.74,0.381,7.26,3.832,8.484,7.556c1.176,3.579-0.668,7.362-4.198,8.613        C55.82,155.372,54.754,155.54,53.659,155.54z"/>
					</g>
				</g>
			</g>
			<g>
				<g>
					<path d="M447.743,97.548c-3.533,8.264-5.2,15.64-15.78,15.281c-2.395-0.08-6.837-2.136-6.817,1.387       c0,2.266,4.162,5.15,5.539,6.607c4.691,4.991,8.364,10.83,5.27,17.766c-3.413,7.635-10.52,9.392-18.046,9.981       c-3.873,0.299-4.162-0.01-3.423,4.282c0.689,3.972,3.523,7.725,4.951,11.458c2.875,7.526,2.146,16.698-5.899,20.741       c-1.846,0.928-3.823,1.357-5.889,1.437c-1.687,0.06-4.861-1.048-6.378-0.409c-3.284,1.377,0.948,9.851,1.517,13.155       c0.509,2.885,0.769,5.829,0.559,8.763c-0.419,5.719-3.084,10.879-6.348,15.48c-2.425,3.433-5.32,6.947-9.272,8.284       c-1.048-6.617-2.106-13.225-3.164-19.832c1.447-0.729,2.895-1.527,4.012-2.725c1.926-2.076,2.236-5.05,1.886-7.765       c-0.409-3.074-1.597-5.979-2.236-9.003c-1.976-9.302,2.016-18.445,12.506-18.694c3.653-0.09,8.304,2.176,7.885-2.924       c-0.329-3.883-3.503-7.975-4.921-11.548c-2.695-6.807-2.844-16.169,3.983-20.691c3.344-2.206,16.439-0.928,17.127-5.27       c0.409-2.535-8.903-9.891-10.43-12.985c-3.393-6.917-0.938-16.199,6.448-19.393c3.883-1.677,7.037,0.02,10.849-0.479       c2.805-0.369,1.637,0.299,3.004-2.735c0.848-1.906,1.328-4.002,2.146-5.929C439.958,84.483,450.858,90.282,447.743,97.548z"/>
				</g>
				<g>
					<g>
						<path style="fill:#FFFFFF;" d="M464.227,63.197c0,0,8.402-15.058,15.689-8.065c0,0,7.534,7.053-10.084,20.277        c0,0-6.414,17.685-15.595,19.132c0,0,0.547,7.898-10.459,8.286c-11.006,0.388-23.441-8.607-16.715-15.594        c0.013-0.014-1.938-3.105-2.045-3.306c-1.267-2.375-2.285-4.952-2.633-7.635c-0.119-0.915,0.042-1.844-0.079-2.758        c-0.028-0.211-2.828-2.132-3.777-5.628c-1.05-3.866-0.372-4.468-2.053-5.918c-1.785-1.54-4.746-3.396-5.295-5.679        c-0.805-3.356,0.537-6.915,3.89-8.268c2.51-1.013,5.421-0.5,7.812,0.598c2.44,1.121,4.543,2.899,6.441,4.771        c0.795,0.785,1.558,1.602,2.296,2.442c0.264,0.301,2.493,2.616,2.361,2.864c0.001-0.001,9.088-17.159,20.221-2.234        C454.201,56.482,461.786,55.242,464.227,63.197z"/>
						<path d="M443.08,103.338c-7.514,0.001-15.553-4.089-17.815-9.156c-1.108-2.482-0.701-4.901,1.176-7.016        c-0.196-0.319-0.527-0.848-0.854-1.369c-0.483-0.775-0.959-1.538-1.012-1.636c-1.489-2.793-2.368-5.347-2.688-7.806        c-0.064-0.492-0.053-0.977-0.042-1.445c0.009-0.41,0.017-0.8-0.022-1.18c-0.05-0.05-0.119-0.112-0.202-0.191        c-0.835-0.78-2.79-2.605-3.577-5.505c-0.375-1.377-0.536-2.364-0.654-3.085c-0.215-1.316-0.288-1.761-1.242-2.584        c-0.367-0.316-0.784-0.646-1.22-0.991c-1.763-1.394-3.76-2.975-4.235-4.949c-0.922-3.843,0.801-7.481,4.188-8.85        c3.189-1.285,6.511-0.171,8.208,0.608c2.73,1.254,4.952,3.261,6.584,4.869c0.764,0.755,1.545,1.585,2.32,2.468        c0.044,0.051,0.146,0.16,0.282,0.307c0.826,0.889,1.362,1.49,1.701,1.915c1.129-1.91,4.109-6.061,8.214-7.423        c4.214-1.398,8.328,0.497,12.237,5.633c1.423-0.122,7.397-0.233,9.915,6.071c1.48-2.372,5.706-8.461,10.485-9.177        c1.974-0.293,3.797,0.352,5.434,1.924c0.074,0.069,1.926,1.844,1.741,5.238c-0.258,4.739-4.212,10.024-11.754,15.709        c-0.662,1.778-6.712,17.392-15.513,19.237c-0.035,0.921-0.315,3.083-2.041,5c-1.887,2.095-4.882,3.228-8.901,3.37        C443.558,103.334,443.319,103.338,443.08,103.338z M418.019,48.001c-0.992,0-1.928,0.166-2.762,0.503        c-2.918,1.178-4.395,4.339-3.591,7.688c0.393,1.64,2.248,3.105,3.883,4.399c0.447,0.354,0.876,0.693,1.252,1.018        c1.23,1.061,1.354,1.814,1.577,3.18c0.121,0.738,0.271,1.657,0.632,2.985c0.713,2.624,2.521,4.313,3.294,5.035        c0.34,0.317,0.467,0.436,0.496,0.657c0.067,0.499,0.056,0.991,0.046,1.467c-0.011,0.451-0.02,0.878,0.034,1.294        c0.303,2.338,1.146,4.779,2.578,7.464c0.06,0.108,0.515,0.836,0.978,1.576c1.268,2.03,1.268,2.03,0.979,2.318        c-1.811,1.882-2.229,3.967-1.237,6.189c2.146,4.81,10.365,8.808,17.582,8.552c3.738-0.132,6.495-1.154,8.193-3.039        c1.938-2.151,1.786-4.688,1.784-4.713l-0.031-0.457l0.452-0.071c8.784-1.384,15.141-18.634,15.204-18.809l0.051-0.14        l0.119-0.089c9.181-6.893,11.307-11.99,11.474-15.053c0.159-2.935-1.416-4.444-1.432-4.459        c-1.426-1.369-2.928-1.91-4.597-1.66c-5.34,0.798-10.266,9.516-10.315,9.604l-0.571,1.022l-0.343-1.119        c-2.28-7.429-9.176-6.409-9.469-6.368l-0.299,0.048l-0.182-0.242c-3.095-4.147-6.274-6.123-9.504-5.878        c-5.791,0.448-9.832,7.968-9.874,8.046v0.001l-0.942,1.786v-1.979c-0.154-0.275-0.805-1.03-1.936-2.246        c-0.145-0.158-0.255-0.274-0.302-0.328c-0.76-0.865-1.523-1.679-2.271-2.416c-1.572-1.551-3.71-3.483-6.299-4.673        C421.095,48.37,419.494,48.001,418.019,48.001z M433.537,58.483c-0.04,0.076-0.052,0.149-0.052,0.206        c0.011-0.036,0.037-0.102,0.08-0.191L433.537,58.483z"/>
					</g>
					<g>
						<path style="fill:#FFFFFF;" d="M427.062,87.232c0,0,5.083,3.813,9.146,3.047"/>
						<path d="M435.072,90.881c-3.93,0-8.116-3.104-8.311-3.249l0.6-0.801c0.05,0.037,4.959,3.667,8.754,2.957l0.185,0.982        C435.898,90.847,435.487,90.881,435.072,90.881z"/>
					</g>
					<g>
						<path style="fill:#FFFFFF;" d="M454.237,94.541c0,0-3.985,0.403-7.487-1.224"/>
						<path d="M453.064,95.087c-1.489,0-4.101-0.19-6.525-1.317l0.422-0.906c3.337,1.55,7.19,1.183,7.226,1.18l0.102,0.994        C454.233,95.043,453.777,95.087,453.064,95.087z"/>
					</g>
					<g>
						
							<rect x="430.897" y="60.205" transform="matrix(0.213 -0.9771 0.9771 0.213 281.8741 471.3523)" width="5.259" height="0.999"/>
					</g>
					<g>
						<path style="fill:#FFFFFF;" d="M464.227,63.197c0.292,3.724-0.285,7.838-2.054,11.15c-0.979,1.832-2.4,3.412-4.233,4.416        c-2.076,1.137-4.43,1.591-6.716,0.897c-1.809-0.549-3.721-1.664-3.594-4.697"/>
						<path d="M453.463,80.491c-0.809,0-1.608-0.117-2.385-0.353c-2.769-0.84-4.06-2.54-3.949-5.196l1,0.041        c-0.093,2.195,0.907,3.49,3.24,4.198c2.534,0.771,4.842-0.041,6.33-0.856c1.648-0.902,3.043-2.359,4.032-4.213        c1.579-2.956,2.307-6.921,1.997-10.876l0.996-0.078c0.33,4.201-0.42,8.259-2.11,11.425c-1.082,2.025-2.615,3.623-4.435,4.619        C456.616,80.058,455.019,80.491,453.463,80.491z"/>
					</g>
					<g>
						<path style="fill:#FFFFFF;" d="M454.201,56.482c0.429,5.242-0.222,11.272-3.471,15.599c-1.695,2.257-4.451,4.015-7.307,4.209        c-3.449,0.235-6.426-2.325-6.741-5.785c-0.276-3.037,2.839-7.701,4.675-9.941"/>
						<path d="M442.977,76.806c-3.527,0-6.467-2.664-6.794-6.256c-0.355-3.903,4.259-9.659,4.786-10.303l0.773,0.635        c-1.817,2.217-4.823,6.729-4.563,9.578c0.292,3.207,3.039,5.553,6.209,5.331c2.557-0.174,5.216-1.71,6.941-4.01        c3.627-4.83,3.67-11.634,3.373-15.259l0.996-0.082c0.377,4.602,0.065,11.102-3.569,15.941        c-1.895,2.526-4.835,4.215-7.673,4.408C443.295,76.8,443.136,76.806,442.977,76.806z"/>
					</g>
				</g>
			</g>
		</g>
		<g>
			<g>
				<g>
					<g>
						<g>
							<path style="fill:#FFFFFF;" d="M259.887,202.173c-3.861-25.481-15.457-46.419-28.984-55.217         c-5.28-3.422-10.831-4.995-16.366-4.277c-19.68,2.551-31.285,33.327-25.919,68.733c5.365,35.406,25.67,62.045,45.349,59.493         c5.238-0.679,9.898-3.348,13.803-7.553C258.609,251.691,263.829,228.188,259.887,202.173z"/>
							<path d="M231.368,271.573c-19.058,0-38.087-26.051-43.245-60.085c-3.551-23.435,0.273-45.995,9.98-58.878         c4.537-6.021,10.197-9.626,16.369-10.427c5.523-0.712,11.141,0.75,16.702,4.354c14.009,9.111,25.473,30.92,29.206,55.562         c3.832,25.293-0.975,49.471-12.245,61.596c-4.12,4.435-8.865,7.028-14.105,7.708         C233.145,271.516,232.255,271.573,231.368,271.573z M217.196,143.007c-0.868,0-1.732,0.056-2.594,0.168         c-5.899,0.765-11.328,4.235-15.7,10.037c-9.551,12.675-13.302,34.947-9.79,58.125c5.317,35.087,25.423,61.59,44.79,59.072         c5.003-0.647,9.545-3.137,13.502-7.396c11.071-11.91,15.777-35.762,11.989-60.765l0,0         c-3.693-24.372-14.983-45.911-28.763-54.873C226.149,144.471,221.641,143.007,217.196,143.007z"/>
						</g>
						<g>
							<path d="M247.77,263.353c-18.877,0.405-37.39-22.949-42.064-53.792c-0.153-1.012-0.289-2.02-0.409-3.024l29.588-5.42         l-30.167-9.67c1.035-23.196,11.205-41.421,26.185-44.489c13.527,8.798,25.123,29.736,28.984,55.217         C263.829,228.188,258.609,251.691,247.77,263.353z"/>
							<path d="M247.289,263.858c-19.029,0-37.448-23.67-42.078-54.223c-0.154-1.017-0.29-2.03-0.412-3.039l-0.056-0.467         l28.09-5.146l-28.633-9.179l0.017-0.382c1.064-23.85,11.748-41.918,26.585-44.957l0.201-0.041l0.172,0.112         c14.008,9.11,25.473,30.919,29.206,55.561c3.832,25.293-0.975,49.471-12.245,61.596l-0.144,0.154l-0.212,0.005         C247.617,263.856,247.452,263.858,247.289,263.858z M205.85,206.944c0.105,0.844,0.221,1.691,0.35,2.541         c4.557,30.07,22.544,53.373,41.085,53.373c0.088,0,0.175,0,0.263-0.001c10.968-11.962,15.617-35.714,11.845-60.608         c-3.678-24.271-14.889-45.731-28.59-54.76c-14.199,3.051-24.435,20.51-25.567,43.598l31.701,10.163L205.85,206.944z"/>
						</g>
					</g>
				</g>
				<g>
					<g>
						<g>
							<path style="fill:#FFFFFF;" d="M370.111,180.345c-5.173-25.309-17.853-45.864-31.844-54.252         c-5.461-3.263-11.098-4.672-16.6-3.797c-19.567,3.11-29.603,34.146-22.417,69.313c7.187,35.167,28.877,61.16,48.444,58.049         c5.207-0.828,9.735-3.625,13.428-7.932C371.373,229.782,375.392,206.185,370.111,180.345z"/>
							<path d="M344.513,250.409c-18.895,0-38.918-25.257-45.753-58.698c-4.766-23.323-2.078-45.966,7.014-59.091         c4.227-6.105,9.696-9.845,15.815-10.817c5.482-0.87,11.185,0.427,16.936,3.861c14.484,8.686,27.075,30.109,32.077,54.581l0,0         c5.134,25.124,1.561,49.385-9.1,61.808c-3.897,4.546-8.517,7.271-13.729,8.1         C346.693,250.324,345.604,250.409,344.513,250.409z M324.921,122.54c-1.066,0-2.125,0.084-3.176,0.251         c-5.842,0.929-11.081,4.525-15.15,10.399c-8.941,12.909-11.568,35.256-6.854,58.32c7.123,34.856,28.591,60.727,47.876,57.655         c4.971-0.79,9.388-3.402,13.126-7.763c10.469-12.197,13.954-36.124,8.879-60.956l0,0         c-4.948-24.21-17.357-45.377-31.61-53.924C333.576,123.873,329.187,122.54,324.921,122.54z"/>
						</g>
						<g>
							<path d="M361.122,241.727c-18.873,0.947-38.602-21.82-44.862-52.456c-0.206-1.006-0.392-2.007-0.564-3.005l29.337-6.257         l-30.691-8.781c-0.154-23.171,9.09-41.644,23.927-45.135c13.991,8.388,26.671,28.943,31.844,54.252         C375.392,206.185,371.373,229.782,361.122,241.727z"/>
							<path d="M359.992,242.255c-18.83,0-38.094-22.896-44.223-52.884c-0.207-1.012-0.395-2.018-0.567-3.021l-0.081-0.474         l27.846-5.938l-29.124-8.333l-0.003-0.375c-0.158-23.83,9.612-42.165,24.314-45.624l0.197-0.047l0.174,0.105         c14.484,8.684,27.075,30.108,32.077,54.58c5.134,25.124,1.561,49.385-9.1,61.808l-0.141,0.163l-0.214,0.011         C360.763,242.246,360.377,242.255,359.992,242.255z M316.271,186.655c0.148,0.836,0.307,1.674,0.479,2.516         c6.133,30.014,25.466,52.797,44.133,52.067c10.359-12.247,13.79-36.071,8.738-60.792         c-4.928-24.111-17.255-45.203-31.437-53.818c-14.05,3.45-23.398,21.161-23.347,44.223l32.26,9.229L316.271,186.655z"/>
						</g>
					</g>
				</g>
			</g>
			<g>
				<path style="fill:#FF8806;" d="M282.147,217.924l2.366,11.612c0,0,18.572-4.881,20.636,4.865      c2.063,9.744-20.192,9.786-20.192,9.786"/>
				<path d="M284.958,244.687l-0.002-1c0.147,0,14.674-0.089,18.782-5.17c0.944-1.168,1.246-2.48,0.922-4.013      c-0.364-1.722-1.321-3.07-2.843-4.009c-5.611-3.461-17.063-0.506-17.178-0.477l-0.512,0.135l-2.472-12.13l0.98-0.199      l2.262,11.101c2.368-0.558,12.11-2.567,17.443,0.719c1.764,1.088,2.873,2.653,3.297,4.653c0.386,1.819,0.008,3.451-1.123,4.849      C300.108,244.596,285.574,244.686,284.958,244.687z"/>
			</g>
			<g>
				<g id="XMLID_15_">
					<path style="fill:#FFFFFF;" d="M293.59,262.399c-13.382,2.064-23.582-3.247-35.907-1.516       c-6.919,0.972-13.434,3.282-12.761,10.968c1.233,14.076,13.051,22.409,26.744,26.778c17.686,5.641,37.688,4.239,52.933-5.906       c18.441-12.272,25.41-27.906,21.775-35.87c-3.221-7.055-8.893-7.806-15.793-6.725       C318.29,252.055,305.835,260.511,293.59,262.399z"/>
					<path d="M292.547,302.417c-6.95,0-14.07-1.092-21.033-3.312c-21.006-6.701-26.326-18.496-27.089-27.21       c-0.749-8.549,7.169-10.661,13.19-11.507c6.033-0.849,11.432-0.048,17.145,0.801c5.862,0.87,11.925,1.771,18.755,0.716l0,0       c6.071-0.936,12.333-3.561,18.389-6.1c6.099-2.556,12.405-5.199,18.602-6.171c6.055-0.947,12.731-0.86,16.325,7.011       c3.766,8.252-3.416,24.159-21.953,36.494C315.672,299.264,304.356,302.417,292.547,302.417z M262.915,261.028       c-1.686,0-3.398,0.103-5.162,0.351c-9.049,1.27-12.853,4.487-12.333,10.429c1.335,15.24,15.092,22.738,26.398,26.345       c18.505,5.902,38.133,3.717,52.503-5.845c18.094-12.04,25.19-27.376,21.598-35.246c-3.306-7.243-9.285-7.377-15.261-6.438       c-6.076,0.952-12.326,3.572-18.37,6.105c-6.11,2.562-12.43,5.21-18.622,6.165l0,0c-6.98,1.075-13.119,0.165-19.055-0.715       C270.66,261.591,266.862,261.028,262.915,261.028z"/>
				</g>
				<g>
					<path d="M332.722,286.912l-0.988-0.15c2.149-14.164-2.794-27.072-7.319-35.407l0.879-0.477       C329.892,259.346,334.913,272.473,332.722,286.912z"/>
				</g>
				<g>
					<path d="M307.966,299.63l-0.992-0.119c0.832-6.903,0.67-13.881-0.48-20.739c-1.018-6.068-2.81-12.028-5.327-17.713l0.914-0.404       c2.552,5.761,4.368,11.801,5.399,17.951C308.646,285.559,308.81,292.632,307.966,299.63z"/>
				</g>
				<g>
					<path d="M278.115,300.169l-0.984-0.174c0.649-3.69,1.626-11.064,0.873-18.968c-0.632-6.635-2.236-13.157-4.769-19.388       l0.926-0.377c2.569,6.32,4.197,12.939,4.839,19.669C279.764,288.955,278.774,296.428,278.115,300.169z"/>
				</g>
			</g>
		</g>
	</g>
</g>















</svg>
