<?xml version="1.0" encoding="UTF-8"?>
<!-- Generator: Adobe Illustrator 27.1.1, SVG Export Plug-In . SVG Version: 6.00 Build 0)  -->
<svg xmlns="http://www.w3.org/2000/svg" xmlns:xlink="http://www.w3.org/1999/xlink" version="1.1" id="Capa_1" x="0px" y="0px" viewBox="0 0 512.018 512.018" style="enable-background:new 0 0 512.018 512.018;" xml:space="preserve" width="512" height="512">
<g>
	<g>
		<g>
			<g>
				<rect x="82.569" y="457.356" style="fill:#AD2328;" width="274.842" height="22.963"/>
				<path d="M357.91,480.819H82.068v-23.963H357.91V480.819z M83.068,479.819H356.91v-21.963H83.068V479.819z"/>
			</g>
			<g>
				<polygon style="fill:#AD2328;" points="118.147,511.088 47.948,511.088 69.783,376.179 118.147,376.179     "/>
				<path d="M118.646,511.588H47.36l0.095-0.58l21.902-135.329h49.289V511.588z M48.536,510.588h69.11V376.679H70.209      L48.536,510.588z"/>
			</g>
			<g>
				<polygon style="fill:#AD2328;" points="325.059,511.088 395.257,511.088 373.423,376.179 325.059,376.179     "/>
				<path d="M395.845,511.588h-71.286V375.679h49.29l0.067,0.42L395.845,511.588z M325.559,510.588h69.11l-21.672-133.909h-47.439      V510.588z"/>
			</g>
		</g>
		<g>
			<g>
				
					<ellipse transform="matrix(0.7071 -0.7071 0.7071 0.7071 -102.119 225.8809)" style="fill:#FFB500;" cx="221.603" cy="236.209" rx="207.649" ry="207.649"/>
				<path d="M221.603,444.358c-114.773,0-208.148-93.375-208.148-208.149S106.829,28.06,221.603,28.06      c114.774,0,208.149,93.375,208.149,208.149S336.377,444.358,221.603,444.358z M221.603,29.06      c-114.222,0-207.148,92.927-207.148,207.149s92.927,207.149,207.148,207.149c114.223,0,207.149-92.927,207.149-207.149      S335.825,29.06,221.603,29.06z"/>
			</g>
			<g>
				<g>
					
						<ellipse transform="matrix(0.7071 -0.7071 0.7071 0.7071 -102.119 225.8809)" style="fill:#FF8806;" cx="221.603" cy="236.209" rx="179.98" ry="179.98"/>
					<path d="M221.603,416.689c-99.517,0-180.479-80.963-180.479-180.48s80.963-180.48,180.479-180.48       c99.518,0,180.48,80.963,180.48,180.48S321.12,416.689,221.603,416.689z M221.603,56.729       c-98.965,0-179.479,80.514-179.479,179.48s80.515,179.48,179.479,179.48c98.966,0,179.48-80.514,179.48-179.48       S320.568,56.729,221.603,56.729z"/>
				</g>
				<g>
					<g>
						<rect x="92.42" y="109.864" width="1" height="252.447"/>
					</g>
					<g>
						<rect x="158.122" y="67.117" width="1" height="338.187"/>
					</g>
					<g>
						<rect x="349.673" y="110.208" width="1" height="251.912"/>
					</g>
					<g>
						<rect x="283.97" y="66.572" width="1" height="338.233"/>
					</g>
					<g>
						<rect x="219.96" y="56.178" width="1" height="359.281"/>
					</g>
				</g>
			</g>
		</g>
		<g>
			<g>
				<g>
					<path d="M224.405,193.98c-14.958,0-32.539-10.06-36.956-29.511l0.975-0.222c4.456,19.621,22.689,29.433,37.54,28.694       c10.104-0.498,28.167-5.166,35.627-30.84l0.961,0.279c-7.634,26.27-26.169,31.049-36.539,31.56       C225.481,193.966,224.944,193.98,224.405,193.98z"/>
				</g>
				<g>
					<g>
						<path style="fill:#FF8806;" d="M171.218,129.272c6.623,5.417,21.649,19.391,21.873,39.976        c0.239,21.893-16.405,38.268-23.112,44.221"/>
						<path d="M169.979,213.969c-0.138,0-0.275-0.057-0.374-0.168c-0.184-0.206-0.164-0.522,0.042-0.706        c8.664-7.689,23.165-23.609,22.944-43.841c-0.109-10.059-3.962-25.094-21.689-39.594c-0.214-0.175-0.245-0.49-0.07-0.704        c0.174-0.214,0.49-0.245,0.703-0.071c18.027,14.745,21.944,30.085,22.057,40.358c0.225,20.629-14.489,36.798-23.28,44.6        C170.216,213.927,170.098,213.969,169.979,213.969z"/>
					</g>
					<g>
						<path style="fill:#FF8806;" d="M277.556,126.669c-6.333,6.469-20.661,22.828-20.38,43.408        c0.299,21.887,16.944,35.558,23.636,40.422"/>
						<path d="M280.811,210.999c-0.103,0-0.205-0.031-0.294-0.096c-8.783-6.384-23.56-20.176-23.842-40.819        c-0.141-10.258,3.307-26.178,20.523-43.764c0.192-0.197,0.511-0.201,0.707-0.008c0.197,0.193,0.201,0.51,0.008,0.707        c-16.976,17.341-20.375,32.983-20.237,43.051c0.275,20.207,14.798,33.75,23.43,40.024c0.224,0.162,0.272,0.475,0.11,0.698        C281.118,210.927,280.966,210.999,280.811,210.999z"/>
					</g>
				</g>
			</g>
			<g>
				<g>
					<g>
						<g>
							<path style="fill:#FFFFFF;" d="M194.769,77.806c-0.301,7.989-1.532,15.676-3.557,22.856         c-7.635,27.002-26.379,46.951-48.408,50.187c-2.463,0.379-4.98,0.506-7.498,0.43c-22.849-0.607-41.867-19.063-49.803-45.13         c-2.955-9.633-4.406-20.277-3.968-31.452c1.56-41.414,28.185-74.307,59.463-73.447c2.518,0.076,5.035,0.329,7.443,0.86         C175.969,7.722,196.219,39.705,194.769,77.806z"/>
							<path d="M136.68,151.8c-0.46,0-0.923-0.007-1.389-0.021c-22.304-0.592-42.035-18.446-50.267-45.485         c-3.075-10.026-4.418-20.664-3.989-31.617c1.548-41.096,27.791-73.944,58.771-73.944c0.402,0,0.802,0.006,1.205,0.017         c2.796,0.085,5.261,0.37,7.536,0.872c28.067,5.722,48.156,38.484,46.721,76.205l0,0c-0.297,7.883-1.5,15.613-3.576,22.973         c-7.772,27.491-26.934,47.331-48.816,50.546C140.909,151.647,138.83,151.8,136.68,151.8z M139.804,1.732         c-30.447,0-56.241,32.42-57.769,72.983c-0.425,10.841,0.903,21.367,3.945,31.287c8.104,26.621,27.471,44.197,49.339,44.777         c2.584,0.078,5.078-0.066,7.408-0.424c21.497-3.158,40.338-22.717,48.002-49.829c2.055-7.283,3.245-14.934,3.539-22.739l0,0         c1.418-37.237-18.327-69.561-45.928-75.189c-2.223-0.49-4.627-0.767-7.357-0.85C140.59,1.738,140.195,1.732,139.804,1.732z"/>
						</g>
						<g>
							<path d="M191.211,100.662c-7.635,27.002-26.379,46.951-48.408,50.187c-2.463,0.379-4.98,0.506-7.498,0.43         c-22.849-0.607-41.867-19.063-49.803-45.13c4.898-25.89,27.528-45.358,54.318-45.054         C164.23,61.372,184.644,78.009,191.211,100.662z"/>
							<path d="M136.68,151.8c-0.46,0-0.923-0.007-1.389-0.021c-22.304-0.592-42.035-18.446-50.267-45.485l-0.035-0.118l0.022-0.121         c5.042-26.646,28.104-45.748,54.816-45.461c24.178,0.276,45.02,16.322,51.864,39.929l0.04,0.137l-0.039,0.138         c-7.772,27.49-26.934,47.331-48.816,50.545C140.909,151.647,138.83,151.8,136.68,151.8z M86.018,106.121         c8.125,26.555,27.466,44.079,49.302,44.658c2.584,0.077,5.078-0.065,7.408-0.424c21.46-3.153,40.273-22.651,47.963-49.691         c-6.76-23.106-27.188-38.8-50.875-39.07c-0.205-0.002-0.41-0.003-0.614-0.003C113.268,61.591,90.976,80.22,86.018,106.121z"/>
						</g>
					</g>
					<g>
						<g>
							<rect x="68.656" y="22.366" transform="matrix(0.3352 -0.9422 0.9422 0.3352 7.9365 91.9969)" width="1" height="36.018"/>
						</g>
						<g>
							<rect x="79.595" y="4.697" transform="matrix(0.5863 -0.8101 0.8101 0.5863 15.6523 73.8095)" width="1" height="33.764"/>
						</g>
						<g>
							<rect x="65.341" y="43.744" transform="matrix(0.2017 -0.9795 0.9795 0.2017 -7.418 113.3767)" width="1" height="34.99"/>
						</g>
					</g>
				</g>
				<g>
					<g>
						<g>
							<path style="fill:#FFFFFF;" d="M362.731,77.073c-0.301,8.116-1.56,15.903-3.639,23.159         c-7.689,26.851-26.379,46.647-48.326,49.883c-2.463,0.379-4.98,0.506-7.498,0.455c-22.712-0.632-41.648-18.886-49.693-44.726         c-3.038-9.734-4.515-20.555-4.077-31.882c1.56-41.414,28.213-74.307,59.463-73.447c2.517,0.076,5.035,0.354,7.443,0.86         C343.932,6.989,364.181,38.997,362.731,77.073z"/>
							<path d="M304.302,151.081c-0.345,0-0.693-0.003-1.043-0.01c-22.139-0.616-41.827-18.31-50.162-45.077         c-3.151-10.1-4.53-20.883-4.1-32.05c1.567-41.631,28.492-74.782,59.977-73.928c2.624,0.079,5.158,0.372,7.532,0.87         c28.073,5.724,48.162,38.486,46.725,76.206v0c-0.297,8.012-1.528,15.844-3.658,23.278         c-7.82,27.308-26.949,47.028-48.733,50.24C308.809,150.923,306.613,151.081,304.302,151.081z M307.764,1         c-30.447,0-56.239,32.419-57.767,72.983c-0.428,11.052,0.937,21.722,4.055,31.714c8.206,26.353,27.53,43.771,49.23,44.374         c2.636,0.059,5.127-0.098,7.407-0.449c21.4-3.155,40.209-22.596,47.922-49.527c2.107-7.357,3.325-15.108,3.619-23.04v0         c1.42-37.237-18.325-69.561-45.927-75.189c-2.32-0.487-4.795-0.772-7.358-0.849C308.552,1.005,308.155,1,307.764,1z"/>
						</g>
						<g>
							<path d="M359.091,100.232c-7.689,26.851-26.379,46.647-48.326,49.883c-2.463,0.379-4.98,0.506-7.498,0.455         c-22.712-0.632-41.648-18.886-49.693-44.726c4.652-26.092,27.309-45.788,54.209-45.484         C332.274,60.639,352.743,77.452,359.091,100.232z"/>
							<path d="M304.302,151.081c-0.345,0-0.693-0.003-1.043-0.01c-22.139-0.616-41.827-18.31-50.162-45.077l-0.036-0.116         l0.021-0.12c4.759-26.688,27.45-45.9,54.082-45.9c0.209,0,0.415,0.001,0.625,0.003c23.963,0.273,45.258,16.818,51.784,40.237         l0.038,0.136l-0.039,0.136c-7.82,27.308-26.949,47.028-48.733,50.24C308.809,150.923,306.613,151.081,304.302,151.081z          M254.088,105.813c8.227,26.288,27.525,43.655,49.194,44.258c2.636,0.059,5.127-0.098,7.407-0.449         c21.363-3.15,40.146-22.531,47.883-49.391c-6.452-22.922-27.319-39.104-50.795-39.37c-0.203-0.002-0.41-0.003-0.613-0.003         C281.054,60.857,258.809,79.665,254.088,105.813z"/>
						</g>
					</g>
					<g>
						<g>
							<rect x="356.04" y="32.975" transform="matrix(0.942 -0.3357 0.3357 0.942 10.4729 127.5268)" width="36.018" height="1"/>
						</g>
						<g>
							
								<rect x="346.228" y="14.179" transform="matrix(0.8104 -0.5859 0.5859 0.8104 60.2419 215.5162)" width="33.765" height="1"/>
						</g>
						<g>
							<rect x="359.87" y="53.839" transform="matrix(0.9795 -0.2012 0.2012 0.9795 -3.2158 77.041)" width="34.991" height="1"/>
						</g>
					</g>
				</g>
			</g>
			<g>
				<circle style="fill:#AD2328;" cx="222.485" cy="118.796" r="16.213"/>
				<path d="M222.485,135.509c-9.216,0-16.713-7.497-16.713-16.713c0-9.215,7.497-16.713,16.713-16.713      c9.216,0,16.713,7.497,16.713,16.713C239.198,128.012,231.701,135.509,222.485,135.509z M222.485,103.084      c-8.664,0-15.713,7.049-15.713,15.713c0,8.664,7.049,15.713,15.713,15.713c8.664,0,15.713-7.049,15.713-15.713      C238.198,110.132,231.149,103.084,222.485,103.084z"/>
			</g>
		</g>
		<g>
			<g>
				<g>
					
						<ellipse transform="matrix(0.2298 -0.9732 0.9732 0.2298 -76.0504 413.4831)" style="fill:#FFB500;" cx="223.204" cy="254.788" rx="45.012" ry="45.012"/>
					<path d="M223.204,300.3c-25.096,0-45.512-20.416-45.512-45.511c0-25.095,20.416-45.512,45.512-45.512       s45.512,20.416,45.512,45.512C268.716,279.884,248.3,300.3,223.204,300.3z M223.204,210.277       c-24.544,0-44.512,19.968-44.512,44.512c0,24.544,19.968,44.511,44.512,44.511c24.544,0,44.512-19.968,44.512-44.511       C267.716,230.245,247.748,210.277,223.204,210.277z"/>
				</g>
				<g>
					<g>
						<path style="fill:#FFFFFF;" d="M223.307,274.952c2.622,6.96,4.712,14.352,5.915,21.81c0.909,5.64,2.576,14.018-2.679,18.169        c-2.989,2.361-7.234,2.04-9.577-0.871c-2.742-3.407-1.968-8.804-1.372-13.013c1.208-8.535,4.05-16.994,7.255-24.972        C222.999,275.701,223.15,275.325,223.307,274.952z"/>
						<path d="M222.098,317.012c-2.089,0-4.12-0.897-5.521-2.637c-2.868-3.562-2.102-8.99-1.485-13.351        c1.044-7.371,3.358-15.342,7.293-25.134l0.071-0.177c0.129-0.319,0.257-0.638,0.391-0.955l0.487-1.154l0.441,1.172        c2.793,7.414,4.792,14.785,5.941,21.907l0.134,0.817c0.946,5.776,2.241,13.686-2.996,17.824        C225.418,316.458,223.74,317.012,222.098,317.012z M223.284,276.33c-3.887,9.684-6.174,17.562-7.196,24.788        c-0.596,4.216-1.329,9.405,1.268,12.63c2.154,2.677,6.054,3.023,8.878,0.792c4.774-3.772,3.534-11.347,2.628-16.877        l-0.133-0.82C227.652,290.17,225.822,283.275,223.284,276.33z"/>
					</g>
				</g>
				<g>
					<g>
						<polygon style="fill:#FFB500;" points="210.686,245.241 236.629,244.702 230.721,292.958 215.052,292.958       "/>
						<path d="M231.164,293.458h-16.567l-4.458-48.706l27.057-0.562L231.164,293.458z M215.509,292.458h14.771l5.783-47.244        l-24.83,0.516L215.509,292.458z"/>
					</g>
					<g>
						<path style="fill:#FFB500;" d="M234.926,252.464h64.453c3.933,0,7.121-3.188,7.121-7.121v-0.829        c0-3.933-3.188-7.121-7.121-7.121h-64.453c-0.266,0-0.481,0.215-0.481,0.481v14.108        C234.445,252.249,234.66,252.464,234.926,252.464z"/>
						<path d="M299.379,252.964h-64.453c-0.541,0-0.98-0.44-0.98-0.981v-14.109c0-0.541,0.439-0.98,0.98-0.98h64.453        c4.202,0,7.621,3.419,7.621,7.621v0.829C307,249.545,303.581,252.964,299.379,252.964z M234.945,251.964h64.434        c3.651,0,6.621-2.97,6.621-6.621v-0.829c0-3.65-2.97-6.621-6.621-6.621h-64.453L234.945,251.964z"/>
					</g>
					<g>
						<path style="fill:#FFB500;" d="M224.27,257.313h-1.414c-6.71,0-12.15-5.44-12.15-12.15v-1.415c0-6.71,5.44-12.15,12.15-12.15        h1.414c6.71,0,12.15,5.44,12.15,12.15v1.415C236.42,251.873,230.98,257.313,224.27,257.313z"/>
						<path d="M224.269,257.813h-1.414c-6.975,0-12.649-5.674-12.649-12.65v-1.415c0-6.975,5.675-12.65,12.649-12.65h1.414        c6.976,0,12.65,5.675,12.65,12.65v1.415C236.92,252.138,231.245,257.813,224.269,257.813z M222.855,232.099        c-6.424,0-11.649,5.226-11.649,11.65v1.415c0,6.423,5.226,11.65,11.649,11.65h1.414c6.424,0,11.65-5.226,11.65-11.65v-1.415        c0-6.424-5.227-11.65-11.65-11.65H222.855z"/>
					</g>
				</g>
			</g>
			<g>
				<g>
					<g>
						<path style="fill:#004421;" d="M259.944,503.557c-0.309,2.34-2.055,4.236-4.364,4.723c-8.684,1.832-19.589,3.329-32.169,3.233        c-12.685-0.097-23.646-1.788-32.347-3.777c-2.292-0.524-4.002-2.436-4.282-4.77l-9.606-80.257        c-3.27-2.739-13.845-12.292-16.964-28.651c-3.924-20.58,6.98-36.053,8.903-38.689l110.26,0.923        c2.494,5.079,7.463,16.946,6.067,32.46c-1.664,18.503-11.345,30.694-14.946,34.821        C266.98,450.234,263.462,476.895,259.944,503.557z"/>
						<path d="M224.552,512.018c-0.382,0-0.763-0.001-1.145-0.004c-10.902-0.083-21.822-1.359-32.454-3.79        c-2.487-0.568-4.362-2.657-4.666-5.198l-9.583-80.061c-5.188-4.381-14.13-13.851-16.982-28.812        c-3.752-19.681,5.933-34.886,8.99-39.077l0.151-0.208l0.257,0.002l110.569,0.926l0.137,0.277        c3.493,7.113,7.39,18.564,6.116,32.725c-1.546,17.185-9.995,29.258-14.969,34.99l-10.533,79.834        c-0.338,2.549-2.249,4.618-4.757,5.147C245.464,510.926,234.996,512.018,224.552,512.018z M169.37,355.871        c-3.151,4.385-12.283,19.12-8.666,38.093c2.822,14.804,11.733,24.123,16.794,28.361l0.151,0.127l9.63,80.454        c0.254,2.123,1.82,3.868,3.896,4.342c10.561,2.415,21.408,3.682,32.239,3.765c10.751,0.083,21.539-1.002,32.062-3.223        c2.094-0.442,3.69-2.169,3.972-4.299l10.574-80.133l0.099-0.114c4.88-5.593,13.295-17.517,14.825-34.537        c1.236-13.747-2.481-24.9-5.883-31.917L169.37,355.871z"/>
					</g>
					<g>
						<path style="fill:#00C257;" d="M250.579,497.051c-0.274,2.164-1.677,3.904-3.508,4.335c-6.884,1.621-15.52,2.912-25.458,2.714        c-10.021-0.2-18.66-1.861-25.51-3.779c-1.804-0.505-3.131-2.29-3.322-4.454l-6.573-74.393        c-2.549-2.565-12.979-11.403-15.236-26.576c-2.84-19.089,2.759-34.077,4.312-36.501l94.782,1.616        c1.906,4.724,5.293,15.506,3.994,29.858c-1.549,17.117-12.668,26.961-15.565,30.751        C255.378,445.276,253.697,472.396,250.579,497.051z"/>
						<path d="M223.622,504.62c-0.674,0-1.346-0.007-2.019-0.02c-8.627-0.172-17.251-1.45-25.634-3.798        c-1.996-0.559-3.478-2.524-3.687-4.891l-6.557-74.212c-0.189-0.188-0.415-0.405-0.671-0.651        c-3.415-3.287-12.486-12.019-14.578-26.077c-2.954-19.863,3.142-34.903,4.386-36.844l0.15-0.235l95.392,1.626l0.124,0.307        c2.06,5.103,5.322,15.798,4.029,30.09c-1.327,14.659-9.469,23.901-13.843,28.866c-0.7,0.795-1.31,1.488-1.741,2.039        c-1.55,12.284-2.766,25.395-3.94,38.075c-1.18,12.727-2.399,25.887-3.959,38.219c-0.3,2.37-1.862,4.282-3.89,4.759        C239.436,503.697,231.519,504.62,223.622,504.62z M175.566,358.901c-1.465,2.655-6.911,17.022-4.101,35.922        c2.042,13.721,10.936,22.281,14.283,25.504c0.322,0.31,0.597,0.574,0.814,0.793l0.128,0.128l0.016,0.18l6.572,74.393        c0.173,1.955,1.362,3.569,2.96,4.016c8.302,2.325,16.842,3.59,25.384,3.761c8.484,0.17,17.005-0.739,25.334-2.701        c1.622-0.381,2.879-1.953,3.126-3.911l0,0c1.557-12.316,2.776-25.468,3.955-38.186c1.181-12.735,2.401-25.903,3.962-38.243        l0.017-0.134l0.082-0.108c0.454-0.594,1.109-1.337,1.867-2.198c4.298-4.879,12.299-13.961,13.597-28.295        c1.249-13.802-1.809-24.185-3.838-29.319L175.566,358.901z"/>
					</g>
					<g>
						<g>
							<g>
								<path style="fill:#FFFFFF;" d="M215.603,454.934c-0.008,0-0.015,0-0.023,0c-1.539-0.013-2.78-1.276-2.768-2.815          c0.013-1.531,1.264-2.768,2.792-2.768c0.008,0,0.015,0,0.023,0c0.746,0.006,1.444,0.302,1.967,0.834          c0.523,0.532,0.807,1.236,0.801,1.981C218.383,453.697,217.132,454.934,215.603,454.934z M215.604,449.863          c-1.249,0-2.269,1.01-2.28,2.26c-0.01,1.257,1.004,2.287,2.26,2.298c0.006,0,0.013,0,0.019,0c1.249,0,2.269-1.01,2.28-2.26          c0.005-0.609-0.227-1.183-0.654-1.617c-0.428-0.434-0.997-0.676-1.606-0.681          C215.618,449.863,215.611,449.863,215.604,449.863z"/>
							</g>
						</g>
						<g>
							<g>
								<path style="fill:#FFFFFF;" d="M247.149,477.597c-0.007,0-0.013,0-0.019,0c-1.221-0.01-2.205-1.011-2.195-2.231          c0.005-0.591,0.24-1.145,0.662-1.559c0.417-0.409,0.967-0.635,1.551-0.635c0.007,0,0.013,0,0.019,0          c1.221,0.01,2.205,1.011,2.195,2.231c-0.005,0.591-0.24,1.145-0.662,1.559C248.283,477.372,247.733,477.597,247.149,477.597          z M247.148,473.684c-0.449,0-0.871,0.173-1.191,0.488c-0.324,0.318-0.505,0.743-0.509,1.198          c-0.008,0.938,0.749,1.706,1.686,1.715c0.005,0,0.01,0,0.015,0c0.449,0,0.871-0.173,1.191-0.488          c0.324-0.318,0.505-0.743,0.509-1.198l0.256,0.002l-0.256-0.002c0.008-0.938-0.749-1.707-1.686-1.715          C247.158,473.684,247.153,473.684,247.148,473.684z"/>
							</g>
						</g>
						<g>
							<g>
								<path style="fill:#FFFFFF;" d="M243.525,445.507c-0.007,0-0.015,0-0.023,0c-0.746-0.007-1.445-0.303-1.967-0.835          c-0.523-0.532-0.807-1.235-0.801-1.98c0.013-1.531,1.264-2.768,2.791-2.768c0.008,0,0.015,0,0.023,0          c0.746,0.006,1.445,0.302,1.967,0.834c0.523,0.532,0.807,1.235,0.801,1.981c-0.006,0.746-0.302,1.444-0.834,1.967          C244.956,445.223,244.261,445.507,243.525,445.507z M243.525,440.436c-1.248,0-2.268,1.01-2.279,2.26          c-0.005,0.609,0.227,1.183,0.654,1.617c0.426,0.434,0.997,0.676,1.606,0.681c0.007,0,0.013,0,0.019,0          c0.602,0,1.168-0.232,1.598-0.654c0.435-0.427,0.676-0.997,0.681-1.605l0,0c0.005-0.609-0.227-1.183-0.654-1.617          c-0.427-0.434-0.997-0.676-1.606-0.681C243.538,440.436,243.531,440.436,243.525,440.436z"/>
							</g>
						</g>
						<g>
							<g>
								<path style="fill:#FFFFFF;" d="M237.1,411.507c-0.007,0-0.015,0-0.023,0c-0.746-0.007-1.445-0.303-1.967-0.835          c-0.523-0.532-0.807-1.235-0.801-1.98c0.013-1.531,1.264-2.768,2.791-2.768c0.008,0,0.015,0,0.023,0          c0.746,0.006,1.445,0.302,1.967,0.834c0.523,0.532,0.807,1.235,0.801,1.981c-0.006,0.746-0.302,1.444-0.834,1.967          C238.532,411.223,237.837,411.507,237.1,411.507z M237.1,406.436c-1.248,0-2.268,1.01-2.279,2.26          c-0.005,0.609,0.227,1.183,0.654,1.617c0.427,0.434,0.997,0.676,1.606,0.681c0.007,0,0.013,0,0.019,0          c0.602,0,1.168-0.232,1.598-0.654c0.435-0.427,0.676-0.997,0.681-1.605l0,0c0.005-0.609-0.227-1.184-0.654-1.617          c-0.427-0.434-0.997-0.676-1.606-0.681C237.113,406.436,237.106,406.436,237.1,406.436z"/>
							</g>
						</g>
						<g>
							<g>
								<path style="fill:#FFFFFF;" d="M259.816,385.373c-0.008,0-0.015,0-0.023,0c-1.539-0.013-2.78-1.276-2.768-2.815          c0.013-1.531,1.264-2.768,2.792-2.768c0.008,0,0.016,0,0.024,0c1.539,0.013,2.78,1.276,2.768,2.815l0,0          C262.596,384.136,261.345,385.373,259.816,385.373z M259.816,380.302c-1.248,0-2.268,1.01-2.279,2.26          c-0.01,1.257,1.004,2.287,2.26,2.298c0.006,0,0.013,0,0.019,0c1.249,0,2.269-1.01,2.28-2.26l0,0          c0.01-1.257-1.004-2.288-2.26-2.298C259.829,380.302,259.823,380.302,259.816,380.302z"/>
							</g>
						</g>
						<g>
							<g>
								<path style="fill:#FFFFFF;" d="M233.83,463.704c-0.005,0-0.011,0-0.016,0c-1.054-0.009-1.903-0.874-1.894-1.926          c0.009-1.048,0.865-1.894,1.91-1.894c0.006,0,0.011,0,0.016,0c1.052,0.009,1.902,0.873,1.894,1.926l0,0          C235.731,462.858,234.875,463.704,233.83,463.704z M233.83,460.396c-0.765,0-1.391,0.619-1.398,1.386          c-0.007,0.771,0.615,1.403,1.386,1.41c0.004,0,0.008,0,0.012,0c0.765,0,1.391-0.619,1.398-1.386          c0.006-0.771-0.616-1.403-1.386-1.41C233.838,460.396,233.834,460.396,233.83,460.396z"/>
							</g>
						</g>
						<g>
							<g>
								<path style="fill:#FFFFFF;" d="M259.314,411.016c-0.005,0-0.011,0-0.016,0c-0.511-0.004-0.988-0.207-1.347-0.571          c-0.358-0.364-0.552-0.845-0.548-1.355c0.009-1.048,0.864-1.894,1.909-1.894c0.006,0,0.012,0,0.017,0          c1.052,0.008,1.902,0.872,1.894,1.926l0,0C261.215,410.169,260.359,411.016,259.314,411.016z M259.313,407.708          c-0.765,0-1.39,0.619-1.397,1.386c-0.003,0.373,0.139,0.725,0.402,0.992c0.261,0.266,0.611,0.414,0.984,0.418          c0.004,0,0.008,0,0.012,0c0.765,0,1.391-0.619,1.398-1.386c0.006-0.771-0.616-1.403-1.386-1.409          C259.322,407.708,259.318,407.708,259.313,407.708z"/>
							</g>
						</g>
						<g>
							<g>
								<path style="fill:#FFFFFF;" d="M176.818,385.304c-0.005,0-0.011,0-0.016,0c-1.052-0.009-1.902-0.873-1.894-1.926          c0.004-0.511,0.207-0.989,0.572-1.346c0.363-0.358,0.863-0.551,1.355-0.548c0.511,0.004,0.988,0.207,1.347,0.571          c0.357,0.364,0.552,0.846,0.548,1.355c-0.004,0.511-0.206,0.989-0.571,1.346          C177.798,385.109,177.323,385.304,176.818,385.304z M176.817,381.996c-0.368,0-0.716,0.142-0.979,0.401          c-0.265,0.262-0.414,0.612-0.417,0.985c-0.006,0.771,0.616,1.403,1.386,1.409c0.004,0,0.008,0,0.012,0          c0.369,0,0.717-0.142,0.98-0.401c0.266-0.262,0.415-0.611,0.418-0.985l0,0c0.003-0.373-0.139-0.725-0.402-0.992          c-0.261-0.266-0.611-0.414-0.984-0.417C176.826,381.996,176.821,381.996,176.817,381.996z"/>
							</g>
						</g>
						<g>
							<g>
								<path style="fill:#FFFFFF;" d="M233.29,380.075c-0.005,0-0.011,0-0.016,0c-1.052-0.008-1.902-0.873-1.894-1.926          c0.009-1.048,0.865-1.894,1.91-1.894c0.005,0,0.011,0,0.016,0c1.054,0.009,1.903,0.874,1.894,1.926          C235.191,379.228,234.335,380.075,233.29,380.075z M233.29,376.767c-0.765,0-1.391,0.619-1.398,1.386          c-0.006,0.771,0.616,1.403,1.386,1.41c0.004,0,0.008,0,0.012,0c0.765,0,1.391-0.619,1.398-1.386l0.256,0.002l-0.256-0.002          c0.007-0.771-0.615-1.403-1.386-1.41C233.298,376.767,233.294,376.767,233.29,376.767z"/>
							</g>
						</g>
						<g>
							<g>
								<path style="fill:#FFFFFF;" d="M211.334,426.819c-0.005,0-0.011,0-0.016,0c-1.052-0.009-1.902-0.872-1.894-1.926          c0.009-1.048,0.865-1.894,1.91-1.894c0.005,0,0.011,0,0.016,0c1.054,0.009,1.903,0.874,1.894,1.926          C213.235,425.973,212.379,426.819,211.334,426.819z M211.334,423.511c-0.765,0-1.391,0.619-1.398,1.386          c-0.006,0.771,0.616,1.403,1.386,1.41c0.004,0,0.008,0,0.012,0c0.765,0,1.391-0.619,1.398-1.386l0.256,0.002l-0.256-0.002          c0.007-0.77-0.615-1.403-1.386-1.41C211.342,423.511,211.338,423.511,211.334,423.511z"/>
							</g>
						</g>
						<g>
							<g>
								<path style="fill:#FFFFFF;" d="M198.168,480.625c-0.005,0-0.011,0-0.016,0c-1.052-0.009-1.902-0.873-1.894-1.926          c0.004-0.511,0.207-0.989,0.572-1.346c0.364-0.359,0.833-0.531,1.355-0.548c0.511,0.004,0.988,0.207,1.346,0.571          c0.358,0.363,0.553,0.845,0.549,1.355c-0.004,0.51-0.206,0.988-0.571,1.346          C199.148,480.431,198.673,480.625,198.168,480.625z M198.167,477.318c-0.368,0-0.716,0.142-0.979,0.401          c-0.265,0.262-0.415,0.612-0.417,0.985c-0.006,0.771,0.616,1.403,1.386,1.409c0.004,0,0.008,0,0.012,0          c0.37,0,0.717-0.142,0.98-0.401c0.266-0.262,0.415-0.612,0.417-0.985l0,0c0.003-0.374-0.139-0.726-0.4-0.992          c-0.262-0.266-0.612-0.415-0.985-0.418C198.176,477.318,198.171,477.318,198.167,477.318z"/>
							</g>
						</g>
						<g>
							<g>
								<path style="fill:#FFFFFF;" d="M194.063,455.545c-0.005,0-0.011,0-0.016,0c-0.511-0.004-0.988-0.207-1.347-0.571          c-0.357-0.364-0.552-0.846-0.548-1.355c0.009-1.048,0.864-1.894,1.909-1.894c0.006,0,0.012,0,0.017,0          c1.052,0.008,1.902,0.873,1.894,1.926l0,0C195.964,454.699,195.108,455.545,194.063,455.545z M194.062,452.238          c-0.765,0-1.39,0.619-1.397,1.386c-0.003,0.374,0.139,0.725,0.401,0.992c0.261,0.266,0.611,0.415,0.984,0.418          c0.004,0,0.008,0,0.012,0c0.765,0,1.391-0.619,1.398-1.386c0.006-0.771-0.616-1.403-1.386-1.409          C194.071,452.238,194.067,452.238,194.062,452.238z"/>
							</g>
						</g>
						<g>
							<g>
								<path style="fill:#FFFFFF;" d="M186.793,409.799c-0.008,0-0.016,0-0.024,0c-1.539-0.013-2.78-1.275-2.768-2.815          c0.013-1.531,1.264-2.768,2.791-2.768c0.008,0,0.016,0,0.024,0c1.539,0.013,2.78,1.275,2.768,2.815l0,0          C189.572,408.561,188.321,409.799,186.793,409.799z M186.792,404.728c-1.248,0-2.268,1.01-2.279,2.26          c-0.01,1.257,1.004,2.287,2.26,2.298c1.243-0.001,2.288-1.003,2.299-2.26c0.01-1.257-1.004-2.287-2.26-2.298          C186.805,404.728,186.799,404.728,186.792,404.728z"/>
							</g>
						</g>
						<g>
							<g>
								<path style="fill:#FFFFFF;" d="M224.571,474.842c-0.451,0.065-0.352,0.766,0.1,0.701          C225.123,475.478,225.023,474.777,224.571,474.842z"/>
							</g>
						</g>
						<g>
							<g>
								<path style="fill:#FFFFFF;" d="M207.103,466.107c-0.451,0.064-0.352,0.766,0.1,0.701          C207.654,466.744,207.554,466.043,207.103,466.107z"/>
							</g>
						</g>
						<g>
							<g>
								<path style="fill:#FFFFFF;" d="M217.293,405.595c-0.451,0.065-0.352,0.766,0.1,0.701          C217.845,406.232,217.745,405.53,217.293,405.595z"/>
							</g>
						</g>
						<g>
							<g>
								<path style="fill:#FFFFFF;" d="M241.804,428.444c-0.451,0.065-0.351,0.766,0.1,0.701          C242.355,429.081,242.255,428.379,241.804,428.444z"/>
							</g>
						</g>
						<g>
							<g>
								<path style="fill:#FFFFFF;" d="M200.097,432.375c-0.451,0.065-0.352,0.766,0.1,0.701          C200.649,433.011,200.549,432.31,200.097,432.375z"/>
							</g>
						</g>
						<g>
							<g>
								<path style="fill:#FFFFFF;" d="M207.552,379.55c-0.451,0.064-0.352,0.766,0.1,0.701          C208.104,380.187,208.004,379.486,207.552,379.55z"/>
							</g>
						</g>
						<g>
							<g>
								<path style="fill:#FFFFFF;" d="M265.792,395.839c-0.451,0.065-0.352,0.766,0.1,0.701          C266.343,396.475,266.244,395.774,265.792,395.839z"/>
							</g>
						</g>
						<g>
							<g>
								<path style="fill:#FFFFFF;" d="M179.281,395.29c-0.451,0.065-0.352,0.766,0.1,0.701          C179.833,395.927,179.733,395.226,179.281,395.29z"/>
							</g>
						</g>
					</g>
					<g>
						<g>
							
								<rect x="201.302" y="485.226" transform="matrix(0.9974 -0.0722 0.0722 0.9974 -34.9869 15.854)" width="1.001" height="13.295"/>
						</g>
						<g>
							<rect x="223.281" y="486.356" transform="matrix(1 -0.0062 0.0062 1 -3.0344 1.3882)" width="1" height="13.633"/>
						</g>
						<g>
							
								<rect x="238.075" y="491.637" transform="matrix(0.082 -0.9966 0.9966 0.082 -265.7464 695.7516)" width="13.483" height="0.999"/>
						</g>
					</g>
				</g>
				<g>
					<g>
						<g>
							<path style="fill:#FFFFFF;" d="M285.381,352.694c0.128-7.142-3.325-16.045-15.577-15.606         c4.491-9.053-6.488-17.323-13.961-11.076c-0.216-19.702-34.126-27.958-43.919-7.585c-12.052-15.667-41.459-1.5-32.362,19.473         c-1.794-0.933-3.805-1.55-5.954-1.759c-8.521-0.828-15.994,5.045-16.692,13.119c-0.697,8.074,5.645,15.291,14.167,16.12         c0.321,0.031,0.64,0.05,0.958,0.062l0.033,1.69c0.05,2.581,2.294,4.678,5.013,4.684c2.719,0.006,4.882-2.082,4.832-4.664         l-0.034-1.728c0,0,3.762,0.136,3.762,0.136l0.17,8.771c0.05,2.581,2.295,4.678,5.013,4.684         c2.718,0.006,4.882-2.082,4.831-4.663l-0.114-5.866c-0.026-1.33,1.126-2.346,2.385-2.107         c0.338,0.563,2.937,4.733,8.034,5.406c4.378,0.578,7.513-1.831,8.131-2.327c0.211,0.012,1.322,0.095,2.18,1.077         c0.543,0.623,0.86,1.459,0.818,2.359l-0.821,17.807c-0.119,2.581,1.413,5.012,3.8,5.749c3.038,0.938,5.835-1.202,5.978-4.307         l1.022-22.168c0.07-1.531,1.56-3.724,2.724-2.818c7.448,5.797,13.187,0.471,13.187,0.471         c1.028,0.857,4.254,3.325,9.044,3.527c4.9,0.207,8.35-2.088,9.415-2.861l-0.029,1.114c-0.066,2.579,2.084,4.763,4.802,4.879         c2.718,0.116,4.975-1.88,5.042-4.458c0.017-0.677,0.9-3.235,1.249-3.412c1.189-0.602,2.49-0.843,3.676-1.416         c2.142-1.035,4.156-2.417,5.785-4.203C283.976,358.6,285.326,355.765,285.381,352.694z"/>
							<path d="M221.51,397.171c-0.524,0-1.058-0.08-1.582-0.242c-2.578-0.795-4.285-3.366-4.151-6.249l0.82-17.807         c0.034-0.741-0.213-1.454-0.696-2.006c-0.57-0.654-1.281-0.838-1.651-0.89c-1.257,0.969-4.281,2.846-8.348,2.306         c-4.835-0.638-7.526-4.28-8.267-5.435c-0.363-0.015-0.724,0.102-1.019,0.35c-0.371,0.313-0.578,0.78-0.568,1.28l0.114,5.866         c0.025,1.339-0.483,2.608-1.434,3.575c-1.013,1.031-2.393,1.598-3.887,1.598c-0.004,0-0.009,0-0.013,0         c-2.984-0.006-5.457-2.327-5.512-5.174l-0.161-8.298l-2.762-0.1l0.023,1.199c0.026,1.338-0.482,2.608-1.433,3.575         c-1.013,1.031-2.394,1.599-3.888,1.599c-0.004,0-0.008,0-0.012,0c-2.984-0.006-5.457-2.328-5.512-5.174l-0.024-1.223         c-0.171-0.011-0.343-0.024-0.516-0.041c-8.779-0.853-15.336-8.327-14.616-16.66c0.336-3.888,2.207-7.432,5.269-9.979         c3.303-2.747,7.55-4.023,11.97-3.595c1.727,0.168,3.392,0.591,4.966,1.26c-3.966-10.663,1.878-18.767,8.295-22.547         c7.506-4.422,18.341-4.686,24.911,3.153c3.705-6.976,12.613-13.73,26.254-10.7c8.724,1.938,17.572,8.295,18.224,18.221         c3.971-2.749,8.499-1.83,11.372,0.435c2.669,2.104,4.933,6.22,2.909,11.106c4.589-0.054,8.262,1.293,10.914,3.898         c3.933,3.864,4.433,9.323,4.38,12.232c-0.054,2.993-1.312,5.988-3.543,8.434c-1.567,1.718-3.565,3.17-5.936,4.316         c-0.601,0.29-1.226,0.498-1.829,0.699c-0.646,0.214-1.256,0.418-1.839,0.712c-0.205,0.255-0.961,2.437-0.975,2.98         c-0.034,1.335-0.6,2.581-1.591,3.506c-1.062,0.992-2.471,1.502-3.973,1.438c-2.984-0.127-5.353-2.545-5.28-5.391l0.004-0.143         c-1.836,1.156-4.929,2.572-8.911,2.403c-4.263-0.18-7.383-2.091-9.023-3.384c-1.384,1.047-6.833,4.464-13.492-0.72         c-0.163-0.125-0.318-0.139-0.52-0.046c-0.662,0.305-1.354,1.54-1.398,2.493l-1.022,22.168         c-0.077,1.688-0.876,3.186-2.191,4.11C223.521,396.867,222.531,397.171,221.51,397.171z M213.934,368.949l0.191,0.011         c0.455,0.025,1.612,0.197,2.529,1.248c0.653,0.747,0.987,1.71,0.94,2.71l-0.82,17.807c-0.11,2.39,1.34,4.598,3.448,5.249         c1.269,0.391,2.534,0.209,3.562-0.514c1.061-0.745,1.705-1.961,1.769-3.338l1.022-22.168c0.054-1.181,0.88-2.849,1.979-3.355         c0.542-0.249,1.094-0.191,1.551,0.165c7.032,5.474,12.486,0.551,12.54,0.5l0.322-0.299l0.338,0.282         c1.436,1.197,4.48,3.231,8.745,3.412c4.355,0.185,7.567-1.654,9.1-2.767l0.82-0.595l-0.056,2.126         c-0.06,2.303,1.88,4.262,4.323,4.366c1.232,0.05,2.383-0.364,3.247-1.17c0.794-0.741,1.246-1.736,1.273-2.801         c0.016-0.608,0.869-3.514,1.522-3.845c0.649-0.329,1.323-0.553,1.975-0.77c0.6-0.2,1.167-0.388,1.709-0.65         c2.257-1.09,4.152-2.466,5.634-4.089c2.067-2.266,3.232-5.028,3.281-7.777l0,0c0.05-2.749-0.414-7.899-4.081-11.501         c-2.6-2.555-6.295-3.769-10.979-3.596l-0.839,0.03l0.373-0.752c2.318-4.671,0.212-8.638-2.296-10.614         c-2.748-2.165-7.182-2.961-10.897,0.145l-0.809,0.676l-0.012-1.055c-0.108-9.937-8.857-16.317-17.478-18.232         c-13.528-3.003-22.181,3.973-25.491,10.858l-0.352,0.732l-0.495-0.644c-6.156-8.003-16.785-7.826-24.103-3.514         c-6.303,3.714-12.024,11.831-7.403,22.483l0.561,1.292l-1.25-0.649c-1.796-0.934-3.738-1.507-5.773-1.705         c-4.142-0.402-8.136,0.793-11.232,3.368c-2.855,2.375-4.6,5.676-4.912,9.296c-0.673,7.79,5.48,14.779,13.718,15.579         c0.312,0.03,0.62,0.048,0.929,0.061l0.471,0.019l0.043,2.161c0.044,2.307,2.069,4.188,4.514,4.194c0.003,0,0.007,0,0.01,0         c1.224,0,2.352-0.461,3.175-1.299c0.76-0.773,1.167-1.787,1.145-2.854l-0.043-2.256l4.762,0.172l0.181,9.244         c0.045,2.308,2.069,4.189,4.514,4.193c1.238-0.044,2.358-0.458,3.184-1.298c0.761-0.773,1.168-1.788,1.147-2.855         l-0.114-5.866c-0.016-0.804,0.321-1.556,0.924-2.064c0.575-0.484,1.32-0.681,2.056-0.543l0.22,0.042l0.115,0.192         c0.451,0.753,2.941,4.543,7.67,5.167c3.973,0.524,6.938-1.567,7.752-2.221L213.934,368.949z"/>
						</g>
					</g>
					<g>
						<path style="fill:#FFFFFF;" d="M188.42,352.542c0.336-4.324,4.114-7.556,8.438-7.22c4.324,0.336,7.557,4.114,7.22,8.438"/>
						<path d="M204.576,353.798l-0.996-0.077c0.313-4.043-2.719-7.587-6.761-7.901c-1.954-0.154-3.858,0.467-5.35,1.744        c-1.492,1.277-2.398,3.058-2.551,5.016l-0.996-0.077c0.173-2.225,1.201-4.248,2.896-5.699c1.695-1.45,3.852-2.154,6.079-1.981        C201.488,345.18,204.934,349.207,204.576,353.798z"/>
					</g>
					<g>
						<g>
							<path style="fill:#FFFFFF;" d="M233.361,337.775c0.284-4.328,4.022-7.606,8.35-7.322s7.606,4.022,7.322,8.349"/>
							<path d="M249.531,338.834l-0.998-0.065c0.129-1.96-0.514-3.852-1.809-5.329c-1.295-1.477-3.087-2.36-5.047-2.489         c-4.073-0.271-7.553,2.812-7.818,6.857l-0.998-0.065c0.302-4.595,4.299-8.092,8.881-7.789         c2.227,0.146,4.264,1.15,5.734,2.828C248.947,334.459,249.678,336.608,249.531,338.834z"/>
						</g>
						<g>
							<path style="fill:#FFFFFF;" d="M249.032,339.095c0.189-2.879,2.676-5.06,5.555-4.871c2.879,0.189,5.06,2.676,4.872,5.555"/>
							<path d="M259.957,339.811l-0.998-0.065c0.083-1.259-0.33-2.475-1.162-3.424c-0.832-0.949-1.983-1.517-3.242-1.599         c-1.258-0.077-2.475,0.331-3.425,1.162c-0.948,0.832-1.517,1.984-1.599,3.243l-0.998-0.065c0.1-1.526,0.788-2.921,1.938-3.93         c1.149-1.008,2.631-1.509,4.148-1.408c1.526,0.1,2.922,0.788,3.93,1.938C259.557,336.812,260.057,338.285,259.957,339.811z"/>
						</g>
					</g>
				</g>
			</g>
		</g>
	</g>
	<g>
		<g>
			<g>
				
					<rect x="388.803" y="61.877" transform="matrix(0.6669 -0.7452 0.7452 0.6669 88.0618 330.3592)" style="fill:#FFB2B0;" width="49.427" height="9.622"/>
			</g>
		</g>
		<g>
			<g>
				
					<rect x="452.588" y="162.255" transform="matrix(0.986 -0.1666 0.1666 0.986 -21.1876 81.512)" style="fill:#FFB2B0;" width="45.493" height="9.618"/>
			</g>
		</g>
		<g>
			<g>
				
					<rect x="425.82" y="106.881" transform="matrix(0.8294 -0.5587 0.5587 0.8294 14.777 271.7705)" style="fill:#FFB2B0;" width="53.069" height="9.62"/>
			</g>
		</g>
	</g>
</g>















</svg>
