<?xml version="1.0" encoding="UTF-8"?>
<!-- Generator: Adobe Illustrator 27.1.1, SVG Export Plug-In . SVG Version: 6.00 Build 0)  -->
<svg xmlns="http://www.w3.org/2000/svg" xmlns:xlink="http://www.w3.org/1999/xlink" version="1.1" id="Capa_1" x="0px" y="0px" viewBox="0 0 510.896 510.896" style="enable-background:new 0 0 510.896 510.896;" xml:space="preserve" width="512" height="512">
<g>
	<g>
		<g>
			<path style="fill:#004421;" d="M174.654,229.763c-10.949-40.643-45.081-66.786-76.234-58.393     c-31.154,8.393-47.532,48.144-36.583,88.787c10.949,40.643,45.081,66.786,76.234,58.393     C169.225,310.157,185.603,270.406,174.654,229.763z M135.393,293.492c-21.415,5.769-44.876-12.202-52.403-40.139     c-7.527-27.938,3.732-55.262,25.146-61.032c21.415-5.769,44.876,12.202,52.403,40.139     C168.066,260.398,156.808,287.722,135.393,293.492z"/>
			<path d="M126.132,320.628c-11.555,0-23.313-4.259-34.058-12.489c-14.486-11.095-25.396-28.089-30.72-47.852     c-5.324-19.763-4.428-39.938,2.523-56.808c6.97-16.917,19.191-28.492,34.412-32.592c15.221-4.101,31.603-0.231,46.127,10.894     c14.485,11.095,25.395,28.089,30.719,47.852c5.324,19.762,4.428,39.936-2.523,56.808c-6.97,16.917-19.191,28.492-34.412,32.592     C134.241,320.1,130.198,320.627,126.132,320.628z M110.354,170.294c-3.979,0-7.93,0.516-11.804,1.559     c-14.914,4.018-26.898,15.385-33.748,32.008c-6.868,16.668-7.749,36.615-2.482,56.167c5.267,19.551,16.05,36.355,30.362,47.317     c14.272,10.932,30.345,14.736,45.26,10.723c14.913-4.018,26.898-15.385,33.747-32.008c6.868-16.669,7.749-36.616,2.482-56.167     c-5.267-19.551-16.05-36.355-30.361-47.317C133.244,174.482,121.691,170.294,110.354,170.294z M127.185,295.076     c-7.977,0-16.092-2.938-23.506-8.617c-9.985-7.647-17.504-19.359-21.172-32.977c-7.586-28.158,3.853-55.812,25.5-61.644     c10.51-2.832,21.82-0.163,31.843,7.515c9.984,7.647,17.503,19.359,21.172,32.977c3.668,13.617,3.05,27.521-1.741,39.15     c-4.81,11.675-13.248,19.663-23.758,22.494l0,0C132.786,294.711,129.994,295.076,127.185,295.076z M116.339,191.737     c-2.721,0-5.423,0.352-8.072,1.066c-21.114,5.689-32.236,32.793-24.793,60.419c3.611,13.406,11.003,24.928,20.814,32.442     c9.771,7.485,20.773,10.093,30.976,7.344l0,0c10.203-2.749,18.405-10.53,23.094-21.91c4.708-11.427,5.312-25.102,1.7-38.509     c-3.612-13.406-11.004-24.928-20.815-32.442C132.008,194.606,124.098,191.737,116.339,191.737z"/>
		</g>
		<g>
			<g>
				<g>
					<g>
						<path d="M247.491,398.624c3.307-12.43-15.947-17.732-19.252-5.308c-8.033,30.193-15.026,64.04-0.498,93.423        c5.695,11.518,22.921,1.414,17.24-10.077c-5.798-11.726-5.894-24.608-5.387-37.423        C240.141,425.404,243.95,411.935,247.491,398.624z"/>
						<path d="M235.365,492.323c-3.104,0-6.176-1.527-8.072-5.362c-14.69-29.71-7.463-63.981,0.463-93.773        c1.777-6.676,7.788-8.333,12.618-7.048c5.085,1.353,9.328,6.119,7.601,12.613l-0.67,2.51        c-3.294,12.333-6.702,25.086-7.212,37.996c-0.489,12.364-0.479,25.42,5.336,37.182c3.123,6.317-0.398,12.302-5.298,14.724        C238.645,491.898,237.001,492.323,235.365,492.323z M237.348,386.742c-3.657,0-7.353,1.919-8.625,6.703        c-7.88,29.615-15.07,63.673-0.533,93.072c2.59,5.238,7.641,5.656,11.498,3.751c4.465-2.208,7.681-7.649,4.845-13.385        c-5.92-11.973-5.933-25.171-5.439-37.664c0.515-13.023,3.936-25.83,7.245-38.216l0.669-2.509        c1.631-6.131-2.429-10.202-6.891-11.389C239.224,386.868,238.287,386.742,237.348,386.742z"/>
					</g>
					<g>
						<g>
							<path style="fill:#AD2328;" d="M185.563,509.335c13.453,1.374,55.099,0.682,70.182,0.375         c3.243-0.066,5.819-2.829,5.543-6.061c-0.541-6.324-3.174-15.459-13.848-15.667c0,0,12.288-7.093,5.528-15.732         c-6.76-8.639-23.674,7.622-23.674,7.622s-2.77-12.371-12.862-9.752c0,0-5.542,2.543-2.12,9.024         c0,0-15.596,3.094-22.96,13.373c-3.296,4.601-9.211,6.857-14.687,5.428c-1.236-0.323-2.403-0.812-3.402-1.527         C173.262,496.419,166.232,507.361,185.563,509.335z"/>
							<path d="M216.318,510.662c-12.702,0-24.64-0.2-30.806-0.83c-7.239-0.738-11.73-2.816-13.349-6.175         c-1.757-3.647,0.577-7.353,0.677-7.509l0.285-0.442l0.427,0.307c0.882,0.632,1.972,1.12,3.237,1.45         c5.241,1.367,10.931-0.735,14.155-5.235c6.635-9.262,19.58-12.727,22.633-13.434c-0.938-2.017-1.131-3.87-0.572-5.517         c0.849-2.499,3.121-3.566,3.217-3.61c2.862-0.752,5.371-0.445,7.538,0.88c3.606,2.202,5.248,6.572,5.798,8.396         c2.469-2.248,11.71-10.2,18.691-9.699c2.106,0.149,3.825,1.058,5.11,2.699c1.795,2.294,2.464,4.699,1.989,7.148         c-0.778,4.011-4.404,7.078-6.378,8.484c10.003,1.049,12.331,10.381,12.814,16.032c0.144,1.673-0.401,3.287-1.534,4.547         c-1.145,1.271-2.783,2.021-4.497,2.057C246.797,510.392,231.045,510.662,216.318,510.662z M173.436,497.137         c-0.515,1.022-1.56,3.63-0.369,6.094c1.46,3.02,5.682,4.906,12.546,5.608l0,0c13.26,1.353,53.455,0.712,70.121,0.373         c1.438-0.029,2.813-0.658,3.773-1.726c0.946-1.052,1.401-2.398,1.282-3.792c-0.584-6.831-3.377-15.016-13.36-15.211         l-1.792-0.035l1.552-0.897c0.062-0.036,6.209-3.644,7.179-8.652c0.416-2.151-0.187-4.284-1.795-6.338         c-1.119-1.431-2.556-2.188-4.393-2.318c-7.489-0.545-18.432,9.887-18.541,9.992l-0.64,0.614l-0.195-0.865         c-0.014-0.06-1.402-6.043-5.569-8.585c-1.928-1.175-4.176-1.442-6.678-0.793l0,0c0.02,0-1.913,0.938-2.609,3.006         c-0.516,1.531-0.245,3.315,0.804,5.302l0.313,0.593l-0.658,0.131c-0.154,0.031-15.49,3.179-22.651,13.174         c-3.462,4.835-9.579,7.095-15.22,5.62C175.365,498.124,174.324,497.69,173.436,497.137z"/>
						</g>
						<g>
							<line style="fill:#AF4C17;" x1="214.076" y1="479.365" x2="226.494" y2="485.898"/>
							
								<rect x="219.785" y="475.616" transform="matrix(0.4656 -0.885 0.885 0.4656 -309.4055 452.8509)" width="1" height="14.031"/>
						</g>
						<g>
							<line style="fill:#AF4C17;" x1="213.027" y1="480.151" x2="224.417" y2="489.715"/>
							
								<rect x="218.222" y="477.496" transform="matrix(0.643 -0.7658 0.7658 0.643 -293.301 340.6019)" width="1" height="14.874"/>
						</g>
					</g>
				</g>
				<g>
					<g>
						<path d="M346.031,391.818c-3.307-12.43,15.947-17.732,19.252-5.308c8.033,30.193,15.026,64.04,0.498,93.423        c-5.695,11.518-22.921,1.414-17.24-10.077c5.798-11.726,5.894-24.608,5.387-37.423        C353.381,418.598,349.572,405.129,346.031,391.818z"/>
						<path d="M358.14,485.514c-3.577,0-7.311-2.06-9.447-5.264c-2.166-3.249-2.379-7.019-0.601-10.615        c5.816-11.764,5.825-24.818,5.336-37.183c-0.51-12.91-3.917-25.663-7.212-37.996l-0.67-2.509        c-1.728-6.494,2.517-11.261,7.602-12.613c4.828-1.284,10.841,0.371,12.618,7.048c7.927,29.792,15.152,64.064,0.463,93.773        c-1.6,3.235-4.264,5.132-7.501,5.341C358.533,485.508,358.337,485.514,358.14,485.514z M346.514,391.689l0.669,2.509        c3.31,12.386,6.731,25.193,7.246,38.215c0.494,12.492,0.48,25.691-5.439,37.665c-1.613,3.263-1.423,6.679,0.536,9.617        c2.062,3.092,5.75,5.026,9.139,4.802c2.027-0.131,4.83-1.067,6.669-4.786c14.536-29.397,7.347-63.456-0.533-93.071        c-1.6-6.014-7.033-7.504-11.395-6.339C348.942,381.487,344.882,385.559,346.514,391.689L346.514,391.689z"/>
					</g>
					<g>
						<g>
							<path style="fill:#AD2328;" d="M405.69,509.335c-13.453,1.374-55.099,0.682-70.182,0.375         c-3.243-0.066-5.819-2.829-5.543-6.061c0.541-6.324,3.173-15.459,13.848-15.667c0,0-12.288-7.093-5.528-15.732         c6.76-8.639,23.674,7.622,23.674,7.622s2.77-12.371,12.862-9.752c0,0,5.542,2.543,2.12,9.024c0,0,15.596,3.094,22.96,13.373         c3.296,4.601,9.211,6.857,14.687,5.428c1.236-0.323,2.403-0.812,3.402-1.527C417.992,496.419,425.021,507.361,405.69,509.335         z"/>
							<path d="M374.936,510.662c-14.728,0-30.478-0.27-39.438-0.451c-1.714-0.035-3.352-0.785-4.497-2.057         c-1.133-1.259-1.678-2.874-1.534-4.547c0.483-5.651,2.811-14.983,12.814-16.032c-1.975-1.406-5.6-4.474-6.379-8.484         c-0.475-2.449,0.194-4.854,1.989-7.148c1.285-1.642,3.004-2.55,5.11-2.699c6.973-0.493,16.222,7.45,18.691,9.699         c0.549-1.823,2.192-6.193,5.797-8.396c2.167-1.324,4.673-1.632,7.456-0.91c0.179,0.074,2.45,1.142,3.3,3.641         c0.559,1.647,0.366,3.5-0.572,5.517c3.054,0.706,15.999,4.172,22.634,13.434c3.224,4.501,8.914,6.602,14.155,5.235         c1.265-0.33,2.354-0.818,3.237-1.45l0.428-0.307l0.284,0.442c0.1,0.156,2.434,3.862,0.677,7.509         c-1.618,3.358-6.109,5.436-13.349,6.175l0,0C399.576,510.462,387.636,510.662,374.936,510.662z M343.637,470.222         c-0.189,0-0.378,0.006-0.564,0.02c-1.837,0.13-3.273,0.888-4.393,2.318c-1.608,2.055-2.212,4.189-1.795,6.341         c0.974,5.016,7.117,8.613,7.179,8.649l1.556,0.897l-1.796,0.035c-9.983,0.195-12.775,8.38-13.359,15.211         c-0.119,1.394,0.336,2.741,1.281,3.792c0.96,1.067,2.336,1.696,3.773,1.726c16.666,0.34,56.86,0.98,70.121-0.373l0,0         c6.864-0.701,11.086-2.588,12.546-5.608c1.191-2.464,0.146-5.071-0.368-6.094c-0.889,0.554-1.93,0.988-3.102,1.293         c-5.641,1.478-11.758-0.785-15.22-5.62c-7.161-9.995-22.497-13.142-22.651-13.174l-0.657-0.131l0.312-0.593         c1.049-1.986,1.319-3.771,0.804-5.302c-0.704-2.09-2.672-3.026-2.692-3.035c-2.421-0.622-4.672-0.354-6.599,0.825         c-4.172,2.548-5.552,8.521-5.564,8.582l-0.194,0.866l-0.641-0.615C361.507,480.131,351.106,470.222,343.637,470.222z"/>
						</g>
						<g>
							<line style="fill:#AF4C17;" x1="377.177" y1="479.365" x2="364.759" y2="485.898"/>
							
								<rect x="363.953" y="482.132" transform="matrix(0.8853 -0.4651 0.4651 0.8853 -181.8931 227.8863)" width="14.031" height="0.999"/>
						</g>
						<g>
							<line style="fill:#AF4C17;" x1="378.226" y1="480.151" x2="366.836" y2="489.715"/>
							
								<rect x="365.094" y="484.433" transform="matrix(0.766 -0.6428 0.6428 0.766 -224.5615 352.9501)" width="14.874" height="1"/>
						</g>
					</g>
				</g>
			</g>
			<g>
				<g>
					<g>
						<path d="M463.843,116.774c-4.637-2.141-11.705-0.232-13.538,4.991c-14.456,41.191-36.159,79.282-64.388,112.585        c-8.505,10.033,7.254,22.99,15.752,12.965c29.256-34.514,52.18-74.307,67.165-117.003        C470.657,125.116,469.174,119.235,463.843,116.774z"/>
					</g>
					<g>
						<g>
							<path style="fill:#FFFFFF;" d="M441.826,138.476l1.889,0.496c-18.163-5.111-13.762-36.673-6.12-42.825         c10.531-7.343,12.484,13.952,12.484,13.952s6.178-13.005,19.9-24.537c16.339-13.731,14.409,1.574,14.409,1.574         s6.233-7.172,13.822-3.893c5.871,3.521-0.199,10.171-0.199,10.171c3.282-1.782,10.229-4.738,11.999,0.205         c1.667,4.657-2.557,9.228-4.975,12.26c-3.372,4.228-7,8.221-10.721,12.141c-1.076,1.134-3.302,2.813-3.64,4.452         c-4.953,24.014-22.823,24.517-22.823,24.517c0.74,2.312,0.999,6.193-0.066,7.451c-1.647,1.946-4.342,2.646-6.812,2.015         c-5.355-1.368-17.168-4.607-21.991-7.689C432.651,144.721,441.826,138.476,441.826,138.476z"/>
							<path d="M462.757,157.18c-0.633,0-1.273-0.078-1.907-0.24c-6.227-1.591-17.383-4.714-22.136-7.752         c-1.609-1.028-2.436-2.296-2.458-3.768c-0.044-2.987,3.33-5.879,4.715-6.938c-6.241-2.952-8.778-9.158-9.797-14.139         c-2.341-11.445,1.361-24.765,6.108-28.586c2.418-1.689,4.604-2.079,6.528-1.185c4.401,2.047,6.055,10.33,6.569,13.875         c2.041-3.722,8.28-14.026,19.278-23.269c5.917-4.973,10.232-6.777,12.821-5.367c2.183,1.189,2.496,4.272,2.481,6.06         c2.085-1.88,7.363-5.714,13.448-3.087c1.656,0.988,2.58,2.258,2.807,3.805c0.294,2.01-0.665,4.052-1.547,5.44         c2.52-1.146,5.854-2.203,8.268-1.281c1.212,0.463,2.067,1.372,2.544,2.702c1.621,4.525-1.861,8.809-4.404,11.936l-0.65,0.805         c-2.92,3.663-6.235,7.418-10.749,12.174c-0.258,0.272-0.581,0.576-0.93,0.901c-1.05,0.984-2.357,2.208-2.583,3.307         c-4.444,21.55-19.395,24.478-22.664,24.861c0.611,2.356,0.824,5.962-0.333,7.33         C466.853,156.315,464.853,157.18,462.757,157.18z M441.926,139.019c-0.888,0.646-4.712,3.597-4.67,6.387         c0.017,1.13,0.67,2.092,1.997,2.939c4.808,3.072,16.878,6.356,21.845,7.625c2.368,0.606,4.843-0.124,6.307-1.854         c0.887-1.047,0.709-4.672-0.028-6.976l-0.202-0.632l0.664-0.021c0.044-0.001,4.435-0.167,9.354-3.208         c4.539-2.806,10.478-8.711,12.995-20.91c0.29-1.41,1.726-2.754,2.878-3.835c0.333-0.312,0.642-0.601,0.889-0.86         c4.493-4.734,7.79-8.469,10.692-12.108l0.656-0.812c2.393-2.942,5.669-6.973,4.238-10.967         c-0.379-1.059-1.02-1.747-1.959-2.105c-2.826-1.079-7.465,1.159-9.33,2.172l-2.6,1.412l1.992-2.188         c0.03-0.033,3.022-3.359,2.582-6.346c-0.181-1.234-0.945-2.264-2.271-3.06c-7.099-3.058-13.129,3.724-13.189,3.792         l-1.076,1.234l0.203-1.625c0.006-0.05,0.598-5.029-1.893-6.384c-1.509-0.82-4.759-0.576-11.699,5.255         c-13.482,11.33-19.708,24.239-19.77,24.369l-0.782,1.647l-0.167-1.816c-0.011-0.123-1.19-12.34-6.193-14.666         c-1.578-0.731-3.431-0.369-5.507,1.078c-4.407,3.549-7.963,16.659-5.729,27.585c1.095,5.353,4.013,12.186,11.698,14.349         l-0.263,0.965L441.926,139.019z"/>
						</g>
						<g>
							
								<rect x="462.277" y="96.444" transform="matrix(0.6711 -0.7414 0.7414 0.6711 84.5297 384.4202)" width="26.462" height="1.001"/>
						</g>
						<g>
							
								<rect x="474.707" y="103.193" transform="matrix(0.6741 -0.7386 0.7386 0.6741 82.6493 394.709)" width="27.838" height="1"/>
						</g>
						<g>
							
								<rect x="473.809" y="99.836" transform="matrix(0.4939 -0.8695 0.8695 0.4939 143.3682 468.7191)" width="1" height="22.744"/>
						</g>
						<g>
							<path d="M465.482,125.606l-1-0.021c0.083-3.75-0.982-6.618-3.166-8.524c-4.243-3.703-11.355-2.624-11.43-2.61l-0.621,0.099         l0.316-4.484l0.998,0.07l-0.229,3.25c1.909-0.194,7.746-0.462,11.624,2.923C464.391,118.418,465.572,121.546,465.482,125.606         z"/>
						</g>
						<g>
							<rect x="464.688" y="142.619" transform="matrix(0.3597 -0.9331 0.9331 0.3597 161.67 527.4825)" width="1" height="6.64"/>
						</g>
					</g>
				</g>
				<g>
					<g>
						<path d="M50.84,159.401c4.008-3.165,11.326-2.961,14.329,1.688c23.684,36.671,53.689,68.634,88.921,94.416        c10.614,7.767-1.68,24.048-12.285,16.288c-36.513-26.72-68.103-60.052-92.653-98.063        C46.165,169.105,46.232,163.04,50.84,159.401z"/>
					</g>
					<g>
						<g>
							<path style="fill:#FFFFFF;" d="M77.32,175.356l-1.721,0.924c16.465-9.215,4.809-38.873-4.06-43.069         c-11.955-4.678-8.877,16.483-8.877,16.483s-9.047-11.201-25.084-19.206c-19.096-9.531-13.642,4.899-13.642,4.899         s-7.736-5.516-14.349-0.554c-4.885,4.796,2.571,9.842,2.571,9.842c-3.608-0.965-11.053-2.215-11.618,3.003         c-0.533,4.918,4.643,8.374,7.702,10.758c4.266,3.323,8.728,6.357,13.262,9.299c1.311,0.851,3.868,1.964,4.58,3.478         c10.429,22.191,27.922,18.503,27.922,18.503c-0.179,2.421,0.476,6.255,1.806,7.23c2.056,1.507,4.84,1.558,7.094,0.367         c4.886-2.582,15.615-8.492,19.585-12.616C87.701,179.283,77.32,175.356,77.32,175.356z"/>
							<path d="M59.582,198.643c-1.464,0-2.895-0.436-4.067-1.294c-1.445-1.06-2.081-4.615-2.037-7.05         c-3.266,0.391-18.489,1.039-27.848-18.874c-0.476-1.014-2.03-1.897-3.279-2.607c-0.417-0.237-0.804-0.458-1.121-0.664         c-5.488-3.56-9.589-6.436-13.296-9.323l-0.819-0.629c-3.204-2.446-7.591-5.797-7.074-10.576         c0.152-1.405,0.771-2.489,1.841-3.222c2.134-1.463,5.623-1.212,8.339-0.688c-1.182-1.144-2.592-2.905-2.775-4.928         c-0.141-1.557,0.46-3.008,1.79-4.311c5.34-4.014,11.379-1.523,13.848-0.185c-0.432-1.734-0.848-4.807,0.997-6.473         c2.19-1.979,6.805-1.229,13.72,2.222c12.854,6.415,21.33,14.975,24.184,18.117c-0.328-3.567-0.657-12.008,3.144-15.026         c1.661-1.319,3.878-1.448,6.592-0.388c5.54,2.62,12.254,14.705,12.653,26.381c0.174,5.08-0.841,11.708-6.221,16.036         c1.594,0.706,5.55,2.728,6.206,5.643c0.323,1.436-0.185,2.862-1.509,4.238c-4.059,4.218-15.137,10.295-19.711,12.712         C62.013,198.35,60.786,198.643,59.582,198.643z M54.553,189.091l-0.049,0.663c-0.178,2.412,0.497,5.977,1.603,6.789         c1.829,1.34,4.405,1.469,6.565,0.327c4.532-2.395,15.5-8.407,19.458-12.521c1.092-1.135,1.503-2.223,1.254-3.325         c-0.613-2.726-5.019-4.696-6.034-5.117l-1.515,0.814l-0.48-0.877c6.967-3.898,8.206-11.225,8.02-16.684         c-0.381-11.146-6.904-23.062-12.05-25.497c-2.327-0.91-4.212-0.828-5.574,0.253c-4.321,3.43-2.612,15.584-2.594,15.706         l0.262,1.804l-1.146-1.417c-0.09-0.111-9.173-11.214-24.919-19.072c-8.109-4.046-11.328-3.526-12.602-2.375         c-2.105,1.898-0.366,6.602-0.348,6.649l0.577,1.532l-1.335-0.948c-0.074-0.052-7.523-5.242-13.759-0.561         c-1.054,1.04-1.557,2.221-1.444,3.464c0.273,3.013,3.957,5.538,3.994,5.564l2.459,1.664l-2.869-0.767         c-2.049-0.549-7.086-1.639-9.579,0.069c-0.83,0.568-1.292,1.388-1.413,2.505c-0.456,4.219,3.672,7.372,6.686,9.674         l0.827,0.635c3.685,2.87,7.764,5.729,13.227,9.273c0.303,0.197,0.673,0.407,1.071,0.634c1.372,0.78,3.078,1.751,3.69,3.051         c10.142,21.583,27.192,18.263,27.366,18.228L54.553,189.091z"/>
						</g>
						<g>
							
								<rect x="34.363" y="129.617" transform="matrix(0.5639 -0.8259 0.8259 0.5639 -102.7681 91.0924)" width="1" height="26.461"/>
						</g>
						<g>
							
								<rect x="23.186" y="138.555" transform="matrix(0.5603 -0.8283 0.8283 0.5603 -115.8776 86.6603)" width="1" height="27.839"/>
						</g>
						<g>
							<rect x="27.992" y="155.935" transform="matrix(0.7301 -0.6833 0.6833 0.7301 -96.274 69.12)" width="22.743" height="1"/>
						</g>
						<g>
							<path d="M51.311,168.373c-1.037-3.928-0.621-7.245,1.237-9.862c2.979-4.196,8.715-5.301,10.619-5.558l-0.982-3.108         l0.953-0.301l1.354,4.287l-0.627,0.049c-0.072,0.006-7.251,0.625-10.505,5.214c-1.675,2.363-2.04,5.399-1.083,9.023         L51.311,168.373z"/>
						</g>
						<g>
							
								<rect x="53.03" y="187.574" transform="matrix(0.8231 -0.5679 0.5679 0.8231 -96.8435 65.2778)" width="6.64" height="0.999"/>
						</g>
					</g>
				</g>
			</g>
		</g>
		<g>
			<g>
				<path style="fill:#004421;" d="M418.589,344.21c-26.489,14.148-67.883,32.231-121.373,40.27      c-63.094,9.506-115.118,0.904-146.347-6.793l-10.703-244.701l-1.368-31.229c1.417,15.908,56.105,24.094,122.204,18.254      c66.075-5.816,118.514-23.434,117.097-39.342l4.887,31.864L418.589,344.21z"/>
				<path d="M241.075,389.203c-30.295,0-60.509-3.682-90.326-11.031l-0.364-0.09l-0.016-0.374l-12.071-275.93l0.998-0.065      c1.391,15.619,55.97,23.603,121.662,17.799c55.4-4.876,102.295-18.079,114.04-32.106c1.919-2.292,2.794-4.543,2.603-6.693      l0.992-0.12l4.888,31.865l35.657,232.027l-0.312,0.167c-38.132,20.366-79.021,33.934-121.535,40.323      C278.574,387.794,259.807,389.203,241.075,389.203z M151.352,377.29c48.011,11.786,97.058,14.038,145.789,6.696      c42.283-6.355,82.959-19.831,120.9-40.051l-35.55-231.326l-4.372-28.501c-0.466,1.305-1.252,2.621-2.355,3.938      c-11.902,14.215-59.077,27.563-114.72,32.461c-31.998,2.828-62.355,2.481-85.476-0.975      c-19.835-2.965-32.374-7.961-36.118-14.277L151.352,377.29z"/>
			</g>
			<g>
				<g>
					
						<rect x="274.301" y="120.786" transform="matrix(0.9962 -0.0876 0.0876 0.9962 -21.1565 25.0596)" width="1" height="265.349"/>
				</g>
				<g>
					
						<rect x="347.757" y="107.381" transform="matrix(0.989 -0.1481 0.1481 0.989 -31.3498 54.2069)" width="0.999" height="260.394"/>
				</g>
				<g>
					<rect x="204.24" y="120.985" transform="matrix(0.9989 -0.0465 0.0465 0.9989 -11.5919 9.7948)" width="1" height="266.151"/>
				</g>
			</g>
		</g>
		<g>
			<g>
				
					<ellipse transform="matrix(0.9961 -0.0878 0.0878 0.9961 -7.0075 23.033)" style="fill:#71D2C4;" cx="258.456" cy="91.215" rx="120.115" ry="28.915"/>
				<path d="M219.636,122.402c-16.274,0-31.276-0.961-44.066-2.872c-23.33-3.487-36.563-9.784-37.263-17.73      c-0.7-7.947,11.229-16.461,33.589-23.973c22.156-7.443,51.98-13.096,83.979-15.914c31.999-2.819,62.352-2.47,85.467,0.986      c23.33,3.486,36.563,9.783,37.264,17.73c0.7,7.947-11.228,16.461-33.59,23.973c-22.156,7.443-51.98,13.096-83.978,15.914      C246.743,121.775,232.774,122.402,219.636,122.402z M297.283,61.026c-13.113,0-27.049,0.625-41.321,1.883      c-31.922,2.813-61.664,8.446-83.748,15.865c-21.562,7.244-33.558,15.604-32.912,22.938      c1.375,15.607,55.945,23.596,121.647,17.809c65.701-5.788,118.035-23.194,116.66-38.803      c-0.647-7.333-13.919-13.468-36.415-16.83C328.454,61.984,313.5,61.026,297.283,61.026z"/>
			</g>
			<g>
				<path style="fill:#FFB500;" d="M378.123,81.181c0.269,15.761-51.755,33.086-117.121,38.829      c-55.225,4.887-102.484-0.024-117.366-11.069c17.911-11.314,35.44-23.315,63.141-20.192      C305.251,99.849,288.297,56.574,378.123,81.181z"/>
				<path d="M219.835,122.382c-36.108,0-65.25-4.692-76.497-13.04l-0.586-0.435l2.837-1.795      c16.968-10.754,34.514-21.875,61.244-18.861c46.46,5.238,67.229-1.678,85.552-7.781c20.593-6.858,38.382-12.78,85.869,0.229      l0.361,0.1l0.007,0.374c0.277,16.241-51.368,33.519-117.577,39.335C246.746,121.773,232.839,122.382,219.835,122.382z       M144.53,108.966c15.756,10.907,63.334,15.245,116.428,10.546c64.077-5.629,116.092-22.59,116.661-37.949      c-46.92-12.799-64.532-6.933-84.917-0.144c-18.422,6.134-39.299,13.089-85.981,7.826c-26.376-2.972-43.775,8.051-60.597,18.712      L144.53,108.966z"/>
			</g>
		</g>
		<g>
			<g>
				<g>
					<path style="fill:#71D2C4;" d="M423.085,368.743c-26.488,14.148-71.719,30.13-125.21,38.169       c-63.094,9.505-115.118,0.904-146.347-6.793l-0.977-22.481c31.571,7.551,85.159,16.103,146.664,6.842       c51.389-7.722,94.934-26.122,121.764-40.099L423.085,368.743z"/>
					<path d="M241.732,411.635c-30.295,0-60.505-3.681-90.322-11.03l-0.364-0.09l-1.023-23.518l0.645,0.154       c33.816,8.088,86.677,15.839,146.474,6.835c54.696-8.219,99.669-28.62,121.607-40.049l0.61-0.317l4.279,25.395l-0.317,0.17       c-31.616,16.887-78.484,31.176-125.371,38.222C279.234,410.226,260.465,411.635,241.732,411.635z M152.013,399.723       c48.01,11.786,97.057,14.036,145.789,6.695c46.623-7.008,93.214-21.184,124.731-37.946l-3.932-23.33       c-22.211,11.514-66.974,31.668-121.311,39.833c-59.578,8.972-112.283,1.354-146.21-6.697L152.013,399.723z"/>
				</g>
				<g>
					<g>
						<path d="M211.264,403.052c-2.819,0-5.112-2.293-5.112-5.112c0-2.819,2.293-5.112,5.112-5.112c2.819,0,5.113,2.293,5.113,5.112        C216.377,400.759,214.083,403.052,211.264,403.052z M211.264,393.827c-2.268,0-4.112,1.845-4.112,4.112        s1.845,4.112,4.112,4.112c2.268,0,4.113-1.845,4.113-4.112S213.532,393.827,211.264,393.827z"/>
					</g>
					<g>
						<path d="M287.368,401.322c-2.819,0-5.112-2.293-5.112-5.112c0-2.819,2.293-5.112,5.112-5.112c2.819,0,5.112,2.293,5.112,5.112        C292.48,399.029,290.187,401.322,287.368,401.322z M287.368,392.098c-2.268,0-4.112,1.845-4.112,4.112        c0,2.268,1.845,4.112,4.112,4.112c2.268,0,4.112-1.845,4.112-4.112C291.48,393.942,289.636,392.098,287.368,392.098z"/>
					</g>
					<g>
						<path d="M369.526,382.008c-2.819,0-5.112-2.293-5.112-5.112c0-2.819,2.293-5.112,5.112-5.112c2.819,0,5.112,2.293,5.112,5.112        C374.639,379.715,372.346,382.008,369.526,382.008z M369.526,372.783c-2.268,0-4.112,1.845-4.112,4.112        c0,2.268,1.845,4.112,4.112,4.112c2.268,0,4.112-1.845,4.112-4.112C373.639,374.628,371.794,372.783,369.526,372.783z"/>
					</g>
				</g>
			</g>
			<g>
				<g>
					<path style="fill:#71D2C4;" d="M382.986,112.533c-25.755,13.293-69.031,24.314-118.637,28.688       c-51.046,4.496-96.693,0.904-124.183-8.235l-1.368-31.229c1.417,15.908,56.105,24.094,122.204,18.254       c66.075-5.816,118.514-23.434,117.097-39.342L382.986,112.533z"/>
					<path d="M221.456,143.646c-32.479,0-61.369-3.511-81.448-10.187l-0.327-0.108l-1.383-31.573l0.998-0.065       c1.391,15.619,55.969,23.602,121.662,17.799c55.4-4.876,102.295-18.079,114.04-32.106c1.919-2.292,2.794-4.543,2.603-6.693       l0.992-0.12l4.942,32.221l-0.319,0.165c-26.725,13.793-71.144,24.537-118.822,28.741       C249.701,143.013,235.254,143.646,221.456,143.646z M140.651,132.619c28.513,9.387,74.694,12.417,123.655,8.104       c47.367-4.177,91.483-14.811,118.132-28.47l-4.317-28.145c-0.466,1.305-1.252,2.621-2.355,3.938       c-11.902,14.215-59.077,27.563-114.72,32.461c-31.998,2.828-62.355,2.481-85.476-0.975       c-19.835-2.965-32.374-7.961-36.118-14.277L140.651,132.619z"/>
				</g>
				<g>
					<g>
						<path d="M337.485,123.747c-2.819,0-5.112-2.293-5.112-5.112c0-2.819,2.293-5.112,5.112-5.112c2.819,0,5.112,2.293,5.112,5.112        C342.598,121.454,340.305,123.747,337.485,123.747z M337.485,114.522c-2.268,0-4.112,1.845-4.112,4.112        c0,2.268,1.845,4.112,4.112,4.112c2.267,0,4.112-1.845,4.112-4.112C341.598,116.367,339.753,114.522,337.485,114.522z"/>
					</g>
					<g>
						<path d="M268.196,135.998c-2.819,0-5.112-2.293-5.112-5.112c0-2.819,2.293-5.112,5.112-5.112c2.819,0,5.112,2.293,5.112,5.112        C273.308,133.705,271.015,135.998,268.196,135.998z M268.196,126.773c-2.268,0-4.112,1.845-4.112,4.112        c0,2.268,1.845,4.112,4.112,4.112c2.268,0,4.112-1.845,4.112-4.112C272.308,128.618,270.464,126.773,268.196,126.773z"/>
					</g>
					<g>
						<path d="M199.593,137.076c-2.819,0-5.113-2.293-5.113-5.112c0-2.819,2.293-5.112,5.113-5.112c2.819,0,5.112,2.293,5.112,5.112        C204.705,134.783,202.412,137.076,199.593,137.076z M199.593,127.851c-2.268,0-4.113,1.845-4.113,4.112        c0,2.268,1.845,4.112,4.113,4.112s4.112-1.845,4.112-4.112C203.705,129.696,201.861,127.851,199.593,127.851z"/>
					</g>
				</g>
			</g>
		</g>
	</g>
	<g>
		<g>
			<g>
				<g>
					<g>
						<path d="M383.686,211.031c-3.2,0-6.41-0.62-9.395-1.823c-0.257-0.104-0.381-0.395-0.277-0.65        c0.104-0.258,0.398-0.379,0.65-0.277c3.489,1.406,7.298,1.982,11.021,1.666c5.393-0.459,9.452-2.638,11.906-4.385        c0.225-0.159,0.537-0.107,0.697,0.117c0.16,0.225,0.107,0.537-0.117,0.697c-2.557,1.819-6.783,4.088-12.402,4.566        C385.078,211.002,384.382,211.031,383.686,211.031z"/>
					</g>
					<g>
						<path d="M377.317,189.409c-1.745,0-3.491-0.181-5.202-0.543c-0.271-0.058-0.442-0.322-0.386-0.593        c0.058-0.271,0.327-0.436,0.593-0.386c3.679,0.779,7.533,0.685,11.141-0.276c5.235-1.391,8.852-4.242,10.963-6.389        c0.193-0.197,0.51-0.198,0.707-0.006c0.197,0.193,0.199,0.51,0.006,0.707c-2.199,2.236-5.966,5.205-11.419,6.654        C381.639,189.132,379.479,189.409,377.317,189.409z"/>
					</g>
					<g>
						<path d="M365.68,168.715c-0.256,0-0.475-0.196-0.497-0.456c-0.024-0.275,0.18-0.518,0.454-0.542        c3.747-0.328,7.404-1.544,10.577-3.515c4.596-2.855,7.225-6.639,8.621-9.31c0.13-0.245,0.431-0.337,0.675-0.212        c0.245,0.128,0.34,0.431,0.212,0.675c-1.454,2.782-4.192,6.723-8.98,9.696c-3.305,2.053-7.114,3.319-11.017,3.661        C365.71,168.714,365.694,168.715,365.68,168.715z"/>
					</g>
				</g>
				<g>
					<g>
						<g>
							<path style="fill:#FFFFFF;" d="M289.835,206.358c2.995,27.241,15.267,49.69,30.504,59.191         c5.948,3.696,12.322,5.418,18.81,4.695c23.073-2.571,38.404-35.345,34.243-73.196c-4.162-37.851-26.241-66.456-49.314-63.885         c-6.141,0.684-11.726,3.498-16.523,7.958C294.243,153.488,286.778,178.547,289.835,206.358z"/>
							<path d="M336.211,270.907c-5.441,0-10.855-1.653-16.135-4.935c-15.776-9.836-27.842-33.215-30.737-59.561l0,0         c-2.973-27.035,4.045-52.808,17.878-65.658c5.039-4.686,10.694-7.407,16.807-8.089c7.815-0.87,15.831,1.778,23.18,7.662         c14.046,11.246,24.023,32.43,26.687,56.666c4.185,38.066-11.373,71.149-34.684,73.747         C338.207,270.851,337.208,270.907,336.211,270.907z M326.943,133.503c-0.939,0-1.875,0.052-2.809,0.156         c-5.896,0.657-11.358,3.29-16.237,7.827c-13.609,12.643-20.504,38.085-17.564,64.816         c2.863,26.053,14.746,49.141,30.271,58.821c6.051,3.76,12.271,5.316,18.49,4.622c22.764-2.536,37.927-35.124,33.801-72.644         c-2.636-23.979-12.474-44.911-26.317-55.995C340.325,136.101,333.592,133.503,326.943,133.503z"/>
						</g>
					</g>
					<g>
						<path d="M312.791,152.19c3.561-3.575,7.725-5.813,12.319-6.324c17.262-1.921,33.993,21.373,37.369,52.024        c0.162,1.471,0.28,2.929,0.376,4.379l-34.307-5.417l34.023,21.372c-2.254,21.219-11.966,37.17-25.234,38.647        c-4.854,0.54-9.639-0.897-14.119-3.928c-11.476-7.791-20.821-26.038-23.25-48.096        C297.487,182.325,302.906,162.104,312.791,152.19z"/>
						<path d="M335.303,257.483c-4.161,0-8.31-1.384-12.365-4.127c-11.904-8.081-21.115-27.102-23.468-48.456        c-2.413-21.914,2.678-42.742,12.967-53.064l0,0c3.766-3.779,8.011-5.955,12.618-6.469c5.51-0.606,11.198,1.294,16.467,5.512        c11.016,8.819,19.236,26.812,21.455,46.955c0.147,1.34,0.271,2.779,0.377,4.4l0.041,0.624l-32.515-5.135l32.222,20.241        l-0.033,0.311c-2.367,22.274-12.445,37.618-25.676,39.091C336.695,257.444,335.999,257.483,335.303,257.483z M327.077,146.257        c-0.64,0-1.276,0.035-1.911,0.105c-4.376,0.487-8.42,2.566-12.021,6.18l0,0c-10.085,10.116-15.062,30.625-12.682,52.249        c2.321,21.076,11.363,39.814,23.035,47.737c4.529,3.065,9.171,4.36,13.782,3.845c12.489-1.39,22.417-16.601,24.76-37.893        l-35.825-22.504l36.098,5.699c-0.096-1.354-0.204-2.58-0.331-3.731c-2.19-19.89-10.27-37.624-21.086-46.284        C336.453,148.102,331.713,146.257,327.077,146.257z"/>
					</g>
				</g>
				<g>
					<path style="fill:#FFFFFF;" d="M318.2,176.912c2.496,7.73,10.786,11.973,18.516,9.477c7.73-2.496,11.973-10.786,9.477-18.517       c-2.496-7.73-10.786-11.973-18.516-9.476C319.946,160.892,315.703,169.182,318.2,176.912z"/>
					<path d="M332.207,187.601c-6.422,0-12.405-4.104-14.482-10.536l0,0c-1.249-3.865-0.917-7.986,0.934-11.602       c1.851-3.616,4.999-6.295,8.865-7.543c3.865-1.248,7.985-0.916,11.602,0.934c3.616,1.851,6.295,4.999,7.543,8.865       c1.249,3.865,0.917,7.985-0.934,11.602c-1.851,3.617-4.999,6.296-8.865,7.544C335.322,187.364,333.752,187.601,332.207,187.601       z M332.212,158.177c-1.469,0-2.943,0.23-4.382,0.694c-3.611,1.166-6.553,3.669-8.282,7.048       c-1.729,3.378-2.038,7.228-0.872,10.84l0,0c2.407,7.454,10.429,11.561,17.887,9.154c3.611-1.166,6.553-3.669,8.282-7.048       c1.729-3.379,2.038-7.229,0.872-10.84c-1.166-3.611-3.669-6.553-7.048-8.281C336.636,158.703,334.432,158.177,332.212,158.177z       "/>
				</g>
				<g>
					<path style="fill:#FFFFFF;" d="M307.366,195.724c1.425,4.411,6.156,6.833,10.567,5.408c4.411-1.425,6.833-6.156,5.408-10.567       c-1.425-4.411-6.156-6.833-10.567-5.408C308.363,186.581,305.941,191.312,307.366,195.724z"/>
					<path d="M315.36,202.039c-3.756,0-7.255-2.4-8.47-6.162c-1.508-4.666,1.064-9.689,5.73-11.196       c4.662-1.514,9.689,1.062,11.196,5.73c1.507,4.666-1.064,9.689-5.73,11.196C317.182,201.899,316.264,202.039,315.36,202.039z        M315.348,185.249c-0.802,0-1.617,0.123-2.421,0.383c-4.142,1.338-6.424,5.796-5.086,9.938c1.338,4.142,5.797,6.42,9.938,5.086       c4.142-1.338,6.423-5.796,5.086-9.939C321.787,187.379,318.682,185.249,315.348,185.249z"/>
				</g>
			</g>
			<g>
				<g>
					<g>
						<path d="M154.597,232.649c-4.682,0-8.476-1.327-10.949-2.526c-0.249-0.121-0.352-0.42-0.231-0.668        c0.12-0.249,0.42-0.354,0.668-0.232c2.711,1.316,7.073,2.788,12.469,2.347c3.721-0.306,7.383-1.506,10.59-3.473        c0.234-0.147,0.543-0.07,0.688,0.164c0.145,0.235,0.07,0.544-0.165,0.688c-3.34,2.049-7.155,3.3-11.031,3.617        C155.94,232.623,155.259,232.649,154.597,232.649z"/>
					</g>
					<g>
						<path d="M157.223,210.277c-0.762,0-1.523-0.035-2.281-0.105c-5.615-0.522-9.823-2.825-12.365-4.665        c-0.224-0.162-0.274-0.475-0.112-0.698c0.162-0.226,0.474-0.273,0.698-0.112c2.44,1.767,6.481,3.977,11.872,4.479        c3.72,0.35,7.534-0.199,11.032-1.578c0.258-0.104,0.547,0.024,0.649,0.281c0.101,0.257-0.025,0.548-0.282,0.648        C163.503,209.684,160.358,210.277,157.223,210.277z"/>
					</g>
					<g>
						<path d="M167.407,187.672c-3.252,0-6.497-0.632-9.491-1.858c-5.217-2.139-8.571-5.568-10.466-8.07        c-0.167-0.22-0.124-0.533,0.097-0.7c0.221-0.168,0.534-0.124,0.7,0.097c1.82,2.401,5.04,5.696,10.048,7.748        c3.457,1.416,7.265,2.002,11.014,1.709c0.275-0.021,0.516,0.183,0.538,0.458c0.022,0.275-0.184,0.517-0.459,0.538        C168.729,187.645,168.068,187.672,167.407,187.672z"/>
					</g>
				</g>
				<g>
					<g>
						<g>
							<path style="fill:#FFFFFF;" d="M250.476,212.108c1.572,27.36-6.8,51.536-20.248,63.435c-5.252,4.633-11.25,7.39-17.769,7.755         c-23.18,1.298-43.742-28.474-45.927-66.49c-2.184-38.016,14.837-69.892,38.016-71.19c6.169-0.345,12.144,1.502,17.615,5.103         C237.347,160.705,248.871,184.175,250.476,212.108z"/>
							<path d="M211.011,283.839c-22.812,0-42.827-29.574-44.977-67.003c-1.398-24.341,4.92-46.888,16.902-60.311         c6.269-7.023,13.733-10.967,21.586-11.406c6.141-0.345,12.167,1.399,17.917,5.184c15.774,10.374,26.976,34.622,28.537,61.776         l0,0c1.521,26.461-6.494,51.519-20.415,63.838c-5.518,4.867-11.598,7.518-18.072,7.88         C211.994,283.824,211.501,283.839,211.011,283.839z M206.035,146.076c-0.485,0-0.971,0.014-1.458,0.041         c-7.582,0.425-14.807,4.254-20.895,11.074c-11.809,13.229-18.033,35.505-16.65,59.588c2.165,37.683,22.516,67.261,45.4,66.02         c6.245-0.35,12.121-2.916,17.466-7.631c13.701-12.123,21.583-36.865,20.08-63.032l0,0         c-1.543-26.849-12.568-50.791-28.088-60.997C216.781,147.776,211.453,146.076,206.035,146.076z"/>
						</g>
					</g>
					<g>
						<path d="M218.841,162.506c-4.106-2.934-8.584-4.449-13.199-4.19c-17.341,0.973-29.97,26.723-28.207,57.509        c0.085,1.478,0.21,2.935,0.357,4.38l32.93-11.041l-30,26.727c5.748,20.549,17.974,34.666,31.304,33.918        c4.877-0.273,9.356-2.486,13.271-6.219c10.022-9.589,16.206-29.135,14.937-51.291        C238.939,189.681,230.236,170.641,218.841,162.506z"/>
						<path d="M211.003,270.338c-12.896,0.002-24.888-13.309-30.762-34.312l-0.084-0.301l28.411-25.312l-31.21,10.464l-0.064-0.622        c-0.164-1.615-0.282-3.055-0.359-4.402c-1.159-20.232,3.96-39.341,13.357-49.867c4.494-5.034,9.792-7.859,15.322-8.169        c4.629-0.265,9.176,1.181,13.517,4.281l0,0c11.862,8.469,20.342,28.163,21.602,50.174c1.228,21.448-4.695,41.734-15.09,51.68        c-4.136,3.944-8.708,6.083-13.588,6.357C211.704,270.328,211.352,270.338,211.003,270.338z M181.288,236.057        c5.847,20.608,18.171,33.962,30.71,33.254c4.637-0.26,8.995-2.307,12.953-6.082c10.192-9.751,15.995-29.73,14.783-50.899        c-1.244-21.72-9.56-41.117-21.185-49.416l0,0c-4.151-2.966-8.49-4.343-12.879-4.098c-5.259,0.295-10.318,3.005-14.632,7.837        c-9.227,10.336-14.249,29.167-13.105,49.145c0.067,1.156,0.163,2.384,0.294,3.734l34.649-11.617L181.288,236.057z"/>
					</g>
				</g>
				<g>
					<path style="fill:#FFFFFF;" d="M217.615,187.783c-1.178,8.037-8.648,13.598-16.685,12.421       c-8.037-1.178-13.598-8.648-12.421-16.685c1.178-8.037,8.648-13.598,16.685-12.421       C213.231,172.276,218.792,179.746,217.615,187.783z"/>
					<path d="M203.072,200.86c-0.731,0-1.47-0.053-2.214-0.161c-8.297-1.216-14.059-8.955-12.843-17.252       c0.589-4.02,2.708-7.569,5.966-9.995c3.259-2.426,7.267-3.436,11.286-2.849c8.297,1.216,14.059,8.955,12.843,17.252l0,0       C217.002,195.409,210.49,200.86,203.072,200.86z M203.031,171.44c-3.034,0-5.976,0.969-8.454,2.814       c-3.044,2.267-5.024,5.583-5.574,9.338c-1.135,7.752,4.247,14.981,11.999,16.117c7.751,1.141,14.982-4.246,16.118-11.998l0,0       c1.135-7.752-4.247-14.981-11.998-16.117C204.423,171.491,203.724,171.44,203.031,171.44z"/>
				</g>
				<g>
					<path style="fill:#FFFFFF;" d="M231.423,204.534c-0.672,4.587-4.935,7.76-9.522,7.089c-4.587-0.672-7.76-4.935-7.089-9.522       c0.672-4.587,4.935-7.76,9.522-7.089C228.921,195.684,232.095,199.947,231.423,204.534z"/>
					<path d="M223.136,212.213c-0.434,0-0.871-0.032-1.308-0.096c-2.351-0.345-4.427-1.584-5.845-3.489       c-1.418-1.905-2.01-4.249-1.666-6.6c0.344-2.351,1.584-4.427,3.489-5.846c1.906-1.418,4.251-2.008,6.6-1.666       c4.853,0.711,8.222,5.237,7.511,10.09c-0.344,2.351-1.583,4.427-3.489,5.845C226.877,211.605,225.036,212.213,223.136,212.213z        M223.101,195.422c-1.686,0-3.32,0.538-4.697,1.564c-1.691,1.259-2.791,3.102-3.097,5.188       c-0.306,2.087,0.219,4.167,1.479,5.858c1.259,1.69,3.102,2.79,5.188,3.096c4.311,0.636,8.324-2.359,8.955-6.665       c0.631-4.308-2.36-8.324-6.666-8.955C223.874,195.449,223.486,195.422,223.101,195.422z"/>
				</g>
			</g>
		</g>
		<g>
			
				<ellipse transform="matrix(0.7071 -0.7071 0.7071 0.7071 -90.641 263.5585)" style="fill:#FFB2B0;" cx="272.823" cy="241.193" rx="11.875" ry="11.875"/>
			<path d="M272.823,253.567c-6.823,0-12.375-5.552-12.375-12.375c0-6.823,5.552-12.374,12.375-12.374     c6.823,0,12.374,5.551,12.374,12.374C285.197,248.016,279.646,253.567,272.823,253.567z M272.823,229.818     c-6.272,0-11.375,5.103-11.375,11.374c0,6.272,5.103,11.375,11.375,11.375c6.271,0,11.374-5.103,11.374-11.375     C284.197,234.921,279.095,229.818,272.823,229.818z"/>
		</g>
		<g>
			<g>
				<path style="fill:#FF8806;" d="M300.205,259.297c7.35-3.254,16.148,0.562,17.526,7.657c5.347,27.529,11.15,84.563-30.606,91.331      c-42.031,6.813-49.742-54.646-51.024-84.527c-0.316-7.384,7.737-12.803,15.808-10.739c6.915,1.769,15.143,3.085,24.392,2.417      C285.908,264.742,293.788,262.138,300.205,259.297z"/>
				<path d="M280.891,359.305c-7.513,0-14.209-2.362-19.971-7.056c-19.793-16.125-24.358-56.085-25.318-78.47      c-0.142-3.299,1.352-6.467,4.096-8.694c3.348-2.716,7.959-3.668,12.336-2.55c8.521,2.179,16.444,2.967,24.232,2.401      c8.014-0.578,15.778-2.572,23.736-6.097l0,0c3.922-1.737,8.502-1.606,12.249,0.351c3.169,1.653,5.345,4.449,5.971,7.668      c3.844,19.792,8.132,56.091-6.336,76.829c-5.788,8.298-14.093,13.375-24.681,15.091      C285.042,359.13,282.936,359.305,280.891,359.305z M248.39,263.075c-2.954,0-5.816,0.965-8.062,2.787      c-2.533,2.055-3.856,4.852-3.727,7.874c0.953,22.217,5.461,61.859,24.951,77.737c7.101,5.784,15.678,7.908,25.493,6.318      c10.311-1.672,18.393-6.609,24.022-14.677c14.256-20.435,9.987-56.43,6.173-76.065c-0.566-2.919-2.554-5.461-5.451-6.974      c-3.48-1.817-7.735-1.938-11.382-0.322l0,0c-8.065,3.572-15.938,5.594-24.068,6.181c-7.896,0.567-15.926-0.225-24.553-2.431      C250.661,263.216,249.518,263.075,248.39,263.075z"/>
			</g>
			<g>
				<g id="XMLID_7_">
					<path style="fill:#FFFFFF;" d="M305.252,266.838c1.965-0.919,4.242,0.287,4.544,2.403c2.416,16.96,8.811,78.028-23.698,81.646       c-37.176,4.138-40.434-57.86-40.635-74.725c-0.025-2.071,1.92-3.635,3.96-3.173c6.46,1.462,16.622,2.91,29.054,1.436       C290.172,273.039,299.339,269.605,305.252,266.838z"/>
					<path d="M282.638,351.583c-6.668,0-12.568-2.234-17.58-6.666c-18.076-15.983-19.95-56.662-20.094-68.749       c-0.014-1.137,0.49-2.202,1.381-2.923c0.899-0.727,2.064-0.999,3.188-0.743c9.203,2.082,19.192,2.575,28.885,1.427       c9.33-1.105,18.287-3.644,26.622-7.544l0,0c1.092-0.509,2.322-0.477,3.371,0.091c1.03,0.557,1.715,1.539,1.88,2.695       c1.769,12.419,6.417,54.391-8.053,73.063c-4.141,5.344-9.553,8.422-16.085,9.15       C284.959,351.517,283.786,351.583,282.638,351.583z M248.701,273.408c-0.623,0-1.23,0.212-1.727,0.614       c-0.652,0.527-1.02,1.305-1.01,2.134c0.143,11.983,1.989,52.302,19.756,68.012c5.654,5.001,12.497,7.097,20.322,6.222       c6.254-0.696,11.438-3.646,15.406-8.768c14.229-18.362,9.607-59.989,7.853-72.31c-0.119-0.839-0.617-1.552-1.365-1.956       c-0.769-0.417-1.67-0.441-2.472-0.064c-8.432,3.945-17.492,6.513-26.929,7.63c-9.806,1.163-19.911,0.663-29.223-1.444       C249.109,273.431,248.904,273.408,248.701,273.408z"/>
				</g>
				<g>
					<rect x="293.073" y="272.082" transform="matrix(0.9957 -0.0923 0.0923 0.9957 -27.3033 28.4108)" width="1" height="74.746"/>
				</g>
				<g>
					
						<rect x="269.918" y="274.814" transform="matrix(0.9947 -0.1024 0.1024 0.9947 -30.5657 29.3323)" width="0.999" height="75.133"/>
				</g>
				<g>
					<polygon points="249.917,314.641 249.806,313.646 311.639,306.742 311.687,307.181 311.879,307.705 311.75,307.736      "/>
				</g>
			</g>
		</g>
	</g>
	<g>
		<g>
			<g>
				<path style="fill:#FFB500;" d="M347.298,31.364c-0.718-1.31-1.771-2.53-3.206-3.594c-3.754-2.784-8.844-3.95-13.462-3.735      c-8.45,0.395-16.955,3.713-24.044,8.2c-12.043,7.623-20.72,19.459-27.1,32.006c-1.976,3.887-3.839,7.832-5.594,11.824      c-0.545,1.239-1.284,3.258-2.09,4.93c7.205-6.95,14.601-13.866,23.141-19.168c10.23-6.351,21.092-7.588,32.667-9.472      C336.875,50.849,354.245,44.034,347.298,31.364z"/>
				<path d="M270.141,83.293l1.211-2.514c0.501-1.041,0.979-2.225,1.4-3.269c0.25-0.617,0.48-1.186,0.682-1.646      c1.779-4.045,3.665-8.031,5.606-11.849c7.431-14.614,16.607-25.449,27.277-32.203c7.856-4.972,16.482-7.911,24.289-8.276      c5.153-0.246,10.174,1.155,13.783,3.832c1.441,1.068,2.566,2.332,3.346,3.755l0,0c1.966,3.586,2.191,6.988,0.666,10.112      c-3.449,7.069-14.642,10.627-20.711,11.614c-1.073,0.175-2.141,0.344-3.201,0.512c-10.33,1.637-20.087,3.182-29.282,8.892      c-8.428,5.232-15.716,12.021-23.059,19.103L270.141,83.293z M331.753,24.509c-0.365,0-0.731,0.009-1.099,0.025      c-7.637,0.358-16.089,3.243-23.801,8.124c-10.516,6.656-19.573,17.358-26.922,31.811c-1.933,3.801-3.811,7.77-5.581,11.798      c-0.199,0.453-0.425,1.012-0.67,1.619c-0.131,0.324-0.268,0.662-0.408,1.005c6.776-6.484,13.595-12.637,21.408-17.487      c9.367-5.816,19.221-7.377,29.652-9.029c1.061-0.168,2.126-0.337,3.198-0.511c5.475-0.892,16.695-4.351,19.972-11.066      c1.374-2.815,1.157-5.908-0.643-9.193l0,0c-0.71-1.296-1.741-2.45-3.065-3.433C340.622,25.819,336.283,24.509,331.753,24.509z"/>
			</g>
			<g>
				<path style="fill:#FFFFFF;" d="M335.42,44.053c0.43,0.956,1.642,1.255,2.543,0.842c2.359-1.08,4.321-2.926,5.179-5.414      c0.807-2.341,0.604-4.927-0.017-7.284c-0.271-1.026-1.183-1.639-2.241-1.468c-0.973,0.158-1.72,1.282-1.468,2.241      c0.139,0.529,0.26,1.063,0.347,1.603c0.044,0.272,0.076,0.545,0.107,0.819c0.002,0.019,0.002,0.021,0.004,0.035      c0.005,0.111,0.012,0.221,0.014,0.332c0.011,0.469-0.009,0.938-0.067,1.404c-0.014,0.112-0.041,0.225-0.049,0.337      c-0.052,0.207-0.103,0.413-0.169,0.617c-0.068,0.211-0.147,0.42-0.235,0.623c-0.026,0.061-0.054,0.122-0.082,0.182      c-0.021,0.044-0.018,0.038-0.019,0.041c-0.028,0.04-0.058,0.081-0.075,0.109c-0.115,0.193-0.241,0.381-0.375,0.562      c-0.068,0.091-0.14,0.178-0.21,0.268c-0.005,0.004,0-0.002-0.006,0.003c-0.386,0.317-0.725,0.669-1.132,0.966      c-0.016,0.009-0.008,0.005-0.031,0.019c-0.139,0.082-0.277,0.166-0.418,0.244c-0.247,0.136-0.501,0.259-0.757,0.376      C335.3,41.951,335.011,43.145,335.42,44.053z"/>
			</g>
		</g>
		<g>
			<g>
				<path style="fill:#FFB500;" d="M159.445,64.974c0.187-1.482,0.719-3.004,1.663-4.52c2.47-3.968,6.776-6.921,11.151-8.416      c8.005-2.735,17.134-2.771,25.376-1.2c14.001,2.669,26.417,10.493,36.958,19.822c3.265,2.89,6.446,5.876,9.544,8.945      c0.962,0.953,2.391,2.559,3.754,3.819c-9.254-3.82-18.672-7.537-28.562-9.334c-11.847-2.152-22.405,0.685-33.863,3.183      C176.293,79.272,157.635,79.309,159.445,64.974z"/>
				<path d="M250.275,84.949l-2.576-1.063c-9.427-3.892-18.697-7.531-28.461-9.304c-10.647-1.935-20.291,0.209-30.5,2.479      c-1.049,0.233-2.105,0.468-3.168,0.699c-6.008,1.311-17.724,2.11-23.528-3.199c-2.565-2.347-3.606-5.594-3.094-9.65l0,0      c0.204-1.612,0.788-3.201,1.734-4.722c2.374-3.813,6.534-6.957,11.414-8.624c7.395-2.528,16.496-2.959,25.631-1.219      c12.404,2.364,24.918,9.073,37.196,19.94c3.209,2.84,6.427,5.855,9.564,8.963c0.357,0.354,0.779,0.799,1.238,1.281      c0.776,0.816,1.655,1.741,2.503,2.526L250.275,84.949z M210.689,72.827c2.849,0,5.746,0.229,8.728,0.771      c9.052,1.644,17.652,4.863,26.334,8.407c-0.257-0.268-0.508-0.531-0.749-0.785c-0.451-0.475-0.866-0.911-1.218-1.26      c-3.124-3.095-6.328-6.098-9.523-8.926c-12.141-10.745-24.496-17.375-36.721-19.705c-8.966-1.71-17.887-1.288-25.12,1.182      c-4.664,1.595-8.633,4.586-10.888,8.208c-0.87,1.396-1.405,2.85-1.591,4.317c-0.469,3.717,0.465,6.673,2.776,8.787      c5.515,5.044,17.221,4.143,22.64,2.961c1.062-0.231,2.115-0.466,3.163-0.699C195.996,74.423,203.173,72.827,210.689,72.827z"/>
			</g>
			<g>
				<g>
					<path style="fill:#FFFFFF;" d="M166.889,65.907c0-0.001,0-0.001-0.001-0.002C166.84,65.783,166.781,65.542,166.889,65.907z"/>
				</g>
				<g>
					<path style="fill:#FFFFFF;" d="M164.235,62.747c0.983-0.159,2.062,0.423,2.241,1.468c0.082,0.48,0.186,0.957,0.325,1.424       c0.037,0.125,0.083,0.247,0.119,0.372c-0.016-0.054-0.02-0.066-0.031-0.105c0.077,0.199,0.162,0.396,0.254,0.59       c0.089,0.187,0.186,0.37,0.29,0.55c0.041,0.071,0.085,0.141,0.129,0.211c0.236,0.317,0.483,0.621,0.763,0.901       c0.055,0.055,0.112,0.108,0.168,0.162c0.144,0.116,0.288,0.232,0.438,0.341c0.334,0.241,0.684,0.459,1.045,0.657       c0.072,0.039,0.145,0.077,0.217,0.115l0,0c0.203,0.092,0.405,0.186,0.61,0.272c0.449,0.189,0.906,0.356,1.367,0.512       c0.938,0.317,1.547,1.461,1.172,2.409c-0.379,0.959-1.403,1.512-2.409,1.172c-2.011-0.68-3.936-1.623-5.452-3.137       c-1.517-1.514-2.358-3.588-2.715-5.673C162.601,64.014,163.201,62.915,164.235,62.747z"/>
				</g>
			</g>
		</g>
		<g>
			<g>
				<path style="fill:#FFB500;" d="M215.735,2.958c1.207-0.881,2.678-1.538,4.428-1.892c4.581-0.926,9.684,0.18,13.774,2.336      c7.482,3.946,13.773,10.562,18.286,17.635c7.665,12.016,10.494,26.417,10.941,40.486c0.138,4.358,0.149,8.721,0.042,13.08      c-0.033,1.353-0.221,3.495-0.202,5.351c-3.572-9.353-7.33-18.755-12.809-27.182c-6.564-10.095-15.872-15.828-25.552-22.449      C216.895,25.025,204.065,11.478,215.735,2.958z"/>
				<path d="M263.532,82.739l-0.995-2.605c-3.639-9.527-7.352-18.769-12.762-27.089c-5.9-9.072-14.075-14.614-22.73-20.482      c-0.891-0.603-1.786-1.211-2.685-1.825c-5.076-3.473-13.697-11.447-13.817-19.312c-0.053-3.476,1.594-6.461,4.897-8.872      c1.313-0.958,2.869-1.624,4.624-1.979c4.405-0.89,9.546-0.021,14.106,2.385c6.912,3.645,13.473,9.969,18.474,17.809      c6.792,10.646,10.499,24.353,11.02,40.739c0.136,4.291,0.149,8.701,0.042,13.107c-0.013,0.504-0.046,1.114-0.082,1.779      c-0.061,1.125-0.132,2.399-0.12,3.556L263.532,82.739z M223.591,1.233c-1.143,0-2.259,0.105-3.329,0.322      c-1.613,0.326-3.037,0.934-4.232,1.807l0,0c-3.025,2.208-4.535,4.916-4.487,8.048c0.114,7.472,8.803,15.369,13.382,18.501      c0.898,0.614,1.792,1.221,2.682,1.824c8.741,5.926,16.997,11.522,23.007,20.765c5.016,7.713,8.575,16.178,11.955,24.925      c0.017-0.371,0.038-0.735,0.057-1.085c0.036-0.653,0.069-1.254,0.081-1.749c0.107-4.388,0.093-8.779-0.042-13.052      c-0.515-16.204-4.17-29.74-10.863-40.233c-4.91-7.694-11.337-13.896-18.098-17.461C230.459,2.133,226.915,1.233,223.591,1.233z"/>
			</g>
			<g>
				<path style="fill:#FFFFFF;" d="M215.827,6.809c0.89-1.344,2.18-2.177,3.687-2.671c0.944-0.309,2.09,0.535,2.241,1.468      c0.179,1.107-0.457,1.91-1.468,2.241c0.469-0.154,0.077-0.025-0.031,0.022c-0.136,0.059-0.269,0.124-0.399,0.196      c-0.05,0.027-0.099,0.055-0.147,0.085c-0.009,0.006-0.005,0.004-0.016,0.012c-0.048,0.036-0.095,0.074-0.141,0.113      c-0.107,0.089-0.204,0.188-0.308,0.281c-0.008,0.007-0.003,0.001-0.01,0.007c-0.138,0.184-0.274,0.365-0.393,0.563      c-0.014,0.025-0.029,0.049-0.043,0.074c-0.038,0.09-0.099,0.207-0.111,0.236c-0.092,0.226-0.171,0.458-0.237,0.693      c-0.007,0.026-0.054,0.299-0.084,0.345c-0.001,0.003-0.001,0.007-0.002,0.01c-0.043,0.272-0.072,0.547-0.088,0.823      c-0.015,0.258-0.019,0.516-0.014,0.774c0.001,0.064,0.002,0.524,0.004,0.201c0.002-0.328,0.023,0.202,0.03,0.266      c0.061,0.515,0.16,1.026,0.296,1.526c0.033,0.123,0.069,0.246,0.107,0.368c0.019,0.061,0.038,0.121,0.058,0.181      c0.045,0.136,0.026,0.08-0.059-0.166c-0.044,0.093,0.238,0.591,0.281,0.685c0.099,0.217,0.208,0.43,0.325,0.638      c0.056,0.098,0.12,0.193,0.176,0.292c0.016,0.022,0.032,0.045,0.049,0.067c0.589,0.795,0.672,1.993-0.17,2.673      c-0.743,0.6-2.043,0.681-2.673-0.17c-1.636-2.209-2.415-5.09-2.172-7.83C214.642,9.404,215.042,7.994,215.827,6.809z"/>
			</g>
		</g>
	</g>
</g>















</svg>
