<?xml version="1.0" encoding="UTF-8"?>
<!-- Generator: Adobe Illustrator 27.1.1, SVG Export Plug-In . SVG Version: 6.00 Build 0)  -->
<svg xmlns="http://www.w3.org/2000/svg" xmlns:xlink="http://www.w3.org/1999/xlink" version="1.1" id="Capa_1" x="0px" y="0px" viewBox="0 0 511.966 511.966" style="enable-background:new 0 0 511.966 511.966;" xml:space="preserve" width="512" height="512">
<g>
	<g>
		<rect x="32.644" y="412.666" width="446.623" height="1"/>
	</g>
	<g>
		<g>
			<path style="fill:#FFFFFF;" d="M0.566,78.979l157.793,0.369c0,0,9.582-63.657-39.838-47.037c0,0-4.552-27.629-31.268-31.412     C75.405-0.778,63.389,2.843,54.785,12.527c-4.85,5.459-8.854,12.89-9.251,22.694C45.533,35.22-1.493,11.932,0.566,78.979z"/>
			<path d="M158.79,79.849L0.081,79.478l-0.015-0.483c-0.7-22.827,4.182-37.765,14.513-44.398     c11.787-7.568,27.098-1.619,30.492-0.136c0.497-8.359,3.637-15.847,9.34-22.266c8.251-9.287,20.244-13.582,32.913-11.79     c24.621,3.485,30.721,27.245,31.577,31.254c12.734-4.168,22.695-3.343,29.612,2.46c7.895,6.62,10.281,18.606,10.894,27.496     c0.66,9.581-0.541,17.727-0.554,17.808L158.79,79.849z M1.051,78.48l156.871,0.367c0.495-3.844,3.653-32.47-10.053-43.963     c-6.73-5.643-16.551-6.349-29.19-2.099l-0.557,0.188l-0.096-0.58c-0.045-0.272-4.812-27.312-30.845-30.998     c-12.319-1.743-24,2.433-32.024,11.464c-5.714,6.431-8.784,13.961-9.125,22.382l-0.031,0.768l-0.69-0.341     c-0.174-0.085-17.41-8.442-30.198-0.228C5.175,41.827,0.445,56.306,1.051,78.48z"/>
		</g>
		<g>
			<path style="fill:#FFFFFF;" d="M369.07,83.11l141.725,0.332c0,0,8.606-57.175-35.781-42.247c0,0-4.089-24.816-28.084-28.213     c-10.641-1.507-21.434,1.745-29.162,10.443c-4.356,4.903-7.953,11.577-8.309,20.383C409.458,43.807,367.221,22.89,369.07,83.11z"/>
			<path d="M511.226,83.942l-142.642-0.333l-0.015-0.483c-0.63-20.521,3.764-33.953,13.059-39.922     c10.526-6.761,24.182-1.538,27.368-0.156c0.461-7.49,3.284-14.2,8.397-19.955c7.421-8.353,18.21-12.223,29.606-10.606     c22.034,3.12,27.578,24.288,28.393,28.056c11.427-3.729,20.374-2.979,26.592,2.236c7.104,5.958,9.252,16.738,9.803,24.731     c0.594,8.611-0.486,15.933-0.498,16.006L511.226,83.942z M369.555,82.611l140.804,0.329c0.461-3.616,3.222-29.134-9.018-39.396     c-6.028-5.058-14.833-5.688-26.167-1.876l-0.557,0.188l-0.096-0.58c-0.041-0.244-4.317-24.494-27.661-27.799     c-11.056-1.562-21.523,2.181-28.718,10.28c-5.124,5.766-7.878,12.519-8.184,20.07l-0.031,0.768l-0.69-0.341     c-0.154-0.077-15.611-7.573-27.073-0.206C373.26,49.769,369.019,62.741,369.555,82.611z"/>
		</g>
		<g>
			<path style="fill:#FFFFFF;" d="M154.581,155.96l128.388,0.3c0,0,7.796-51.794-32.414-38.271c0,0-3.704-22.481-25.441-25.559     c-9.64-1.365-19.417,1.581-26.418,9.46c-3.946,4.441-7.204,10.487-7.527,18.465C191.169,120.356,152.906,101.407,154.581,155.96z     "/>
			<path d="M283.4,156.762l-129.304-0.302l-0.015-0.483c-0.571-18.608,3.416-30.79,11.851-36.207     c9.491-6.094,21.772-1.464,24.775-0.171c0.431-6.769,2.991-12.834,7.615-18.039c6.734-7.58,16.524-11.089,26.861-9.624     c19.893,2.816,24.971,21.845,25.75,25.402c10.345-3.368,18.448-2.678,24.085,2.051c6.447,5.408,8.396,15.186,8.896,22.438     c0.537,7.805-0.442,14.442-0.452,14.509L283.4,156.762z M155.068,155.462l127.464,0.298c0.433-3.419,2.867-26.362-8.157-35.606     c-5.45-4.567-13.411-5.137-23.66-1.691l-0.557,0.188l-0.096-0.58c-0.037-0.221-3.906-22.155-25.018-25.145     c-10.002-1.412-19.466,1.975-25.973,9.298c-4.635,5.216-7.125,11.323-7.402,18.152l-0.031,0.769l-0.69-0.341     c-0.14-0.07-14.12-6.848-24.479-0.189C158.424,125.783,154.589,137.505,155.068,155.462z"/>
		</g>
	</g>
	<g>
		<g>
			<g>
				<g>
					<g>
						<g>
							<path d="M328.826,222.098c9.372,16.748,18.242,33.931,28.416,50.211c8.019,12.832,22.898,36.812,41.058,30.73         c8.077-2.705,12.661-9.966,16.09-17.298c4.107-8.782,7.299-18.054,10.064-27.333c5.826-19.55,9.48-39.685,13.149-59.726         c0.978-5.344-4.38-10.322-9.296-10.662c-5.814-0.403-9.691,3.99-10.663,9.296c-3.001,16.391-6.03,32.785-10.457,48.864         c-2.234,8.116-4.813,16.146-7.893,23.982c-1.15,2.927-2.454,6.374-3.699,8.89c-0.822,1.66-2.31,3.177-3.266,4.481         c-0.709-0.794-2.442-1.728-3.022-2.269c-2.438-2.274-4.655-4.815-6.75-7.403c-4.42-5.459-8.113-11.388-11.619-17.461         c-8.207-14.216-16.07-28.64-24.087-42.964c-2.645-4.727-8.218-7.145-13.345-4.681         C328.852,210.99,326.187,217.383,328.826,222.098z"/>
						</g>
						<g>
							<g>
								<path style="fill:#FFFFFF;" d="M431.896,179.108c0,0,8.578-37.165-3.793-37.01c-9.586,0.12-12.227,36.811-12.227,36.811          s-24.797,5.622-8.041,34.335c0.74,1.268-5.45,1.494-5.505,6.2c-0.119,10.311,27.476,15.381,34.931,14.259          c5.873-0.884,7.701-9.404,2.432-10.442l-0.112,0.016c0,0,10.993-0.888,12.868-12.173c0,0,19.534-20.753-0.892-27.321          c0.112-1.191,0.226-4.176-1.539-7.171c-0.373-0.632-3.425-5.628-8.681-5.568          C437.136,171.092,433.181,174.353,431.896,179.108z"/>
								<path d="M434.886,234.345c-7.439,0-23.057-2.913-29.82-8.804c-2.172-1.892-3.26-3.944-3.234-6.104          c0.037-3.27,2.78-4.593,4.419-5.382c0.406-0.196,0.948-0.457,1.118-0.62c-5.779-9.929-7.286-18.236-4.481-24.696          c3.17-7.298,10.751-9.746,12.519-10.227c0.145-1.792,0.861-9.969,2.499-18.062c2.519-12.456,5.948-18.799,10.192-18.852          c1.799-0.033,3.29,0.684,4.43,2.099c4.796,5.951,2.231,23.321,0.711,31.373c1.938-2.749,4.907-4.489,8.093-4.526          c0.034,0,0.067-0.001,0.102-0.001c5.321,0,8.441,4.839,9.016,5.814c1.531,2.599,1.756,5.217,1.639,7.074          c5.001,1.69,8.017,4.409,8.964,8.083c2.143,8.312-6.984,18.571-8.134,19.821c-1.495,8.568-8.194,11.279-11.475,12.101          c1.215,0.809,1.9,2.203,1.861,3.924c-0.065,2.93-2.316,6.288-5.969,6.837C436.682,234.296,435.853,234.345,434.886,234.345z           M428.182,142.597c-0.023,0-0.048,0.001-0.072,0.001c-7.487,0.094-11.009,26.269-11.733,36.347l-0.027,0.369l-0.36,0.082          c-0.089,0.021-8.871,2.104-12.188,9.75c-2.673,6.164-1.17,14.187,4.467,23.846c0.167,0.286,0.143,0.54,0.093,0.703          c-0.163,0.531-0.798,0.838-1.677,1.261c-1.613,0.777-3.822,1.842-3.853,4.493c-0.022,1.853,0.951,3.647,2.891,5.337          c7.443,6.483,25.928,9.251,31.465,8.423c3.131-0.472,5.061-3.355,5.117-5.871c0.043-1.872-0.936-3.199-2.623-3.568          c-0.035,0.004-0.055,0.006-0.06,0.006l-0.002-0.019c-0.008-0.001-0.016-0.003-0.023-0.005l0.015-0.074l-0.099-0.895          l0.194-0.027l0.023,0.005c1.478-0.175,10.551-1.65,12.227-11.737l0.024-0.149l0.105-0.111          c0.102-0.107,10.098-10.855,7.997-18.999c-0.88-3.41-3.8-5.934-8.678-7.504l-0.382-0.122l0.037-0.4          c0.161-1.721,0.036-4.311-1.473-6.871c-0.526-0.893-3.378-5.322-8.155-5.322c-0.029,0-0.059,0.001-0.089,0.001          c-4.066,0.047-7.753,3.212-8.965,7.695l-0.97-0.243c0.064-0.272,6.228-27.366,0.341-34.671          C430.814,143.163,429.646,142.597,428.182,142.597z"/>
							</g>
							<g>
								<path style="fill:#FFFFFF;" d="M451.558,183.783c-1.025,5.163-3.212,11.183-7.461,14.535          c-2.324,1.834-5.179,2.426-8.05,1.707c-3.616-0.905-6.834-2.813-7.264-6.755c-0.602-5.526,1.885-11.806,4.278-16.669"/>
								<path d="M438.411,200.822c-0.819,0-1.651-0.102-2.485-0.311c-4.677-1.17-7.247-3.588-7.64-7.187          c-0.489-4.491,0.926-10.033,4.327-16.942l0.897,0.441c-3.314,6.733-4.698,12.096-4.23,16.393          c0.342,3.138,2.659,5.266,6.888,6.323c2.731,0.688,5.435,0.11,7.619-1.614c4.364-3.443,6.368-9.645,7.281-14.24l0.98,0.195          c-0.945,4.761-3.039,11.198-7.643,14.83C442.642,200.103,440.573,200.822,438.411,200.822z"/>
							</g>
							<g>
								<path style="fill:#FFFFFF;" d="M453.203,210.213c-0.64,0.365-3.219,1.395-5.855,1.07c-0.654-0.08-2.865-0.43-4.678-2.154          c-3.451-3.283-2.235-8.489-2.177-8.721"/>
								<path d="M448.384,211.845c-0.361,0-0.729-0.021-1.099-0.066c-1.096-0.134-3.197-0.61-4.961-2.288          c-3.68-3.501-2.376-8.972-2.318-9.203l0.971,0.24c-0.052,0.208-1.227,5.134,2.037,8.238c1.613,1.535,3.61,1.924,4.393,2.02          c2.555,0.316,5.062-0.732,5.548-1.008l0.494,0.869C452.948,210.934,450.808,211.845,448.384,211.845z"/>
							</g>
							<g>
								<path style="fill:#FFFFFF;" d="M415.877,178.909c3.236-0.242,6.516-0.193,9.747,0.083          c6.559,0.561,17.676,1.562,17.504,10.234c-0.169,8.504-13.168,8.321-22.074,7.599c0,0,12.213,2.208,9.845,15.872"/>
								<path d="M431.39,212.782l-0.984-0.17c2.257-13.024-8.963-15.209-9.441-15.295l0.129-0.99          c6.531,0.529,15.663,0.818,19.614-2.755c1.257-1.136,1.886-2.561,1.921-4.355c0.164-8.253-10.609-9.176-17.047-9.727          c-3.33-0.284-6.585-0.314-9.667-0.082l-0.074-0.998c3.138-0.234,6.443-0.206,9.827,0.084          c6.341,0.543,18.143,1.554,17.961,10.742c-0.041,2.057-0.798,3.766-2.25,5.078c-3.543,3.203-10.697,3.535-16.876,3.238          C428.071,199.348,432.991,203.55,431.39,212.782z"/>
							</g>
							<g>
								<path style="fill:#FFFFFF;" d="M440.276,223.227c0,0-3.368,1.5-10.343,0.311"/>
								<path d="M435.021,224.498c-1.434,0-3.155-0.123-5.172-0.467l0.168-0.986c6.707,1.142,10.024-0.261,10.058-0.274l0.405,0.914          C440.378,223.729,438.594,224.498,435.021,224.498z"/>
							</g>
							<g>
								<path style="fill:#FFFFFF;" d="M417.461,219.969c0,0-4.776-1.037-9.625-6.725"/>
								<path d="M417.355,220.458c-0.201-0.044-4.996-1.139-9.899-6.89l0.762-0.648c4.667,5.475,9.305,6.551,9.352,6.562          L417.355,220.458z"/>
							</g>
						</g>
					</g>
					<g>
						<g>
							<path d="M299.805,165.474c-3.482-3.482-10.765-4.252-14.142,0c-9.735,12.259-19.474,24.521-29.581,36.477         c-5.05,5.974-10.193,11.87-15.47,17.645c-4.657,5.097-9.349,11.24-15.097,15.144c-4.254,2.889-6,1.345-8.727-2.67         c-4.286-6.309-7.844-13.286-11.413-20.016c-7.027-13.253-13.286-26.887-18.712-40.871c-1.952-5.032-6.716-8.519-12.301-6.984         c-4.806,1.321-8.949,7.238-6.984,12.301c6.49,16.73,13.903,33.095,22.457,48.874c7.55,13.927,16.841,34.438,36.204,30.654         c8.221-1.607,14.742-7.552,20.373-13.383c6.52-6.752,12.8-13.737,18.934-20.84c11.871-13.744,23.168-27.968,34.46-42.188         C303.161,175.391,303.931,169.599,299.805,165.474z"/>
						</g>
						<g>
							<g>
								<path style="fill:#FFFFFF;" d="M163.232,145.29c-0.088,0.004-0.789-2.281-2.51-4.138c-2.588-2.793-7.51-5.529-11.241-6.582          c-3.259-0.92-6.784-0.631-9.504,1.579c-3.003,2.44-2.964,6.744-0.787,9.736c-0.363-0.148-0.9-0.329-1.571-0.444          c-0.431-0.074-0.737-0.089-0.82-0.09c-1.184-0.012-2.376,0.142-3.504,0.498c-2.631,0.832-4.602,2.94-5.46,5.497          c-0.978,2.913-0.266,5.819,0.533,8.686c-0.082,0.02-0.982,0.185-1.062,0.205c-5.575,1.396-8.176,7.013-6.55,12.449          c3.882,12.984,20.655,14.447,20.655,14.447c5.458,19.202,21.313,10.597,21.313,10.597          c5.922,10.471,16.415,4.695,27.111-13.103c10.697-17.799-7.185-16.636-7.185-16.636          C191.524,143.75,168.266,145.04,163.232,145.29z"/>
								<path d="M170.1,203.442c-0.034,0-0.067,0-0.102,0c-2.968-0.039-5.479-1.739-7.47-5.055          c-1.599,0.76-7.261,3.081-12.708,0.787c-4.077-1.716-7.036-5.611-8.797-11.582c-2.443-0.308-17.125-2.651-20.747-14.763          c-0.88-2.943-0.576-6.051,0.834-8.527c1.297-2.277,3.454-3.894,6.075-4.55c0.039-0.01,0.298-0.06,0.557-0.108          c-0.801-2.947-1.324-5.646-0.381-8.457c0.937-2.792,3.099-4.966,5.783-5.814c1.139-0.36,2.375-0.526,3.659-0.521          c0.038,0,0.377,0.007,0.9,0.097c0.121,0.021,0.242,0.044,0.362,0.07c-1.698-3.263-1.106-7.062,1.596-9.258          c2.642-2.146,6.176-2.738,9.954-1.673c4.048,1.144,8.979,4.034,11.473,6.724c1.369,1.479,2.111,3.196,2.429,3.931          c0.005,0.011,0.01,0.021,0.015,0.032c3.857-0.187,14.561-0.579,19.338,5.909c2.856,3.879,3.022,9.525,0.495,16.79          c1.966,0.002,7.227,0.36,9.424,3.967c1.855,3.044,1.006,7.567-2.525,13.444C183.068,196.858,175.913,203.442,170.1,203.442z           M162.917,197.056l0.242,0.428c1.84,3.254,4.145,4.922,6.852,4.958c0.03,0,0.061,0,0.091,0          c5.445,0,12.296-6.411,19.304-18.073c3.324-5.53,4.175-9.704,2.53-12.406c-2.352-3.866-9.188-3.478-9.255-3.473          l-0.765,0.049l0.263-0.72c2.659-7.263,2.62-12.829-0.115-16.543c-4.56-6.194-15.217-5.663-18.72-5.491l-0.091,0.004          c-0.381,0.043-0.48-0.249-0.654-0.65c-0.297-0.687-0.992-2.295-2.245-3.647c-2.383-2.572-7.116-5.341-11.01-6.441          c-3.458-0.977-6.672-0.448-9.052,1.485c-2.975,2.417-2.58,6.469-0.698,9.055l1.031,1.416l-1.624-0.659          c-0.462-0.188-0.955-0.326-1.467-0.413c-0.391-0.067-0.666-0.082-0.742-0.083c-1.189-0.025-2.311,0.147-3.348,0.475          c-2.38,0.753-4.3,2.689-5.137,5.18c-0.908,2.706-0.292,5.402,0.541,8.394l0.14,0.5l-0.505,0.12          c-0.04,0.01-0.265,0.053-0.503,0.098c-0.241,0.045-0.498,0.094-0.556,0.106c-2.352,0.589-4.286,2.036-5.447,4.074          c-1.274,2.239-1.546,5.062-0.743,7.745c3.742,12.515,20.055,14.078,20.219,14.093l0.344,0.03l0.094,0.331          c1.662,5.846,4.46,9.633,8.317,11.256c5.85,2.464,12.213-0.928,12.276-0.962L162.917,197.056z M163.232,145.29l0.008-0.061          l-0.011,0.006L163.232,145.29l-0.003-0.056L163.232,145.29z M163.208,144.791l0.002,0.035L163.208,144.791z"/>
							</g>
							<g>
								<g>
									<path d="M163.025,198.201l-0.406-0.914c2.897-1.287,5.943-4.017,9.051-8.113l0.797,0.605           C169.255,194.011,166.079,196.844,163.025,198.201z"/>
								</g>
								<g>
									<path d="M178.294,183.388l-0.748-0.664c4.081-4.604,5.254-11.615,5.817-14.984l0.988,0.152           C183.771,171.366,182.567,178.568,178.294,183.388z"/>
								</g>
							</g>
							<g>
								<g>
									<path style="fill:#00C257;" d="M112.693,172.852c-0.783,2.702-1.549,5.387-2.289,8.057c1.975,1.072,4.091,1.927,6.34,2.553           c17.135,4.77,35.196-5.924,40.33-23.904c5.134-17.98-4.609-36.414-21.743-41.184c-1.538-0.428-3.087-0.737-4.637-0.924           c-1.037,2.842-2.052,5.724-3.076,8.637c1.921,0.035,3.874,0.312,5.799,0.848c12.898,3.591,20.225,17.478,16.359,31.014           c-3.863,13.526-17.457,21.589-30.355,17.998C116.962,175.262,114.712,174.203,112.693,172.852z"/>
									<path d="M125.011,185.094c-2.787,0-5.607-0.372-8.402-1.15c-2.262-0.629-4.43-1.502-6.444-2.595l-0.35-0.189l0.106-0.384           c0.74-2.672,1.508-5.358,2.291-8.062l0.19-0.656l0.568,0.38c2.03,1.358,4.246,2.377,6.583,3.028           c12.614,3.514,25.957-4.407,29.74-17.654c1.899-6.649,1.137-13.539-2.145-19.4c-3.052-5.45-7.977-9.355-13.866-10.994           c-1.854-0.515-3.764-0.794-5.675-0.829l-0.692-0.013l0.229-0.653c1.025-2.915,2.04-5.799,3.078-8.642l0.136-0.373           l0.394,0.048c1.566,0.189,3.151,0.505,4.711,0.939c8.132,2.264,14.928,7.648,19.137,15.162           c4.512,8.054,5.561,17.515,2.954,26.642C153.191,174.975,139.554,185.094,125.011,185.094z M110.992,180.656           c1.849,0.97,3.826,1.751,5.885,2.324c16.851,4.689,34.667-5.877,39.717-23.56c2.532-8.868,1.515-18.059-2.865-25.878           c-4.078-7.279-10.659-12.496-18.532-14.688c-1.381-0.384-2.782-0.673-4.17-0.859c-0.913,2.51-1.81,5.049-2.711,7.613           c1.765,0.084,3.523,0.367,5.235,0.844c6.148,1.712,11.288,5.784,14.471,11.468c3.414,6.096,4.208,13.257,2.234,20.165           c-3.933,13.772-17.833,22.001-30.969,18.342c-2.223-0.618-4.34-1.556-6.301-2.789           C112.306,175.99,111.639,178.329,110.992,180.656z"/>
								</g>
								<g>
									<path style="fill:#00C257;" d="M68.05,87.339c-3.565,14.292-7.634,29.148-12.288,44.489           c-4.396,14.49-8.986,28.333-13.675,41.509c21.816,6.418,43.632,12.836,65.449,19.254           c3.675-14.205,7.93-29.054,12.867-44.443c4.64-14.464,9.494-28.191,14.44-41.158           C112.579,100.439,90.314,93.889,68.05,87.339z"/>
									<path d="M107.89,193.217l-0.495-0.146l-65.957-19.403l0.178-0.498c4.862-13.66,9.461-27.618,13.668-41.486           c4.444-14.649,8.576-29.609,12.281-44.464l0.126-0.506l67.812,19.949l-0.193,0.505           c-5.156,13.52-10.012,27.358-14.431,41.133c-4.69,14.62-9.018,29.563-12.859,44.416L107.89,193.217z M42.735,173.007           l64.446,18.959c3.814-14.706,8.103-29.498,12.745-43.971c4.37-13.62,9.166-27.304,14.257-40.679l-65.774-19.35           c-3.676,14.704-7.77,29.508-12.168,44.007C52.081,145.687,47.538,159.49,42.735,173.007z"/>
								</g>
								<g>
									<path style="fill:#00C257;" d="M36.391,177.582c0.214-0.67,0.902-2.653,2.291-4.222c1.923-2.172,3.662-1.845,3.926-1.749           c24.152,8.726,43.012,14.275,65.449,19.254c0.3,0.066,1.836,0.792,2.282,3.576c0.367,2.291-0.244,4.577-0.434,5.236           c-12.381-2.866-25.276-6.267-38.596-10.308C59.058,185.651,47.415,181.687,36.391,177.582z"/>
									<path d="M110.253,200.269l-0.461-0.107c-12.934-2.993-25.931-6.464-38.63-10.316c-11.718-3.556-23.476-7.524-34.947-11.796           l-0.447-0.167l0.146-0.454c0.319-0.995,1.055-2.889,2.395-4.401c2.322-2.626,4.448-1.895,4.471-1.888           c24.082,8.7,43.026,14.273,65.387,19.235c0.585,0.13,2.205,1.099,2.667,3.984c0.351,2.189-0.13,4.356-0.447,5.454           L110.253,200.269z M37.02,177.283c11.308,4.2,22.89,8.104,34.433,11.606c12.523,3.8,25.337,7.227,38.094,10.19           c0.251-1.005,0.579-2.804,0.297-4.561c-0.428-2.675-1.883-3.163-1.897-3.167c-22.403-4.972-41.383-10.555-65.509-19.271           c-0.015-0.006-1.551-0.458-3.382,1.609C38.016,174.866,37.371,176.312,37.02,177.283z"/>
								</g>
								<g>
									<path style="fill:#00C257;" d="M65.863,95.694l66.68,18.42c1.024,0.283,2.086-0.304,2.371-1.311l2.811-9.92           c0.285-1.007-0.314-2.053-1.338-2.336l-66.68-18.42c-1.024-0.283-2.086,0.304-2.371,1.311l-2.811,9.92           C64.24,94.365,64.839,95.411,65.863,95.694z"/>
									<path d="M133.062,114.684c-0.216,0-0.434-0.029-0.652-0.09L65.73,96.176c-0.63-0.174-1.151-0.58-1.47-1.145           c-0.312-0.556-0.39-1.198-0.217-1.81l2.812-9.921c0.36-1.27,1.705-2.011,2.985-1.655l66.68,18.418           c0.63,0.175,1.152,0.582,1.47,1.146c0.312,0.555,0.39,1.197,0.217,1.809l-2.811,9.92           C135.096,113.992,134.121,114.683,133.062,114.684z M69.186,82.555c-0.623,0-1.194,0.403-1.368,1.019l-2.812,9.92           c-0.101,0.353-0.056,0.725,0.126,1.047c0.186,0.33,0.492,0.568,0.863,0.67l66.68,18.42c0.757,0.21,1.547-0.223,1.758-0.966           l2.811-9.92c0.101-0.353,0.056-0.724-0.125-1.045c-0.186-0.331-0.493-0.569-0.864-0.673l-66.68-18.418           C69.445,82.573,69.314,82.555,69.186,82.555z"/>
								</g>
								<g>
									<g>
										
											<rect x="72.608" y="147.974" transform="matrix(0.2892 -0.9573 0.9573 0.2892 -66.7392 207.0705)" width="66.903" height="1"/>
									</g>
									<g>
										
											<rect x="52.631" y="142.791" transform="matrix(0.2892 -0.9573 0.9573 0.2892 -75.9796 184.2573)" width="66.902" height="1"/>
									</g>
									<g>
										
											<rect x="32.653" y="137.608" transform="matrix(0.2892 -0.9573 0.9573 0.2892 -85.2187 161.4494)" width="66.902" height="1"/>
									</g>
								</g>
								<g>
									<path style="fill:#FFFFFF;" d="M89.425,66.021c3.099,0.828,5.755,2.496,7.808,4.734c3.678-3.326,8.768-4.753,13.676-3.441           c5.759,1.539,9.693,6.42,10.524,12.162c2.515-0.764,5.239-0.909,7.926-0.191c7.898,2.111,12.386,10.576,10.049,18.878           c-0.472,1.676-1.203,3.227-2.124,4.614c-0.758-0.766-1.719-1.332-2.843-1.633L94.2,90.671l-5.361,19.051           c-0.573,2.037-2.767,3.226-4.9,2.656c-2.133-0.57-3.397-2.684-2.824-4.72l5.347-19l-2.318-0.603l-1.767,6.279           c-0.573,2.037-2.767,3.226-4.899,2.656c-2.133-0.57-3.397-2.684-2.824-4.72l1.753-6.228l-6.224-1.62           c-1.097-0.293-2.227-0.257-3.225,0.039c-0.017-1.722,0.223-3.517,0.717-5.271C70.417,69.445,80.156,63.543,89.425,66.021z"/>
									<path d="M85.015,113.019c-0.397,0-0.802-0.051-1.204-0.158c-1.193-0.319-2.179-1.071-2.774-2.118           c-0.564-0.992-0.708-2.136-0.402-3.222l5.209-18.509l-1.35-0.352l-1.634,5.807c-0.646,2.295-3.116,3.644-5.51,3.004           c-1.193-0.319-2.179-1.071-2.774-2.118c-0.564-0.992-0.708-2.136-0.402-3.221l1.615-5.737l-5.731-1.492           c-0.963-0.256-2.013-0.246-2.956,0.035l-0.636,0.188l-0.007-0.663c-0.017-1.796,0.23-3.617,0.735-5.412           C70.006,69.057,80.038,63,89.554,65.537l0,0c2.939,0.787,5.596,2.347,7.711,4.524c3.878-3.302,8.988-4.51,13.773-3.23           c5.554,1.484,9.74,6.165,10.799,12.011c2.563-0.679,5.197-0.695,7.651-0.04c3.794,1.015,6.976,3.49,8.958,6.973           c2.145,3.766,2.657,8.214,1.444,12.525c-0.473,1.68-1.209,3.279-2.188,4.754l-0.34,0.512l-0.433-0.437           c-0.716-0.723-1.597-1.229-2.616-1.501l-39.766-10.35l-5.228,18.579C88.784,111.765,86.983,113.019,85.015,113.019z            M83.796,87.446l3.285,0.855l-5.484,19.491c-0.232,0.825-0.123,1.697,0.309,2.455c0.463,0.812,1.23,1.397,2.163,1.646           c1.864,0.499,3.79-0.537,4.289-2.309l5.493-19.522l40.718,10.598c0.989,0.265,1.866,0.716,2.616,1.345           c0.766-1.249,1.352-2.584,1.743-3.977c1.141-4.052,0.66-8.229-1.351-11.76c-1.849-3.247-4.813-5.556-8.347-6.5           c-2.451-0.654-5.097-0.591-7.651,0.187l-0.557,0.169l-0.084-0.576c-0.827-5.71-4.814-10.322-10.158-11.75           c-4.606-1.234-9.545,0.013-13.213,3.328L97.2,71.459l-0.335-0.366c-2.039-2.223-4.656-3.81-7.568-4.589           c-8.988-2.406-18.475,3.348-21.14,12.819c-0.421,1.493-0.653,3.004-0.693,4.501c0.94-0.176,1.913-0.137,2.849,0.112           l6.715,1.748l-1.891,6.72c-0.232,0.825-0.123,1.696,0.309,2.454c0.462,0.812,1.23,1.397,2.163,1.646           c1.867,0.501,3.79-0.536,4.289-2.309L83.796,87.446z"/>
								</g>
							</g>
							<g>
								<g>
									<g>
										<path style="fill:#FFFFFF;" d="M128.695,176.666c0,0,22.429,7.368,22.769-2.903c0.344-10.422-23.095-13.73-23.095-13.73"/>
										<path d="M142.913,179.726c-6.401,0-13.931-2.439-14.374-2.585l0.312-0.949c0.149,0.049,14.956,4.846,20.281,1.121            c1.181-0.826,1.779-1.992,1.831-3.566c0.326-9.859-22.435-13.186-22.665-13.219l0.141-0.99            c0.975,0.138,23.88,3.495,23.524,14.242c-0.062,1.884-0.822,3.349-2.258,4.353            C148.025,179.307,145.565,179.726,142.913,179.726z"/>
									</g>
									<g>
										<path style="fill:#FFFFFF;" d="M133.405,161.055c16.382,3.934,18.311,12.57,18.311,12.57            c22.362-13.272-13.006-27.962-13.006-27.962c11.766,4.882,16.947,10.836,16.947,10.836            c18.817-11.583-2.487-23.612-12.143-22.146"/>
										<path d="M151.383,174.404l-0.154-0.669c-0.02-0.083-2.109-8.393-17.941-12.194l0.234-0.973            c14.086,3.383,17.679,10.163,18.479,12.299c4.622-2.871,6.846-6.001,6.61-9.309c-0.658-9.258-19.898-17.354-20.092-17.434            l0.383-0.924c0.002,0.001,0.003,0.001,0.005,0.002c10.339,4.291,15.588,9.342,16.838,10.652            c5.682-3.598,7.931-7.548,6.504-11.44c-2.176-5.938-12.523-10.503-18.658-9.567l-0.15-0.988            c7.809-1.185,17.745,4.747,19.748,10.212c1.123,3.065,0.82,7.719-6.86,12.599c1.838,2.108,3.11,4.41,3.281,6.817            c0.272,3.843-2.297,7.398-7.638,10.567L151.383,174.404z"/>
									</g>
								</g>
								<g>
									<path style="fill:#FFFFFF;" d="M183.91,168.022c1.584-6.006,1.017-11.049,0.372-13.44           c-1.643-6.096-7.333-8.919-15.424-9.59c-10.583-0.878-15.872,0.563-20.941,2.012c-3.615,1.034-6.331,4.293-6.171,7.996           c0.461,10.669,23.054,10.201,23.054,10.201s-12.881,14.677,7.003,19.081"/>
									<path d="M171.696,184.77c-6.193-1.372-9.929-3.888-11.104-7.477c-1.52-4.646,1.702-9.646,3.167-11.591           c-4.574-0.051-22.088-0.885-22.512-10.682c-0.164-3.795,2.584-7.368,6.533-8.497c4.804-1.374,10.249-2.937,21.119-2.03           c8.946,0.741,14.284,4.092,15.865,9.958c0.792,2.938,1.11,8.079-0.372,13.698l-0.967-0.256           c1.432-5.429,1.132-10.369,0.374-13.183c-1.481-5.492-6.382-8.508-14.982-9.222c-10.692-0.886-16.042,0.645-20.762,1.995           c-3.511,1.004-5.953,4.154-5.809,7.493c0.434,10.065,22.333,9.727,22.543,9.723l1.134-0.023l-0.747,0.854           c-0.054,0.061-5.356,6.196-3.634,11.454c1.059,3.229,4.547,5.52,10.369,6.809L171.696,184.77z"/>
								</g>
							</g>
						</g>
					</g>
				</g>
				<g>
					<g>
						<g>
							<path d="M330.686,429.812c-0.286-0.918-0.684-1.808-1.208-2.635l-3.391-7.399l-17.531,8.101         c-12.501,5.323-25.982,8.28-39.17,11.136c-13.954,3.022-33.493,5.754-39.747-12.664c-3.906-11.504,2.84-40.483,8.721-52.554         l-18.127-10.061c-6.713,16.934-12.76,61.109-2.732,77.231c10.832,17.414,29.293,20.744,46.981,17.859         c18.395-2.999,37.293-7.373,54.383-15.298c-3.509,14.395-3.232,37.876,35.711,38.415L330.686,429.812z"/>
							<path d="M355.362,482.455l-0.791-0.011c-15.699-0.218-26.651-4.191-32.551-11.811c-6.19-7.993-5.609-18.486-3.874-26.225         c-14.438,6.564-31.503,11.311-53.583,14.911c-27.187,4.435-40.829-7.39-47.485-18.089         c-10.086-16.214-4.283-60.087,2.691-77.68l0.21-0.529l19.039,10.568l-0.208,0.426c-6.146,12.616-12.487,41.009-8.696,52.174         c5.803,17.088,23.055,15.825,39.168,12.337c12.395-2.686,26.443-5.729,39.078-11.107l17.973-8.306l3.6,7.855         c0.492,0.768,0.913,1.685,1.221,2.664L355.362,482.455z M319.597,442.637l-0.246,1.009         c-1.853,7.602-2.757,18.347,3.46,26.376c5.605,7.238,16.026,11.075,30.98,11.407l-23.583-51.469         c-0.282-0.907-0.67-1.755-1.152-2.517l-3.214-7.002l-17.076,7.892c-12.736,5.423-26.834,8.477-39.273,11.17         c-16.542,3.583-34.272,4.84-40.326-12.991c-3.821-11.256,2.388-39.541,8.539-52.507l-17.214-9.555         c-6.643,17.355-12.227,60.72-2.564,76.253c6.494,10.44,19.824,21.972,46.476,17.63c22.463-3.663,39.702-8.512,54.253-15.259         L319.597,442.637z"/>
						</g>
					</g>
					<g>
						<g>
							<path d="M292.846,379.213c-21.991,27.791-48.701,74.879-61.512,109.134c-0.156,0.417-0.227,0.815-0.325,1.219         c-7.138-13.193-23.349-31.53-50.506-1.683l61.221,23.43c0,0,5.695-15.145,6.132-16.311         c14.038-37.535,37.863-83.546,63.918-112.534L292.846,379.213z"/>
							<path d="M242.015,511.96l-62.374-23.871l0.492-0.542c10.75-11.815,20.86-17.242,30.023-16.122         c9.771,1.189,16.564,9.559,20.686,16.81c0.008-0.021,0.015-0.041,0.022-0.061c12.71-33.984,39.188-80.96,61.59-109.27         l0.184-0.233l20.113,3.459l-0.605,0.673c-27.518,30.616-51.012,78.123-63.821,112.374         c-0.436,1.167-6.133,16.312-6.133,16.312L242.015,511.96z M181.369,487.679l60.064,22.987         c0.965-2.566,5.564-14.796,5.954-15.84c12.749-34.088,36.06-81.28,63.412-112.019l-17.745-3.052         c-22.307,28.264-48.608,74.959-61.252,108.766c-0.11,0.296-0.174,0.581-0.238,0.867l-0.375,1.56l-0.619-1.146         c-3.935-7.27-10.691-16.189-20.533-17.387C201.344,471.359,191.701,476.494,181.369,487.679z"/>
						</g>
					</g>
				</g>
			</g>
			<g>
				<g>
					<path style="fill:#FFB500;" d="M321.317,96.509c0,0-72.249-26.555,2.45-95.764C323.767,0.745,389.486,69.381,321.317,96.509z"/>
					<path d="M321.324,97.045l-0.18-0.065c-0.264-0.098-26.488-9.98-31.043-32.741c-3.695-18.463,7.518-39.948,33.326-63.86       l0.36-0.334l0.341,0.356c0.344,0.359,34.316,36.266,27.791,66.269c-2.876,13.222-13.11,23.419-30.418,30.307L321.324,97.045z        M323.742,1.451c-25.274,23.52-36.263,44.574-32.661,62.585c4.246,21.239,27.943,31.037,30.233,31.937       c16.87-6.756,26.837-16.686,29.628-29.518C357.009,38.563,327.268,5.274,323.742,1.451z"/>
				</g>
				<g>
					<path style="fill:#FFB500;" d="M319.416,112.783c0,0,19.791-45.568-68.316-65.871       C251.101,46.912,249.584,126.508,319.416,112.783z"/>
					<path d="M304.115,114.871c-12.502,0-23.042-3.545-31.457-10.604c-22.525-18.892-22.063-56.982-22.057-57.365l0.012-0.616       l0.601,0.139c35.297,8.134,57.704,21.197,66.599,38.826c7.495,14.854,2.118,27.604,2.063,27.731l-0.104,0.241l-0.258,0.05       C314.092,114.339,308.957,114.871,304.115,114.871z M251.601,47.541c0.042,4.986,1.111,38.697,21.702,55.964       c11.378,9.54,26.772,12.513,45.749,8.84c0.682-1.791,4.589-13.345-2.145-26.667C308.196,68.44,286.224,55.61,251.601,47.541z"/>
				</g>
				<g>
					<path style="fill:#FFB500;" d="M320.179,113.74c0,0-11.986-48.933,77.918-50.384C398.097,63.356,386.553,141.89,320.179,113.74       z"/>
					<path d="M346.802,120.329c-8.227,0-17.185-2.043-26.818-6.129l-0.23-0.098l-0.06-0.243c-0.034-0.14-3.287-14.051,6.852-27.19       c11.748-15.225,35.818-23.236,71.543-23.813l0.588-0.01l-0.085,0.582c-0.056,0.374-5.784,37.546-30.706,51.548       C361.534,118.545,354.488,120.329,346.802,120.329z M320.614,113.381c18.233,7.678,33.971,7.922,46.782,0.723       c22.798-12.808,29.276-45.466,30.109-50.237c-35.072,0.65-58.68,8.526-70.168,23.413       C318.214,99.103,320.24,111.512,320.614,113.381z"/>
				</g>
				<g>
					<path style="fill:#FFB500;" d="M312.372,160.634c0,0,19.791-45.568-68.316-65.871       C244.056,94.763,242.539,174.359,312.372,160.634z"/>
					<path d="M297.071,162.721c-12.502,0-23.042-3.545-31.458-10.604c-22.524-18.892-22.063-56.982-22.057-57.365l0.012-0.616       l0.601,0.139c35.298,8.134,57.705,21.197,66.6,38.826c7.495,14.853,2.118,27.604,2.064,27.731l-0.104,0.241l-0.258,0.05       C307.048,162.189,301.913,162.721,297.071,162.721z M244.556,95.391c0.042,4.986,1.111,38.697,21.703,55.964       c11.378,9.54,26.77,12.513,45.749,8.84c0.682-1.791,4.589-13.345-2.145-26.667C301.152,116.291,279.18,103.461,244.556,95.391z       "/>
				</g>
				<g>
					<path style="fill:#FFB500;" d="M313.135,161.591c0,0-11.986-48.933,77.918-50.384       C391.053,111.206,379.509,189.741,313.135,161.591z"/>
					<path d="M339.758,168.179c-8.226,0-17.185-2.043-26.818-6.129l-0.23-0.098l-0.06-0.243c-0.034-0.14-3.287-14.051,6.853-27.19       c11.748-15.225,35.818-23.236,71.543-23.813l0.588-0.01l-0.085,0.582c-0.056,0.374-5.784,37.546-30.706,51.548       C354.49,166.395,347.445,168.179,339.758,168.179z M313.57,161.231c18.232,7.677,33.973,7.921,46.782,0.724       c22.798-12.808,29.276-45.466,30.109-50.237c-35.072,0.65-58.68,8.526-70.168,23.413       C311.17,146.954,313.196,159.362,313.57,161.231z"/>
				</g>
				<g>
					<path style="fill:#FFB500;" d="M301.363,207.924c0,0,22.56-44.474-66.184-69.032       C235.179,138.893,229.464,218.195,301.363,207.924z"/>
					<path d="M289.105,209.341c-14.531,0-26.4-4.218-35.391-12.602c-21.496-20.042-19.062-57.507-19.035-57.883l0.044-0.608       l0.589,0.163c35.768,9.897,57.97,24.127,65.988,42.292c6.638,15.039,0.57,27.325,0.509,27.448l-0.118,0.232l-0.258,0.037       C297.133,209.034,293.022,209.341,289.105,209.341z M235.645,139.541c-0.217,4.92-0.893,38.156,18.754,56.471       c11.132,10.377,26.814,14.23,46.626,11.456c0.777-1.729,5.311-12.905-0.65-26.385       C292.518,163.318,270.74,149.343,235.645,139.541z"/>
				</g>
				<g>
					<path style="fill:#FFB500;" d="M302.09,208.916c0,0-9.655-49.385,82.06-46.433C384.15,162.483,368.271,240.236,302.09,208.916z       "/>
					<path d="M331.305,216.849c-9.057,0-18.893-2.496-29.429-7.481l-0.228-0.108l-0.048-0.248       c-0.027-0.138-2.565-13.893,8.074-26.397c12.654-14.873,37.735-21.806,74.492-20.631l0.593,0.02l-0.118,0.58       c-0.075,0.367-7.784,36.799-33.606,49.71C344.958,215.331,338.37,216.849,331.305,216.849z M302.541,208.576       c18.36,8.632,34.522,9.582,48.042,2.824c23.607-11.8,31.848-43.726,32.947-48.436c-36.113-1.088-60.696,5.743-73.079,20.279       C300.889,194.468,302.262,206.705,302.541,208.576z"/>
				</g>
				<g>
					<path style="fill:#FFB500;" d="M295.977,256.947c0,0,22.56-44.474-66.184-69.032       C229.793,187.915,224.078,267.217,295.977,256.947z"/>
					<path d="M283.719,258.363c-14.531,0-26.4-4.218-35.391-12.602c-21.496-20.042-19.061-57.507-19.035-57.883l0.044-0.608       l0.589,0.163c35.768,9.898,57.97,24.126,65.987,42.291c6.639,15.039,0.571,27.326,0.51,27.449l-0.118,0.231l-0.258,0.037       C291.747,258.056,287.636,258.363,283.719,258.363z M230.259,188.563c-0.217,4.92-0.893,38.156,18.754,56.471       c11.132,10.377,26.814,14.231,46.626,11.456c0.777-1.729,5.311-12.905-0.65-26.386       C287.132,212.34,265.354,198.365,230.259,188.563z"/>
				</g>
				<g>
					<path style="fill:#FFB500;" d="M296.704,257.938c0,0-9.655-49.385,82.06-46.433       C378.764,211.505,362.885,289.258,296.704,257.938z"/>
					<path d="M325.919,265.872c-9.057,0-18.894-2.496-29.429-7.481l-0.229-0.108l-0.048-0.248       c-0.027-0.138-2.565-13.893,8.074-26.397c12.653-14.873,37.734-21.808,74.491-20.631l0.593,0.02l-0.118,0.58       c-0.075,0.367-7.783,36.799-33.605,49.71C339.573,264.353,332.984,265.872,325.919,265.872z M297.155,257.598       c18.365,8.633,34.528,9.584,48.047,2.822c23.611-11.806,31.845-43.725,32.942-48.434c-36.137-1.085-60.717,5.75-73.094,20.298       C295.492,243.518,296.874,255.729,297.155,257.598z"/>
				</g>
				<g>
					<path style="fill:#FFB500;" d="M285.603,302.654c0,0,25.542-45.017-65.208-73.875       C220.395,228.78,210.608,310.415,285.603,302.654z"/>
					<path d="M275.928,303.673c-16.54,0-29.699-4.871-39.211-14.539c-21.203-21.549-16.865-60.027-16.818-60.413l0.071-0.6       l0.576,0.183c36.518,11.612,58.813,27.147,66.269,46.175c6.198,15.82-0.707,28.298-0.777,28.423l-0.127,0.224l-0.256,0.026       C282.294,303.499,279.049,303.673,275.928,303.673z M220.83,229.444c-0.215,2.289-0.852,10.822,0.425,21.192       c1.37,11.137,5.289,26.733,16.179,37.799c11.036,11.214,27.138,15.835,47.853,13.749c0.876-1.723,6.172-13.143,0.589-27.365       C278.565,256.199,256.68,240.933,220.83,229.444z"/>
				</g>
				<g>
					<path style="fill:#FFB500;" d="M286.308,303.707c0,0-7.595-51.359,87.285-44.688       C373.593,259.019,353.351,338.653,286.308,303.707z"/>
					<path d="M318.119,313.071c-9.925,0-20.638-2.977-32.042-8.921l-0.226-0.118l-0.037-0.252       c-0.021-0.143-1.971-14.371,9.569-26.831c13.808-14.908,40.135-21.102,78.245-18.429l0.597,0.042l-0.147,0.58       c-0.096,0.376-9.872,37.732-37.299,50.002C330.927,311.762,324.696,313.071,318.119,313.071z M286.774,303.386       c18.579,9.624,35.262,11.256,49.593,4.849c25.119-11.236,35.229-43.986,36.583-48.758       c-37.454-2.549-63.293,3.551-76.816,18.134C285.743,288.815,286.578,301.466,286.774,303.386z"/>
				</g>
				<g>
					<path style="fill:#FFB500;" d="M269.743,347.264c0,0,28.253-43.61-60.855-76.752       C208.887,270.513,194.217,351.364,269.743,347.264z"/>
					<path d="M264.321,347.915c-18.692,0-33.061-5.561-42.769-16.568c-19.851-22.507-13.227-60.542-13.157-60.923l0.106-0.588       l0.56,0.208c35.774,13.306,57.15,29.819,63.532,49.084c5.344,16.126-2.353,28.288-2.431,28.408l-0.139,0.214l-0.254,0.014       C267.915,347.864,266.097,347.915,264.321,347.915z M209.283,271.193c-0.35,2.258-1.497,10.714-0.845,21.097       c0.7,11.14,3.674,26.844,13.867,38.398c10.375,11.762,26.251,17.175,47.146,16.091c0.977-1.666,7.003-12.85,2.185-27.36       C265.377,300.568,244.4,284.345,209.283,271.193z"/>
				</g>
				<g>
					<path style="fill:#FFB500;" d="M270.386,348.347c0,0-4.535-51.533,90.033-40.292       C360.418,308.054,335.402,386.406,270.386,348.347z"/>
					<path d="M304.042,359.274c-10.621,0-21.966-3.505-33.909-10.496l-0.223-0.131l-0.023-0.257       c-0.013-0.143-1.109-14.347,11.093-26.182c14.686-14.245,41.435-19.176,79.496-14.65l0.602,0.071l-0.184,0.577       c-0.119,0.371-12.169,37.213-40.438,48.05C315.208,358.269,309.728,359.274,304.042,359.274z M270.87,348.05       c17.97,10.458,34.529,12.906,49.225,7.275c25.889-9.921,38-42.128,39.65-46.846c-37.423-4.362-63.688,0.498-78.068,14.448       C270.701,333.572,270.786,346.121,270.87,348.05z"/>
				</g>
				<g>
					<path style="fill:#FFB500;" d="M249.365,392.314c0,0,32.11-41.299-54.101-80.598       C195.264,311.716,173.454,390.983,249.365,392.314z"/>
					<path d="M249.606,392.818l-0.25-0.004c-21.517-0.377-37.277-7.052-46.844-19.837c-17.797-23.784-7.833-61.021-7.73-61.394       l0.156-0.565l0.533,0.243c34.465,15.71,54.371,33.565,59.167,53.069c4.066,16.534-4.789,28.175-4.879,28.29L249.606,392.818z        M195.6,312.42c-0.546,2.198-2.441,10.509-2.709,20.868c-0.286,11.098,1.289,26.888,10.424,39.094       c9.334,12.472,24.743,19.008,45.8,19.428c1.118-1.576,8.22-12.367,4.547-27.262C248.957,345.466,229.423,327.929,195.6,312.42z       "/>
				</g>
				<g>
					<path style="fill:#FFB500;" d="M249.913,393.435c0,0,0.011-51.516,93.616-33.584       C343.529,359.852,311.59,435.895,249.913,393.435z"/>
					<path d="M286.034,406.823c-11.665,0-23.857-4.338-36.404-12.976l-0.217-0.149v-0.263c0-0.142,0.155-14.263,13.309-25.134       c15.931-13.164,43.15-16.173,80.901-8.941l0.606,0.116l-0.239,0.568c-0.152,0.362-15.541,36.292-44.931,44.906       C294.801,406.199,290.454,406.823,286.034,406.823z M250.42,393.178c16.96,11.607,33.226,15.245,48.354,10.815       c26.913-7.887,41.954-39.155,44.043-43.769c-37.125-7.022-63.855-4.046-79.459,8.849       C251.535,378.845,250.508,391.243,250.42,393.178z"/>
				</g>
				<g>
					<path style="fill:#FFB500;" d="M312.146,160.346c0,0-56.272-31.715,14.292-100.401       C326.438,59.945,373.49,133.136,312.146,160.346z"/>
					<path d="M312.12,160.905l-0.219-0.123c-0.184-0.104-18.37-10.583-21.152-31.97c-2.668-20.512,9.223-43.803,35.341-69.225       l0.439-0.427l0.331,0.515c0.246,0.383,24.522,38.676,15.147,69.98c-4.123,13.769-14.101,24.248-29.656,31.148L312.12,160.905z        M326.341,60.738c-25.564,25.016-37.205,47.868-34.603,67.932c2.548,19.642,18.408,29.88,20.44,31.114       c15.141-6.776,24.853-17.007,28.868-30.412C349.7,100.486,329.202,65.421,326.341,60.738z"/>
				</g>
				<g>
					<path style="fill:#FFB500;" d="M302.811,209.487c0,0-54.689-33.139,15.494-83.78       C318.305,125.707,363.344,193.092,302.811,209.487z"/>
					<path d="M302.735,210.026l-0.183-0.111c-0.197-0.119-19.692-12.162-20.507-32.453c-0.679-16.901,11.423-34.45,35.967-52.16       l0.421-0.304l0.288,0.431c0.235,0.353,23.447,35.544,13.84,61.179c-4.245,11.329-14.211,19.189-29.619,23.362L302.735,210.026z        M318.171,126.421c-23.966,17.394-35.783,34.547-35.127,50.992c0.747,18.723,17.897,30.28,19.848,31.534       c14.959-4.099,24.626-11.732,28.732-22.69C340.48,162.627,320.793,130.528,318.171,126.421z"/>
				</g>
				<g>
					<path style="fill:#FFB500;" d="M293.001,259.99c0,0-54.689-33.139,15.494-83.78       C308.496,176.209,353.534,243.594,293.001,259.99z"/>
					<path d="M292.925,260.529l-0.183-0.111c-0.197-0.119-19.692-12.162-20.507-32.454c-0.679-16.9,11.422-34.45,35.967-52.16       l0.421-0.304l0.288,0.431c0.235,0.353,23.446,35.545,13.84,61.181c-4.246,11.328-14.211,19.188-29.619,23.361L292.925,260.529z        M308.362,176.923c-23.971,17.396-35.787,34.554-35.127,51.001c0.752,18.731,17.898,30.274,19.848,31.526       c14.959-4.099,24.626-11.732,28.732-22.69C330.67,213.13,310.984,181.03,308.362,176.923z"/>
				</g>
				<g>
					<path style="fill:#FFB500;" d="M285.829,308.468c0,0-54.689-33.139,15.494-83.78       C301.324,224.688,346.362,292.073,285.829,308.468z"/>
					<path d="M285.753,309.007l-0.183-0.111c-0.197-0.119-19.692-12.161-20.507-32.453c-0.679-16.9,11.422-34.449,35.967-52.16       l0.421-0.304l0.288,0.431c0.235,0.353,23.446,35.545,13.84,61.18c-4.246,11.328-14.211,19.189-29.619,23.361L285.753,309.007z        M301.19,225.401c-23.971,17.396-35.788,34.554-35.127,51.001c0.752,18.731,17.898,30.273,19.848,31.525       c14.958-4.099,24.624-11.73,28.731-22.688C323.497,261.617,303.812,229.51,301.19,225.401z"/>
				</g>
				<g>
					<path style="fill:#FFB500;" d="M268.733,354.494c0,0-49.964-38.849,27.077-80.927       C295.81,273.566,331.396,345.122,268.733,354.494z"/>
					<path d="M268.595,355.02l-0.169-0.132c-0.177-0.137-17.616-13.94-16.02-33.739c1.369-16.97,15.892-33.126,43.164-48.022       l0.456-0.249l0.23,0.465c0.184,0.369,18.217,37.204,5.594,61.426c-5.729,10.994-16.847,17.797-33.044,20.219L268.595,355.02z        M295.587,274.259c-26.655,14.649-40.847,30.448-42.183,46.963c-1.477,18.236,13.712,31.299,15.471,32.745       c15.745-2.4,26.541-9.015,32.089-19.659C312.588,312.003,297.632,278.608,295.587,274.259z"/>
				</g>
				<g>
					<path style="fill:#FFB500;" d="M247.306,399.403c0,0-46.964-41.793,33.403-78.768       C280.709,320.635,310.738,394.044,247.306,399.403z"/>
					<path d="M247.134,399.92l-0.16-0.144c-0.164-0.146-16.352-14.805-13.457-34.221c2.524-16.927,18.331-32.193,46.983-45.375       l0.475-0.219l0.197,0.483c0.153,0.376,15.223,37.889,0.962,61.194c-6.561,10.722-18.264,16.866-34.786,18.262L247.134,399.92z        M280.437,321.311c-28.021,12.98-43.474,27.914-45.931,44.392c-2.665,17.874,11.332,31.638,12.977,33.184       c16.071-1.403,27.442-7.381,33.799-17.769C294.406,359.669,282.146,325.77,280.437,321.311z"/>
				</g>
			</g>
			<g>
				<g>
					<g>
						<g>
							<g>
								<path style="fill:#FFFFFF;" d="M319.298,177.927c5.058-19.389,15.68-34.632,26.787-40.33          c4.335-2.215,8.725-2.977,12.915-1.97c14.898,3.582,21.278,28.329,14.25,55.27c-7.028,26.941-24.803,45.881-39.701,42.299          c-3.965-0.953-7.323-3.398-9.975-6.969C316.211,216.323,314.135,197.721,319.298,177.927z"/>
								<path d="M337.211,234.126c-1.274,0-2.536-0.145-3.779-0.443c-3.993-0.96-7.445-3.368-10.26-7.157          c-7.675-10.324-9.386-29.45-4.357-48.725l0,0c4.974-19.068,15.336-34.643,27.042-40.648          c4.593-2.346,9.054-3.021,13.261-2.011c4.675,1.124,8.729,4.362,11.727,9.365c6.456,10.773,7.564,28.598,2.889,46.517          C367.23,215.955,351.462,234.126,337.211,234.126z M319.782,178.053c-4.953,18.993-3.308,37.786,4.193,47.877          c2.671,3.596,5.932,5.877,9.691,6.78c1.18,0.284,2.381,0.422,3.591,0.422c13.785,0.002,29.121-17.873,35.51-42.36          c4.608-17.669,3.544-35.199-2.779-45.751c-2.856-4.767-6.696-7.847-11.104-8.906c-3.97-0.957-8.199-0.306-12.57,1.929          C335.026,143.832,324.612,159.537,319.782,178.053L319.782,178.053z"/>
							</g>
							<g>
								<path d="M323.574,226.227c14.458,1.856,30.588-14.69,36.71-38.159c0.201-0.77,0.387-1.539,0.563-2.305l-22.268-6.61          l23.953-5.012c1.112-18.022-5.198-32.947-16.446-36.544c-11.107,5.698-21.729,20.941-26.787,40.33          C314.135,197.721,316.211,216.323,323.574,226.227z"/>
								<path d="M325.789,226.868c-0.764,0-1.522-0.048-2.278-0.145l-0.211-0.027l-0.127-0.171          c-7.675-10.324-9.386-29.45-4.357-48.725c4.974-19.068,15.336-34.643,27.042-40.648l0.185-0.094l0.196,0.062          c11.19,3.579,17.939,18.468,16.792,37.051l-0.023,0.38l-22.388,4.686l20.819,6.18l-0.104,0.457          c-0.176,0.771-0.363,1.545-0.566,2.32C354.952,210.49,339.92,226.868,325.789,226.868z M323.848,225.758          c14.228,1.647,29.976-14.907,35.952-37.816c0.159-0.613,0.311-1.224,0.453-1.834l-23.715-7.039l25.516-5.34          c0.998-17.829-5.37-32.067-15.925-35.592c-11.217,5.865-21.544,21.5-26.348,39.915          C314.856,196.938,316.457,215.626,323.848,225.758z"/>
							</g>
						</g>
					</g>
					<g>
						<g>
							<g>
								<path style="fill:#FFFFFF;" d="M241.194,165.13c3.299-19.811,12.52-36.133,23.085-43.035          c4.124-2.685,8.435-3.935,12.704-3.405c15.181,1.882,23.772,25.727,19.189,53.254c-4.584,27.528-20.608,48.322-35.789,46.44          c-4.04-0.501-7.61-2.55-10.576-5.797C241.571,203.585,237.826,185.356,241.194,165.13z"/>
								<path d="M262.281,219.002c-0.654,0-1.308-0.04-1.96-0.121c-4.071-0.505-7.733-2.509-10.884-5.956          c-8.587-9.387-12.017-28.18-8.736-47.877l0,0c3.245-19.481,12.175-36.101,23.306-43.372          c4.368-2.843,8.755-4.013,13.038-3.482c4.75,0.589,9.078,3.334,12.516,7.938c7.438,9.963,10.16,27.549,7.105,45.895          C292.241,198.598,277.099,219.002,262.281,219.002z M241.687,165.212c-3.231,19.405,0.101,37.869,8.488,47.038          c2.985,3.267,6.44,5.164,10.269,5.639c14.902,1.856,30.702-18.803,35.235-46.026c3.011-18.086,0.359-35.38-6.921-45.133          c-3.271-4.381-7.363-6.989-11.837-7.544c-4.039-0.497-8.205,0.618-12.369,3.328          C253.815,129.529,244.839,146.289,241.687,165.212L241.687,165.212z"/>
							</g>
							<g>
								<path d="M249.807,212.588c14.587,0.219,29.186-18.015,33.179-41.995c0.131-0.787,0.248-1.571,0.353-2.351l-22.805-4.06          l23.439-7.664c-0.514-18.012-8.151-32.116-19.693-34.423c-10.565,6.902-19.786,23.224-23.085,43.035          C237.826,185.356,241.571,203.585,249.807,212.588z"/>
								<path d="M250.064,213.09c-0.089,0-0.176-0.001-0.266-0.002l-0.216-0.003l-0.146-0.159          c-8.587-9.388-12.017-28.181-8.736-47.878c3.245-19.481,12.175-36.101,23.306-43.372l0.171-0.111l0.2,0.04          c11.489,2.297,19.564,16.321,20.096,34.899l0.011,0.374l-21.902,7.161l21.316,3.795l-0.065,0.476          c-0.105,0.785-0.223,1.574-0.355,2.367C279.504,194.537,264.862,213.09,250.064,213.09z M250.03,212.09          c0.012,0,0.024,0,0.037,0c14.321,0,28.529-18.186,32.425-41.579c0.104-0.623,0.198-1.243,0.286-1.861l-24.292-4.324          l24.976-8.166c-0.608-17.807-8.24-31.222-19.08-33.533c-10.663,7.081-19.56,23.764-22.694,42.586          C238.474,184.505,241.749,202.866,250.03,212.09z"/>
							</g>
						</g>
					</g>
				</g>
				<g>
					<g>
						<path d="M310.14,262.845c-0.033,0.039-0.061,0.057-0.094,0.096c-10.368,9.679-21.902,10.437-30.975,3.916        c-3.234-2.319-6.581-5.868-9.249-10.472c-4.174-7.144-6.675-16.864-4.427-28.511c2.1-10.787,7.262-13.022,12.601-12.127        c4.71,0.799,9.573,4.042,12.562,6.042c2.601,1.699,5.28,3.048,8.246,3.199c4.78,0.289,9.742-2.919,14.522-3.04        c0.944-0.027,1.994,0.058,3.068,0.352c3.104,0.769,6.4,2.827,7.806,6.646C328.366,240.416,315.966,257.387,310.14,262.845z"/>
						<path d="M291.724,271.599c-4.503,0-8.908-1.435-12.945-4.336c-3.566-2.559-6.901-6.333-9.39-10.627        c-3.447-5.9-7.025-15.698-4.485-28.857c1.843-9.469,6.273-13.687,13.175-12.525c4.84,0.821,9.796,4.137,12.758,6.118        c2.09,1.366,4.893,2.958,7.993,3.116c2.46,0.152,5.041-0.687,7.545-1.492c2.275-0.733,4.628-1.49,6.938-1.55        c1.119-0.028,2.201,0.093,3.213,0.37c3.898,0.965,6.871,3.501,8.143,6.955c4.368,12.021-8.834,29.41-14.166,34.419        l-0.068,0.067C304.512,268.79,298.024,271.599,291.724,271.599z M275.933,216.067c-5.197,0-8.492,3.916-10.047,11.903        c-2.482,12.853,1.006,22.409,4.367,28.163c2.42,4.176,5.654,7.84,9.108,10.317c9.266,6.66,20.608,5.212,30.344-3.875        l0.093-0.096c3.012-2.821,7.48-8.418,10.676-14.561c2.709-5.209,5.473-12.699,3.256-18.803        c-1.641-4.454-5.761-5.911-7.456-6.331c-0.929-0.254-1.908-0.363-2.935-0.338c-2.168,0.055-4.45,0.79-6.658,1.501        c-2.593,0.836-5.278,1.695-7.907,1.539c-3.335-0.17-6.289-1.842-8.489-3.279c-2.899-1.94-7.745-5.182-12.373-5.967        C277.224,216.126,276.564,216.067,275.933,216.067z"/>
					</g>
					<g>
						<path style="fill:#FFB2B0;" d="M310.14,262.845c-0.033,0.039-0.061,0.057-0.094,0.096        c-10.368,9.679-21.902,10.437-30.975,3.916c-3.234-2.319-6.581-5.868-9.249-10.472c5.829-9.421,14.536-15.018,23.122-13.646        C301.571,244.097,307.885,252.078,310.14,262.845z"/>
						<path d="M291.724,271.599c-4.503,0-8.908-1.435-12.945-4.336c-3.566-2.559-6.901-6.333-9.39-10.627l-0.15-0.26l0.158-0.254        c6.131-9.91,15.189-15.231,23.626-13.878c8.492,1.338,15.239,9.192,17.606,20.498l0.051,0.24l-0.246,0.275        C304.512,268.79,298.024,271.599,291.724,271.599z M270.406,256.394c2.401,4.066,5.573,7.63,8.956,10.057        c9.229,6.634,20.522,5.224,30.231-3.772c-2.329-10.745-8.721-18.185-16.728-19.446        C284.913,241.956,276.318,246.996,270.406,256.394z"/>
					</g>
				</g>
				<g>
					<path style="fill:#AD2328;" d="M308.936,211.604c-0.818,4.526-5.124,7.528-9.617,6.705c-4.493-0.823-7.472-5.16-6.653-9.686       c0.818-4.526,5.124-7.528,9.617-6.705C306.776,202.742,309.754,207.078,308.936,211.604z"/>
					<path d="M300.816,218.946c-0.527,0-1.058-0.048-1.587-0.145c-4.757-0.872-7.922-5.478-7.056-10.267       c0.422-2.332,1.723-4.355,3.662-5.697c1.922-1.33,4.245-1.83,6.537-1.411c4.757,0.872,7.922,5.477,7.056,10.267       c-0.422,2.332-1.723,4.355-3.662,5.697C304.288,218.414,302.573,218.946,300.816,218.946z M300.788,202.282       c-1.556,0-3.074,0.472-4.383,1.378c-1.72,1.19-2.873,2.984-3.247,5.053c-0.768,4.248,2.036,8.333,6.251,9.104       c2.03,0.373,4.087-0.071,5.788-1.249c1.72-1.19,2.873-2.984,3.247-5.053l0,0c0.768-4.248-2.036-8.333-6.251-9.105       C301.724,202.325,301.254,202.282,300.788,202.282z"/>
				</g>
			</g>
		</g>
		<g>
			<g>
				<path d="M427.06,448.722c0.203,1.992,3.342,2.012,3.137,0.006c-0.887-8.688,4.439-16.854,12.81-19.501      c6.571-2.078,13.198,0.385,15.149,7.354c0.86,3.072,0.891,5.994,0.047,8.803c-0.025,0-0.05-0.007-0.075-0.007      c-2.875-0.046-5.622,0.724-8.238,1.861c-2.005,0.871-4.801,2.251-5.217,4.66c-0.477,2.761,2.711,4.587,5.028,4.931      c2.863,0.425,5.483-1.189,7.357-3.224c1.383-1.503,2.439-3.138,3.228-4.859c0.425,0.071,0.851,0.133,1.271,0.241      c5.734,1.481,10.65,6.292,11.451,12.288c0.709,5.309-3.42,8.491-8.263,9.453c-1.259-1.755-2.826-3.274-4.639-4.309      c-3.622-2.068-7.47-1.149-8.939,2.921c-0.172,0.475,0.003,1.202,0.4,1.527c3.215,2.622,7.457,3.586,11.577,3.219      c1.269,2.286,1.941,4.928,1.562,7.496c-0.646,4.371-4.493,8.541-8.811,9.479c-8.705,1.889-17.222-7.403-19.765-14.806      c-0.653-1.901-3.684-1.085-3.026,0.828c2.106,6.133,6.627,11.661,12.28,14.869c4.745,2.693,10.612,3.507,15.396,0.435      c4.862-3.123,7.869-8.737,6.966-14.514c-0.231-1.475-0.714-2.951-1.372-4.362c0.992-0.267,1.967-0.585,2.887-1.009      c6.395-2.945,8.351-9.451,5.697-15.8c-2.361-5.646-7.66-9.752-13.609-10.944c0.654-2.581,0.744-5.315,0.255-8.13      c-0.778-4.485-3.208-8.786-7.403-10.854c-3.822-1.883-8.331-1.808-12.316-0.476C432.434,429.453,426.039,438.728,427.06,448.722      z M460.885,471.02c-2.276-0.097-4.463-0.68-6.184-1.749C456.258,467.265,459.345,469.446,460.885,471.02z M456.815,448.594      c-0.117,0.206-0.217,0.413-0.345,0.618c-1.157,1.849-2.958,4.16-5.273,4.519c-1.099,0.171-2.106-0.224-3-0.844      c-0.659-0.457-0.494-0.515,0.032-1.064c1.393-1.454,3.879-2.21,5.758-2.75C454.916,448.805,455.864,448.668,456.815,448.594z"/>
			</g>
			<g>
				<path d="M424.651,456.571h-0.003l-55.21-0.099c-0.934-0.003-1.69-0.759-1.687-1.693c0.003-0.931,0.759-1.687,1.69-1.687h0.003      l55.21,0.099c0.934,0.003,1.69,0.759,1.687,1.693C426.338,455.815,425.582,456.571,424.651,456.571z"/>
			</g>
			<g>
				<path d="M423.714,471.437h-0.003l-34.582-0.063c-0.934-0.003-1.69-0.759-1.687-1.693c0.003-0.931,0.759-1.686,1.69-1.686h0.003      l34.582,0.063c0.934,0.003,1.69,0.759,1.686,1.693C425.4,470.681,424.644,471.437,423.714,471.437z"/>
			</g>
		</g>
	</g>
</g>















</svg>
