<?xml version="1.0" encoding="UTF-8"?>
<!-- Generator: Adobe Illustrator 27.1.1, SVG Export Plug-In . SVG Version: 6.00 Build 0)  -->
<svg xmlns="http://www.w3.org/2000/svg" xmlns:xlink="http://www.w3.org/1999/xlink" version="1.1" id="Capa_1" x="0px" y="0px" viewBox="0 0 512.527 512.527" style="enable-background:new 0 0 512.527 512.527;" xml:space="preserve" width="512" height="512">
<g>
	<g>
		<polygon style="fill:#71D2C4;" points="399.607,254.817 510.845,371.094 351.797,356.902 329.137,509.413 244.37,382.115     114.283,458.987 158.22,311.47 0.675,261.279 158.22,198.163 108.713,42.586 244.37,127.518 329.137,0.22 351.797,152.731     501.437,141.511   "/>
	</g>
	<g>
		<g>
			<path style="fill:#FFB2B0;" d="M29.383,106.171l14.688,14.785c-0.088,1.201-0.484,2.528-1.187,3.978     c-0.703,1.453-1.826,2.943-3.368,4.475c-1.542,1.533-3.195,2.49-4.956,2.878c-1.958,0.468-3.612,0.023-4.963-1.338L16.14,117.406     l-4.9,4.868c-2.444-0.441-4.516-1.517-6.215-3.227c-1.156-1.163-1.977-2.361-2.462-3.592c-0.485-1.232-0.691-2.358-0.618-3.377     L23.69,90.473c1.033,0.227,2.129,0.657,3.286,1.291c1.158,0.632,2.175,1.389,3.053,2.273c1.644,1.655,2.488,3.232,2.532,4.735     c0.044,1.502-0.551,2.867-1.784,4.093l-6.162,6.121c0.056,0.139,0.139,0.266,0.25,0.378c0.251,0.253,0.565,0.275,0.943,0.066     c0.406-0.208,1.114-0.813,2.123-1.816L29.383,106.171z"/>
			<path d="M33.111,132.967c-1.47,0-2.769-0.557-3.87-1.667l-13.103-13.187l-4.729,4.699l-0.256-0.046     c-2.536-0.458-4.716-1.59-6.481-3.367c-1.199-1.207-2.065-2.472-2.573-3.762c-0.51-1.295-0.73-2.505-0.651-3.596l0.013-0.187     l22.071-21.928l0.266,0.059c1.077,0.237,2.227,0.688,3.419,1.34c1.195,0.652,2.26,1.446,3.167,2.359     c1.729,1.74,2.629,3.446,2.677,5.073c0.048,1.639-0.602,3.14-1.932,4.462l-5.867,5.829c0.05,0.034,0.129,0.042,0.305-0.056     c0.259-0.133,0.806-0.534,2.012-1.733l1.806-1.795l15.201,15.3l-0.017,0.228c-0.092,1.259-0.508,2.658-1.236,4.16     c-0.723,1.493-1.889,3.044-3.465,4.611c-1.602,1.592-3.352,2.605-5.202,3.011C34.129,132.903,33.61,132.967,33.111,132.967z      M16.142,116.699l13.808,13.897c1.23,1.239,2.699,1.632,4.493,1.204c1.67-0.367,3.256-1.291,4.72-2.746     c1.496-1.487,2.597-2.947,3.271-4.338c0.629-1.297,1.004-2.497,1.119-3.573L29.38,106.878l-1.096,1.09     c-1.071,1.065-1.786,1.671-2.248,1.907c-0.557,0.306-1.118,0.252-1.525-0.16c-0.157-0.156-0.278-0.34-0.36-0.544l-0.122-0.307     l6.396-6.354c1.142-1.135,1.677-2.353,1.637-3.724c-0.04-1.364-0.843-2.844-2.386-4.397c-0.839-0.845-1.828-1.581-2.938-2.187     c-1.011-0.553-1.983-0.949-2.892-1.179L2.434,112.295c-0.031,0.895,0.169,1.895,0.594,2.976c0.458,1.162,1.249,2.314,2.351,3.423     c1.559,1.569,3.474,2.59,5.695,3.039L16.142,116.699z"/>
		</g>
		<g>
			<path style="fill:#FFB2B0;" d="M47.294,77.955l19.409,23.686c-0.202,1.188-0.723,2.471-1.562,3.848     c-0.839,1.378-2.098,2.755-3.78,4.132c-1.682,1.378-3.418,2.175-5.208,2.39c-1.994,0.28-3.599-0.322-4.814-1.805L31.93,86.521     c0.202-1.188,0.722-2.47,1.561-3.849c0.839-1.376,2.091-2.747,3.758-4.114c1.666-1.365,3.411-2.181,5.235-2.45     C44.488,75.873,46.091,76.488,47.294,77.955z"/>
			<path d="M55.228,112.578c-1.719,0-3.155-0.688-4.275-2.056L31.399,86.661l0.038-0.225c0.212-1.245,0.759-2.599,1.627-4.024     c0.865-1.418,2.166-2.844,3.869-4.241c1.729-1.416,3.573-2.276,5.479-2.557c2.189-0.261,3.957,0.423,5.269,2.023L67.234,101.5     l-0.038,0.225c-0.212,1.246-0.759,2.6-1.628,4.024c-0.864,1.419-2.173,2.853-3.89,4.259c-1.748,1.433-3.587,2.274-5.465,2.5     C55.875,112.555,55.546,112.578,55.228,112.578z M32.464,86.384l19.262,23.505c1.107,1.351,2.533,1.885,4.357,1.627     c1.696-0.204,3.362-0.971,4.961-2.282c1.629-1.335,2.864-2.683,3.67-4.006c0.749-1.229,1.238-2.389,1.455-3.451L46.907,78.272     c-1.098-1.337-2.521-1.882-4.364-1.666c-1.71,0.252-3.39,1.039-4.977,2.339c-1.615,1.325-2.843,2.666-3.648,3.987     C33.169,84.163,32.681,85.323,32.464,86.384z"/>
		</g>
		<g>
			<path style="fill:#FFB2B0;" d="M98.737,83.015c-2.268,1.479-4.291,2.267-6.067,2.364c-1.898,0.128-3.369-0.481-4.413-1.83     l-1.746-2.189c1.286-1.357,1.954-3.137,2.003-5.341c0.001-0.614-0.101-1.078-0.306-1.392c-0.28-0.43-0.636-0.505-1.066-0.224     l-0.075,0.049c-0.005,0.028-0.033,0.057-0.083,0.09c0.427,3.189-0.658,5.63-3.257,7.325c-1.325,0.864-2.643,1.31-3.957,1.341     c-1.313,0.031-2.823-0.412-4.529-1.329l-0.149,0.097c-0.447,0.292-0.546,0.629-0.298,1.009c0.172,0.265,0.466,0.497,0.88,0.7     c1.385,0.677,2.78,1.007,4.183,0.988c1.123,0.023,2.148-0.198,3.074-0.66l2.861,4.823c-0.572,1.294-1.314,2.445-2.226,3.451     c-0.913,1.008-2.382,2.173-4.41,3.494c-2.028,1.322-4.096,2.105-6.203,2.346c-2.59,0.297-4.452-0.424-5.586-2.162     c-1.414-2.168-4.475-7.805-9.183-16.909c-2.44-4.755-4.096-8.11-4.97-10.065c0.712-2.634,2.732-5.036,6.06-7.205     c2.417-1.577,4.711-2.436,6.884-2.577l4.345,3.678l1.51,4.217c0.096,0.292,0.219,0.553,0.37,0.785     c0.378,0.58,0.904,0.662,1.577,0.247l-4.036-11.347c0.442-0.807,1.119-1.704,2.034-2.689c0.915-0.985,2.018-1.899,3.308-2.742     c2.418-1.575,4.476-2.334,6.178-2.275c1.702,0.058,3.291,0.985,4.769,2.783c0.288,0.332,0.755,0.887,1.406,1.667     c9.947,11.964,15.67,19.097,17.17,21.397C104.214,78.063,102.197,80.759,98.737,83.015z"/>
			<path d="M71.867,98.69c-2.203,0-3.854-0.823-4.918-2.454c-1.414-2.168-4.512-7.872-9.208-16.953     c-2.432-4.74-4.108-8.135-4.982-10.09l-0.073-0.163l0.047-0.172c0.742-2.745,2.852-5.267,6.269-7.494     c2.477-1.616,4.874-2.51,7.124-2.657l0.202-0.013l4.601,3.895l1.556,4.344c0.086,0.261,0.191,0.485,0.318,0.68     c0.122,0.187,0.254,0.335,0.535,0.261l-3.96-11.131l0.108-0.197c0.461-0.842,1.17-1.781,2.106-2.789     c0.937-1.009,2.081-1.958,3.401-2.82c2.495-1.626,4.679-2.424,6.469-2.356c1.843,0.063,3.572,1.061,5.138,2.965     c0.281,0.323,0.751,0.881,1.403,1.664c10.056,12.096,15.683,19.11,17.205,21.444l0.109,0.167l-0.036,0.196     c-0.598,3.261-2.708,6.092-6.271,8.416l0,0c-2.332,1.521-4.456,2.343-6.313,2.444c-2.067,0.14-3.689-0.542-4.836-2.023     l-2.012-2.523l0.299-0.315c1.192-1.258,1.82-2.943,1.866-5.008c0.001-0.627-0.121-0.95-0.225-1.108     c-0.072-0.11-0.132-0.156-0.162-0.163c-0.018-0.005-0.058,0.003-0.113,0.027c0.349,3.242-0.833,5.771-3.516,7.52     c-1.396,0.911-2.815,1.389-4.217,1.422c-1.314,0.029-2.84-0.389-4.51-1.248c-0.148,0.114-0.117,0.162-0.059,0.252     c0.121,0.185,0.35,0.361,0.681,0.523c1.31,0.64,2.663,0.967,3.958,0.938c1.051,0.022,2.007-0.183,2.857-0.607l0.417-0.208     l3.229,5.445l-0.104,0.236c-0.592,1.338-1.37,2.544-2.313,3.585C83,93.657,81.483,94.86,79.43,96.199     c-2.086,1.359-4.246,2.175-6.419,2.423C72.614,98.668,72.233,98.69,71.867,98.69z M53.745,68.95     c0.885,1.963,2.527,5.284,4.884,9.876c4.68,9.049,7.761,14.723,9.157,16.864c1.031,1.58,2.703,2.211,5.11,1.938     c2.018-0.231,4.032-0.994,5.987-2.268c1.981-1.292,3.433-2.439,4.312-3.411c0.816-0.901,1.5-1.939,2.034-3.085l-2.499-4.213     c-0.884,0.366-1.845,0.543-2.883,0.519c-1.463,0.017-2.941-0.329-4.393-1.039c-0.502-0.246-0.856-0.532-1.08-0.875     c-0.404-0.62-0.238-1.256,0.443-1.701l0.399-0.258l0.26,0.14c1.62,0.871,3.068,1.301,4.28,1.27     c1.213-0.028,2.456-0.452,3.695-1.26c2.445-1.594,3.438-3.832,3.035-6.84l-0.042-0.312l0.347-0.264     c0.402-0.263,0.726-0.339,1.04-0.273c0.312,0.065,0.578,0.266,0.793,0.595c0.262,0.401,0.389,0.946,0.387,1.666     c-0.048,2.16-0.67,3.957-1.849,5.358l1.483,1.858c0.948,1.226,2.255,1.763,3.988,1.643c1.687-0.092,3.645-0.86,5.828-2.284l0,0     c3.251-2.12,5.2-4.663,5.795-7.562c-1.642-2.441-7.366-9.564-17.025-21.183c-0.647-0.776-1.113-1.329-1.399-1.66     c-1.384-1.682-2.864-2.557-4.408-2.61c-1.581-0.051-3.568,0.684-5.888,2.194c-1.251,0.817-2.333,1.713-3.215,2.664     c-0.808,0.869-1.431,1.674-1.853,2.396l4.095,11.512l-0.344,0.212c-0.906,0.559-1.728,0.413-2.258-0.4     c-0.174-0.267-0.317-0.57-0.426-0.901l-1.461-4.079l-4.086-3.458c-2.02,0.174-4.186,1.009-6.444,2.482     C56.414,64.245,54.463,66.514,53.745,68.95z"/>
		</g>
		<g>
			<path style="fill:#FFB2B0;" d="M104.908,35.881l15.425-7.391c0.926,0.608,1.756,1.356,2.488,2.242     c0.732,0.887,1.29,1.733,1.674,2.534c0.863,1.8,1.16,3.323,0.892,4.569c-0.269,1.247-1.036,2.173-2.301,2.78l-10.774,5.162     c-0.66,0.316-0.865,0.732-0.618,1.249l0.103,0.214c0.051,0.107,0.103,0.17,0.156,0.188l12.779-6.124     c0.585,0.399,1.195,0.963,1.828,1.688c0.65,0.807,1.145,1.567,1.487,2.28c1.017,2.122,1.419,3.966,1.207,5.536l-5.801,2.78     c-2.709,1.298-4.495,2.28-5.36,2.946c-0.864,0.667-1.378,1.126-1.54,1.38c-0.155,0.272-0.173,0.532-0.053,0.782     c0.119,0.249,0.338,0.385,0.656,0.408c0.782-0.747,1.651-1.426,2.606-2.038c1.277-0.765,2.7-1.524,4.268-2.275l7.512-3.6     c1.822,1.011,3.249,2.596,4.282,4.752c0.581,1.212,0.985,2.443,1.211,3.693c0.226,1.251,0.199,2.361-0.083,3.327l-20.023,9.595     c-2.21,1.059-4.24,1.374-6.089,0.946c-2.008-0.441-3.541-1.766-4.6-3.976L94.057,44.104c-0.41-0.855,0.271-1.949,2.044-3.281     C97.873,39.492,100.809,37.844,104.908,35.881z"/>
			<path d="M112.475,74.188c-0.599,0-1.183-0.066-1.749-0.197c-2.151-0.472-3.815-1.901-4.938-4.248L93.606,44.32     c-0.792-1.651,1.456-3.341,2.194-3.896c1.792-1.346,4.784-3.026,8.893-4.994l15.68-7.513l0.236,0.155     c0.963,0.632,1.838,1.42,2.599,2.342c0.753,0.913,1.338,1.8,1.739,2.637c0.907,1.892,1.22,3.538,0.93,4.89     c-0.303,1.4-1.169,2.451-2.573,3.125l-10.775,5.162c-0.511,0.245-0.462,0.413-0.394,0.559l12.641-6.058l0.238,0.162     c0.616,0.42,1.263,1.016,1.923,1.772c0.683,0.848,1.203,1.647,1.56,2.392c1.055,2.201,1.476,4.159,1.252,5.82l-0.036,0.268     l-6.045,2.896c-2.664,1.276-4.437,2.249-5.271,2.891c-1.11,0.857-1.366,1.163-1.425,1.254c-0.082,0.144-0.055,0.229-0.023,0.296     c0.011,0.022,0.024,0.051,0.059,0.075c0.749-0.691,1.583-1.333,2.483-1.909c1.302-0.78,2.752-1.553,4.322-2.305l7.745-3.711     l0.226,0.125c1.905,1.057,3.416,2.73,4.49,4.973c0.598,1.248,1.02,2.533,1.252,3.82c0.239,1.321,0.208,2.517-0.095,3.555     l-0.063,0.215l-20.224,9.691C115.507,73.794,113.944,74.188,112.475,74.188z M120.291,29.064l-15.167,7.268     c-4.049,1.939-6.984,3.584-8.724,4.891c-1.503,1.13-2.176,2.076-1.893,2.665l12.182,25.424c0.998,2.083,2.391,3.294,4.257,3.704     c1.734,0.401,3.671,0.096,5.766-0.908l19.815-9.496c0.205-0.84,0.21-1.81,0.014-2.886c-0.217-1.199-0.61-2.398-1.169-3.565     c-0.941-1.963-2.236-3.444-3.853-4.404l-7.275,3.486c-1.542,0.739-2.964,1.497-4.227,2.253c-0.913,0.585-1.765,1.251-2.518,1.97     l-0.16,0.153l-0.221-0.016c-0.494-0.036-0.874-0.281-1.071-0.691c-0.133-0.279-0.229-0.721,0.07-1.246     c0.147-0.231,0.457-0.592,1.669-1.528c0.902-0.695,2.684-1.677,5.45-3.001l5.551-2.66c0.12-1.411-0.28-3.088-1.191-4.989     c-0.324-0.676-0.804-1.41-1.426-2.183c-0.508-0.582-1.011-1.062-1.489-1.422l-12.695,6.084l-0.193-0.065     c-0.278-0.095-0.405-0.359-0.446-0.445l-0.103-0.214c-0.177-0.37-0.446-1.294,0.852-1.917l10.774-5.162     c1.128-0.541,1.791-1.337,2.028-2.434c0.243-1.13-0.044-2.56-0.854-4.248c-0.366-0.764-0.907-1.582-1.609-2.433     C121.801,30.28,121.08,29.613,120.291,29.064z"/>
		</g>
		<g>
			<path style="fill:#FFB2B0;" d="M170.601,41.296l2.062,7.21c-0.657,1.01-1.638,1.979-2.945,2.909     c-1.307,0.928-3,1.691-5.081,2.285c-2.081,0.596-4.005,0.642-5.772,0.14c-1.941-0.534-3.178-1.731-3.71-3.595l-8.283-28.956     c-0.501-1.748,3.534-3.848,12.104-6.299l16.73-4.785c0.839,0.85,1.569,1.859,2.192,3.027c0.622,1.169,1.074,2.247,1.357,3.235     c1.245,4.351-0.042,7.073-3.862,8.165l-9.862,2.82c-0.722,0.207-0.996,0.615-0.822,1.222l0.057,0.2     c0.033,0.115,0.073,0.185,0.122,0.212l12.598-3.604c1.442,1.375,2.458,3.099,3.051,5.17c0.739,2.585,0.735,4.765-0.011,6.54     l-13.965,3.994c-0.109,0.197-0.135,0.389-0.081,0.579c0.087,0.303,0.371,0.418,0.853,0.342c0.481-0.076,1.017-0.199,1.606-0.367     C169.528,41.572,170.082,41.423,170.601,41.296z"/>
			<path d="M161.386,54.683c-0.921,0-1.809-0.121-2.657-0.362c-2.107-0.58-3.473-1.905-4.055-3.939l-8.283-28.956     c-0.328-1.146,0.621-2.281,2.901-3.467c2.038-1.061,5.249-2.221,9.546-3.451l17.015-4.866l0.208,0.211     c0.868,0.879,1.634,1.936,2.277,3.142c0.636,1.197,1.106,2.318,1.396,3.333c0.654,2.286,0.633,4.188-0.061,5.656     c-0.705,1.49-2.1,2.542-4.145,3.127l-9.861,2.82c-0.55,0.158-0.543,0.363-0.494,0.551l12.449-3.562l0.207,0.198     c1.5,1.431,2.572,3.246,3.187,5.394c0.768,2.685,0.757,4.997-0.031,6.871l-0.093,0.221l-13.94,3.987     c0.001,0.012,0.004,0.022,0.006,0.03c0.013,0.001,0.097,0.021,0.295-0.01c0.456-0.072,0.977-0.191,1.548-0.354     c0.594-0.169,1.154-0.32,1.678-0.449l0.467-0.115l2.258,7.893l-0.124,0.191c-0.688,1.058-1.722,2.082-3.074,3.043     c-1.35,0.959-3.111,1.752-5.233,2.358C163.604,54.516,162.472,54.683,161.386,54.683z M175.554,10.769l-16.44,4.702     c-4.233,1.211-7.382,2.346-9.36,3.376c-1.693,0.881-2.568,1.721-2.401,2.305l8.283,28.956c0.485,1.699,1.585,2.762,3.362,3.251     c1.672,0.474,3.522,0.428,5.502-0.139c2.014-0.575,3.672-1.319,4.929-2.212c1.167-0.83,2.071-1.7,2.69-2.587l-1.865-6.521     c-0.375,0.097-0.767,0.205-1.176,0.322c-0.609,0.173-1.17,0.301-1.666,0.379c-1.043,0.165-1.336-0.433-1.412-0.698     c-0.091-0.315-0.048-0.647,0.123-0.958l0.101-0.182l13.929-3.984c0.608-1.623,0.577-3.636-0.096-5.989     c-0.537-1.876-1.449-3.471-2.713-4.747l-12.519,3.582l-0.182-0.103c-0.252-0.142-0.331-0.419-0.357-0.51l-0.058-0.2     c-0.119-0.419-0.245-1.436,1.165-1.84l9.862-2.821c1.756-0.502,2.939-1.375,3.516-2.593c0.588-1.242,0.588-2.908,0.004-4.953     c-0.272-0.948-0.715-2.004-1.318-3.138C176.91,12.442,176.271,11.536,175.554,10.769z"/>
		</g>
		<g>
			<path style="fill:#FFB2B0;" d="M208.689,43.998c-3.476,0.541-6.776,0.319-9.899-0.666c-3.123-0.984-5.803-2.817-8.04-5.499     c-2.237-2.682-3.701-6.24-4.39-10.673c-0.999-6.425,0.154-11.744,3.458-15.957c2.942-3.717,7.118-5.998,12.527-6.839     c5.878-0.914,10.814,0.184,14.808,3.293c3.993,3.109,6.452,7.631,7.375,13.567c1.026,6.601-0.026,11.925-3.157,15.971     C218.521,40.86,214.293,43.128,208.689,43.998z M206.572,22.667c-0.304-1.953-0.6-3.282-0.89-3.986     c-0.29-0.705-0.669-1.022-1.137-0.949c-0.293,0.045-0.541,0.185-0.746,0.416c0.094,0.346,0.225,0.805,0.395,1.378     c0.169,0.574,0.403,1.817,0.7,3.731l0.296,1.904c0.206,1.328,0.327,2.299,0.363,2.913c0.035,0.615,0.067,1.141,0.094,1.576     c0.017,0.237,0.034,0.475,0.051,0.713c0.265,0.158,0.544,0.214,0.837,0.169c0.469-0.072,0.734-0.489,0.796-1.249     c0.062-0.76-0.059-2.116-0.363-4.068L206.572,22.667z"/>
			<path d="M205.07,44.784c-2.221,0-4.373-0.326-6.431-0.975c-3.202-1.009-5.986-2.912-8.273-5.655     c-2.286-2.74-3.8-6.413-4.5-10.917c-1.017-6.537,0.181-12.036,3.559-16.343c3.012-3.805,7.333-6.167,12.844-7.024     c5.988-0.931,11.102,0.209,15.191,3.393c4.079,3.175,6.623,7.847,7.562,13.885c1.044,6.71-0.052,12.213-3.255,16.354     c-2.919,3.752-7.293,6.104-13.001,6.99C207.516,44.687,206.283,44.784,205.07,44.784z M206.169,4.557     c-1.204,0-2.453,0.101-3.747,0.302c-5.254,0.816-9.362,3.056-12.211,6.655c-3.199,4.078-4.329,9.317-3.357,15.57     c0.672,4.321,2.112,7.831,4.28,10.429c2.164,2.594,4.79,4.392,7.807,5.342c3.033,0.957,6.287,1.176,9.672,0.649l0,0     c5.448-0.846,9.608-3.071,12.364-6.615c3.028-3.914,4.057-9.159,3.057-15.587c-0.898-5.778-3.317-10.235-7.188-13.249     C213.859,5.727,210.279,4.557,206.169,4.557z M206.338,31.048c-0.311,0-0.612-0.085-0.896-0.255l-0.224-0.133l-0.069-0.972     c-0.028-0.439-0.06-0.968-0.095-1.584c-0.035-0.595-0.156-1.559-0.358-2.864l-0.296-1.904c-0.291-1.875-0.522-3.109-0.686-3.667     c-0.17-0.576-0.303-1.04-0.397-1.388l-0.071-0.261l0.179-0.202c0.284-0.321,0.635-0.515,1.043-0.579     c0.497-0.078,1.194,0.078,1.676,1.253c0.307,0.746,0.609,2.087,0.922,4.1l0.396,2.548c0.312,2.011,0.432,3.38,0.367,4.185     c-0.104,1.269-0.72,1.626-1.219,1.703C206.519,31.042,206.428,31.048,206.338,31.048z M206.176,30.028     c0.09,0.023,0.182,0.026,0.282,0.01c0.208-0.032,0.334-0.299,0.374-0.795c0.059-0.715-0.062-2.045-0.358-3.951l-0.397-2.548     c-0.296-1.906-0.585-3.209-0.858-3.873c-0.189-0.461-0.39-0.671-0.598-0.645c-0.094,0.015-0.179,0.044-0.257,0.091     c0.083,0.295,0.186,0.651,0.309,1.067c0.176,0.601,0.417,1.878,0.715,3.796l0.296,1.904c0.208,1.336,0.332,2.332,0.368,2.96     c0.035,0.614,0.066,1.14,0.094,1.574L206.176,30.028z"/>
		</g>
		<g>
			<path style="fill:#FFB2B0;" d="M262.394,24.865l5.249,5.125c-0.282,3.09-1.199,5.485-2.75,7.181     c-1.553,1.697-3.732,2.579-6.536,2.644c-2.115,0.05-3.964-0.41-5.548-1.381c-2.025-1.217-3.564-3.198-4.617-5.941l-1.135-2.879     c-0.831,0-1.88-0.084-3.149-0.252c-0.154,0.162-0.228,0.381-0.221,0.658c0.012,0.534,0.82,0.83,2.422,0.891l1.79,4.228     l0.059,2.519c-2.234,1.654-5.13,2.523-8.686,2.606c-2.549,0.059-4.596-0.416-6.142-1.428c-1.546-1.011-2.343-2.514-2.39-4.51     l-0.661-28.154c-0.02-0.87,0.759-1.732,2.34-2.59c1.581-0.858,3.66-1.568,6.237-2.133c2.576-0.565,5.159-0.877,7.747-0.939     c5.927-0.138,10.588,0.968,13.986,3.319c3.576,2.466,5.419,6.011,5.529,10.634c0.06,2.647-0.632,4.932-2.079,6.854     c-1.449,1.922-3.299,3.275-5.553,4.059c0.016,0.633,0.402,0.939,1.163,0.922C260.208,26.281,261.189,25.803,262.394,24.865z      M246.942,18.468c0.081,0.057,0.308,0.081,0.684,0.073c0.375-0.01,0.659-0.165,0.849-0.464c0.19-0.301,0.277-0.788,0.262-1.46     l-0.025-1.067c-0.017-0.711-0.113-1.217-0.289-1.52c-0.175-0.303-0.455-0.45-0.84-0.441c-0.385,0.009-0.647,0.055-0.783,0.137     c0.022,0.099,0.036,0.266,0.042,0.503L246.942,18.468z"/>
			<path d="M238.86,40.769c-2.451,0-4.469-0.509-6.005-1.514c-1.684-1.102-2.565-2.756-2.616-4.917l-0.661-28.154     c-0.025-1.083,0.826-2.078,2.602-3.041c1.613-0.875,3.756-1.609,6.368-2.182c2.59-0.569,5.228-0.888,7.842-0.951     c6.002-0.132,10.812,1.007,14.282,3.408c3.698,2.551,5.631,6.264,5.744,11.034c0.062,2.75-0.671,5.161-2.18,7.166     c-1.405,1.865-3.202,3.232-5.344,4.067c0.087,0.073,0.227,0.119,0.543,0.114c0.443-0.01,1.265-0.25,2.651-1.329l0.344-0.268     l5.731,5.597l-0.021,0.237c-0.291,3.188-1.26,5.703-2.879,7.473c-1.644,1.794-3.963,2.739-6.895,2.807     c-2.199,0.051-4.161-0.437-5.821-1.455c-2.109-1.269-3.733-3.351-4.822-6.188l-1.011-2.563c-0.708-0.018-1.554-0.087-2.525-0.207     c-0.003,0.03-0.005,0.065-0.004,0.105c0.001,0.001,0.213,0.338,1.942,0.404l0.317,0.012l1.953,4.704l0.064,2.778l-0.208,0.154     c-2.308,1.709-5.327,2.619-8.971,2.704C239.14,40.767,238.999,40.769,238.86,40.769z M247.363,0.999     c-0.313,0-0.629,0.003-0.949,0.011c-2.549,0.061-5.124,0.373-7.651,0.927c-2.52,0.553-4.575,1.254-6.106,2.084     c-1.375,0.746-2.094,1.486-2.079,2.139l0.661,28.154c0.043,1.837,0.75,3.18,2.163,4.104c1.451,0.95,3.425,1.407,5.857,1.346     c3.324-0.078,6.078-0.871,8.191-2.357l-0.05-2.16l-1.629-3.85c-0.922-0.05-2.559-0.242-2.585-1.366     c-0.01-0.411,0.111-0.753,0.359-1.014l0.176-0.185l0.252,0.034c1.242,0.164,2.279,0.248,3.083,0.248h0.34l1.261,3.196     c1.008,2.628,2.491,4.543,4.409,5.696c1.496,0.918,3.255,1.355,5.279,1.31c2.648-0.061,4.728-0.896,6.18-2.482     c1.43-1.562,2.303-3.8,2.599-6.653l-4.771-4.658c-1.145,0.839-2.095,1.257-2.894,1.276c-1.507,0.044-1.663-0.975-1.675-1.409     l-0.01-0.365l0.346-0.12c2.148-0.748,3.938-2.056,5.318-3.888c1.37-1.821,2.036-4.022,1.979-6.542     c-0.104-4.431-1.892-7.874-5.312-10.234C256.993,2.088,252.71,0.999,247.363,0.999z M247.491,19.043     c-0.437,0-0.671-0.048-0.838-0.167l-0.205-0.145l-0.105-4.489c-0.004-0.191-0.012-0.326-0.03-0.406l-0.078-0.351l0.307-0.186     c0.218-0.132,0.545-0.198,1.03-0.209c0.727,0.004,1.097,0.367,1.284,0.691c0.22,0.379,0.337,0.955,0.356,1.758l0.025,1.067     c0.017,0.78-0.094,1.348-0.339,1.737c-0.281,0.443-0.716,0.684-1.259,0.698C247.587,19.042,247.538,19.043,247.491,19.043z      M247.433,18.042c0.05,0.001,0.112,0,0.183-0.001c0.205-0.005,0.337-0.075,0.437-0.232c0.076-0.12,0.202-0.435,0.185-1.181     l-0.025-1.066c-0.019-0.815-0.147-1.152-0.221-1.28c-0.069-0.12-0.166-0.211-0.396-0.192c-0.103,0.002-0.187,0.007-0.256,0.014     c0.001,0.037,0.003,0.074,0.004,0.114L247.433,18.042z"/>
		</g>
		<g>
			<path style="fill:#FFB2B0;" d="M300.786,31.914c-0.239,0.241-0.378,0.479-0.415,0.713c-0.092,0.566,0.362,1.125,1.365,1.678     c1.001,0.553,2.255,1.002,3.76,1.346c-0.203,2.85-0.188,4.494,0.04,4.932c-0.487,0.662-1.629,1.222-3.426,1.682     c-1.797,0.458-3.747,0.518-5.855,0.176c-2.79-0.453-5.081-1.44-6.878-2.962c-1.794-1.523-2.538-3.23-2.231-5.123     c0.082-0.507,0.204-0.947,0.365-1.322l10.752-26.846c1.721-0.741,3.711-1.219,5.968-1.435c2.257-0.213,4.556-0.131,6.898,0.249     c3.354,0.544,6.13,1.575,8.326,3.092c2.504,1.728,3.849,3.859,4.039,6.392l2.195,28.676c-2.457,2.304-5.977,3.085-10.56,2.341     c-2.224-0.361-4.042-1.066-5.454-2.116c-1.412-1.049-2.124-2.337-2.136-3.861l-0.064-3.674c1.173,0.17,2.341,0.129,3.503-0.124     c1.162-0.251,1.782-0.612,1.857-1.08c0.051-0.311-0.035-0.586-0.257-0.822c-0.826,0.406-1.798,0.659-2.915,0.759     c-1.119,0.099-2.135,0.074-3.051-0.075C303.978,34.084,302.036,33.219,300.786,31.914z M308.698,24.429     c0.331,0.053,0.626,0.032,0.881-0.067c-0.026-3.047-0.083-4.859-0.169-5.434c-0.123-0.6-0.399-0.936-0.828-1.005     c-0.196-0.032-0.439-0.012-0.731,0.061l0.154,6.091C308.134,24.257,308.366,24.375,308.698,24.429z"/>
			<path d="M318.275,46.273c-1.015,0-2.091-0.092-3.226-0.276c-2.293-0.372-4.201-1.115-5.672-2.208     c-1.537-1.143-2.324-2.575-2.338-4.258l-0.074-4.257l0.581,0.084c1.111,0.16,2.23,0.121,3.325-0.118     c1.396-0.301,1.468-0.656,1.47-0.67c0.006-0.033,0.009-0.063,0.008-0.093c-0.775,0.316-1.662,0.52-2.641,0.607     c-1.157,0.101-2.227,0.075-3.177-0.08c-2.442-0.396-4.343-1.176-5.663-2.322c-0.002,0.008-0.003,0.017-0.005,0.025     c-0.052,0.324,0.343,0.736,1.112,1.16c0.955,0.528,2.177,0.964,3.631,1.296l0.418,0.095l-0.03,0.428     c-0.273,3.827-0.081,4.539-0.016,4.665l0.142,0.276l-0.183,0.252c-0.562,0.765-1.774,1.377-3.704,1.87     c-1.856,0.475-3.895,0.536-6.059,0.185c-2.867-0.465-5.263-1.5-7.121-3.075c-1.93-1.638-2.737-3.517-2.4-5.584     c0.086-0.54,0.22-1.025,0.398-1.439l10.824-27.026l0.19-0.082c1.761-0.758,3.819-1.253,6.117-1.473     c2.295-0.218,4.657-0.131,7.026,0.253c3.414,0.554,6.284,1.622,8.53,3.174c2.621,1.81,4.052,4.086,4.254,6.767l2.213,28.914     l-0.175,0.164C324.083,45.354,321.483,46.273,318.275,46.273z M307.985,36.416l0.055,3.103c0.012,1.376,0.645,2.509,1.935,3.468     c1.341,0.997,3.101,1.678,5.235,2.023c4.292,0.696,7.642,0.006,9.963-2.053l-2.177-28.432c-0.18-2.398-1.431-4.367-3.824-6.019     c-2.123-1.467-4.855-2.479-8.122-3.01c-2.285-0.372-4.562-0.454-6.771-0.245c-2.111,0.202-4.004,0.645-5.628,1.316L287.975,33.22     c-0.149,0.35-0.261,0.755-0.334,1.215c-0.28,1.723,0.393,3.247,2.059,4.662c1.718,1.456,3.95,2.415,6.635,2.85     c2.025,0.33,3.929,0.273,5.65-0.167c1.775-0.454,2.603-0.938,2.985-1.31c-0.127-0.544-0.187-1.68-0.004-4.431     c-1.364-0.34-2.532-0.775-3.475-1.296c-1.201-0.661-1.744-1.4-1.615-2.195c0.055-0.34,0.241-0.671,0.554-0.986l0.361-0.363     l0.355,0.37c1.167,1.218,3.033,2.043,5.545,2.449c0.87,0.142,1.857,0.165,2.928,0.071c1.051-0.094,1.972-0.333,2.738-0.71     l0.332-0.163l0.253,0.27c0.328,0.35,0.462,0.78,0.386,1.245c-0.15,0.932-1.353,1.295-2.245,1.488     C310.061,36.44,309.02,36.506,307.985,36.416z M309.034,24.958c-0.134,0-0.272-0.012-0.415-0.035h-0.001     c-0.469-0.077-0.811-0.264-1.021-0.558l-0.088-0.125l-0.168-6.645l0.389-0.097c0.36-0.09,0.666-0.112,0.933-0.069     c0.448,0.073,1.027,0.374,1.238,1.398c0.095,0.633,0.152,2.433,0.179,5.53l0.003,0.346l-0.323,0.125     C309.536,24.914,309.294,24.958,309.034,24.958z M308.777,23.936c0.107,0.017,0.208,0.023,0.299,0.021     c-0.034-3.428-0.105-4.589-0.159-4.955c-0.111-0.536-0.331-0.572-0.414-0.585c-0.035-0.005-0.081-0.011-0.141-0.008l0.138,5.444     C308.567,23.888,308.662,23.917,308.777,23.936L308.777,23.936z"/>
		</g>
		<g>
			<path style="fill:#FFB2B0;" d="M355.644,19.587c0.154-0.427,0.682-0.784,1.584-1.067c1.895-0.597,4.835-0.535,8.818,0.189     c2.066,0.389,4.27,1.006,6.612,1.851c5.577,2.014,9.408,4.615,11.492,7.804c1.825,2.802,2.181,5.747,1.067,8.832     c-0.402,1.115-0.992,2.136-1.768,3.065c-0.777,0.928-1.624,1.531-2.544,1.807c-0.804-0.858-1.662-1.451-2.572-1.78     c-0.428-0.154-0.783-0.188-1.066-0.101c-0.284,0.087-0.507,0.354-0.667,0.798c2.693,1.099,4.464,2.852,5.318,5.261     c0.746,2.182,0.667,4.528-0.239,7.036c-1.402,3.885-4.048,6.125-7.94,6.714c-3.646,0.555-8.535-0.276-14.67-2.489     c-4.294-1.55-7.396-2.823-9.307-3.817c-1.909-0.994-3.129-2.154-3.659-3.48c-0.53-1.325-0.427-3.011,0.311-5.055L355.644,19.587z      M363.115,46.3c0.053,0.082,0.258,0.188,0.611,0.315c0.354,0.126,0.667,0.105,0.94-0.07c0.273-0.175,0.521-0.569,0.741-1.182     l0.192-0.531c0.249-0.688,0.347-1.209,0.296-1.563c-0.05-0.355-0.257-0.597-0.62-0.727c-0.363-0.131-0.622-0.183-0.78-0.155     c-0.015,0.1-0.062,0.261-0.142,0.484L363.115,46.3z M366.91,35.788c0.053,0.082,0.258,0.188,0.611,0.315     c0.354,0.126,0.673,0.085,0.96-0.126c0.287-0.213,0.544-0.634,0.772-1.266l0.061-0.167c0.241-0.67,0.335-1.177,0.281-1.522     c-0.053-0.345-0.262-0.583-0.625-0.715c-0.363-0.13-0.622-0.182-0.779-0.154c-0.016,0.1-0.063,0.261-0.143,0.483L366.91,35.788z"/>
			<path d="M371.424,60.663c-3.38,0-7.579-0.898-12.525-2.683c-4.295-1.551-7.446-2.844-9.368-3.844     c-2.011-1.047-3.32-2.305-3.893-3.738c-0.575-1.437-0.473-3.258,0.305-5.411l9.231-25.569c0.213-0.589,0.835-1.039,1.903-1.375     c1.996-0.628,4.956-0.571,9.059,0.174c2.085,0.393,4.336,1.023,6.691,1.873c5.656,2.043,9.606,4.735,11.741,8.001     c1.906,2.928,2.283,6.049,1.119,9.275c-0.42,1.164-1.044,2.246-1.854,3.216c-0.839,1.001-1.775,1.663-2.785,1.966l-0.296,0.089     l-0.212-0.226c-0.747-0.795-1.547-1.352-2.378-1.652c-0.316-0.114-0.577-0.144-0.75-0.093c-0.038,0.012-0.077,0.038-0.115,0.078     c2.536,1.162,4.247,2.955,5.092,5.336c0.782,2.289,0.7,4.768-0.24,7.373c-1.464,4.054-4.268,6.422-8.335,7.039     C373.07,60.606,372.273,60.663,371.424,60.663z M356.115,19.757l-9.23,25.569c-0.692,1.915-0.799,3.497-0.317,4.699     c0.482,1.206,1.634,2.29,3.426,3.223c1.882,0.979,4.993,2.254,9.246,3.791c6.028,2.175,10.879,3.004,14.425,2.465     c3.728-0.565,6.196-2.655,7.544-6.39c0.862-2.387,0.942-4.643,0.237-6.705c-0.81-2.284-2.457-3.908-5.034-4.959l-0.444-0.181     l0.162-0.451c0.216-0.599,0.55-0.971,0.991-1.107c0.392-0.121,0.844-0.086,1.382,0.108c0.896,0.324,1.749,0.886,2.541,1.674     c0.715-0.28,1.395-0.801,2.024-1.552c0.734-0.88,1.3-1.86,1.68-2.914c1.067-2.956,0.735-5.701-1.016-8.389     c-2.013-3.08-5.795-5.64-11.243-7.607c-2.306-0.832-4.504-1.447-6.534-1.83c-3.88-0.705-6.766-0.774-8.575-0.203     C356.371,19.314,356.159,19.634,356.115,19.757L356.115,19.757z M364.153,47.195c-0.178,0-0.377-0.031-0.595-0.109     c-0.505-0.183-0.738-0.322-0.863-0.515l-0.133-0.208l1.32-3.662c0.064-0.178,0.106-0.307,0.118-0.387l0.053-0.357l0.355-0.062     c0.253-0.045,0.574,0.009,1.037,0.177c0.532,0.192,0.868,0.592,0.944,1.127c0.064,0.441-0.042,1.031-0.322,1.804l-0.19,0.53     c-0.262,0.726-0.57,1.195-0.942,1.434C364.752,47.083,364.49,47.195,364.153,47.195z M363.726,46.08     c0.048,0.019,0.104,0.04,0.17,0.064c0.266,0.096,0.405,0.039,0.5-0.021c0.08-0.052,0.294-0.245,0.54-0.931l0.191-0.531     c0.288-0.795,0.295-1.17,0.272-1.322c-0.021-0.145-0.077-0.25-0.294-0.329c-0.097-0.035-0.178-0.061-0.244-0.08     c-0.013,0.035-0.024,0.07-0.038,0.108L363.726,46.08z M367.906,36.674c-0.181,0-0.366-0.033-0.554-0.101     c-0.496-0.179-0.736-0.322-0.86-0.512l-0.137-0.209l1.222-3.386c0.066-0.182,0.107-0.313,0.121-0.396l0.058-0.349l0.349-0.061     c0.251-0.045,0.578,0.011,1.034,0.176c0.533,0.193,0.869,0.587,0.949,1.109c0.068,0.43-0.031,1.009-0.304,1.767l-0.063,0.17     c-0.261,0.728-0.569,1.217-0.942,1.494C368.511,36.575,368.216,36.674,367.906,36.674z M367.52,35.568     c0.048,0.019,0.105,0.04,0.17,0.064c0.196,0.07,0.34,0.054,0.493-0.059c0.115-0.085,0.348-0.334,0.598-1.032l0.064-0.171     c0.275-0.767,0.278-1.126,0.255-1.271c-0.021-0.137-0.079-0.242-0.301-0.322c-0.096-0.035-0.176-0.06-0.243-0.079     c-0.012,0.034-0.024,0.07-0.037,0.107L367.52,35.568z"/>
		</g>
		<g>
			<path style="fill:#FFB2B0;" d="M409.859,37.292l15.259,7.73c0.083,1.105-0.006,2.218-0.263,3.339     c-0.258,1.12-0.588,2.078-0.99,2.871c-0.902,1.781-1.929,2.944-3.081,3.49c-1.151,0.547-2.353,0.503-3.604-0.131l-10.658-5.398     c-0.652-0.331-1.108-0.239-1.367,0.272l-0.108,0.21c-0.053,0.107-0.071,0.186-0.053,0.239l12.64,6.403     c0.041,0.708-0.036,1.534-0.225,2.477c-0.244,1.007-0.544,1.863-0.902,2.567c-1.062,2.099-2.281,3.541-3.654,4.33l-5.739-2.906     c-2.681-1.358-4.547-2.176-5.601-2.455c-1.055-0.28-1.733-0.407-2.034-0.381c-0.31,0.042-0.527,0.187-0.653,0.434     c-0.124,0.247-0.099,0.503,0.077,0.769c1.068,0.165,2.135,0.44,3.204,0.825c1.384,0.547,2.853,1.213,4.404,1.999l7.431,3.764     c0.307,2.061-0.079,4.158-1.159,6.292c-0.608,1.199-1.338,2.269-2.191,3.209c-0.854,0.942-1.75,1.595-2.689,1.961l-19.807-10.033     c-2.187-1.108-3.673-2.525-4.458-4.253c-0.875-1.86-0.758-3.883,0.349-6.07l12.74-25.148c0.428-0.847,1.71-0.973,3.846-0.378     C402.708,33.914,405.804,35.238,409.859,37.292z"/>
			<path d="M407.877,79.749L387.87,69.615c-2.281-1.155-3.858-2.666-4.688-4.492c-0.936-1.99-0.817-4.18,0.358-6.502l12.74-25.149     c0.826-1.635,3.535-0.882,4.426-0.634c2.165,0.603,5.32,1.952,9.378,4.008l15.511,7.857l0.021,0.281     c0.086,1.146-0.007,2.319-0.274,3.488c-0.266,1.156-0.613,2.16-1.031,2.986c-0.949,1.874-2.065,3.124-3.314,3.716     c-1.291,0.614-2.652,0.569-4.044-0.137l-10.657-5.398c-0.329-0.167-0.479-0.146-0.529-0.13c-0.054,0.018-0.105,0.071-0.153,0.158     l12.505,6.334l0.016,0.288c0.042,0.743-0.037,1.619-0.234,2.604c-0.256,1.059-0.573,1.959-0.946,2.695     c-1.103,2.177-2.398,3.704-3.852,4.538l-0.234,0.134l-5.979-3.028c-2.638-1.335-4.489-2.149-5.503-2.418     c-1.354-0.359-1.756-0.378-1.862-0.367c-0.165,0.022-0.217,0.096-0.251,0.163c-0.012,0.022-0.025,0.05-0.023,0.091     c1.009,0.173,2.026,0.443,3.028,0.805c1.421,0.561,2.917,1.24,4.461,2.023l7.66,3.88l0.038,0.255     c0.322,2.155-0.084,4.373-1.207,6.591c-0.625,1.232-1.387,2.349-2.267,3.319c-0.9,0.994-1.869,1.697-2.877,2.091L407.877,79.749z      M398.367,33.452c-0.626,0-1.035,0.157-1.193,0.471l-12.74,25.149c-1.043,2.062-1.155,3.903-0.343,5.631     c0.736,1.619,2.158,2.97,4.231,4.02l19.603,9.929c0.792-0.351,1.563-0.938,2.298-1.747c0.819-0.904,1.53-1.947,2.114-3.1     c0.983-1.941,1.368-3.871,1.145-5.738l-7.195-3.645c-1.517-0.769-2.984-1.435-4.362-1.98c-1.018-0.367-2.064-0.636-3.096-0.796     l-0.219-0.034l-0.122-0.185c-0.273-0.414-0.312-0.865-0.106-1.271c0.203-0.398,0.561-0.64,1.033-0.704     c0.272-0.024,0.749,0.002,2.228,0.394c1.098,0.292,2.961,1.107,5.698,2.493l5.492,2.781c1.191-0.765,2.277-2.103,3.229-3.985     c0.339-0.667,0.629-1.495,0.862-2.459c0.152-0.759,0.227-1.45,0.222-2.047l-12.561-6.363l-0.064-0.196     c-0.092-0.277,0.039-0.536,0.082-0.621l0.108-0.213c0.218-0.43,0.525-0.607,0.746-0.679c0.371-0.122,0.806-0.058,1.292,0.188     l10.657,5.398c1.116,0.567,2.151,0.608,3.163,0.126c1.044-0.495,2.003-1.593,2.85-3.265c0.383-0.754,0.701-1.681,0.949-2.758     c0.224-0.975,0.314-1.953,0.269-2.91l-15.003-7.601c-4-2.026-7.094-3.351-9.194-3.937     C399.602,33.568,398.905,33.452,398.367,33.452z"/>
		</g>
		<g>
			<path style="fill:#FFB2B0;" d="M444.826,57.359l14.253,9.455c-0.047,1.108-0.265,2.204-0.651,3.287     c-0.386,1.083-0.825,1.996-1.317,2.736c-1.103,1.664-2.259,2.7-3.466,3.109c-1.208,0.407-2.396,0.223-3.565-0.551l-9.956-6.605     c-0.61-0.404-1.072-0.368-1.388,0.11l-0.132,0.198c-0.065,0.1-0.093,0.176-0.081,0.231l11.807,7.833     c-0.043,0.707-0.213,1.519-0.513,2.435c-0.36,0.97-0.758,1.786-1.194,2.445c-1.3,1.96-2.68,3.252-4.135,3.874l-5.362-3.556     c-2.503-1.66-4.262-2.691-5.276-3.092c-1.016-0.4-1.674-0.606-1.975-0.616c-0.313,0.005-0.546,0.123-0.698,0.355     c-0.153,0.23-0.159,0.488-0.015,0.773c1.042,0.287,2.07,0.686,3.086,1.193c1.311,0.706,2.692,1.537,4.14,2.499l6.942,4.605     c0.064,2.083-0.563,4.121-1.885,6.114c-0.743,1.119-1.593,2.097-2.55,2.932c-0.957,0.836-1.924,1.38-2.899,1.635L419.493,86.48     c-2.042-1.355-3.353-2.937-3.932-4.743c-0.652-1.951-0.299-3.947,1.055-5.988l15.585-23.492c0.525-0.791,1.812-0.766,3.865,0.073     C438.118,53.17,441.038,54.845,444.826,57.359z"/>
			<path d="M437.906,99.295l-18.689-12.399c-2.129-1.411-3.518-3.096-4.132-5.006c-0.698-2.088-0.324-4.25,1.114-6.417     l15.585-23.492c1.016-1.526,3.618-0.463,4.472-0.114c2.075,0.85,5.052,2.558,8.847,5.075l14.488,9.611l-0.012,0.282     c-0.049,1.148-0.277,2.303-0.681,3.434c-0.399,1.12-0.861,2.077-1.372,2.845c-1.158,1.749-2.411,2.861-3.723,3.306     c-1.354,0.456-2.701,0.253-4.001-0.608l-9.956-6.605c-0.307-0.203-0.462-0.205-0.511-0.19c-0.056,0.011-0.112,0.058-0.17,0.14     l11.68,7.748l-0.018,0.288c-0.045,0.746-0.226,1.607-0.536,2.56c-0.379,1.022-0.799,1.878-1.253,2.565     c-1.35,2.034-2.814,3.399-4.355,4.058l-0.248,0.106l-5.587-3.706c-2.462-1.633-4.206-2.657-5.183-3.044     c-1.304-0.513-1.699-0.577-1.808-0.581c-0.164,0.003-0.223,0.069-0.264,0.13c-0.015,0.022-0.032,0.049-0.035,0.091     c0.979,0.288,1.957,0.675,2.913,1.152c1.34,0.721,2.746,1.569,4.192,2.53l7.158,4.748l0.008,0.259     c0.066,2.181-0.597,4.336-1.969,6.405c-0.766,1.153-1.653,2.173-2.638,3.033c-1.012,0.882-2.055,1.468-3.102,1.742     L437.906,99.295z M433.51,52.184c-0.434,0-0.736,0.116-0.893,0.351l-15.584,23.491c-1.277,1.925-1.603,3.741-0.997,5.553     c0.543,1.695,1.799,3.202,3.733,4.485l18.31,12.147c0.828-0.256,1.663-0.75,2.486-1.468c0.918-0.801,1.747-1.753,2.462-2.832     c1.202-1.811,1.81-3.682,1.807-5.566l-6.723-4.459c-1.421-0.943-2.801-1.776-4.101-2.475c-0.97-0.484-1.978-0.874-2.982-1.151     l-0.213-0.059l-0.101-0.197c-0.225-0.443-0.209-0.896,0.045-1.276c0.17-0.257,0.5-0.568,1.105-0.578     c0.273,0.008,0.743,0.089,2.167,0.65c1.058,0.419,2.813,1.446,5.368,3.141l5.131,3.402c1.272-0.619,2.508-1.822,3.673-3.58     c0.412-0.623,0.797-1.411,1.143-2.342c0.239-0.734,0.394-1.412,0.458-2.008l-11.731-7.782l-0.043-0.2     c-0.061-0.285,0.1-0.529,0.151-0.609l0.137-0.203c0.264-0.399,0.59-0.539,0.816-0.584c0.38-0.079,0.807,0.035,1.263,0.337     l9.956,6.605c1.042,0.69,2.067,0.852,3.128,0.494c1.096-0.371,2.176-1.351,3.21-2.912c0.466-0.701,0.891-1.585,1.264-2.628     c0.336-0.944,0.54-1.905,0.606-2.86l-14.014-9.297c-3.74-2.481-6.658-4.158-8.673-4.982     C434.886,52.388,434.083,52.184,433.51,52.184z"/>
		</g>
		<g>
			<path style="fill:#FFB2B0;" d="M475.865,111.689l0.475,7.322c-2.277,2.107-4.56,3.274-6.849,3.497     c-2.288,0.224-4.497-0.577-6.626-2.405c-1.606-1.375-2.672-2.955-3.201-4.737c-0.693-2.26-0.512-4.761,0.54-7.504l1.081-2.899     c-0.618-0.556-1.342-1.321-2.173-2.294c-0.223,0.017-0.424,0.13-0.604,0.341c-0.348,0.404,0.053,1.166,1.203,2.284l-1.496,4.339     l-1.64,1.913c-2.768-0.265-5.502-1.555-8.202-3.871c-1.934-1.66-3.139-3.382-3.612-5.169c-0.473-1.785-0.059-3.436,1.24-4.951     l18.337-21.374c0.567-0.66,1.724-0.78,3.472-0.36c1.75,0.419,3.771,1.281,6.064,2.584c2.292,1.303,4.422,2.798,6.386,4.484     c4.5,3.86,7.226,7.799,8.178,11.819c1.01,4.225,0.01,8.094-3.002,11.604c-1.724,2.01-3.767,3.245-6.128,3.707     c-2.362,0.46-4.643,0.228-6.844-0.697c-0.411,0.48-0.329,0.967,0.249,1.463C473.292,111.279,474.343,111.58,475.865,111.689z      M468.655,96.598c0.022,0.097,0.175,0.268,0.46,0.512c0.285,0.244,0.599,0.319,0.942,0.222c0.343-0.097,0.733-0.399,1.171-0.909     l0.695-0.81c0.464-0.541,0.731-0.98,0.803-1.322c0.071-0.342-0.038-0.638-0.331-0.89c-0.293-0.25-0.518-0.39-0.674-0.42     c-0.049,0.088-0.151,0.22-0.305,0.4L468.655,96.598z"/>
			<path d="M468.749,123.044c-2.142,0-4.227-0.86-6.21-2.562c-1.672-1.432-2.8-3.105-3.354-4.975     c-0.722-2.353-0.536-4.987,0.553-7.825l0.962-2.58c-0.515-0.488-1.098-1.106-1.738-1.843c-0.022,0.02-0.046,0.044-0.072,0.075     c-0.001,0.002-0.068,0.396,1.172,1.601l0.227,0.221l-1.692,4.801l-1.809,2.11l-0.259-0.025c-2.859-0.274-5.712-1.616-8.479-3.99     c-2.005-1.721-3.273-3.545-3.77-5.42c-0.516-1.945-0.064-3.764,1.344-5.404l18.337-21.375c0.707-0.82,2.004-0.991,3.969-0.52     c1.787,0.428,3.871,1.315,6.194,2.636c2.309,1.312,4.483,2.839,6.465,4.539c4.561,3.912,7.366,7.977,8.339,12.084     c1.045,4.37-0.001,8.423-3.108,12.045c-1.792,2.088-3.949,3.391-6.413,3.871c-2.293,0.448-4.542,0.262-6.693-0.551     c0.017,0.113,0.105,0.255,0.328,0.448c0.338,0.29,1.108,0.661,2.859,0.786l0.436,0.031l0.52,7.995l-0.175,0.162     c-2.351,2.174-4.753,3.394-7.141,3.628C469.275,123.031,469.012,123.044,468.749,123.044z M459.328,102.15l0.164,0.193     c0.812,0.95,1.527,1.706,2.128,2.248l0.252,0.228l-1.199,3.217c-1.009,2.629-1.187,5.044-0.531,7.183     c0.5,1.686,1.525,3.199,3.048,4.504c2.012,1.727,4.113,2.497,6.252,2.288c2.108-0.206,4.255-1.285,6.384-3.207l-0.432-6.654     c-1.413-0.143-2.398-0.467-3.004-0.987c-1.124-0.963-0.587-1.837-0.304-2.168l0.237-0.277l0.336,0.142     c2.099,0.882,4.306,1.106,6.555,0.667c2.237-0.437,4.204-1.628,5.845-3.542c2.888-3.364,3.861-7.12,2.896-11.162     c-0.923-3.897-3.62-7.785-8.017-11.556c-1.934-1.658-4.056-3.148-6.309-4.429c-2.241-1.274-4.237-2.126-5.934-2.532     c-1.522-0.365-2.551-0.297-2.977,0.199l-18.336,21.374c-1.197,1.395-1.569,2.866-1.137,4.497     c0.443,1.677,1.605,3.331,3.454,4.918c2.524,2.164,5.102,3.417,7.668,3.726l1.406-1.641l1.362-3.951     c-0.651-0.654-1.74-1.892-1.007-2.745c0.268-0.313,0.586-0.487,0.945-0.513L459.328,102.15z M469.772,97.873     c-0.352,0-0.685-0.129-0.982-0.384c-0.396-0.338-0.57-0.557-0.622-0.778l-0.057-0.247l2.926-3.41     c0.123-0.143,0.208-0.247,0.247-0.317l0.176-0.316l0.355,0.068c0.25,0.048,0.537,0.216,0.905,0.531     c0.548,0.471,0.571,1.006,0.495,1.373c-0.091,0.429-0.389,0.935-0.912,1.545l-0.695,0.811c-0.507,0.59-0.97,0.938-1.414,1.064     C470.051,97.853,469.911,97.873,469.772,97.873z M469.304,96.609c0.038,0.035,0.083,0.075,0.137,0.12     c0.156,0.136,0.301,0.175,0.48,0.122c0.138-0.039,0.443-0.189,0.927-0.753l0.695-0.81c0.532-0.621,0.663-0.956,0.693-1.1     c0.028-0.134,0.01-0.255-0.168-0.408c-0.078-0.066-0.144-0.119-0.199-0.16c-0.023,0.028-0.048,0.057-0.073,0.086L469.304,96.609z     "/>
		</g>
		<g>
			<path style="fill:#FFB2B0;" d="M493.724,125.734c-0.381-1.057-0.844-1.872-1.39-2.444c-0.546-0.571-1.083-0.605-1.613-0.1     l-0.085,0.082c1.442,1.739,2.103,3.743,1.988,6.012c-0.116,2.269-1.006,4.198-2.672,5.787c-1.665,1.589-3.685,2.357-6.06,2.3     c-2.374-0.083-4.374-0.974-5.998-2.676c-1.624-1.702-2.408-3.731-2.353-6.093c0.054-2.362,0.926-4.347,2.613-5.958     c1.143-1.091,2.474-1.808,3.992-2.15c1.518-0.343,3.013-0.3,4.484,0.125c0.668-2.276,1.721-4.593,3.16-6.95     c1.439-2.358,3.194-4.525,5.267-6.504l6.99-6.672c1.003,0.191,2.097,0.635,3.283,1.334c1.185,0.699,2.249,1.54,3.191,2.527     c2.048,2.145,2.984,4.209,2.813,6.189c-0.172,1.981-1.539,4.193-4.097,6.635l-1.373,1.31     C502.562,121.641,498.516,124.056,493.724,125.734z"/>
			<path d="M484.133,137.875c-0.084,0-0.168-0.001-0.253-0.003c-2.504-0.088-4.638-1.04-6.348-2.831     c-1.712-1.794-2.55-3.964-2.491-6.45c0.058-2.487,0.988-4.609,2.767-6.307c1.206-1.15,2.628-1.916,4.228-2.277     c1.428-0.323,2.856-0.32,4.257,0.007c0.682-2.162,1.714-4.381,3.071-6.605c1.454-2.383,3.253-4.605,5.348-6.605l7.177-6.849     l0.253,0.048c1.054,0.2,2.212,0.67,3.442,1.395c1.219,0.717,2.328,1.596,3.299,2.611c2.141,2.244,3.133,4.457,2.949,6.578     c-0.182,2.096-1.611,4.435-4.249,6.954l-1.372,1.31c-3.341,3.187-7.486,5.662-12.321,7.354l-0.468,0.164l-0.168-0.466     c-0.355-0.987-0.786-1.75-1.281-2.268c-0.266-0.278-0.449-0.345-0.632-0.276c1.295,1.737,1.895,3.736,1.783,5.951     c-0.121,2.39-1.072,4.45-2.826,6.124C488.599,137.054,486.526,137.875,484.133,137.875z M484.159,120.768     c-0.632,0-1.267,0.072-1.902,0.215c-1.421,0.32-2.686,1.002-3.758,2.024c-1.602,1.53-2.405,3.364-2.457,5.607     c-0.053,2.242,0.671,4.118,2.214,5.736c1.545,1.618,3.395,2.442,5.654,2.521c2.252,0.047,4.116-0.654,5.698-2.163     c1.584-1.512,2.408-3.295,2.518-5.451c0.107-2.13-0.523-4.038-1.874-5.668l-0.296-0.356l0.418-0.404     c0.739-0.703,1.584-0.659,2.321,0.114c0.508,0.531,0.95,1.254,1.32,2.154c4.505-1.64,8.373-3.983,11.505-6.971l1.371-1.31     c2.457-2.346,3.784-4.471,3.944-6.317c0.157-1.822-0.743-3.774-2.676-5.8c-0.907-0.949-1.944-1.77-3.084-2.441     c-1.032-0.608-1.998-1.019-2.874-1.221l-6.799,6.49c-2.032,1.939-3.777,4.094-5.186,6.402c-1.409,2.309-2.454,4.606-3.107,6.83     l-0.14,0.478l-0.479-0.138C485.724,120.879,484.944,120.768,484.159,120.768z"/>
		</g>
	</g>
	<g>
		<g>
			<g>
				<g>
					<g>
						<path style="fill:#FFB500;" d="M213.585,113.744c-12.458-4.584-26.472-4.164-40.184,0.3        c-17.454,5.683-36.014,7.705-54.025,5.01c-15.067-2.255-29.816-0.052-41.909,7.281c-29.901,18.132-34.422,62.152-5.211,95.189        c61.892,69.999,141.838,27.156,162.727-15.225C254.489,166.726,246.08,125.703,213.585,113.744z M195.9,208.174        c-14.783,4.355-20.184-6.016-49.019-0.852c-13.95,2.499-27.701,15.026-42.178,10.311C92.894,213.786,84.551,203.45,80,193.54        c-5.636-12.271-6.899-30.477,6.148-40.495c9.002-6.912,21.521-4.332,32.023-3.494c17.769,1.416,36.535-0.571,53.13-7.266        c7.375-2.975,15.624-8.491,24.903-7.644C235.375,138.22,224.766,199.67,195.9,208.174z"/>
						<path d="M147.217,259.161c-21.529,0-49.126-7.663-75.335-37.305c-15.198-17.189-22.178-38.477-19.149-58.406        c2.451-16.124,11.142-29.457,24.475-37.542c11.828-7.172,26.435-9.714,42.242-7.348c17.241,2.581,35.844,0.855,53.795-4.991        c14.338-4.669,28.348-4.77,40.512-0.294l0,0c12.919,4.754,22.52,14.206,27.765,27.333c7.51,18.797,5.29,42.822-6.092,65.913        c-10.586,21.478-38.877,46.855-75.975,51.82C155.666,258.849,151.563,259.161,147.217,259.161z M108.177,118.701        c-11.278,0-21.652,2.726-30.451,8.062c-13.075,7.928-21.6,21.01-24.005,36.836c-2.984,19.636,3.908,40.628,18.909,57.594        c31.208,35.296,64.37,39.146,86.692,36.156c36.735-4.916,64.738-30.023,75.211-51.271c11.257-22.837,13.465-46.565,6.06-65.1        c-5.137-12.857-14.536-22.112-27.182-26.766c-11.95-4.397-25.733-4.292-39.857,0.307c-18.099,5.893-36.859,7.63-54.253,5.029        C115.516,118.983,111.799,118.701,108.177,118.701z M111.409,219.18c-2.271,0-4.557-0.321-6.86-1.071        c-14.663-4.776-22.37-18.627-25.003-24.36c-3.095-6.738-4.543-14.517-3.976-21.342c0.69-8.295,4.243-15.127,10.273-19.758        c7.861-6.036,18.415-4.971,27.725-4.033c1.578,0.159,3.131,0.316,4.643,0.436c19.106,1.522,37.401-0.978,52.903-7.231        c1.735-0.7,3.499-1.532,5.368-2.414c5.884-2.776,12.554-5.922,19.768-5.264c14.825,1.355,24.216,11.198,25.766,27.007        c1.796,18.32-8.429,42.335-25.973,47.503c-6.756,1.992-11.712,0.934-17.451-0.29c-7.051-1.505-15.828-3.378-31.621-0.549        c-5.039,0.902-10.177,3.184-15.146,5.392C125.184,216.155,118.374,219.18,111.409,219.18z M102.709,148.89        c-5.856,0-11.591,0.969-16.257,4.551c-8.949,6.872-14.274,21.871-5.998,39.89c2.578,5.613,10.117,19.172,24.404,23.826        c9.005,2.933,17.929-1.031,26.56-4.865c5.023-2.231,10.217-4.539,15.375-5.462c15.987-2.864,24.869-0.968,32.006,0.555        c5.837,1.246,10.447,2.229,16.96,0.309l0.141,0.48l-0.141-0.48c17.076-5.031,27.018-28.516,25.26-46.447        c-1.498-15.286-10.56-24.802-24.861-26.108c-6.946-0.639-13.201,2.317-19.25,5.172c-1.882,0.888-3.659,1.726-5.421,2.437        c-15.645,6.312-34.098,8.833-53.356,7.3c-1.518-0.121-3.078-0.278-4.664-0.438C109.984,149.259,106.324,148.89,102.709,148.89        z"/>
					</g>
					<g>
						<path style="fill:#FFB500;" d="M191.012,277.828l-53.348,7.241l-3.429-25.267c-0.397-2.927,1.654-5.622,4.581-6.019        l42.749-5.802c2.927-0.397,5.622,1.654,6.019,4.581L191.012,277.828z"/>
						<path d="M137.235,285.631l-3.497-25.762c-0.21-1.548,0.195-3.086,1.141-4.329c0.946-1.243,2.32-2.044,3.868-2.253        l42.749-5.802c1.546-0.212,3.084,0.195,4.328,1.141c1.243,0.946,2.044,2.32,2.254,3.868l3.496,25.763L137.235,285.631z         M182.293,248.431c-0.22,0-0.441,0.015-0.662,0.045l-42.749,5.802c-1.284,0.174-2.422,0.837-3.207,1.868        c-0.784,1.031-1.12,2.305-0.946,3.588l3.362,24.772l52.358-7.106l-3.362-24.772c-0.174-1.284-0.837-2.422-1.868-3.206        C184.367,248.773,183.347,248.431,182.293,248.431z"/>
					</g>
				</g>
				<g>
					<g>
						<path style="fill:#AD2328;" d="M227.972,502.1c-10.675,2.797-22.933,5.328-36.579,6.997        c-10.759,1.315-20.77,1.897-29.855,2.02c-0.904,0.123-6.149,0.746-10.843-2.971c-2.948-2.335-4.985-5.82-5.377-9.874        l-18.231-188.686c-1.432-14.818,9.101-28.119,23.853-30.121l26.027-3.533c14.781-2.006,28.498,8.05,31.032,22.75        l32.189,186.754C241.57,493.448,236.028,501.006,227.972,502.1z"/>
						<path d="M159.749,511.731c-2.269,0-5.966-0.503-9.364-3.193c-3.196-2.532-5.172-6.16-5.564-10.218L126.59,309.634        c-1.464-15.148,9.203-28.617,24.283-30.664l26.027-3.532c15.12-2.05,29,8.121,31.592,23.16l32.189,186.754        c0.691,4.01-0.253,8.025-2.659,11.307c-2.4,3.274-5.933,5.379-9.953,5.933c-11.997,3.143-24.316,5.499-36.616,7.002        c-9.886,1.209-19.949,1.89-29.909,2.023C161.177,511.668,160.552,511.731,159.749,511.731z M180.773,276.174        c-1.234,0-2.48,0.083-3.738,0.254l-26.027,3.532c-14.546,1.975-24.834,14.966-23.423,29.578l18.231,188.686        c0.366,3.784,2.209,7.169,5.189,9.529c4.291,3.398,9.094,3.055,10.465,2.867c9.985-0.138,20.011-0.816,29.862-2.02        c12.265-1.5,24.55-3.85,36.513-6.985l0.06-0.012c3.761-0.51,7.067-2.477,9.311-5.538c2.244-3.061,3.125-6.806,2.48-10.545        l-32.189-186.754C205.222,285.512,193.847,276.174,180.773,276.174z"/>
					</g>
					<g>
						
							<rect x="153.987" y="303.697" transform="matrix(0.9938 -0.1113 0.1113 0.9938 -43.8404 19.6971)" width="1" height="197.571"/>
					</g>
				</g>
			</g>
			<g>
				<g>
					<g>
						<path style="fill:#FF8806;" d="M130.572,192.631c5.385,4.012,13.254,6.572,24.039,5.562        c10.898-1.008,18.679-5.943,23.362-11.944c7.844-10.077,6.991-23.18-2.468-25.925c-15.105-4.381-23.053,11.14-23.053,11.14        s-19.1-14.656-29.3-1.403C119.541,174.753,121.376,185.814,130.572,192.631z"/>
						<path d="M150.079,198.91c-7.821,0-14.602-2.001-19.806-5.878c-5.058-3.75-8.408-9.122-9.191-14.738        c-0.478-3.422,0.132-6.534,1.673-8.537c9.484-12.325,26.509-1.166,29.536,0.974c1.571-2.675,9.605-14.877,23.353-10.886        c3.595,1.043,6.232,3.643,7.424,7.321c1.856,5.727,0.011,13.338-4.701,19.391c-5.392,6.91-13.813,11.22-23.71,12.135        C153.096,198.837,151.568,198.91,150.079,198.91z M134.41,165.055c-3.93,0-7.824,1.363-10.862,5.311        c-1.378,1.792-1.916,4.631-1.476,7.789c0.747,5.352,3.953,10.482,8.798,14.074l0.001,0.001        c5.992,4.465,14.182,6.356,23.694,5.465c9.621-0.89,17.794-5.064,23.014-11.754c4.513-5.798,6.295-13.047,4.538-18.467        c-1.103-3.402-3.437-5.708-6.751-6.67c-6.092-1.766-11.719-0.479-16.726,3.826c-3.757,3.231-5.724,7.023-5.744,7.061        l-0.273,0.534l-0.476-0.365C152.018,171.762,143.125,165.055,134.41,165.055z"/>
					</g>
					<g>
						<path d="M150.58,184.301c-8.252,0-14.937-5.644-18.321-9.189l0.724-0.69c3.522,3.689,10.74,9.739,19.454,8.777        c8.558-0.939,14.322-8.173,16.997-12.402l0.845,0.534c-2.77,4.381-8.758,11.877-17.732,12.862        C151.883,184.267,151.226,184.301,150.58,184.301z"/>
					</g>
				</g>
				<g>
					<path style="fill:#00C257;" d="M150.56,142.064c-13.081-1.253-15.05,19.075-1.947,20.33       C161.694,163.647,163.663,143.319,150.56,142.064z"/>
					<path d="M149.751,162.949c-0.389,0-0.784-0.019-1.186-0.058c-3.873-0.371-6.838-2.397-8.348-5.706       c-1.67-3.658-1.222-8.319,1.113-11.596c2.112-2.965,5.406-4.396,9.278-4.023c3.873,0.371,6.838,2.397,8.348,5.706       c1.67,3.658,1.222,8.319-1.113,11.596C155.95,161.526,153.106,162.949,149.751,162.949z M149.434,142.509       c-3.03,0-5.591,1.276-7.289,3.66c-2.135,2.997-2.544,7.257-1.018,10.601c1.355,2.97,4.031,4.791,7.534,5.126       c3.502,0.335,6.472-0.947,8.368-3.608c2.135-2.997,2.544-7.257,1.018-10.601c-1.355-2.97-4.031-4.79-7.534-5.126       C150.147,142.527,149.787,142.509,149.434,142.509z"/>
				</g>
				<g>
					<g>
						<g>
							
								<ellipse transform="matrix(0.7071 -0.7071 0.7071 0.7071 -66.997 116.3794)" style="fill:#FFFFFF;" cx="106.984" cy="139.062" rx="33.953" ry="33.953"/>
							<path d="M106.999,173.516c-0.193,0-0.387-0.002-0.581-0.005c-9.202-0.151-17.793-3.877-24.193-10.49         c-6.399-6.613-9.841-15.323-9.689-24.524c0.151-9.202,3.876-17.793,10.49-24.193c6.613-6.399,15.312-9.825,24.524-9.689         c9.201,0.151,17.794,3.876,24.193,10.49c6.4,6.613,9.841,15.323,9.69,24.524c-0.151,9.202-3.876,17.794-10.49,24.193         C124.469,170.086,115.986,173.516,106.999,173.516z M106.969,105.609c-8.726,0-16.962,3.33-23.248,9.413         c-6.421,6.214-10.038,14.557-10.185,23.491c-0.147,8.934,3.194,17.391,9.408,23.812c6.214,6.421,14.557,10.039,23.491,10.185         c8.927,0.131,17.391-3.195,23.812-9.409c6.421-6.213,10.039-14.556,10.185-23.491l0,0c0.147-8.934-3.194-17.391-9.408-23.812         c-6.214-6.421-14.557-10.038-23.491-10.185C107.345,105.611,107.157,105.609,106.969,105.609z"/>
						</g>
						<g>
							<path d="M107.425,112.221c-14.26-0.234-26.01,11.136-26.244,25.396c-0.006,0.349,0.027,0.688,0.035,1.034l18.192,0.38         l-15.95,9.564c3.976,8.852,12.774,15.096,23.119,15.266c14.26,0.234,26.01-11.136,26.244-25.396         C133.055,124.205,121.685,112.455,107.425,112.221z"/>
							<path d="M107.006,164.364c-0.146,0-0.291-0.001-0.438-0.003c-10.145-0.167-19.396-6.275-23.566-15.561l-0.182-0.405         l14.842-8.9l-16.935-0.354l-0.011-0.479c-0.003-0.131-0.01-0.261-0.017-0.391c-0.011-0.22-0.022-0.439-0.018-0.662         c0.238-14.513,12.249-26.14,26.752-25.887l0,0c14.513,0.239,26.125,12.239,25.888,26.752         C133.084,152.838,121.321,164.364,107.006,164.364z M84.099,148.793c4.097,8.708,12.874,14.41,22.485,14.568         c13.984,0.243,25.507-10.943,25.736-24.904c0.229-13.961-10.943-25.506-24.904-25.735         c-13.944-0.258-25.506,10.943-25.735,24.904c-0.003,0.181,0.005,0.358,0.014,0.535l19.458,0.407L84.099,148.793z"/>
						</g>
					</g>
					<g>
						<g>
							<path style="fill:#FFFFFF;" d="M154.758,135.386c3.575,18.408,21.396,30.432,39.803,26.857         c18.408-3.575,30.432-21.395,26.857-39.803c-3.575-18.408-21.395-30.432-39.803-26.857         C163.207,99.158,151.183,116.979,154.758,135.386z"/>
							<path d="M188.016,163.377c-6.797,0-13.438-2.017-19.198-5.904c-7.628-5.148-12.796-12.958-14.55-21.992l0,0         c-1.755-9.034,0.114-18.21,5.261-25.839c5.147-7.628,12.958-12.796,21.992-14.55c9.034-1.754,18.21,0.114,25.839,5.262         c7.628,5.148,12.796,12.957,14.55,21.991c1.754,9.034-0.114,18.21-5.262,25.839c-5.147,7.628-12.957,12.796-21.991,14.55         C192.444,163.164,190.221,163.377,188.016,163.377z M188.158,95.45c-2.142,0-4.298,0.207-6.447,0.623         c-8.772,1.704-16.355,6.721-21.353,14.129c-4.998,7.407-6.812,16.317-5.109,25.089l0,0         c1.704,8.772,6.721,16.355,14.128,21.353c7.407,4.999,16.317,6.813,25.089,5.109c8.771-1.704,16.355-6.721,21.353-14.128         c4.998-7.407,6.812-16.317,5.109-25.089c-1.704-8.771-6.721-16.355-14.128-21.353         C201.207,97.409,194.757,95.45,188.158,95.45z"/>
						</g>
						<g>
							<path d="M182.97,102.561c14-2.719,27.554,6.426,30.273,20.426c0.067,0.342,0.093,0.682,0.146,1.024l-17.846,3.549         l17.374,6.634c-2.37,9.41-9.944,17.093-20.1,19.066c-14,2.719-27.554-6.426-30.273-20.427         C159.824,118.833,168.97,105.28,182.97,102.561z"/>
							<path d="M187.884,154.237c-12.345,0.001-23.392-8.747-25.831-21.308c-1.34-6.902,0.087-13.913,4.02-19.742         c3.933-5.829,9.9-9.776,16.802-11.117l0,0c6.902-1.341,13.914,0.087,19.742,4.02c5.829,3.933,9.776,9.9,11.117,16.802         c0.042,0.218,0.07,0.436,0.097,0.653c0.016,0.13,0.032,0.26,0.052,0.39l0.073,0.473l-16.614,3.304l16.167,6.173l-0.108,0.431         c-2.487,9.872-10.53,17.501-20.49,19.435C191.224,154.079,189.542,154.237,187.884,154.237z M183.065,103.052         c-6.64,1.29-12.38,5.087-16.164,10.694c-3.783,5.607-5.157,12.352-3.867,18.992c2.663,13.707,15.98,22.696,29.687,20.031         c9.436-1.833,17.083-8.98,19.598-18.268l-18.577-7.093l19.088-3.796c-0.022-0.176-0.045-0.353-0.079-0.53         c-1.29-6.64-5.087-12.38-10.695-16.163C196.45,103.136,189.707,101.764,183.065,103.052L183.065,103.052z"/>
						</g>
					</g>
				</g>
			</g>
		</g>
		<g>
			<g>
				<g>
					<g>
						<g>
							<path style="fill:#FFB500;" d="M461.671,144.543c-0.2-1.551-0.76-3.142-1.752-4.726c-2.596-4.146-7.111-7.226-11.694-8.779         c-8.386-2.841-17.941-2.854-26.563-1.187c-14.647,2.832-27.621,11.054-38.629,20.848c-3.41,3.034-6.731,6.168-9.965,9.388         c-1.004,1-2.495,2.685-3.918,4.007c9.676-4.023,19.523-7.94,29.87-9.847c12.394-2.285,23.452,0.656,35.452,3.24         C444.075,159.554,463.605,159.543,461.671,144.543z"/>
							<path d="M366.764,165.628l2.045-1.899c0.888-0.825,1.807-1.798,2.618-2.656c0.477-0.505,0.916-0.969,1.288-1.339         c3.273-3.26,6.633-6.425,9.985-9.408c12.817-11.403,25.894-18.456,38.866-20.965c9.551-1.846,19.074-1.418,26.818,1.204         c5.105,1.729,9.464,5.005,11.958,8.986c0.993,1.587,1.606,3.245,1.824,4.928l0,0c0.546,4.237-0.532,7.631-3.204,10.089         c-6.055,5.564-18.309,4.761-24.598,3.407c-1.114-0.24-2.222-0.483-3.321-0.725c-10.692-2.348-20.792-4.566-31.935-2.512         c-10.215,1.883-19.91,5.718-29.769,9.817L366.764,165.628z M433.15,129.231c-3.712,0-7.549,0.369-11.394,1.112         c-12.793,2.474-25.71,9.449-38.392,20.73c-3.338,2.97-6.684,6.122-9.944,9.369c-0.366,0.365-0.797,0.821-1.267,1.318         c-0.276,0.293-0.565,0.598-0.861,0.907c9.111-3.749,18.135-7.16,27.636-8.911c11.344-2.092,21.536,0.147,32.33,2.518         c1.1,0.241,2.205,0.484,3.318,0.724c5.679,1.223,17.945,2.134,23.71-3.166c2.419-2.225,3.392-5.328,2.889-9.225         c-0.198-1.539-0.764-3.061-1.68-4.525c-2.339-3.734-6.612-6.938-11.431-8.57C443.589,129.997,438.498,129.231,433.15,129.231         z"/>
						</g>
						<g>
							<path style="fill:#FFFFFF;" d="M445.251,152.376c0.054,1.095,1.122,1.85,2.156,1.792c2.711-0.152,5.328-1.202,7.114-3.3         c1.68-1.973,2.47-4.571,2.764-7.106c0.128-1.104-0.528-2.049-1.624-2.286c-1.009-0.218-2.166,0.593-2.286,1.624         c-0.066,0.569-0.152,1.135-0.274,1.695c-0.061,0.282-0.134,0.561-0.208,0.84c-0.005,0.019-0.006,0.022-0.01,0.036         c-0.037,0.11-0.073,0.22-0.113,0.329c-0.169,0.461-0.367,0.911-0.601,1.343c-0.056,0.104-0.125,0.204-0.176,0.31         c-0.13,0.182-0.258,0.363-0.4,0.537c-0.147,0.18-0.303,0.353-0.467,0.518c-0.049,0.05-0.099,0.098-0.149,0.146         c-0.037,0.035-0.032,0.031-0.034,0.033c-0.042,0.028-0.087,0.057-0.114,0.078c-0.186,0.145-0.38,0.279-0.58,0.404         c-0.101,0.063-0.205,0.12-0.307,0.181c-0.006,0.002,0.001-0.002-0.007,0.001c-0.497,0.162-0.962,0.376-1.472,0.509         c-0.019,0.003-0.009,0.002-0.038,0.007c-0.167,0.027-0.333,0.056-0.501,0.078c-0.293,0.038-0.587,0.061-0.882,0.077         C445.937,150.282,445.199,151.335,445.251,152.376z"/>
						</g>
					</g>
					<g>
						<g>
							<path style="fill:#FFB500;" d="M279.16,108.168c0.748-1.373,1.847-2.653,3.346-3.77c3.922-2.924,9.246-4.159,14.08-3.946         c8.845,0.39,17.756,3.84,25.189,8.517c12.626,7.946,21.74,20.311,28.452,33.426c2.079,4.063,4.039,8.187,5.887,12.361         c0.574,1.296,1.353,3.406,2.2,5.155c-7.561-7.255-15.32-14.473-24.273-20c-10.724-6.62-22.097-7.885-34.217-9.825         C290.122,128.534,271.923,121.448,279.16,108.168z"/>
							<path d="M359.977,162.201l-2.01-1.929c-7.705-7.393-15.353-14.48-24.19-19.936c-9.642-5.952-19.858-7.543-30.674-9.228         c-1.113-0.174-2.233-0.348-3.359-0.528c-6.351-1.016-18.065-4.706-21.691-12.087c-1.601-3.259-1.376-6.813,0.668-10.564         c0.811-1.489,1.984-2.812,3.486-3.932c3.767-2.808,9-4.282,14.401-4.044c8.167,0.36,17.199,3.412,25.433,8.593         c11.183,7.038,20.815,18.35,28.631,33.622c2.042,3.991,4.026,8.158,5.898,12.385c0.213,0.482,0.454,1.073,0.716,1.717         c0.445,1.093,0.949,2.332,1.478,3.422L359.977,162.201z M295.524,100.929c-4.738,0-9.429,1.416-12.72,3.87         c-1.386,1.033-2.464,2.247-3.205,3.608l0,0c-1.88,3.45-2.099,6.695-0.65,9.645c3.453,7.029,15.215,10.623,20.952,11.541         c1.125,0.18,2.243,0.354,3.354,0.527c10.919,1.701,21.232,3.308,31.046,9.366c8.221,5.074,15.396,11.522,22.531,18.319         c-0.164-0.395-0.322-0.784-0.474-1.157c-0.258-0.634-0.495-1.216-0.704-1.689c-1.864-4.21-3.841-8.36-5.875-12.335         c-7.732-15.11-17.245-26.29-28.273-33.23c-8.088-5.09-16.946-8.088-24.944-8.441         C296.217,100.937,295.87,100.929,295.524,100.929z"/>
						</g>
						<g>
							<g>
								<path style="fill:#FFFFFF;" d="M286.058,111.919c0-0.001,0-0.001,0-0.002C286.058,111.779,286.092,111.522,286.058,111.919z          "/>
							</g>
							<g>
								<path style="fill:#FFFFFF;" d="M284.678,107.827c1.019,0.22,1.848,1.2,1.624,2.286c-0.103,0.5-0.184,1.003-0.227,1.512          c-0.011,0.136-0.014,0.272-0.026,0.408c0.005-0.059,0.006-0.072,0.01-0.114c-0.001,0.224,0.007,0.448,0.023,0.672          c0.016,0.216,0.04,0.432,0.072,0.646c0.013,0.085,0.029,0.17,0.045,0.255c0.109,0.399,0.233,0.79,0.4,1.17          c0.033,0.075,0.068,0.148,0.102,0.222c0.096,0.168,0.192,0.336,0.297,0.5c0.233,0.363,0.491,0.708,0.767,1.039          c0.055,0.066,0.112,0.13,0.168,0.195l0,0c0.162,0.167,0.323,0.335,0.491,0.498c0.365,0.355,0.747,0.693,1.137,1.021          c0.793,0.667,0.95,2.015,0.223,2.795c-0.736,0.79-1.945,0.938-2.795,0.223c-1.701-1.43-3.216-3.084-4.116-5.138          c-0.9-2.055-0.928-4.397-0.48-6.565C282.602,108.437,283.606,107.595,284.678,107.827z"/>
							</g>
						</g>
					</g>
					<g>
						<g>
							<path style="fill:#FFB500;" d="M347.434,66.799c1.512-0.398,3.197-0.477,5.038-0.153c4.818,0.846,9.369,3.872,12.532,7.535         c5.785,6.702,9.391,15.551,11.089,24.167c2.884,14.637,0.143,29.751-4.792,43.633c-1.529,4.3-3.184,8.556-4.952,12.764         c-0.549,1.306-1.549,3.322-2.24,5.138c0.09-10.478,0.016-21.076-2.107-31.381c-2.544-12.343-9.427-21.484-16.333-31.632         C340.142,88.749,332.808,70.648,347.434,66.799z"/>
							<path d="M363.585,162.668l0.023-2.789c0.092-10.675,0-21.101-2.097-31.275c-2.287-11.099-8.14-19.623-14.337-28.647         c-0.638-0.929-1.278-1.862-1.92-2.805c-3.618-5.317-8.974-16.371-6.092-24.073c1.272-3.4,4.012-5.675,8.144-6.762l0,0         c1.64-0.431,3.407-0.486,5.252-0.163c4.627,0.813,9.301,3.62,12.824,7.701c5.342,6.189,9.319,14.854,11.199,24.398         c2.555,12.964,0.936,27.733-4.812,43.897c-1.501,4.224-3.17,8.528-4.961,12.79c-0.204,0.486-0.471,1.069-0.76,1.704         c-0.489,1.072-1.044,2.287-1.474,3.417L363.585,162.668z M347.561,67.283c-3.799,1-6.31,3.067-7.461,6.146         c-2.744,7.334,2.713,18.356,5.982,23.16c0.641,0.941,1.281,1.874,1.918,2.802c6.256,9.109,12.164,17.714,14.491,29.011         c1.951,9.463,2.183,19.107,2.136,28.96c0.174-0.389,0.348-0.77,0.514-1.134c0.285-0.624,0.547-1.198,0.748-1.676         c1.783-4.245,3.446-8.531,4.941-12.738c5.686-15.993,7.291-30.584,4.772-43.369c-1.848-9.376-5.745-17.877-10.977-23.938         c-3.375-3.91-7.836-6.596-12.24-7.369C350.686,66.839,349.061,66.889,347.561,67.283L347.561,67.283z"/>
						</g>
						<g>
							<path style="fill:#FFFFFF;" d="M346.054,70.588c1.38-0.97,2.956-1.289,4.613-1.195c1.038,0.059,1.833,1.319,1.624,2.286         c-0.248,1.147-1.174,1.687-2.286,1.624c0.516,0.029,0.085,0.005-0.039,0.009c-0.155,0.006-0.31,0.019-0.463,0.039         c-0.059,0.007-0.118,0.016-0.176,0.026c-0.011,0.003-0.007,0.002-0.02,0.005c-0.061,0.017-0.121,0.036-0.18,0.056         c-0.139,0.046-0.271,0.106-0.408,0.156c-0.011,0.004-0.003,0-0.012,0.003c-0.204,0.127-0.407,0.251-0.597,0.399         c-0.023,0.019-0.047,0.037-0.07,0.056c-0.071,0.073-0.175,0.164-0.198,0.188c-0.176,0.185-0.341,0.381-0.496,0.584         c-0.017,0.023-0.167,0.271-0.214,0.304c-0.002,0.003-0.004,0.006-0.005,0.009c-0.146,0.249-0.279,0.506-0.4,0.768         c-0.113,0.245-0.216,0.496-0.309,0.75c-0.023,0.063-0.198,0.512-0.073,0.197c0.127-0.318-0.055,0.206-0.072,0.27         c-0.137,0.525-0.235,1.061-0.294,1.6c-0.014,0.133-0.027,0.266-0.036,0.399c-0.005,0.066-0.009,0.132-0.012,0.199         c-0.008,0.149-0.006,0.088,0.006-0.184c-0.079,0.074,0.007,0.667,0.013,0.775c0.014,0.249,0.038,0.498,0.073,0.746         c0.017,0.117,0.043,0.234,0.06,0.351c0.007,0.028,0.014,0.056,0.022,0.084c0.27,1-0.106,2.199-1.186,2.54         c-0.953,0.301-2.251-0.117-2.54-1.186c-0.751-2.778-0.41-5.882,0.872-8.46C343.909,72.665,344.837,71.443,346.054,70.588z"/>
						</g>
					</g>
				</g>
				<g>
					<g>
						<path style="fill:#004421;" d="M444.288,294.95l-13.572,204.796c-0.382,5.764-4.92,10.405-10.675,10.84        c-20.685,1.566-44.247,2.073-70.118,0.443c-28.679-1.805-54.304-5.857-76.264-10.653c-5.612-1.231-9.468-6.406-9.089-12.139        l13.576-204.859c0.912-13.756,6.317-26.843,15.382-37.227l39.819-45.649c3.775-4.32,6.094-9.712,6.642-15.423l2.276-23.951        l54.596,4.18l-0.893,24.042c-0.21,5.733,1.376,11.394,4.537,16.174l33.448,50.494        C441.568,267.519,445.2,281.194,444.288,294.95z"/>
						<path d="M381.77,512.527c-10.65,0-21.295-0.333-31.878-1c-25.645-1.614-51.329-5.202-76.339-10.664        c-5.8-1.271-9.875-6.714-9.481-12.66l13.576-204.859c0.913-13.789,6.42-27.115,15.504-37.522l39.819-45.649        c3.725-4.263,5.979-9.5,6.52-15.142l2.323-24.439l55.564,4.254l-0.911,24.523c-0.208,5.668,1.332,11.159,4.454,15.879        l33.448,50.493c7.63,11.525,11.33,25.461,10.417,39.241l-13.572,204.796c-0.397,5.995-5.185,10.855-11.136,11.305        C407.377,512.046,394.571,512.527,381.77,512.527z M342.717,161.665l-2.229,23.462c-0.561,5.853-2.9,11.283-6.763,15.705        l-39.819,45.648c-8.941,10.244-14.361,23.359-15.26,36.932L265.07,488.271c-0.361,5.457,3.377,10.451,8.697,11.617        c24.96,5.451,50.594,9.031,76.188,10.642c23.255,1.463,46.823,1.316,70.049-0.442c5.459-0.413,9.85-4.872,10.214-10.375        l13.572-204.796c0.898-13.563-2.743-27.279-10.253-38.623l-33.448-50.494c-3.237-4.895-4.835-10.59-4.62-16.468l0.876-23.562        L342.717,161.665z"/>
					</g>
					<g>
						<path style="fill:#004421;" d="M396.615,171.126l-55.417-3.673c-2.427-0.161-4.264-2.259-4.103-4.686l0.375-5.657        c0.161-2.427,2.259-4.264,4.686-4.103l55.417,3.672c2.427,0.161,4.264,2.259,4.103,4.686l-0.375,5.657        C401.139,169.45,399.042,171.287,396.615,171.126z"/>
						<path d="M396.913,171.636c-0.11,0-0.221-0.004-0.332-0.011l-55.417-3.672c-2.697-0.179-4.747-2.519-4.569-5.217l0.375-5.658        c0.179-2.698,2.504-4.751,5.218-4.569l55.418,3.673c1.307,0.086,2.502,0.677,3.364,1.663c0.863,0.985,1.291,2.248,1.204,3.555        l-0.375,5.657c-0.086,1.307-0.677,2.502-1.662,3.365C399.235,171.211,398.101,171.636,396.913,171.636z M341.861,153.498        c-2.035,0-3.756,1.585-3.893,3.646l-0.375,5.657c-0.142,2.148,1.49,4.011,3.638,4.153l55.417,3.672        c1.046,0.07,2.047-0.272,2.83-0.958c0.785-0.688,1.255-1.639,1.323-2.679l0.375-5.658c0.069-1.041-0.272-2.046-0.958-2.83        c-0.686-0.785-1.638-1.254-2.679-1.323l-55.418-3.673C342.035,153.501,341.948,153.498,341.861,153.498z"/>
					</g>
					<g>
						<g>
							<path style="fill:#00C257;" d="M419.912,439.765c-0.13,10.615-0.262,21.259-1.524,31.813         c-0.585,4.892-1.394,9.816-2.719,14.567c-1.151,4.127-2.85,8.229-5.896,11.33c-3.255,3.315-7.723,5.289-12.363,5.475         c-3.393,0.136-3.41,5.427,0,5.29c4.821-0.194,9.54-1.78,13.401-4.697c4.099-3.096,6.822-7.291,8.661-12.042         c1.876-4.846,2.807-10.067,3.571-15.187c0.849-5.691,1.367-11.423,1.665-17.168c0.334-6.455,0.415-12.919,0.494-19.381         C425.243,436.36,419.953,436.358,419.912,439.765z"/>
						</g>
						<g>
							<path style="fill:#00C257;" d="M398.044,162.107c0.007-0.288-0.03-0.557-0.11-0.807c-0.052-0.26-0.14-0.484-0.265-0.674         c-0.222-0.363-0.587-0.637-0.907-0.613c-0.332,0.024-0.676,0.202-0.907,0.613c-0.218,0.387-0.406,0.935-0.376,1.48         c0.042,0.75,0.032,1.502-0.015,2.25c-0.036,0.374-0.076,0.747-0.134,1.113c-0.084,0.53-0.041,1.138,0.129,1.613         c0.156,0.434,0.461,0.849,0.766,0.962c0.328,0.122,0.697,0.096,0.988-0.211c0.279-0.293,0.504-0.715,0.589-1.251         C398.033,165.135,398.128,163.599,398.044,162.107z"/>
						</g>
						<g>
							<path style="fill:#00C257;" d="M327.951,222.242c-1.082-1.082-2.646-0.924-3.741,0         c-14.207,11.989-26.398,26.313-36.02,42.217c-1.767,2.921,2.806,5.582,4.568,2.67c9.402-15.542,21.312-29.432,35.193-41.147         C329.043,225.061,328.901,223.192,327.951,222.242z"/>
						</g>
					</g>
				</g>
				<g>
					
						<rect x="310.292" y="282.811" transform="matrix(0.0661 -0.9978 0.9978 0.0661 -32.7095 697.2164)" style="fill:#FFFFFF;" width="91.656" height="166.543"/>
					<path d="M436.645,417.849l-0.499-0.033L269.468,406.77l6.127-92.453l0.499,0.033l166.678,11.045L436.645,417.849z        M270.533,405.838l165.181,10.947l5.994-90.458L276.527,315.38L270.533,405.838z"/>
				</g>
			</g>
			<g>
				<g>
					<g>
						<g>
							<g>
								<path d="M444.204,352.155c-0.511,0-1.034-0.02-1.57-0.063c-3.03-0.246-6.012-1.22-8.622-2.818          c-0.235-0.144-0.31-0.452-0.166-0.687c0.145-0.238,0.455-0.31,0.687-0.165c2.478,1.516,5.307,2.44,8.181,2.673          c4.171,0.342,7.536-0.805,9.628-1.823c0.244-0.119,0.548-0.018,0.668,0.231c0.121,0.249,0.018,0.547-0.23,0.668          C450.844,351.112,447.872,352.155,444.204,352.155z"/>
							</g>
							<g>
								<path d="M442.149,334.776c-2.443,0-4.894-0.461-7.179-1.359c-0.257-0.101-0.384-0.391-0.283-0.648          c0.102-0.257,0.392-0.384,0.648-0.283c2.703,1.062,5.651,1.479,8.522,1.21c4.162-0.392,7.28-2.104,9.163-3.47          c0.223-0.161,0.536-0.113,0.698,0.111c0.162,0.223,0.113,0.536-0.11,0.698c-1.984,1.44-5.271,3.242-9.657,3.655          C443.352,334.749,442.75,334.776,442.149,334.776z"/>
							</g>
							<g>
								<path d="M434.214,317.224c-0.509,0-1.018-0.02-1.525-0.059c-0.275-0.022-0.481-0.262-0.459-0.538          c0.022-0.276,0.269-0.479,0.537-0.46c2.897,0.23,5.837-0.232,8.504-1.329c3.865-1.589,6.35-4.136,7.753-5.992          c0.165-0.221,0.479-0.265,0.7-0.098c0.22,0.167,0.264,0.48,0.097,0.7c-1.479,1.957-4.096,4.64-8.169,6.315          C439.307,316.727,436.763,317.224,434.214,317.224z"/>
							</g>
						</g>
						<g>
							<g>
								<g>
									<path style="fill:#FFFFFF;" d="M369.725,336.167c-1.198,21.256,5.327,40.03,15.784,49.263           c4.084,3.594,8.746,5.731,13.811,6.009c18.009,0.988,33.957-22.158,35.621-51.693           c1.664-29.535-11.586-54.284-29.594-55.272c-4.793-0.263-9.433,1.177-13.68,3.979           C379.881,296.224,370.948,314.466,369.725,336.167z"/>
									<path d="M400.422,391.97c-0.376,0-0.752-0.01-1.13-0.031c-5.057-0.277-9.805-2.341-14.113-6.133           c-10.852-9.581-17.113-29.076-15.953-49.667l0,0c1.19-21.129,9.891-40.011,22.165-48.103           c4.484-2.958,9.204-4.323,13.983-4.061c6.13,0.336,11.959,3.406,16.854,8.879c9.34,10.439,14.278,27.979,13.211,46.92           C433.797,368.924,418.211,391.97,400.422,391.97z M370.224,336.196c-1.143,20.296,4.986,39.475,15.616,48.859           c4.135,3.64,8.68,5.62,13.507,5.885c0.361,0.02,0.724,0.029,1.083,0.029c17.261,0.003,32.399-22.632,34.012-51.252           c1.053-18.681-3.792-35.951-12.958-46.197c-4.715-5.27-10.305-8.226-16.164-8.547c-4.581-0.25-9.078,1.06-13.378,3.897           C379.922,296.795,371.398,315.371,370.224,336.196L370.224,336.196z"/>
								</g>
							</g>
							<g>
								<path d="M394.259,297.607c3.187-2.283,6.664-3.464,10.25-3.266c13.472,0.741,23.305,20.734,21.963,44.652          c-0.065,1.148-0.161,2.28-0.274,3.403l-25.592-8.549l23.328,20.738c-4.447,15.969-13.934,26.946-24.289,26.377          c-3.789-0.208-7.271-1.923-10.315-4.82c-7.794-7.441-12.615-22.619-11.648-39.833          C378.669,318.735,385.413,303.936,394.259,297.607z"/>
								<path d="M400.424,381.482c-0.269,0-0.537-0.007-0.807-0.022c-3.819-0.21-7.396-1.878-10.632-4.957          c-8.232-7.859-12.755-23.271-11.803-40.223c0.961-17.132,7.55-32.472,16.784-39.081c3.391-2.428,6.942-3.56,10.568-3.358          c4.326,0.238,8.471,2.44,11.987,6.37c7.328,8.191,11.331,23.062,10.447,38.809c-0.058,1.035-0.147,2.155-0.275,3.425          l-0.062,0.623l-23.872-7.974l21.738,19.324l-0.084,0.301C419.854,371.097,410.499,381.481,400.424,381.482z           M403.724,294.819c-3.13,0-6.212,1.072-9.175,3.194l0,0c-8.998,6.438-15.423,21.481-16.368,38.323          c-0.922,16.415,3.59,31.897,11.495,39.443c3.058,2.91,6.421,4.486,9.996,4.683c9.653,0.512,19.179-9.787,23.695-25.711          l-24.917-22.151l27.31,9.123c0.095-1.003,0.164-1.91,0.212-2.757c0.869-15.492-3.037-30.086-10.194-38.086          c-3.336-3.728-7.242-5.815-11.297-6.039C404.228,294.826,403.976,294.819,403.724,294.819z"/>
							</g>
						</g>
						<g>
							<path style="fill:#FFFFFF;" d="M395.233,317.242c0.922,6.243,6.73,10.557,12.972,9.635s10.557-6.73,9.635-12.973         c-0.922-6.243-6.73-10.556-12.972-9.635C398.625,305.191,394.311,310.999,395.233,317.242z"/>
							<path d="M406.529,327.501c-5.812,0-10.917-4.267-11.791-10.185v0c-0.959-6.505,3.552-12.58,10.057-13.54         c6.507-0.96,12.58,3.551,13.541,10.056c0.465,3.152-0.325,6.296-2.225,8.854c-1.899,2.557-4.681,4.222-7.832,4.687         C407.691,327.459,407.106,327.501,406.529,327.501z M395.728,317.169c0.879,5.961,6.453,10.093,12.404,9.213         c2.888-0.426,5.436-1.951,7.176-4.294c1.74-2.343,2.464-5.224,2.037-8.111c-0.879-5.961-6.454-10.092-12.404-9.213         C398.981,305.644,394.848,311.209,395.728,317.169L395.728,317.169z"/>
						</g>
						<g>
							<path style="fill:#FFFFFF;" d="M384.521,330.267c0.526,3.563,3.841,6.025,7.403,5.499c3.563-0.526,6.025-3.841,5.499-7.403         c-0.526-3.563-3.841-6.025-7.403-5.499C386.456,323.39,383.995,326.704,384.521,330.267z"/>
							<path d="M390.957,336.337c-1.497,0-2.949-0.477-4.172-1.386c-1.506-1.118-2.485-2.755-2.76-4.611v0         c-0.273-1.855,0.191-3.707,1.31-5.212c1.118-1.505,2.756-2.485,4.61-2.759c1.857-0.274,3.706,0.191,5.212,1.309         c1.506,1.118,2.485,2.756,2.76,4.611c0.273,1.855-0.191,3.705-1.309,5.211c-1.118,1.505-2.756,2.485-4.61,2.759         C391.65,336.312,391.302,336.337,390.957,336.337z M390.984,323.293c-0.296,0-0.594,0.022-0.892,0.066         c-1.591,0.235-2.995,1.075-3.954,2.366c-0.959,1.291-1.357,2.878-1.122,4.469v0c0.234,1.591,1.074,2.995,2.365,3.954         c1.292,0.959,2.877,1.357,4.47,1.123c1.591-0.235,2.995-1.075,3.954-2.366c0.959-1.291,1.357-2.878,1.122-4.469         c-0.234-1.591-1.074-2.996-2.366-3.955C393.512,323.702,392.267,323.293,390.984,323.293z"/>
						</g>
					</g>
					<g>
						<g>
							<g>
								<path d="M271.469,338.682c-0.243,0-0.486-0.005-0.729-0.014c-4.401-0.168-7.783-1.785-9.845-3.112          c-0.232-0.149-0.3-0.459-0.15-0.691c0.149-0.232,0.459-0.299,0.691-0.15c1.957,1.259,5.166,2.793,9.343,2.954          c2.869,0.109,5.8-0.472,8.441-1.683c0.249-0.115,0.547-0.006,0.662,0.246c0.115,0.251,0.005,0.548-0.246,0.663          C277.076,338.069,274.267,338.682,271.469,338.682z"/>
							</g>
							<g>
								<path d="M275.606,321.672c-1.381,0-2.76-0.145-4.105-0.436c-4.309-0.933-7.355-3.112-9.154-4.777          c-0.202-0.188-0.215-0.504-0.027-0.706c0.189-0.203,0.503-0.215,0.707-0.027c1.706,1.58,4.599,3.649,8.686,4.533          c2.818,0.61,5.795,0.545,8.605-0.189c0.27-0.068,0.54,0.091,0.609,0.358c0.07,0.267-0.09,0.54-0.357,0.61          C278.949,321.461,277.276,321.672,275.606,321.672z"/>
							</g>
							<g>
								<path d="M284.785,305.17c-0.007,0-0.014,0-0.02-0.001c-3.057-0.124-6.076-0.974-8.732-2.456          c-3.845-2.146-6.125-5.122-7.361-7.24c-0.14-0.238-0.059-0.544,0.18-0.684c0.236-0.14,0.544-0.059,0.684,0.18          c1.174,2.011,3.338,4.835,6.986,6.871c2.519,1.406,5.384,2.211,8.285,2.33c0.275,0.011,0.49,0.244,0.479,0.52          C285.273,304.96,285.052,305.17,284.785,305.17z"/>
							</g>
						</g>
						<g>
							<g>
								<g>
									<path style="fill:#FFFFFF;" d="M345.025,331.519c-1.336,21.248-10.045,39.114-21.525,47.039           c-4.482,3.084-9.365,4.651-14.427,4.326c-17.998-1.158-31.084-26.035-29.228-55.559           c1.857-29.524,17.953-52.523,35.951-51.365c4.79,0.308,9.227,2.289,13.111,5.576           C339.686,290.651,346.389,309.826,345.025,331.519z"/>
									<path d="M310.403,383.426c-0.453,0-0.906-0.015-1.361-0.044c-18.245-1.174-31.566-26.336-29.694-56.089           c1.19-18.933,8.178-35.762,18.691-45.018c5.512-4.852,11.668-7.207,17.79-6.814c4.792,0.308,9.301,2.224,13.401,5.693           c11.227,9.493,17.622,29.274,16.294,50.396c-1.294,20.582-9.827,39.195-21.739,47.419           C319.48,381.93,314.985,383.426,310.403,383.426z M314.509,276.419c-5.441,0-10.881,2.268-15.81,6.607           c-10.318,9.084-17.18,25.656-18.353,44.33c-1.837,29.205,11.064,53.89,28.761,55.029c4.822,0.312,9.571-1.115,14.111-4.239           c11.669-8.056,20.033-26.371,21.309-46.658l0,0c1.31-20.817-4.948-40.274-15.942-49.569           c-3.933-3.328-8.245-5.165-12.819-5.459C315.346,276.432,314.927,276.419,314.509,276.419z"/>
								</g>
							</g>
							<g>
								<path d="M325.246,290.316c-2.893-2.645-6.206-4.231-9.789-4.461c-13.465-0.865-25.604,17.819-27.112,41.727          c-0.072,1.148-0.111,2.283-0.133,3.411l26.426-5.448l-25.627,17.819c2.519,16.384,10.634,28.411,20.984,29.075          c3.787,0.243,7.447-1.046,10.814-3.56c8.623-6.462,15.213-20.961,16.298-38.167          C338.216,313.147,333.277,297.651,325.246,290.316z"/>
								<path d="M310.913,372.969c-0.316,0-0.633-0.01-0.95-0.03c-10.375-0.667-18.793-12.245-21.445-29.498l-0.048-0.309          l23.881-16.604l-24.65,5.082l0.012-0.626c0.024-1.263,0.068-2.386,0.134-3.433c0.993-15.741,6.734-30.031,14.984-37.294          c3.957-3.484,8.326-5.178,12.658-4.901c3.62,0.232,7.017,1.777,10.095,4.59l0,0c8.384,7.658,13.104,23.672,12.023,40.797          c-1.068,16.944-7.39,31.71-16.497,38.536C317.828,371.731,314.403,372.969,310.913,372.969z M289.554,343.597          c2.593,16.348,10.798,27.723,20.474,28.344c3.568,0.23,7.1-0.934,10.483-3.461c8.744-6.554,15.063-21.39,16.098-37.798          c1.062-16.836-3.531-32.535-11.699-39.997l0,0c-2.906-2.656-6.098-4.113-9.485-4.331c-4.047-0.253-8.179,1.349-11.934,4.653          c-8.058,7.093-13.67,21.12-14.646,36.605c-0.054,0.856-0.093,1.765-0.118,2.764l28.201-5.814L289.554,343.597z"/>
							</g>
						</g>
						<g>
							<path style="fill:#FFFFFF;" d="M321.946,309.697c-1.657,6.089-7.936,9.682-14.025,8.026         c-6.089-1.657-9.682-7.936-8.025-14.025c1.657-6.089,7.936-9.682,14.025-8.025         C320.01,297.329,323.603,303.608,321.946,309.697z"/>
							<path d="M310.939,318.629c-1.051,0-2.108-0.141-3.149-0.424c-6.346-1.727-10.102-8.294-8.377-14.639         c1.727-6.344,8.294-10.102,14.639-8.376c3.074,0.836,5.639,2.82,7.221,5.584c1.582,2.765,1.993,5.981,1.156,9.055l0,0         c-0.836,3.074-2.819,5.638-5.584,7.22C315.016,318.095,312.991,318.629,310.939,318.629z M310.923,295.77         c-4.808,0-9.224,3.202-10.546,8.059c-1.581,5.813,1.861,11.83,7.674,13.412c2.816,0.766,5.763,0.39,8.296-1.06         c2.533-1.45,4.351-3.799,5.116-6.615l0,0c0.767-2.816,0.39-5.762-1.06-8.295c-1.449-2.533-3.799-4.35-6.614-5.116         C312.832,295.894,311.87,295.77,310.923,295.77z"/>
						</g>
						<g>
							<path style="fill:#FFFFFF;" d="M331.035,323.902c-0.945,3.475-4.529,5.526-8.004,4.58c-3.475-0.945-5.526-4.529-4.58-8.004         c0.946-3.475,4.529-5.526,8.004-4.58C329.93,316.844,331.981,320.427,331.035,323.902z"/>
							<path d="M324.741,329.212c-0.608,0-1.227-0.08-1.841-0.247c-3.735-1.017-5.948-4.883-4.932-8.618         c1.017-3.735,4.884-5.947,8.618-4.931c3.735,1.017,5.948,4.883,4.932,8.618l0,0         C330.668,327.154,327.829,329.212,324.741,329.212z M324.745,316.169c-2.649,0-5.084,1.765-5.812,4.441         c-0.871,3.203,1.025,6.518,4.229,7.391c3.208,0.871,6.521-1.025,7.392-4.229l0,0c0.871-3.203-1.025-6.518-4.229-7.391         C325.797,316.237,325.267,316.169,324.745,316.169z"/>
						</g>
					</g>
				</g>
				<g>
					<path style="fill:#AD2328;" d="M366.563,367.795c-0.458,3.906-5.806,6.489-11.944,5.769c-6.138-0.72-10.743-4.47-10.285-8.376       c0.458-3.906,5.806-6.489,11.944-5.769C362.416,360.139,367.021,363.889,366.563,367.795z"/>
					<path d="M356.635,374.183c-0.679,0-1.371-0.04-2.075-0.122c-6.402-0.751-11.213-4.758-10.724-8.931       c0.49-4.174,6.091-6.957,12.5-6.208c6.402,0.751,11.213,4.758,10.724,8.931C366.623,371.568,362.132,374.183,356.635,374.183z        M354.227,359.797c-4.98,0-9.02,2.242-9.396,5.449c-0.426,3.626,3.991,7.135,9.847,7.822       c5.859,0.685,10.964-1.706,11.389-5.331c0.426-3.626-3.991-7.135-9.847-7.822C355.543,359.836,354.876,359.797,354.227,359.797       z"/>
				</g>
				<g>
					<g>
						<path style="fill:#FFB500;" d="M364.033,386.429c-10.477-1.046-20.997-1.867-31.524-2.393        c-9.07-0.453-32.253-5.265-34.065,11.69c-0.872,8.162,5.143,15.14,10.03,19.667c13,12.041,30.217,17.829,47.803,16.907        c14.506-0.761,31.469-5.273,42.534-17.859c5.649-6.426,8.561-16.116,1.458-21.053c-5.109-3.55-11.86-4.166-17.885-4.908        C376.286,387.73,370.167,387.041,364.033,386.429z"/>
						<path d="M352.589,432.898c-16.777,0-32.444-6.013-44.454-17.137c-7.553-6.995-10.886-13.565-10.189-20.087        c1.623-15.193,19.592-13.499,30.326-12.485c1.646,0.155,3.065,0.289,4.261,0.349c10.039,0.501,20.653,1.307,31.549,2.395        c5.919,0.59,12.098,1.281,18.363,2.053l1.159,0.141c5.654,0.684,12.064,1.458,16.949,4.853        c2.506,1.742,3.959,4.122,4.319,7.076c0.544,4.47-1.635,10.109-5.686,14.718c-12.652,14.393-32.298,17.473-42.883,18.028        C355.061,432.865,353.822,432.898,352.589,432.898z M318.083,383.569c-8.916,0-18.059,2.071-19.143,12.21        c-0.661,6.186,2.569,12.481,9.874,19.247c12.691,11.756,29.539,17.709,47.436,16.774c10.428-0.547,29.774-3.572,42.184-17.69        c3.87-4.401,5.956-9.742,5.445-13.937c-0.323-2.658-1.635-4.803-3.897-6.375c-4.682-3.253-10.689-3.979-16.499-4.681        l-1.162-0.142c-6.257-0.771-12.428-1.46-18.34-2.05l0,0c-10.879-1.086-21.477-1.891-31.5-2.391        c-1.216-0.061-2.648-0.196-4.304-0.352C325.209,383.903,321.664,383.569,318.083,383.569z"/>
					</g>
					<g>
						<g>
							<path style="fill:#FFFFFF;" d="M359.36,391.819c-8.283-0.756-16.585-1.356-24.875-1.75         c-7.143-0.339-25.623-3.751-26.003,8.049c-0.183,5.681,4.965,10.555,9.077,13.72c10.937,8.418,24.799,12.494,38.537,11.898         c11.332-0.491,24.361-3.588,32.267-12.321c4.036-4.459,5.725-11.198-0.15-14.654c-4.226-2.485-9.559-2.932-14.331-3.465         C369.052,392.757,364.209,392.262,359.36,391.819z"/>
							<path d="M353.417,424.294c-13.246,0-25.996-4.235-36.163-12.061c-6.387-4.914-9.42-9.537-9.272-14.132         c0.082-2.531,0.977-4.572,2.66-6.068c4.608-4.092,14.177-3.266,20.505-2.718c1.274,0.11,2.418,0.209,3.361,0.254         c7.9,0.376,16.276,0.965,24.897,1.751c4.684,0.427,9.572,0.925,14.531,1.478l0.921,0.102         c4.48,0.492,9.559,1.048,13.608,3.429c2.243,1.32,3.615,3.234,3.968,5.537c0.475,3.104-0.909,6.799-3.701,9.884         c-9.076,10.027-24.33,12.127-32.616,12.485C355.216,424.275,354.315,424.294,353.417,424.294z M322.889,389.855         c-4.493,0-8.97,0.607-11.583,2.928c-1.491,1.324-2.251,3.075-2.324,5.352c-0.137,4.25,2.768,8.603,8.882,13.307         c10.67,8.212,24.241,12.402,38.21,11.795c8.129-0.352,23.086-2.4,31.917-12.157c2.593-2.864,3.884-6.251,3.454-9.061         c-0.309-2.023-1.482-3.647-3.486-4.826c-3.863-2.273-8.615-2.794-13.21-3.297l-0.923-0.102         c-4.951-0.553-9.834-1.049-14.512-1.476l0,0c-8.605-0.786-16.968-1.374-24.853-1.749c-0.955-0.045-2.111-0.146-3.4-0.257         C328.656,390.104,325.768,389.855,322.889,389.855z"/>
						</g>
						<g>
							<path d="M321.747,415.143c-0.76-5.037-0.523-10.074,0.704-14.973c0.966-3.852,2.527-7.521,4.643-10.906l0.848,0.53         c-2.06,3.296-3.58,6.869-4.52,10.619c-1.195,4.77-1.427,9.676-0.686,14.581L321.747,415.143z"/>
						</g>
						<g>
							<path d="M340.622,422.539c-0.119-6.128,0.326-12.293,1.321-18.325c0.747-4.524,1.815-9.04,3.176-13.425l0.955,0.297         c-1.347,4.34-2.405,8.812-3.144,13.291c-0.985,5.972-1.426,12.076-1.308,18.143L340.622,422.539z"/>
						</g>
						<g>
							<path d="M362.072,423.449l-0.949-0.316c1.82-5.465,2.607-11.137,2.341-16.857c-0.226-4.831-1.205-9.583-2.909-14.126         l0.936-0.352c1.742,4.641,2.742,9.496,2.972,14.431C364.735,412.072,363.931,417.866,362.072,423.449z"/>
						</g>
						<g>
							<path d="M379.33,418.617l-0.943-0.33c1.508-4.319,2.018-8.983,1.476-13.487c-0.464-3.849-1.657-7.529-3.547-10.939         l0.875-0.484c1.952,3.523,3.186,7.326,3.664,11.304C381.415,409.336,380.888,414.154,379.33,418.617z"/>
						</g>
					</g>
				</g>
			</g>
		</g>
		<g>
			<g>
				<path style="fill:#FFB2B0;" d="M308.233,510.035c5.779-2.997,11.118-9.522,8.367-15.192c-2.491-5.134-10.625-6.131-15.881-5.064      c1.269-3.633,0.264-9.414-3.779-11.65c-3.512-1.943-9.121-2.893-13.498,1.197c-0.215-4.361-1.417-8.985-6.244-11.501      c-3.764-1.962-8.807-1.154-11.395,1.329c-0.681-5.602-3.007-8.68-7.401-10.957c-2.864-1.484-8.383-2.177-12.81,1.981      c-0.638-6.967-7.999-9.902-12.057-4.045c-2.255,3.253-2.301,8.352-1.435,12.32L308.233,510.035z"/>
				<path d="M308.227,510.602l-76.566-41.819l-0.048-0.223c-0.845-3.871-0.892-9.244,1.512-12.711      c1.862-2.688,4.608-3.861,7.35-3.141c2.807,0.739,4.889,3.235,5.487,6.483c4.715-3.844,10.121-2.759,12.67-1.438      c4.44,2.301,6.732,5.452,7.54,10.433c2.988-2.255,7.735-2.641,11.258-0.805c4.978,2.595,6.141,7.262,6.446,10.914      c4.357-3.436,9.661-2.62,13.307-0.603c3.889,2.151,5.252,7.453,4.247,11.453c5.266-0.809,13.11,0.309,15.62,5.48      c2.766,5.702-2.194,12.539-8.587,15.854L308.227,510.602z M232.542,468.125l75.694,41.343      c5.855-3.137,10.381-9.321,7.913-14.407c-2.407-4.962-10.413-5.791-15.331-4.793l-0.861,0.174l0.29-0.83      c1.257-3.601,0.109-9.024-3.549-11.047c-3.555-1.966-8.818-2.705-12.914,1.125l-0.788,0.736l-0.053-1.076      c-0.276-5.58-2.176-9.102-5.977-11.083c-3.4-1.773-8.255-1.213-10.816,1.247l-0.723,0.692l-0.12-0.993      c-0.635-5.213-2.702-8.276-7.136-10.574c-2.276-1.18-7.765-2.301-12.237,1.902l-0.747,0.702l-0.094-1.021      c-0.3-3.278-2.213-5.848-4.875-6.548c-2.319-0.61-4.662,0.415-6.273,2.743C231.77,459.558,231.787,464.479,232.542,468.125z"/>
			</g>
			<g>
				<path style="fill:#FFB2B0;" d="M308.431,509.975c2.192-4.066-13.073-16.789-34.096-28.417      c-21.024-11.628-39.845-17.758-42.037-13.692c-2.193,4.067,13.073,16.79,34.096,28.418      C287.418,507.911,306.239,514.042,308.431,509.975z"/>
				<path d="M305.055,511.721c-6.959,0-22.491-5.923-38.903-14.999c-25.006-13.831-36.332-25.312-34.294-29.093      c0.319-0.592,0.904-1.017,1.739-1.262c5.417-1.592,22.65,4.614,40.981,14.753c25.006,13.831,36.332,25.312,34.294,29.092      c-0.319,0.592-0.904,1.017-1.739,1.262C306.565,511.64,305.868,511.721,305.055,511.721z M235.808,467.097      c-0.757,0-1.404,0.075-1.93,0.229c-0.569,0.167-0.953,0.429-1.141,0.777c-1.804,3.346,11.387,15.293,33.898,27.744      c18.119,10.021,35.033,16.189,40.214,14.667c0.569-0.167,0.953-0.428,1.141-0.777l0,0c1.805-3.345-11.387-15.292-33.897-27.743      C257.815,472.991,242.508,467.097,235.808,467.097z"/>
			</g>
		</g>
	</g>
</g>















</svg>
