<?xml version="1.0" encoding="UTF-8"?>
<!-- Generator: Adobe Illustrator 27.1.1, SVG Export Plug-In . SVG Version: 6.00 Build 0)  -->
<svg xmlns="http://www.w3.org/2000/svg" xmlns:xlink="http://www.w3.org/1999/xlink" version="1.1" id="Capa_1" x="0px" y="0px" viewBox="0 0 512.007 512.007" style="enable-background:new 0 0 512.007 512.007;" xml:space="preserve" width="512" height="512">
<g>
	<g>
		<g>
			<path style="fill:#004421;" d="M379.132,35.519c23.721,5.1,26.309,8.296,28.227,34.851c4.891-26.171,7.822-29.055,31.966-31.456     c-23.721-5.1-26.309-8.296-28.227-34.851C406.207,30.234,403.276,33.118,379.132,35.519z"/>
			<path d="M407.14,74.267l-0.279-3.861c-1.909-26.435-4.25-29.328-27.834-34.398l-3.119-0.67l3.175-0.316     c24.004-2.386,26.656-4.998,31.525-31.05l0.711-3.806l0.279,3.861c1.909,26.435,4.25,29.328,27.833,34.398l3.119,0.67     l-3.175,0.316c-24.003,2.387-26.655,4.999-31.524,31.05L407.14,74.267z M382.248,35.694c20.161,4.585,23.454,8.544,25.323,30.926     c4.373-22.029,8.09-25.592,28.638-27.882c-20.16-4.585-23.453-8.544-25.322-30.925C406.514,29.842,402.796,33.405,382.248,35.694     z"/>
		</g>
		<g>
			<path style="fill:#004421;" d="M17.987,177.473c24.183,1.966,27.166,4.798,32.527,30.877c1.44-26.585,3.97-29.827,27.596-35.352     c-24.183-1.966-27.165-4.798-32.526-30.877C44.144,168.706,41.613,171.948,17.987,177.473z"/>
			<path d="M50.805,212.242l-0.78-3.792c-5.337-25.96-8.034-28.524-32.077-30.479l-3.181-0.259l3.107-0.727     c23.489-5.493,25.777-8.428,27.212-34.892l0.209-3.866l0.78,3.792c5.337,25.96,8.034,28.524,32.076,30.479l3.181,0.259     l-3.106,0.727c-23.488,5.493-25.776,8.428-27.211,34.892L50.805,212.242z M21.099,177.241     c20.587,1.92,24.367,5.416,29.136,27.363c1.467-22.411,4.688-26.428,24.763-31.375c-20.586-1.92-24.366-5.417-29.135-27.363     C44.396,168.277,41.175,172.294,21.099,177.241z"/>
		</g>
		<g>
			<path style="fill:#004421;" d="M445.929,141.028c19.52,4.197,21.65,6.827,23.228,28.678c4.025-21.536,6.437-23.909,26.305-25.885     c-19.52-4.197-21.649-6.827-23.227-28.678C468.209,136.679,465.796,139.053,445.929,141.028z"/>
			<path d="M468.936,173.603l-0.279-3.861c-1.566-21.692-3.487-24.066-22.834-28.226l-3.119-0.671l3.175-0.315     c19.692-1.958,21.868-4.101,25.864-25.479l0.711-3.806l0.279,3.862c1.565,21.692,3.485,24.066,22.833,28.226l3.119,0.671     l-3.175,0.315c-19.691,1.958-21.867,4.101-25.863,25.479L468.936,173.603z M449.019,141.202     c16.009,3.695,18.81,7.049,20.347,24.79c3.521-17.456,6.682-20.473,23.004-22.344c-16.009-3.695-18.81-7.048-20.346-24.79     C468.503,136.314,465.343,139.331,449.019,141.202z"/>
		</g>
		<g>
			<path style="fill:#004421;" d="M79.409,69.091c19.907,1.532,22.371,3.851,26.876,25.291c1.09-21.881,3.16-24.558,22.582-29.189     c-19.907-1.531-22.371-3.851-26.876-25.291C100.901,61.783,98.83,64.459,79.409,69.091z"/>
			<path d="M106.592,98.273l-0.796-3.788c-4.472-21.284-6.694-23.378-26.425-24.896l-3.182-0.245l3.104-0.74     c19.249-4.59,21.116-7.007,22.199-28.728l0.192-3.867l0.796,3.789c4.471,21.284,6.693,23.378,26.425,24.896l3.182,0.245     l-3.104,0.74c-19.25,4.591-21.117,7.007-22.199,28.728L106.592,98.273z M82.495,68.848c16.36,1.507,19.587,4.453,23.498,21.825     c1.14-17.77,3.865-21.186,19.788-25.237c-16.361-1.507-19.588-4.453-23.498-21.825C101.142,61.381,98.417,64.796,82.495,68.848z"/>
		</g>
	</g>
	<g>
		<g>
			<g>
				<g>
					<g>
						<path style="fill:#71D2C4;" d="M335.572,70.683c0,0,13.71,78.055-16.616,175.079c-30.325,97.024-20.476,193.291,4.452,248.349        c-13.319,6.662-41.752,18.625-79.261,17.13c-32.392-1.292-56.775-12.032-69.616-18.839        c19.186-46.38,23.874-84.795,25.633-110.191c6.655-96.087-46.931-238.311-28.074-313.405l0,0        c22.831-3.483,49.891-3.842,80.346-3.579C284.112,65.5,312.154,66.558,335.572,70.683z"/>
						<path d="M250.578,511.869c-2.124,0-4.271-0.042-6.449-0.129c-24.182-0.964-48.329-7.499-69.831-18.896l-0.401-0.213        l0.174-0.42c19.353-46.784,23.876-85.204,25.596-110.034c3.074-44.38-6.771-98.892-16.292-151.608        c-11.277-62.44-21.929-121.418-11.768-161.883l0.081-0.323l0.329-0.05c22.032-3.361,48.088-3.863,80.425-3.585        c28.504,0.245,58.312,1.077,83.218,5.463l0.345,0.061l0.061,0.345c0.138,0.782,13.384,79.285-16.63,175.314        c-14.018,44.847-20.404,93.169-18.472,139.742c1.698,40.941,9.832,79.386,22.901,108.252l0.199,0.438l-0.431,0.215        C307.524,502.615,282.143,511.869,250.578,511.869z M175.168,492.172c21.269,11.196,45.119,17.616,69,18.569        c34.067,1.365,61.47-8.366,78.588-16.863c-13.005-28.93-21.097-67.325-22.793-108.184        c-1.936-46.687,4.466-95.126,18.517-140.082c28.922-92.534,17.583-168.73,16.657-174.498        c-24.763-4.32-54.377-5.143-82.703-5.387c-32.134-0.278-58.04,0.217-79.938,3.524c-9.971,40.247,0.635,98.976,11.862,161.14        c9.531,52.777,19.388,107.351,16.306,151.856C198.944,407.071,194.43,445.444,175.168,492.172z"/>
					</g>
					<g>
						<path style="fill:#FFB500;" d="M323.065,81.921c0,0,7.165,72.539-14.522,165.604c-21.537,92.421-29.008,182.706-7.518,234.756        c-13.942,10.884-79.943,15.255-104.632-0.734c16.623-43.885,15.376-85.171,16.92-109.192        c5.841-90.885-47.882-221.015-31.516-292.056l0,0c19.732-3.315,43.116-3.68,69.433-3.461        C278.602,77.067,302.833,78.042,323.065,81.921z"/>
						<path d="M248.824,492.479c-20.362,0-41.231-3.083-52.702-10.513l-0.339-0.219l0.143-0.378        c13.865-36.605,15.251-70.861,16.262-95.874c0.192-4.743,0.373-9.224,0.627-13.173c2.743-42.683-7.696-94.155-17.791-143.933        c-11.522-56.812-22.405-110.473-13.713-148.203l0.075-0.325l0.329-0.056c19.047-3.2,41.572-3.698,69.52-3.468        c24.636,0.206,50.399,0.965,71.924,5.091l0.367,0.07l0.037,0.372c0.071,0.727,6.925,73.687-14.533,165.767        c-24.276,104.172-26.954,187.436-7.543,234.452l0.146,0.351l-0.3,0.234C293.714,488.623,271.587,492.479,248.824,492.479z         M197.005,481.344c24.146,15.217,88.615,11.675,103.412,0.771c-19.332-47.27-16.623-130.591,7.639-234.703        c20.632-88.533,15.05-159.324,14.546-165.071c-21.371-4.05-46.927-4.799-71.374-5.003c-27.743-0.23-50.113,0.26-69.017,3.399        c-8.508,37.503,2.325,90.914,13.792,147.454c10.108,49.841,20.561,101.38,17.809,144.196        c-0.253,3.937-0.434,8.412-0.626,13.149C212.177,410.532,210.795,444.73,197.005,481.344z"/>
					</g>
					<g>
						<g>
							<g>
								<path style="fill:#FFFFFF;" d="M237.08,399.427c-3.236,0.098-5.949-2.454-6.048-5.69c-0.099-3.236,2.454-5.949,5.69-6.047          c3.236-0.099,5.949,2.454,6.048,5.69C242.869,396.616,240.316,399.329,237.08,399.427z M236.738,388.192          c-2.96,0.09-5.294,2.571-5.204,5.53c0.09,2.959,2.571,5.293,5.53,5.203s5.294-2.571,5.203-5.53          C242.178,390.436,239.697,388.102,236.738,388.192z"/>
							</g>
						</g>
						<g>
							<g>
								<path style="fill:#FFFFFF;" d="M229.778,432.043c-2.053,0.062-3.773-1.557-3.836-3.61c-0.062-2.053,1.557-3.774,3.609-3.836          c2.053-0.062,3.774,1.557,3.837,3.61C233.451,430.259,231.831,431.98,229.778,432.043z M229.567,425.099          c-1.776,0.054-3.176,1.543-3.122,3.319c0.054,1.776,1.542,3.177,3.318,3.123c1.776-0.054,3.177-1.543,3.123-3.319          C232.832,426.446,231.343,425.045,229.567,425.099z"/>
							</g>
						</g>
						<g>
							<g>
								<path style="fill:#FFFFFF;" d="M282.528,326.96c-2.052,0.062-3.773-1.557-3.836-3.609c-0.063-2.053,1.557-3.774,3.609-3.836          c2.053-0.063,3.774,1.557,3.837,3.609C286.2,325.176,284.581,326.897,282.528,326.96z M282.316,320.016          c-1.776,0.054-3.176,1.543-3.122,3.319c0.054,1.776,1.542,3.176,3.318,3.122c1.776-0.054,3.177-1.543,3.123-3.318          C285.582,321.363,284.092,319.962,282.316,320.016z"/>
							</g>
						</g>
						<g>
							<g>
								<path style="fill:#FFFFFF;" d="M219.018,292.822c-2.054,0.062-3.774-1.557-3.837-3.609c-0.062-2.053,1.557-3.774,3.61-3.836          c2.052-0.062,3.773,1.557,3.836,3.61C222.689,291.039,221.07,292.759,219.018,292.822z M218.806,285.879          c-1.776,0.054-3.177,1.543-3.123,3.319c0.054,1.776,1.544,3.176,3.319,3.122c1.776-0.054,3.176-1.543,3.122-3.318          C222.071,287.225,220.582,285.825,218.806,285.879z"/>
							</g>
						</g>
						<g>
							<g>
								<path style="fill:#FFFFFF;" d="M313.591,129.242c-2.053,0.062-3.774-1.557-3.837-3.609c-0.062-2.053,1.557-3.774,3.61-3.836          c2.052-0.062,3.773,1.557,3.836,3.61C317.262,127.459,315.643,129.18,313.591,129.242z M313.379,122.299          c-1.776,0.054-3.177,1.543-3.123,3.319c0.054,1.776,1.543,3.176,3.319,3.122c1.776-0.054,3.176-1.543,3.122-3.318          C316.644,123.646,315.155,122.245,313.379,122.299z"/>
							</g>
						</g>
						<g>
							<g>
								<path style="fill:#FFFFFF;" d="M303.246,231.379c-2.053,0.063-3.774-1.557-3.837-3.609c-0.062-2.052,1.557-3.773,3.61-3.836          c2.053-0.062,3.773,1.557,3.836,3.609C306.917,229.596,305.298,231.317,303.246,231.379z M303.034,224.436          c-1.776,0.054-3.177,1.542-3.123,3.318c0.054,1.776,1.544,3.177,3.319,3.123c1.776-0.054,3.176-1.543,3.122-3.319          C306.299,225.782,304.81,224.382,303.034,224.436z"/>
							</g>
						</g>
						<g>
							<g>
								<path style="fill:#FFFFFF;" d="M253.087,177.318c-2.053,0.062-3.774-1.557-3.837-3.61c-0.062-2.052,1.557-3.773,3.61-3.836          c2.052-0.062,3.773,1.557,3.836,3.609C256.758,175.535,255.139,177.256,253.087,177.318z M252.875,170.375          c-1.776,0.054-3.177,1.543-3.123,3.318c0.054,1.776,1.543,3.177,3.319,3.123c1.776-0.054,3.176-1.543,3.122-3.319          C256.14,171.721,254.651,170.321,252.875,170.375z"/>
							</g>
						</g>
						<g>
							<g>
								<path style="fill:#FFFFFF;" d="M272.516,428.873c-3.236,0.099-5.948-2.454-6.047-5.69c-0.099-3.236,2.453-5.949,5.689-6.047          c3.236-0.099,5.949,2.454,6.048,5.69C278.305,426.061,275.753,428.775,272.516,428.873z M272.174,417.638          c-2.959,0.09-5.293,2.571-5.203,5.53c0.09,2.96,2.571,5.294,5.529,5.204c2.96-0.09,5.294-2.571,5.203-5.53          C277.615,419.882,275.134,417.547,272.174,417.638z"/>
							</g>
						</g>
						<g>
							<g>
								<path style="fill:#FFFFFF;" d="M268.203,366.349c-3.236,0.099-5.948-2.454-6.047-5.69c-0.098-3.236,2.453-5.949,5.689-6.047          c3.236-0.099,5.949,2.454,6.048,5.69C273.992,363.538,271.439,366.251,268.203,366.349z M267.861,355.114          c-2.958,0.09-5.293,2.571-5.203,5.53c0.09,2.96,2.571,5.294,5.529,5.203c2.96-0.09,5.294-2.571,5.203-5.53          C273.301,357.358,270.821,355.024,267.861,355.114z"/>
							</g>
						</g>
						<g>
							<g>
								<path style="fill:#FFFFFF;" d="M190.194,138.685c-3.236,0.098-5.948-2.454-6.047-5.69c-0.098-3.236,2.453-5.949,5.689-6.048          c3.236-0.099,5.949,2.454,6.048,5.69C195.982,135.874,193.43,138.586,190.194,138.685z M189.851,127.449          c-2.959,0.09-5.293,2.571-5.203,5.53c0.09,2.959,2.571,5.293,5.529,5.203c2.959-0.09,5.294-2.571,5.203-5.53          C195.292,129.693,192.811,127.359,189.851,127.449z"/>
							</g>
						</g>
						<g>
							<g>
								<path style="fill:#FFFFFF;" d="M227.975,337.853c-3.236,0.099-5.948-2.454-6.047-5.69c-0.098-3.236,2.453-5.949,5.689-6.048          c3.236-0.098,5.949,2.454,6.048,5.69C233.764,335.042,231.211,337.754,227.975,337.853z M227.633,326.617          c-2.958,0.09-5.293,2.571-5.202,5.53c0.09,2.959,2.571,5.293,5.529,5.203c2.96-0.09,5.294-2.571,5.204-5.53          C233.073,328.861,230.593,326.527,227.633,326.617z"/>
							</g>
						</g>
						<g>
							<g>
								<path style="fill:#FFFFFF;" d="M281.425,290.731c-3.236,0.099-5.949-2.454-6.048-5.69c-0.098-3.236,2.454-5.949,5.69-6.047          c3.236-0.098,5.949,2.454,6.048,5.69C287.214,287.919,284.661,290.632,281.425,290.731z M281.083,279.495          c-2.959,0.09-5.294,2.571-5.203,5.53c0.09,2.96,2.571,5.294,5.53,5.203c2.96-0.09,5.294-2.571,5.203-5.53          C286.523,281.739,284.042,279.405,281.083,279.495z"/>
							</g>
						</g>
						<g>
							<g>
								<path style="fill:#FFFFFF;" d="M211.916,228.587c-3.236,0.098-5.949-2.454-6.048-5.69c-0.098-3.236,2.454-5.949,5.69-6.047          c3.236-0.099,5.949,2.454,6.048,5.69C217.704,225.775,215.152,228.488,211.916,228.587z M211.574,217.351          c-2.96,0.09-5.294,2.571-5.204,5.53c0.09,2.96,2.571,5.294,5.53,5.203c2.96-0.09,5.294-2.571,5.204-5.53          C217.014,219.595,214.533,217.261,211.574,217.351z"/>
							</g>
						</g>
					</g>
				</g>
				<g>
					<g>
						<g>
							
								<rect x="203.14" y="466.006" transform="matrix(0.0283 -0.9996 0.9996 0.0283 -253.7207 672.0106)" width="31.298" height="1"/>
						</g>
						<g>
							
								<rect x="231.532" y="466.333" transform="matrix(0.0284 -0.9996 0.9996 0.0284 -226.4812 700.6609)" width="31.298" height="1"/>
						</g>
						<g>
							
								<rect x="260.553" y="466.666" transform="matrix(0.0284 -0.9996 0.9996 0.0284 -198.6169 729.9938)" width="31.298" height="1"/>
						</g>
					</g>
					<g>
						<path style="fill:#FFFFFF;" d="M297.742,491.67c-23.773,6.572-48.977,7.895-73.309,3.831        c-6.992-1.168-13.903-2.775-20.697-4.796c-3.105-0.924-4.276,3.963-1.187,4.882c24.35,7.242,50.324,9.085,75.453,5.353        c7.159-1.063,14.246-2.541,21.223-4.47C302.338,495.61,300.862,490.808,297.742,491.67z"/>
					</g>
				</g>
			</g>
			<g>
				<g>
					<path style="fill:#AD2328;" d="M242.199,217.226c0.111,5.451,4.62,9.779,10.071,9.668c5.451-0.111,9.779-4.62,9.668-10.071       c-0.111-5.451-4.62-9.779-10.071-9.668C246.417,207.267,242.088,211.776,242.199,217.226z"/>
					<path d="M252.065,227.396c-5.621,0-10.251-4.514-10.366-10.16c-0.116-5.718,4.44-10.464,10.158-10.581       c5.688-0.101,10.464,4.44,10.581,10.158c0.116,5.718-4.44,10.464-10.158,10.581       C252.209,227.396,252.137,227.396,252.065,227.396z M252.071,207.654c-0.064,0-0.129,0.001-0.194,0.002       c-5.166,0.105-9.283,4.395-9.178,9.561c0.104,5.102,4.288,9.18,9.367,9.18c0.064,0,0.129-0.001,0.194-0.002       c5.166-0.105,9.283-4.394,9.178-9.56C261.334,211.732,257.15,207.654,252.071,207.654z"/>
				</g>
				<g>
					<g>
						<g>
							<path d="M293.845,128.698c11.849,0.479,20.982,17.949,21.899,40.368l-17.427,8.665l16.319,9.829         c-3.347,20.485-13.362,35.406-24.577,34.954c-13.142-0.531-22.947-21.962-21.902-47.868         C269.202,148.739,280.704,128.167,293.845,128.698z"/>
							<path d="M290.555,223.023c-0.173,0-0.343-0.004-0.517-0.011c-6.554-0.264-12.487-5.488-16.706-14.71         c-4.169-9.111-6.185-21.072-5.676-33.678c0.51-12.607,3.482-24.366,8.372-33.111c4.95-8.853,11.288-13.589,17.838-13.315         c12.018,0.485,21.43,17.664,22.378,40.847l0.013,0.324l-16.9,8.404l15.827,9.534l-0.055,0.334         C311.705,208.597,301.647,223.021,290.555,223.023z M293.346,129.187c-5.99,0-11.811,4.529-16.444,12.814         c-4.814,8.611-7.743,20.211-8.245,32.663c-0.503,12.453,1.48,24.251,5.585,33.222c4.055,8.861,9.679,13.878,15.838,14.126         c10.696,0.415,20.564-13.614,24.008-34.2l-16.809-10.124l17.952-8.926c-0.986-22.127-10.16-39.111-21.405-39.565         C293.666,129.191,293.505,129.187,293.346,129.187z"/>
						</g>
					</g>
					<g>
						<g>
							<path d="M213.627,128.487c-11.852,0.376-21.135,17.768-22.245,40.178l17.352,8.815l-16.402,9.688         c3.171,20.514,13.057,35.52,24.276,35.164c13.146-0.418,23.135-21.764,22.312-47.678         C238.098,148.738,226.773,128.069,213.627,128.487z"/>
							<path d="M216.218,222.838c-11.138,0.001-21.125-14.537-24.379-35.594l-0.052-0.334l15.909-9.397l-16.829-8.549l0.017-0.324         c1.146-23.174,10.706-40.271,22.729-40.653l0,0c6.515-0.216,12.849,4.574,17.722,13.468         c4.814,8.787,7.686,20.571,8.087,33.182c0.83,26.148-9.395,47.769-22.797,48.194         C216.489,222.835,216.352,222.838,216.218,222.838z M192.88,187.426c3.267,20.616,12.984,34.747,23.713,34.406         c12.85-0.409,22.642-21.566,21.828-47.163c-0.395-12.457-3.224-24.082-7.964-32.733c-4.682-8.546-10.63-13.128-16.814-12.949         l0,0c-11.249,0.357-20.568,17.262-21.745,39.38l17.876,9.08L192.88,187.426z"/>
						</g>
					</g>
				</g>
				<g>
					<g>
						<path d="M209.912,252.99c0,0.005,0.004,0.011,0.004,0.016c0.593,2.918,1.649,5.881,2.97,8.728        c3.279,7.087,8.166,13.463,11.549,16.764c0.041,0.049,0.077,0.07,0.114,0.119c0.964,0.938,1.952,1.815,2.96,2.638        c12.304,10.095,27.575,11.963,41.312,6.589c4.211-1.643,8.722-4.146,12.921-7.46c1.08-0.849,2.139-1.758,3.169-2.717        c4.73-4.378,8.803-9.882,11.212-16.471c1.431-3.916,2.271-8.216,2.313-12.886c0.004-0.53-0.004-1.071-0.02-1.611        c-0.406-12.309-7.39-15.604-15.409-15.451l-0.165,0.001c-7.034,0.189-14.853,2.99-19.671,4.73        c-1.577,0.553-3.158,1.051-4.748,1.434c-0.518,0.13-1.04,0.243-1.558,0.35c-1.763,0.346-3.536,0.54-5.33,0.515        c-0.398-0.002-0.796-0.016-1.199-0.046c-0.431-0.024-0.861-0.065-1.288-0.121c-6.555-0.825-12.646-4.706-19.168-5.537        c-1.373-0.181-2.926-0.251-4.566-0.091c-4.724,0.363-10.044,2.129-13.043,6.15        C209.259,242.715,208.851,247.793,209.912,252.99z"/>
						<path d="M253.467,291.314c-9.376,0-18.483-3.279-26.275-9.672c-1.034-0.845-2.041-1.742-2.991-2.666        c-0.084-0.086-0.117-0.118-0.151-0.161c-3.183-3.1-8.166-9.414-11.617-16.871c-1.424-3.071-2.433-6.034-2.999-8.809        l-0.02-0.09c-1.2-5.925-0.374-10.874,2.454-14.709c3.801-5.095,10.642-6.139,13.407-6.352c1.504-0.147,3.079-0.116,4.67,0.094        c3.308,0.421,6.535,1.624,9.655,2.788c3.088,1.151,6.281,2.342,9.51,2.748c0.418,0.056,0.836,0.095,1.254,0.119        c0.4,0.029,0.787,0.042,1.174,0.044c1.67,0.02,3.379-0.143,5.231-0.506c0.507-0.105,1.021-0.217,1.532-0.345        c1.422-0.343,2.916-0.794,4.705-1.42c4.723-1.706,12.635-4.565,19.822-4.759l0.174-0.002c0.179-0.003,0.357-0.005,0.531-0.005        c9.858,0,15.033,5.36,15.383,15.94c0.016,0.549,0.024,1.096,0.021,1.632c-0.041,4.516-0.829,8.908-2.344,13.054        c-2.261,6.186-6.076,11.793-11.341,16.666c-1.05,0.975-2.127,1.899-3.2,2.743c-4.002,3.159-8.514,5.764-13.048,7.533        C263.86,290.322,258.622,291.314,253.467,291.314z M210.415,252.95c0.552,2.694,1.535,5.579,2.924,8.574        c3.177,6.864,8.037,13.292,11.446,16.617c0.087,0.087,0.126,0.126,0.166,0.18c0.875,0.843,1.86,1.72,2.874,2.548        c11.791,9.673,26.668,12.046,40.814,6.51c4.443-1.733,8.867-4.288,12.793-7.387c1.053-0.828,2.108-1.733,3.14-2.69        c5.148-4.765,8.875-10.241,11.081-16.276c1.476-4.038,2.243-8.317,2.283-12.719c0.004-0.523-0.005-1.058-0.021-1.592        c-0.338-10.254-5.228-15.168-14.899-14.966l-0.17,0.002c-7.018,0.189-14.835,3.013-19.506,4.701        c-1.826,0.64-3.351,1.1-4.801,1.45c-0.52,0.13-1.048,0.245-1.573,0.354c-1.927,0.378-3.709,0.549-5.439,0.525        c-0.406-0.002-0.814-0.016-1.23-0.047c-0.435-0.024-0.878-0.066-1.317-0.124c-3.34-0.42-6.589-1.631-9.729-2.803        c-3.068-1.144-6.24-2.327-9.436-2.733c-1.516-0.2-3.015-0.229-4.454-0.09c-2.64,0.203-9.138,1.187-12.691,5.951        c-2.653,3.599-3.419,8.285-2.275,13.927L210.415,252.95z"/>
					</g>
					<g>
						<path style="fill:#FF8806;" d="M227.509,281.256c12.304,10.095,27.575,11.963,41.312,6.589        c4.211-1.643,8.722-4.146,12.921-7.46c-6.5-8.549-16.283-13.954-27.171-13.806C243.57,266.71,233.83,272.414,227.509,281.256z        "/>
						<path d="M253.467,291.314c-9.376,0-18.483-3.279-26.275-9.672l-0.361-0.297l0.271-0.381        c6.672-9.331,16.682-14.757,27.463-14.887c10.616-0.157,20.698,4.96,27.575,14.004l0.297,0.391l-0.386,0.304        c-4.002,3.159-8.514,5.764-13.048,7.533C263.86,290.322,258.623,291.314,253.467,291.314z M228.191,281.166        c11.73,9.423,26.445,11.691,40.447,6.213c4.298-1.676,8.575-4.12,12.403-7.083c-6.672-8.544-16.264-13.343-26.465-13.218        C244.265,267.202,234.674,272.33,228.191,281.166z"/>
					</g>
					<g>
						<path style="fill:#FFFFFF;" d="M256.864,237.764l0.116,12.155c0.05,5.183,3.09,9.416,6.905,9.614l32.12,1.665        c1.487-3.917,2.364-8.216,2.409-12.887c0.004-0.53-0.004-1.07-0.024-1.611c-0.408-12.057-7.373-15.463-15.486-15.451l-0.064,0        c-7.034,0.189-14.853,2.99-19.671,4.73c-1.577,0.553-3.158,1.051-4.748,1.434        C257.904,237.543,257.382,237.656,256.864,237.764z"/>
						<path d="M296.344,261.716l-32.484-1.684c-4.085-0.212-7.326-4.652-7.379-10.108l-0.12-12.566l0.402-0.083        c0.512-0.106,1.026-0.218,1.537-0.346c1.422-0.343,2.916-0.794,4.705-1.42c4.723-1.706,12.635-4.565,19.822-4.759        c0.015,0,0.03,0,0.045,0c10.298,0,15.66,5.36,16.019,15.933c0.021,0.547,0.028,1.095,0.024,1.632        c-0.044,4.517-0.866,8.911-2.441,13.061L296.344,261.716z M257.368,238.169l0.112,11.746c0.047,4.929,2.872,8.935,6.432,9.119        l31.754,1.647c1.45-3.939,2.207-8.1,2.249-12.374c0.004-0.521-0.004-1.054-0.024-1.587        c-0.341-10.073-5.229-14.97-14.942-14.97c-0.015,0-0.028,0-0.042,0c-7.078,0.189-14.896,3.014-19.566,4.701        c-1.826,0.64-3.351,1.1-4.801,1.45C258.151,237.997,257.76,238.085,257.368,238.169z"/>
					</g>
					<g>
						<path style="fill:#FFFFFF;" d="M209.912,252.99c0,0.005,0.004,0.011,0.004,0.016c0.593,2.918,1.649,5.881,2.97,8.728        l32.261-2.093c3.634-0.236,6.476-4.313,6.45-9.254l-0.063-12.108c-0.398-0.002-0.796-0.016-1.199-0.046        c-0.431-0.024-0.861-0.065-1.288-0.121c-6.555-0.825-12.646-4.706-19.168-5.537c-1.373-0.181-2.926-0.251-4.566-0.091        c-4.724,0.363-10.044,2.129-13.043,6.15C209.259,242.715,208.851,247.793,209.912,252.99z"/>
						<path d="M212.576,262.256l-0.144-0.311c-1.425-3.071-2.434-6.035-3-8.809l-0.02-0.09c-1.2-5.925-0.374-10.874,2.454-14.709        c3.801-5.095,10.642-6.139,13.407-6.352c1.504-0.147,3.079-0.116,4.67,0.094c3.308,0.421,6.535,1.624,9.655,2.788        c3.088,1.151,6.281,2.342,9.51,2.748c0.418,0.056,0.836,0.095,1.254,0.119c0.4,0.029,0.787,0.042,1.174,0.044l0.494,0.003        l0.066,12.603c0.026,5.217-3.012,9.503-6.918,9.756L212.576,262.256z M210.415,252.95c0.532,2.601,1.468,5.379,2.781,8.264        l31.919-2.071c3.379-0.219,6.007-4.064,5.982-8.753l-0.061-11.62c-0.245-0.007-0.491-0.02-0.739-0.038        c-0.435-0.024-0.878-0.066-1.317-0.124c-3.34-0.42-6.589-1.631-9.729-2.803c-3.068-1.144-6.24-2.327-9.436-2.733        c-1.516-0.2-3.015-0.229-4.454-0.09c-2.64,0.203-9.138,1.187-12.691,5.951c-2.653,3.599-3.419,8.285-2.275,13.927        L210.415,252.95z"/>
					</g>
				</g>
			</g>
			<g>
				<g>
					<path style="fill:#FFFFFF;" d="M341.92,51.605c4.977-17.011-12.006-29.35-25.08-18.554       c-0.95-33.535-61.33-46.861-78.113-11.968c-21.826-26.412-73.575-1.662-56.838,33.846c-3.209-1.55-6.793-2.557-10.612-2.866       c-15.137-1.227-28.223,8.933-29.227,22.693c-1.005,13.76,10.452,25.909,25.589,27.136c0.571,0.046,1.137,0.071,1.701,0.085       l0.107,2.876c0.163,4.393,4.204,7.915,9.026,7.866c4.822-0.049,8.598-3.65,8.435-8.043l-0.109-2.94l6.676,0.15l0.554,14.928       c0.163,4.393,4.204,7.915,9.026,7.866c4.822-0.049,8.598-3.65,8.435-8.043l-0.371-9.983c-0.084-2.263,1.929-4.019,4.17-3.638       c0.615,0.951,5.345,7.994,14.404,9.03c7.782,0.89,13.273-3.279,14.355-4.137c1.89,7.444,8.414,12.299,15.223,11.47       c5.673-0.691,10.332-5.181,11.948-11.073c1.06-3.863,6.458-3.036,6.485,1.001c0,0.032,0,0.064,0,0.096l-0.072,7.32       c-0.043,4.391,3.832,8.063,8.657,8.203c4.824,0.139,8.77-3.308,8.814-7.699l0.129-13.053c1.848,1.438,7.641,5.569,16.141,5.81       c8.697,0.247,14.749-3.735,16.616-5.074l0.155-0.027l-0.185,34.184c-0.031,5.664,4.109,10.291,9.247,10.335l1.246,0.011       c5.137,0.044,9.327-4.511,9.358-10.175l0.206-37.96c1.967-0.9,4.084-1.363,6.022-2.292c3.769-1.808,7.301-4.204,10.14-7.279       c3.496-3.787,5.809-8.642,5.819-13.871C370.019,65.675,363.639,50.593,341.92,51.605z"/>
					<path d="M338.525,149.914c-0.026,0-0.052-0.001-0.077-0.001l-1.246-0.011c-5.404-0.046-9.774-4.908-9.743-10.837l0.181-33.303       c-3.033,2.039-8.685,4.931-16.28,4.722c-7.264-0.206-12.678-3.192-15.637-5.319l-0.119,12.067       c-0.021,2.119-0.9,4.121-2.479,5.639c-1.765,1.698-4.245,2.61-6.85,2.555c-5.087-0.147-9.188-4.053-9.142-8.708l0.072-7.32       c-0.013-1.922-1.262-2.907-2.495-3.069c-1.078-0.14-2.519,0.326-3.008,2.109c-1.712,6.241-6.567,10.73-12.37,11.438       c-6.849,0.829-13.402-3.915-15.568-11.123c-2.327,1.692-7.381,4.565-14.126,3.79c-8.653-0.99-13.481-7.343-14.64-9.062       c-0.857-0.085-1.695,0.179-2.342,0.745c-0.693,0.607-1.07,1.486-1.036,2.41l0.371,9.983c0.078,2.123-0.708,4.163-2.216,5.744       c-1.683,1.764-4.13,2.792-6.715,2.818c-0.034,0.001-0.069,0.001-0.104,0.001c-5.036,0-9.255-3.725-9.427-8.348l-0.537-14.457       l-5.674-0.128l0.089,2.41c0.078,2.124-0.709,4.164-2.217,5.745c-1.683,1.764-4.129,2.79-6.713,2.817c-0.034,0-0.069,0-0.104,0       c-5.037,0-9.256-3.725-9.428-8.348l-0.089-2.409c-0.418-0.016-0.838-0.038-1.26-0.072       c-15.385-1.247-27.069-13.661-26.048-27.671c0.464-6.342,3.486-12.207,8.513-16.514c5.666-4.856,13.416-7.279,21.254-6.641       c3.338,0.271,6.551,1.063,9.567,2.358c-7.577-17.527,1.295-31.17,12.333-38.175c13.096-8.311,33.314-9.499,45.397,4.431       c9.131-18.023,29.958-22.536,46.733-18.959c15.275,3.255,30.896,14.024,31.946,30.837c5.807-4.35,12.81-4.76,18.487-1.02       c6.283,4.14,8.911,11.951,6.801,20.042c8.594-0.272,15.38,1.945,20.24,6.593c6.695,6.403,7.681,15.383,7.672,20.166       c-0.009,5.015-2.122,10.062-5.951,14.21c-2.697,2.922-6.159,5.409-10.291,7.391c-1.034,0.496-2.123,0.864-3.175,1.221       c-0.852,0.288-1.729,0.585-2.565,0.946l-0.204,37.637c-0.017,3.019-1.198,5.907-3.243,7.924       C343.266,148.939,340.947,149.913,338.525,149.914z M328.647,104.288l-0.188,34.783c-0.028,5.379,3.897,9.79,8.751,9.832       l1.246,0.011c0.023,0,0.046,0.001,0.068,0.001c2.158,0,4.228-0.872,5.84-2.46c1.856-1.832,2.931-4.462,2.945-7.217       l0.208-38.279l0.29-0.133c0.969-0.443,1.977-0.784,2.95-1.113c1.025-0.347,2.084-0.705,3.064-1.175       c4.017-1.927,7.377-4.339,9.988-7.168c3.658-3.963,5.678-8.77,5.685-13.533c0.009-4.623-0.936-13.295-7.363-19.441       c-4.784-4.574-11.585-6.69-20.189-6.29l-0.7,0.033l0.197-0.673c2.31-7.896-0.127-15.586-6.208-19.593       c-5.549-3.657-12.476-3.059-18.073,1.565l-0.789,0.651l-0.029-1.023c-0.477-16.831-16.014-27.631-31.2-30.868       c-16.599-3.538-37.253,0.996-45.963,19.103l-0.338,0.704l-0.498-0.602c-11.654-14.105-31.671-13.006-44.587-4.81       c-10.934,6.939-19.674,20.599-11.413,38.125l0.603,1.278l-1.272-0.615c-3.255-1.572-6.766-2.521-10.434-2.818       c-7.575-0.617-15.058,1.719-20.523,6.403c-4.822,4.132-7.722,9.753-8.165,15.828c-0.982,13.465,10.291,25.398,25.131,26.601       c0.562,0.046,1.119,0.07,1.674,0.084l0.47,0.012l0.124,3.345c0.151,4.089,3.923,7.385,8.428,7.385c0.031,0,0.062,0,0.094,0       c2.315-0.023,4.502-0.938,5.999-2.507c1.32-1.384,2.01-3.166,1.94-5.017l-0.128-3.471l7.678,0.173l0.572,15.398       c0.152,4.118,4.011,7.457,8.521,7.384c2.315-0.023,4.503-0.938,6.001-2.508c1.319-1.383,2.009-3.165,1.939-5.016l-0.371-9.983       c-0.045-1.226,0.457-2.392,1.377-3.199c0.927-0.812,2.158-1.156,3.377-0.95l0.217,0.037l0.119,0.184       c0.841,1.298,5.468,7.824,14.041,8.806c7.221,0.824,12.531-2.877,13.987-4.032l0.605-0.48l0.189,0.748       c1.81,7.125,8.122,11.889,14.678,11.097c5.398-0.658,9.923-4.861,11.526-10.71c0.618-2.249,2.503-3.043,4.103-2.836       c1.608,0.211,3.348,1.543,3.364,3.966v0.104l-0.072,7.32c-0.041,4.114,3.624,7.567,8.171,7.698       c2.314,0.066,4.554-0.763,6.128-2.276c1.382-1.33,2.153-3.08,2.171-4.928l0.139-14.063l0.797,0.62       c2.619,2.037,8.159,5.487,15.849,5.705c7.886,0.229,13.586-3.025,16.312-4.98l0.205-0.086L328.647,104.288z"/>
				</g>
				<g>
					<path d="M233.244,54.05c-0.492-6.365,3.477-11.979,8.849-12.513c3.693-0.369,7.238,1.81,9.18,5.497       c1.427-3.582,4.364-6.031,7.75-6.361c2.238-0.22,4.494,0.511,6.334,2.058c2.302,1.935,3.766,4.946,4.018,8.263l-0.998,0.075       c-0.23-3.05-1.565-5.81-3.662-7.572c-1.633-1.372-3.623-2.02-5.594-1.829c-3.342,0.326-6.205,3.013-7.296,6.845l-0.398,1.404       l-0.546-1.354c-1.597-3.965-5.101-6.392-8.688-6.031c-4.835,0.481-8.401,5.613-7.952,11.441L233.244,54.05z"/>
				</g>
				<g>
					<path d="M321.887,82.967c-0.343-4.332-2.936-7.848-6.454-8.748c-1.985-0.509-4.115-0.159-5.988,0.987       c-2.399,1.466-4.175,4.067-4.871,7.135l-0.975-0.221c0.755-3.33,2.695-6.161,5.324-7.768c2.107-1.288,4.508-1.678,6.758-1.103       c3.933,1.006,6.827,4.879,7.202,9.638L321.887,82.967z"/>
				</g>
				<g>
					<path d="M184.8,78.985l-0.99-0.135c0.596-4.368,3.345-7.82,7.002-8.795c2.206-0.59,4.551-0.228,6.605,1.021       c2.531,1.538,4.391,4.265,5.101,7.481l-0.976,0.216c-0.652-2.951-2.346-5.445-4.645-6.842c-1.817-1.105-3.887-1.427-5.827-0.91       C187.803,71.893,185.342,75.018,184.8,78.985z"/>
				</g>
			</g>
		</g>
		<g>
			<g>
				<g>
					<path style="fill:#71D2C4;" d="M186.823,320.082l-31.797,150.527l-0.068,1.509l-1.31,33.079       c-16.464,3.846-40.057,7.528-68.358,5.775c-27.665-1.715-50.201-8.008-65.891-13.684c0.872-11.178,1.725-22.4,2.596-33.579       c0.019-0.319,0.058-0.614,0.076-0.933L8.193,309.558l-3.148-34.812c39.595-2.952,71.602-1.876,93.525-0.371       c42.594,2.935,95.501,10.932,95.468,11.506L186.823,320.082z"/>
					<path d="M99.804,511.921c-4.85,0-9.698-0.149-14.545-0.45c-22.52-1.396-44.735-6.01-66.028-13.713l-0.358-0.129l0.03-0.38       c0.436-5.589,0.866-11.189,1.298-16.789c0.431-5.6,0.862-11.2,1.298-16.79c0.009-0.152,0.023-0.308,0.038-0.462       c0.014-0.152,0.027-0.303,0.037-0.461L7.694,309.603l-3.193-35.318l0.507-0.038c31.485-2.347,62.976-2.472,93.596-0.372       c24.182,1.667,50.321,4.877,63.75,6.642c8.433,1.108,16.548,2.26,22.848,3.242c9.376,1.461,9.369,1.58,9.335,2.15       l-7.225,34.276l-31.797,150.527l-1.382,34.885l-0.371,0.087C136,509.833,117.907,511.921,99.804,511.921z M19.929,496.948       c21.094,7.593,43.093,12.143,65.393,13.526c22.715,1.407,45.535-0.503,67.843-5.676l1.362-34.211l31.807-150.608v0       l7.125-33.778c-4.796-1.188-54.703-8.556-94.923-11.328c-30.408-2.087-61.677-1.975-92.946,0.333L22.57,462.731       c-0.009,0.243-0.023,0.406-0.039,0.569c-0.014,0.145-0.027,0.29-0.036,0.44c-0.437,5.597-0.867,11.197-1.299,16.797       C20.775,486.011,20.353,491.484,19.929,496.948z"/>
				</g>
				<g>
					<path style="fill:#AD2328;" d="M155.026,470.609l-0.068,1.509c-19.438,1.518-41.672,2.041-66.11,0.537       c-25.033-1.539-47.484-4.928-66.852-8.946c0.019-0.319,0.058-0.614,0.076-0.933L8.003,300.48l182.317,4.601L155.026,470.609z"/>
					<path d="M118.059,474.051c-9.762,0-19.527-0.298-29.242-0.897c-22.398-1.377-44.914-4.39-66.923-8.956l-0.424-0.088       l0.026-0.433c0.01-0.161,0.024-0.316,0.039-0.471c0.014-0.152,0.027-0.303,0.037-0.46L7.456,299.966l183.477,4.631       l-0.125,0.589l-35.285,165.486l-0.086,1.91l-0.44,0.035C142.762,473.573,130.413,474.051,118.059,474.051z M22.53,463.31       c21.824,4.505,44.144,7.482,66.348,8.847c21.818,1.343,43.886,1.174,65.601-0.502l0.058-1.149l35.169-164.938L8.55,300.995       l14.02,161.739c-0.009,0.241-0.023,0.404-0.039,0.567C22.531,463.304,22.531,463.307,22.53,463.31z"/>
				</g>
				<g>
					<g>
						<path style="fill:#FFFFFF;" d="M28.75,469.182c-1.442,0-2.393,1.148-2.5,2.5c-0.503,6.334-1.005,12.668-1.508,19.002        c-0.107,1.348,1.226,2.5,2.5,2.5c1.442,0,2.393-1.148,2.5-2.5c0.503-6.334,1.005-12.668,1.508-19.002        C31.357,470.335,30.024,469.182,28.75,469.182z"/>
					</g>
					<g>
						<path style="fill:#FFFFFF;" d="M150.393,478.778c-0.099-1.347-1.078-2.5-2.5-2.5c-1.277,0-2.599,1.146-2.5,2.5        c0.369,5.038,0.466,10.245-0.187,15.266c-0.208,1.601-0.714,2.97-2.114,3.833c-1.567,0.966-3.437,1.318-5.23,1.61        c-1.334,0.218-2.076,1.874-1.746,3.075c0.389,1.417,1.738,1.964,3.075,1.746c4.774-0.779,9.564-2.898,10.69-8.088        c0.588-2.711,0.647-5.609,0.726-8.372C150.693,484.823,150.613,481.797,150.393,478.778z"/>
					</g>
					<g>
						<path style="fill:#FFFFFF;" d="M29.682,368.414c-0.603-7.448-1.206-14.895-1.809-22.343c-0.109-1.346-1.071-2.5-2.5-2.5        c-1.268,0-2.61,1.147-2.5,2.5c2.118,26.149,4.236,52.299,6.353,78.448c0.603,7.448,1.206,14.895,1.81,22.343        c0.109,1.346,1.071,2.5,2.5,2.5c1.268,0,2.61-1.147,2.5-2.5C33.917,420.712,31.8,394.563,29.682,368.414z"/>
					</g>
				</g>
				<g>
					<g>
						<g>
							<path style="fill:#FFFFFF;" d="M74.128,336.004c-2.578,0-4.675-2.097-4.675-4.675c0-2.578,2.097-4.675,4.675-4.675         c2.578,0,4.675,2.097,4.675,4.675C78.803,333.907,76.706,336.004,74.128,336.004z M74.128,327.154         c-2.302,0-4.175,1.873-4.175,4.175c0,2.302,1.873,4.175,4.175,4.175c2.302,0,4.175-1.873,4.175-4.175         C78.303,329.027,76.43,327.154,74.128,327.154z"/>
						</g>
					</g>
					<g>
						<g>
							<path style="fill:#FFFFFF;" d="M139.339,446.863c-2.578,0-4.675-2.097-4.675-4.675c0-2.578,2.097-4.675,4.675-4.675         c2.578,0,4.675,2.097,4.675,4.675C144.014,444.766,141.917,446.863,139.339,446.863z M139.339,438.013         c-2.302,0-4.175,1.873-4.175,4.175c0,2.302,1.873,4.175,4.175,4.175s4.175-1.873,4.175-4.175         C143.514,439.886,141.641,438.013,139.339,438.013z"/>
						</g>
					</g>
					<g>
						<g>
							<path style="fill:#FFFFFF;" d="M153.313,341.361c-2.578,0-4.675-2.097-4.675-4.675c0-2.578,2.097-4.675,4.675-4.675         c2.578,0,4.675,2.097,4.675,4.675C157.987,339.264,155.891,341.361,153.313,341.361z M153.313,332.511         c-2.302,0-4.175,1.873-4.175,4.175c0,2.302,1.873,4.175,4.175,4.175c2.302,0,4.175-1.873,4.175-4.175         C157.487,334.384,155.614,332.511,153.313,332.511z"/>
						</g>
					</g>
					<g>
						<g>
							<path style="fill:#FFFFFF;" d="M121.871,326.688c-1.532,0-2.779-1.247-2.779-2.78c0-1.533,1.247-2.78,2.779-2.78         c1.533,0,2.78,1.247,2.78,2.78C124.652,325.441,123.404,326.688,121.871,326.688z M121.871,321.629         c-1.257,0-2.279,1.023-2.279,2.28c0,1.257,1.022,2.28,2.279,2.28c1.258,0,2.28-1.023,2.28-2.28         C124.152,322.652,123.129,321.629,121.871,321.629z"/>
						</g>
					</g>
					<g>
						<g>
							<path style="fill:#FFFFFF;" d="M120.009,363.486c-1.533,0-2.78-1.247-2.78-2.78c0-1.533,1.247-2.78,2.78-2.78         c1.532,0,2.779,1.247,2.779,2.78C122.788,362.239,121.541,363.486,120.009,363.486z M120.009,358.426         c-1.258,0-2.28,1.023-2.28,2.28c0,1.257,1.022,2.28,2.28,2.28c1.257,0,2.279-1.023,2.279-2.28         C122.288,359.449,121.266,358.426,120.009,358.426z"/>
						</g>
					</g>
					<g>
						<g>
							<path style="fill:#FFFFFF;" d="M53.866,436.615c-1.533,0-2.78-1.247-2.78-2.78c0-1.533,1.247-2.78,2.78-2.78         c1.532,0,2.779,1.247,2.779,2.78C56.646,435.368,55.399,436.615,53.866,436.615z M53.866,431.556         c-1.258,0-2.28,1.023-2.28,2.28c0,1.257,1.022,2.28,2.28,2.28c1.257,0,2.279-1.023,2.279-2.28         C56.146,432.579,55.123,431.556,53.866,431.556z"/>
						</g>
					</g>
					<g>
						<g>
							<path style="fill:#FFFFFF;" d="M22.658,329.017c-1.533,0-2.78-1.247-2.78-2.78c0-1.533,1.247-2.779,2.78-2.779         c1.532,0,2.779,1.247,2.779,2.779C25.438,327.77,24.191,329.017,22.658,329.017z M22.658,323.958         c-1.258,0-2.28,1.022-2.28,2.279c0,1.257,1.022,2.28,2.28,2.28c1.257,0,2.279-1.023,2.279-2.28         C24.938,324.98,23.915,323.958,22.658,323.958z"/>
						</g>
					</g>
				</g>
			</g>
			<g>
				<g>
					<g>
						<g>
							<path style="fill:#FFFFFF;" d="M82.499,377.603c3.031-18.216-8.043-35.526-25.221-40.767         c-1.51-0.475-3.088-0.837-4.683-1.102c-19.811-3.296-38.549,10.097-41.849,29.932c-3.296,19.81,10.097,38.549,29.908,41.845         c1.595,0.265,3.205,0.434,4.787,0.474C63.391,408.587,79.468,395.819,82.499,377.603z"/>
							<path d="M46.66,408.505c-0.41,0-0.822-0.007-1.235-0.021c-1.536-0.039-3.17-0.2-4.853-0.48         c-9.713-1.616-18.217-6.919-23.943-14.932c-5.728-8.013-7.991-17.775-6.375-27.488c1.617-9.723,6.921-18.234,14.935-23.964         c8.013-5.728,17.775-7.995,27.489-6.378c1.683,0.28,3.281,0.656,4.751,1.118c17.598,5.37,28.59,23.137,25.564,41.327         C80.036,395.453,64.537,408.505,46.66,408.505z M46.554,335.732c-7.415,0-14.63,2.3-20.783,6.7         c-7.797,5.575-12.957,13.855-14.53,23.315c-1.572,9.45,0.63,18.947,6.202,26.743c5.571,7.796,13.845,12.955,23.294,14.527         c1.637,0.272,3.224,0.429,4.718,0.467c0.4,0.014,0.804,0.02,1.202,0.02c17.397,0.001,32.474-12.697,35.35-29.984         c2.944-17.697-7.749-34.982-24.873-40.207c-1.43-0.449-2.982-0.815-4.619-1.087         C50.523,335.896,48.531,335.732,46.554,335.732z"/>
						</g>
						<g>
							<g>
								<path d="M23.509,343.181c-3.267-1.538-6.324-3.485-9.09-5.787c-4.094-3.408-5.202-5.153-6.882-7.796l-0.129-0.204          l0.844-0.536l0.13,0.204c1.628,2.562,2.704,4.256,6.678,7.564c2.699,2.248,5.686,4.149,8.875,5.651L23.509,343.181z"/>
							</g>
							<g>
								<path d="M34.218,337.217c-2.219-2.826-4.132-5.899-5.688-9.135c-1.427-2.97-2.562-6.097-3.371-9.295l0.969-0.245          c0.794,3.133,1.905,6.197,3.304,9.107c1.523,3.171,3.398,6.182,5.573,8.95L34.218,337.217z"/>
							</g>
							<g>
								<path d="M46.014,334.685c-0.863-3.409-1.359-6.915-1.477-10.42c-0.103-3.076,0.087-6.179,0.562-9.224l0.988,0.154          c-0.466,2.983-0.65,6.023-0.55,9.037c0.114,3.434,0.601,6.868,1.445,10.208L46.014,334.685z"/>
							</g>
						</g>
						<g>
							<path d="M45.442,407.984c-3.166-7.255-4.729-16.682-4.27-27.014l25.703-5.979l-22.38-13.977         c2.911-9.916,7.441-18.325,12.784-24.178c17.178,5.241,28.251,22.551,25.221,40.767         C79.468,395.819,63.391,408.587,45.442,407.984z"/>
							<path d="M46.66,408.505c-0.41,0-0.822-0.007-1.235-0.021l-0.315-0.01l-0.126-0.29c-3.231-7.406-4.763-17.079-4.31-27.236         l0.017-0.379l24.897-5.792l-21.68-13.54l0.107-0.364c2.901-9.883,7.36-18.312,12.894-24.375l0.213-0.233l0.302,0.092         c17.602,5.371,28.595,23.138,25.568,41.328C80.036,395.453,64.537,408.505,46.66,408.505z M45.774,407.494         c0.296,0.007,0.592,0.011,0.886,0.011c17.393,0,32.47-12.697,35.346-29.984c2.927-17.592-7.624-34.778-24.571-40.114         c-5.193,5.783-9.566,14.061-12.353,23.384l23.079,14.414l-26.506,6.166C41.27,391.107,42.728,400.355,45.774,407.494z"/>
						</g>
					</g>
					<g>
						<g>
							<path style="fill:#FFFFFF;" d="M183.749,379.822c1.349-18.417-11.263-34.64-28.848-38.286         c-1.547-0.335-3.152-0.55-4.764-0.668c-20.029-1.468-37.462,13.585-38.932,33.639c-1.468,20.029,13.585,37.463,33.614,38.93         c1.612,0.118,3.231,0.139,4.811,0.033C167.559,412.426,182.4,398.239,183.749,379.822z"/>
							<path d="M147.526,414.038c-0.891,0-1.808-0.034-2.743-0.103c-9.82-0.719-18.773-5.221-25.211-12.676         c-6.437-7.455-9.586-16.969-8.866-26.789c1.488-20.289,19.195-35.588,39.467-34.101c1.703,0.125,3.329,0.353,4.834,0.678         c18.016,3.735,30.589,20.421,29.242,38.811l0,0c-1.347,18.376-16.218,33.04-34.59,34.11         C148.969,414.015,148.257,414.038,147.526,414.038z M147.456,341.269c-18.599,0-34.371,14.421-35.752,33.273         c-0.7,9.554,2.362,18.81,8.625,26.062c6.263,7.253,14.973,11.632,24.526,12.333c1.657,0.122,3.25,0.133,4.741,0.033         c17.878-1.04,32.345-15.307,33.654-33.185c1.311-17.892-10.921-34.125-28.451-37.76c-1.464-0.316-3.043-0.538-4.699-0.66         C149.214,341.301,148.331,341.269,147.456,341.269z"/>
						</g>
						<g>
							<g>
								<path d="M178.642,358.725l-0.201-0.979c3.453-0.708,6.803-1.852,9.957-3.399c4.644-2.278,6.089-3.67,8.275-5.778          l0.173-0.166l0.693,0.721l-0.172,0.165c-2.255,2.172-3.745,3.608-8.528,5.955          C185.608,356.829,182.178,357.999,178.642,358.725z"/>
							</g>
							<g>
								<path d="M169.641,350.403l-0.619-0.785c2.768-2.18,5.3-4.664,7.526-7.384c2.046-2.499,3.848-5.215,5.356-8.072l0.885,0.467          c-1.54,2.916-3.38,5.688-5.468,8.239C175.05,345.643,172.466,348.179,169.641,350.403z"/>
							</g>
							<g>
								<path d="M158.775,345.162l-0.885-0.467c1.608-3.043,2.891-6.266,3.812-9.579c0.809-2.907,1.346-5.906,1.596-8.912          l0.996,0.083c-0.255,3.068-0.803,6.129-1.629,9.097C161.725,338.766,160.416,342.056,158.775,345.162z"/>
							</g>
						</g>
						<g>
							<path d="M149.63,413.469c-3.817-6.934-6.237-16.179-6.726-26.51l25.047-8.308l-23.567-11.869         c1.991-10.141,5.732-18.93,10.517-25.248c17.585,3.646,30.198,19.869,28.848,38.286         C182.4,398.239,167.559,412.426,149.63,413.469z"/>
							<path d="M149.344,413.987l-0.152-0.276c-3.896-7.078-6.306-16.57-6.786-26.727l-0.019-0.378l24.264-8.048l-22.829-11.497         l0.073-0.372c1.984-10.108,5.653-18.91,10.608-25.453l0.19-0.252l0.31,0.064c18.02,3.736,30.593,20.422,29.246,38.812         c-1.347,18.376-16.218,33.04-34.59,34.11L149.344,413.987z M143.423,387.315c0.508,9.732,2.807,18.807,6.493,25.635         c17.727-1.19,32.033-15.393,33.335-33.165c1.303-17.786-10.777-33.933-28.142-37.694c-4.642,6.233-8.238,14.876-10.16,24.417         l24.303,12.239L143.423,387.315z"/>
						</g>
					</g>
				</g>
				<g>
					<g>
						<path style="fill:#FFBCBA;" d="M105.634,387.382c0.124,4.69-3.887,8.6-8.959,8.735c-5.072,0.134-9.284-3.559-9.408-8.248        c-0.124-4.69,3.886-8.6,8.958-8.735C101.297,378.999,105.51,382.692,105.634,387.382z"/>
						<path d="M96.406,396.62c-2.476,0-4.816-0.862-6.62-2.442c-1.883-1.651-2.955-3.887-3.019-6.296        c-0.064-2.409,0.888-4.698,2.681-6.447c1.782-1.738,4.184-2.733,6.764-2.801c2.6-0.054,5.031,0.799,6.903,2.439        c1.883,1.65,2.955,3.887,3.018,6.296c0.131,4.958-4.105,9.106-9.444,9.248C96.595,396.619,96.5,396.62,96.406,396.62z         M96.495,379.63c-0.085,0-0.171,0.001-0.256,0.003c-2.327,0.061-4.491,0.956-6.093,2.518        c-1.591,1.551-2.436,3.577-2.379,5.704c0.056,2.127,1.007,4.105,2.678,5.57c1.682,1.474,3.892,2.256,6.217,2.191        c4.788-0.126,8.589-3.814,8.472-8.221c-0.056-2.127-1.007-4.105-2.678-5.571C100.836,380.404,98.727,379.63,96.495,379.63z"/>
					</g>
				</g>
				<g>
					<g>
						<path style="fill:#FFB500;" d="M83.139,398.878c-4.196-1.749-9.121,0.774-9.809,5.059c-2.67,16.625-5.219,50.924,18.47,53.844        c23.846,2.939,27.418-34.062,27.759-51.985c0.084-4.429-4.537-7.455-9.074-6c-3.886,1.247-8.521,2.257-13.757,2.108        C91.29,401.75,86.803,400.405,83.139,398.878z"/>
						<path d="M94.407,458.445c-0.87,0-1.76-0.056-2.668-0.168c-5.822-0.717-10.489-3.363-13.873-7.865        c-8.966-11.93-7-34.288-5.03-46.554c0.339-2.104,1.66-3.94,3.625-5.035c2.102-1.172,4.67-1.323,6.87-0.407l0,0        c4.518,1.882,8.904,2.86,13.412,2.988c4.38,0.124,8.829-0.557,13.591-2.084c2.435-0.783,5.066-0.376,7.033,1.088        c1.751,1.303,2.732,3.27,2.692,5.397c-0.263,13.752-2.414,38.308-13.881,48.255        C102.818,456.976,98.868,458.445,94.407,458.445z M80.332,398.822c-1.17,0-2.343,0.294-3.384,0.875        c-1.696,0.945-2.835,2.52-3.124,4.319c-1.945,12.109-3.902,34.16,4.842,45.795c3.214,4.276,7.653,6.79,13.196,7.474        c5.275,0.647,9.868-0.69,13.661-3.979c11.174-9.693,13.277-33.933,13.536-47.519c0.034-1.8-0.8-3.468-2.289-4.576        c-1.708-1.271-3.999-1.622-6.132-0.938c-4.871,1.563-9.428,2.258-13.925,2.132c-4.632-0.132-9.135-1.134-13.768-3.065l0,0        C82.115,398.994,81.224,398.822,80.332,398.822z"/>
					</g>
					<g>
						<g id="XMLID_681_">
							<path style="fill:#FFFFFF;" d="M80.382,403.529c-1.122-0.497-2.394,0.287-2.537,1.562         c-1.148,10.219-3.981,46.949,14.442,48.233c21.068,1.469,22.115-35.733,22.012-45.835c-0.013-1.24-1.132-2.124-2.279-1.792         c-3.633,1.05-9.359,2.193-16.405,1.648C88.986,406.832,83.761,405.025,80.382,403.529z"/>
							<path d="M93.477,453.866c-0.404,0-0.812-0.014-1.226-0.043c-3.603-0.251-6.646-1.838-9.044-4.718         c-8.838-10.607-6.72-36.413-5.86-44.07c0.088-0.78,0.536-1.472,1.199-1.853c0.636-0.364,1.378-0.403,2.038-0.11l0,0         c4.736,2.098,9.806,3.367,15.068,3.774c5.469,0.425,11.077-0.141,16.229-1.63c0.681-0.195,1.394-0.066,1.962,0.355         c0.599,0.446,0.947,1.143,0.955,1.913c0.075,7.417-0.491,32.384-10.946,42.235C100.93,452.475,97.443,453.866,93.477,453.866         z M79.677,403.879c-0.218,0-0.434,0.057-0.632,0.171c-0.394,0.226-0.65,0.625-0.703,1.097         c-0.849,7.557-2.95,33.015,5.634,43.318c2.219,2.662,5.026,4.129,8.347,4.36c4.186,0.296,7.835-0.997,10.845-3.833         c10.159-9.572,10.706-34.183,10.632-41.498c-0.005-0.454-0.206-0.862-0.552-1.12c-0.32-0.239-0.708-0.308-1.088-0.197         c-5.264,1.521-10.998,2.099-16.582,1.666c-5.377-0.416-10.557-1.713-15.396-3.857l0,0         C80.018,403.914,79.848,403.879,79.677,403.879z"/>
						</g>
						<g>
							
								<rect x="65.111" y="428.224" transform="matrix(0.0654 -0.9979 0.9979 0.0654 -345.9999 488.0353)" width="44.839" height="1"/>
						</g>
						<g>
							
								<rect x="78.118" y="429.347" transform="matrix(0.0751 -0.9972 0.9972 0.0751 -335.5392 497.9221)" width="45.077" height="1.001"/>
						</g>
						<g>
							<polygon points="112.265,430.844 77.1,428.364 77.261,427.857 77.294,427.391 112.335,429.847        "/>
						</g>
					</g>
				</g>
			</g>
			<g>
				<g>
					<g>
						<path style="fill:#FFFFFF;" d="M200.481,287.966c-0.032-10.927-5.692-24.513-24.736-23.729        c10.44-26.886-43.662-81.26-90.635-28.013c-19.255-23.856-64.536-1.913-49.706,30.086c-2.821-1.411-5.969-2.336-9.319-2.636        c-13.281-1.189-24.715,7.865-25.538,20.223c-0.822,12.358,9.277,23.339,22.559,24.528c0.501,0.045,0.997,0.07,1.492,0.086        l0.106,2.585c0.162,3.948,3.721,7.135,7.95,7.119c4.229-0.016,7.526-3.23,7.364-7.178l-0.108-2.642l5.856,0.173l0.55,13.416        c0.162,3.948,3.721,7.135,7.95,7.119c4.229-0.016,7.526-3.23,7.364-7.178l-0.367-8.972c-0.083-2.034,1.675-3.6,3.642-3.245        c0.544,0.858,4.722,7.213,12.672,8.196c6.829,0.844,11.627-2.871,12.572-3.635c0.329,0.016,2.06,0.133,3.425,1.628        c0.866,0.948,1.385,2.224,1.35,3.601l-0.699,27.248c-0.101,3.95,2.36,7.654,6.097,8.76c4.755,1.407,9.037-1.893,9.159-6.643        l0.87-33.92c0.06-2.342,2.305-5.711,4.145-4.336c11.773,8.799,20.527,0.6,20.527,0.6c1.627,1.302,6.725,5.048,14.182,5.312        c7.629,0.271,12.92-3.271,14.551-4.464l-0.008,1.704c-0.019,3.945,1.732,18.685,9.207,17.598        c6.639-0.965,6.098-13.101,6.117-17.046c0.005-1.035,1.295-4.957,1.832-5.231c1.829-0.932,3.846-1.312,5.672-2.2        c3.298-1.603,6.385-3.735,8.862-6.483C198.486,297.013,200.495,292.664,200.481,287.966z"/>
						<path d="M102.516,356.328c-0.772,0-1.559-0.114-2.338-0.344c-3.91-1.157-6.566-4.961-6.456-9.251l0.7-27.247        c0.031-1.202-0.402-2.356-1.219-3.251c-1.037-1.136-2.323-1.394-2.898-1.452c-1.841,1.447-6.472,4.398-12.792,3.618        c-7.591-0.938-11.856-6.643-12.905-8.229c-0.708-0.067-1.402,0.15-1.939,0.617c-0.61,0.532-0.941,1.314-0.907,2.144        l0.368,8.972c0.079,1.956-0.631,3.821-2,5.253c-1.477,1.545-3.614,2.437-5.862,2.445c-0.012,0-0.023,0-0.034,0        c-4.474,0-8.245-3.402-8.417-7.598l-0.53-12.951l-4.854-0.143l0.087,2.106c0.08,1.955-0.63,3.821-1.999,5.253        c-1.478,1.545-3.614,2.437-5.863,2.446c-0.012,0-0.023,0-0.034,0c-4.473,0-8.244-3.402-8.417-7.598l-0.086-2.124        c-0.352-0.016-0.703-0.038-1.058-0.07c-13.528-1.211-23.852-12.453-23.013-25.059c0.387-5.803,3.09-11.128,7.612-14.996        c4.941-4.226,11.67-6.3,18.47-5.692c2.882,0.258,5.66,0.968,8.276,2.115c-6.742-16.056,1.708-28.551,11.208-34.461        c6.239-3.882,13.568-5.68,20.643-5.062c7.58,0.662,14.091,4.008,18.867,9.687c20.505-22.952,46.05-28.533,68.433-14.913        c17.096,10.402,27.409,29.976,22.911,43.171c7.348-0.16,13.252,1.814,17.508,5.886c6.066,5.804,6.992,13.997,7.005,18.364l0,0        c0.014,4.517-1.823,9.05-5.173,12.767c-2.358,2.616-5.392,4.836-9.015,6.597c-0.909,0.442-1.865,0.763-2.79,1.073        c-0.963,0.323-1.959,0.657-2.875,1.123c-0.341,0.336-1.553,3.804-1.558,4.788l0.001,0.918        c0.02,4.686,0.066,15.658-6.546,16.62c-1.664,0.244-3.168-0.217-4.485-1.361c-4.446-3.866-5.308-14.183-5.295-16.734        l0.004-0.74c-2.714,1.807-7.61,4.225-14.064,4.001c-6.714-0.239-11.643-3.231-14.154-5.168        c-1.743,1.386-10.148,7.144-20.836-0.843c-0.352-0.262-0.709-0.29-1.13-0.086c-1.1,0.533-2.176,2.494-2.216,4.035l-0.87,33.92        c-0.063,2.465-1.19,4.672-3.093,6.055C105.616,355.852,104.097,356.328,102.516,356.328z M89.98,313.76l0.189,0.009        c0.524,0.025,2.345,0.228,3.771,1.79c0.992,1.087,1.518,2.49,1.48,3.951l-0.7,27.247c-0.097,3.778,2.317,7.255,5.739,8.267        c2.073,0.614,4.202,0.285,5.836-0.904c1.649-1.199,2.627-3.121,2.682-5.272l0.87-33.92c0.044-1.706,1.196-4.142,2.779-4.91        c0.749-0.364,1.518-0.297,2.165,0.185c11.307,8.448,19.801,0.714,19.886,0.636l0.316-0.296l0.338,0.271        c2.3,1.84,7.161,4.964,13.887,5.203c6.86,0.247,11.864-2.632,14.239-4.368l0.8-0.585l-0.014,2.695        c-0.018,3.64,1.204,12.716,4.951,15.975c1.103,0.958,2.308,1.326,3.685,1.126c5.753-0.837,5.71-11.201,5.69-15.626        l-0.001-0.927c0.005-0.938,1.24-5.233,2.104-5.674c0.981-0.5,2.014-0.846,3.012-1.181c0.936-0.314,1.819-0.61,2.67-1.024        c3.507-1.705,6.438-3.847,8.71-6.368c3.183-3.531,4.929-7.826,4.915-12.094l0,0c-0.012-4.208-0.898-12.096-6.696-17.645        c-4.194-4.013-10.091-5.892-17.518-5.586l-0.763,0.032l0.276-0.712c4.958-12.77-5.227-32.306-22.242-42.66        c-6.884-4.189-17.946-8.749-31.546-6.684c-12.822,1.945-24.937,9.294-36.007,21.843l-0.392,0.444l-0.372-0.461        c-7.705-9.546-23.429-14.283-38.579-4.859c-9.395,5.845-17.726,18.367-10.284,34.421l0.601,1.297l-1.278-0.64        c-2.854-1.428-5.93-2.298-9.14-2.586c-6.528-0.583-12.992,1.405-17.73,5.457c-4.315,3.69-6.896,8.77-7.264,14.302        C0.243,296,10.158,306.765,23.15,307.928c0.491,0.044,0.979,0.069,1.465,0.085l0.464,0.015l0.125,3.049        c0.15,3.667,3.475,6.639,7.416,6.639c0.011,0,0.021,0,0.031,0c1.978-0.008,3.853-0.787,5.144-2.137        c1.18-1.234,1.791-2.84,1.722-4.521l-0.13-3.179l6.858,0.203l0.569,13.881c0.149,3.667,3.474,6.639,7.416,6.639        c0.011,0,0.021,0,0.031,0c1.978-0.008,3.853-0.787,5.143-2.136c1.181-1.234,1.793-2.84,1.724-4.521l-0.368-8.972        c-0.046-1.136,0.409-2.207,1.25-2.939c0.821-0.714,1.909-1.009,2.981-0.818l0.216,0.039l0.118,0.185        c0.739,1.168,4.808,7.04,12.31,7.967c6.131,0.757,10.571-2.215,12.196-3.527L89.98,313.76z"/>
					</g>
				</g>
				<g>
					<path style="fill:#FFFFFF;" d="M49.657,288.626c0.383-6.617,6.154-11.597,12.891-11.123       c6.737,0.475,11.887,6.224,11.504,12.841"/>
					<path d="M74.551,290.373l-0.998-0.058c0.366-6.335-4.586-11.859-11.04-12.314c-3.173-0.224-6.203,0.79-8.549,2.853       c-2.281,2.006-3.634,4.776-3.809,7.8l-0.998-0.058c0.19-3.293,1.663-6.309,4.146-8.493c2.548-2.241,5.851-3.344,9.279-3.099       C69.58,277.498,74.949,283.495,74.551,290.373z"/>
				</g>
				<g>
					<g>
						<path style="fill:#FFFFFF;" d="M119.081,265.623c0.301-6.623,6.009-11.672,12.75-11.278        c6.741,0.394,11.961,6.082,11.661,12.705"/>
						<path d="M143.99,267.072l-0.998-0.045c0.287-6.341-4.732-11.806-11.19-12.183c-3.165-0.175-6.19,0.864-8.509,2.954        c-2.257,2.034-3.575,4.821-3.713,7.848l-0.998-0.045c0.149-3.297,1.585-6.332,4.041-8.545c2.52-2.271,5.799-3.413,9.237-3.21        C138.861,254.254,144.304,260.187,143.99,267.072z"/>
					</g>
					<g>
						<path style="fill:#FFFFFF;" d="M143.5,267.497c0.2-4.406,3.998-7.765,8.482-7.503c4.485,0.262,7.958,4.046,7.758,8.452"/>
						<path d="M160.239,268.469l-0.998-0.045c0.187-4.127-3.083-7.685-7.288-7.931c-2.062-0.122-4.03,0.562-5.539,1.922        c-1.468,1.323-2.325,3.136-2.415,5.104l-0.998-0.045c0.102-2.238,1.076-4.299,2.744-5.802        c1.709-1.542,3.939-2.311,6.267-2.178C156.76,259.772,160.451,263.798,160.239,268.469z"/>
					</g>
				</g>
			</g>
		</g>
		<g>
			<g>
				<g>
					<g>
						<path style="fill:#71D2C4;" d="M501.954,491.873c0.413,8.137-33.651,16.478-76.084,18.631        c-42.454,2.154-77.187-2.697-77.6-10.834c-0.272-5.363,14.47-10.809,36.696-14.532c0.247-4.462,0.336-9.206,0.08-14.26        c-0.12-2.363-0.542-4.999-1.152-7.688c-2.579-11.447-8.481-21.799-16.516-30.332c-0.241-0.276-0.502-0.551-0.763-0.827        c-48.37-49.895-52.867-110.112-48.708-150.352c2.777-26.882,9.426-44.854,9.426-44.854l165.623-8.403        c0,0,8.413,17.208,13.917,43.67c8.182,39.449,9.828,99.502-32.716,153.885c-0.407,0.515-0.793,1.029-1.178,1.564        c-7.15,9.716-11.357,21.404-11.795,33.479c-0.038,1.279-0.058,2.516,0.001,3.667c0.256,5.858,0.841,11.309,1.655,16.377        C485.942,482.447,501.677,486.428,501.954,491.873z"/>
						<path d="M405.882,511.525c-33.471,0-57.747-4.653-58.111-11.829c-0.134-2.624,3.189-9.32,36.718-14.984        c0.261-4.92,0.279-9.441,0.058-13.808c-0.111-2.197-0.494-4.755-1.14-7.603c-2.459-10.914-8.128-21.322-16.394-30.1        c-0.244-0.279-0.494-0.544-0.744-0.808c-48.135-49.652-53.137-109.391-48.859-150.765c2.751-26.637,9.387-44.796,9.454-44.977        l0.114-0.309l0.329-0.017l165.953-8.419l0.145,0.296c0.084,0.173,8.504,17.568,13.957,43.788        c8.402,40.514,9.531,100.17-32.812,154.295c-0.402,0.511-0.785,1.019-1.165,1.548c-7.225,9.818-11.271,21.298-11.701,33.205        c-0.035,1.181-0.059,2.44-0.001,3.624c0.236,5.383,0.77,10.738,1.587,15.927c9.619,0.595,38.768,3.079,39.184,11.259l0,0        c0.433,8.542-33.195,16.956-76.559,19.156C418.958,511.356,412.254,511.525,405.882,511.525z M327.69,237.308        c-0.879,2.494-6.745,19.815-9.287,44.423c-4.255,41.163,0.717,100.591,48.57,149.952c0.28,0.296,0.54,0.571,0.78,0.846        c8.375,8.894,14.129,19.463,16.627,30.551c0.658,2.903,1.05,5.518,1.163,7.772c0.23,4.52,0.204,9.202-0.079,14.314        l-0.022,0.399l-0.395,0.066c-34.911,5.848-36.347,12.7-36.28,14.014c0.393,7.716,35.694,12.46,77.075,10.36        c41.376-2.099,76.002-10.391,75.611-18.107l0,0c-0.248-4.889-15.418-8.945-38.647-10.336l-0.399-0.024l-0.064-0.396        c-0.858-5.35-1.417-10.879-1.661-16.434c-0.06-1.216-0.035-2.499,0-3.704c0.44-12.111,4.551-23.784,11.893-33.76        c0.386-0.536,0.776-1.056,1.188-1.577c42.105-53.822,40.978-113.167,32.619-153.474        c-5.038-24.222-12.611-40.861-13.736-43.255L327.69,237.308z"/>
					</g>
					<g>
						<path style="fill:#71D2C4;" d="M376.99,445.068c10.179,3.097,26.467,6.7,46.537,5.394c18.183-1.184,32.627-5.951,42.018-9.887        "/>
						<path d="M415.001,451.24c-12.912,0-25.711-1.907-38.156-5.693l0.291-0.957c15.075,4.587,30.676,6.393,46.359,5.374        c14.417-0.938,28.5-4.252,41.856-9.849l0.387,0.922c-13.459,5.64-27.65,8.979-42.179,9.925        C420.703,451.147,417.849,451.24,415.001,451.24z"/>
					</g>
					<g>
						<path style="fill:#71D2C4;" d="M385.361,485.229c5.819,3.203,20.827,10.447,40.946,8.981        c18.462-1.345,31.428-9.311,36.914-13.149"/>
						<path d="M421.064,494.901c-16.525,0-29.407-5.636-35.945-9.234l0.482-0.876c7.122,3.919,21.876,10.29,40.67,8.921        c16.602-1.21,29.102-7.77,36.664-13.06l0.572,0.819c-7.665,5.362-20.335,12.012-37.164,13.238        C424.548,494.84,422.785,494.901,421.064,494.901z"/>
					</g>
				</g>
				<g>
					<g>
						<g>
							<path style="fill:#FFFFFF;" d="M317.906,281.68c2.777-26.882,9.426-44.854,9.426-44.854l165.623-8.403         c0,0,8.413,17.208,13.917,43.67L317.906,281.68z"/>
							<path d="M317.349,282.209l0.061-0.58c2.751-26.637,9.387-44.796,9.454-44.977l0.114-0.309l0.329-0.017l165.953-8.419         l0.145,0.296c0.084,0.173,8.504,17.568,13.957,43.788l0.119,0.572l-0.583,0.03L317.349,282.209z M327.69,237.308         c-0.872,2.474-6.653,19.544-9.227,43.843l187.799-9.528c-5.037-23.912-12.5-40.309-13.616-42.684L327.69,237.308z"/>
						</g>
						<g>
							<path d="M474.156,425.978c-0.008,0.01-0.262,0.329-0.597,0.774c-0.195,0.26-0.388,0.522-0.581,0.789         c-13.87,6.39-31.087,10.58-52.334,11.658c-21.33,1.082-38.862-1.366-53.268-6.342c-0.241-0.276-0.502-0.551-0.763-0.827         c-48.37-49.895-52.867-110.112-48.708-150.352c7.123-0.616,18.385-1.752,32.13-3.88c35.389-5.48,39.895-3.485,57.959-3.568         c26.345-0.121,26.448,2.752,46.686-1.741c9.654-2.143,16.097-5.799,28.467-5.551c10.093,0.202,18.313,2.887,23.724,5.153         c3.636,16.62,8.048,47.147-0.197,83.26C506.676,355.353,497.233,396.714,474.156,425.978z"/>
							<path d="M410.981,439.949c-16.341,0-31.026-2.217-43.768-6.618l-0.126-0.043L367,433.187         c-0.231-0.265-0.481-0.529-0.731-0.793c-48.135-49.652-53.137-109.391-48.859-150.765l0.042-0.411l0.412-0.036         c10.62-0.919,21.419-2.223,32.097-3.876c27.404-4.244,36.196-4.017,47.327-3.727c3.252,0.084,6.622,0.178,10.706,0.152         c8.981-0.042,14.915,0.265,19.667,0.511c9.081,0.468,13.643,0.706,26.913-2.24c2.912-0.646,5.56-1.44,8.122-2.208         c6.052-1.815,11.761-3.538,20.463-3.354c8.022,0.161,16.065,1.908,23.907,5.192l0.239,0.1l0.056,0.254         c6.038,27.602,5.97,56.468-0.197,83.478l-0.008-0.002c-0.501,2.38-10.223,42.437-32.601,70.818l-0.029,0.038         c-0.069,0.088-0.291,0.369-0.566,0.735c-0.192,0.257-0.384,0.516-0.574,0.781l-0.077,0.107l-0.12,0.055         c-14.631,6.74-32.3,10.678-52.517,11.703C417.381,439.866,414.148,439.949,410.981,439.949z M367.665,432.429         c15.061,5.18,32.875,7.294,52.954,6.272c20.034-1.016,37.539-4.904,52.031-11.558c0.169-0.233,0.338-0.462,0.509-0.69         c0.283-0.376,0.51-0.663,0.581-0.754l0.416,0.28l-0.393-0.31c22.777-28.886,32.331-70.015,32.425-70.427         c6.115-26.785,6.201-55.407,0.251-82.788c-7.648-3.171-15.487-4.858-23.301-5.015c-8.573-0.184-14.181,1.521-20.155,3.312         c-2.579,0.773-5.246,1.573-8.193,2.227c-13.4,2.976-18.007,2.738-27.182,2.262c-4.739-0.245-10.615-0.551-19.611-0.509         c-4.111,0.02-7.477-0.068-10.736-0.153c-11.081-0.288-19.834-0.514-47.148,3.715c-10.561,1.635-21.241,2.93-31.751,3.849         c-4.181,41.146,0.916,100.342,48.612,149.541C367.22,431.944,367.449,432.187,367.665,432.429z"/>
						</g>
					</g>
					<g>
						<g>
							<g>
								<path style="fill:#FFFFFF;" d="M365.312,403.449c-2.044,0-3.707-1.663-3.707-3.707c0-2.044,1.663-3.707,3.707-3.707          c2.045,0,3.708,1.663,3.708,3.707C369.02,401.785,367.357,403.449,365.312,403.449z M365.312,396.534          c-1.768,0-3.207,1.439-3.207,3.207c0,1.769,1.439,3.207,3.207,3.207c1.769,0,3.208-1.438,3.208-3.207          C368.52,397.973,367.08,396.534,365.312,396.534z"/>
							</g>
						</g>
						<g>
							<g>
								<path style="fill:#FFFFFF;" d="M477.408,291.479c-2.044,0-3.707-1.663-3.707-3.707c0-2.044,1.663-3.708,3.707-3.708          c2.045,0,3.708,1.663,3.708,3.708C481.116,289.816,479.453,291.479,477.408,291.479z M477.408,284.564          c-1.768,0-3.207,1.439-3.207,3.208c0,1.768,1.439,3.207,3.207,3.207c1.769,0,3.208-1.439,3.208-3.207          C480.616,286.003,479.177,284.564,477.408,284.564z"/>
							</g>
						</g>
						<g>
							<g>
								<path style="fill:#FFFFFF;" d="M420.318,423.883c-2.044,0-3.707-1.663-3.707-3.707c0-2.044,1.663-3.708,3.707-3.708          c2.045,0,3.708,1.663,3.708,3.708C424.026,422.22,422.362,423.883,420.318,423.883z M420.318,416.968          c-1.769,0-3.207,1.439-3.207,3.208c0,1.769,1.439,3.207,3.207,3.207c1.769,0,3.208-1.438,3.208-3.207          C423.526,418.407,422.086,416.968,420.318,416.968z"/>
							</g>
						</g>
						<g>
							<g>
								<path style="fill:#FFFFFF;" d="M324.418,309.023c-2.044,0-3.707-1.663-3.707-3.707c0-2.045,1.663-3.708,3.707-3.708          c2.045,0,3.708,1.663,3.708,3.708C328.126,307.36,326.463,309.023,324.418,309.023z M324.418,302.109          c-1.769,0-3.207,1.439-3.207,3.208c0,1.768,1.438,3.207,3.207,3.207c1.768,0,3.208-1.439,3.208-3.207          C327.626,303.548,326.186,302.109,324.418,302.109z"/>
							</g>
						</g>
						<g>
							<g>
								<path style="fill:#FFFFFF;" d="M404.009,328.816c-2.044,0-3.707-1.663-3.707-3.707c0-2.044,1.663-3.707,3.707-3.707          c2.045,0,3.708,1.663,3.708,3.707C407.717,327.153,406.054,328.816,404.009,328.816z M404.009,321.901          c-1.769,0-3.207,1.439-3.207,3.207c0,1.768,1.438,3.207,3.207,3.207c1.768,0,3.208-1.439,3.208-3.207          C407.217,323.34,405.777,321.901,404.009,321.901z"/>
							</g>
						</g>
						<g>
							<g>
								<path style="fill:#FFFFFF;" d="M391.324,295.376c-3.223,0-5.845-2.622-5.845-5.845c0-3.223,2.622-5.844,5.845-5.844          c3.223,0,5.845,2.622,5.845,5.844C397.168,292.754,394.546,295.376,391.324,295.376z M391.324,284.187          c-2.947,0-5.345,2.398-5.345,5.344c0,2.947,2.397,5.345,5.345,5.345c2.947,0,5.345-2.398,5.345-5.345          C396.668,286.585,394.271,284.187,391.324,284.187z"/>
							</g>
						</g>
						<g>
							<g>
								<path style="fill:#FFFFFF;" d="M471.724,388.176c-3.223,0-5.845-2.622-5.845-5.845c0-3.223,2.622-5.844,5.845-5.844          c3.223,0,5.845,2.622,5.845,5.844C477.568,385.554,474.946,388.176,471.724,388.176z M471.724,376.987          c-2.947,0-5.345,2.397-5.345,5.344c0,2.947,2.397,5.345,5.345,5.345s5.345-2.397,5.345-5.345          C477.068,379.385,474.671,376.987,471.724,376.987z"/>
							</g>
						</g>
					</g>
				</g>
				<g>
					<g>
						<path style="fill:#FFFFFF;" d="M496.025,490.658c-0.633-1.081-2.319-1.69-3.421-0.897c-8.152,5.865-18.342,7.183-28.061,8.319        c-1.341,0.157-2.5,1.037-2.5,2.5c0,1.23,1.15,2.658,2.5,2.5c10.561-1.234,21.713-2.618,30.585-9.001        C496.222,493.291,496.752,491.901,496.025,490.658z"/>
					</g>
					<g>
						<path style="fill:#FFFFFF;" d="M391.503,451.888c-0.722-3.134-5.544-1.808-4.821,1.329c2.223,9.656,3.078,19.541,2.604,29.438        c-0.154,3.216,4.846,3.208,5,0C394.779,472.329,393.822,461.962,391.503,451.888z"/>
					</g>
					<g>
						<path style="fill:#FFFFFF;" d="M501.965,317.896c-0.04-9.388-0.869-18.775-2.444-28.029c-0.227-1.332-1.786-2.133-3.027-1.828        c-1.392,0.343-2.055,1.692-1.828,3.028c2.695,15.829,2.988,32.026,1.061,47.962c-1.925,15.926-6.174,31.592-12.479,46.341        c-3.546,8.295-7.814,16.277-12.677,23.873c-1.74,2.717,2.514,5.348,4.248,2.638c8.925-13.94,15.784-29.218,20.345-45.127        C499.708,350.909,502.035,334.381,501.965,317.896z"/>
					</g>
				</g>
			</g>
			<g>
				<g>
					<path style="fill:#FFFFFF;" d="M510.398,231.596c-0.726-9.879-7.251-21.753-26.254-19.656       c3.326-14.109-12.338-23.134-23.153-13.597c-2.89-27.182-56.71-34.459-69.302-5.132c-20.779-20.171-64.687,2.972-47.818,30.829       c-2.912-1.071-6.12-1.678-9.491-1.705c-13.363-0.107-24.227,8.913-24.264,20.149c-0.038,11.235,10.764,20.43,24.127,20.538       c0.504,0.004,1.002-0.009,1.499-0.031l0.27,2.329c0.413,3.559,4.176,6.181,8.405,5.858c4.229-0.323,7.324-3.47,6.911-7.028       l-0.276-2.382l5.87-0.27l1.402,12.092c0.412,3.559,4.176,6.181,8.405,5.858c4.23-0.323,7.324-3.47,6.911-7.028l-0.937-8.086       c-0.212-1.833,1.447-3.378,3.437-3.199c0.598,0.736,5.182,6.179,13.198,6.488c6.885,0.266,11.45-3.443,12.347-4.203       c0.33-0.01,2.069-0.03,3.53,1.223c0.926,0.794,1.527,1.91,1.579,3.158l1.031,24.692c0.149,3.579,2.848,6.75,6.656,7.477       c4.847,0.926,8.921-2.37,8.742-6.675l-1.283-30.738c-0.089-2.122,1.58-4.012,3.872-4.223c2.85-0.264,5.341,1.719,5.509,4.324       l0.385,5.95c0.231,3.569,3.858,6.324,8.102,6.154s7.496-3.202,7.265-6.771l-0.687-10.61c1.71,1.059,7.048,4.075,14.525,3.771       c7.65-0.311,12.718-3.9,14.274-5.097l0.1,1.542c0.231,3.569,3.858,6.324,8.102,6.154c4.243-0.17,7.496-3.202,7.265-6.771       c-0.061-0.936,0.981-4.577,1.5-4.864c1.771-0.976,3.765-1.467,5.535-2.403c3.198-1.69,6.151-3.843,8.455-6.508       C508.977,239.923,510.71,235.844,510.398,231.596z"/>
					<path d="M416.113,300.627c-0.568,0-1.146-0.055-1.727-0.165c-3.932-0.751-6.901-4.093-7.062-7.947l-1.03-24.692       c-0.045-1.067-0.544-2.061-1.404-2.799c-1.12-0.959-2.447-1.094-3.023-1.103c-1.74,1.438-6.15,4.466-12.549,4.204       c-7.631-0.294-12.267-5.138-13.424-6.501c-0.816-0.012-1.522,0.272-2.047,0.811c-0.497,0.51-0.727,1.164-0.648,1.844       l0.938,8.086c0.191,1.656-0.317,3.314-1.434,4.668c-1.378,1.67-3.541,2.733-5.937,2.916c-4.493,0.351-8.498-2.484-8.94-6.299       l-1.349-11.629l-4.867,0.224l0.215,1.85c0.191,1.656-0.318,3.315-1.435,4.669c-1.378,1.67-3.541,2.733-5.937,2.915       c-4.471,0.346-8.497-2.482-8.94-6.299l-0.216-1.87c-0.351,0.011-0.705,0.016-1.06,0.014       c-13.615-0.109-24.661-9.548-24.622-21.039c0.017-4.917,2.098-9.673,5.86-13.393c4.723-4.669,11.598-7.288,18.907-7.254       c2.891,0.023,5.707,0.461,8.39,1.303c-7.004-12.761-1.241-23.936,6.685-30.246c5.845-4.653,13.561-7.49,21.168-7.785       c8.084-0.305,15.459,2.26,20.892,7.255c7.143-15.597,25.634-20.281,40.987-17.962c15.909,2.402,27.118,11.369,28.865,22.974       c5.075-4.023,11.616-4.609,16.9-1.443c5.304,3.178,7.758,9.049,6.507,15.442c7.809-0.738,14.096,0.824,18.689,4.646       c5.827,4.846,7.156,11.817,7.43,15.541l0,0c0.302,4.106-1.253,8.358-4.378,11.972c-2.195,2.54-5.089,4.768-8.6,6.623       c-0.88,0.465-1.815,0.825-2.72,1.172c-0.944,0.362-1.92,0.737-2.808,1.227c-0.357,0.368-1.294,3.593-1.242,4.394       c0.107,1.656-0.483,3.29-1.661,4.599c-1.46,1.622-3.677,2.607-6.082,2.704c-4.529,0.185-8.373-2.789-8.621-6.621l-0.041-0.629       c-2.592,1.831-7.329,4.389-13.815,4.652c-6.342,0.253-11.235-1.808-13.985-3.359l0.626,9.665c0.107,1.657-0.482,3.29-1.661,4.6       c-1.46,1.621-3.677,2.607-6.082,2.703c-4.511,0.191-8.372-2.789-8.621-6.621l-0.386-5.95c-0.068-1.058-0.574-2.04-1.425-2.766       c-0.953-0.814-2.244-1.213-3.539-1.092c-1.996,0.185-3.498,1.812-3.418,3.704l1.283,30.739c0.087,2.096-0.785,4.093-2.393,5.48       C419.911,299.978,418.071,300.627,416.113,300.627z M401.812,262.919c0.749,0,2.343,0.158,3.728,1.345       c1.074,0.921,1.696,2.17,1.754,3.517l1.03,24.692c0.142,3.396,2.77,6.342,6.25,7.007c2.282,0.438,4.506-0.104,6.102-1.481       c1.395-1.204,2.122-2.866,2.046-4.681l-1.283-30.739c-0.102-2.425,1.799-4.508,4.326-4.742c1.567-0.142,3.125,0.34,4.28,1.327       c1.058,0.903,1.688,2.133,1.773,3.462l0.386,5.95c0.214,3.295,3.661,5.848,7.582,5.686c2.139-0.086,4.099-0.951,5.38-2.373       c0.997-1.107,1.496-2.48,1.406-3.866l-0.749-11.578l0.825,0.511c2.419,1.499,7.517,3.971,14.24,3.697       c6.891-0.28,11.723-3.249,13.99-4.994l0.742-0.571l0.162,2.477c0.212,3.294,3.608,5.854,7.582,5.687       c2.139-0.086,4.099-0.951,5.38-2.374c0.996-1.107,1.496-2.48,1.406-3.866c-0.056-0.857,0.915-4.87,1.758-5.334       c0.947-0.522,1.956-0.91,2.932-1.284c0.917-0.353,1.784-0.686,2.611-1.123c3.4-1.797,6.196-3.948,8.31-6.394       c2.949-3.412,4.419-7.405,4.136-11.245l0,0c-0.262-3.566-1.528-10.236-7.071-14.846c-4.512-3.753-10.783-5.218-18.629-4.35       l-0.704,0.078l0.163-0.689c1.751-7.431-1.899-12.64-5.9-15.037c-5.151-3.087-11.603-2.332-16.436,1.93l-0.726,0.64       l-0.103-0.962c-1.231-11.581-12.276-20.612-28.138-23.007c-15.181-2.291-33.496,2.392-40.208,18.02l-0.286,0.668l-0.521-0.506       c-9.108-8.842-27.03-11.221-41.259,0.105c-10.145,8.077-12.307,19.331-5.782,30.107l0.739,1.221l-1.34-0.493       c-2.95-1.085-6.087-1.648-9.322-1.674c-7.027-0.059-13.662,2.482-18.196,6.966c-3.572,3.531-5.548,8.036-5.563,12.684       c-0.037,10.943,10.563,19.931,23.63,20.036c0.495,0.002,0.984-0.009,1.474-0.03l0.465-0.02l0.323,2.792       c0.382,3.29,3.899,5.722,7.87,5.418c2.125-0.162,4.035-1.093,5.241-2.555c0.941-1.143,1.372-2.534,1.212-3.917l-0.338-2.914       l6.871-0.317l1.456,12.556c0.382,3.29,3.915,5.719,7.87,5.418c2.126-0.162,4.036-1.093,5.241-2.555       c0.941-1.142,1.372-2.533,1.211-3.917l-0.938-8.086c-0.111-0.97,0.226-1.939,0.926-2.657c0.782-0.801,1.894-1.201,3.054-1.098       l0.21,0.019l0.133,0.164c0.815,1.002,5.263,6.012,12.83,6.305c6.202,0.225,10.461-2.778,12.004-4.086l0.134-0.113l0.176-0.005       C401.714,262.92,401.762,262.919,401.812,262.919z"/>
				</g>
				<g>
					<path d="M482.04,241.411l-0.98-0.199c0.53-2.601,0.114-5.229-1.17-7.401c-1.274-2.156-3.254-3.603-5.573-4.075       c-3.436-0.699-7.017,0.93-9.132,4.15l-0.743,1.131l-0.171-1.342c-0.529-4.155-3.375-7.45-7.081-8.198       c-2.398-0.485-4.855,0.097-6.932,1.633c-2.092,1.547-3.542,3.877-4.083,6.56l-0.98-0.198c0.591-2.925,2.178-5.47,4.469-7.165       c2.307-1.707,5.048-2.348,7.724-1.81c3.77,0.761,6.735,3.86,7.666,7.881c2.39-2.92,5.996-4.329,9.463-3.621       c2.601,0.529,4.814,2.143,6.234,4.545C482.161,235.687,482.619,238.567,482.04,241.411z"/>
				</g>
				<g>
					<path d="M360.188,219.198c-0.4-2.508,0.105-5.009,1.427-7.044c1.332-2.05,3.33-3.382,5.627-3.749       c3.195-0.512,6.432,1.022,8.385,3.87c1.062-2.966,3.486-5.102,6.424-5.567c4.6-0.729,8.982,2.795,9.783,7.849l-0.988,0.156       c-0.715-4.511-4.592-7.66-8.639-7.018c-2.89,0.458-5.219,2.783-5.933,5.924l-0.3,1.32l-0.63-1.198       c-1.631-3.101-4.818-4.846-7.944-4.349c-2.014,0.322-3.77,1.497-4.946,3.307c-1.186,1.826-1.64,4.078-1.277,6.341       L360.188,219.198z"/>
				</g>
			</g>
			<g>
				<g>
					<g>
						<g>
							<g>
								<path style="fill:#FFFFFF;" d="M419.888,335.101c0.205,4.939,0.863,9.662,1.902,14.088c0.647,2.746,1.425,5.372,2.345,7.855          c3.298,8.961,8.266,16.028,14.129,20.081c3.946,2.712,8.278,4.078,12.803,3.729c16.075-1.236,28.209-23.715,27.075-50.212          c-1.133-26.497-15.09-46.978-31.179-45.741c-1.155,0.092-2.291,0.291-3.396,0.585c-3.003,0.818-5.821,2.382-8.405,4.566          c-1.836,1.557-3.549,3.43-5.112,5.569c-0.027,0.014-0.039,0.039-0.051,0.064          C423.249,304.978,419.217,319.335,419.888,335.101z"/>
								<path d="M449.66,381.409c-4.015,0-7.936-1.298-11.679-3.871c-5.913-4.088-10.997-11.304-14.315-20.321          c-0.906-2.441-1.701-5.103-2.363-7.913c-1.069-4.556-1.714-9.328-1.916-14.183c-0.646-15.189,3.17-30.042,10.208-39.73          l0.079-0.102c1.592-2.171,3.33-4.062,5.166-5.618c2.693-2.276,5.585-3.846,8.596-4.667c1.153-0.306,2.325-0.507,3.487-0.601          c5.502-0.423,10.945,1.627,15.786,5.922c9.248,8.205,15.204,23.268,15.933,40.296c1.143,26.719-11.21,49.477-27.537,50.731          C450.623,381.39,450.141,381.409,449.66,381.409z M430.367,296.019c-6.901,9.585-10.614,24.146-9.979,39.06v0.001          c0.198,4.792,0.834,9.5,1.889,13.995c0.653,2.769,1.436,5.391,2.328,7.795c3.248,8.826,8.2,15.873,13.944,19.844          c3.996,2.746,8.19,3.97,12.48,3.641c15.795-1.214,27.734-23.505,26.613-49.691c-0.716-16.763-6.547-31.563-15.596-39.591          c-4.635-4.111-9.83-6.078-15.045-5.673c-1.101,0.088-2.214,0.28-3.306,0.569c-2.866,0.781-5.629,2.283-8.209,4.464          c-1.786,1.514-3.479,3.359-5.032,5.482L430.367,296.019z"/>
							</g>
							<g>
								<path style="fill:#00C257;" d="M419.888,335.101c0.205,4.939,0.863,9.662,1.902,14.088c0.647,2.746,1.425,5.372,2.345,7.855          c12.994,9.291,33.202-2.539,33.932-23.521l-17.029-11.554l20.251,1.445c0.063-0.403,0.153-0.808,0.203-1.21          c2.444-15.93-4.855-30.251-17.228-36.715c-3.366,0.92-6.53,2.68-9.429,5.118c-1.692,1.437-3.29,3.12-4.784,5.012          c-0.027,0.014-0.039,0.039-0.051,0.064C423.249,304.978,419.217,319.335,419.888,335.101z"/>
								<path d="M434.21,360.734c-3.727,0-7.313-1.102-10.365-3.283l-0.124-0.089l-0.054-0.143          c-0.906-2.442-1.701-5.104-2.363-7.914c-1.069-4.556-1.714-9.328-1.916-14.183c-0.646-15.189,3.17-30.042,10.208-39.73          l0.084-0.105c1.522-1.925,3.148-3.627,4.831-5.058c3.028-2.546,6.265-4.302,9.621-5.219l0.189-0.052l0.174,0.091          c13.05,6.817,19.915,21.433,17.49,37.233c-0.028,0.239-0.075,0.495-0.122,0.751c-0.028,0.154-0.056,0.308-0.08,0.461          l-0.071,0.454l-18.853-1.345l15.718,10.664l-0.01,0.276c-0.383,10.989-6.184,20.556-15.14,24.966          C440.406,359.996,437.261,360.734,434.21,360.734z M424.551,356.726c5.303,3.722,12.011,4.048,18.436,0.885          c8.55-4.21,14.114-13.325,14.57-23.829l-18.34-12.443l21.657,1.546c0.002-0.011,0.004-0.022,0.006-0.032          c0.043-0.236,0.087-0.472,0.115-0.707c2.35-15.316-4.237-29.464-16.789-36.119c-3.148,0.892-6.192,2.562-9.049,4.965          c-1.641,1.393-3.227,3.055-4.713,4.939l-0.077,0.089c-6.901,9.585-10.614,24.146-9.979,39.06v0.001          c0.198,4.792,0.834,9.5,1.889,13.995C422.917,351.789,423.682,354.362,424.551,356.726z"/>
							</g>
						</g>
					</g>
					<g>
						<g>
							<g>
								<path style="fill:#FFFFFF;" d="M329.967,338.7c0.4,4.92,1.246,9.611,2.462,13.996c0.756,2.72,1.639,5.317,2.66,7.767          c3.657,8.842,8.913,15.749,14.945,19.624c4.059,2.591,8.453,3.83,12.971,3.353c16.052-1.691,27.316-24.456,25.133-50.849          c-2.183-26.392-16.972-46.419-33.038-44.727c-1.153,0.125-2.283,0.356-3.378,0.68c-2.976,0.902-5.736,2.542-8.238,4.794          c-1.778,1.605-3.419,3.522-4.9,5.699c-0.026,0.015-0.037,0.04-0.049,0.066C332.142,308.563,328.672,322.996,329.967,338.7z"/>
								<path d="M361.081,384.041c-3.839,0-7.636-1.184-11.315-3.533c-6.082-3.907-11.458-10.957-15.138-19.854          c-1.006-2.411-1.907-5.044-2.68-7.824c-1.252-4.512-2.086-9.252-2.479-14.089l0,0c-1.249-15.131,1.985-30.054,8.652-39.918          l0.072-0.102c1.509-2.211,3.176-4.147,4.956-5.755c2.608-2.348,5.443-3.997,8.427-4.901c1.143-0.338,2.309-0.572,3.47-0.698          c5.487-0.58,11.044,1.316,16.071,5.478c9.568,7.924,16.117,22.767,17.519,39.705c2.201,26.617-9.273,49.669-25.578,51.387          C362.398,384.006,361.739,384.041,361.081,384.041z M338.915,299.422c-6.533,9.758-9.675,24.383-8.449,39.237v0.001          c0.388,4.774,1.211,9.452,2.445,13.903c0.762,2.74,1.65,5.333,2.641,7.708c3.603,8.711,8.842,15.598,14.754,19.395          c4.113,2.626,8.372,3.726,12.647,3.277c15.77-1.662,26.844-24.231,24.688-50.311c-1.38-16.675-7.795-31.261-17.161-39.017          c-4.813-3.986-10.115-5.802-15.326-5.254c-1.101,0.12-2.207,0.342-3.289,0.662c-2.839,0.861-5.547,2.438-8.044,4.686          c-1.73,1.562-3.353,3.449-4.822,5.609L338.915,299.422z"/>
							</g>
							<g>
								<path style="fill:#00C257;" d="M329.967,338.7c0.4,4.92,1.246,9.611,2.462,13.996c0.756,2.72,1.639,5.317,2.66,7.767          c11.374,7.919,31.375,2.931,33.055-24.426L350.631,325l20.34,0.864c0.047-0.404,0.122-0.81,0.155-1.212          c1.818-15.957-6.059-30.03-18.706-36.123c-3.335,1.014-6.434,2.859-9.241,5.373c-1.638,1.482-3.172,3.206-4.593,5.135          c-0.026,0.015-0.037,0.04-0.049,0.066C332.142,308.563,328.672,322.996,329.967,338.7z"/>
								<path d="M345.987,364.376c-3.936,0-7.85-1.182-11.184-3.503l-0.119-0.083l-0.057-0.135c-1.006-2.413-1.907-5.045-2.68-7.825          c-1.252-4.512-2.086-9.252-2.479-14.089l0,0c-1.249-15.131,1.985-30.054,8.652-39.918l0.077-0.105          c1.452-1.967,3.015-3.712,4.645-5.187c2.933-2.627,6.104-4.47,9.431-5.481l0.186-0.057l0.176,0.085          c13.337,6.425,20.79,20.803,18.987,36.63c-0.02,0.239-0.057,0.496-0.093,0.752c-0.023,0.154-0.045,0.309-0.064,0.463          l-0.054,0.46l-18.925-0.804l16.173,10.192l-0.019,0.296c-1.075,17.504-9.311,24.025-14.126,26.354          C351.813,363.731,348.894,364.376,345.987,364.376z M335.495,360.135c5.483,3.754,12.591,4.289,18.587,1.387          c4.591-2.221,12.428-8.446,13.545-25.221l-18.853-11.88l21.763,0.924c0.001-0.009,0.003-0.018,0.004-0.027          c0.034-0.236,0.068-0.473,0.088-0.708c1.747-15.344-5.412-29.267-18.25-35.546c-3.118,0.98-6.1,2.732-8.866,5.21          c-1.585,1.434-3.108,3.136-4.525,5.059l-0.072,0.088c-6.533,9.758-9.675,24.383-8.449,39.237v0.001          c0.388,4.774,1.211,9.452,2.445,13.903C333.658,355.25,334.527,357.797,335.495,360.135z"/>
							</g>
						</g>
					</g>
				</g>
				<g>
					
						<ellipse transform="matrix(0.4453 -0.8954 0.8954 0.4453 -94.473 559.4485)" style="fill:#FFB500;" cx="404.292" cy="355.973" rx="11.818" ry="11.818"/>
					<path d="M404.302,368.291c-5.148,0-9.96-3.255-11.686-8.398l0,0c-1.048-3.119-0.817-6.459,0.647-9.405       c1.466-2.946,3.99-5.145,7.109-6.192s6.459-0.817,9.405,0.648c2.946,1.465,5.146,3.99,6.191,7.109       c2.162,6.439-1.317,13.436-7.756,15.597C406.917,368.085,405.599,368.291,404.302,368.291z M404.303,344.65       c-1.212,0-2.43,0.197-3.612,0.594c-2.866,0.962-5.186,2.983-6.532,5.69c-1.346,2.707-1.558,5.775-0.596,8.641l0,0       c1.986,5.915,8.414,9.115,14.332,7.127c5.916-1.986,9.112-8.415,7.127-14.331c-0.962-2.866-2.982-5.186-5.689-6.532       C407.742,345.049,406.028,344.65,404.303,344.65z"/>
				</g>
				<g>
					<g>
						<path style="fill:#FFFFFF;" d="M429.183,394.771c-10.597,13.042-33.556,14.024-44.697,4.452        c-8.921-7.665-8.95-20.088-2.629-23.842c12.455-7.397,23.15,5.416,23.15,5.416s14.364-16.661,25.887-6.439        C434.719,377.752,435.832,386.589,429.183,394.771z"/>
						<path d="M403.969,406.101c-7.738,0-14.964-2.336-19.809-6.499c-4.941-4.246-7.696-10.495-7.189-16.308        c0.327-3.748,2.015-6.789,4.632-8.343c5.251-3.12,11.038-3.146,16.738-0.077c3.392,1.828,5.778,4.207,6.669,5.171        c1.702-1.847,8.73-8.948,16.614-9.475c3.556-0.237,6.782,0.911,9.602,3.413c4.329,3.841,4.928,13.001-1.655,21.102l0,0        c-4.943,6.084-13.014,10.042-22.14,10.859C406.27,406.05,405.113,406.101,403.969,406.101z M389.872,373.568        c-2.649,0-5.241,0.747-7.76,2.243c-2.336,1.388-3.847,4.147-4.146,7.57c-0.479,5.498,2.144,11.423,6.846,15.462        c5.36,4.607,13.788,6.888,22.53,6.106c8.858-0.793,16.678-4.618,21.453-10.494c4.215-5.187,7.174-14.927,1.767-19.724        c-2.613-2.318-5.59-3.378-8.872-3.164c-8.462,0.566-16.227,9.465-16.304,9.555l-0.385,0.446l-0.378-0.452        c-0.026-0.032-2.68-3.173-6.784-5.377C395.141,374.293,392.478,373.568,389.872,373.568z"/>
					</g>
					<g>
						<g>
							
								<rect x="405.303" y="380.362" transform="matrix(0.9983 -0.0578 0.0578 0.9983 -22.0221 24.1025)" width="1" height="25.05"/>
						</g>
						<g>
							
								<rect x="421.743" y="371.041" transform="matrix(0.9958 -0.0917 0.0917 0.9958 -33.5572 40.3248)" width="1" height="28.926"/>
						</g>
						<g>
							
								<rect x="390.13" y="373.302" transform="matrix(0.9988 -0.0484 0.0484 0.9988 -18.3222 19.3528)" width="0.999" height="29.753"/>
						</g>
					</g>
				</g>
			</g>
		</g>
	</g>
</g>















</svg>
