<?xml version="1.0" encoding="UTF-8"?>
<!-- Generator: Adobe Illustrator 27.1.1, SVG Export Plug-In . SVG Version: 6.00 Build 0)  -->
<svg xmlns="http://www.w3.org/2000/svg" xmlns:xlink="http://www.w3.org/1999/xlink" version="1.1" id="Capa_1" x="0px" y="0px" viewBox="0 0 513.145 513.145" style="enable-background:new 0 0 513.145 513.145;" xml:space="preserve" width="512" height="512">
<g>
	<g>
		<g>
			<g>
				<path d="M317.29,269.179c12.527,13.622,25.441,27.009,40.522,37.849c5.631,4.048,13.304,10.697,20.392,6.827      c5.259-2.871,6.283-8.381,6.487-13.956c0.552-15.119-4.669-30.584-7.716-45.217c-3.803-18.261-5.373-36.055,1.852-53.736      c3.806-9.314,18.344-3.488,14.52,5.87c-11.723,28.689,5.279,58.335,6.805,87.405c0.656,12.497-1.641,25.68-13.22,32.596      c-15.27,9.121-29.81-0.537-42.242-10.029c-14.556-11.114-27.304-24.436-39.67-37.883      C298.187,271.475,310.497,261.792,317.29,269.179z"/>
			</g>
			<g>
				<g>
					<path style="fill:#FFFFFF;" d="M386.935,179.05c0.078-0.011,0.314-2.124,1.512-4.031c1.802-2.868,5.653-6.072,8.741-7.609       c2.697-1.342,5.826-1.671,8.568-0.188c3.028,1.638,3.704,5.407,2.294,8.381c0.293-0.189,0.732-0.436,1.3-0.647       c0.364-0.136,0.629-0.199,0.702-0.214c1.033-0.206,2.1-0.268,3.145-0.143c2.437,0.293,4.508,1.811,5.68,3.905       c1.335,2.385,1.193,5.043,0.967,7.681c0.075,0.004,0.889-0.001,0.962,0.004c5.103,0.301,8.304,4.782,7.78,9.801       c-1.251,11.991-15.672,16.037-15.672,16.037c-1.603,17.686-16.882,12.78-16.882,12.78c-3.449,10.13-13.574,6.813-25.861-6.981       c-12.288-13.794,3.536-15.728,3.536-15.728C361.949,182.372,382.493,179.663,386.935,179.05z"/>
					<path d="M389.148,231.199c-5.006,0-11.795-4.557-19.352-13.039c-4.072-4.571-5.564-8.404-4.438-11.393       c1.317-3.49,5.769-4.694,7.549-5.043c-3.385-5.921-4.159-10.879-2.3-14.744c3.107-6.462,12.49-7.902,15.934-8.38       c0.157-0.699,0.525-2.326,1.48-3.848c1.74-2.77,5.584-6.118,8.941-7.79c3.145-1.564,6.351-1.629,9.029-0.18       c2.716,1.469,3.875,4.661,2.98,7.783c0.067-0.027,0.135-0.053,0.202-0.078c0.403-0.15,0.696-0.219,0.778-0.235       c1.135-0.226,2.247-0.275,3.302-0.148c2.505,0.301,4.77,1.854,6.058,4.156c1.286,2.298,1.283,4.734,1.073,7.427       c0.215,0.001,0.417,0.002,0.452,0.004c2.411,0.143,4.578,1.206,6.098,2.996c1.649,1.942,2.432,4.624,2.146,7.355       c-1.164,11.158-13.511,15.652-15.703,16.364c-0.561,5.508-2.512,9.403-5.801,11.58c-4.355,2.883-9.642,1.841-11.234,1.429       c-1.201,3.218-3.124,5.114-5.719,5.64C390.153,231.151,389.659,231.199,389.148,231.199z M401.838,166.743       c-1.435,0-2.937,0.372-4.429,1.114c-3.214,1.6-6.885,4.794-8.539,7.427c-0.867,1.381-1.208,2.895-1.354,3.541       c-0.087,0.387-0.149,0.666-0.507,0.72l-0.082,0.012c-3.083,0.425-12.464,1.717-15.418,7.857       c-1.769,3.681-0.886,8.535,2.627,14.429l0.393,0.658l-0.762,0.094c-0.061,0.008-6.065,0.79-7.472,4.528       c-0.984,2.612,0.445,6.102,4.248,10.371c8.082,9.074,15.138,13.549,19.885,12.581c2.339-0.474,4.065-2.3,5.13-5.429       l0.158-0.465l0.468,0.149c0.062,0.02,6.176,1.921,10.85-1.182c3.086-2.046,4.896-5.803,5.383-11.166l0.031-0.343l0.332-0.094       c0.141-0.04,14.108-4.1,15.309-15.607c0.257-2.462-0.44-4.869-1.914-6.605c-1.361-1.602-3.228-2.518-5.398-2.645       c-0.056-0.003-0.31-0.003-0.535-0.002c-0.202-0.002-0.383,0-0.417-0.001l-0.524-0.021l0.045-0.522       c0.234-2.742,0.328-5.19-0.905-7.395c-1.133-2.023-3.115-3.389-5.304-3.652c-0.952-0.114-1.957-0.068-2.987,0.137       c-0.064,0.013-0.301,0.071-0.625,0.192c-0.431,0.16-0.836,0.361-1.205,0.599l-1.473,0.946l0.75-1.581       c1.208-2.548,0.89-6.121-2.08-7.728C404.384,167.05,403.138,166.743,401.838,166.743z M386.86,178.557l0.074,0.494       L386.86,178.557z"/>
				</g>
				<g>
					<g>
						<path d="M395.833,225.322c-2.901-0.684-6.154-2.642-9.666-5.817l0.67-0.742c3.386,3.061,6.49,4.941,9.227,5.587        L395.833,225.322z"/>
					</g>
					<g>
						<path d="M380.02,214.884c-4.543-3.52-6.788-9.627-7.866-12.561l0.935-0.355c1.05,2.856,3.228,8.782,7.544,12.125        L380.02,214.884z"/>
					</g>
				</g>
				<g>
					<g>
						<g>
							<g>
								<path style="fill:#FF8806;" d="M464.925,105.432c6.116,13.3,12.828,27.058,20.201,41.182          c6.964,13.341,13.998,26.013,21.006,38.016c-20.122,10.289-40.245,20.578-60.368,30.867          c-6.207-13.195-13.099-26.912-20.758-41.031c-7.198-13.27-14.468-25.781-21.689-37.533          C423.854,126.432,444.389,115.932,464.925,105.432z"/>
								<path d="M445.532,216.178l-0.22-0.468c-6.488-13.792-13.468-27.588-20.745-41.006c-6.854-12.636-14.146-25.256-21.676-37.51          l-0.283-0.461l62.553-31.984l0.218,0.474c6.362,13.835,13.155,27.684,20.19,41.159          c6.669,12.775,13.732,25.559,20.994,37.996l0.267,0.456L445.532,216.178z M404.026,137.132          c7.439,12.125,14.644,24.602,21.42,37.096c7.204,13.282,14.117,26.936,20.551,40.589l59.437-30.391          c-7.177-12.308-14.156-24.948-20.751-37.581c-6.962-13.337-13.688-27.038-19.994-40.73L404.026,137.132z"/>
							</g>
							<g>
								<path style="fill:#FFB500;" d="M512.478,187.725c-0.333-0.615-1.37-2.425-3.016-3.701c-2.278-1.766-3.917-1.126-4.157-0.985          c-21.978,12.974-39.374,21.869-60.367,30.867c-0.281,0.12-1.647,1.112-1.57,3.913c0.064,2.305,1.082,4.425,1.389,5.034          c11.563-5.081,23.529-10.78,35.793-17.181C491.828,199.784,502.468,193.767,512.478,187.725z"/>
								<path d="M444.524,223.501l-0.214-0.423c-0.513-1.014-1.382-3.043-1.442-5.245c-0.081-2.907,1.324-4.152,1.873-4.387          c20.925-8.969,38.397-17.903,60.31-30.838c0.019-0.012,1.962-1.114,4.718,1.02c1.59,1.232,2.655,2.946,3.148,3.858          l0.228,0.42l-0.408,0.246c-10.425,6.291-21.176,12.334-31.955,17.962c-11.686,6.1-23.739,11.885-35.823,17.195          L444.524,223.501z M506.419,183.309c-0.546,0-0.854,0.158-0.861,0.161c-21.95,12.958-39.456,21.909-60.423,30.896          c-0.013,0.005-1.342,0.75-1.267,3.439c0.049,1.765,0.699,3.459,1.13,4.395c11.915-5.247,23.796-10.956,35.32-16.972          c10.618-5.543,21.208-11.49,31.484-17.68c-0.52-0.883-1.414-2.174-2.647-3.129          C507.994,183.52,507.049,183.309,506.419,183.309z"/>
							</g>
							<g>
								<path style="fill:#FFB500;" d="M468.601,113.187l-61.723,30.279c-0.948,0.465-2.093,0.087-2.558-0.844l-4.574-9.17          c-0.464-0.931-0.072-2.063,0.876-2.528l61.724-30.279c0.948-0.465,2.093-0.088,2.557,0.844l4.574,9.17          C469.941,111.59,469.549,112.722,468.601,113.187z"/>
								<path d="M406.024,144.165c-0.885,0-1.735-0.483-2.151-1.319l-4.574-9.169c-0.282-0.566-0.325-1.208-0.123-1.809          c0.207-0.611,0.643-1.105,1.226-1.393l61.725-30.279c1.192-0.586,2.639-0.104,3.225,1.07l4.573,9.169          c0.282,0.565,0.326,1.207,0.123,1.808c-0.206,0.611-0.642,1.105-1.227,1.393l-61.724,30.279          C406.752,144.084,406.386,144.165,406.024,144.165z M463.2,100.947c-0.214,0-0.43,0.047-0.635,0.148l-61.724,30.279          c-0.342,0.168-0.598,0.457-0.718,0.814c-0.117,0.346-0.093,0.716,0.069,1.042l4.574,9.169          c0.341,0.685,1.188,0.959,1.889,0.618l61.725-30.28c0.343-0.168,0.599-0.457,0.719-0.813          c0.117-0.347,0.092-0.716-0.07-1.041l-4.573-9.17C464.214,101.228,463.718,100.947,463.2,100.947z"/>
							</g>
							<g>
								
									<rect x="438.574" y="138.895" transform="matrix(0.887 -0.4617 0.4617 0.887 -29.8773 222.1693)" width="0.999" height="66.491"/>
							</g>
							<g>
								
									<rect x="457.129" y="130.152" transform="matrix(0.887 -0.4617 0.4617 0.887 -23.7437 229.752)" width="0.999" height="66.49"/>
							</g>
							<g>
								
									<rect x="475.684" y="121.407" transform="matrix(0.887 -0.4617 0.4617 0.887 -17.6103 237.3311)" width="0.999" height="66.49"/>
							</g>
							<g>
								<path style="fill:#FFB500;" d="M430.292,198.621c-10.682,5.267-23.897,0.462-29.505-10.725          c-5.612-11.195-1.499-24.543,9.184-29.81c1.594-0.786,3.256-1.351,4.93-1.698c-1.376-2.377-2.738-4.729-4.114-7.043          c-1.324,0.419-2.627,0.945-3.901,1.573c-14.191,6.997-19.667,24.719-12.212,39.589c7.455,14.87,25.008,21.239,39.199,14.242          c1.863-0.918,3.571-2.015,5.121-3.278c-1.087-2.212-2.2-4.432-3.331-6.665C434.12,196.32,432.328,197.617,430.292,198.621z"/>
								<path d="M421.683,208.081c-11.075,0.001-21.976-6.418-27.457-17.351c-3.79-7.56-4.436-16.019-1.816-23.816          c2.444-7.277,7.507-13.117,14.255-16.444c1.292-0.637,2.628-1.176,3.971-1.602l0.378-0.12l0.203,0.341          c1.377,2.315,2.74,4.669,4.117,7.049l0.347,0.599l-0.678,0.141c-1.663,0.346-3.281,0.903-4.811,1.657          c-4.864,2.398-8.515,6.612-10.279,11.865c-1.898,5.651-1.429,11.786,1.322,17.272c5.479,10.928,18.412,15.639,28.837,10.501          c1.93-0.952,3.692-2.204,5.24-3.724l0.488-0.479l0.309,0.61c1.132,2.235,2.246,4.456,3.334,6.67l0.175,0.358l-0.309,0.251          c-1.582,1.289-3.337,2.412-5.216,3.339C430.123,207.155,425.89,208.081,421.683,208.081z M410.56,149.944          c-1.168,0.39-2.328,0.867-3.455,1.422c-6.507,3.209-11.39,8.843-13.748,15.866c-2.533,7.543-1.907,15.729,1.763,23.051          c7.318,14.597,24.604,20.883,38.531,14.018c1.69-0.833,3.273-1.831,4.716-2.97c-0.932-1.893-1.883-3.791-2.848-5.7          c-1.502,1.385-3.184,2.54-5.007,3.439l0,0c-10.914,5.382-24.448,0.468-30.173-10.95c-2.87-5.726-3.359-12.132-1.376-18.038          c1.85-5.507,5.681-9.927,10.786-12.443c1.397-0.689,2.867-1.223,4.377-1.589          C412.935,153.991,411.753,151.953,410.56,149.944z"/>
							</g>
						</g>
						<g>
							<path style="fill:#FFFFFF;" d="M440.121,88.552c-2.874,1.38-5.16,3.498-6.753,6.062c-4.205-2.57-9.438-3.025-13.99-0.839         c-5.34,2.565-8.282,8.057-8.036,13.817c-2.597-0.283-5.284,0.078-7.776,1.275c-7.324,3.517-10.146,12.611-6.335,20.289         c0.77,1.55,1.769,2.93,2.925,4.114c0.599-0.887,1.433-1.618,2.475-2.118l37.37-17.646l8.747,17.617         c0.935,1.884,3.297,2.641,5.274,1.691c1.978-0.95,2.823-3.247,1.888-5.13l-8.724-17.57l2.152-1.016l2.883,5.806         c0.935,1.884,3.297,2.641,5.274,1.691c1.978-0.95,2.823-3.247,1.888-5.13l-2.859-5.759l5.78-2.729         c1.017-0.488,2.128-0.662,3.156-0.556c-0.301-1.685-0.866-3.393-1.672-5.016C459.316,88.392,448.716,84.424,440.121,88.552z"/>
							<path d="M400.227,134.059l-0.43-0.44c-1.229-1.26-2.242-2.687-3.015-4.24c-1.98-3.988-2.299-8.429-0.898-12.502         c1.294-3.766,3.945-6.77,7.464-8.46c2.276-1.093,4.852-1.56,7.479-1.373c-0.043-5.902,3.183-11.245,8.333-13.719         c4.435-2.131,9.652-1.892,14.046,0.614c1.667-2.517,3.974-4.529,6.697-5.838l0,0c8.825-4.235,19.742-0.166,24.333,9.078         c0.823,1.66,1.401,3.393,1.716,5.15l0.117,0.653l-0.66-0.068c-0.97-0.099-1.997,0.082-2.89,0.511l-5.321,2.513l2.633,5.302         c0.498,1.005,0.569,2.15,0.2,3.224c-0.39,1.133-1.213,2.049-2.319,2.58c-2.22,1.066-4.886,0.205-5.939-1.919l-2.664-5.367         l-1.248,0.59l8.497,17.112c0.498,1.005,0.57,2.149,0.201,3.223c-0.39,1.133-1.214,2.05-2.32,2.581         c-2.22,1.066-4.884,0.205-5.939-1.919l-8.527-17.178l-36.927,17.437c-0.943,0.452-1.709,1.108-2.275,1.945L400.227,134.059z          M440.231,112.844l8.965,18.055c0.812,1.637,2.881,2.293,4.609,1.463c0.864-0.415,1.506-1.127,1.808-2.005         c0.281-0.818,0.228-1.689-0.151-2.452l-8.95-18.026l3.057-1.443l3.102,6.244c0.811,1.637,2.881,2.293,4.609,1.463         c0.864-0.414,1.506-1.126,1.808-2.004c0.281-0.818,0.228-1.69-0.151-2.453l-3.086-6.216l6.24-2.947         c0.866-0.416,1.809-0.632,2.757-0.635c-0.315-1.452-0.82-2.883-1.506-4.263c-4.348-8.757-14.667-12.627-23.003-8.621         c-2.7,1.296-4.963,3.328-6.545,5.875l-0.262,0.422l-0.424-0.259c-4.19-2.562-9.243-2.867-13.513-0.815         c-4.955,2.38-7.998,7.618-7.753,13.345l0.024,0.581l-0.578-0.062c-2.639-0.29-5.234,0.138-7.505,1.229         c-3.276,1.572-5.745,4.372-6.952,7.883c-1.314,3.818-1.012,7.985,0.849,11.731c0.639,1.288,1.456,2.483,2.433,3.56         c0.616-0.752,1.389-1.354,2.304-1.792L440.231,112.844z"/>
						</g>
					</g>
				</g>
				<g>
					<g>
						<g>
							<path style="fill:#FFFFFF;" d="M422.303,200.78c0,0-18.391,10.142-20.382,1.219c-2.02-9.053,17.923-15.813,17.923-15.813"/>
							<path d="M407.347,206.169c-1.182,0-2.27-0.175-3.19-0.59c-1.438-0.648-2.355-1.816-2.724-3.471         c-2.094-9.384,17.419-16.113,18.251-16.396l0.32,0.947c-0.194,0.066-19.495,6.718-17.595,15.23         c0.301,1.351,1.007,2.259,2.158,2.778c5.253,2.367,17.372-4.259,17.494-4.325l0.482,0.875         C422.112,201.456,413.482,206.169,407.347,206.169z"/>
						</g>
						<g>
							<path style="fill:#FFFFFF;" d="M415.61,187.911c-13.672,6.142-13.933,14.01-13.933,14.01         c-21.738-7.912,6.756-26.589,6.756-26.589c-9.48,6.209-13.027,12.268-13.027,12.268c-18.36-7.02-1.721-21.051,6.961-21.363"/>
							<path d="M402.148,202.622l-0.643-0.232c-5.213-1.898-8.058-4.597-8.455-8.023c-0.247-2.127,0.475-4.34,1.72-6.479         c-7.502-3.01-8.53-7.041-8.052-9.919c1.006-6.048,9.658-12.018,15.631-12.232l0.035,1         c-5.497,0.196-13.761,5.866-14.68,11.396c-0.599,3.601,1.992,6.655,7.497,8.851c0.925-1.415,4.693-6.658,12.956-12.07         l0.549,0.836l0,0l0,0c-0.001,0.001-0.001,0.001-0.002,0.001c-0.223,0.146-15.607,10.357-14.661,18.502         c0.336,2.894,2.764,5.24,7.217,6.977c0.384-2.087,2.499-8.543,14.145-13.775l0.41,0.912         c-13.174,5.919-13.636,13.496-13.639,13.572L402.148,202.622z"/>
						</g>
					</g>
					<g>
						<path style="fill:#FFFFFF;" d="M372.61,202.334c-2.376-4.989-2.712-9.491-2.543-11.688c0.43-5.6,4.939-9.006,11.901-10.928        c9.106-2.514,13.968-2.127,18.638-1.696c3.33,0.307,6.242,2.708,6.714,5.971c1.357,9.402-18.47,12.721-18.47,12.721        s13.682,10.704-2.973,17.835"/>
						<path d="M386.073,215.01l-0.395-0.92c4.858-2.08,7.519-4.645,7.907-7.621c0.633-4.855-4.988-9.316-5.045-9.36l-0.895-0.699        l1.119-0.188c0.194-0.032,19.33-3.344,18.058-12.156c-0.421-2.917-3.055-5.249-6.264-5.545        c-4.346-0.399-9.271-0.855-18.459,1.681c-7.377,2.036-11.149,5.465-11.534,10.483c-0.199,2.578,0.353,6.936,2.495,11.435        l-0.902,0.43c-2.228-4.677-2.799-9.234-2.59-11.94c0.415-5.413,4.542-9.239,12.266-11.372        c9.36-2.583,14.385-2.121,18.816-1.712c3.664,0.339,6.676,3.029,7.162,6.398c1.242,8.605-13.699,12.249-17.853,13.092        c1.645,1.517,5.174,5.317,4.617,9.583C394.141,209.95,391.279,212.78,386.073,215.01z"/>
					</g>
				</g>
			</g>
		</g>
		<g>
			<g>
				<path d="M206.134,276.402c-12.188,13.926-24.769,27.627-39.579,38.834c-5.53,4.185-13.037,11.021-20.218,7.327      c-5.328-2.741-6.487-8.224-6.828-13.792c-0.924-15.101,3.916-30.689,6.602-45.393c3.352-18.349,4.484-36.177-3.173-53.675      c-4.034-9.218-18.424-3.036-14.371,6.225c12.425,28.392-3.843,58.448-4.653,87.546c-0.348,12.509,2.272,25.632,14.018,32.261      c15.49,8.743,29.788-1.27,41.983-11.065c14.278-11.469,26.695-25.1,38.726-38.848      C225.288,278.228,212.743,268.851,206.134,276.402z"/>
			</g>
			<g>
				<g>
					<path style="fill:#FFFFFF;" d="M121.223,180.982c-0.078,0.006-0.77-2.004-2.356-3.604c-2.385-2.405-6.843-4.69-10.192-5.515       c-2.925-0.72-6.05-0.357-8.402,1.689c-2.597,2.26-2.433,6.085-0.407,8.68c-0.327-0.12-0.81-0.265-1.41-0.347       c-0.385-0.053-0.658-0.057-0.732-0.055c-1.053,0.025-2.108,0.197-3.1,0.548c-2.314,0.818-4.003,2.753-4.689,5.051       c-0.782,2.619-0.062,5.182,0.735,7.707c-0.072,0.02-0.867,0.194-0.938,0.214c-4.914,1.409-7.058,6.481-5.45,11.265       c3.842,11.427,18.798,12.224,18.798,12.224c5.429,16.908,19.267,8.781,19.267,8.781c5.579,9.132,14.735,3.682,23.711-12.464       c8.976-16.146-6.888-14.575-6.888-14.575C146.331,178.763,125.691,180.609,121.223,180.982z"/>
					<path d="M128.841,232.538c-2.586,0-4.827-1.431-6.668-4.255c-1.463,0.75-6.395,2.923-11.275,1.062       c-3.685-1.406-6.439-4.781-8.191-10.033c-2.295-0.216-15.326-1.903-18.9-12.536c-0.875-2.604-0.698-5.393,0.488-7.648       c1.092-2.078,2.974-3.59,5.299-4.256c0.033-0.01,0.228-0.055,0.437-0.102c-0.768-2.503-1.327-4.967-0.576-7.482       c0.754-2.528,2.625-4.54,5.002-5.381c1.003-0.355,2.098-0.549,3.255-0.576c0.08-0.001,0.382,0.001,0.812,0.06       c0.071,0.01,0.142,0.021,0.213,0.032c-1.555-2.852-1.121-6.22,1.208-8.247c2.296-1.999,5.438-2.639,8.85-1.798       c3.642,0.897,8.125,3.325,10.428,5.647c1.265,1.276,1.979,2.784,2.286,3.432c3.464-0.285,12.936-0.931,17.38,4.696       c2.659,3.365,2.986,8.372,0.977,14.89c1.811-0.056,6.421,0.152,8.469,3.271c1.753,2.67,1.134,6.736-1.84,12.087       c-6.083,10.943-12.301,17.029-17.507,17.136C128.938,232.537,128.889,232.538,128.841,232.538z M122.517,226.942l0.256,0.418       c1.723,2.82,3.805,4.207,6.193,4.176c4.836-0.099,10.75-6.002,16.654-16.622c2.778-4.997,3.411-8.715,1.88-11.049       c-2.19-3.34-8.221-2.791-8.282-2.785l-0.763,0.074l0.239-0.729c2.14-6.519,1.941-11.448-0.59-14.652       c-4.225-5.349-13.662-4.561-16.762-4.299l-0.081,0.007c-0.365,0.021-0.484-0.232-0.654-0.593       c-0.284-0.599-0.947-2.002-2.094-3.159c-2.191-2.208-6.471-4.521-9.957-5.381c-3.084-0.758-5.91-0.197-7.954,1.581       c-2.546,2.217-2.076,5.773-0.341,7.995l1.079,1.381l-1.645-0.604c-0.281-0.104-0.736-0.243-1.306-0.321       c-0.343-0.047-0.584-0.05-0.651-0.05c-1.052,0.024-2.043,0.199-2.946,0.52c-2.078,0.734-3.714,2.5-4.378,4.723       c-0.722,2.421-0.096,4.789,0.733,7.413l0.155,0.491l-0.495,0.141c-0.038,0.01-0.26,0.061-0.485,0.111       c-0.202,0.045-0.407,0.091-0.456,0.104c-2.086,0.598-3.708,1.898-4.686,3.759c-1.059,2.016-1.214,4.519-0.425,6.865       c3.691,10.977,18.205,11.876,18.351,11.884l0.344,0.018l0.105,0.328c1.646,5.128,4.234,8.398,7.692,9.721       c5.24,2.004,10.79-1.185,10.846-1.218L122.517,226.942z M121.223,180.983l0.004-0.058l-0.008,0.005L121.223,180.983       l-0.004-0.053L121.223,180.983z M121.182,180.484l0.005,0.062L121.182,180.484z"/>
				</g>
				<g>
					<g>
						<path d="M122.651,228.081l-0.437-0.9c2.53-1.228,5.148-3.74,7.782-7.467l0.816,0.576        C128.081,224.157,125.335,226.777,122.651,228.081z"/>
					</g>
					<g>
						<path d="M135.801,214.439l-0.77-0.638c3.48-4.204,4.311-10.461,4.71-13.468l0.993,0.118        C140.32,203.565,139.464,210.014,135.801,214.439z"/>
					</g>
				</g>
				<g>
					<g>
						<g>
							<g>
								<path style="fill:#FF8806;" d="M29.029,126.186c-3.061,14.315-6.605,29.207-10.713,44.601          c-3.88,14.54-7.974,28.444-12.191,41.688c21.885,5.643,43.769,11.286,65.654,16.928          c3.174-14.232,6.902-29.124,11.289-44.576c4.124-14.522,8.484-28.32,12.962-41.366          C73.698,137.704,51.363,131.945,29.029,126.186z"/>
								<path d="M72.156,230.018L5.489,212.828l0.16-0.504c4.371-13.731,8.47-27.749,12.185-41.666          c3.923-14.701,7.525-29.698,10.707-44.576l0.109-0.51l68.031,17.54l-0.175,0.512c-4.671,13.612-9.03,27.521-12.954,41.341          c-4.168,14.676-7.963,29.664-11.282,44.548L72.156,230.018z M6.763,212.123l64.642,16.668          c3.296-14.736,7.058-29.571,11.184-44.1c3.88-13.664,8.184-27.415,12.795-40.88l-65.974-17.011          c-3.158,14.727-6.726,29.566-10.609,44.115C15.127,184.678,11.078,198.539,6.763,212.123z"/>
							</g>
							<g>
								<path style="fill:#FFB500;" d="M0.611,216.883c0.19-0.673,0.807-2.666,2.134-4.271c1.837-2.221,3.576-1.955,3.841-1.869          c24.282,7.857,43.201,12.735,65.654,16.928c0.3,0.056,1.85,0.725,2.387,3.475c0.442,2.263-0.089,4.555-0.255,5.216          c-12.394-2.431-25.316-5.377-38.682-8.944C23.396,224.138,11.698,220.591,0.611,216.883z"/>
								<path d="M74.74,236.944l-0.465-0.092c-12.962-2.543-25.988-5.555-38.715-8.951c-11.752-3.137-23.564-6.684-35.108-10.544          L0,217.206l0.13-0.459c0.281-0.997,0.945-2.9,2.23-4.453c2.217-2.683,4.357-2.037,4.379-2.027          c24.214,7.835,43.217,12.734,65.593,16.913c0.587,0.11,2.229,1.021,2.785,3.871c0.421,2.16,0.017,4.332-0.261,5.434          L74.74,236.944z M1.23,216.562c11.378,3.794,23.012,7.283,34.588,10.372c12.551,3.351,25.392,6.325,38.176,8.844          c0.215-1.008,0.48-2.805,0.142-4.536c-0.515-2.639-1.976-3.077-1.99-3.08c-22.418-4.187-41.458-9.096-65.713-16.944          c-0.013-0.003-1.555-0.398-3.302,1.713C2.134,214.135,1.543,215.59,1.23,216.562z"/>
							</g>
							<g>
								<path style="fill:#FFB500;" d="M27.137,134.557l66.849,16.059c1.027,0.247,2.062-0.372,2.311-1.382l2.459-9.947          c0.25-1.01-0.38-2.029-1.407-2.275L30.5,120.953c-1.027-0.247-2.062,0.372-2.311,1.382l-2.459,9.947          C25.48,133.292,26.11,134.311,27.137,134.557z"/>
								<path d="M94.439,151.17c-0.188,0-0.379-0.021-0.57-0.067L27.02,135.044c-0.632-0.152-1.165-0.54-1.5-1.091          c-0.329-0.541-0.427-1.178-0.275-1.791l2.459-9.947c0.316-1.274,1.619-2.058,2.914-1.748l66.848,16.058          c0.633,0.152,1.166,0.54,1.501,1.091c0.329,0.542,0.427,1.178,0.275,1.791l-2.459,9.948          C96.515,150.44,95.525,151.17,94.439,151.17z M27.254,134.071l66.849,16.059c0.761,0.186,1.526-0.273,1.709-1.016          l2.459-9.948c0.087-0.352,0.031-0.719-0.159-1.031c-0.196-0.322-0.508-0.549-0.88-0.638L30.384,121.44          c-0.762-0.183-1.526,0.273-1.709,1.016l-2.459,9.947c-0.087,0.353-0.031,0.719,0.159,1.031          C26.57,133.756,26.882,133.983,27.254,134.071L27.254,134.071z"/>
							</g>
							<g>
								
									<rect x="35.588" y="185.133" transform="matrix(0.2559 -0.9667 0.9667 0.2559 -128.2326 204.6772)" width="66.491" height="1"/>
							</g>
							<g>
								
									<rect x="15.572" y="180.655" transform="matrix(0.2559 -0.9667 0.9667 0.2559 -138.7986 181.994)" width="66.49" height="1"/>
							</g>
							<g>
								
									<rect x="-4.445" y="176.178" transform="matrix(0.2559 -0.9667 0.9667 0.2559 -149.3653 159.3114)" width="66.49" height="1"/>
							</g>
							<g>
								<path style="fill:#FFB500;" d="M77.116,207.005c-0.615,2.426-1.216,4.836-1.794,7.232c1.788,0.893,3.695,1.591,5.713,2.08          c15.377,3.726,31.114-6.324,35.139-22.464c4.025-16.139-5.191-32.237-20.569-35.964c-1.38-0.334-2.767-0.563-4.15-0.683          c-0.837,2.558-1.653,5.151-2.476,7.771c1.709-0.026,3.454,0.161,5.182,0.58c11.575,2.805,18.506,14.932,15.476,27.083          c-3.028,12.142-14.873,19.718-26.448,16.913C80.984,209.02,78.952,208.145,77.116,207.005z"/>
								<path d="M87.496,217.59c-2.178,0-4.381-0.255-6.577-0.787c-2.034-0.492-3.992-1.205-5.819-2.118l-0.355-0.178l0.093-0.387          c0.578-2.398,1.179-4.809,1.795-7.238l0.168-0.662l0.58,0.36c1.841,1.144,3.836,1.981,5.928,2.488          c11.295,2.738,22.887-4.688,25.845-16.549c1.485-5.955,0.603-12.043-2.484-17.144c-2.87-4.74-7.353-8.055-12.624-9.331          c-1.657-0.402-3.362-0.604-5.056-0.567l-0.692,0.011l0.208-0.66c0.823-2.623,1.64-5.218,2.478-7.777l0.123-0.377          l0.396,0.034c1.407,0.122,2.829,0.356,4.225,0.694c7.312,1.773,13.529,6.365,17.504,12.933          c4.26,7.036,5.479,15.432,3.432,23.638C113.151,208.046,100.813,217.589,87.496,217.59z M75.903,213.965          c1.657,0.796,3.422,1.423,5.251,1.865c15.088,3.661,30.585-6.255,34.537-22.099c1.982-7.945,0.804-16.07-3.317-22.878          c-3.836-6.338-9.832-10.768-16.884-12.477c-1.217-0.296-2.454-0.509-3.682-0.634c-0.724,2.221-1.433,4.469-2.146,6.737          c1.553,0.026,3.104,0.226,4.619,0.593c5.532,1.341,10.236,4.816,13.244,9.786c3.227,5.33,4.149,11.688,2.6,17.903          c-3.09,12.393-15.226,20.142-27.051,17.279c-1.977-0.479-3.87-1.239-5.636-2.262          C76.912,209.853,76.399,211.913,75.903,213.965z"/>
							</g>
						</g>
						<g>
							<path style="fill:#FFFFFF;" d="M49.545,104.294c3.106,0.719,5.8,2.286,7.915,4.44c3.542-3.426,8.549-5.015,13.469-3.877         c5.772,1.336,9.843,6.052,10.861,11.727c2.472-0.843,5.173-1.079,7.866-0.455c7.915,1.832,12.657,10.089,10.615,18.414         c-0.412,1.681-1.086,3.245-1.955,4.654c-0.778-0.735-1.752-1.266-2.879-1.526l-40.323-9.053L50.43,147.72         c-0.501,2.042-2.64,3.297-4.777,2.803c-2.138-0.495-3.464-2.551-2.963-4.594l4.673-19.052l-2.322-0.521l-1.544,6.296         c-0.501,2.042-2.64,3.297-4.777,2.803c-2.138-0.495-3.464-2.551-2.963-4.594l1.532-6.245l-6.237-1.4         c-1.099-0.254-2.221-0.181-3.202,0.147c-0.074-1.71,0.103-3.501,0.535-5.26C30.779,108.333,40.255,102.144,49.545,104.294z"/>
							<path d="M46.588,151.13c-0.346,0-0.697-0.039-1.049-0.12c-1.196-0.276-2.2-0.991-2.828-2.011         c-0.595-0.968-0.776-2.1-0.509-3.189l4.552-18.557l-1.346-0.302l-1.427,5.819c-0.565,2.303-2.976,3.724-5.376,3.171         c-1.197-0.277-2.201-0.992-2.829-2.013c-0.594-0.967-0.775-2.099-0.508-3.188l1.411-5.75l-5.739-1.288         c-0.965-0.225-2.006-0.177-2.934,0.134l-0.629,0.21l-0.029-0.663c-0.077-1.783,0.107-3.601,0.549-5.401         c2.459-10.023,12.22-16.382,21.76-14.176l0,0c2.944,0.682,5.634,2.142,7.811,4.233c3.742-3.408,8.778-4.777,13.572-3.67         c5.566,1.289,9.881,5.798,11.13,11.567c2.522-0.761,5.137-0.866,7.598-0.296c3.803,0.881,7.047,3.233,9.133,6.626         c2.257,3.669,2.916,8.071,1.855,12.395c-0.414,1.686-1.091,3.3-2.015,4.798l-0.323,0.523l-0.446-0.422         c-0.735-0.694-1.626-1.166-2.648-1.402l-39.842-8.944l-4.568,18.625C50.433,149.806,48.605,151.13,46.588,151.13z          M44.671,125.76l3.297,0.741l-4.794,19.547c-0.203,0.827-0.065,1.689,0.389,2.427c0.486,0.791,1.268,1.345,2.202,1.561         c1.871,0.436,3.744-0.659,4.179-2.435l4.802-19.578l40.801,9.16c0.991,0.23,1.877,0.648,2.643,1.247         c0.717-1.265,1.253-2.609,1.595-4.006c0.997-4.062,0.38-8.193-1.735-11.632c-1.945-3.163-4.966-5.356-8.507-6.176         c-2.455-0.567-5.081-0.416-7.592,0.442l-0.551,0.188l-0.103-0.573c-1.013-5.642-5.127-10.089-10.482-11.328         c-4.615-1.07-9.478,0.333-13.008,3.749l-0.357,0.345l-0.348-0.354c-2.101-2.141-4.753-3.629-7.67-4.304         c-9.011-2.084-18.235,3.944-20.563,13.439c-0.367,1.496-0.547,3.004-0.537,4.489c0.926-0.205,1.894-0.199,2.831,0.018         l6.731,1.512l-1.653,6.74c-0.203,0.827-0.065,1.688,0.388,2.426c0.486,0.791,1.268,1.346,2.202,1.562         c1.869,0.438,3.744-0.659,4.179-2.435L44.671,125.76z"/>
						</g>
					</g>
				</g>
				<g>
					<g>
						<g>
							<path style="fill:#FFFFFF;" d="M91.458,209.916c0,0,20.163,5.877,20.156-3.265c-0.007-9.276-20.946-11.514-20.946-11.514"/>
							<path d="M103.38,212.277c-5.515,0-11.681-1.77-12.062-1.881l0.28-0.961c0.134,0.039,13.417,3.854,18.018,0.397         c1.01-0.758,1.5-1.799,1.499-3.182c-0.006-8.726-20.294-10.995-20.499-11.018l0.106-0.994         c0.873,0.093,21.385,2.396,21.393,12.012c0.002,1.695-0.638,3.035-1.899,3.981         C108.582,211.859,106.057,212.277,103.38,212.277z"/>
						</g>
						<g>
							<path style="fill:#FFFFFF;" d="M95.177,195.894c14.684,3.006,16.658,10.626,16.658,10.626         c19.483-12.471-12.403-24.47-12.403-24.47c10.608,3.987,15.393,9.125,15.393,9.125c16.382-10.863-2.921-20.919-11.461-19.325         "/>
							<path d="M111.529,207.311l-0.177-0.663c-0.02-0.073-2.126-7.366-16.275-10.263l0.2-0.98         c12.508,2.561,15.983,8.398,16.812,10.352c3.967-2.669,5.823-5.488,5.518-8.387c-0.857-8.156-18.09-14.752-18.35-14.85         c-0.001,0-0.001,0-0.002-0.001h0l0.352-0.936c9.247,3.476,14.07,7.768,15.281,8.947c4.892-3.346,6.752-6.893,5.382-10.274         c-2.104-5.195-11.409-8.917-16.815-7.914l-0.184-0.982c5.875-1.099,15.624,2.839,17.926,8.521         c1.096,2.704,0.973,6.862-5.689,11.438c1.682,1.815,2.87,3.818,3.094,5.947c0.361,3.431-1.825,6.686-6.498,9.677         L111.529,207.311z"/>
						</g>
					</g>
					<g>
						<path style="fill:#FFFFFF;" d="M140.29,200.573c1.228-5.388,0.572-9.854-0.072-11.961c-1.644-5.37-6.788-7.709-14.001-8.063        c-9.435-0.463-14.095,0.977-18.558,2.418c-3.183,1.028-5.5,4.007-5.246,7.294c0.73,9.472,20.803,8.377,20.803,8.377        s-11.012,13.436,6.799,16.755"/>
						<path d="M129.923,215.884c-5.568-1.037-8.978-3.174-10.138-6.35c-1.475-4.041,1.138-8.521,2.412-10.361        c-4.241,0.091-19.615-0.204-20.283-8.874c-0.262-3.394,2.09-6.678,5.591-7.808c4.233-1.368,9.031-2.921,18.736-2.441        c8.002,0.392,12.866,3.224,14.455,8.415c0.794,2.595,1.233,7.167,0.081,12.219l-0.975-0.223        c1.107-4.859,0.694-9.233-0.063-11.703c-1.473-4.813-5.904-7.335-13.547-7.71c-9.517-0.463-14.227,1.054-18.379,2.395        c-3.067,0.99-5.128,3.841-4.901,6.78c0.685,8.877,20.084,7.929,20.277,7.916l1.132-0.061l-0.718,0.877        c-0.045,0.057-4.556,5.648-2.877,10.24c1.03,2.818,4.187,4.738,9.381,5.707L129.923,215.884z"/>
					</g>
				</g>
			</g>
		</g>
	</g>
	<g>
		<g>
			<g>
				<path style="fill:#00C257;" d="M340.508,500.957c9.828-0.683,17.262-8.7,16.568-17.876      c-2.398-31.755-7.632-103.151-11.261-167.864c-4.851-86.498-53.56-95.099-53.556-95.104      c20.553-26.343,5.395-56.964-6.816-83.121c-2.715-5.815-28.906-77.15-16.938-78.029l-54.018,3.965      c1.274-0.093,4.086,31.493,4.085,34c-0.012,38.731-39.905,93.961-3.219,128.935c0,0-47.759,15.582-39.927,101.861      c5.872,64.678,11.129,136.228,13.387,167.898c0.654,9.176,9.169,16.026,18.988,15.271      C240.141,508.406,308.14,503.206,340.508,500.957z"/>
				<path d="M206.356,511.449c-4.527,0-8.928-1.589-12.264-4.464c-3.415-2.943-5.468-6.966-5.778-11.327      c-2.039-28.595-7.422-102.197-13.386-167.889c-4.06-44.727,7.071-70.165,17.124-83.63c9.355-12.529,19.564-17.319,22.388-18.464      c-24.034-23.546-14.49-55.442-5.257-86.295c4.57-15.271,8.886-29.693,8.89-42.453c0.001-2.815-2.674-31.98-3.862-33.618      c0.032,0.043,0.151,0.119,0.314,0.117l-0.073-0.998l0.217-0.016l53.801-3.95l0.073,0.998c-0.735,0.054-1.301,0.434-1.727,1.16      c-5.776,9.849,16.508,70.645,19.081,76.158l0.916,1.96c12.123,25.923,25.852,55.275,6.32,81.056      c6.513,1.602,48.677,15.063,53.182,95.393c3.549,63.286,8.578,132.33,11.261,167.853c0.329,4.357-1.113,8.635-4.062,12.044      c-3.197,3.697-7.925,6.018-12.971,6.37h-0.001c-31.641,2.198-96.724,7.169-132.703,9.935      C207.344,511.43,206.85,511.449,206.356,511.449z M215.281,63.371c1.658,5.219,3.792,33.274,3.792,33.557      c-0.004,12.906-4.34,27.397-8.932,42.74c-9.218,30.805-18.751,62.659,5.558,85.833l0.605,0.577l-0.795,0.261      c-0.118,0.038-11.962,4.044-22.701,18.461c-9.925,13.323-20.911,38.518-16.883,82.88c5.964,65.699,11.349,139.31,13.387,167.908      c0.292,4.093,2.222,7.871,5.434,10.641c3.499,3.017,8.249,4.546,13.017,4.166c35.981-2.767,101.067-7.737,132.711-9.937h-0.001      c4.783-0.332,9.261-2.529,12.284-6.025c2.772-3.207,4.13-7.226,3.82-11.314c-2.682-35.527-7.712-104.579-11.261-167.873      c-4.736-84.454-51.168-94.264-53.143-94.64l-0.256-0.049l-0.238-0.515l0.185-0.237c19.854-25.446,6.141-54.77-5.958-80.642      l-0.916-1.96c-2.698-5.783-25.11-66.733-19.037-77.088c0.103-0.177,0.215-0.34,0.334-0.489L215.281,63.371z"/>
			</g>
			<g>
				<path style="fill:#00C257;" d="M274.777,68.357l-69.36,5.092l-1.996-27.187c-0.162-2.207,1.496-4.128,3.703-4.29l61.367-4.505      c2.207-0.162,4.128,1.496,4.29,3.703L274.777,68.357z"/>
				<path d="M204.955,73.984l-2.032-27.687c-0.182-2.478,1.687-4.643,4.165-4.825l61.367-4.505c2.476-0.166,4.644,1.688,4.825,4.165      l2.032,27.687l-0.499,0.037L204.955,73.984z M268.787,37.956c-0.086,0-0.172,0.003-0.26,0.01l-61.366,4.505      c-1.929,0.142-3.383,1.825-3.241,3.755l1.959,26.689l68.363-5.019l-1.96-26.689C272.147,39.365,270.605,37.956,268.787,37.956z"/>
			</g>
			<g>
				<g>
					<path style="fill:#FFFFFF;" d="M218.68,491.494c-15.405,0.651-13.852-23.062-16.029-33.12       c-1.261-5.828-10.201-3.362-8.939,2.465c2.062,9.529,1.463,19.725,6.202,28.541c3.759,6.992,10.703,11.726,18.766,11.385       C224.624,500.513,224.655,491.241,218.68,491.494z"/>
				</g>
				<g>
					<path style="fill:#FFFFFF;" d="M326.755,271.219c-4.941-11.898-11.826-22.757-20.53-32.258       c-4.087-4.462-11.592,1.554-7.036,5.992c8.596,8.373,14.269,19.118,19.119,30.094       C320.667,280.387,329.031,276.701,326.755,271.219z"/>
				</g>
			</g>
		</g>
		<g>
			<g>
				<g>
					<path style="fill:#FFB2B0;" d="M266.408,37.691l-57.05,4.188c-1.556,0.114-2.909-1.054-3.024-2.61l-1.68-22.879       c-0.114-1.556,1.054-2.909,2.61-3.024l57.05-4.188c1.556-0.114,2.91,1.054,3.024,2.61l1.679,22.88       C269.132,36.223,267.963,37.577,266.408,37.691z"/>
					<path d="M209.145,42.387c-0.796,0-1.558-0.282-2.167-0.809c-0.672-0.58-1.078-1.388-1.143-2.273l-1.68-22.88       c-0.065-0.885,0.219-1.743,0.799-2.415c0.58-0.672,1.387-1.078,2.273-1.144l57.051-4.188c0.889-0.065,1.742,0.219,2.415,0.799       c0.672,0.58,1.078,1.388,1.144,2.274l1.68,22.879c0.064,0.885-0.219,1.743-0.799,2.415c-0.58,0.672-1.388,1.078-2.274,1.144       l-57.049,4.188C209.311,42.384,209.228,42.387,209.145,42.387z M264.525,9.67c-0.059,0-0.116,0.002-0.174,0.007l-57.051,4.188       c-1.278,0.094-2.242,1.21-2.148,2.487l1.68,22.881c0.045,0.619,0.329,1.184,0.799,1.589c0.47,0.406,1.073,0.61,1.689,0.559       l57.05-4.188c0.619-0.045,1.184-0.329,1.59-0.799c0.405-0.47,0.603-1.069,0.558-1.688l-1.68-22.88       c-0.045-0.619-0.329-1.183-0.799-1.59C265.614,9.867,265.082,9.67,264.525,9.67z"/>
				</g>
				<g>
					
						<rect x="212.82" y="3.882" transform="matrix(0.9973 -0.0732 0.0732 0.9973 0.0892 17.2616)" style="fill:#FFFFFF;" width="45.373" height="7.063"/>
					<path d="M212.677,13.132l-0.59-8.041l46.248-3.395l0.591,8.042L212.677,13.132z M213.157,6.015l0.444,6.047l44.254-3.248       l-0.444-6.048L213.157,6.015z"/>
				</g>
			</g>
			<g>
				<g>
					<g>
						<polygon points="260.435,69.711 251.433,9.933 256.07,9.289 265.071,69.067       "/>
					</g>
				</g>
				<g>
					<g>
						<polygon points="221.637,72.579 216.952,72.575 217.657,11.935 222.342,11.938       "/>
					</g>
				</g>
			</g>
			<g>
				
					<rect x="214.048" y="70.691" transform="matrix(-0.9971 0.0757 -0.0757 -0.9971 487.4718 127.3359)" width="54.552" height="4.423"/>
				<path d="M213.832,77.708l-0.411-5.407l55.394-4.203l0.409,5.407L213.832,77.708z M214.495,73.223l0.259,3.413l53.398-4.053      l-0.259-3.413L214.495,73.223z"/>
			</g>
		</g>
		<g>
			<g>
				<path style="fill:#FFFFFF;" d="M197.874,318.874l126.253-9.268l8.872,120.86c1.928,26.261-17.798,49.113-44.06,51.041      l-31.152,2.287c-26.261,1.928-49.113-17.798-51.041-44.06L197.874,318.874z"/>
				<path d="M254.263,484.425c-24.977,0-46.158-19.353-48.015-44.654l-8.909-121.358l0.499-0.037l126.751-9.304l0.037,0.499      l8.872,120.86c1.944,26.494-18.028,49.631-44.522,51.576l-31.152,2.287C256.63,484.381,255.441,484.425,254.263,484.425z       M198.409,319.336l8.836,120.362c1.905,25.944,24.533,45.499,50.506,43.598l31.152-2.287      c12.567-0.922,24.024-6.684,32.259-16.223c8.234-9.539,12.261-21.715,11.338-34.283l-8.835-120.361L198.409,319.336z"/>
			</g>
			<g>
				<g>
					<polygon style="fill:#FF8806;" points="270.269,424.465 297.922,448.44 292.242,411.843 325.842,404.274 296.155,386.594        311.21,355.313 279.059,367.731 263.927,333.517 253.83,369.458 218.404,360.37 239.465,390.475 212.463,412.035        246.781,414.955 246.653,449.761      "/>
				</g>
				<g>
					<polygon style="fill:#FF8806;" points="301.774,343.214 307.989,348.26 306.643,340.431 314.114,338.691 307.459,335.001        310.746,328.24 303.608,331.015 300.161,323.729 297.989,331.472 290.075,329.646 294.834,336.03 288.864,340.747        296.518,341.255 296.566,348.721      "/>
				</g>
				<g>
					<polygon style="fill:#FF8806;" points="273.351,464.213 279.566,469.259 278.22,461.43 285.692,459.69 279.037,456.001        282.323,449.239 275.185,452.014 271.738,444.728 269.567,452.472 261.652,450.645 266.411,457.029 260.441,461.747        268.096,462.254 268.144,469.72      "/>
				</g>
				<g>
					<polygon style="fill:#FF8806;" points="227.875,349.71 234.09,354.757 232.744,346.927 240.215,345.188 233.561,341.498        236.847,334.737 229.709,337.511 226.262,330.225 224.091,337.969 216.176,336.142 220.935,342.526 214.965,347.244        222.619,347.752 222.667,355.218      "/>
				</g>
			</g>
		</g>
	</g>
	<g>
		<g>
			<g>
				<path d="M242.179,280.708c4.26,6.434,9.903,10.783,17.378,10.33c7.268-0.426,12.026-5.204,15.097-11.881l-0.002-0.021      c8.051-17.482,4.598-48.018,4.598-48.018l-15.944,1.239l-19.944,1.561l-13.858,1.089      C229.505,235.007,231.434,264.518,242.179,280.708z"/>
				<path d="M258.501,291.57c-6.457,0-12.084-3.557-16.739-10.586h0c-10.696-16.115-12.738-45.648-12.757-45.945l-0.032-0.492      l50.719-3.965l0.055,0.479c0.034,0.307,3.359,30.721-4.58,48.15v0.001l-0.058,0.153c-3.532,7.679-8.755,11.773-15.522,12.171      C259.223,291.56,258.86,291.57,258.501,291.57z M230.04,235.466c0.315,3.921,2.762,30.211,12.555,44.966h0      c4.702,7.102,10.399,10.508,16.931,10.107c6.334-0.372,11.25-4.228,14.614-11.462l0.057-0.15      c7.355-15.97,4.994-43.318,4.604-47.273L230.04,235.466z"/>
			</g>
			<g>
				<path style="fill:#FF8806;" d="M242.047,279.541c4.329,7.044,10.022,11.835,17.502,11.424      c7.273-0.385,11.989-5.531,14.998-12.76l-0.003-0.023c-1.166-10.307-9.367-17.755-18.304-16.655      C248.092,262.531,242.12,270.333,242.047,279.541z"/>
				<path d="M258.663,291.489c-6.544,0-12.272-3.927-17.042-11.687l-0.075-0.122l0.001-0.144      c0.075-9.532,6.366-17.487,14.632-18.506c4.042-0.501,8.126,0.7,11.509,3.367c4.048,3.192,6.728,8.196,7.354,13.728l0.015,0.129      l-0.047,0.143c-3.46,8.311-8.652,12.707-15.434,13.066C259.271,291.482,258.965,291.489,258.663,291.489z M242.549,279.401      c4.767,7.699,10.456,11.417,16.974,11.064c6.333-0.336,11.216-4.485,14.514-12.333c-0.628-5.244-3.161-9.947-6.967-12.949      c-3.171-2.5-6.991-3.621-10.768-3.16C248.573,262.976,242.682,270.435,242.549,279.401z"/>
			</g>
		</g>
		<g>
			<g>
				<path style="fill:#00C257;" d="M279.632,221.589c-1.739,3.374-5.607,11.966-4.737,23.42c0.925,12.182,6.66,20.37,8.942,23.311"/>
				<path d="M283.441,268.627c-3.003-3.871-8.173-12.083-9.046-23.58c-0.786-10.364,2.172-18.602,4.792-23.686l0.889,0.457      c-2.56,4.971-5.452,13.022-4.683,23.153c0.853,11.237,5.903,19.261,8.839,23.043L283.441,268.627z"/>
			</g>
			<g>
				<path style="fill:#00C257;" d="M227.375,224.526c1.929,3.255,6.284,11.579,6.074,23.068      c-0.223,12.219-5.477,20.765-7.585,23.849"/>
				<path d="M226.277,271.726l-0.825-0.564c2.712-3.967,7.292-12.305,7.498-23.575c0.186-10.162-3.163-18.01-6.004-22.805l0.86-0.51      c2.908,4.906,6.334,12.936,6.144,23.332C233.739,259.135,229.052,267.666,226.277,271.726z"/>
			</g>
		</g>
		<g>
			<path style="fill:#FFB500;" d="M243.497,215.205c-0.15,4.556,3.422,8.37,7.978,8.52c4.556,0.15,8.37-3.422,8.52-7.978     c0.15-4.556-3.422-8.37-7.978-8.52C247.46,207.078,243.646,210.65,243.497,215.205z"/>
			<path d="M251.752,224.23c-0.098,0-0.196-0.002-0.294-0.005c-4.824-0.158-8.619-4.212-8.461-9.036     c0.158-4.823,4.189-8.605,9.036-8.461c4.824,0.158,8.62,4.212,8.461,9.036c-0.077,2.337-1.059,4.504-2.766,6.102     C256.094,223.396,253.981,224.23,251.752,224.23z M251.739,207.723c-1.975,0-3.846,0.738-5.293,2.094     c-1.512,1.416-2.382,3.335-2.45,5.405c-0.14,4.272,3.222,7.863,7.495,8.003c4.255,0.122,7.863-3.222,8.003-7.494     c0.068-2.069-0.674-4.042-2.089-5.554c-1.416-1.512-3.335-2.382-5.405-2.449C251.913,207.725,251.826,207.723,251.739,207.723z"/>
		</g>
		<g>
			<g>
				<g>
					<g>
						<path d="M184.25,173.956c-14.2,0-20.475-11.063-20.549-11.198l0.876-0.482c0.021,0.039,2.223,3.968,6.927,7.027        c4.328,2.814,11.735,5.452,22.453,2.033l0.304,0.953C190.564,173.468,187.231,173.956,184.25,173.956z"/>
					</g>
					<g>
						<path d="M184.278,160.077c-14.2,0-20.476-11.064-20.55-11.198l0.876-0.482c0.021,0.039,2.223,3.968,6.926,7.026        c4.327,2.815,11.736,5.454,22.454,2.034l0.304,0.953C190.592,159.589,187.26,160.077,184.278,160.077z"/>
					</g>
					<g>
						<path d="M190.636,147.072c-14.201,0-20.475-11.064-20.549-11.198l0.876-0.482c0.021,0.039,2.223,3.968,6.926,7.027        c4.327,2.814,11.736,5.453,22.454,2.033l0.304,0.953C196.951,146.584,193.618,147.072,190.636,147.072z"/>
					</g>
				</g>
				<g>
					<g>
						<path d="M210.054,123.293c10.722-0.028,15.518,7.401,16.996,15.657c1.312,7.324-2.273,13.115-2.781,20.192        c-0.515,7.175,7.467,11.673,9.365,18.202c2.18,7.498-0.111,14.088-2.447,21.804c-2.344,7.745,1.595,12.512,0.642,19.867        c-1.323,10.218-14.17,22.11-24.652,16.294c-11.856-6.579-6.568-18.268-8.243-28.917c-1.626-10.332-11.721-15.649-7.816-27.944        c1.53-4.816,3.752-8.911,4.34-13.991c0.914-7.886-3.744-14.296-3.688-22.203C191.831,133.85,195.975,123.33,210.054,123.293z"/>
						<path d="M213.076,237.33c-2.156,0-4.235-0.527-6.14-1.584c-8.686-4.82-8.456-12.193-8.211-19.999        c0.096-3.066,0.195-6.238-0.284-9.277c-0.614-3.903-2.5-7.133-4.324-10.257c-2.918-4.997-5.937-10.165-3.474-17.917        c0.502-1.579,1.081-3.092,1.641-4.554c1.177-3.074,2.289-5.977,2.679-9.344c0.48-4.143-0.601-7.82-1.746-11.714        c-0.97-3.298-1.972-6.709-1.946-10.436c0.066-9.382,5.035-19.42,18.781-19.456l0,0c0.021,0,0.041,0,0.061,0        c12.659,0,16.353,10.063,17.429,16.069c0.817,4.562-0.236,8.603-1.255,12.509c-0.651,2.497-1.324,5.079-1.52,7.807        c-0.285,3.968,2.15,7.071,4.728,10.355c1.865,2.378,3.794,4.836,4.619,7.671c2.093,7.194,0.181,13.464-2.032,20.724        l-0.415,1.365c-1.277,4.219-0.646,7.486,0.022,10.945c0.524,2.716,1.066,5.523,0.637,8.841        c-0.826,6.378-5.981,13.308-12.258,16.478C217.729,236.738,215.359,237.33,213.076,237.33z M210.056,123.793        c-4.142,0.011-17.663,1.375-17.784,18.464c-0.025,3.578,0.956,6.917,1.905,10.146c1.122,3.817,2.283,7.766,1.779,12.11        c-0.404,3.49-1.538,6.451-2.738,9.586c-0.555,1.449-1.129,2.947-1.622,4.499c-2.328,7.328,0.447,12.08,3.385,17.11        c1.871,3.203,3.805,6.517,4.449,10.605c0.493,3.133,0.392,6.352,0.295,9.465c-0.234,7.492-0.456,14.568,7.697,19.093        c4.64,2.577,9.193,1.311,12.196-0.207c6.003-3.031,10.931-9.641,11.717-15.714c0.409-3.156-0.118-5.884-0.627-8.522        c-0.662-3.426-1.346-6.97,0.002-11.424l0.416-1.368c2.166-7.106,4.038-13.244,2.029-20.152        c-0.771-2.649-2.639-5.03-4.445-7.332c-2.581-3.29-5.251-6.692-4.938-11.046c0.202-2.818,0.887-5.445,1.549-7.986        c1.037-3.978,2.017-7.734,1.238-12.081c-1.02-5.697-4.515-15.245-16.445-15.245        C210.093,123.793,210.075,123.793,210.056,123.793L210.056,123.793z"/>
					</g>
					<g>
						<path style="fill:#FFFFFF;" d="M198.928,206.388c1.674,10.648-3.617,22.344,8.247,28.917        c3.375,1.876,7.012,1.926,10.443,0.769c-1.481-0.169-2.935-0.647-4.363-1.437c-11.864-6.573-6.574-18.269-8.247-28.917        c-1.622-10.322-11.721-15.646-7.807-27.948c1.54-4.805,3.754-8.902,4.332-13.98c0.921-7.882-3.747-14.299-3.684-22.204        c0.062-7.149,3.062-15.826,12.626-18.272c-0.13-0.033-0.286-0.016-0.416-0.025c-14.081,0.032-18.227,10.562-18.291,18.965        c-0.063,7.906,4.604,14.323,3.684,22.204c-0.579,5.077-2.793,9.175-4.332,13.979        C187.207,190.741,197.306,196.065,198.928,206.388z"/>
						<path d="M213.105,237.345c-2.169,0-4.254-0.536-6.173-1.603c-8.693-4.817-8.462-12.193-8.216-20.002        c0.096-3.066,0.196-6.236-0.282-9.275v-0.001c-0.612-3.896-2.497-7.124-4.319-10.245c-2.92-5.002-5.939-10.173-3.47-17.932        c0.497-1.551,1.067-3.037,1.618-4.474c1.187-3.096,2.308-6.021,2.695-9.411c0.483-4.141-0.598-7.818-1.743-11.711        c-0.971-3.301-1.974-6.714-1.944-10.44c0.071-9.388,5.044-19.43,18.79-19.461l0.14,0.003c0.113,0,0.253,0.001,0.4,0.038        l1.899,0.483l-1.898,0.485c-11.249,2.876-12.221,14.345-12.25,17.791c-0.028,3.578,0.954,6.919,1.904,10.149        c1.123,3.818,2.284,7.767,1.777,12.108c-0.401,3.516-1.544,6.497-2.754,9.653c-0.546,1.426-1.111,2.898-1.599,4.422        c-2.334,7.334,0.442,12.089,3.381,17.122c1.869,3.202,3.802,6.513,4.444,10.596c0.492,3.131,0.391,6.349,0.293,9.46        c-0.235,7.496-0.458,14.576,7.702,19.097c1.365,0.754,2.77,1.218,4.176,1.377l2.231,0.253l-2.127,0.718        C216.198,237.08,214.631,237.345,213.105,237.345z M199.422,206.31c0.492,3.132,0.391,6.35,0.294,9.462        c-0.235,7.495-0.458,14.575,7.702,19.096c2.446,1.36,5.191,1.785,8.037,1.257c-0.823-0.257-1.639-0.607-2.44-1.05        c-8.694-4.817-8.463-12.193-8.218-20.003c0.096-3.065,0.196-6.235-0.282-9.274c-0.612-3.896-2.497-7.124-4.319-10.245        c-2.92-5.001-5.939-10.173-3.47-17.931c0.497-1.551,1.067-3.038,1.618-4.476c1.186-3.096,2.308-6.02,2.694-9.41        c0.483-4.141-0.598-7.818-1.743-11.712c-0.97-3.301-1.974-6.714-1.944-10.44c0.028-3.265,0.865-13.367,9.734-17.581        c-5.535,0.773-14.708,4.188-14.814,18.257c-0.029,3.578,0.954,6.919,1.904,10.15c1.122,3.818,2.283,7.767,1.776,12.107        c-0.401,3.517-1.544,6.498-2.754,9.654c-0.546,1.425-1.11,2.898-1.599,4.42c-2.334,7.335,0.442,12.09,3.381,17.123        c1.869,3.202,3.802,6.513,4.444,10.596V206.31z"/>
					</g>
				</g>
			</g>
			<g>
				<g>
					<g>
						<path d="M307.185,166.385c-2.043,0-4.246-0.201-6.628-0.653l0.188-0.982c21.154,4.02,28.001-12.38,28.068-12.545l0.928,0.371        C329.68,152.73,323.986,166.385,307.185,166.385z"/>
					</g>
					<g>
						<path d="M305.478,152.611c-2.042,0-4.247-0.201-6.626-0.653l0.186-0.982c21.174,4.02,28.003-12.381,28.069-12.546l0.928,0.371        C327.974,138.956,322.282,152.611,305.478,152.611z"/>
					</g>
					<g>
						<path d="M297.595,140.471c-2.042,0-4.247-0.201-6.626-0.653l0.186-0.982c21.166,4.02,28.003-12.38,28.069-12.546l0.928,0.371        C320.09,126.816,314.398,140.471,297.595,140.471z"/>
					</g>
				</g>
				<g>
					<g>
						<path d="M282.49,115.217c10.711-0.483,15.818,6.734,17.647,14.92c1.622,7.262-1.713,13.2-1.92,20.292        c-0.209,7.19,7.956,11.345,10.131,17.787c2.497,7.398,0.487,14.08-1.518,21.888c-2.013,7.838,2.126,12.433,1.486,19.821        c-0.888,10.265-13.217,22.693-23.936,17.327c-12.125-6.069-7.339-17.972-9.466-28.541        c-2.064-10.254-12.376-15.137-8.997-27.587c1.324-4.877,3.369-9.063,3.741-14.163c0.577-7.918-4.348-14.124-4.628-22.026        C264.732,126.539,268.425,115.852,282.49,115.217z"/>
						<path d="M289.801,229.033c-1.959,0-3.865-0.442-5.644-1.333c-8.884-4.447-8.967-11.823-9.055-19.632        c-0.035-3.068-0.07-6.241-0.678-9.258c-0.779-3.873-2.801-7.021-4.756-10.064c-3.129-4.868-6.363-9.903-4.232-17.752        c0.435-1.6,0.949-3.138,1.446-4.624c1.045-3.119,2.032-6.066,2.278-9.444c0.304-4.16-0.933-7.788-2.242-11.63        c-1.108-3.254-2.255-6.619-2.388-10.343c-0.332-9.377,4.205-19.617,17.937-20.236l0,0c12.729-0.592,16.825,9.347,18.157,15.31        c1.01,4.523,0.13,8.605-0.722,12.552c-0.545,2.523-1.107,5.131-1.186,7.864c-0.116,3.977,2.449,6.974,5.164,10.146        c1.965,2.296,3.996,4.67,4.94,7.467c2.396,7.1,0.753,13.445-1.15,20.792l-0.357,1.381c-1.096,4.269-0.327,7.506,0.488,10.935        c0.639,2.69,1.301,5.474,1.012,8.806c-0.554,6.407-5.41,13.55-11.546,16.984C294.795,228.337,292.256,229.033,289.801,229.033        z M282.49,115.217l0.022,0.499c-4.137,0.188-17.589,2.124-16.982,19.203c0.127,3.576,1.249,6.87,2.335,10.056        c1.283,3.767,2.61,7.662,2.293,12.024c-0.256,3.504-1.263,6.509-2.328,9.69c-0.493,1.472-1.003,2.995-1.43,4.567        c-2.014,7.421,0.96,12.049,4.108,16.95c2.005,3.121,4.079,6.349,4.896,10.406c0.626,3.109,0.662,6.329,0.697,9.443        c0.084,7.496,0.164,14.575,8.502,18.749c4.747,2.377,9.241,0.918,12.177-0.726c5.868-3.284,10.511-10.097,11.038-16.197        c0.274-3.172-0.368-5.875-0.989-8.489c-0.807-3.395-1.641-6.905-0.483-11.413l0.357-1.383        c1.862-7.193,3.472-13.404,1.171-20.222c-0.883-2.614-2.851-4.913-4.753-7.137c-2.72-3.177-5.531-6.462-5.404-10.825        c0.082-2.825,0.655-5.479,1.209-8.046c0.866-4.018,1.686-7.814,0.723-12.122c-1.264-5.659-5.161-15.066-17.136-14.53        L282.49,115.217z"/>
					</g>
					<g>
						<path style="fill:#FFFFFF;" d="M274.906,198.709c2.125,10.567-2.664,22.477,9.469,28.54c3.451,1.731,7.087,1.627,10.466,0.325        c-1.487-0.105-2.96-0.522-4.42-1.25c-12.133-6.063-7.344-17.973-9.469-28.54c-2.06-10.244-12.376-15.134-8.988-27.591        c1.334-4.865,3.372-9.054,3.734-14.151c0.585-7.914-4.351-14.127-4.625-22.028c-0.242-7.145,2.386-15.942,11.838-18.792        c-0.131-0.028-0.286-0.004-0.416-0.007c-14.067,0.631-17.762,11.327-17.468,19.725c0.273,7.902,5.209,14.114,4.625,22.028        c-0.363,5.097-2.401,9.286-3.734,14.151C262.531,183.575,272.847,188.465,274.906,198.709z"/>
						<path d="M289.834,229.047c-1.972,0-3.887-0.45-5.682-1.351c-8.891-4.442-8.973-11.822-9.06-19.635        c-0.034-3.067-0.069-6.239-0.676-9.254l0,0c-0.777-3.867-2.797-7.012-4.751-10.054c-3.129-4.872-6.365-9.911-4.228-17.767        c0.431-1.57,0.936-3.08,1.426-4.54c1.055-3.144,2.051-6.112,2.292-9.516c0.307-4.157-0.93-7.786-2.239-11.627        c-1.109-3.257-2.258-6.624-2.387-10.349c-0.327-9.382,4.216-19.626,17.946-20.241l0.145-0.003        c0.111-0.006,0.25-0.012,0.397,0.021l1.921,0.401l-1.879,0.566c-11.116,3.352-11.6,14.852-11.482,18.297        c0.123,3.575,1.247,6.871,2.333,10.059c1.284,3.768,2.612,7.663,2.29,12.022c-0.251,3.528-1.266,6.555-2.34,9.759        c-0.485,1.447-0.987,2.944-1.41,4.487c-2.021,7.428,0.955,12.06,4.105,16.964c2.003,3.119,4.075,6.345,4.89,10.396        c0.625,3.107,0.661,6.327,0.695,9.441c0.083,7.498,0.162,14.58,8.507,18.75c1.392,0.694,2.816,1.098,4.231,1.198l2.238,0.159        l-2.094,0.807C293.277,228.712,291.534,229.047,289.834,229.047z M275.396,198.61c0.625,3.107,0.661,6.327,0.695,9.44        c0.084,7.498,0.163,14.581,8.508,18.751c2.501,1.255,5.263,1.561,8.082,0.914c-0.835-0.222-1.665-0.537-2.483-0.945        c-8.891-4.442-8.973-11.821-9.06-19.634c-0.034-3.067-0.069-6.239-0.676-9.255c-0.777-3.867-2.797-7.012-4.751-10.053        c-3.13-4.873-6.366-9.911-4.228-17.768c0.431-1.571,0.936-3.082,1.427-4.543c1.054-3.142,2.049-6.109,2.29-9.513        c0.308-4.157-0.929-7.786-2.238-11.627c-1.11-3.257-2.258-6.624-2.387-10.348c-0.11-3.263,0.297-13.393,8.978-17.981        c-5.495,1.009-14.517,4.809-14.025,18.87c0.123,3.577,1.247,6.874,2.334,10.062c1.283,3.767,2.611,7.662,2.29,12.021        c-0.251,3.528-1.267,6.557-2.342,9.762c-0.485,1.446-0.986,2.942-1.409,4.484c-2.02,7.427,0.955,12.06,4.105,16.964        C272.51,191.333,274.582,194.559,275.396,198.61L275.396,198.61z"/>
					</g>
				</g>
			</g>
		</g>
	</g>
</g>















</svg>
