<?xml version="1.0" encoding="UTF-8"?>
<!-- Generator: Adobe Illustrator 27.1.1, SVG Export Plug-In . SVG Version: 6.00 Build 0)  -->
<svg xmlns="http://www.w3.org/2000/svg" xmlns:xlink="http://www.w3.org/1999/xlink" version="1.1" id="Capa_1" x="0px" y="0px" viewBox="0 0 512.042 512.042" style="enable-background:new 0 0 512.042 512.042;" xml:space="preserve" width="512" height="512">
<g>
	<g>
		<rect x="17.588" y="416.224" width="476.865" height="1"/>
	</g>
	<g>
		<g>
			<g>
				
					<rect x="154.756" y="149.037" transform="matrix(0.133 -0.9911 0.9911 0.133 4.9309 314.3769)" style="fill:#00C257;" width="54.787" height="10.665"/>
			</g>
		</g>
		<g>
			<g>
				
					<rect x="47.727" y="149.388" transform="matrix(0.8577 -0.5142 0.5142 0.8577 -82.2305 52.1355)" style="fill:#00C257;" width="10.661" height="50.426"/>
			</g>
		</g>
		<g>
			<g>
				
					<rect x="110.928" y="124.658" transform="matrix(0.9934 -0.1144 0.1144 0.9934 -16.8648 14.3139)" style="fill:#00C257;" width="10.664" height="58.824"/>
			</g>
		</g>
	</g>
	<g>
		<g>
			<g>
				<g>
					<g>
						<path style="fill:#FFB500;" d="M261.012,357.81c1.997,7.962,3.321,16.322,3.614,24.632c0.222,6.284,0.915,15.661-5.729,19.465        c-3.779,2.163-8.61,1.225-10.878-2.278c-2.654-4.1-0.977-9.885,0.322-14.398c2.633-9.151,7.133-17.993,11.98-26.258        C260.549,358.585,260.777,358.195,261.012,357.81z"/>
						<path d="M254.564,403.574c-2.777,0-5.423-1.293-6.964-3.674c-2.769-4.275-1.097-10.088,0.247-14.76        c2.272-7.898,6.095-16.278,12.043-26.42c0.237-0.404,0.463-0.791,0.695-1.171l0.621-1.021l0.291,1.158        c2.128,8.486,3.349,16.809,3.629,24.737l0.033,0.905c0.245,6.43,0.58,15.236-6.014,19.011        C257.69,403.175,256.107,403.574,254.564,403.574z M260.819,359.115c-0.019,0.03-0.036,0.06-0.054,0.091        c-5.917,10.088-9.708,18.395-11.943,26.164c-1.301,4.523-2.903,10.094-0.382,13.987c2.107,3.257,6.593,4.187,10.21,2.116        c6.067-3.475,5.746-11.931,5.511-18.105l-0.034-0.908C263.863,374.971,262.75,367.122,260.819,359.115z"/>
					</g>
					<g>
						<path style="fill:#FFFFFF;" d="M255.379,397.852c2.85-2.283,4.406-5.779,3.873-9.214c-0.119-0.768,0.173-1.578,0.998-1.874        c0.681-0.245,1.687,0.094,1.807,0.868c0.369,2.381,0.147,4.73-0.814,7.049c-0.915,2.21-2.502,4.071-4.371,5.569        c-0.637,0.51-1.624,0.24-2.001-0.364C254.436,399.186,254.74,398.363,255.379,397.852z"/>
					</g>
				</g>
				<g>
					<g>
						<path style="fill:#FFB500;" d="M271.864,329.273c-1.46,5.818-2.426,11.926-2.641,17.997        c-0.162,4.591-0.668,11.443,4.186,14.222c2.761,1.581,6.291,0.895,7.948-1.664c1.939-2.995,0.714-7.222-0.235-10.52        c-1.924-6.686-5.212-13.146-8.753-19.185C272.202,329.839,272.035,329.554,271.864,329.273z"/>
						<path d="M276.575,362.845c-1.149,0-2.329-0.298-3.414-0.919c-4.888-2.798-4.642-9.278-4.462-14.01l0.024-0.663        c0.206-5.806,1.099-11.896,2.655-18.103l0.29-1.156l0.622,1.018c0.174,0.284,0.342,0.572,0.51,0.859        c4.351,7.418,7.147,13.55,8.802,19.298c0.999,3.472,2.231,7.754,0.175,10.931        C280.624,361.878,278.648,362.845,276.575,362.845z M272.058,330.583c-1.36,5.727-2.146,11.341-2.335,16.705l-0.025,0.666        c-0.17,4.477-0.402,10.606,3.959,13.104c2.581,1.475,5.778,0.817,7.28-1.502c1.81-2.795,0.647-6.834-0.287-10.08        C279.026,343.834,276.297,337.835,272.058,330.583z"/>
					</g>
					<g>
						<path style="fill:#FFFFFF;" d="M275.98,358.529c-2.082-1.668-3.219-4.222-2.83-6.732c0.087-0.562-0.127-1.153-0.73-1.37        c-0.497-0.179-1.233,0.069-1.32,0.634c-0.27,1.74-0.107,3.456,0.595,5.15c0.669,1.615,1.828,2.974,3.194,4.069        c0.465,0.373,1.187,0.176,1.462-0.266C276.669,359.504,276.447,358.903,275.98,358.529z"/>
					</g>
				</g>
			</g>
			<g>
				<g>
					<g>
						<path style="fill:#AD2328;" d="M293.931,145.563c-0.323,4.759-5.368,8.324-11.268,7.962        c-5.901-0.361-10.422-4.512-10.099-9.271c0.323-4.759,5.368-8.324,11.269-7.962        C289.732,136.653,294.254,140.804,293.931,145.563z"/>
						<path d="M283.481,154.051c-0.28,0-0.564-0.009-0.849-0.026c-3.379-0.207-6.458-1.624-8.447-3.889        c-1.51-1.719-2.264-3.819-2.121-5.916c0.343-5.023,5.642-8.803,11.798-8.427c3.378,0.207,6.456,1.624,8.446,3.888        c1.511,1.719,2.264,3.82,2.122,5.917l0,0C294.104,150.39,289.275,154.051,283.481,154.051z M283.011,136.767        c-5.272,0-9.659,3.255-9.949,7.521c-0.126,1.855,0.521,3.648,1.874,5.188c1.816,2.066,4.643,3.36,7.757,3.551        c5.61,0.355,10.436-3.018,10.739-7.497l0,0c0.126-1.854-0.522-3.649-1.875-5.188c-1.815-2.066-4.642-3.359-7.756-3.55        C283.537,136.774,283.272,136.767,283.011,136.767z"/>
					</g>
					<g>
						<g>
							<polygon style="fill:#71D2C4;" points="280.223,341.152 261.97,340.034 263.587,316.205 281.84,317.323        "/>
							<path d="M280.688,341.681l-19.251-1.179l1.686-24.826l19.251,1.179L280.688,341.681z M262.503,339.564l17.255,1.058         l1.549-22.83l-17.255-1.058L262.503,339.564z"/>
						</g>
						<g>
							<polygon style="fill:#71D2C4;" points="326.766,319.74 279.905,316.87 280.649,305.897 327.511,308.767        "/>
							<path d="M327.231,320.27l-47.859-2.931l0.812-11.972l47.86,2.932L327.231,320.27z M280.438,316.401l45.863,2.81l0.677-9.975         l-45.864-2.811L280.438,316.401z"/>
						</g>
						<g>
							<polygon style="fill:#71D2C4;" points="284.482,321.955 259.806,320.444 264.912,245.205 289.587,246.716        "/>
							<path d="M284.947,322.484l-25.674-1.572l5.174-76.236l25.674,1.571L284.947,322.484z M260.339,319.975l23.678,1.451         l5.037-74.241l-23.678-1.45L260.339,319.975z"/>
						</g>
					</g>
					<g>
						<path style="fill:#AD2328;" d="M291.624,254.082l-30.05-1.841c-0.974-15.252-1.134-32.19,0.144-50.513        c1.239-17.765,3.637-34.063,6.588-48.691c10.016,0.614,20.034,1.227,30.05,1.841c1.281,14.487,1.741,30.856,0.59,48.739        C297.737,222.386,294.98,239.311,291.624,254.082z"/>
						<path d="M292.018,254.607l-30.915-1.895l-0.028-0.439c-1.073-16.808-1.024-33.825,0.145-50.58        c1.137-16.286,3.355-32.689,6.597-48.754l0.086-0.427l30.914,1.894l0.038,0.429c1.434,16.206,1.632,32.63,0.591,48.815        c-1.09,16.916-3.557,33.921-7.333,50.542L292.018,254.607z M262.044,251.77l29.187,1.787        c3.711-16.436,6.139-33.248,7.216-49.971c1.029-15.992,0.844-32.219-0.551-48.234l-29.185-1.788        c-3.186,15.887-5.37,32.1-6.493,48.2C261.061,218.328,261.003,235.148,262.044,251.77z"/>
					</g>
				</g>
				<g>
					<polygon style="fill:#FFFFFF;" points="462.502,15.459 441.221,329.077 322.416,321.798 343.697,8.181      "/>
					<path d="M441.686,329.605l-119.804-7.338l21.35-314.615l119.804,7.338L441.686,329.605z M322.949,321.33l117.808,7.217       l21.213-312.619L344.162,8.711L322.949,321.33z"/>
				</g>
				<g>
					<polygon style="fill:#71D2C4;" points="401.444,487.3 339.529,483.507 351.01,314.314 412.925,318.107      "/>
					<path d="M401.91,487.829l-62.914-3.854l11.549-170.19l62.914,3.854L401.91,487.829z M340.062,483.038l60.918,3.733       l11.412-168.194l-60.918-3.732L340.062,483.038z"/>
				</g>
				<g>
					<path style="fill:#FFB500;" d="M450.854,80.132L434.625,320.74l-104.528-6.358l16.385-242.919       c13.048-4.63,30.006-6.724,49.659-0.13C417.234,78.395,436.278,80.24,450.854,80.132z"/>
					<path d="M435.09,321.27l-105.526-6.418l0.034-0.502l16.407-243.248l0.31-0.11c16.249-5.765,33.065-5.811,49.985-0.131       c17.797,5.956,36.158,8.902,54.55,8.771l0.539-0.004L435.09,321.27z M330.63,313.914l103.528,6.297l16.16-239.576       c-18.295,0.098-36.608-2.892-54.337-8.826c-16.593-5.569-33.085-5.563-49.023,0.017L330.63,313.914z"/>
				</g>
				<g>
					<polygon style="fill:#AD2328;" points="466.997,25.272 336.528,17.28 337.664,0.529 468.133,8.522      "/>
					<path d="M467.461,25.802l-131.467-8.053L337.2,0l131.467,8.053L467.461,25.802z M337.061,16.812l129.471,7.932L467.6,8.99       L338.129,1.059L337.061,16.812z"/>
				</g>
				<g>
					<polygon style="fill:#AD2328;" points="445.604,340.528 315.135,332.536 317.477,298.028 447.946,306.021      "/>
					<path d="M446.069,341.058l-131.467-8.053l2.41-35.506l131.467,8.053L446.069,341.058z M315.668,332.067l129.471,7.932       l2.273-33.51l-129.471-7.932L315.668,332.067z"/>
				</g>
				<g>
					<g>
						<path style="fill:#FFFFFF;" d="M363.739,51.35c-0.186,2.741-2.635,4.822-5.47,4.649c-2.835-0.174-4.983-2.537-4.797-5.278        c0.186-2.741,2.635-4.822,5.471-4.649C361.777,46.246,363.925,48.609,363.739,51.35z"/>
						<path d="M358.597,56.508c-0.119,0-0.239-0.003-0.359-0.011c-1.537-0.094-2.934-0.771-3.932-1.906        c-0.957-1.089-1.431-2.475-1.334-3.904c0.205-3.009,2.913-5.312,6-5.113c1.538,0.094,2.935,0.771,3.933,1.908        c0.956,1.088,1.43,2.474,1.333,3.902C364.041,54.276,361.547,56.508,358.597,56.508z M358.613,46.562        c-2.429,0-4.481,1.825-4.643,4.192c-0.079,1.161,0.308,2.289,1.087,3.176c0.821,0.934,1.973,1.491,3.241,1.568        c2.54,0.142,4.775-1.721,4.941-4.184l0,0c0.079-1.16-0.307-2.287-1.086-3.174c-0.821-0.935-1.973-1.492-3.242-1.57        C358.811,46.565,358.711,46.562,358.613,46.562z"/>
					</g>
					<g>
						<path style="fill:#FFFFFF;" d="M406.361,62.442c-0.118,1.744-1.677,3.069-3.481,2.958c-1.804-0.11-3.171-1.614-3.053-3.358        c0.118-1.744,1.677-3.069,3.481-2.958C405.113,59.194,406.48,60.698,406.361,62.442z"/>
						<path d="M403.089,65.907c-0.079,0-0.159-0.003-0.239-0.008c-1.027-0.062-1.961-0.516-2.628-1.275        c-0.642-0.729-0.958-1.658-0.894-2.616c0.137-2.015,1.92-3.547,4.011-3.423c1.027,0.062,1.961,0.516,2.629,1.276        c0.64,0.729,0.957,1.657,0.892,2.615l0,0C406.728,64.413,405.061,65.907,403.089,65.907z M403.1,59.577        c-1.451,0-2.678,1.088-2.773,2.499c-0.047,0.689,0.183,1.36,0.646,1.888c0.49,0.559,1.179,0.891,1.938,0.938        c1.51,0.098,2.852-1.024,2.951-2.493l0,0c0.047-0.689-0.182-1.359-0.646-1.888c-0.49-0.558-1.179-0.891-1.938-0.938        C403.219,59.579,403.16,59.577,403.1,59.577z"/>
					</g>
					<g>
						<path style="fill:#FFFFFF;" d="M407.21,33.279c-0.237,3.489-3.354,6.137-6.962,5.916c-3.608-0.221-6.342-3.228-6.105-6.717        c0.237-3.489,3.354-6.137,6.962-5.916C404.713,26.783,407.446,29.79,407.21,33.279z"/>
						<path d="M400.665,39.708c-0.148,0-0.298-0.005-0.448-0.014c-1.921-0.118-3.665-0.964-4.912-2.383        c-1.192-1.357-1.782-3.086-1.662-4.867c0.256-3.757,3.642-6.602,7.492-6.382c1.921,0.118,3.666,0.965,4.912,2.384        c1.192,1.358,1.782,3.085,1.661,4.866C407.463,36.923,404.349,39.708,400.665,39.708z M400.687,27.049        c-3.163,0-5.836,2.379-6.046,5.464c-0.103,1.513,0.4,2.982,1.415,4.139c1.07,1.217,2.569,1.943,4.222,2.045        c3.337,0.201,6.216-2.242,6.433-5.452l0,0c0.104-1.513-0.4-2.982-1.414-4.138c-1.069-1.218-2.569-1.944-4.222-2.046        C400.945,27.053,400.816,27.049,400.687,27.049z"/>
					</g>
					<g>
						<path style="fill:#FFFFFF;" d="M441.828,52.75c-0.144,2.118-2.036,3.726-4.227,3.592c-2.191-0.134-3.85-1.96-3.707-4.078        c0.144-2.118,2.036-3.726,4.227-3.592C440.312,48.806,441.972,50.632,441.828,52.75z"/>
						<path d="M437.856,56.85c-0.095,0-0.19-0.003-0.285-0.009c-1.219-0.074-2.325-0.611-3.117-1.513        c-0.76-0.863-1.136-1.964-1.059-3.099c0.162-2.388,2.339-4.202,4.757-4.057c1.22,0.075,2.326,0.612,3.118,1.514        c0.759,0.863,1.135,1.964,1.058,3.098l0,0C442.17,55.079,440.194,56.85,437.856,56.85z M437.869,49.164        c-1.819,0-3.355,1.364-3.476,3.134c-0.059,0.866,0.23,1.708,0.812,2.37c0.614,0.699,1.477,1.117,2.427,1.175        c1.921,0.134,3.574-1.285,3.698-3.127c0.059-0.866-0.23-1.707-0.811-2.369c-0.615-0.699-1.478-1.117-2.428-1.176        C438.016,49.166,437.942,49.164,437.869,49.164z"/>
					</g>
				</g>
				<g>
					<g>
						<path style="fill:#AD2328;" d="M335.457,466.959l-1.592,12.722l-32.611,17.273c-3.131,1.659-1.778,5.626,1.998,5.857        c19.246,3.259,41.399,6.072,66.006,7.573c24.479,1.494,46.722,1.404,66.17,0.524c1.68,0.103,3.243-0.671,3.875-1.92        c0.586-1.159,0.349-2.603-1.071-3.622l-29.604-21.263l0.856-12.61C409.482,471.494,343.148,467.459,335.457,466.959z"/>
						<path d="M407.309,512.042c-12.708,0-25.442-0.386-38.083-1.157c-22.09-1.349-44.315-3.898-66.058-7.58        c-2.373-0.142-3.772-1.659-4.083-3.096c-0.319-1.478,0.422-2.895,1.934-3.695l32.382-17.152l1.618-12.932l0.47,0.03        c7.603,0.494,73.36,4.495,74.023,4.535l0.503,0.03l-0.871,12.835l29.379,21.1c1.505,1.081,1.985,2.751,1.225,4.255        c-0.722,1.428-2.489,2.314-4.352,2.193C426.085,511.831,416.705,512.042,407.309,512.042z M335.894,467.488l-1.565,12.514        l-0.229,0.121l-32.611,17.273c-1.116,0.592-1.648,1.564-1.425,2.601c0.231,1.068,1.316,2.199,3.219,2.315        c21.762,3.682,43.951,6.228,66.005,7.574c21.948,1.338,44.192,1.513,66.117,0.523c1.536,0.085,2.908-0.57,3.451-1.646        c0.534-1.056,0.184-2.202-0.916-2.991l-29.83-21.424l0.84-12.386C402.915,471.596,344.942,468.067,335.894,467.488z"/>
					</g>
					<g>
						
							<rect x="370.673" y="445.009" transform="matrix(0.0611 -0.9981 0.9981 0.0611 -132.715 823.0978)" width="1" height="74.174"/>
					</g>
				</g>
				<g>
					<g>
						<path style="fill:#FFFFFF;" d="M356.346,83.42c-2.226,0-4.036-1.731-4.036-3.86s1.81-3.861,4.036-3.861        c2.226,0,4.037,1.732,4.037,3.861S358.572,83.42,356.346,83.42z M356.346,76.698c-1.674,0-3.036,1.283-3.036,2.861        c0,1.577,1.362,2.86,3.036,2.86c1.675,0,3.037-1.283,3.037-2.86C359.383,77.981,358.021,76.698,356.346,76.698z"/>
					</g>
					<g>
						<path style="fill:#FFFFFF;" d="M441.119,91.043c-2.226,0-4.036-1.731-4.036-3.86s1.811-3.86,4.036-3.86        c2.225,0,4.037,1.732,4.037,3.86S443.344,91.043,441.119,91.043z M441.119,84.322c-1.674,0-3.036,1.283-3.036,2.86        c0,1.577,1.362,2.86,3.036,2.86c1.675,0,3.037-1.283,3.037-2.86C444.156,85.605,442.793,84.322,441.119,84.322z"/>
					</g>
					<g>
						<path style="fill:#FFFFFF;" d="M394.841,137.113c-2.226,0-4.037-1.731-4.037-3.86s1.812-3.86,4.037-3.86        c2.226,0,4.037,1.731,4.037,3.86S397.067,137.113,394.841,137.113z M394.841,130.393c-1.675,0-3.037,1.283-3.037,2.86        c0,1.577,1.362,2.86,3.037,2.86s3.037-1.283,3.037-2.86C397.878,131.676,396.516,130.393,394.841,130.393z"/>
					</g>
					<g>
						<path style="fill:#FFFFFF;" d="M343.641,225.329c-2.226,0-4.037-1.732-4.037-3.86c0-2.129,1.811-3.86,4.037-3.86        c2.226,0,4.037,1.731,4.037,3.86C347.678,223.598,345.867,225.329,343.641,225.329z M343.641,218.608        c-1.675,0-3.037,1.283-3.037,2.86c0,1.577,1.362,2.86,3.037,2.86s3.037-1.283,3.037-2.86        C346.678,219.892,345.316,218.608,343.641,218.608z"/>
					</g>
					<g>
						<path style="fill:#FFFFFF;" d="M360.831,293.956c-3.002,0-5.443-2.331-5.443-5.196c0-2.866,2.441-5.197,5.443-5.197        c3.001,0,5.442,2.331,5.442,5.197C366.274,291.625,363.832,293.956,360.831,293.956z M360.831,284.562        c-2.45,0-4.443,1.883-4.443,4.197c0,2.314,1.993,4.196,4.443,4.196c2.449,0,4.442-1.883,4.442-4.196        C365.274,286.445,363.281,284.562,360.831,284.562z"/>
					</g>
					<g>
						<path style="fill:#FFFFFF;" d="M433.753,226.951c-2.226,0-4.036-1.732-4.036-3.861c0-2.129,1.81-3.86,4.036-3.86        c2.226,0,4.037,1.732,4.037,3.86C437.79,225.219,435.979,226.951,433.753,226.951z M433.753,220.229        c-1.674,0-3.036,1.283-3.036,2.86c0,1.578,1.362,2.861,3.036,2.861c1.675,0,3.037-1.283,3.037-2.861        C436.79,221.513,435.428,220.229,433.753,220.229z"/>
					</g>
					<g>
						<path style="fill:#FFFFFF;" d="M411.691,275.806c-2.226,0-4.037-1.731-4.037-3.86c0-2.129,1.811-3.86,4.037-3.86        c2.226,0,4.036,1.732,4.036,3.86C415.727,274.074,413.916,275.806,411.691,275.806z M411.691,269.085        c-1.675,0-3.037,1.283-3.037,2.86c0,1.577,1.362,2.86,3.037,2.86c1.674,0,3.036-1.283,3.036-2.86        C414.727,270.368,413.365,269.085,411.691,269.085z"/>
					</g>
				</g>
			</g>
			<g>
				<g>
					<g>
						<g>
							<g>
								<path d="M453.254,139.531c-2.772,0-5.853-0.409-9.267-1.392l0.277-0.961c19.815,5.704,27.818-8.084,28.15-8.674l0.873,0.488          C473.217,129.119,467.21,139.531,453.254,139.531z"/>
							</g>
							<g>
								<path d="M453.03,126.834c-2.771,0-5.852-0.409-9.266-1.392l0.277-0.961c19.822,5.708,27.817-8.084,28.148-8.674l0.873,0.488          C472.993,116.422,466.986,126.834,453.03,126.834z"/>
							</g>
							<g>
								<path d="M446.724,115.022c-2.772,0-5.854-0.41-9.268-1.393l0.277-0.961c19.85,5.716,28.068-8.527,28.149-8.673l0.873,0.488          C466.686,104.61,460.68,115.022,446.724,115.022z"/>
							</g>
						</g>
						<g>
							<g>
								<path d="M428.083,93.485c-10.324,0.12-14.836,6.98-16.142,14.554c-1.159,6.718,2.375,11.968,2.965,18.436          c0.598,6.557-7.023,10.781-8.759,16.779c-1.993,6.889,0.308,12.887,2.666,19.915c2.367,7.054-1.358,11.469-0.336,18.184          c1.42,9.33,13.958,20.037,23.968,14.574c11.322-6.179,6.064-16.802,7.526-26.567c1.418-9.475,11.063-14.475,7.128-25.671          c-1.542-4.386-3.739-8.102-4.378-12.741c-0.992-7.203,3.401-13.13,3.235-20.363          C445.779,102.897,441.64,93.328,428.083,93.485z"/>
								<path d="M426.607,197.901c-2.291,0-4.677-0.586-7.039-1.757c-5.952-2.949-10.717-9.001-11.586-14.717          c-0.463-3.039,0.021-5.621,0.488-8.118c0.592-3.166,1.151-6.156-0.132-9.982l-0.418-1.238          c-2.239-6.623-4.173-12.343-2.255-18.974c0.757-2.616,2.583-4.895,4.348-7.099c2.429-3.031,4.722-5.895,4.393-9.497          c-0.227-2.486-0.91-4.837-1.572-7.11c-1.038-3.567-2.111-7.256-1.388-11.455c0.954-5.529,4.384-14.826,16.63-14.969l0,0          c0.11-0.001,0.22-0.002,0.328-0.002c13.003,0,17.855,9.058,18.052,17.589c0.078,3.418-0.84,6.557-1.728,9.592          c-1.045,3.571-2.032,6.944-1.513,10.715c0.423,3.066,1.533,5.705,2.709,8.498c0.56,1.33,1.14,2.706,1.645,4.145          c2.49,7.086-0.349,11.867-3.095,16.49c-1.71,2.878-3.478,5.854-4.012,9.421c-0.416,2.781-0.275,5.678-0.14,8.479          c0.332,6.841,0.676,13.914-7.641,18.452C430.806,197.39,428.748,197.901,426.607,197.901z M428.088,93.985          c-11.522,0.134-14.755,8.916-15.655,14.139c-0.685,3.972,0.31,7.389,1.362,11.006c0.675,2.319,1.372,4.717,1.607,7.3          c0.365,4.003-2.164,7.159-4.609,10.212c-1.704,2.128-3.466,4.327-4.167,6.751c-1.831,6.33,0.057,11.912,2.241,18.376          l0.418,1.24c1.367,4.073,0.757,7.333,0.167,10.485c-0.452,2.414-0.919,4.911-0.482,7.783          c0.811,5.326,5.454,11.202,11.042,13.972c4.27,2.115,8.598,2.198,12.193,0.238c7.766-4.239,7.452-10.693,7.12-17.526          c-0.138-2.85-0.281-5.797,0.15-8.676c0.562-3.761,2.381-6.822,4.14-9.783c2.75-4.63,5.348-9.002,3.012-15.648          c-0.496-1.411-1.069-2.772-1.624-4.09c-1.202-2.855-2.338-5.553-2.777-8.749c-0.549-3.982,0.515-7.617,1.543-11.132          c0.866-2.963,1.763-6.025,1.688-9.288c-0.09-3.915-1.591-16.612-17.037-16.612C428.309,93.983,428.2,93.984,428.088,93.985          L428.088,93.985z"/>
							</g>
							<g>
								<path style="fill:#FFFFFF;" d="M439.978,169.355c-1.46,9.764,3.801,20.393-7.529,26.567          c-3.223,1.762-6.724,1.857-10.044,0.845c1.423-0.174,2.817-0.632,4.18-1.374c11.33-6.174,6.069-16.803,7.529-26.566          c1.415-9.465,11.063-14.473,7.119-25.674c-1.551-4.375-3.741-8.094-4.371-12.731c-0.999-7.198,3.404-13.132,3.231-20.364          c-0.162-6.54-3.173-14.438-12.418-16.546c0.125-0.032,0.275-0.018,0.4-0.029c13.559-0.161,17.701,9.416,17.882,17.103          c0.174,7.232-4.229,13.166-3.231,20.364c0.63,4.637,2.819,8.356,4.371,12.731          C451.041,154.882,441.393,159.89,439.978,169.355z"/>
								<path d="M426.579,197.913c-1.409,0-2.857-0.222-4.32-0.668L420,196.557l2.343-0.286c1.353-0.165,2.7-0.608,4.002-1.316          c7.772-4.234,7.458-10.692,7.126-17.528c-0.139-2.849-0.282-5.795,0.148-8.673c0.562-3.755,2.378-6.814,4.135-9.773          c2.751-4.633,5.349-9.009,3.007-15.661c-0.49-1.384-1.055-2.723-1.601-4.018c-1.212-2.875-2.356-5.592-2.793-8.812          c-0.553-3.977,0.512-7.613,1.54-11.128c0.868-2.964,1.765-6.029,1.686-9.292c-0.078-3.144-1.176-13.595-12.029-16.07          l-2.007-0.458l1.993-0.514c0.141-0.036,0.275-0.038,0.384-0.039l0.102-0.003c0.113-0.002,0.228-0.003,0.34-0.003          c13.027,0,17.88,9.059,18.081,17.592c0.082,3.419-0.837,6.559-1.727,9.598c-1.044,3.57-2.031,6.943-1.509,10.71          c0.419,3.09,1.539,5.746,2.725,8.559c0.551,1.309,1.121,2.661,1.622,4.073c2.497,7.094-0.344,11.878-3.091,16.505          c-1.707,2.875-3.473,5.85-4.006,9.411l0,0c-0.415,2.779-0.274,5.676-0.139,8.476c0.333,6.844,0.678,13.92-7.645,18.456          C430.8,197.393,428.735,197.913,426.579,197.913z M424.666,196.768c2.686,0.4,5.257-0.035,7.542-1.285          c7.773-4.235,7.459-10.693,7.127-17.529c-0.139-2.849-0.282-5.795,0.148-8.673c0.561-3.755,2.378-6.814,4.135-9.773          c2.751-4.633,5.349-9.009,3.007-15.661c-0.49-1.384-1.055-2.723-1.601-4.018c-1.212-2.876-2.356-5.592-2.793-8.812          c-0.553-3.978,0.511-7.612,1.54-11.127c0.867-2.964,1.764-6.029,1.686-9.293c-0.086-3.676-1.421-15.09-14.351-16.478          c8.472,3.785,9.413,12.949,9.487,15.925c0.082,3.419-0.838,6.56-1.727,9.597c-1.045,3.571-2.032,6.944-1.51,10.712          c0.419,3.09,1.539,5.746,2.725,8.559c0.551,1.309,1.121,2.661,1.622,4.073c2.497,7.094-0.344,11.878-3.091,16.505          c-1.707,2.876-3.473,5.85-4.006,9.411c-0.415,2.779-0.274,5.676-0.139,8.476c0.333,6.844,0.678,13.92-7.646,18.456          C426.117,196.217,425.396,196.53,424.666,196.768z"/>
							</g>
						</g>
					</g>
					<g>
						<g>
							<g>
								<path d="M339.657,135.918c-6.738,0-11.508-2.265-14.572-4.497c-4.476-3.262-6.33-7.064-6.407-7.225l0.902-0.433          c0.292,0.608,7.398,14.824,27.542,10.276l0.221,0.975C344.54,135.648,341.981,135.918,339.657,135.918z"/>
							</g>
							<g>
								<path d="M340.69,123.257c-6.738,0-11.508-2.265-14.572-4.497c-4.476-3.262-6.33-7.064-6.407-7.225l0.902-0.433          c0.292,0.608,7.396,14.823,27.542,10.276l0.221,0.975C345.573,122.987,343.014,123.257,340.69,123.257z"/>
							</g>
							<g>
								<path d="M347.739,111.83c-6.738,0-11.508-2.265-14.572-4.497c-4.476-3.262-6.33-7.064-6.407-7.225l0.902-0.433          c0.292,0.608,7.399,14.822,27.542,10.276l0.221,0.975C352.622,111.561,350.063,111.83,347.739,111.83z"/>
							</g>
						</g>
						<g>
							<g>
								<path d="M362.496,88.044c-10.325,0.007-14.919,6.818-16.317,14.377c-1.24,6.705,2.23,11.993,2.742,18.467          c0.519,6.563-7.153,10.703-8.961,16.682c-2.076,6.867,0.152,12.889,2.425,19.943c2.282,7.08-1.496,11.453-0.556,18.179          c1.307,9.345,13.715,20.188,23.79,14.834c11.396-6.056,6.267-16.734,7.847-26.483c1.533-9.458,11.237-14.354,7.438-25.591          c-1.488-4.403-3.641-8.143-4.224-12.788c-0.905-7.213,3.56-13.092,3.481-20.326          C380.077,97.648,376.054,88.035,362.496,88.044z"/>
								<path d="M359.905,192.438c-2.338,0-4.771-0.614-7.172-1.839c-5.912-3.017-10.6-9.118-11.399-14.839          c-0.426-3.045,0.089-5.621,0.586-8.112c0.631-3.159,1.227-6.143-0.011-9.983l-0.405-1.251          c-2.157-6.644-4.021-12.382-2.022-18.989c0.788-2.607,2.641-4.866,4.433-7.051c2.465-3.004,4.793-5.843,4.509-9.448          c-0.197-2.487-0.853-4.845-1.486-7.124c-0.995-3.579-2.024-7.28-1.249-11.472c1.021-5.519,4.561-14.778,16.809-14.786l0,0          c0.005,0,0.013,0,0.019,0c13.237,0,18.054,9.187,18.147,17.787c0.037,3.419-0.919,6.548-1.844,9.573          c-1.088,3.559-2.115,6.921-1.642,10.696c0.385,3.069,1.463,5.718,2.605,8.522c0.545,1.338,1.107,2.722,1.597,4.168          c2.405,7.113-0.492,11.862-3.294,16.455c-1.744,2.858-3.548,5.815-4.125,9.376c-0.449,2.776-0.344,5.674-0.242,8.477          c0.25,6.844,0.508,13.921-7.862,18.368C364.006,191.948,361.994,192.438,359.905,192.438z M362.496,88.544          c-11.522,0.008-14.861,8.755-15.826,13.968c-0.732,3.965,0.221,7.393,1.23,11.022c0.647,2.325,1.315,4.729,1.52,7.313          c0.317,4.007-2.25,7.136-4.732,10.161c-1.729,2.108-3.518,4.289-4.249,6.705c-1.907,6.308-0.089,11.907,2.017,18.392          l0.405,1.253c1.318,4.088,0.669,7.341,0.04,10.486c-0.48,2.409-0.978,4.901-0.576,7.777          c0.745,5.331,5.315,11.256,10.864,14.087c4.244,2.165,8.576,2.3,12.197,0.375c7.816-4.154,7.581-10.612,7.332-17.449          c-0.104-2.851-0.211-5.799,0.255-8.673c0.608-3.754,2.464-6.796,4.258-9.736c2.806-4.6,5.456-8.943,3.2-15.614          c-0.479-1.418-1.037-2.787-1.575-4.111c-1.167-2.867-2.27-5.575-2.671-8.774c-0.5-3.988,0.607-7.61,1.678-11.114          c0.902-2.952,1.836-6.005,1.8-9.269c-0.043-3.942-1.408-16.799-17.147-16.799C362.508,88.544,362.502,88.544,362.496,88.544          L362.496,88.544z"/>
							</g>
							<g>
								<path style="fill:#FFFFFF;" d="M373.473,164.039c-1.578,9.747,3.554,20.433-7.85,26.483          c-3.244,1.727-6.746,1.784-10.054,0.735c1.425-0.159,2.824-0.601,4.197-1.328c11.404-6.05,6.272-16.735,7.85-26.482          c1.529-9.449,11.238-14.351,7.429-25.595c-1.498-4.391-3.643-8.134-4.216-12.778c-0.911-7.209,3.563-13.094,3.477-20.327          c-0.082-6.541-2.999-14.471-12.217-16.68c0.125-0.031,0.275-0.016,0.4-0.024c13.56-0.013,17.586,9.609,17.674,17.297          c0.086,7.233-4.388,13.119-3.477,20.327c0.574,4.644,2.719,8.387,4.217,12.778          C384.711,149.687,375.003,154.589,373.473,164.039z"/>
								<path d="M359.875,192.449c-1.455,0-2.949-0.238-4.458-0.716l-2.248-0.712l2.344-0.262c1.356-0.151,2.709-0.58,4.02-1.273          c7.822-4.149,7.586-10.609,7.336-17.449c-0.104-2.851-0.212-5.798,0.254-8.671c0.606-3.749,2.46-6.788,4.252-9.728          c2.807-4.602,5.458-8.95,3.196-15.627c-0.474-1.391-1.022-2.737-1.553-4.039c-1.177-2.888-2.288-5.615-2.686-8.838          c-0.504-3.983,0.603-7.606,1.675-11.109c0.903-2.955,1.837-6.01,1.799-9.273c-0.04-3.145-1.011-13.607-11.833-16.199          l-1.987-0.476l1.983-0.496c0.141-0.035,0.275-0.035,0.384-0.036l0.103-0.002c0.01,0,0.022,0,0.032,0          c13.261,0,18.077,9.187,18.176,17.789c0.041,3.42-0.916,6.551-1.842,9.579c-1.088,3.559-2.115,6.92-1.639,10.692          c0.382,3.095,1.47,5.763,2.621,8.588c0.535,1.314,1.089,2.673,1.573,4.091c2.411,7.12-0.487,11.873-3.29,16.469          c-1.742,2.857-3.544,5.812-4.12,9.368l0,0c-0.449,2.775-0.343,5.672-0.241,8.475c0.25,6.846,0.509,13.926-7.867,18.369          C364,191.951,361.979,192.449,359.875,192.449z M357.831,191.283c2.681,0.428,5.259,0.021,7.557-1.203          c7.824-4.15,7.588-10.61,7.338-17.45c-0.103-2.851-0.212-5.798,0.254-8.671c0.606-3.749,2.46-6.789,4.253-9.729          c2.807-4.602,5.457-8.95,3.196-15.627c-0.474-1.389-1.022-2.733-1.552-4.034c-1.178-2.889-2.289-5.617-2.688-8.842          c-0.504-3.983,0.604-7.605,1.675-11.109c0.902-2.954,1.837-6.01,1.798-9.274c-0.042-3.677-1.239-15.105-14.152-16.633          c8.428,3.877,9.258,13.052,9.296,16.028c0.04,3.42-0.917,6.551-1.843,9.578c-1.088,3.56-2.115,6.921-1.639,10.693          c0.382,3.093,1.469,5.761,2.619,8.584c0.536,1.316,1.09,2.677,1.574,4.096c2.411,7.12-0.486,11.872-3.289,16.469          c-1.743,2.857-3.544,5.812-4.12,9.367c-0.449,2.775-0.343,5.672-0.241,8.475c0.251,6.846,0.509,13.926-7.867,18.369          C359.289,190.747,358.564,191.052,357.831,191.283z"/>
							</g>
						</g>
					</g>
				</g>
				<g>
					<g>
						<path d="M401.731,248.832c-4.08,5.901-9.498,9.898-16.699,9.51c-7.001-0.366-11.599-4.722-14.58-10.82l0.002-0.019        c-7.814-15.969-4.595-43.92-4.595-43.92l15.358,1.081l19.211,1.362l13.349,0.95        C413.776,206.975,412.022,233.983,401.731,248.832z"/>
						<path d="M385.99,258.868c-0.326,0-0.653-0.009-0.984-0.027c-6.521-0.341-11.569-4.075-15.002-11.1l-0.062-0.128l0.002-0.021        c-7.709-15.938-4.613-43.788-4.581-44.068l0.055-0.475l48.892,3.462l-0.032,0.496c-0.018,0.271-1.883,27.317-12.134,42.109        C397.666,255.591,392.237,258.868,385.99,258.868z M370.964,247.429c3.26,6.592,8.001,10.095,14.095,10.414        c6.29,0.341,11.763-2.787,16.261-9.295v-0.001c9.333-13.465,11.615-37.371,11.92-41.108l-46.934-3.323        c-0.371,3.745-2.509,28.645,4.598,43.167l0.062,0.128L370.964,247.429z"/>
					</g>
					<g>
						<path style="fill:#FFB2B0;" d="M401.854,247.764c-4.144,6.459-9.609,10.862-16.814,10.511        c-7.005-0.329-11.564-5.021-14.487-11.625l0.003-0.021c1.086-9.434,8.958-16.276,17.568-15.299        C395.974,232.221,401.752,239.34,401.854,247.764z"/>
						<path d="M385.839,258.794c-0.273,0-0.547-0.007-0.823-0.021c-6.535-0.306-11.556-4.316-14.92-11.921l-0.053-0.118l0.012-0.129        c1.119-9.719,9.247-16.761,18.125-15.772c7.974,0.905,14.067,8.182,14.174,16.926l0.002,0.15l-0.081,0.126        C397.692,255.178,392.166,258.794,385.839,258.794z M371.066,246.571c3.197,7.148,7.906,10.918,13.998,11.204        c6.261,0.277,11.731-3.111,16.288-10.154c-0.167-8.175-5.855-14.951-13.285-15.794        C379.762,230.872,372.167,237.493,371.066,246.571z"/>
					</g>
				</g>
				<g>
					<g>
						<path style="fill:#FFB500;" d="M365.458,194.865c1.686,3.081,5.441,10.93,4.644,21.413        c-0.848,11.149-6.342,18.66-8.529,21.358"/>
						<path d="M361.962,237.951l-0.777-0.629c2.809-3.467,7.638-10.814,8.418-21.082c0.705-9.256-2.103-16.602-4.583-21.135        l0.877-0.48c2.545,4.652,5.427,12.191,4.704,21.691C369.799,226.854,364.844,234.395,361.962,237.951z"/>
					</g>
					<g>
						<path style="fill:#FFB500;" d="M415.79,197.378c-1.847,2.984-6.011,10.615-5.769,21.127        c0.258,11.179,5.347,18.981,7.388,21.796"/>
						<path d="M417.005,240.595c-2.69-3.71-7.239-11.511-7.483-22.077c-0.221-9.527,3.056-16.897,5.844-21.401l0.85,0.525        c-2.716,4.39-5.908,11.57-5.693,20.852c0.237,10.296,4.671,17.898,7.292,21.513L417.005,240.595z"/>
					</g>
				</g>
				<g>
					<path style="fill:#FF8806;" d="M399.342,185.515c0.16,4.168-3.266,7.67-7.653,7.822c-4.386,0.152-8.072-3.104-8.232-7.271       c-0.16-4.168,3.266-7.67,7.653-7.822C395.496,178.092,399.182,181.348,399.342,185.515z"/>
					<path d="M391.395,193.842c-4.517,0.001-8.272-3.42-8.439-7.757c-0.079-2.077,0.674-4.078,2.119-5.633       c1.548-1.665,3.685-2.627,6.017-2.708c0.104-0.003,0.209-0.005,0.311-0.005c4.518,0,8.272,3.42,8.438,7.757l0,0       c0.079,2.077-0.673,4.078-2.117,5.633c-1.548,1.665-3.686,2.627-6.018,2.708C391.602,193.84,391.498,193.842,391.395,193.842z        M391.404,178.739c-0.092,0-0.184,0.001-0.276,0.005c-2.064,0.071-3.954,0.92-5.319,2.389       c-1.264,1.359-1.921,3.105-1.852,4.913c0.148,3.887,3.602,6.948,7.715,6.791c2.065-0.071,3.954-0.92,5.32-2.389       c1.263-1.359,1.92-3.104,1.85-4.913l0,0C398.697,181.735,395.386,178.739,391.404,178.739z"/>
				</g>
			</g>
		</g>
		<g>
			<g>
				<g>
					<g>
						<path style="fill:#FF8806;" d="M208.07,494.989c-0.25,3.542-2.698,6.548-6.121,7.49c-12.871,3.544-29.108,6.787-48.005,7.792        c-19.055,1.013-35.667-0.525-48.913-2.718c-3.489-0.578-6.232-3.292-6.864-6.771L76.415,381.156        c-5.16-3.814-21.909-17.192-28.086-41.469c-7.771-30.542,7.188-54.77,9.835-58.903l165.637-8.681        c4.209,7.398,12.752,24.762,12.074,48.183c-0.809,27.933-14.232,47.121-19.261,53.647        C213.766,414.284,210.918,454.637,208.07,494.989z"/>
						<path d="M141.983,511.088c-12.4,0-24.81-1.017-37.034-3.042c-3.682-0.61-6.604-3.493-7.274-7.175L75.958,381.439        c-8.147-6.058-22.466-19.431-28.113-41.63c-7.405-29.106,5.704-52.744,9.898-59.296l0.139-0.217l0.256-0.013l165.945-8.697        l0.152,0.268c5.879,10.333,12.756,27.125,12.14,48.445c-0.752,25.932-12.353,44.806-19.273,53.817l-8.533,120.906        c-0.266,3.752-2.872,6.941-6.487,7.938c-15.684,4.318-31.871,6.945-48.111,7.808        C149.981,510.981,145.981,511.088,141.983,511.088z M58.448,281.268c-4.28,6.757-16.86,29.89-9.634,58.295        c5.608,22.044,19.887,35.269,27.898,41.19l0.159,0.118l0.036,0.194l21.751,119.626c0.594,3.267,3.188,5.827,6.454,6.368        c16.095,2.664,32.514,3.575,48.805,2.712c16.169-0.859,32.284-3.475,47.898-7.774c3.207-0.883,5.52-3.713,5.755-7.043        l0.499,0.035l-0.499-0.035l8.555-121.207l0.092-0.12c6.835-8.867,18.412-27.59,19.158-53.355        c0.606-20.904-6.076-37.41-11.856-47.653L58.448,281.268z"/>
					</g>
					<g>
						<path style="fill:#FFB500;" d="M197.236,485.923c-0.231,3.275-2.283,6.02-5.13,6.84c-10.709,3.083-24.209,5.836-39.904,6.476        c-15.825,0.645-29.607-1.034-40.589-3.267c-2.893-0.588-5.152-3.143-5.654-6.374L88.681,378.523        c-4.259-3.61-21.533-15.895-26.502-38.464c-6.252-28.393,1.186-51.424,3.41-55.209l149.655-6.515        c3.446,6.913,9.79,22.781,9.074,44.452c-0.854,25.846-17.477,41.675-21.695,47.638        C199.997,407.736,199.864,448.612,197.236,485.923z"/>
						<path d="M145.382,499.877c-11.342,0-22.703-1.145-33.868-3.416c-3.084-0.627-5.516-3.354-6.05-6.786l-17.249-110.89        c-0.334-0.279-0.736-0.605-1.198-0.979c-5.673-4.598-20.741-16.812-25.327-37.64c-6.489-29.469,1.693-52.549,3.469-55.569        l0.138-0.234l0.271-0.013l149.979-6.528l0.145,0.291c3.714,7.451,9.838,23.166,9.127,44.69        c-0.729,22.06-12.681,36.663-19.102,44.508c-1.055,1.288-1.971,2.408-2.605,3.29c-1.307,18.603-2.006,38.417-2.683,57.58        c-0.679,19.228-1.381,39.109-2.695,57.777c-0.245,3.483-2.452,6.411-5.49,7.285c-13.059,3.76-26.524,5.944-40.022,6.495        C149.945,499.831,147.664,499.877,145.382,499.877z M65.891,285.337c-1.975,3.775-9.498,26.124-3.225,54.614        c4.511,20.485,19.382,32.54,24.98,37.078c0.536,0.434,0.993,0.805,1.356,1.112l0.143,0.121l0.028,0.184l17.278,111.074        c0.471,3.021,2.584,5.416,5.261,5.96c13.332,2.713,26.951,3.814,40.468,3.258c13.419-0.547,26.805-2.719,39.786-6.456        c2.638-0.759,4.554-3.328,4.77-6.395l0,0c1.313-18.65,2.016-38.523,2.694-57.742c0.678-19.221,1.38-39.095,2.693-57.756        l0.01-0.14l0.081-0.114c0.655-0.927,1.616-2.1,2.729-3.459c6.346-7.753,18.158-22.185,18.875-43.907        c0.695-21.029-5.194-36.441-8.878-43.921L65.891,285.337z"/>
					</g>
					<g>
						<g>
							<path style="fill:#FFFFFF;" d="M135.047,445.73c-1.066,0-2.082-0.39-2.881-1.108c-0.855-0.771-1.36-1.829-1.421-2.98         c-0.061-1.151,0.331-2.256,1.102-3.112c0.771-0.856,1.83-1.361,2.98-1.422c2.376-0.136,4.409,1.707,4.533,4.082         c0.125,2.375-1.706,4.409-4.082,4.533C135.202,445.728,135.124,445.73,135.047,445.73z M135.054,438.103         c-0.058,0-0.116,0.001-0.174,0.004c-0.884,0.047-1.697,0.435-2.29,1.093c-0.592,0.657-0.893,1.507-0.847,2.391         c0.047,0.884,0.434,1.697,1.093,2.289c0.657,0.593,1.508,0.89,2.39,0.847c0.884-0.047,1.697-0.435,2.29-1.092         c0.592-0.658,0.893-1.507,0.847-2.391C138.27,439.478,136.803,438.103,135.054,438.103z"/>
						</g>
						<g>
							<path style="fill:#FFFFFF;" d="M186.284,457.301c-1.817,0-3.341-1.428-3.436-3.263c-0.1-1.896,1.362-3.52,3.258-3.619         c1.902-0.124,3.52,1.363,3.619,3.258l0,0c0.1,1.897-1.362,3.521-3.258,3.619C186.405,457.3,186.344,457.301,186.284,457.301z          M186.287,451.414c-0.043,0-0.086,0.001-0.129,0.003c-1.346,0.071-2.383,1.224-2.312,2.568         c0.07,1.346,1.241,2.382,2.568,2.312c1.346-0.07,2.383-1.223,2.312-2.568l0,0         C188.657,452.428,187.576,451.414,186.287,451.414z"/>
						</g>
						<g>
							<path style="fill:#FFFFFF;" d="M177.859,409.449c-2.275,0-4.185-1.788-4.305-4.087c-0.125-2.376,1.706-4.41,4.081-4.534         c2.372-0.121,4.41,1.707,4.534,4.082c0.125,2.375-1.706,4.409-4.082,4.533C178.01,409.447,177.934,409.449,177.859,409.449z          M177.862,401.822c-0.058,0-0.116,0.001-0.174,0.004c-0.884,0.047-1.697,0.435-2.289,1.093         c-0.592,0.657-0.893,1.507-0.847,2.391c0.047,0.884,0.435,1.697,1.092,2.289c0.657,0.593,1.508,0.891,2.391,0.847         c0.884-0.047,1.697-0.435,2.29-1.092c0.592-0.658,0.893-1.507,0.847-2.391C181.079,403.197,179.611,401.822,177.862,401.822z         "/>
						</g>
						<g>
							<path style="fill:#FFFFFF;" d="M196.831,317.673c-2.276,0-4.185-1.789-4.305-4.088c-0.061-1.15,0.331-2.256,1.102-3.112         c0.771-0.855,1.829-1.36,2.98-1.421c1.143-0.062,2.256,0.331,3.112,1.102c0.857,0.772,1.361,1.83,1.422,2.98l0,0         c0.124,2.375-1.708,4.409-4.082,4.533C196.983,317.671,196.906,317.673,196.831,317.673z M196.837,310.046         c-0.06,0-0.118,0.001-0.178,0.004c-0.884,0.047-1.697,0.435-2.289,1.093c-0.592,0.657-0.893,1.506-0.847,2.39         c0.047,0.884,0.435,1.697,1.092,2.29c0.658,0.593,1.512,0.886,2.391,0.847c1.824-0.096,3.231-1.658,3.137-3.482l0,0         c-0.047-0.884-0.435-1.697-1.093-2.29C198.437,310.345,197.657,310.046,196.837,310.046z"/>
						</g>
						<g>
							<path style="fill:#FFFFFF;" d="M172.682,438.837c-0.738,0-1.441-0.27-1.995-0.768c-0.593-0.534-0.942-1.268-0.983-2.065         c-0.042-0.797,0.229-1.562,0.763-2.155c0.534-0.593,1.268-0.942,2.064-0.984c1.631-0.08,3.053,1.182,3.14,2.827         c0.042,0.797-0.229,1.562-0.763,2.156c-0.534,0.593-1.268,0.942-2.064,0.983C172.79,438.835,172.736,438.837,172.682,438.837         z M172.69,433.86c-0.035,0-0.07,0.001-0.106,0.003c-0.531,0.028-1.019,0.261-1.374,0.655         c-0.356,0.395-0.535,0.903-0.508,1.434c0.028,0.53,0.261,1.019,0.655,1.374c0.394,0.354,0.887,0.532,1.434,0.508         c0.53-0.028,1.019-0.261,1.374-0.655c0.355-0.395,0.535-0.903,0.508-1.434c-0.028-0.53-0.261-1.019-0.655-1.374         C173.649,434.04,173.181,433.86,172.69,433.86z"/>
						</g>
						<g>
							<path style="fill:#FFFFFF;" d="M198.495,356.22c-0.738,0-1.441-0.27-1.995-0.768c-0.593-0.534-0.942-1.268-0.983-2.064         c-0.087-1.645,1.182-3.054,2.827-3.14c1.624-0.096,3.053,1.181,3.14,2.827c0.042,0.797-0.229,1.562-0.763,2.156         c-0.534,0.593-1.268,0.942-2.064,0.983C198.602,356.218,198.548,356.22,198.495,356.22z M198.502,351.243         c-0.035,0-0.07,0.001-0.106,0.003c-0.53,0.028-1.019,0.261-1.374,0.655c-0.356,0.395-0.535,0.903-0.508,1.434         c0.028,0.531,0.261,1.019,0.655,1.374c0.394,0.354,0.892,0.532,1.434,0.508c0.53-0.028,1.019-0.261,1.374-0.655         c0.355-0.395,0.535-0.903,0.508-1.434c-0.028-0.53-0.261-1.019-0.655-1.374C199.461,351.423,198.994,351.243,198.502,351.243         z"/>
						</g>
						<g>
							<path style="fill:#FFFFFF;" d="M72.288,325.146c-1.577,0.001-2.899-1.239-2.983-2.831c-0.086-1.646,1.183-3.055,2.827-3.14         c0.79-0.042,1.562,0.228,2.156,0.763c0.593,0.534,0.942,1.267,0.983,2.063l0,0c0.042,0.797-0.229,1.562-0.763,2.156         c-0.533,0.593-1.267,0.942-2.063,0.984C72.392,325.145,72.34,325.146,72.288,325.146z M72.29,320.17         c-0.035,0-0.07,0.001-0.106,0.003c-0.53,0.028-1.018,0.261-1.373,0.655c-0.355,0.395-0.536,0.903-0.509,1.434         c0.058,1.094,1.017,1.935,2.09,1.882c1.095-0.058,1.938-0.995,1.881-2.09l0,0c-0.028-0.53-0.261-1.018-0.655-1.373         C73.25,320.35,72.783,320.17,72.29,320.17z"/>
						</g>
						<g>
							<path style="fill:#FFFFFF;" d="M156.598,312.139c-1.575,0-2.896-1.239-2.98-2.832c-0.087-1.645,1.182-3.054,2.827-3.14         c0.795-0.045,1.562,0.229,2.156,0.763c0.593,0.534,0.942,1.268,0.983,2.065c0.087,1.645-1.182,3.054-2.827,3.14         C156.705,312.137,156.651,312.139,156.598,312.139z M156.604,307.162c-0.035,0-0.07,0.001-0.106,0.003         c-0.53,0.028-1.019,0.261-1.374,0.655c-0.355,0.395-0.535,0.903-0.508,1.434c0.028,0.53,0.261,1.018,0.655,1.374         c0.395,0.354,0.895,0.536,1.434,0.508c0.53-0.028,1.019-0.261,1.374-0.655c0.355-0.395,0.535-0.903,0.508-1.434l0,0         c-0.028-0.53-0.261-1.019-0.655-1.374C157.564,307.342,157.096,307.162,156.604,307.162z"/>
						</g>
						<g>
							<path style="fill:#FFFFFF;" d="M113.047,466.318c-1.577,0-2.899-1.239-2.983-2.831c-0.042-0.798,0.229-1.562,0.764-2.156         c0.534-0.593,1.267-0.942,2.063-0.983c0.789-0.046,1.562,0.229,2.156,0.763c0.593,0.533,0.942,1.267,0.984,2.064l0,0         c0.086,1.646-1.183,3.055-2.827,3.141C113.152,466.317,113.1,466.318,113.047,466.318z M113.049,461.343         c-0.035,0-0.07,0.001-0.105,0.003c-0.53,0.028-1.018,0.261-1.373,0.655c-0.355,0.395-0.536,0.903-0.509,1.434         c0.058,1.094,1.015,1.928,2.09,1.882c1.095-0.058,1.938-0.995,1.882-2.09C114.977,462.167,114.098,461.343,113.049,461.343z"/>
						</g>
						<g>
							<path style="fill:#FFFFFF;" d="M104.591,429.037c-1.576,0-2.897-1.239-2.981-2.832c-0.086-1.645,1.183-3.054,2.827-3.14         c0.791-0.045,1.562,0.229,2.156,0.763c0.593,0.534,0.942,1.268,0.984,2.064l0,0c0.086,1.645-1.183,3.054-2.827,3.14         C104.697,429.035,104.644,429.037,104.591,429.037z M104.596,424.06c-0.035,0-0.07,0.001-0.106,0.003         c-1.095,0.058-1.939,0.995-1.882,2.089c0.058,1.095,0.991,1.932,2.09,1.882c1.094-0.058,1.938-0.995,1.882-2.089l0,0         c-0.028-0.53-0.261-1.019-0.655-1.374C105.556,424.24,105.087,424.06,104.596,424.06z"/>
						</g>
						<g>
							<path style="fill:#FFFFFF;" d="M89.417,361.016c-2.276,0.001-4.185-1.789-4.305-4.088c-0.125-2.375,1.706-4.409,4.081-4.533         c1.142-0.059,2.256,0.331,3.112,1.102c0.856,0.771,1.361,1.83,1.422,2.98l0,0c0.061,1.15-0.331,2.256-1.102,3.112         c-0.771,0.857-1.83,1.36-2.98,1.421C89.57,361.014,89.493,361.016,89.417,361.016z M89.424,353.389         c-0.059,0-0.118,0.001-0.178,0.004c-1.824,0.096-3.231,1.658-3.136,3.483c0.047,0.884,0.435,1.697,1.092,2.29         c0.658,0.593,1.511,0.891,2.391,0.847c0.884-0.047,1.697-0.435,2.29-1.093c0.592-0.657,0.893-1.506,0.847-2.39l0,0         c-0.047-0.884-0.435-1.697-1.093-2.29C91.024,353.688,90.244,353.389,89.424,353.389z"/>
						</g>
						<g>
							<path style="fill:#FFFFFF;" d="M152.337,455.104c-0.671,0.138-0.458,1.182,0.215,1.043         C153.223,456.009,153.009,454.966,152.337,455.104z"/>
						</g>
						<g>
							<path style="fill:#FFFFFF;" d="M135.087,351.797c-0.671,0.138-0.458,1.182,0.215,1.043         C135.973,352.702,135.759,351.659,135.087,351.797z"/>
						</g>
						<g>
							<path style="fill:#FFFFFF;" d="M118.083,313.581c-0.672,0.138-0.458,1.182,0.215,1.043         C118.969,314.487,118.755,313.443,118.083,313.581z"/>
						</g>
						<g>
							<path style="fill:#FFFFFF;" d="M207.015,332.72c-0.671,0.138-0.458,1.182,0.215,1.043         C207.901,333.625,207.687,332.582,207.015,332.72z"/>
						</g>
						<g>
							<path style="fill:#FFFFFF;" d="M77.072,339.795c-0.672,0.138-0.458,1.182,0.215,1.043         C77.958,340.701,77.745,339.657,77.072,339.795z"/>
						</g>
					</g>
					<g>
						<g>
							
								<rect x="119.205" y="472.756" transform="matrix(0.9912 -0.1327 0.1327 0.9912 -62.9895 20.1489)" width="0.999" height="19.999"/>
						</g>
						<g>
							
								<rect x="152.324" y="472.446" transform="matrix(0.9978 -0.0669 0.0669 0.9978 -31.9302 11.2975)" width="1" height="20.508"/>
						</g>
						<g>
							
								<rect x="174.173" y="478.723" transform="matrix(0.0215 -0.9998 0.9998 0.0215 -298.7603 653.1935)" width="20.281" height="1"/>
						</g>
					</g>
				</g>
				<g>
					<g>
						<g>
							<path style="fill:#FFFFFF;" d="M232.488,266.151c-0.459-10.735-6.457-23.787-24.813-22.009         c5.917-14.002-11.324-25.417-21.973-15.355c-2.124-29.562-53.792-38.863-66.635-7.379         c-19.527-22.424-62.386,1.533-46.812,32.193c-2.779-1.238-5.854-1.98-9.101-2.097c-12.87-0.466-23.554,9.036-23.864,21.222         c-0.31,12.187,9.873,22.444,22.743,22.91c0.485,0.018,0.966,0.016,1.444,0.006l0.204,2.534         c0.311,3.871,3.872,6.815,7.955,6.575c4.082-0.24,7.139-3.572,6.828-7.443l-0.208-2.591l5.661-0.14l1.057,13.154         c0.311,3.871,3.872,6.815,7.955,6.575c4.082-0.24,7.139-3.572,6.828-7.443l-0.707-8.797c-0.16-1.994,1.476-3.626,3.389-3.381         c0.559,0.814,4.842,6.838,12.556,7.384c6.626,0.469,11.114-3.436,11.996-4.237c0.318-0.002,1.994,0.022,3.371,1.419         c0.873,0.885,1.424,2.112,1.444,3.467l0.393,26.812c0.057,3.886,2.579,7.396,6.23,8.285c4.646,1.131,8.652-2.338,8.583-7.012         l-0.49-33.378c-0.034-2.305,2.002-5.734,3.832-4.48c11.712,8.023,19.842-0.496,19.842-0.496         c1.622,1.194,6.691,4.604,13.901,4.47c7.377-0.137,12.346-3.898,13.875-5.156l0.059,1.675         c0.136,3.878,3.563,6.961,7.655,6.887c4.092-0.074,7.299-3.277,7.163-7.155c-0.036-1.017,1.056-4.94,1.563-5.237         c1.73-1.013,3.662-1.493,5.391-2.462c3.121-1.75,6.019-4.008,8.303-6.839C230.917,275.147,232.685,270.767,232.488,266.151z"/>
							<path d="M140.171,338.526c-0.615,0-1.239-0.074-1.861-0.227c-3.831-0.933-6.55-4.536-6.612-8.763l-0.393-26.812         c-0.018-1.181-0.479-2.29-1.301-3.123c-1.034-1.05-2.271-1.237-2.828-1.266c-1.724,1.521-6.086,4.659-12.218,4.231         c-7.367-0.52-11.709-5.886-12.796-7.404c-0.666-0.04-1.311,0.217-1.803,0.686c-0.583,0.557-0.88,1.35-0.813,2.177         l0.707,8.797c0.156,1.939-0.471,3.826-1.765,5.312c-1.386,1.594-3.351,2.542-5.533,2.67c-4.342,0.267-8.15-2.901-8.481-7.034         l-1.02-12.682l-4.659,0.114l0.165,2.064c0.156,1.94-0.471,3.826-1.765,5.314c-1.386,1.593-3.351,2.541-5.532,2.669         c-4.321,0.254-8.151-2.901-8.482-7.034l-0.166-2.067c-0.334,0.005-0.666,0-1.002-0.013         c-13.122-0.476-23.54-10.982-23.225-23.422c0.147-5.802,2.604-11.23,6.92-15.287c4.658-4.381,10.865-6.652,17.463-6.423         c2.787,0.1,5.491,0.649,8.058,1.633c-7.299-15.757,0.744-28.569,10.059-34.849c10.863-7.324,27.146-8.67,37.625,2.7         c4.772-10.841,17.499-21.984,38.327-18.662c13.315,2.118,27.229,10.941,28.87,25.93c5.677-4.736,12.633-3.81,17.168-0.663         c4.191,2.91,7.952,8.922,5.159,16.482c7.003-0.52,12.699,1.078,16.942,4.768c6.188,5.381,7.423,13.454,7.608,17.787         c0.189,4.439-1.406,8.99-4.494,12.816c-2.176,2.697-5.019,5.039-8.447,6.961c-0.861,0.482-1.773,0.849-2.654,1.203         c-0.916,0.367-1.864,0.748-2.727,1.254c-0.316,0.347-1.351,3.82-1.316,4.788c0.067,1.94-0.643,3.798-2,5.228         c-1.457,1.536-3.465,2.404-5.653,2.443c-4.337,0.073-8.018-3.228-8.164-7.369l-0.023-0.691         c-2.558,1.918-7.174,4.539-13.401,4.654c-0.142,0.003-0.283,0.004-0.423,0.004c-6.278,0-10.994-2.594-13.445-4.328         c-1.653,1.473-9.543,7.541-20.166,0.262c-0.335-0.229-0.667-0.24-1.045-0.036c-1.034,0.555-2.027,2.584-2.005,4.097         l0.489,33.378c0.036,2.463-0.992,4.713-2.821,6.171C143.406,337.989,141.823,338.526,140.171,338.526z M127.008,297.332         c0.536,0,2.282,0.121,3.709,1.568c1.002,1.017,1.566,2.369,1.588,3.809l0.393,26.812c0.055,3.712,2.515,6.995,5.849,7.808         c2.02,0.491,3.979,0.084,5.52-1.146c1.585-1.265,2.476-3.224,2.444-5.375l-0.489-33.378         c-0.025-1.705,1.009-4.175,2.532-4.992c0.704-0.379,1.443-0.347,2.082,0.093c11.234,7.693,19.119-0.348,19.199-0.429         l0.304-0.319l0.355,0.262c2.239,1.649,6.895,4.377,13.189,4.377c0.134,0,0.269-0.001,0.405-0.004         c6.623-0.123,11.343-3.211,13.566-5.041l0.781-0.643l0.095,2.686c0.124,3.558,3.257,6.405,7.012,6.405         c0.045,0,0.089,0,0.135-0.001c1.918-0.034,3.675-0.791,4.945-2.131c1.172-1.235,1.784-2.835,1.726-4.506         c-0.031-0.922,0.994-5.208,1.811-5.687c0.928-0.543,1.91-0.938,2.861-1.319c0.891-0.357,1.732-0.695,2.538-1.148         c3.316-1.858,6.062-4.118,8.158-6.716c2.934-3.637,4.451-7.95,4.271-12.146c-0.178-4.173-1.359-11.94-7.265-17.075         c-4.19-3.645-9.912-5.145-17.001-4.457l-0.835,0.081l0.326-0.773c3.112-7.365-0.482-13.24-4.506-16.033         c-4.406-3.058-11.266-3.863-16.662,1.235l-0.767,0.725l-0.076-1.052c-1.081-15.049-14.902-23.907-28.12-26.01         c-20.725-3.297-33.179,8.058-37.554,18.783l-0.307,0.752l-0.533-0.612c-10.07-11.564-26.158-10.323-36.843-3.119         c-9.21,6.209-17.132,19.038-9.148,34.758l0.639,1.257l-1.287-0.573c-2.809-1.252-5.809-1.943-8.915-2.055         c-6.359-0.247-12.279,1.955-16.742,6.151c-4.118,3.872-6.464,9.052-6.604,14.584c-0.303,11.895,9.684,21.941,22.262,22.397         c0.474,0.019,0.947,0.017,1.414,0.006l0.473-0.011l0.24,3.005c0.288,3.595,3.614,6.349,7.428,6.116         c1.911-0.112,3.629-0.939,4.837-2.327c1.115-1.282,1.656-2.908,1.522-4.577l-0.251-3.118l6.663-0.164l1.094,13.625         c0.289,3.595,3.604,6.35,7.427,6.116c1.911-0.112,3.63-0.94,4.838-2.328c1.115-1.282,1.656-2.907,1.522-4.576l-0.707-8.797         c-0.091-1.129,0.317-2.215,1.119-2.98c0.763-0.727,1.794-1.067,2.832-0.937l0.223,0.028l0.126,0.186         c0.758,1.106,4.906,6.653,12.179,7.167c5.938,0.425,10.108-2.732,11.625-4.107l0.142-0.129l0.191-0.001         C126.994,297.332,127,297.332,127.008,297.332z"/>
						</g>
					</g>
					<g>
						<path style="fill:#FFFFFF;" d="M86.89,274.776c0.11-6.523,5.487-11.721,12.01-11.611c6.523,0.11,11.721,5.487,11.611,12.01"/>
						<path d="M111.011,275.184l-1-0.018c0.106-6.236-4.883-11.396-11.119-11.502c-6.222-0.074-11.396,4.884-11.502,11.12l-1-0.017        c0.113-6.717,5.616-12.104,12.31-12.104c0.069,0,0.14,0.001,0.21,0.002C105.697,262.779,111.126,268.396,111.011,275.184z"/>
					</g>
					<g>
						<g>
							<path style="fill:#FFFFFF;" d="M153.019,248.5c0.031-6.524,5.344-11.788,11.868-11.757         c6.524,0.031,11.787,5.344,11.757,11.868"/>
							<path d="M177.144,248.613l-1-0.004c0.029-6.237-5.021-11.336-11.259-11.366c-0.018,0-0.036,0-0.054,0         c-6.214,0-11.283,5.039-11.312,11.259l-1-0.004c0.031-6.77,5.55-12.255,12.312-12.255c0.02,0,0.038,0,0.058,0         C171.678,236.275,177.175,241.825,177.144,248.613z"/>
						</g>
						<g>
							<path style="fill:#FFFFFF;" d="M176.669,249.051c0.02-4.34,3.555-7.842,7.895-7.822c4.34,0.02,7.842,3.555,7.822,7.895"/>
							<path d="M192.886,249.127l-1-0.004c0.02-4.058-3.267-7.374-7.323-7.394c-0.012,0-0.024,0-0.036,0         c-4.041,0-7.338,3.278-7.357,7.323l-1-0.004c0.021-4.596,3.768-8.319,8.357-8.319c0.014,0,0.027,0,0.04,0         C189.176,240.751,192.908,244.518,192.886,249.127z"/>
						</g>
					</g>
				</g>
			</g>
			<g>
				<g>
					<g>
						<g>
							<g>
								<path style="fill:#FFFFFF;" d="M161.089,377.569c0.339,4.318,3.95,7.164,5.334,11.081c0.308,0.873,0.457,1.758,0.548,2.667          c0.979-0.734,2.061-1.417,3.231-2.007c1.839-0.941,3.869-1.738,6.057-2.309c1.971-0.533,4.077-0.878,6.255-1.048          c4.598-0.341,8.928,0.237,12.655,1.519c0.034-0.342,0.09-0.645,0.125-0.947c0.776-4.087,3.942-7.424,3.645-11.726          c-0.247-3.409-2.544-6.776-3.203-10.092c-0.692-3.493-0.035-6.036,0.736-9.425c1.8-7.794-0.072-11.594-4-18.221          c-2.486-4.249-1.803-7.492-1.218-12.221c0.386-2.96-0.076-6.053-1.218-8.933c-0.25-0.638-0.536-1.253-0.864-1.865          c-2.999-5.704-8.743-10.077-15.751-9.746c-11.099,0.531-14.723,13.292-12.047,22.748c1.276,4.583,2.415,7.683,0.562,12.253          c-2.868,7.141-4.166,11.169-1.271,18.615c1.272,3.249,2.26,5.682,2.118,9.221          C162.629,370.513,160.844,374.181,161.089,377.569z"/>
								<path d="M166.561,392.251l-0.088-0.883c-0.104-1.033-0.265-1.819-0.522-2.552c-0.545-1.543-1.48-2.961-2.384-4.331          c-1.359-2.062-2.767-4.195-2.976-6.877l-0.001-0.003c-0.143-1.968,0.367-4.01,0.861-5.983          c0.394-1.576,0.766-3.065,0.832-4.512c0.133-3.352-0.762-5.637-2.001-8.799l-0.085-0.217          c-2.985-7.681-1.616-11.791,1.273-18.983c1.648-4.061,0.835-6.93-0.289-10.899l-0.291-1.033          c-1.782-6.299-0.781-13.362,2.549-17.991c2.395-3.329,5.838-5.193,9.957-5.39c6.597-0.315,12.807,3.526,16.218,10.013          c0.342,0.639,0.632,1.267,0.887,1.915c1.203,3.034,1.635,6.21,1.248,9.181l-0.142,1.114          c-0.525,4.081-0.904,7.029,1.295,10.789c3.836,6.474,5.917,10.53,4.056,18.586l-0.112,0.492          c-0.703,3.076-1.259,5.506-0.621,8.723c0.28,1.408,0.86,2.814,1.475,4.303c0.783,1.897,1.593,3.859,1.737,5.852          c0.184,2.661-0.889,4.961-1.925,7.186c-0.698,1.499-1.42,3.048-1.727,4.67c-0.01,0.093-0.028,0.221-0.048,0.351          c-0.025,0.176-0.052,0.356-0.07,0.551l-0.061,0.63l-0.6-0.206c-3.78-1.3-8.09-1.819-12.455-1.492          c-2.193,0.172-4.268,0.518-6.161,1.031c-2.062,0.538-4.065,1.302-5.96,2.271c-1.101,0.555-2.162,1.215-3.159,1.963          L166.561,392.251z M161.588,377.532c0.189,2.423,1.464,4.356,2.814,6.402c0.938,1.421,1.906,2.891,2.492,4.55          c0.209,0.592,0.359,1.21,0.469,1.935c0.838-0.58,1.714-1.102,2.614-1.555c1.956-1.002,4.028-1.792,6.155-2.346          c1.949-0.528,4.085-0.886,6.342-1.062c4.283-0.32,8.512,0.15,12.276,1.352l0.047-0.341c0.336-1.778,1.085-3.385,1.809-4.939          c1.028-2.207,1.999-4.291,1.833-6.693c-0.133-1.83-0.911-3.717-1.664-5.541c-0.605-1.467-1.231-2.985-1.53-4.488          c-0.68-3.427-0.104-5.948,0.627-9.141l0.112-0.493c1.779-7.7-0.129-11.418-3.942-17.855          c-2.373-4.057-1.955-7.309-1.426-11.425l0.142-1.112c0.365-2.806-0.045-5.81-1.186-8.688          c-0.24-0.614-0.515-1.207-0.84-1.814c-3.228-6.142-9.101-9.768-15.287-9.482c-3.803,0.183-6.981,1.902-9.192,4.975          c-3.11,4.323-4.074,11.211-2.398,17.138l0.29,1.03c1.134,4.005,2.03,7.168,0.254,11.546          c-2.792,6.95-4.116,10.918-1.269,18.245l0.085,0.217c1.234,3.151,2.21,5.641,2.068,9.205          c-0.071,1.55-0.473,3.157-0.861,4.712C161.947,373.762,161.456,375.724,161.588,377.532z"/>
							</g>
							<g>
								<path d="M173.069,368.957c1.203,3.393,2.138,5.911,2.029,9.607c-0.104,2.998,0.735,5.563,1.16,8.439          c1.971-0.533,4.077-0.878,6.255-1.048c4.598-0.341,8.928,0.237,12.655,1.519c0.034-0.342,0.09-0.645,0.125-0.947          c0.776-4.087,3.942-7.424,3.645-11.726c-0.247-3.409-2.544-6.776-3.203-10.092c-0.692-3.493-0.035-6.036,0.736-9.425          c1.8-7.794-0.072-11.594-4-18.221c-2.486-4.249-1.803-7.492-1.218-12.221c0.386-2.96-0.076-6.053-1.218-8.933          c-0.25-0.638-0.536-1.253-0.864-1.865c-1.54-0.577-3.176-0.847-4.884-0.773c-10.188,0.46-13.394,13.706-10.846,23.57          c1.212,4.788,2.283,8.012,0.622,12.766c-0.65,1.884-1.215,3.563-1.649,5.151l17.825,3.645l-18.255,6.633          C172.239,366.252,172.56,367.542,173.069,368.957z"/>
								<path d="M195.605,388.151l-0.6-0.206c-3.78-1.3-8.09-1.819-12.455-1.492c-2.193,0.172-4.268,0.518-6.161,1.031l-0.543,0.147          l-0.083-0.557c-0.132-0.897-0.309-1.781-0.48-2.636c-0.373-1.861-0.758-3.786-0.686-5.893          c0.104-3.492-0.735-5.858-1.897-9.131l-0.104-0.291c-0.443-1.235-0.784-2.464-1.103-3.985l-0.089-0.425l16.997-6.176          l-16.611-3.396l0.141-0.515c0.453-1.659,1.043-3.398,1.659-5.184c1.483-4.247,0.711-7.247-0.358-11.399l-0.276-1.08          c-1.807-6.998-0.692-14.852,2.773-19.54c2.135-2.888,5.086-4.497,8.535-4.652c1.747-0.08,3.454,0.194,5.082,0.803          l0.177,0.066l0.09,0.167c0.343,0.642,0.633,1.27,0.888,1.918c1.203,3.034,1.635,6.21,1.248,9.181l-0.142,1.114          c-0.525,4.081-0.904,7.029,1.295,10.789c3.836,6.474,5.917,10.53,4.056,18.586l-0.112,0.492          c-0.703,3.076-1.259,5.506-0.621,8.723c0.28,1.408,0.86,2.814,1.475,4.303c0.783,1.897,1.593,3.859,1.737,5.852          c0.184,2.661-0.889,4.961-1.925,7.186c-0.698,1.499-1.42,3.048-1.727,4.67c-0.01,0.093-0.028,0.221-0.048,0.351          c-0.025,0.176-0.052,0.356-0.07,0.55L195.605,388.151z M185.081,385.358c3.38,0,6.672,0.491,9.67,1.449l0.047-0.341          c0.336-1.778,1.085-3.385,1.809-4.939c1.028-2.207,1.999-4.291,1.833-6.693c-0.133-1.83-0.911-3.717-1.664-5.541          c-0.605-1.467-1.231-2.985-1.53-4.488c-0.68-3.427-0.104-5.948,0.627-9.141l0.112-0.493          c1.779-7.7-0.129-11.418-3.942-17.855c-2.373-4.057-1.955-7.309-1.426-11.425l0.142-1.112          c0.365-2.806-0.045-5.81-1.186-8.688c-0.219-0.558-0.465-1.098-0.751-1.647c-1.449-0.517-2.967-0.745-4.511-0.676          c-3.182,0.143-5.798,1.572-7.775,4.248c-3.296,4.459-4.345,11.974-2.608,18.697l0.276,1.078          c1.112,4.323,1.917,7.446,0.334,11.977c-0.546,1.582-1.071,3.129-1.495,4.605l19.034,3.892l-19.511,7.089          c0.283,1.283,0.589,2.355,0.976,3.431l0.001,0.002l0.103,0.29c1.153,3.249,2.063,5.816,1.955,9.498          c-0.069,1.993,0.288,3.777,0.666,5.665c0.139,0.693,0.281,1.406,0.402,2.136c1.806-0.452,3.756-0.763,5.808-0.923          C183.346,385.391,184.216,385.358,185.081,385.358z"/>
							</g>
						</g>
						<g>
							<g>
								<path d="M193.025,335.178c-2.127,0-3.52-0.188-3.567-0.194l0.142-0.99c0.161,0.022,16.006,2.149,22.598-8.47l0.85,0.527          C208.102,334.018,198.303,335.178,193.025,335.178z"/>
							</g>
							<g>
								<path d="M198.268,348.818c-1.113,0-1.788-0.057-1.821-0.06l0.092-0.996c0.159,0.016,16.095,1.343,22.143-9.595l0.875,0.484          C214.451,347.884,202.777,348.818,198.268,348.818z"/>
							</g>
							<g>
								<path d="M201.339,362.397c-2.961,0-5.014-0.365-5.071-0.376l0.184-0.982c0.158,0.028,15.903,2.818,22.933-7.516l0.826,0.562          C215.408,361.146,206.819,362.397,201.339,362.397z"/>
							</g>
						</g>
					</g>
					<g>
						<g>
							<g>
								<path style="fill:#FFFFFF;" d="M99.696,371.893c-0.093,3.395-1.796,7.096-1.47,10.479c0.418,4.312,4.102,7.072,5.543,10.965          c0.327,0.871,0.494,1.735,0.605,2.643c0.977-0.754,2.04-1.435,3.187-2.064c1.816-0.979,3.825-1.795,5.988-2.423          c1.989-0.574,4.089-0.978,6.267-1.169c4.569-0.438,8.933,0.057,12.694,1.257c0.013-0.34,0.05-0.642,0.103-0.965          c0.675-4.099,3.777-7.491,3.4-11.806c-0.326-3.382-2.678-6.706-3.415-9.996c-0.751-3.489-0.155-6.047,0.554-9.45          c1.618-7.84-0.329-11.573-4.371-18.132c-2.562-4.204-1.96-7.46-1.455-12.203c0.327-2.955-0.215-6.042-1.415-8.897          c-0.269-0.637-0.576-1.25-0.923-1.861c-3.112-5.635-8.926-9.883-15.925-9.414c-11.08,0.769-14.459,13.59-11.59,22.991          c1.373,4.556,2.591,7.629,0.822,12.252c-2.725,7.189-3.943,11.231-0.911,18.626C98.732,365.95,99.775,368.34,99.696,371.893          z"/>
								<path d="M103.985,396.912l-0.106-0.871c-0.125-1.017-0.303-1.796-0.577-2.527c-0.571-1.543-1.539-2.946-2.474-4.303          c-1.396-2.026-2.841-4.121-3.1-6.791c-0.189-1.972,0.278-4.032,0.731-6.025c0.358-1.577,0.697-3.067,0.736-4.514          c0.074-3.353-0.866-5.6-2.169-8.709l-0.104-0.251c-3.126-7.623-1.84-11.756,0.904-18.996          c1.568-4.098,0.696-6.939-0.51-10.87l-0.323-1.06c-1.908-6.251-1.053-13.326,2.18-18.023          c2.328-3.385,5.736-5.325,9.854-5.611c6.561-0.436,12.859,3.265,16.396,9.671c0.368,0.645,0.679,1.271,0.947,1.908          c1.275,3.034,1.776,6.196,1.451,9.147l-0.112,1.032c-0.457,4.128-0.786,7.109,1.497,10.857          c4.061,6.588,6.103,10.404,4.434,18.492l-0.084,0.406c-0.653,3.125-1.17,5.593-0.471,8.838          c0.312,1.391,0.919,2.78,1.562,4.251c0.821,1.88,1.671,3.822,1.862,5.803c0.232,2.663-0.789,4.979-1.776,7.219          c-0.669,1.517-1.36,3.084-1.629,4.716c-0.05,0.304-0.084,0.586-0.097,0.904l-0.026,0.655l-0.626-0.199          c-3.836-1.224-8.157-1.652-12.493-1.235c-2.084,0.182-4.16,0.569-6.177,1.151c-2.114,0.614-4.096,1.416-5.889,2.383          c-1.16,0.635-2.182,1.296-3.118,2.018L103.985,396.912z M110.081,309.324c-0.328,0-0.656,0.011-0.986,0.033          c-3.802,0.264-6.948,2.055-9.099,5.18c-3.019,4.388-3.841,11.286-2.046,17.167l0.322,1.058          c1.218,3.968,2.179,7.102,0.488,11.519c-2.651,6.996-3.896,10.987-0.915,18.258l0.104,0.247          c1.299,3.103,2.325,5.553,2.246,9.119v0.003c-0.042,1.545-0.408,3.153-0.762,4.709c-0.435,1.916-0.885,3.896-0.71,5.708          c0.233,2.411,1.542,4.31,2.927,6.318c0.97,1.408,1.973,2.863,2.587,4.522c0.222,0.589,0.385,1.201,0.51,1.917          c0.789-0.561,1.638-1.09,2.573-1.603c1.858-1.002,3.905-1.831,6.088-2.465c2.079-0.6,4.22-0.999,6.363-1.187          c4.245-0.409,8.48-0.028,12.291,1.095c0.016-0.128,0.035-0.256,0.057-0.387c0.289-1.756,1.007-3.383,1.7-4.956          c0.98-2.222,1.905-4.32,1.695-6.724c-0.175-1.817-0.992-3.686-1.783-5.493c-0.634-1.45-1.289-2.949-1.623-4.438          c-0.744-3.456-0.209-6.017,0.469-9.257l0.085-0.404c1.592-7.717-0.383-11.399-4.308-17.768          c-2.462-4.04-2.099-7.327-1.639-11.488l0.112-1.03c0.307-2.783-0.17-5.774-1.379-8.651c-0.253-0.599-0.547-1.19-0.897-1.807          C121.38,312.775,115.903,309.324,110.081,309.324z"/>
							</g>
							<g>
								<path d="M110.007,373.516c1.281,3.367,2.275,5.88,2.245,9.57c-0.045,2.993,0.833,5.535,1.297,8.408          c1.989-0.574,4.089-0.978,6.267-1.169c4.569-0.438,8.933,0.057,12.694,1.257c0.013-0.34,0.05-0.642,0.103-0.965          c0.675-4.099,3.777-7.491,3.4-11.806c-0.326-3.382-2.678-6.706-3.415-9.996c-0.751-3.489-0.155-6.047,0.554-9.45          c1.618-7.84-0.329-11.573-4.371-18.132c-2.562-4.204-1.96-7.46-1.455-12.203c0.327-2.955-0.215-6.042-1.415-8.897          c-0.269-0.637-0.576-1.25-0.923-1.861c-1.535-0.517-3.169-0.768-4.874-0.654c-10.172,0.658-13.115,13.963-10.372,23.772          c1.31,4.76,2.459,7.978,0.879,12.746c-0.607,1.921-1.133,3.596-1.544,5.203l17.915,3.279l-18.125,7.001          C109.139,370.834,109.498,372.101,110.007,373.516z"/>
								<path d="M132.983,392.258l-0.626-0.199c-3.836-1.224-8.157-1.652-12.493-1.235c-2.084,0.182-4.16,0.569-6.177,1.151          l-0.543,0.156l-0.089-0.558c-0.147-0.914-0.342-1.812-0.528-2.68c-0.396-1.834-0.806-3.731-0.774-5.815          c0.027-3.496-0.87-5.857-2.114-9.124l-0.102-0.268c-0.479-1.332-0.859-2.626-1.159-3.956l-0.096-0.421l16.874-6.519          l-16.697-3.056l0.133-0.52c0.426-1.665,0.973-3.396,1.552-5.229c1.409-4.254,0.575-7.235-0.578-11.362l-0.307-1.101          c-1.945-6.959-0.988-14.831,2.384-19.587c2.077-2.929,4.995-4.595,8.438-4.817c1.686-0.113,3.394,0.115,5.066,0.68          l0.18,0.061l0.095,0.166c0.371,0.65,0.682,1.276,0.95,1.913c1.275,3.034,1.776,6.196,1.451,9.147l-0.112,1.032          c-0.457,4.128-0.786,7.109,1.497,10.857c4.061,6.588,6.103,10.404,4.434,18.492l-0.084,0.406          c-0.653,3.125-1.17,5.593-0.471,8.838c0.312,1.391,0.919,2.78,1.562,4.251c0.821,1.88,1.671,3.822,1.862,5.803          c0.232,2.663-0.789,4.979-1.776,7.219c-0.669,1.517-1.36,3.084-1.629,4.716c-0.05,0.304-0.084,0.586-0.097,0.904          L132.983,392.258z M123.082,389.669c3.114,0,6.163,0.423,8.98,1.253c0.016-0.128,0.035-0.256,0.057-0.387          c0.289-1.756,1.007-3.383,1.7-4.956c0.98-2.222,1.905-4.32,1.695-6.724c-0.175-1.817-0.992-3.686-1.783-5.493          c-0.634-1.45-1.289-2.949-1.623-4.438c-0.744-3.456-0.209-6.017,0.469-9.257l0.085-0.404          c1.592-7.717-0.383-11.399-4.308-17.768c-2.462-4.04-2.099-7.327-1.639-11.488l0.112-1.03          c0.307-2.783-0.17-5.774-1.379-8.651c-0.229-0.545-0.493-1.083-0.804-1.64c-1.49-0.478-3.005-0.671-4.5-0.569          c-3.179,0.205-5.765,1.686-7.688,4.397c-3.207,4.523-4.106,12.055-2.236,18.741l0.306,1.099          c1.156,4.136,2.07,7.403,0.566,11.94c-0.513,1.623-1.001,3.17-1.398,4.651l19.128,3.5l-19.373,7.484          c0.274,1.142,0.611,2.263,1.025,3.413l0.098,0.255c1.233,3.243,2.208,5.804,2.179,9.492          c-0.029,1.974,0.35,3.731,0.752,5.593c0.152,0.708,0.309,1.435,0.443,2.181c1.909-0.517,3.865-0.865,5.824-1.036          C120.878,389.721,121.985,389.669,123.082,389.669z"/>
							</g>
						</g>
						<g>
							<g>
								<path d="M88.876,342.798c-4.682,0-10.006-1.155-14.102-5.277l0.709-0.705c8.818,8.871,23.773,3.229,23.923,3.171          l0.361,0.934C99.68,340.953,94.791,342.798,88.876,342.798z"/>
							</g>
							<g>
								<path d="M86.57,357.278c-5.015,0-11.004-1.228-15.306-6.017l0.744-0.668c8.359,9.305,23.58,4.419,23.734,4.37l0.312,0.949          C95.974,355.94,91.803,357.278,86.57,357.278z"/>
							</g>
							<g>
								<path d="M87.252,371.154c-4.389,0-9.237-1.081-13.155-4.706l0.68-0.734c9.172,8.489,23.887,2.232,24.035,2.167l0.399,0.916          C99.12,368.837,93.678,371.154,87.252,371.154z"/>
							</g>
						</g>
					</g>
				</g>
				<g>
					<circle style="fill:#AD2328;" cx="149.344" cy="388.178" r="8.207"/>
					<path d="M149.344,396.886c-4.801,0-8.707-3.906-8.707-8.707c0-4.801,3.906-8.707,8.707-8.707c4.801,0,8.707,3.906,8.707,8.707       C158.051,392.979,154.145,396.886,149.344,396.886z M149.344,380.472c-4.25,0-7.707,3.457-7.707,7.707s3.457,7.707,7.707,7.707       s7.707-3.457,7.707-7.707S153.594,380.472,149.344,380.472z"/>
				</g>
				<g>
					<g id="XMLID_5_">
						<path style="fill:#FFFFFF;" d="M148.382,405.212c-11.224,0.577-19.199-4.668-29.522-4.277        c-5.795,0.22-11.37,1.578-11.462,7.982c-0.168,11.727,8.888,19.604,19.828,24.365c14.129,6.149,30.763,6.676,44.207-0.417        c16.261-8.579,23.334-20.902,21.003-27.785c-2.065-6.097-6.686-7.195-12.475-6.884        C169.65,398.752,158.653,404.685,148.382,405.212z"/>
						<path d="M149.628,438.535c-7.507,0-15.251-1.597-22.602-4.796c-9.287-4.041-20.317-11.63-20.128-24.829        c0.104-7.195,6.865-8.282,11.943-8.475c5.056-0.194,9.46,0.926,14.112,2.108c4.763,1.211,9.691,2.46,15.402,2.169l0,0        c5.082-0.262,10.469-1.899,15.679-3.484c5.256-1.598,10.69-3.251,15.898-3.531c5.121-0.274,10.654,0.367,12.976,7.223        c2.426,7.165-4.857,19.741-21.243,28.387C165.065,436.789,157.477,438.534,149.628,438.535z M119.982,401.414        c-0.365,0-0.731,0.007-1.103,0.021c-7.523,0.283-10.91,2.594-10.98,7.488c-0.182,12.649,10.519,19.979,19.526,23.899        c14.761,6.422,31.125,6.271,43.774-0.401c15.915-8.396,23.055-20.413,20.763-27.182c-2.103-6.205-7.002-6.815-11.974-6.545        c-5.088,0.274-10.464,1.909-15.662,3.49c-5.268,1.602-10.715,3.259-15.919,3.525c-5.867,0.31-10.866-0.969-15.7-2.198        C128.473,402.436,124.455,401.414,119.982,401.414z"/>
					</g>
					<g>
						<path d="M178.712,428.771l-0.969-0.25c2.963-11.492-0.026-22.548-3.056-29.8l0.922-0.385        C178.699,405.729,181.744,417.01,178.712,428.771z"/>
					</g>
					<g>
						<path d="M157.199,437.186l-0.975-0.221c1.267-5.619,1.721-11.387,1.349-17.142c-0.328-5.092-1.306-10.157-2.903-15.054        l0.951-0.311c1.623,4.977,2.616,10.124,2.95,15.3C158.949,425.61,158.488,431.474,157.199,437.186z"/>
					</g>
					<g>
						<path d="M132.504,435.119l-0.963-0.272c0.847-2.989,2.273-8.986,2.316-15.566c0.037-5.525-0.737-11.038-2.301-16.387        l0.959-0.281c1.592,5.442,2.38,11.053,2.342,16.674C134.813,425.986,133.364,432.082,132.504,435.119z"/>
					</g>
				</g>
			</g>
		</g>
	</g>
</g>















</svg>
