<?xml version="1.0" encoding="UTF-8"?>
<!-- Generator: Adobe Illustrator 27.1.1, SVG Export Plug-In . SVG Version: 6.00 Build 0)  -->
<svg xmlns="http://www.w3.org/2000/svg" xmlns:xlink="http://www.w3.org/1999/xlink" version="1.1" id="Capa_1" x="0px" y="0px" viewBox="0 0 511.888 511.888" style="enable-background:new 0 0 511.888 511.888;" xml:space="preserve" width="512" height="512">
<g>
	<g>
		<g>
			<g>
				
					<rect x="134.049" y="-1.429" transform="matrix(0.853 -0.5219 0.5219 0.853 4.9119 77.5869)" style="fill:#FF8806;" width="12.265" height="63.006"/>
			</g>
		</g>
		<g>
			<g>
				
					<rect x="33.52" y="112.768" transform="matrix(0.3412 -0.94 0.94 0.3412 -107.1347 130.6587)" style="fill:#FF8806;" width="12.26" height="57.991"/>
			</g>
		</g>
		<g>
			<g>
				
					<rect x="75.03" y="43.775" transform="matrix(0.6988 -0.7154 0.7154 0.6988 -31.0616 81.4364)" style="fill:#FF8806;" width="12.263" height="67.649"/>
			</g>
		</g>
	</g>
	<g>
		<g>
			<g>
				<g>
					<path d="M241.715,292.215c-42.855,50.359-47.742,125.545-32.9,187.651c3.553,14.868,26.697,9.366,23.129-5.565       c-12.621-52.812-10.897-121.337,26.027-164.725C267.791,298.035,251.635,280.558,241.715,292.215z"/>
					<path d="M219.656,489.178c-6.247,0-10.189-4.426-11.329-9.195c-7.901-33.064-9.697-67.097-5.194-98.418       c5.141-35.757,17.993-65.928,38.201-89.673l0.381,0.324l-0.381-0.324c2.674-3.142,6.096-4.514,9.637-3.864       c4.201,0.771,8.119,4.366,9.75,8.945c1.618,4.544,0.754,9.256-2.37,12.928c-37.522,44.09-37.993,113.774-25.922,164.285       c1.918,8.024-3.459,13.173-9.267,14.56C221.925,489.041,220.755,489.178,219.656,489.178z M249.233,288.867       c-2.087,0-4.679,0.783-7.137,3.672c-20.083,23.599-32.859,53.6-37.973,89.167c-4.485,31.198-2.695,65.101,5.177,98.043       c1.752,7.331,8.295,9.299,13.63,8.022c5.339-1.276,10.284-6,8.526-13.355c-12.128-50.75-11.631-120.79,26.133-165.166       c2.887-3.392,3.685-7.746,2.19-11.944c-1.515-4.254-5.127-7.588-8.988-8.296C250.316,288.923,249.793,288.867,249.233,288.867z       "/>
				</g>
				<g>
					<g>
						<g>
							<path style="fill:#71D2C4;" d="M200.694,468.345l33.797-0.873l1.198,43.227l-82.358,0.685l-0.377-9.91         c0,0,5.249-18.871,48.158-13.794L200.694,468.345z"/>
							<path d="M152.85,511.888l-0.399-10.473l0.021-0.075c0.219-0.784,5.809-19.058,48.128-14.223l-0.417-19.259l34.794-0.899         l1.226,44.236L152.85,511.888z M153.457,501.542l0.355,9.339l81.363-0.676l-1.169-42.219l-32.801,0.848l0.42,19.412         l-0.571-0.067C160.343,483.358,153.863,500.327,153.457,501.542z"/>
						</g>
						<g>
							<path style="fill:#FFFFFF;" d="M176.682,487.526c-20.636,2.922-23.728,13.948-23.728,13.948l0.377,9.91l29.499-0.249         C181.983,503.004,180.14,495.094,176.682,487.526z"/>
							<path d="M152.85,511.888l-0.399-10.474l0.021-0.076c0.13-0.463,3.419-11.374,24.14-14.308l0.37-0.052l0.155,0.339         c3.237,7.086,5.262,14.859,6.19,23.765l0.057,0.547L152.85,511.888z M153.457,501.542l0.355,9.339l28.462-0.241         c-0.926-8.425-2.856-15.817-5.892-22.565C157.464,490.872,153.761,500.631,153.457,501.542z"/>
						</g>
						<g>
							<polygon style="fill:#FFFFFF;" points="235.32,500.176 152.954,501.474 153.331,511.384 235.755,510.699        "/>
							<path d="M152.85,511.888l-0.416-10.906l83.364-1.314l0.477,11.527L152.85,511.888z M153.473,501.966l0.339,8.915         l81.421-0.677l-0.394-9.52L153.473,501.966z"/>
						</g>
						<g>
							<g>
								<g>
									<polygon points="201.352,476.042 201.328,475.02 215.981,474.656 216.004,475.678          "/>
								</g>
							</g>
							<g>
								<g>
									
										<rect x="201.508" y="482.352" transform="matrix(0.9997 -0.0257 0.0257 0.9997 -12.3638 5.5357)" width="14.532" height="1.022"/>
								</g>
							</g>
							<g>
								<circle cx="216.812" cy="475.081" r="0.888"/>
								<path d="M216.812,476.469c-0.766,0-1.388-0.622-1.388-1.388c0-0.766,0.623-1.388,1.388-1.388          c0.766,0,1.388,0.622,1.388,1.388C218.2,475.847,217.578,476.469,216.812,476.469z M216.812,474.693          c-0.214,0-0.388,0.174-0.388,0.388c0,0.214,0.174,0.388,0.388,0.388s0.388-0.174,0.388-0.388          C217.2,474.867,217.026,474.693,216.812,474.693z"/>
							</g>
							<g>
								<circle cx="216.865" cy="482.648" r="0.888"/>
								<path d="M216.865,484.036c-0.766,0-1.388-0.623-1.388-1.388c0-0.766,0.623-1.388,1.388-1.388          c0.766,0,1.388,0.622,1.388,1.388C218.253,483.413,217.631,484.036,216.865,484.036z M216.865,482.259          c-0.214,0-0.388,0.174-0.388,0.388c0,0.214,0.174,0.388,0.388,0.388c0.214,0,0.388-0.174,0.388-0.388          C217.253,482.434,217.079,482.259,216.865,482.259z"/>
							</g>
						</g>
					</g>
				</g>
			</g>
			<g>
				<g>
					<path d="M302.086,304.136c56.066,35.059,83.439,105.256,88.053,168.944c1.105,15.246-22.62,16.994-23.729,1.682       c-3.923-54.157-26.269-118.959-74.575-149.166C278.987,317.561,289.107,296.02,302.086,304.136z"/>
					<path d="M378.11,485.915c-5.67,0-11.637-3.362-12.199-11.118C362.158,423,340.658,356.715,291.57,326.02       c-7.091-4.434-7.579-13.078-3.955-18.872c2.623-4.195,8.056-7.612,14.735-3.435c26.438,16.531,47.804,41.409,63.507,73.943       c13.755,28.498,22.324,61.482,24.781,95.389c0.416,5.75-3.003,12.22-11.495,12.835       C378.802,485.903,378.456,485.915,378.11,485.915z M296.383,302.838c-3.518,0-6.305,2.257-7.92,4.839       c-3.363,5.379-2.922,13.393,3.637,17.495c49.406,30.893,71.039,97.511,74.81,149.553c0.546,7.543,6.694,10.553,12.162,10.156       c5.473-0.396,11.114-4.247,10.569-11.765c-2.447-33.781-10.982-66.641-24.684-95.026c-15.62-32.361-36.862-57.1-63.136-73.53       C299.876,303.344,298.048,302.838,296.383,302.838z"/>
				</g>
				<g>
					<g>
						<g>
							<path style="fill:#71D2C4;" d="M394.4,459.644l-32.482,9.378l11.917,41.569l78.717-24.228l-2.634-9.561         c0,0-10.705-16.403-50.075,1.4L394.4,459.644z"/>
							<path d="M373.495,511.219L361.3,468.68l33.439-9.655l5.421,18.485c38.881-17.398,49.73-1.663,50.176-0.981l0.064,0.141         l2.764,10.029L373.495,511.219z M362.536,469.364l11.639,40.6l77.766-23.935l-2.482-9.009         c-0.76-1.033-12.148-15.212-49.41,1.638l-0.524,0.237l-5.464-18.632L362.536,469.364z"/>
						</g>
						<g>
							<path style="fill:#FFFFFF;" d="M423.084,470.674c20.555-3.449,26.833,6.128,26.833,6.128l2.634,9.561l-28.196,8.674         C422.707,487.031,422.074,478.933,423.084,470.674z"/>
							<path d="M423.976,495.677l-0.11-0.539c-1.806-8.769-2.224-16.791-1.278-24.524l0.045-0.371l0.368-0.062         c20.641-3.466,27.07,5.945,27.334,6.348l0.064,0.141l2.764,10.028L423.976,495.677z M423.536,471.106         c-0.855,7.351-0.463,14.98,1.199,23.291l27.205-8.369l-2.482-9.008C448.887,476.245,442.357,468.071,423.536,471.106z"/>
						</g>
						<g>
							<polygon style="fill:#FFFFFF;" points="371.008,500.448 449.917,476.803 452.552,486.364 373.772,510.611        "/>
							<path d="M373.426,511.241l-3.028-11.132l79.866-23.932l2.899,10.522L373.426,511.241z M371.618,500.787l2.501,9.194         l77.821-23.952l-2.37-8.601L371.618,500.787z"/>
						</g>
						<g>
							<g>
								<g>
									<polygon points="396.097,467.179 395.811,466.198 381.734,470.278 382.02,471.259          "/>
								</g>
							</g>
							<g>
								<g>
									
										<rect x="383.817" y="475.413" transform="matrix(0.9607 -0.2774 0.2774 0.9607 -116.6853 127.1819)" width="14.532" height="1.022"/>
								</g>
							</g>
							<g>
								<path d="M380.222,471.203c0.148,0.468,0.647,0.727,1.115,0.578c0.468-0.148,0.727-0.647,0.578-1.115          c-0.148-0.467-0.647-0.727-1.115-0.578C380.333,470.236,380.074,470.735,380.222,471.203z"/>
								<path d="M381.071,472.323c-0.59,0-1.138-0.379-1.325-0.969c-0.112-0.354-0.08-0.729,0.091-1.059          c0.171-0.33,0.46-0.572,0.814-0.684c0.727-0.234,1.511,0.174,1.742,0.903c0.231,0.73-0.174,1.512-0.903,1.743          C381.35,472.302,381.21,472.323,381.071,472.323z M381.069,470.546c-0.039,0-0.078,0.006-0.117,0.018          c-0.1,0.031-0.18,0.099-0.228,0.191c-0.048,0.092-0.057,0.197-0.025,0.296l0,0c0.065,0.205,0.282,0.315,0.488,0.253          c0.099-0.031,0.179-0.1,0.227-0.191c0.048-0.092,0.057-0.197,0.025-0.296C381.386,470.652,381.233,470.546,381.069,470.546z          "/>
							</g>
							<g>
								<path d="M382.458,478.432c0.148,0.467,0.647,0.727,1.115,0.578c0.468-0.148,0.727-0.648,0.578-1.115          c-0.148-0.468-0.647-0.727-1.115-0.578C382.569,477.465,382.31,477.964,382.458,478.432z"/>
								<path d="M383.303,479.552c-0.22,0-0.438-0.053-0.639-0.157c-0.328-0.171-0.571-0.46-0.683-0.812l0,0          c-0.231-0.73,0.174-1.512,0.903-1.743c0.729-0.232,1.512,0.174,1.743,0.904c0.231,0.73-0.176,1.512-0.905,1.743          C383.586,479.53,383.444,479.552,383.303,479.552z M383.304,477.775c-0.038,0-0.078,0.006-0.117,0.018          c-0.099,0.031-0.179,0.1-0.227,0.191c-0.048,0.092-0.057,0.197-0.025,0.296v0.001c0.031,0.099,0.099,0.179,0.191,0.227          c0.093,0.047,0.198,0.057,0.296,0.025c0.205-0.064,0.318-0.283,0.254-0.488          C383.623,477.881,383.469,477.775,383.304,477.775z"/>
							</g>
						</g>
					</g>
				</g>
			</g>
		</g>
		<g>
			<g>
				<g>
					<path style="fill:#004421;" d="M189.121,190.873c0,0-124.1-5.099,6.379-130.274       C195.499,60.599,322.425,181.095,189.121,190.873z"/>
					<path d="M189.129,191.374l-0.028-0.001c-0.419-0.017-42.009-2.019-51.741-27.734c-8.835-23.345,10.61-58.134,57.794-103.4       l0.344-0.33l0.346,0.328c0.167,0.158,16.822,16.043,31.573,36.443c24.749,34.225,25.211,54.656,21.241,65.77       c-5.978,16.734-25.997,26.465-59.5,28.922L189.129,191.374z M195.499,61.293c-46.62,44.801-65.863,79.112-57.205,101.991       c9.398,24.833,49.554,27.027,50.82,27.088c33.054-2.429,52.771-11.937,58.602-28.259       C260.721,125.704,200.64,66.284,195.499,61.293z"/>
				</g>
				<g>
					<rect x="148.079" y="146.845" transform="matrix(0.0791 -0.9969 0.9969 0.0791 28.6166 325.6677)" width="84.985" height="1"/>
				</g>
			</g>
			<g>
				<g>
					<path style="fill:#004421;" d="M191.819,276.805c0,0-157.93,3.603-15.882-141.773       C175.937,135.032,332.221,232.309,191.819,276.805z"/>
					<path d="M191.059,277.31c-6.982,0-59.071-1.02-71.961-30.686c-10.805-24.866,8.198-62.529,56.48-111.942l0.281-0.287       l0.341,0.212c0.2,0.124,20.195,12.639,39.244,30.445c17.633,16.483,38.04,41.009,35.122,64.245       c-2.552,20.326-22.267,36.47-58.597,47.983l-0.14,0.023C191.793,277.305,191.528,277.31,191.059,277.31z M176.011,135.671       c-47.763,48.952-66.602,86.146-55.996,110.555c13.275,30.554,69.391,30.11,71.721,30.081       c35.878-11.383,55.339-27.241,57.837-47.132C254.884,186.9,181.668,139.278,176.011,135.671z"/>
				</g>
				<g>
					<rect x="183.417" y="177.134" transform="matrix(0.9892 -0.1469 0.1469 0.9892 -31.3248 29.4795)" width="1" height="99.357"/>
				</g>
			</g>
			<g>
				<g>
					<path style="fill:#004421;" d="M199.575,344.378c0,0-127.394,8.323-40.592-127.119       C158.983,217.259,316.902,284.128,199.575,344.378z"/>
					<path d="M195.515,344.973c-4.726,0-13.025-0.322-22.138-2.145c-12.978-2.596-30.313-8.852-39.2-23.914       c-13.021-22.068-4.816-56.36,24.386-101.925l0.228-0.355l0.388,0.164c0.207,0.087,20.878,8.9,41.469,22.747       c34.539,23.228,42.323,42.542,42.771,54.656c0.679,18.38-13.995,35.412-43.614,50.622l-0.196,0.054       C199.566,344.879,198.057,344.973,195.515,344.973z M159.175,217.887c-28.795,45.041-36.916,78.857-24.139,100.516       c8.695,14.74,25.743,20.882,38.513,23.44c13.211,2.646,24.697,2.107,25.892,2.042c29.179-15.004,43.64-31.708,42.977-49.646       C240.948,254.432,165.302,220.562,159.175,217.887z"/>
				</g>
				<g>
					<rect x="186.005" y="258.475" transform="matrix(0.951 -0.3092 0.3092 0.951 -84.4436 72.5099)" width="1" height="88.3"/>
				</g>
			</g>
			<g>
				<g>
					<path style="fill:#004421;" d="M351.32,181.465c0,0,122.678-19.413-21.397-128.663       C329.923,52.802,217.779,187.164,351.32,181.465z"/>
					<path d="M343.374,182.14c-28.939,0-47.247-7.394-54.477-22.024c-5.229-10.58-7.132-30.928,13.494-67.785       c12.294-21.968,27-39.672,27.147-39.849l0.306-0.366l0.38,0.288c52.102,39.507,75.439,71.814,69.361,96.024       c-6.693,26.668-47.773,33.465-48.188,33.53l-0.057,0.006C348.602,182.081,345.946,182.14,343.374,182.14z M330.004,53.491       c-4.529,5.553-57.338,71.524-40.21,106.182c7.679,15.538,28.368,22.699,61.476,21.294c1.25-0.208,40.888-7.037,47.348-32.785       C404.57,124.456,381.488,92.601,330.004,53.491z"/>
				</g>
				<g>
					<rect x="344.347" y="95.905" transform="matrix(0.981 -0.194 0.194 0.981 -20.2978 69.5308)" width="0.999" height="84.985"/>
				</g>
			</g>
			<g>
				<g>
					<path style="fill:#004421;" d="M358.575,267.133c0,0,157.288-14.681-0.615-142.658       C357.96,124.474,213.97,239.168,358.575,267.133z"/>
					<path d="M358.551,267.637l-0.07-0.014c-37.417-7.236-58.866-20.992-63.752-40.887c-3.082-12.553-0.82-34.518,27.46-67.875       c16.861-19.889,35.276-34.632,35.46-34.778l0.315-0.251l0.311,0.253c53.672,43.5,76.901,78.713,69.044,104.661       c-10.002,33.034-68.111,38.829-68.696,38.884L358.551,267.637z M357.96,125.118c-5.202,4.237-72.422,60.005-62.26,101.381       c4.781,19.469,25.945,32.97,62.898,40.129c2.313-0.235,58.111-6.291,67.764-38.172       C434.073,202.984,411.061,168.218,357.96,125.118z"/>
				</g>
				<g>
					<rect x="310.966" y="216.062" transform="matrix(0.0313 -0.9995 0.9995 0.0313 132.9054 570.254)" width="99.357" height="1"/>
				</g>
			</g>
			<g>
				<g>
					<path style="fill:#004421;" d="M358.683,335.15c0,0,127.502-6.461,25.623-130.96       C384.306,204.19,235.177,288.868,358.683,335.15z"/>
					<path d="M358.604,335.654l-0.098-0.036c-31.179-11.684-47.723-26.905-49.173-45.24c-0.956-12.084,4.542-32.169,36.165-59.234       c18.853-16.135,38.366-27.278,38.561-27.388l0.367-0.208l0.267,0.326c34.273,41.883,46.388,74.997,36.006,98.422       c-13.54,30.553-61.509,33.33-61.991,33.354L358.604,335.654z M384.188,204.836c-5.776,3.366-77,45.754-73.858,85.463       c1.416,17.895,17.712,32.815,48.429,44.345c2.48-0.155,48.036-3.438,61.028-32.757       C429.973,278.896,417.998,246.246,384.188,204.836z"/>
				</g>
				<g>
					<rect x="322.688" y="291.666" transform="matrix(0.1973 -0.9803 0.9803 0.1973 8.048 594.1603)" width="88.301" height="1"/>
				</g>
			</g>
			<g>
				<g>
					<path style="fill:#004421;" d="M269.313,126.815c0,0-140.649-5.477-7.182-123.826C262.131,2.99,397.607,94.58,269.313,126.815z       "/>
					<path d="M269.366,127.318l-0.072-0.003c-0.53-0.021-53.157-2.397-63.423-31.12c-7.921-22.163,10.896-53.648,55.928-93.579       l0.291-0.257l0.321,0.217c0.689,0.466,68.873,47.058,62.143,85.315c-3.122,17.745-21.667,31.004-55.118,39.409L269.366,127.318       z M262.17,3.624c-44.484,39.509-63.11,70.541-55.357,92.235c9.871,27.618,60.251,30.351,62.45,30.454       c32.988-8.301,51.261-21.286,54.306-38.595C329.954,51.426,267.24,7.134,262.17,3.624z"/>
				</g>
				<g>
					<rect x="266.371" y="34.986" transform="matrix(0.9985 -0.054 0.054 0.9985 -3.9982 14.5331)" width="1" height="92.497"/>
				</g>
			</g>
			<g>
				<path style="fill:#004421;" d="M272.821,190.683c0,0-143.133-5.952-7.508-129.447      C265.313,61.236,403.32,157.195,272.821,190.683z"/>
				<path d="M272.874,191.186l-0.073-0.003c-0.536-0.022-53.664-2.569-64.451-32.255c-8.424-23.184,10.628-56.176,56.626-98.061      l0.295-0.269l0.327,0.228c0.177,0.123,17.815,12.452,34.338,29.537c15.299,15.82,32.744,39.079,28.97,60.036      c-3.309,18.373-22.137,32.09-55.961,40.77L272.874,191.186z M265.353,61.876c-45.452,41.454-64.317,73.993-56.064,96.708      c10.377,28.562,61.243,31.483,63.48,31.596c33.365-8.575,51.922-22.019,55.152-39.96      C334.766,112.216,270.531,65.563,265.353,61.876z"/>
			</g>
			<g>
				
					<rect x="270.816" y="104.78" transform="matrix(0.9986 -0.0538 0.0538 0.9986 -7.5685 14.8011)" width="0.999" height="86.586"/>
			</g>
			<g>
				<g>
					<path style="fill:#004421;" d="M278.119,277.061c0,0-160.986-6.03-8.095-139.56C270.024,137.501,425,240.598,278.119,277.061z"/>
					<path d="M278.171,277.564l-0.07-0.003c-0.609-0.022-61.062-2.658-72.578-35.188c-8.828-24.938,12.763-60.348,64.173-105.248       l0.288-0.251l0.318,0.212c0.196,0.131,19.838,13.266,38.305,31.521c17.098,16.901,36.657,41.779,32.745,64.323       c-3.484,20.075-24.718,35.087-63.112,44.618L278.171,277.564z M270.063,138.131c-50.862,44.483-72.259,79.442-63.598,103.908       c11.118,31.406,69.243,34.413,71.603,34.52c37.931-9.428,58.89-24.165,62.298-43.801       C347.487,191.728,275.488,141.822,270.063,138.131z"/>
				</g>
				<g>
					<rect x="276.875" y="189.663" transform="matrix(0.9986 -0.0538 0.0538 0.9986 -12.1212 15.2466)" width="1" height="86.586"/>
				</g>
			</g>
			<g>
				<g>
					<path style="fill:#004421;" d="M283.996,360.389c0,0-149.582-14.509-6.759-144.559       C277.237,215.83,421.421,325.123,283.996,360.389z"/>
					<path d="M284.035,360.896l-0.087-0.009c-0.558-0.054-55.888-5.795-67.016-39.265c-8.73-26.261,11.446-61.979,59.968-106.162       l0.308-0.28l0.331,0.251c0.186,0.141,18.84,14.355,36.145,33.871c16.017,18.063,34.121,44.5,29.416,67.865       c-4.025,19.991-23.868,34.696-58.979,43.706L284.035,360.896z M277.264,216.482c-47.979,43.761-67.958,79.026-59.384,104.822       c10.718,32.245,63.598,38.314,66.078,38.579c34.651-8.909,54.221-23.347,58.161-42.913       C350.678,274.463,282.635,220.649,277.264,216.482z"/>
				</g>
				<g>
					<rect x="281.745" y="273.616" transform="matrix(0.9986 -0.0538 0.0538 0.9986 -16.6269 15.6298)" width="1" height="86.586"/>
				</g>
			</g>
			<g>
				<path style="fill:#004421;" d="M276.381,360.478c-17.52-16.905-64.843-48.486-167.946-38.202c0,0,87.649,108.267,168.851,53.794      c86.956,44.719,161.499-72.955,161.499-72.955C335.183,304.821,291.829,341.661,276.381,360.478z"/>
				<path d="M228.25,391.89c-3.844,0-7.734-0.249-11.668-0.748c-17.446-2.212-35.762-9.317-54.44-21.119      c-31.765-20.069-53.876-47.161-54.096-47.433l-0.583-0.72l0.922-0.092c45.026-4.49,84.145-1.487,116.27,8.928      c26.485,8.585,42.679,20.456,51.683,29.039c7.952-9.567,22.664-23.229,47.979-34.82c30.707-14.059,69.216-21.565,114.458-22.31      l0.926-0.015l-0.495,0.783c-0.188,0.295-19.019,29.761-48.25,53.369c-17.188,13.881-34.56,23.057-51.633,27.271      c-21.28,5.253-42.139,2.771-62.005-7.373C262.116,386.785,245.656,391.89,228.25,391.89z M109.422,322.681      c3.733,4.432,24.539,28.359,53.274,46.51c18.551,11.718,36.727,18.77,54.024,20.961c21.587,2.733,41.871-2.144,60.286-14.496      l0.245-0.165l0.262,0.135c19.72,10.141,40.429,12.641,61.558,7.429c16.928-4.176,34.167-13.282,51.238-27.066      c26.444-21.351,44.345-47.523,47.54-52.357c-44.696,0.831-82.748,8.299-113.116,22.203      c-25.511,11.68-40.165,25.458-47.966,34.961l-0.344,0.418l-0.391-0.376c-8.847-8.537-24.996-20.529-51.686-29.181      C192.574,321.358,153.914,318.339,109.422,322.681z"/>
			</g>
		</g>
		<g>
			<g>
				<g>
					<path d="M500.703,235.19c0.12,15.21-7.41,32.57-24.35,34.56c-16.04,1.89-30.94-10.03-43.13-18.84       c-4.46-3.22-8.84-6.56-13.16-9.95c4.4-5.27,7.39-11.57,8.09-19.09c6.75,5.4,13.61,10.65,20.7,15.62       c6.29,4.41,13.34,10.16,20.98,12.06c5.79,1.44,8.8-1.89,10.19-7.28c1.94-7.49,0.22-15.65-1.24-23.05       c-1.88-9.45-4.06-18.85-6.36-28.21c-0.91-3.69-1.84-7.38-2.8-11.06c-1.19-4.59-2.41-9.18-3.67-13.76       c-2.63-9.62-5.39-19.21-8.22-28.78v-0.01c-1.21-4.08-0.8-8.39,2.09-11.24c0.35-0.35,0.74-0.68,1.17-0.98       c0.01-0.01,0.01-0.01,0.02-0.01c0.52-0.37,1.1-0.7,1.74-0.99c2.13-0.96,4.9-1.03,7.37-0.28c2.7,0.81,5.06,2.6,5.85,5.3       c3.18,10.74,6.31,21.5,9.28,32.3c1.22,4.4,2.41,8.8,3.56,13.21c1,3.78,1.97,7.56,2.91,11.35       C495.683,202.01,500.563,218.65,500.703,235.19z"/>
				</g>
				<g>
					<g>
						<g>
							<path style="fill:#FFFFFF;" d="M455.458,167.223c0,0-9.299,18.143,16.026,12.334c25.325-5.808,35.619-11.523,20.557-19.862         c0,0,22.035-7.834-2.639-64.133c-1.272-2.903-3.432-6.159-6.598-6.324c-4.433-0.232-8.2,7.877-5.1,31.866         c0,0-7.065-41.808-18.282-37.583c-2.131,0.802-3.292,3.123-3.639,5.374c-0.712,4.624,1.71,23.512,5.344,36.676         c0,0-7.86-24.695-13.554-31.702c-5.694-7.008-13.721-6.797-10.875,9.574c0.735,4.227,1.824,8.385,3.151,12.464l6.266,19.26         c0,0-16.126-17.031-23.312-9.441C418.29,130.493,432.299,165.642,455.458,167.223z"/>
							<path d="M462.871,181.2c-3.926,0-6.674-0.987-8.207-2.957c-2.68-3.444-0.772-8.723,0.038-10.582         c-14.105-1.4-25.636-15.356-30.874-28.768c-2.002-5.126-3.417-11.368-1.388-13.512c1.322-1.397,3.015-2.105,5.03-2.105         c6.321,0,14.27,6.943,17.526,10.068l-5.623-17.284c-1.431-4.399-2.468-8.5-3.168-12.534         c-1.816-10.442,0.896-13.36,2.675-14.17c2.517-1.147,6.079,0.503,9.08,4.195c3.432,4.223,7.569,14.577,10.384,22.352         c-2.275-11.297-3.622-23.405-3.056-27.087c0.438-2.842,1.917-4.998,3.956-5.766c1.474-0.554,2.951-0.415,4.397,0.416         c5.952,3.42,10.306,18.197,12.633,28.174c-0.679-10.927,0.427-18.405,3.241-21.443c0.944-1.021,2.083-1.523,3.314-1.462         c3.492,0.183,5.75,3.703,7.029,6.624c14.156,32.299,12.945,48.751,9.438,56.866c-2.001,4.628-4.77,6.699-6.184,7.502         c4.654,2.719,6.749,5.253,6.4,7.73c-0.632,4.479-8.981,8.242-27.918,12.585C468.234,180.815,465.323,181.2,462.871,181.2z          M427.471,124.276c-0.001,0-0.001,0-0.002,0c-1.729,0-3.177,0.603-4.303,1.792c-1.364,1.441-0.709,6.565,1.593,12.461         c3.89,9.958,14.738,27.102,30.732,28.194l0.756,0.052l-0.345,0.675c-0.033,0.065-3.287,6.535-0.448,10.18         c2.232,2.865,7.588,3.35,15.918,1.438c11.31-2.594,26.429-6.634,27.15-11.75c0.301-2.132-1.962-4.551-6.725-7.188         l-0.962-0.533l1.035-0.376c0.039-0.014,3.98-1.501,6.532-7.455c3.403-7.938,4.523-24.099-9.461-56.007         c-1.166-2.663-3.183-5.87-6.166-6.026c-0.927-0.053-1.78,0.337-2.528,1.143c-1.949,2.104-4.807,8.819-2.049,30.16         l-0.989,0.147c-0.054-0.319-5.485-31.92-14.067-36.852c-1.191-0.685-2.351-0.796-3.546-0.347         c-1.697,0.64-2.938,2.502-3.32,4.982c-0.725,4.708,1.778,23.599,5.332,36.467l-0.959,0.285         c-0.078-0.246-7.897-24.685-13.465-31.539c-2.705-3.33-5.804-4.866-7.89-3.916c-2.58,1.175-3.348,5.945-2.105,13.089         c0.693,3.987,1.719,8.041,3.135,12.395l6.951,21.368l-1.525-1.609C445.645,135.397,435.025,124.276,427.471,124.276z"/>
						</g>
						<g>
							
								<rect x="452.752" y="123.508" transform="matrix(0.9767 -0.2148 0.2148 0.9767 -15.6755 103.7871)" width="33.752" height="1"/>
						</g>
						<g>
							<path d="M471.995,150.637c-1.989-7.232-6.595-11.489-13.689-12.652c-5.329-0.874-10.13,0.413-10.178,0.425l-0.264-0.965         c0.2-0.055,20.089-5.276,25.096,12.926L471.995,150.637z"/>
						</g>
						<g>
							<path d="M458.247,167.941c-0.7,0-1.401-0.029-2.101-0.089l0.084-0.996c2.105,0.177,4.22,0.076,6.293-0.302         c2.421-0.443,4.753-1.257,6.932-2.42l0.471,0.882c-2.27,1.212-4.699,2.06-7.223,2.521         C461.233,167.806,459.741,167.941,458.247,167.941z"/>
						</g>
						<g>
							
								<rect x="483.181" y="160.351" transform="matrix(0.9665 -0.2567 0.2567 0.9665 -24.9493 130.5879)" width="9.01" height="1"/>
						</g>
					</g>
				</g>
			</g>
			<g>
				<g>
					<path d="M145.083,327.81c-8.77,1.07-17.53,2.15-26.3,3.22c-11.23,1.38-22.46,2.75-33.69,4.13       c-14.01,1.72-41.03,6.73-44.58-13.27c-1.44-8.14,3.42-15.04,8.67-20.67c5.6-6,11.33-11.89,17.25-17.58       c16.02-15.4,33.26-29.38,51.47-42.01c1.82,6.9,5.57,12.45,10.47,16.9c-20.56,14.4-39.79,30.73-57.38,48.61       c-2.79,2.83-5.69,5.65-8.26,8.69c-0.07,0.08-0.34,0.44-0.68,0.9c1.05,0.2,2,0.39,2.2,0.4c2.07,0.08,4.07-0.09,6.12-0.31       c4.39-0.46,8.77-1.06,13.15-1.59c11.25-1.38,22.5-2.76,33.75-4.13c4.92-0.6,9.83-1.21,14.74-1.81       c3.19-0.39,6.38-0.78,9.57-1.17C154.353,306.55,157.863,326.25,145.083,327.81z"/>
				</g>
				<g>
					<g>
						<g>
							<path style="fill:#FFFFFF;" d="M131.468,302.059c0,0-12.041-8.119-13.767,1.91c-1.315,7.64,0.641,24.069,1.647,31.463         c0.464,3.411,2.638,6.396,5.791,7.417c2.039,0.66,7.211-0.92,9.621-3.067c5.187,3.376,12.203,10.137,25.06,10.539         c9.617,0.3,19.833-1.714,28.531-6.182c4.472-2.297,8.46-5.376,10.836-10.041c1.321-2.592,2.215-5.602,1.97-8.546         c-0.122-1.467-0.548-2.883-1.311-4.119c-0.222-0.36-1.863-2.827-1.863-2.827s7.66-13.325-6.276-18.279         c0,0,10.447-21.725-19.486-14.571c-1.813,0.433-4.041-7.875-11.3-11.061c-1.077-0.473-8.614-3.65-16.094-0.524         C135.928,277.892,130.109,289.282,131.468,302.059z"/>
							<path d="M161.707,350.85c-0.635,0-1.269-0.01-1.903-0.029c-10.895-0.341-17.667-5.193-22.611-8.736         c-0.842-0.603-1.643-1.177-2.396-1.68c-2.588,2.083-7.652,3.619-9.812,2.919c-3.219-1.042-5.627-4.114-6.132-7.825         c-0.94-6.912-2.984-23.828-1.644-31.615c0.438-2.544,1.559-4.218,3.333-4.975c3.455-1.477,8.357,1.028,10.337,2.194         c-0.968-12.392,4.599-23.564,13.755-27.392c7.454-3.115,15.042-0.108,16.488,0.527c4.563,2.003,7.192,5.964,8.932,8.585         c0.749,1.129,1.681,2.522,2.051,2.448c10.305-2.462,17.07-1.8,20.109,1.969c3.417,4.238,0.968,10.917,0.167,12.804         c3.878,1.489,6.414,3.789,7.542,6.845c1.855,5.023-0.687,10.413-1.357,11.692c0.425,0.64,1.526,2.3,1.705,2.59         c0.784,1.269,1.25,2.73,1.384,4.34c0.287,3.442-0.941,6.693-2.023,8.814c-2.126,4.175-5.742,7.53-11.053,10.259         C180.665,348.648,171.19,350.85,161.707,350.85z M134.712,339.154l0.32,0.208c0.862,0.561,1.776,1.216,2.743,1.909         c4.84,3.468,11.469,8.218,22.06,8.549c9.944,0.307,19.991-1.866,28.287-6.127c5.118-2.629,8.591-5.842,10.62-9.823         c1.021-2.005,2.184-5.07,1.917-8.277c-0.122-1.452-0.538-2.763-1.239-3.897c-0.221-0.358-1.854-2.813-1.854-2.813         l-0.171-0.257l0.154-0.269c0.034-0.059,3.352-5.945,1.434-11.127c-1.07-2.892-3.575-5.056-7.444-6.431l-0.524-0.186         l0.241-0.501c0.038-0.078,3.71-7.869,0.178-12.246c-2.778-3.441-9.203-3.987-19.097-1.622         c-1.042,0.247-1.87-0.99-3.116-2.868c-1.675-2.523-4.206-6.337-8.501-8.222c-1.379-0.605-8.621-3.478-15.7-0.52         c-8.857,3.703-14.347,15.214-13.054,27.373l0.114,1.067l-0.89-0.6c-0.064-0.042-6.426-4.28-10.256-2.645         c-1.441,0.616-2.362,2.038-2.739,4.225c-1.316,7.65,0.715,24.444,1.65,31.31c0.454,3.333,2.592,6.084,5.449,7.009         c1.764,0.57,6.78-0.867,9.135-2.964L134.712,339.154z"/>
						</g>
						<g>
							<rect x="179.86" y="301.898" transform="matrix(0.9483 -0.3173 0.3173 0.9483 -86.3518 74.582)" width="11.874" height="1"/>
						</g>
						<g>
							
								<rect x="185.828" y="319.567" transform="matrix(0.9714 -0.2374 0.2374 0.9714 -70.4835 54.7175)" width="12.33" height="1"/>
						</g>
						<g>
							
								<rect x="155.417" y="287.557" transform="matrix(0.9632 -0.2687 0.2687 0.9632 -71.3682 54.6518)" width="17.117" height="1"/>
						</g>
						<g>
							
								<rect x="131.435" y="302.041" transform="matrix(0.9972 -0.0749 0.0749 0.9972 -22.7173 10.747)" width="1" height="12.459"/>
						</g>
						<g>
							<rect x="134.006" y="330.694" transform="matrix(0.9984 -0.0557 0.0557 0.9984 -18.4712 8.0157)" width="1" height="9.095"/>
						</g>
					</g>
				</g>
			</g>
		</g>
		<g>
			<g>
				<g>
					<g>
						<g>
							<path style="fill:#FFB500;" d="M249.112,175.777c1.546,27.086-6.751,51.016-20.068,62.792         c-5.201,4.584-11.14,7.311-17.594,7.67c-22.948,1.276-43.293-28.204-45.442-65.84c-2.148-37.636,14.713-69.186,37.66-70.462         c6.107-0.34,12.022,1.491,17.437,5.058C236.133,124.885,247.533,148.124,249.112,175.777z"/>
							<path d="M210.025,246.779c-22.588,0-42.4-29.29-44.515-66.352c-1.376-24.1,4.888-46.418,16.756-59.704         c6.21-6.951,13.601-10.853,21.376-11.285c6.077-0.34,12.049,1.39,17.739,5.139c15.614,10.276,26.695,34.288,28.23,61.171l0,0         c1.495,26.197-6.448,51.003-20.236,63.195c-5.464,4.816-11.485,7.438-17.897,7.795         C210.993,246.766,210.509,246.779,210.025,246.779z M205.13,110.397c-0.478,0-0.955,0.013-1.433,0.039         c-7.504,0.417-14.657,4.205-20.686,10.953c-11.695,13.092-17.864,35.141-16.503,58.981         c2.13,37.304,22.289,66.623,44.914,65.37c6.183-0.344,12-2.883,17.291-7.546c13.566-11.997,21.377-36.486,19.899-62.389l0,0         c-1.518-26.578-12.423-50.284-27.782-60.393C215.773,112.081,210.498,110.397,205.13,110.397z"/>
						</g>
					</g>
					<g>
						<path d="M217.812,126.661c-4.064-2.906-8.496-4.407-13.065-4.153c-17.167,0.957-29.679,26.444-27.945,56.922        c0.083,1.463,0.207,2.905,0.352,4.336l32.604-10.918l-29.708,26.448c5.683,20.345,17.782,34.325,30.978,33.589        c4.828-0.269,9.263-2.457,13.14-6.152c9.925-9.49,16.054-28.836,14.806-50.771        C237.698,153.57,229.089,134.718,217.812,126.661z"/>
						<path d="M210.02,233.414c-12.772,0.002-24.643-13.182-30.452-33.982l-0.084-0.3l28.119-25.033l-30.884,10.342l-0.063-0.623        c-0.163-1.612-0.278-3.038-0.353-4.358c-1.14-20.031,3.935-38.947,13.242-49.366c4.452-4.983,9.699-7.778,15.174-8.084        c4.588-0.253,9.087,1.173,13.384,4.245h-0.001c11.741,8.388,20.129,27.889,21.369,49.681        c1.208,21.235-4.664,41.316-14.959,51.16c-4.098,3.904-8.626,6.02-13.458,6.289        C210.71,233.404,210.364,233.414,210.02,233.414z M180.615,199.462c5.634,19.886,17.359,32.949,29.451,32.95        c0.311,0,0.621-0.009,0.933-0.026c4.588-0.256,8.902-2.279,12.823-6.014c10.092-9.65,15.844-29.425,14.651-50.38        c-1.224-21.501-9.448-40.705-20.952-48.924h0c-4.107-2.937-8.398-4.299-12.746-4.061c-5.204,0.291-10.212,2.971-14.484,7.752        c-9.137,10.228-14.115,28.867-12.99,48.643c0.064,1.134,0.159,2.347,0.288,3.691l34.323-11.494L180.615,199.462z"/>
					</g>
				</g>
				<g>
					<g>
						<g>
							<path style="fill:#FFB500;" d="M292.965,173.238c1.305,27.098,12.067,50.026,26.546,60.34         c5.653,4.013,11.846,6.102,18.301,5.782c22.955-1.139,40.095-32.591,38.282-70.245c-1.812-37.653-21.891-67.26-44.846-66.121         c-6.109,0.303-11.799,2.744-16.81,6.859C300.533,121.266,291.634,145.572,292.965,173.238z"/>
							<path d="M336.506,239.892c-5.95,0-11.758-1.983-17.284-5.907c-14.992-10.679-25.494-34.514-26.756-60.723l0,0         c-1.294-26.896,7.206-51.937,21.656-63.795c5.265-4.325,11.018-6.67,17.102-6.972c7.758-0.388,15.536,2.719,22.441,8.98         c13.196,11.967,21.768,33.505,22.928,57.617c1.823,37.871-15.562,69.618-38.757,70.768         C337.392,239.881,336.948,239.892,336.506,239.892z M293.464,173.214c1.248,25.914,11.586,49.448,26.337,59.956         c5.749,4.082,11.794,6.003,17.987,5.69c22.643-1.123,39.604-32.4,37.808-69.721c-1.148-23.852-9.598-45.132-22.602-56.924         c-6.703-6.078-14.2-9.094-21.721-8.722c-5.864,0.291-11.421,2.56-16.517,6.746         C300.543,121.905,292.184,146.624,293.464,173.214L293.464,173.214z"/>
						</g>
					</g>
					<g>
						<path d="M318.939,121.109c3.736-3.316,7.986-5.274,12.557-5.501c17.173-0.85,32.29,23.184,33.763,53.675        c0.071,1.464,0.099,2.911,0.105,4.349l-33.569-7.437l32.32,23.185c-3.517,20.829-14.082,36.001-27.282,36.654        c-4.829,0.239-9.47-1.472-13.713-4.739c-10.866-8.396-18.991-26.993-20.052-48.937        C301.986,149.957,308.569,130.305,318.939,121.109z"/>
						<path d="M335.928,226.558c-4.512,0-8.918-1.634-13.113-4.865c-11.272-8.71-19.22-28.064-20.246-49.309        c-1.054-21.801,5.242-42.075,16.038-51.649l0,0c3.951-3.506,8.279-5.399,12.864-5.626c5.462-0.266,10.988,1.958,15.938,6.447        c10.35,9.385,17.381,27.663,18.349,47.704c0.064,1.335,0.099,2.766,0.105,4.372l0.003,0.626l-31.799-7.044l30.591,21.944        l-0.052,0.308c-3.692,21.869-14.584,36.419-27.75,37.071C336.548,226.55,336.237,226.558,335.928,226.558z M332.362,116.087        c-0.281,0-0.561,0.007-0.842,0.021c-4.352,0.215-8.473,2.023-12.249,5.375l0,0c-10.579,9.381-16.742,29.342-15.704,50.853        c1.014,20.965,8.809,40.028,19.858,48.565c4.288,3.302,8.769,4.86,13.383,4.635c12.421-0.614,23.152-15.039,26.76-35.931        l-34.047-24.425l35.339,7.829c-0.012-1.34-0.045-2.556-0.1-3.702c-0.957-19.784-7.862-37.798-18.022-47.011        C342.245,118.223,337.292,116.087,332.362,116.087z"/>
					</g>
				</g>
			</g>
			<g>
				<g>
					<path d="M328.22,290.019c-0.057,0.059-0.116,0.089-0.173,0.148c-19.481,15.204-45.986,19.855-70.272,14.796       c-8.654-1.797-18.165-5.063-26.605-9.842c-13.173-7.404-23.693-18.503-24.08-33.496c-0.316-13.891,10.63-18.296,23.501-18.923       c11.359-0.542,24.254,1.861,32.183,3.346c6.88,1.241,13.773,2.029,20.755,1.256c11.275-1.189,21.286-6.72,32.364-8.412       c2.186-0.337,4.673-0.573,7.317-0.559c7.604-0.06,16.275,1.397,21.395,5.621C359.851,256.66,339.157,281.452,328.22,290.019z"/>
					<path d="M276.788,307.425c-6.342,0-12.755-0.648-19.114-1.973c-9.444-1.961-18.944-5.476-26.75-9.896       c-10.858-6.102-23.895-16.941-24.333-33.918c-0.275-12.108,7.792-18.647,23.976-19.436c11.476-0.544,24.51,1.895,32.299,3.354       c5.648,1.019,13.095,2.082,20.609,1.251c5.943-0.627,11.647-2.508,17.161-4.327c4.893-1.614,9.953-3.284,15.183-4.082       c2.508-0.387,4.986-0.589,7.395-0.564c4.413-0.036,15.309,0.454,21.71,5.735c3.784,3.154,5.664,7.243,5.589,12.155       c-0.194,12.867-13.566,28.085-21.965,34.672c-0.036,0.035-0.072,0.064-0.109,0.092l-0.085,0.073       C314.276,301.548,295.874,307.425,276.788,307.425z M233.974,243.124c-1.131,0-2.253,0.024-3.359,0.077       c-15.538,0.757-23.285,6.952-23.024,18.413c0.426,16.506,13.191,27.095,23.825,33.071c7.72,4.372,17.117,7.848,26.461,9.789       c25.217,5.255,51.335-0.242,69.862-14.7c-0.003-0.003,0.042-0.039,0.088-0.075l0.084-0.072       c8.862-6.941,21.423-22.053,21.603-33.916c0.07-4.596-1.689-8.421-5.228-11.37c-6.147-5.072-16.784-5.527-21.07-5.505       c-2.365-0.017-4.788,0.173-7.245,0.553c-5.148,0.786-10.167,2.442-15.022,4.044c-5.564,1.835-11.318,3.734-17.366,4.372       c-7.64,0.846-15.181-0.23-20.898-1.262C255.691,245.23,244.447,243.124,233.974,243.124z"/>
				</g>
				<g>
					<path style="fill:#AD2328;" d="M328.22,290.019c-0.057,0.059-0.116,0.089-0.173,0.148       c-19.481,15.204-45.986,19.855-70.272,14.796c-8.654-1.797-18.165-5.063-26.605-9.842c9.031-13.422,26.612-23.089,47.279-24.18       C299.204,269.819,317.767,277.557,328.22,290.019z"/>
					<path d="M276.788,307.425c-6.342,0-12.755-0.648-19.114-1.973c-9.444-1.961-18.944-5.476-26.75-9.896l-0.47-0.266l0.301-0.448       c9.418-13.996,27.683-23.345,47.667-24.399c20.086-1.089,39.307,6.293,50.18,19.256l0.292,0.348l-0.318,0.324       c-0.046,0.046-0.091,0.083-0.137,0.119l-0.085,0.073C314.276,301.548,295.874,307.425,276.788,307.425z M231.891,294.952       c7.627,4.246,16.831,7.62,25.986,9.521c25.113,5.231,51.117-0.195,69.631-14.521c-10.731-12.486-29.473-19.571-49.031-18.512       C259.013,272.467,241.223,281.46,231.891,294.952z"/>
				</g>
			</g>
			<g>
				<g>
					<path style="fill:#00C257;" d="M290.03,220.536c0.429,7.413-5.723,13.799-13.74,14.263c-8.017,0.464-14.865-5.17-15.294-12.583       c-0.429-7.413,5.722-13.799,13.74-14.263C282.753,207.489,289.6,213.123,290.03,220.536z"/>
					<path d="M275.372,235.326c-7.867,0-14.447-5.698-14.875-13.081c-0.444-7.676,5.931-14.312,14.21-14.791       c8.289-0.475,15.378,5.377,15.822,13.053l0,0c0.444,7.676-5.931,14.312-14.21,14.791       C276.002,235.317,275.685,235.326,275.372,235.326z M275.653,208.427c-0.294,0-0.59,0.008-0.888,0.025       c-7.729,0.448-13.683,6.609-13.271,13.735c0.413,7.126,7.032,12.558,14.766,12.113c7.73-0.448,13.683-6.609,13.271-13.735       C289.134,213.714,282.995,208.427,275.653,208.427z"/>
				</g>
			</g>
		</g>
	</g>
</g>















</svg>
